<svg width="496" height="167" viewBox="0 0 496 167" fill="none" xmlns="http://www.w3.org/2000/svg">
<path d="M52.9993 16.807H52.6642V20.7279H52.9993V16.807Z" fill="black"/>
<path d="M52.9994 85.0039H52.6643V88.9248H52.9994V85.0039Z" fill="black"/>
<path d="M36.6127 25.1206L36.9029 24.953L34.9424 21.5575L34.6522 21.7251L36.6127 25.1206Z" fill="black"/>
<path d="M70.7081 84.1484L70.9984 83.9808L69.0379 80.5853L68.7477 80.7529L70.7081 84.1484Z" fill="black"/>
<path d="M24.904 36.9407L25.0716 36.6505L21.6761 34.6901L21.5085 34.9803L24.904 36.9407Z" fill="black"/>
<path d="M83.9821 71.0377L84.1497 70.7474L80.7541 68.787L80.5866 69.0772L83.9821 71.0377Z" fill="black"/>
<path d="M20.6934 52.6984H16.7725V53.0335H20.6934V52.6984Z" fill="black"/>
<path d="M88.8914 52.6984H84.9705V53.0335H88.8914V52.6984Z" fill="black"/>
<path d="M25.0858 69.0707L24.9182 68.7805L21.5227 70.741L21.6903 71.0312L25.0858 69.0707Z" fill="black"/>
<path d="M84.1332 34.9933L83.9656 34.7031L80.5701 36.6636L80.7377 36.9538L84.1332 34.9933Z" fill="black"/>
<path d="M36.9001 80.783L36.6099 80.6155L34.6494 84.011L34.9396 84.1786L36.9001 80.783Z" fill="black"/>
<path d="M71.0115 21.7142L70.7213 21.5466L68.7609 24.9421L69.0511 25.1097L71.0115 21.7142Z" fill="black"/>
<path d="M49.1436 13.9606V13.2233H50.1154V9.53698C49.7468 9.70454 49.4117 9.83859 49.043 9.97263V9.06781C49.4117 8.96727 49.8138 8.7662 50.216 8.53162H51.0538V13.2233H52.0256V13.9606H49.1436Z" fill="black"/>
<path d="M55.0072 8.46247C55.5099 8.46247 55.912 8.63003 56.2136 8.93164C56.5152 9.23324 56.6493 9.6689 56.6493 10.2386C56.6493 10.3727 56.6493 10.4732 56.6158 10.5737C56.5823 10.6743 56.5823 10.7748 56.5488 10.8753C56.5152 10.9759 56.4817 11.0429 56.4147 11.1434C56.3477 11.244 56.3142 11.311 56.2807 11.378C56.2471 11.445 56.1801 11.5121 56.1131 11.6126C56.0461 11.7131 55.979 11.7802 55.9455 11.8137C55.912 11.8472 55.845 11.9142 55.7445 12.0147L54.6721 13.1542H56.6493V13.9249H53.4992V13.2547L55.0742 11.5121C55.2083 11.378 55.2753 11.2775 55.3423 11.2105C55.3758 11.1434 55.4429 11.0764 55.5434 10.9759C55.6104 10.8753 55.6774 10.7748 55.711 10.7413C55.7445 10.6743 55.778 10.6072 55.778 10.5067C55.8115 10.4062 55.8115 10.3391 55.8115 10.2386C55.8115 10.1716 55.8115 10.071 55.778 9.937C55.7445 9.80295 55.7109 9.6689 55.6774 9.60188C55.6104 9.50134 55.5769 9.43432 55.4764 9.36729C55.4093 9.30027 55.3088 9.26676 55.2418 9.26676C55.1748 9.23324 55.0742 9.23324 54.9737 9.23324C54.9067 9.23324 54.8396 9.23324 54.7726 9.26676C54.7056 9.26676 54.6386 9.30027 54.5715 9.30027C54.5045 9.33378 54.4375 9.33378 54.3705 9.36729C54.3034 9.4008 54.2364 9.4008 54.1694 9.43432C54.1024 9.46783 54.0689 9.50134 54.0018 9.50134C53.9348 9.53485 53.9013 9.56836 53.8678 9.56836C53.8343 9.60188 53.8008 9.60188 53.7673 9.63539C53.7337 9.6689 53.7002 9.6689 53.7002 9.6689H53.6667L53.3651 8.93164C53.3986 8.93164 53.3986 8.89812 53.4321 8.86461C53.4656 8.8311 53.5327 8.79759 53.6667 8.73056C53.8008 8.66354 53.9013 8.63003 54.0354 8.563C54.1694 8.52949 54.337 8.46247 54.5045 8.42896C54.6386 8.46247 54.8061 8.46247 55.0072 8.46247Z" fill="black"/>
<path d="M52.6294 97.5375C52.1937 97.5375 51.8251 97.437 51.5235 97.2024C51.2219 96.9678 50.9873 96.6662 50.8532 96.264C50.7192 95.8619 50.6522 95.3927 50.6522 94.8565C50.6522 94.4544 50.6857 94.0858 50.7862 93.7171C50.8867 93.382 51.0208 93.0469 51.1884 92.7788C51.3559 92.5107 51.5905 92.3096 51.8921 92.1421C52.1602 91.9745 52.4953 91.9075 52.8305 91.9075C53.4002 91.9075 53.8693 92.075 54.2045 92.3766L53.9028 93.0804C53.5677 92.8123 53.2326 92.7118 52.8305 92.7118C52.4953 92.7118 52.2272 92.8793 51.9926 93.1809C51.7581 93.5161 51.6575 93.9182 51.624 94.3874C51.8921 94.0187 52.2607 93.8177 52.6964 93.8177C53.2326 93.8177 53.6683 93.9852 53.9699 94.3203C54.2715 94.6555 54.439 95.0911 54.439 95.6273C54.439 96.1635 54.2715 96.5992 53.9364 96.9678C53.6012 97.3699 53.1656 97.5375 52.6294 97.5375ZM52.5959 96.7332C52.864 96.7332 53.065 96.6327 53.2326 96.4316C53.4002 96.2305 53.4672 95.9959 53.4672 95.6943C53.4672 95.3927 53.4002 95.1246 53.2326 94.9571C53.0985 94.756 52.864 94.6555 52.5959 94.6555C52.2943 94.6555 52.0597 94.756 51.8921 94.9571C51.7245 95.1581 51.624 95.3927 51.624 95.7279C51.624 95.8954 51.6575 96.0295 51.691 96.1635C51.7581 96.2976 51.8251 96.3981 51.8921 96.4986C51.9926 96.5992 52.0932 96.6327 52.1937 96.6997C52.3613 96.6997 52.4953 96.7332 52.5959 96.7332Z" fill="black"/>
<path d="M11.7783 55.4798C11.3761 55.4798 10.9069 55.3458 10.3708 55.1112L10.7059 54.3404C11.041 54.5415 11.3426 54.6755 11.6777 54.6755C11.8453 54.6755 12.0128 54.642 12.1469 54.575C12.2809 54.508 12.415 54.4074 12.549 54.3069C12.6496 54.1728 12.7501 54.0053 12.8171 53.8042C12.8842 53.6031 12.9177 53.335 12.9177 53.0669V52.9664C12.6831 53.3015 12.3145 53.4691 11.8453 53.4691C11.3091 53.4691 10.907 53.3015 10.5718 52.9664C10.2702 52.6313 10.1027 52.2291 10.1027 51.693C10.1027 51.1568 10.2702 50.7211 10.6053 50.386C10.9405 50.0509 11.4096 49.8833 11.9458 49.8833C12.549 49.8833 13.0182 50.1179 13.3533 50.5535C13.6885 50.9892 13.856 51.6594 13.856 52.5308C13.856 53.1005 13.789 53.6366 13.6214 54.0723C13.4539 54.508 13.2193 54.8766 12.9177 55.1112C12.5826 55.3793 12.2139 55.4798 11.7783 55.4798ZM11.9123 52.6983C12.2139 52.6983 12.4485 52.5978 12.6161 52.4302C12.7836 52.2627 12.8842 51.9946 12.8842 51.6259C12.8842 51.3578 12.8171 51.1568 12.6496 50.9557C12.482 50.7881 12.2809 50.6876 11.9793 50.6876C11.6777 50.6876 11.4767 50.7881 11.2756 50.9557C11.108 51.1568 11.0075 51.3913 11.0075 51.693C11.0075 51.9946 11.0745 52.2291 11.2421 52.3967C11.4096 52.5978 11.6442 52.6983 11.9123 52.6983Z" fill="black"/>
<path d="M94.1166 55.5135C93.9155 55.5135 93.7144 55.5135 93.5134 55.4799C93.3123 55.4464 93.1783 55.4129 93.0442 55.3794C92.9102 55.3459 92.8096 55.2789 92.7091 55.2454C92.6086 55.2118 92.5415 55.1448 92.508 55.1448L92.441 55.1113L92.7426 54.4075C92.7761 54.4411 92.8431 54.4746 92.9437 54.5081C93.0442 54.5416 93.1782 54.6086 93.4128 54.6756C93.6139 54.7427 93.815 54.7762 94.016 54.7762C94.3512 54.7762 94.6193 54.7092 94.7868 54.5416C94.9544 54.374 95.0549 54.173 95.0549 53.9049C95.0549 53.6368 94.9209 53.4022 94.6863 53.2681C94.4517 53.1341 94.1166 53.0671 93.6809 53.0671H93.5469H93.3123V52.2628H93.5804C94.0496 52.2628 94.3847 52.1957 94.5857 52.0617C94.7868 51.9277 94.8874 51.7266 94.8874 51.3915C94.8874 51.1904 94.7868 51.0228 94.6193 50.9223C94.4182 50.8218 94.2171 50.7547 93.9825 50.7547C93.882 50.7547 93.748 50.7547 93.6474 50.7882C93.5469 50.8218 93.4463 50.8218 93.3458 50.8553C93.2453 50.8888 93.1782 50.9223 93.1447 50.9558C93.0777 50.9893 93.0442 51.0228 92.9772 51.0563C92.9102 51.0898 92.8766 51.1234 92.8431 51.1234L92.4075 50.4531C92.7091 50.252 92.9437 50.118 93.1783 50.051C93.4128 49.9839 93.7144 49.9504 94.0831 49.9504C94.3177 49.9504 94.5187 49.9839 94.7198 50.051C94.9209 50.118 95.1219 50.185 95.2895 50.3191C95.4571 50.4196 95.5911 50.5872 95.6916 50.7547C95.7922 50.9223 95.8257 51.1569 95.8257 51.3915C95.8257 51.5925 95.7922 51.7601 95.7252 51.9277C95.6581 52.0952 95.5576 52.2628 95.39 52.3968C95.2225 52.5309 95.0549 52.6314 94.8203 52.6649C95.189 52.7319 95.4571 52.866 95.6581 53.1341C95.8592 53.3687 95.9597 53.6703 95.9597 53.9719C95.9597 54.2065 95.9262 54.4411 95.8257 54.6421C95.7252 54.8432 95.5911 55.0108 95.4235 55.1448C95.256 55.2789 95.0549 55.3794 94.8538 55.4464C94.5858 55.4799 94.3512 55.5135 94.1166 55.5135Z" fill="black"/>
<path d="M72.8042 20.4262V19.6889H73.776V16.0026C73.4074 16.1702 73.0722 16.3042 72.7036 16.4383V15.567C73.0722 15.4664 73.4744 15.2653 73.8765 15.0308H74.7143V19.7225H75.6862V20.4597H72.8042V20.4262Z" fill="black"/>
<path d="M87.3823 27.8659C87.8849 27.8659 88.2871 28.0335 88.5887 28.3351C88.8903 28.6367 89.0244 29.0723 89.0244 29.642C89.0244 29.7761 89.0244 29.8766 88.9908 29.9772C88.9573 30.0777 88.9573 30.1782 88.9238 30.2788C88.8903 30.3793 88.8568 30.4463 88.7898 30.5469C88.7227 30.6474 88.6892 30.7144 88.6557 30.7815C88.6222 30.8485 88.5552 30.9155 88.4882 31.016C88.4211 31.1166 88.3541 31.1836 88.3206 31.2171C88.2871 31.2506 88.2201 31.3176 88.1195 31.4182L87.0471 32.5576H89.0244V33.3284H85.8742V32.6581L87.4493 30.9155C87.5833 30.7815 87.6504 30.6809 87.7174 30.6139C87.7509 30.5469 87.8179 30.4798 87.9185 30.3793C87.9855 30.2788 88.0525 30.1782 88.086 30.1447C88.1195 30.0777 88.153 30.0107 88.153 29.9101C88.1866 29.8096 88.1866 29.7426 88.1866 29.642C88.1866 29.575 88.1866 29.4745 88.153 29.3404C88.1195 29.2064 88.086 29.0723 88.0525 29.0053C87.9855 28.9048 87.952 28.8378 87.8514 28.7707C87.7844 28.7037 87.6839 28.6702 87.6168 28.6702C87.5498 28.6367 87.4493 28.6367 87.3487 28.6367C87.2817 28.6367 87.2147 28.6367 87.1477 28.6702C87.0807 28.6702 87.0136 28.7037 86.9466 28.7037C86.8796 28.7372 86.8126 28.7372 86.7455 28.7707C86.6785 28.8042 86.6115 28.8042 86.5445 28.8378C86.4774 28.8713 86.4439 28.9048 86.3769 28.9048C86.3099 28.9383 86.2764 28.9718 86.2429 28.9718C86.2093 29.0053 86.1758 29.0053 86.1423 29.0388C86.1088 29.0723 86.0753 29.0723 86.0753 29.0723H86.0418L85.7402 28.3351C85.7737 28.3351 85.7737 28.3016 85.8072 28.2681C85.8407 28.2345 85.9077 28.201 86.0418 28.134C86.1758 28.067 86.2764 28.0335 86.4104 27.9664C86.5445 27.9329 86.712 27.8659 86.8796 27.8324C87.0136 27.8994 87.1812 27.8659 87.3823 27.8659Z" fill="black"/>
<path d="M88.1189 77.7319V76.3244H85.8401V75.6206L88.0184 72.3364H89.0908V75.5871H89.9286V76.3244H89.0908V77.7319H88.1189ZM86.8454 75.5536H88.1189V73.5093C88.0519 73.6099 87.6497 74.2801 86.8454 75.5536Z" fill="black"/>
<path d="M74.1783 90.902C73.8767 90.902 73.5751 90.835 73.2735 90.701C72.9719 90.5669 72.7038 90.3994 72.4692 90.1648L72.9719 89.461C73.1394 89.6621 73.3405 89.8296 73.5416 89.9302C73.7426 90.0307 73.9772 90.0977 74.1783 90.0977C74.4464 90.0977 74.681 89.9972 74.882 89.8297C75.0831 89.6621 75.1836 89.394 75.1836 89.0589C75.1836 88.7908 75.1166 88.5562 74.9826 88.3886C74.8485 88.1876 74.681 88.1205 74.4464 88.1205C74.1448 88.1205 73.9437 88.1876 73.8097 88.3551L72.8713 88.2211V85.4396H75.8874V86.2439H73.7091L73.6756 87.6179C73.8432 87.3833 74.1783 87.2827 74.6475 87.2827C75.0496 87.2827 75.4182 87.4503 75.7198 87.8189C76.0214 88.1541 76.1555 88.5897 76.1555 89.1259C76.1555 89.3605 76.122 89.5951 76.055 89.7961C75.9879 89.9972 75.8874 90.1648 75.7534 90.2988C75.6193 90.4329 75.4853 90.5669 75.3177 90.6675C75.1501 90.768 74.9826 90.835 74.7815 90.902C74.5804 90.8685 74.3794 90.902 74.1783 90.902Z" fill="black"/>
<path d="M29.5739 90.8016L31.6181 86.1769H28.9371V85.4061H32.6905V86.1434L30.5457 90.8351H29.5739V90.8016Z" fill="black"/>
<path d="M18.1455 77.8994C17.7769 77.8994 17.4753 77.8324 17.2072 77.7319C16.9391 77.5978 16.7045 77.4303 16.537 77.1957C16.3694 76.9611 16.3024 76.693 16.3024 76.3579C16.3024 76.0563 16.3694 75.7882 16.537 75.5536C16.7045 75.319 16.9391 75.1179 17.2072 74.9839C16.671 74.6823 16.4029 74.2466 16.4029 73.7439C16.4029 73.3083 16.5705 72.9396 16.8721 72.7051C17.2072 72.437 17.6093 72.3364 18.112 72.3364C18.6482 72.3364 19.0839 72.4705 19.3855 72.7386C19.6871 73.0067 19.8546 73.3753 19.8546 73.811C19.8546 74.3472 19.5866 74.7828 19.0504 75.0174C19.3185 75.1514 19.5195 75.3525 19.6871 75.5871C19.8546 75.8552 19.9552 76.1233 19.9552 76.3914C19.9552 76.693 19.8546 76.9946 19.6871 77.2292C19.5195 77.4638 19.2849 77.6313 19.0168 77.7654C18.7823 77.8659 18.4807 77.8994 18.1455 77.8994ZM18.1455 77.0951C18.4136 77.0951 18.6482 77.0281 18.7823 76.8941C18.9498 76.76 19.0168 76.5589 19.0168 76.2908C19.0168 76.0898 18.9498 75.8887 18.7823 75.6876C18.6147 75.4866 18.4136 75.386 18.179 75.319C17.9109 75.386 17.7099 75.4866 17.5423 75.6876C17.3748 75.8552 17.2742 76.0898 17.2742 76.3244C17.2742 76.5589 17.3412 76.76 17.5088 76.8941C17.6429 77.0281 17.8774 77.0951 18.1455 77.0951ZM18.1455 74.6488C18.3801 74.5817 18.5812 74.4812 18.7152 74.3136C18.8493 74.1796 18.9163 73.9785 18.9163 73.7774C18.9163 73.5764 18.8493 73.4423 18.6817 73.3418C18.5477 73.2413 18.3466 73.1742 18.112 73.1742C17.8774 73.1742 17.6764 73.2413 17.5423 73.3418C17.4083 73.4423 17.3412 73.6099 17.3412 73.8445C17.3412 74.0455 17.4083 74.2131 17.5423 74.3807C17.7099 74.4477 17.8774 74.5817 18.1455 74.6488Z" fill="black"/>
<path d="M13.0525 33.6299V32.8927H14.0244V29.2063C13.6557 29.3739 13.3206 29.508 12.952 29.642V28.7707C13.3206 28.6702 13.7227 28.4691 14.1249 28.2345H14.9627V32.9262H15.9345V33.6634H13.0525V33.6299Z" fill="black"/>
<path d="M19.0848 33.7306C18.4816 33.7306 18.0124 33.4625 17.6773 32.9598C17.3422 32.4572 17.1746 31.7534 17.1746 30.8821C17.1746 30.0108 17.3422 29.3405 17.6773 28.8379C18.0124 28.3687 18.4816 28.1006 19.0848 28.1006C19.688 28.1006 20.1572 28.3352 20.4923 28.8379C20.8274 29.3405 20.995 30.0108 20.995 30.8486C20.995 31.4183 20.928 31.921 20.7939 32.3231C20.6599 32.7588 20.4253 33.0604 20.1572 33.3285C19.8221 33.5966 19.487 33.7306 19.0848 33.7306ZM19.0848 32.8928C19.688 32.8928 20.0231 32.2226 20.0231 30.8486C20.0231 30.5805 20.0231 30.3459 19.9896 30.1113C19.9561 29.8767 19.9226 29.6757 19.8556 29.5081C19.7886 29.307 19.688 29.173 19.554 29.0724C19.4199 28.9719 19.2859 28.9049 19.1183 28.9049C18.9508 28.9049 18.7832 28.9719 18.6492 29.0724C18.5151 29.173 18.4146 29.3405 18.3475 29.5081C18.2805 29.7092 18.2135 29.9102 18.18 30.1113C18.1465 30.3459 18.1465 30.5805 18.1465 30.8486C18.1465 31.1502 18.1465 31.4183 18.18 31.6529C18.2135 31.8874 18.247 32.0885 18.3475 32.2896C18.4146 32.4907 18.5151 32.6247 18.6492 32.7252C18.7497 32.8593 18.9173 32.8928 19.0848 32.8928Z" fill="black"/>
<path d="M28.0332 19.9906V19.2533H29.0051V15.567C28.6364 15.7346 28.3013 15.8686 27.9327 16.0027V15.0978C28.3013 14.9973 28.7035 14.7962 29.1056 14.5616H29.9434V19.2533H30.9153V19.9906H28.0332Z" fill="black"/>
<path d="M32.7926 19.9906V19.2533H33.7644V15.567C33.3958 15.7346 33.0606 15.8686 32.692 16.0027V15.0978C33.0606 14.9973 33.4628 14.7962 33.8649 14.5616H34.7027V19.2533H35.6746V19.9906H32.7926Z" fill="black"/>
<path d="M52.8292 55.1112C54.0693 55.1112 55.0745 54.106 55.0745 52.8659C55.0745 51.6259 54.0693 50.6206 52.8292 50.6206C51.5892 50.6206 50.5839 51.6259 50.5839 52.8659C50.5839 54.106 51.5892 55.1112 52.8292 55.1112Z" fill="url(#paint0_radial_27_14)"/>
<path d="M52.5619 57.9599C52.0257 57.9599 51.6235 57.4907 51.6235 56.921V32.2561H53.5002V56.921C53.5002 57.4907 53.0981 57.9599 52.5619 57.9599Z" fill="black"/>
<path d="M77.0832 38.0302L76.9543 37.8207L76.7427 37.9463L45.8681 56.2692C45.4784 56.4934 45.4641 56.9664 45.643 57.2794C45.8373 57.6195 46.2859 57.784 46.6543 57.5735L46.6543 57.5736L46.6578 57.5715L77.5341 39.2476L77.7526 39.1179L77.6194 38.9015L77.0832 38.0302Z" fill="#0E80A4" stroke="#0E80A4" stroke-width="0.5"/>
<path d="M52.8309 54.4409C53.7008 54.4409 54.406 53.7357 54.406 52.8658C54.406 51.996 53.7008 51.2908 52.8309 51.2908C51.961 51.2908 51.2559 51.996 51.2559 52.8658C51.2559 53.7357 51.961 54.4409 52.8309 54.4409Z" fill="#0E80A4"/>
<path d="M53 103C80.6142 103 103 80.6142 103 53C103 25.3858 80.6142 3 53 3C25.3858 3 3 25.3858 3 53C3 80.6142 25.3858 103 53 103Z" stroke="#0E80A4" stroke-width="5" stroke-miterlimit="10"/>
<path d="M3 138C3 135.239 5.23858 133 8 133H98C100.761 133 103 135.239 103 138V162C103 164.761 100.761 167 98 167H8C5.23858 167 3 164.761 3 162V138Z" fill="white"/>
<path d="M23.271 143.4V156H21.489V144.966H18.645V143.4H23.271ZM34.8831 154.434V156H25.8291V154.776L30.9591 149.826C31.5831 149.226 32.0031 148.71 32.2191 148.278C32.4351 147.834 32.5431 147.39 32.5431 146.946C32.5431 146.286 32.3091 145.776 31.8411 145.416C31.3851 145.044 30.7251 144.858 29.8611 144.858C28.4691 144.858 27.3951 145.314 26.6391 146.226L25.4151 145.164C25.9071 144.564 26.5491 144.096 27.3411 143.76C28.1451 143.424 29.0391 143.256 30.0231 143.256C31.3431 143.256 32.3931 143.574 33.1731 144.21C33.9531 144.834 34.3431 145.686 34.3431 146.766C34.3431 147.438 34.1991 148.074 33.9111 148.674C33.6231 149.274 33.0771 149.958 32.2731 150.726L28.4211 154.434H34.8831Z" fill="#369CB7"/>
<path d="M53.0129 148.836C52.6769 148.836 52.3889 148.722 52.1489 148.494C51.9089 148.254 51.7889 147.954 51.7889 147.594C51.7889 147.246 51.9089 146.958 52.1489 146.73C52.3889 146.49 52.6769 146.37 53.0129 146.37C53.3489 146.37 53.6309 146.484 53.8589 146.712C54.0869 146.94 54.2009 147.234 54.2009 147.594C54.2009 147.954 54.0809 148.254 53.8409 148.494C53.6129 148.722 53.3369 148.836 53.0129 148.836ZM53.0129 156.108C52.6769 156.108 52.3889 155.994 52.1489 155.766C51.9089 155.526 51.7889 155.226 51.7889 154.866C51.7889 154.518 51.9089 154.23 52.1489 154.002C52.3889 153.762 52.6769 153.642 53.0129 153.642C53.3489 153.642 53.6309 153.756 53.8589 153.984C54.0869 154.212 54.2009 154.506 54.2009 154.866C54.2009 155.226 54.0809 155.526 53.8409 155.766C53.6129 155.994 53.3369 156.108 53.0129 156.108Z" fill="#369CB7"/>
<path d="M74.436 143.4V156H72.654V144.966H69.81V143.4H74.436ZM82.3401 156.144C81.3441 156.144 80.4561 155.892 79.6761 155.388C78.9081 154.872 78.3021 154.128 77.8581 153.156C77.4141 152.184 77.1921 151.032 77.1921 149.7C77.1921 148.368 77.4141 147.216 77.8581 146.244C78.3021 145.272 78.9081 144.534 79.6761 144.03C80.4561 143.514 81.3441 143.256 82.3401 143.256C83.3241 143.256 84.2001 143.514 84.9681 144.03C85.7481 144.534 86.3601 145.272 86.8041 146.244C87.2481 147.216 87.4701 148.368 87.4701 149.7C87.4701 151.032 87.2481 152.184 86.8041 153.156C86.3601 154.128 85.7481 154.872 84.9681 155.388C84.2001 155.892 83.3241 156.144 82.3401 156.144ZM82.3401 154.542C83.3481 154.542 84.1521 154.128 84.7521 153.3C85.3641 152.472 85.6701 151.272 85.6701 149.7C85.6701 148.128 85.3641 146.928 84.7521 146.1C84.1521 145.272 83.3481 144.858 82.3401 144.858C81.3201 144.858 80.5041 145.272 79.8921 146.1C79.2921 146.928 78.9921 148.128 78.9921 149.7C78.9921 151.272 79.2921 152.472 79.8921 153.3C80.5041 154.128 81.3201 154.542 82.3401 154.542Z" fill="#369CB7"/>
<path d="M8 134H98V132H8V134ZM102 138V162H104V138H102ZM98 166H8V168H98V166ZM4 162V138H2V162H4ZM8 166C5.79086 166 4 164.209 4 162H2C2 165.314 4.68629 168 8 168V166ZM102 162C102 164.209 100.209 166 98 166V168C101.314 168 104 165.314 104 162H102ZM98 134C100.209 134 102 135.791 102 138H104C104 134.686 101.314 132 98 132V134ZM8 132C4.68629 132 2 134.686 2 138H4C4 135.791 5.79086 134 8 134V132Z" fill="#369CB7"/>
<path d="M182.999 16.807H182.664V20.7279H182.999V16.807Z" fill="black"/>
<path d="M182.999 85.0039H182.664V88.9248H182.999V85.0039Z" fill="black"/>
<path d="M166.613 25.1206L166.903 24.953L164.942 21.5575L164.652 21.7251L166.613 25.1206Z" fill="black"/>
<path d="M200.708 84.1484L200.998 83.9808L199.038 80.5853L198.748 80.7529L200.708 84.1484Z" fill="black"/>
<path d="M154.904 36.9407L155.072 36.6505L151.676 34.6901L151.509 34.9803L154.904 36.9407Z" fill="black"/>
<path d="M213.982 71.0377L214.15 70.7474L210.754 68.787L210.587 69.0772L213.982 71.0377Z" fill="black"/>
<path d="M150.693 52.6984H146.773V53.0335H150.693V52.6984Z" fill="black"/>
<path d="M218.891 52.6984H214.971V53.0335H218.891V52.6984Z" fill="black"/>
<path d="M155.086 69.0707L154.918 68.7805L151.523 70.741L151.69 71.0312L155.086 69.0707Z" fill="black"/>
<path d="M214.133 34.9933L213.966 34.7031L210.57 36.6636L210.738 36.9538L214.133 34.9933Z" fill="black"/>
<path d="M166.9 80.783L166.61 80.6155L164.649 84.011L164.94 84.1786L166.9 80.783Z" fill="black"/>
<path d="M201.012 21.7142L200.721 21.5466L198.761 24.9421L199.051 25.1097L201.012 21.7142Z" fill="black"/>
<path d="M179.144 13.9606V13.2233H180.115V9.53698C179.747 9.70454 179.412 9.83859 179.043 9.97263V9.06781C179.412 8.96727 179.814 8.7662 180.216 8.53162H181.054V13.2233H182.026V13.9606H179.144Z" fill="black"/>
<path d="M185.007 8.46247C185.51 8.46247 185.912 8.63003 186.214 8.93164C186.515 9.23324 186.649 9.6689 186.649 10.2386C186.649 10.3727 186.649 10.4732 186.616 10.5737C186.582 10.6743 186.582 10.7748 186.549 10.8753C186.515 10.9759 186.482 11.0429 186.415 11.1434C186.348 11.244 186.314 11.311 186.281 11.378C186.247 11.445 186.18 11.5121 186.113 11.6126C186.046 11.7131 185.979 11.7802 185.946 11.8137C185.912 11.8472 185.845 11.9142 185.744 12.0147L184.672 13.1542H186.649V13.9249H183.499V13.2547L185.074 11.5121C185.208 11.378 185.275 11.2775 185.342 11.2105C185.376 11.1434 185.443 11.0764 185.543 10.9759C185.61 10.8753 185.677 10.7748 185.711 10.7413C185.744 10.6743 185.778 10.6072 185.778 10.5067C185.811 10.4062 185.811 10.3391 185.811 10.2386C185.811 10.1716 185.811 10.071 185.778 9.937C185.744 9.80295 185.711 9.6689 185.677 9.60188C185.61 9.50134 185.577 9.43432 185.476 9.36729C185.409 9.30027 185.309 9.26676 185.242 9.26676C185.175 9.23324 185.074 9.23324 184.974 9.23324C184.907 9.23324 184.84 9.23324 184.773 9.26676C184.706 9.26676 184.639 9.30027 184.572 9.30027C184.505 9.33378 184.437 9.33378 184.37 9.36729C184.303 9.4008 184.236 9.4008 184.169 9.43432C184.102 9.46783 184.069 9.50134 184.002 9.50134C183.935 9.53485 183.901 9.56836 183.868 9.56836C183.834 9.60188 183.801 9.60188 183.767 9.63539C183.734 9.6689 183.7 9.6689 183.7 9.6689H183.667L183.365 8.93164C183.399 8.93164 183.399 8.89812 183.432 8.86461C183.466 8.8311 183.533 8.79759 183.667 8.73056C183.801 8.66354 183.901 8.63003 184.035 8.563C184.169 8.52949 184.337 8.46247 184.505 8.42896C184.639 8.46247 184.806 8.46247 185.007 8.46247Z" fill="black"/>
<path d="M182.629 97.5375C182.194 97.5375 181.825 97.437 181.523 97.2024C181.222 96.9678 180.987 96.6662 180.853 96.264C180.719 95.8619 180.652 95.3927 180.652 94.8565C180.652 94.4544 180.686 94.0858 180.786 93.7171C180.887 93.382 181.021 93.0469 181.188 92.7788C181.356 92.5107 181.591 92.3096 181.892 92.1421C182.16 91.9745 182.495 91.9075 182.83 91.9075C183.4 91.9075 183.869 92.075 184.204 92.3766L183.903 93.0804C183.568 92.8123 183.233 92.7118 182.83 92.7118C182.495 92.7118 182.227 92.8793 181.993 93.1809C181.758 93.5161 181.658 93.9182 181.624 94.3874C181.892 94.0187 182.261 93.8177 182.696 93.8177C183.233 93.8177 183.668 93.9852 183.97 94.3203C184.271 94.6555 184.439 95.0911 184.439 95.6273C184.439 96.1635 184.271 96.5992 183.936 96.9678C183.601 97.3699 183.166 97.5375 182.629 97.5375ZM182.596 96.7332C182.864 96.7332 183.065 96.6327 183.233 96.4316C183.4 96.2305 183.467 95.9959 183.467 95.6943C183.467 95.3927 183.4 95.1246 183.233 94.9571C183.099 94.756 182.864 94.6555 182.596 94.6555C182.294 94.6555 182.06 94.756 181.892 94.9571C181.725 95.1581 181.624 95.3927 181.624 95.7279C181.624 95.8954 181.658 96.0295 181.691 96.1635C181.758 96.2976 181.825 96.3981 181.892 96.4986C181.993 96.5992 182.093 96.6327 182.194 96.6997C182.361 96.6997 182.495 96.7332 182.596 96.7332Z" fill="black"/>
<path d="M141.778 55.4798C141.376 55.4798 140.907 55.3458 140.371 55.1112L140.706 54.3404C141.041 54.5415 141.343 54.6755 141.678 54.6755C141.845 54.6755 142.013 54.642 142.147 54.575C142.281 54.508 142.415 54.4074 142.549 54.3069C142.65 54.1728 142.75 54.0053 142.817 53.8042C142.884 53.6031 142.918 53.335 142.918 53.0669V52.9664C142.683 53.3015 142.314 53.4691 141.845 53.4691C141.309 53.4691 140.907 53.3015 140.572 52.9664C140.27 52.6313 140.103 52.2291 140.103 51.693C140.103 51.1568 140.27 50.7211 140.605 50.386C140.94 50.0509 141.41 49.8833 141.946 49.8833C142.549 49.8833 143.018 50.1179 143.353 50.5535C143.688 50.9892 143.856 51.6594 143.856 52.5308C143.856 53.1005 143.789 53.6366 143.621 54.0723C143.454 54.508 143.219 54.8766 142.918 55.1112C142.583 55.3793 142.214 55.4798 141.778 55.4798ZM141.912 52.6983C142.214 52.6983 142.449 52.5978 142.616 52.4302C142.784 52.2627 142.884 51.9946 142.884 51.6259C142.884 51.3578 142.817 51.1568 142.65 50.9557C142.482 50.7881 142.281 50.6876 141.979 50.6876C141.678 50.6876 141.477 50.7881 141.276 50.9557C141.108 51.1568 141.007 51.3913 141.007 51.693C141.007 51.9946 141.075 52.2291 141.242 52.3967C141.41 52.5978 141.644 52.6983 141.912 52.6983Z" fill="black"/>
<path d="M224.117 55.5135C223.916 55.5135 223.714 55.5135 223.513 55.4799C223.312 55.4464 223.178 55.4129 223.044 55.3794C222.91 55.3459 222.81 55.2789 222.709 55.2454C222.609 55.2118 222.542 55.1448 222.508 55.1448L222.441 55.1113L222.743 54.4075C222.776 54.4411 222.843 54.4746 222.944 54.5081C223.044 54.5416 223.178 54.6086 223.413 54.6756C223.614 54.7427 223.815 54.7762 224.016 54.7762C224.351 54.7762 224.619 54.7092 224.787 54.5416C224.954 54.374 225.055 54.173 225.055 53.9049C225.055 53.6368 224.921 53.4022 224.686 53.2681C224.452 53.1341 224.117 53.0671 223.681 53.0671H223.547H223.312V52.2628H223.58C224.05 52.2628 224.385 52.1957 224.586 52.0617C224.787 51.9277 224.887 51.7266 224.887 51.3915C224.887 51.1904 224.787 51.0228 224.619 50.9223C224.418 50.8218 224.217 50.7547 223.983 50.7547C223.882 50.7547 223.748 50.7547 223.647 50.7882C223.547 50.8218 223.446 50.8218 223.346 50.8553C223.245 50.8888 223.178 50.9223 223.145 50.9558C223.078 50.9893 223.044 51.0228 222.977 51.0563C222.91 51.0898 222.877 51.1234 222.843 51.1234L222.407 50.4531C222.709 50.252 222.944 50.118 223.178 50.051C223.413 49.9839 223.714 49.9504 224.083 49.9504C224.318 49.9504 224.519 49.9839 224.72 50.051C224.921 50.118 225.122 50.185 225.289 50.3191C225.457 50.4196 225.591 50.5872 225.692 50.7547C225.792 50.9223 225.826 51.1569 225.826 51.3915C225.826 51.5925 225.792 51.7601 225.725 51.9277C225.658 52.0952 225.558 52.2628 225.39 52.3968C225.222 52.5309 225.055 52.6314 224.82 52.6649C225.189 52.7319 225.457 52.866 225.658 53.1341C225.859 53.3687 225.96 53.6703 225.96 53.9719C225.96 54.2065 225.926 54.4411 225.826 54.6421C225.725 54.8432 225.591 55.0108 225.424 55.1448C225.256 55.2789 225.055 55.3794 224.854 55.4464C224.586 55.4799 224.351 55.5135 224.117 55.5135Z" fill="black"/>
<path d="M202.804 20.4262V19.6889H203.776V16.0026C203.407 16.1702 203.072 16.3042 202.704 16.4383V15.567C203.072 15.4664 203.474 15.2653 203.877 15.0308H204.714V19.7225H205.686V20.4597H202.804V20.4262Z" fill="black"/>
<path d="M217.382 27.8659C217.885 27.8659 218.287 28.0335 218.589 28.3351C218.89 28.6367 219.024 29.0723 219.024 29.642C219.024 29.7761 219.024 29.8766 218.991 29.9772C218.957 30.0777 218.957 30.1782 218.924 30.2788C218.89 30.3793 218.857 30.4463 218.79 30.5469C218.723 30.6474 218.689 30.7144 218.656 30.7815C218.622 30.8485 218.555 30.9155 218.488 31.016C218.421 31.1166 218.354 31.1836 218.321 31.2171C218.287 31.2506 218.22 31.3176 218.12 31.4182L217.047 32.5576H219.024V33.3284H215.874V32.6581L217.449 30.9155C217.583 30.7815 217.65 30.6809 217.717 30.6139C217.751 30.5469 217.818 30.4798 217.918 30.3793C217.985 30.2788 218.053 30.1782 218.086 30.1447C218.12 30.0777 218.153 30.0107 218.153 29.9101C218.187 29.8096 218.187 29.7426 218.187 29.642C218.187 29.575 218.187 29.4745 218.153 29.3404C218.12 29.2064 218.086 29.0723 218.052 29.0053C217.985 28.9048 217.952 28.8378 217.851 28.7707C217.784 28.7037 217.684 28.6702 217.617 28.6702C217.55 28.6367 217.449 28.6367 217.349 28.6367C217.282 28.6367 217.215 28.6367 217.148 28.6702C217.081 28.6702 217.014 28.7037 216.947 28.7037C216.88 28.7372 216.813 28.7372 216.746 28.7707C216.679 28.8042 216.611 28.8042 216.544 28.8378C216.477 28.8713 216.444 28.9048 216.377 28.9048C216.31 28.9383 216.276 28.9718 216.243 28.9718C216.209 29.0053 216.176 29.0053 216.142 29.0388C216.109 29.0723 216.075 29.0723 216.075 29.0723H216.042L215.74 28.3351C215.774 28.3351 215.774 28.3016 215.807 28.2681C215.841 28.2345 215.908 28.201 216.042 28.134C216.176 28.067 216.276 28.0335 216.41 27.9664C216.544 27.9329 216.712 27.8659 216.88 27.8324C217.014 27.8994 217.181 27.8659 217.382 27.8659Z" fill="black"/>
<path d="M218.119 77.7319V76.3244H215.84V75.6206L218.018 72.3364H219.091V75.5871H219.929V76.3244H219.091V77.7319H218.119ZM216.845 75.5536H218.119V73.5093C218.052 73.6099 217.65 74.2801 216.845 75.5536Z" fill="black"/>
<path d="M204.178 90.902C203.877 90.902 203.575 90.835 203.273 90.701C202.972 90.5669 202.704 90.3994 202.469 90.1648L202.972 89.461C203.139 89.6621 203.34 89.8296 203.542 89.9302C203.743 90.0307 203.977 90.0977 204.178 90.0977C204.446 90.0977 204.681 89.9972 204.882 89.8297C205.083 89.6621 205.184 89.394 205.184 89.0589C205.184 88.7908 205.117 88.5562 204.983 88.3886C204.849 88.1876 204.681 88.1205 204.446 88.1205C204.145 88.1205 203.944 88.1876 203.81 88.3551L202.871 88.2211V85.4396H205.887V86.2439H203.709L203.676 87.6179C203.843 87.3833 204.178 87.2827 204.647 87.2827C205.05 87.2827 205.418 87.4503 205.72 87.8189C206.021 88.1541 206.155 88.5897 206.155 89.1259C206.155 89.3605 206.122 89.5951 206.055 89.7961C205.988 89.9972 205.887 90.1648 205.753 90.2988C205.619 90.4329 205.485 90.5669 205.318 90.6675C205.15 90.768 204.983 90.835 204.782 90.902C204.58 90.8685 204.379 90.902 204.178 90.902Z" fill="black"/>
<path d="M159.574 90.8016L161.618 86.1769H158.937V85.4061H162.69V86.1434L160.546 90.8351H159.574V90.8016Z" fill="black"/>
<path d="M148.146 77.8994C147.777 77.8994 147.475 77.8324 147.207 77.7319C146.939 77.5978 146.705 77.4303 146.537 77.1957C146.369 76.9611 146.302 76.693 146.302 76.3579C146.302 76.0563 146.369 75.7882 146.537 75.5536C146.705 75.319 146.939 75.1179 147.207 74.9839C146.671 74.6823 146.403 74.2466 146.403 73.7439C146.403 73.3083 146.57 72.9396 146.872 72.7051C147.207 72.437 147.609 72.3364 148.112 72.3364C148.648 72.3364 149.084 72.4705 149.385 72.7386C149.687 73.0067 149.855 73.3753 149.855 73.811C149.855 74.3472 149.587 74.7828 149.05 75.0174C149.318 75.1514 149.52 75.3525 149.687 75.5871C149.855 75.8552 149.955 76.1233 149.955 76.3914C149.955 76.693 149.855 76.9946 149.687 77.2292C149.52 77.4638 149.285 77.6313 149.017 77.7654C148.782 77.8659 148.481 77.8994 148.146 77.8994ZM148.146 77.0951C148.414 77.0951 148.648 77.0281 148.782 76.8941C148.95 76.76 149.017 76.5589 149.017 76.2908C149.017 76.0898 148.95 75.8887 148.782 75.6876C148.615 75.4866 148.414 75.386 148.179 75.319C147.911 75.386 147.71 75.4866 147.542 75.6876C147.375 75.8552 147.274 76.0898 147.274 76.3244C147.274 76.5589 147.341 76.76 147.509 76.8941C147.643 77.0281 147.877 77.0951 148.146 77.0951ZM148.146 74.6488C148.38 74.5817 148.581 74.4812 148.715 74.3136C148.849 74.1796 148.916 73.9785 148.916 73.7774C148.916 73.5764 148.849 73.4423 148.682 73.3418C148.548 73.2413 148.347 73.1742 148.112 73.1742C147.877 73.1742 147.676 73.2413 147.542 73.3418C147.408 73.4423 147.341 73.6099 147.341 73.8445C147.341 74.0455 147.408 74.2131 147.542 74.3807C147.71 74.4477 147.877 74.5817 148.146 74.6488Z" fill="black"/>
<path d="M143.053 33.6299V32.8927H144.024V29.2063C143.656 29.3739 143.321 29.508 142.952 29.642V28.7707C143.321 28.6702 143.723 28.4691 144.125 28.2345H144.963V32.9262H145.935V33.6634H143.053V33.6299Z" fill="black"/>
<path d="M149.085 33.7306C148.482 33.7306 148.012 33.4625 147.677 32.9598C147.342 32.4572 147.175 31.7534 147.175 30.8821C147.175 30.0108 147.342 29.3405 147.677 28.8379C148.012 28.3687 148.482 28.1006 149.085 28.1006C149.688 28.1006 150.157 28.3352 150.492 28.8379C150.827 29.3405 150.995 30.0108 150.995 30.8486C150.995 31.4183 150.928 31.921 150.794 32.3231C150.66 32.7588 150.425 33.0604 150.157 33.3285C149.822 33.5966 149.487 33.7306 149.085 33.7306ZM149.085 32.8928C149.688 32.8928 150.023 32.2226 150.023 30.8486C150.023 30.5805 150.023 30.3459 149.99 30.1113C149.956 29.8767 149.923 29.6757 149.856 29.5081C149.789 29.307 149.688 29.173 149.554 29.0724C149.42 28.9719 149.286 28.9049 149.118 28.9049C148.951 28.9049 148.783 28.9719 148.649 29.0724C148.515 29.173 148.415 29.3405 148.348 29.5081C148.281 29.7092 148.213 29.9102 148.18 30.1113C148.146 30.3459 148.146 30.5805 148.146 30.8486C148.146 31.1502 148.146 31.4183 148.18 31.6529C148.213 31.8874 148.247 32.0885 148.348 32.2896C148.415 32.4907 148.515 32.6247 148.649 32.7252C148.75 32.8593 148.917 32.8928 149.085 32.8928Z" fill="black"/>
<path d="M158.033 19.9906V19.2533H159.005V15.567C158.636 15.7346 158.301 15.8686 157.933 16.0027V15.0978C158.301 14.9973 158.703 14.7962 159.106 14.5616H159.943V19.2533H160.915V19.9906H158.033Z" fill="black"/>
<path d="M162.793 19.9906V19.2533H163.764V15.567C163.396 15.7346 163.061 15.8686 162.692 16.0027V15.0978C163.061 14.9973 163.463 14.7962 163.865 14.5616H164.703V19.2533H165.675V19.9906H162.793Z" fill="black"/>
<path d="M182.829 55.1112C184.069 55.1112 185.075 54.106 185.075 52.8659C185.075 51.6259 184.069 50.6206 182.829 50.6206C181.589 50.6206 180.584 51.6259 180.584 52.8659C180.584 54.106 181.589 55.1112 182.829 55.1112Z" fill="url(#paint1_radial_27_14)"/>
<path d="M187.689 52.7065C187.735 53.2408 187.302 53.6817 186.735 53.7305L162.161 55.8467L162 53.9769L186.574 51.8608C187.141 51.8119 187.643 52.1723 187.689 52.7065Z" fill="black"/>
<path d="M167.829 27.3191L167.616 27.4415L167.735 27.6568L185.102 59.079C185.314 59.4753 185.787 59.5041 186.105 59.3349C186.451 59.1511 186.629 58.7078 186.43 58.3331L186.43 58.3331L186.428 58.3295L169.06 26.9058L168.937 26.6834L168.716 26.8099L167.829 27.3191Z" fill="#0E80A4" stroke="#0E80A4" stroke-width="0.5"/>
<path d="M182.831 54.4409C183.701 54.4409 184.406 53.7357 184.406 52.8658C184.406 51.996 183.701 51.2908 182.831 51.2908C181.961 51.2908 181.256 51.996 181.256 52.8658C181.256 53.7357 181.961 54.4409 182.831 54.4409Z" fill="#0E80A4"/>
<path d="M183 103C210.614 103 233 80.6142 233 53C233 25.3858 210.614 3 183 3C155.386 3 133 25.3858 133 53C133 80.6142 155.386 103 183 103Z" stroke="#0E80A4" stroke-width="5" stroke-miterlimit="10"/>
<path d="M133 138C133 135.239 135.239 133 138 133H228C230.761 133 233 135.239 233 138V162C233 164.761 230.761 167 228 167H138C135.239 167 133 164.761 133 162V138Z" fill="white"/>
<path d="M151.217 156.144C150.221 156.144 149.333 155.892 148.553 155.388C147.785 154.872 147.179 154.128 146.735 153.156C146.291 152.184 146.069 151.032 146.069 149.7C146.069 148.368 146.291 147.216 146.735 146.244C147.179 145.272 147.785 144.534 148.553 144.03C149.333 143.514 150.221 143.256 151.217 143.256C152.201 143.256 153.077 143.514 153.845 144.03C154.625 144.534 155.237 145.272 155.681 146.244C156.125 147.216 156.347 148.368 156.347 149.7C156.347 151.032 156.125 152.184 155.681 153.156C155.237 154.128 154.625 154.872 153.845 155.388C153.077 155.892 152.201 156.144 151.217 156.144ZM151.217 154.542C152.225 154.542 153.029 154.128 153.629 153.3C154.241 152.472 154.547 151.272 154.547 149.7C154.547 148.128 154.241 146.928 153.629 146.1C153.029 145.272 152.225 144.858 151.217 144.858C150.197 144.858 149.381 145.272 148.769 146.1C148.169 146.928 147.869 148.128 147.869 149.7C147.869 151.272 148.169 152.472 148.769 153.3C149.381 154.128 150.197 154.542 151.217 154.542ZM165.779 149.394C166.499 149.67 167.051 150.066 167.435 150.582C167.819 151.098 168.011 151.716 168.011 152.436C168.011 153.192 167.807 153.852 167.399 154.416C166.991 154.968 166.409 155.394 165.653 155.694C164.897 155.994 164.009 156.144 162.989 156.144C161.981 156.144 161.099 155.994 160.343 155.694C159.599 155.394 159.023 154.968 158.615 154.416C158.207 153.852 158.003 153.192 158.003 152.436C158.003 151.716 158.189 151.098 158.561 150.582C158.945 150.066 159.497 149.67 160.217 149.394C159.641 149.118 159.203 148.752 158.903 148.296C158.603 147.84 158.453 147.3 158.453 146.676C158.453 145.98 158.639 145.374 159.011 144.858C159.395 144.342 159.929 143.946 160.613 143.67C161.297 143.394 162.089 143.256 162.989 143.256C163.901 143.256 164.699 143.394 165.383 143.67C166.079 143.946 166.613 144.342 166.985 144.858C167.369 145.374 167.561 145.98 167.561 146.676C167.561 147.288 167.405 147.828 167.093 148.296C166.793 148.752 166.355 149.118 165.779 149.394ZM162.989 144.714C162.137 144.714 161.465 144.9 160.973 145.272C160.481 145.632 160.235 146.124 160.235 146.748C160.235 147.372 160.475 147.864 160.955 148.224C161.447 148.584 162.125 148.764 162.989 148.764C163.865 148.764 164.549 148.584 165.041 148.224C165.545 147.864 165.797 147.372 165.797 146.748C165.797 146.124 165.539 145.632 165.023 145.272C164.519 144.9 163.841 144.714 162.989 144.714ZM162.989 154.686C163.985 154.686 164.771 154.482 165.347 154.074C165.923 153.654 166.211 153.09 166.211 152.382C166.211 151.686 165.923 151.14 165.347 150.744C164.771 150.336 163.985 150.132 162.989 150.132C161.993 150.132 161.213 150.336 160.649 150.744C160.085 151.14 159.803 151.686 159.803 152.382C159.803 153.09 160.085 153.654 160.649 154.074C161.213 154.482 161.993 154.686 162.989 154.686Z" fill="#369CB7"/>
<path d="M183.013 148.836C182.677 148.836 182.389 148.722 182.149 148.494C181.909 148.254 181.789 147.954 181.789 147.594C181.789 147.246 181.909 146.958 182.149 146.73C182.389 146.49 182.677 146.37 183.013 146.37C183.349 146.37 183.631 146.484 183.859 146.712C184.087 146.94 184.201 147.234 184.201 147.594C184.201 147.954 184.081 148.254 183.841 148.494C183.613 148.722 183.337 148.836 183.013 148.836ZM183.013 156.108C182.677 156.108 182.389 155.994 182.149 155.766C181.909 155.526 181.789 155.226 181.789 154.866C181.789 154.518 181.909 154.23 182.149 154.002C182.389 153.762 182.677 153.642 183.013 153.642C183.349 153.642 183.631 153.756 183.859 153.984C184.087 154.212 184.201 154.506 184.201 154.866C184.201 155.226 184.081 155.526 183.841 155.766C183.613 155.994 183.337 156.108 183.013 156.108Z" fill="#369CB7"/>
<path d="M203.172 148.422C204.972 148.422 206.292 148.764 207.132 149.448C207.984 150.12 208.41 151.044 208.41 152.22C208.41 152.964 208.23 153.636 207.87 154.236C207.522 154.824 206.988 155.292 206.268 155.64C205.56 155.976 204.684 156.144 203.64 156.144C202.752 156.144 201.894 156.012 201.066 155.748C200.238 155.472 199.554 155.094 199.014 154.614L199.842 153.192C200.274 153.6 200.826 153.93 201.498 154.182C202.17 154.422 202.878 154.542 203.622 154.542C204.57 154.542 205.302 154.344 205.818 153.948C206.346 153.54 206.61 152.988 206.61 152.292C206.61 151.536 206.322 150.966 205.746 150.582C205.17 150.186 204.186 149.988 202.794 149.988H199.932L200.598 143.4H207.708V144.966H202.11L201.768 148.422H203.172ZM213.42 148.422C215.22 148.422 216.54 148.764 217.38 149.448C218.232 150.12 218.658 151.044 218.658 152.22C218.658 152.964 218.478 153.636 218.118 154.236C217.77 154.824 217.236 155.292 216.516 155.64C215.808 155.976 214.932 156.144 213.888 156.144C213 156.144 212.142 156.012 211.314 155.748C210.486 155.472 209.802 155.094 209.262 154.614L210.09 153.192C210.522 153.6 211.074 153.93 211.746 154.182C212.418 154.422 213.126 154.542 213.87 154.542C214.818 154.542 215.55 154.344 216.066 153.948C216.594 153.54 216.858 152.988 216.858 152.292C216.858 151.536 216.57 150.966 215.994 150.582C215.418 150.186 214.434 149.988 213.042 149.988H210.18L210.846 143.4H217.956V144.966H212.358L212.016 148.422H213.42Z" fill="#369CB7"/>
<path d="M138 134H228V132H138V134ZM232 138V162H234V138H232ZM228 166H138V168H228V166ZM134 162V138H132V162H134ZM138 166C135.791 166 134 164.209 134 162H132C132 165.314 134.686 168 138 168V166ZM232 162C232 164.209 230.209 166 228 166V168C231.314 168 234 165.314 234 162H232ZM228 134C230.209 134 232 135.791 232 138H234C234 134.686 231.314 132 228 132V134ZM138 132C134.686 132 132 134.686 132 138H134C134 135.791 135.791 134 138 134V132Z" fill="#369CB7"/>
<path d="M312.999 16.807H312.664V20.7279H312.999V16.807Z" fill="black"/>
<path d="M312.999 85.0039H312.664V88.9248H312.999V85.0039Z" fill="black"/>
<path d="M296.613 25.1206L296.903 24.953L294.942 21.5575L294.652 21.7251L296.613 25.1206Z" fill="black"/>
<path d="M330.708 84.1484L330.998 83.9808L329.038 80.5853L328.748 80.7529L330.708 84.1484Z" fill="black"/>
<path d="M284.904 36.9407L285.072 36.6505L281.676 34.6901L281.509 34.9803L284.904 36.9407Z" fill="black"/>
<path d="M343.982 71.0377L344.15 70.7474L340.754 68.787L340.587 69.0772L343.982 71.0377Z" fill="black"/>
<path d="M280.693 52.6984H276.773V53.0335H280.693V52.6984Z" fill="black"/>
<path d="M348.891 52.6984H344.971V53.0335H348.891V52.6984Z" fill="black"/>
<path d="M285.086 69.0707L284.918 68.7805L281.523 70.741L281.69 71.0312L285.086 69.0707Z" fill="black"/>
<path d="M344.133 34.9933L343.966 34.7031L340.57 36.6636L340.738 36.9538L344.133 34.9933Z" fill="black"/>
<path d="M296.9 80.783L296.61 80.6155L294.649 84.011L294.94 84.1786L296.9 80.783Z" fill="black"/>
<path d="M331.012 21.7142L330.721 21.5466L328.761 24.9421L329.051 25.1097L331.012 21.7142Z" fill="black"/>
<path d="M309.144 13.9606V13.2233H310.115V9.53698C309.747 9.70454 309.412 9.83859 309.043 9.97263V9.06781C309.412 8.96727 309.814 8.7662 310.216 8.53162H311.054V13.2233H312.026V13.9606H309.144Z" fill="black"/>
<path d="M315.007 8.46247C315.51 8.46247 315.912 8.63003 316.214 8.93164C316.515 9.23324 316.649 9.6689 316.649 10.2386C316.649 10.3727 316.649 10.4732 316.616 10.5737C316.582 10.6743 316.582 10.7748 316.549 10.8753C316.515 10.9759 316.482 11.0429 316.415 11.1434C316.348 11.244 316.314 11.311 316.281 11.378C316.247 11.445 316.18 11.5121 316.113 11.6126C316.046 11.7131 315.979 11.7802 315.946 11.8137C315.912 11.8472 315.845 11.9142 315.744 12.0147L314.672 13.1542H316.649V13.9249H313.499V13.2547L315.074 11.5121C315.208 11.378 315.275 11.2775 315.342 11.2105C315.376 11.1434 315.443 11.0764 315.543 10.9759C315.61 10.8753 315.677 10.7748 315.711 10.7413C315.744 10.6743 315.778 10.6072 315.778 10.5067C315.811 10.4062 315.811 10.3391 315.811 10.2386C315.811 10.1716 315.811 10.071 315.778 9.937C315.744 9.80295 315.711 9.6689 315.677 9.60188C315.61 9.50134 315.577 9.43432 315.476 9.36729C315.409 9.30027 315.309 9.26676 315.242 9.26676C315.175 9.23324 315.074 9.23324 314.974 9.23324C314.907 9.23324 314.84 9.23324 314.773 9.26676C314.706 9.26676 314.639 9.30027 314.572 9.30027C314.505 9.33378 314.437 9.33378 314.37 9.36729C314.303 9.4008 314.236 9.4008 314.169 9.43432C314.102 9.46783 314.069 9.50134 314.002 9.50134C313.935 9.53485 313.901 9.56836 313.868 9.56836C313.834 9.60188 313.801 9.60188 313.767 9.63539C313.734 9.6689 313.7 9.6689 313.7 9.6689H313.667L313.365 8.93164C313.399 8.93164 313.399 8.89812 313.432 8.86461C313.466 8.8311 313.533 8.79759 313.667 8.73056C313.801 8.66354 313.901 8.63003 314.035 8.563C314.169 8.52949 314.337 8.46247 314.505 8.42896C314.639 8.46247 314.806 8.46247 315.007 8.46247Z" fill="black"/>
<path d="M312.629 97.5375C312.194 97.5375 311.825 97.437 311.523 97.2024C311.222 96.9678 310.987 96.6662 310.853 96.264C310.719 95.8619 310.652 95.3927 310.652 94.8565C310.652 94.4544 310.686 94.0858 310.786 93.7171C310.887 93.382 311.021 93.0469 311.188 92.7788C311.356 92.5107 311.591 92.3096 311.892 92.1421C312.16 91.9745 312.495 91.9075 312.83 91.9075C313.4 91.9075 313.869 92.075 314.204 92.3766L313.903 93.0804C313.568 92.8123 313.233 92.7118 312.83 92.7118C312.495 92.7118 312.227 92.8793 311.993 93.1809C311.758 93.5161 311.658 93.9182 311.624 94.3874C311.892 94.0187 312.261 93.8177 312.696 93.8177C313.233 93.8177 313.668 93.9852 313.97 94.3203C314.271 94.6555 314.439 95.0911 314.439 95.6273C314.439 96.1635 314.271 96.5992 313.936 96.9678C313.601 97.3699 313.166 97.5375 312.629 97.5375ZM312.596 96.7332C312.864 96.7332 313.065 96.6327 313.233 96.4316C313.4 96.2305 313.467 95.9959 313.467 95.6943C313.467 95.3927 313.4 95.1246 313.233 94.9571C313.099 94.756 312.864 94.6555 312.596 94.6555C312.294 94.6555 312.06 94.756 311.892 94.9571C311.725 95.1581 311.624 95.3927 311.624 95.7279C311.624 95.8954 311.658 96.0295 311.691 96.1635C311.758 96.2976 311.825 96.3981 311.892 96.4986C311.993 96.5992 312.093 96.6327 312.194 96.6997C312.361 96.6997 312.495 96.7332 312.596 96.7332Z" fill="black"/>
<path d="M271.778 55.4798C271.376 55.4798 270.907 55.3458 270.371 55.1112L270.706 54.3404C271.041 54.5415 271.343 54.6755 271.678 54.6755C271.845 54.6755 272.013 54.642 272.147 54.575C272.281 54.508 272.415 54.4074 272.549 54.3069C272.65 54.1728 272.75 54.0053 272.817 53.8042C272.884 53.6031 272.918 53.335 272.918 53.0669V52.9664C272.683 53.3015 272.314 53.4691 271.845 53.4691C271.309 53.4691 270.907 53.3015 270.572 52.9664C270.27 52.6313 270.103 52.2291 270.103 51.693C270.103 51.1568 270.27 50.7211 270.605 50.386C270.94 50.0509 271.41 49.8833 271.946 49.8833C272.549 49.8833 273.018 50.1179 273.353 50.5535C273.688 50.9892 273.856 51.6594 273.856 52.5308C273.856 53.1005 273.789 53.6366 273.621 54.0723C273.454 54.508 273.219 54.8766 272.918 55.1112C272.583 55.3793 272.214 55.4798 271.778 55.4798ZM271.912 52.6983C272.214 52.6983 272.449 52.5978 272.616 52.4302C272.784 52.2627 272.884 51.9946 272.884 51.6259C272.884 51.3578 272.817 51.1568 272.65 50.9557C272.482 50.7881 272.281 50.6876 271.979 50.6876C271.678 50.6876 271.477 50.7881 271.276 50.9557C271.108 51.1568 271.007 51.3913 271.007 51.693C271.007 51.9946 271.075 52.2291 271.242 52.3967C271.41 52.5978 271.644 52.6983 271.912 52.6983Z" fill="black"/>
<path d="M354.117 55.5135C353.916 55.5135 353.714 55.5135 353.513 55.4799C353.312 55.4464 353.178 55.4129 353.044 55.3794C352.91 55.3459 352.81 55.2789 352.709 55.2454C352.609 55.2118 352.542 55.1448 352.508 55.1448L352.441 55.1113L352.743 54.4075C352.776 54.4411 352.843 54.4746 352.944 54.5081C353.044 54.5416 353.178 54.6086 353.413 54.6756C353.614 54.7427 353.815 54.7762 354.016 54.7762C354.351 54.7762 354.619 54.7092 354.787 54.5416C354.954 54.374 355.055 54.173 355.055 53.9049C355.055 53.6368 354.921 53.4022 354.686 53.2681C354.452 53.1341 354.117 53.0671 353.681 53.0671H353.547H353.312V52.2628H353.58C354.05 52.2628 354.385 52.1957 354.586 52.0617C354.787 51.9277 354.887 51.7266 354.887 51.3915C354.887 51.1904 354.787 51.0228 354.619 50.9223C354.418 50.8218 354.217 50.7547 353.983 50.7547C353.882 50.7547 353.748 50.7547 353.647 50.7882C353.547 50.8218 353.446 50.8218 353.346 50.8553C353.245 50.8888 353.178 50.9223 353.145 50.9558C353.078 50.9893 353.044 51.0228 352.977 51.0563C352.91 51.0898 352.877 51.1234 352.843 51.1234L352.407 50.4531C352.709 50.252 352.944 50.118 353.178 50.051C353.413 49.9839 353.714 49.9504 354.083 49.9504C354.318 49.9504 354.519 49.9839 354.72 50.051C354.921 50.118 355.122 50.185 355.289 50.3191C355.457 50.4196 355.591 50.5872 355.692 50.7547C355.792 50.9223 355.826 51.1569 355.826 51.3915C355.826 51.5925 355.792 51.7601 355.725 51.9277C355.658 52.0952 355.558 52.2628 355.39 52.3968C355.222 52.5309 355.055 52.6314 354.82 52.6649C355.189 52.7319 355.457 52.866 355.658 53.1341C355.859 53.3687 355.96 53.6703 355.96 53.9719C355.96 54.2065 355.926 54.4411 355.826 54.6421C355.725 54.8432 355.591 55.0108 355.424 55.1448C355.256 55.2789 355.055 55.3794 354.854 55.4464C354.586 55.4799 354.351 55.5135 354.117 55.5135Z" fill="black"/>
<path d="M332.804 20.4262V19.6889H333.776V16.0026C333.407 16.1702 333.072 16.3042 332.704 16.4383V15.567C333.072 15.4664 333.474 15.2653 333.877 15.0308H334.714V19.7225H335.686V20.4597H332.804V20.4262Z" fill="black"/>
<path d="M347.382 27.8659C347.885 27.8659 348.287 28.0335 348.589 28.3351C348.89 28.6367 349.024 29.0723 349.024 29.642C349.024 29.7761 349.024 29.8766 348.991 29.9772C348.957 30.0777 348.957 30.1782 348.924 30.2788C348.89 30.3793 348.857 30.4463 348.79 30.5469C348.723 30.6474 348.689 30.7144 348.656 30.7815C348.622 30.8485 348.555 30.9155 348.488 31.016C348.421 31.1166 348.354 31.1836 348.321 31.2171C348.287 31.2506 348.22 31.3176 348.12 31.4182L347.047 32.5576H349.024V33.3284H345.874V32.6581L347.449 30.9155C347.583 30.7815 347.65 30.6809 347.717 30.6139C347.751 30.5469 347.818 30.4798 347.918 30.3793C347.985 30.2788 348.053 30.1782 348.086 30.1447C348.12 30.0777 348.153 30.0107 348.153 29.9101C348.187 29.8096 348.187 29.7426 348.187 29.642C348.187 29.575 348.187 29.4745 348.153 29.3404C348.12 29.2064 348.086 29.0723 348.052 29.0053C347.985 28.9048 347.952 28.8378 347.851 28.7707C347.784 28.7037 347.684 28.6702 347.617 28.6702C347.55 28.6367 347.449 28.6367 347.349 28.6367C347.282 28.6367 347.215 28.6367 347.148 28.6702C347.081 28.6702 347.014 28.7037 346.947 28.7037C346.88 28.7372 346.813 28.7372 346.746 28.7707C346.679 28.8042 346.611 28.8042 346.544 28.8378C346.477 28.8713 346.444 28.9048 346.377 28.9048C346.31 28.9383 346.276 28.9718 346.243 28.9718C346.209 29.0053 346.176 29.0053 346.142 29.0388C346.109 29.0723 346.075 29.0723 346.075 29.0723H346.042L345.74 28.3351C345.774 28.3351 345.774 28.3016 345.807 28.2681C345.841 28.2345 345.908 28.201 346.042 28.134C346.176 28.067 346.276 28.0335 346.41 27.9664C346.544 27.9329 346.712 27.8659 346.88 27.8324C347.014 27.8994 347.181 27.8659 347.382 27.8659Z" fill="black"/>
<path d="M348.119 77.7319V76.3244H345.84V75.6206L348.018 72.3364H349.091V75.5871H349.929V76.3244H349.091V77.7319H348.119ZM346.845 75.5536H348.119V73.5093C348.052 73.6099 347.65 74.2801 346.845 75.5536Z" fill="black"/>
<path d="M334.178 90.902C333.877 90.902 333.575 90.835 333.273 90.701C332.972 90.5669 332.704 90.3994 332.469 90.1648L332.972 89.461C333.139 89.6621 333.34 89.8296 333.542 89.9302C333.743 90.0307 333.977 90.0977 334.178 90.0977C334.446 90.0977 334.681 89.9972 334.882 89.8297C335.083 89.6621 335.184 89.394 335.184 89.0589C335.184 88.7908 335.117 88.5562 334.983 88.3886C334.849 88.1876 334.681 88.1205 334.446 88.1205C334.145 88.1205 333.944 88.1876 333.81 88.3551L332.871 88.2211V85.4396H335.887V86.2439H333.709L333.676 87.6179C333.843 87.3833 334.178 87.2827 334.647 87.2827C335.05 87.2827 335.418 87.4503 335.72 87.8189C336.021 88.1541 336.155 88.5897 336.155 89.1259C336.155 89.3605 336.122 89.5951 336.055 89.7961C335.988 89.9972 335.887 90.1648 335.753 90.2988C335.619 90.4329 335.485 90.5669 335.318 90.6675C335.15 90.768 334.983 90.835 334.782 90.902C334.58 90.8685 334.379 90.902 334.178 90.902Z" fill="black"/>
<path d="M289.574 90.8016L291.618 86.1769H288.937V85.4061H292.69V86.1434L290.546 90.8351H289.574V90.8016Z" fill="black"/>
<path d="M278.146 77.8994C277.777 77.8994 277.475 77.8324 277.207 77.7319C276.939 77.5978 276.705 77.4303 276.537 77.1957C276.369 76.9611 276.302 76.693 276.302 76.3579C276.302 76.0563 276.369 75.7882 276.537 75.5536C276.705 75.319 276.939 75.1179 277.207 74.9839C276.671 74.6823 276.403 74.2466 276.403 73.7439C276.403 73.3083 276.57 72.9396 276.872 72.7051C277.207 72.437 277.609 72.3364 278.112 72.3364C278.648 72.3364 279.084 72.4705 279.385 72.7386C279.687 73.0067 279.855 73.3753 279.855 73.811C279.855 74.3472 279.587 74.7828 279.05 75.0174C279.318 75.1514 279.52 75.3525 279.687 75.5871C279.855 75.8552 279.955 76.1233 279.955 76.3914C279.955 76.693 279.855 76.9946 279.687 77.2292C279.52 77.4638 279.285 77.6313 279.017 77.7654C278.782 77.8659 278.481 77.8994 278.146 77.8994ZM278.146 77.0951C278.414 77.0951 278.648 77.0281 278.782 76.8941C278.95 76.76 279.017 76.5589 279.017 76.2908C279.017 76.0898 278.95 75.8887 278.782 75.6876C278.615 75.4866 278.414 75.386 278.179 75.319C277.911 75.386 277.71 75.4866 277.542 75.6876C277.375 75.8552 277.274 76.0898 277.274 76.3244C277.274 76.5589 277.341 76.76 277.509 76.8941C277.643 77.0281 277.877 77.0951 278.146 77.0951ZM278.146 74.6488C278.38 74.5817 278.581 74.4812 278.715 74.3136C278.849 74.1796 278.916 73.9785 278.916 73.7774C278.916 73.5764 278.849 73.4423 278.682 73.3418C278.548 73.2413 278.347 73.1742 278.112 73.1742C277.877 73.1742 277.676 73.2413 277.542 73.3418C277.408 73.4423 277.341 73.6099 277.341 73.8445C277.341 74.0455 277.408 74.2131 277.542 74.3807C277.71 74.4477 277.877 74.5817 278.146 74.6488Z" fill="black"/>
<path d="M273.053 33.6299V32.8927H274.024V29.2063C273.656 29.3739 273.321 29.508 272.952 29.642V28.7707C273.321 28.6702 273.723 28.4691 274.125 28.2345H274.963V32.9262H275.935V33.6634H273.053V33.6299Z" fill="black"/>
<path d="M279.085 33.7306C278.482 33.7306 278.012 33.4625 277.677 32.9598C277.342 32.4572 277.175 31.7534 277.175 30.8821C277.175 30.0108 277.342 29.3405 277.677 28.8379C278.012 28.3687 278.482 28.1006 279.085 28.1006C279.688 28.1006 280.157 28.3352 280.492 28.8379C280.827 29.3405 280.995 30.0108 280.995 30.8486C280.995 31.4183 280.928 31.921 280.794 32.3231C280.66 32.7588 280.425 33.0604 280.157 33.3285C279.822 33.5966 279.487 33.7306 279.085 33.7306ZM279.085 32.8928C279.688 32.8928 280.023 32.2226 280.023 30.8486C280.023 30.5805 280.023 30.3459 279.99 30.1113C279.956 29.8767 279.923 29.6757 279.856 29.5081C279.789 29.307 279.688 29.173 279.554 29.0724C279.42 28.9719 279.286 28.9049 279.118 28.9049C278.951 28.9049 278.783 28.9719 278.649 29.0724C278.515 29.173 278.415 29.3405 278.348 29.5081C278.281 29.7092 278.213 29.9102 278.18 30.1113C278.146 30.3459 278.146 30.5805 278.146 30.8486C278.146 31.1502 278.146 31.4183 278.18 31.6529C278.213 31.8874 278.247 32.0885 278.348 32.2896C278.415 32.4907 278.515 32.6247 278.649 32.7252C278.75 32.8593 278.917 32.8928 279.085 32.8928Z" fill="black"/>
<path d="M288.033 19.9906V19.2533H289.005V15.567C288.636 15.7346 288.301 15.8686 287.933 16.0027V15.0978C288.301 14.9973 288.703 14.7962 289.106 14.5616H289.943V19.2533H290.915V19.9906H288.033Z" fill="black"/>
<path d="M292.793 19.9906V19.2533H293.764V15.567C293.396 15.7346 293.061 15.8686 292.692 16.0027V15.0978C293.061 14.9973 293.463 14.7962 293.865 14.5616H294.703V19.2533H295.675V19.9906H292.793Z" fill="black"/>
<path d="M312.829 55.1112C314.069 55.1112 315.075 54.106 315.075 52.8659C315.075 51.6259 314.069 50.6206 312.829 50.6206C311.589 50.6206 310.584 51.6259 310.584 52.8659C310.584 54.106 311.589 55.1112 312.829 55.1112Z" fill="url(#paint2_radial_27_14)"/>
<path d="M312.6 48.273C313.133 48.2088 313.588 48.6264 313.657 49.192L316.612 73.6791L314.749 73.904L311.793 49.4169C311.725 48.8513 312.068 48.3373 312.6 48.273Z" fill="black"/>
<path d="M287.041 38.6328L286.92 38.8468L287.132 38.9715L318.073 57.1816C318.458 57.4148 318.879 57.1992 319.067 56.8915C319.271 56.5573 319.199 56.085 318.837 55.8638L318.837 55.8637L318.833 55.8616L287.89 37.6507L287.671 37.5218L287.546 37.7428L287.041 38.6328Z" fill="#0E80A4" stroke="#0E80A4" stroke-width="0.5"/>
<path d="M312.831 54.4409C313.701 54.4409 314.406 53.7357 314.406 52.8658C314.406 51.996 313.701 51.2908 312.831 51.2908C311.961 51.2908 311.256 51.996 311.256 52.8658C311.256 53.7357 311.961 54.4409 312.831 54.4409Z" fill="#0E80A4"/>
<path d="M313 103C340.614 103 363 80.6142 363 53C363 25.3858 340.614 3 313 3C285.386 3 263 25.3858 263 53C263 80.6142 285.386 103 313 103Z" stroke="#0E80A4" stroke-width="5" stroke-miterlimit="10"/>
<path d="M263 138C263 135.239 265.239 133 268 133H358C360.761 133 363 135.239 363 138V162C363 164.761 360.761 167 358 167H268C265.239 167 263 164.761 263 162V138Z" fill="white"/>
<path d="M281.841 156.144C280.845 156.144 279.957 155.892 279.177 155.388C278.409 154.872 277.803 154.128 277.359 153.156C276.915 152.184 276.693 151.032 276.693 149.7C276.693 148.368 276.915 147.216 277.359 146.244C277.803 145.272 278.409 144.534 279.177 144.03C279.957 143.514 280.845 143.256 281.841 143.256C282.825 143.256 283.701 143.514 284.469 144.03C285.249 144.534 285.861 145.272 286.305 146.244C286.749 147.216 286.971 148.368 286.971 149.7C286.971 151.032 286.749 152.184 286.305 153.156C285.861 154.128 285.249 154.872 284.469 155.388C283.701 155.892 282.825 156.144 281.841 156.144ZM281.841 154.542C282.849 154.542 283.653 154.128 284.253 153.3C284.865 152.472 285.171 151.272 285.171 149.7C285.171 148.128 284.865 146.928 284.253 146.1C283.653 145.272 282.849 144.858 281.841 144.858C280.821 144.858 280.005 145.272 279.393 146.1C278.793 146.928 278.493 148.128 278.493 149.7C278.493 151.272 278.793 152.472 279.393 153.3C280.005 154.128 280.821 154.542 281.841 154.542ZM292.299 148.422C294.099 148.422 295.419 148.764 296.259 149.448C297.111 150.12 297.537 151.044 297.537 152.22C297.537 152.964 297.357 153.636 296.997 154.236C296.649 154.824 296.115 155.292 295.395 155.64C294.687 155.976 293.811 156.144 292.767 156.144C291.879 156.144 291.021 156.012 290.193 155.748C289.365 155.472 288.681 155.094 288.141 154.614L288.969 153.192C289.401 153.6 289.953 153.93 290.625 154.182C291.297 154.422 292.005 154.542 292.749 154.542C293.697 154.542 294.429 154.344 294.945 153.948C295.473 153.54 295.737 152.988 295.737 152.292C295.737 151.536 295.449 150.966 294.873 150.582C294.297 150.186 293.313 149.988 291.921 149.988H289.059L289.725 143.4H296.835V144.966H291.237L290.895 148.422H292.299Z" fill="#369CB7"/>
<path d="M313.013 148.836C312.677 148.836 312.389 148.722 312.149 148.494C311.909 148.254 311.789 147.954 311.789 147.594C311.789 147.246 311.909 146.958 312.149 146.73C312.389 146.49 312.677 146.37 313.013 146.37C313.349 146.37 313.631 146.484 313.859 146.712C314.087 146.94 314.201 147.234 314.201 147.594C314.201 147.954 314.081 148.254 313.841 148.494C313.613 148.722 313.337 148.836 313.013 148.836ZM313.013 156.108C312.677 156.108 312.389 155.994 312.149 155.766C311.909 155.526 311.789 155.226 311.789 154.866C311.789 154.518 311.909 154.23 312.149 154.002C312.389 153.762 312.677 153.642 313.013 153.642C313.349 153.642 313.631 153.756 313.859 153.984C314.087 154.212 314.201 154.506 314.201 154.866C314.201 155.226 314.081 155.526 313.841 155.766C313.613 155.994 313.337 156.108 313.013 156.108Z" fill="#369CB7"/>
<path d="M332.293 148.422C334.093 148.422 335.413 148.764 336.253 149.448C337.105 150.12 337.531 151.044 337.531 152.22C337.531 152.964 337.351 153.636 336.991 154.236C336.643 154.824 336.109 155.292 335.389 155.64C334.681 155.976 333.805 156.144 332.761 156.144C331.873 156.144 331.015 156.012 330.187 155.748C329.359 155.472 328.675 155.094 328.135 154.614L328.963 153.192C329.395 153.6 329.947 153.93 330.619 154.182C331.291 154.422 331.999 154.542 332.743 154.542C333.691 154.542 334.423 154.344 334.939 153.948C335.467 153.54 335.731 152.988 335.731 152.292C335.731 151.536 335.443 150.966 334.867 150.582C334.291 150.186 333.307 149.988 331.915 149.988H329.053L329.719 143.4H336.829V144.966H331.231L330.889 148.422H332.293ZM344.177 156.144C343.181 156.144 342.293 155.892 341.513 155.388C340.745 154.872 340.139 154.128 339.695 153.156C339.251 152.184 339.029 151.032 339.029 149.7C339.029 148.368 339.251 147.216 339.695 146.244C340.139 145.272 340.745 144.534 341.513 144.03C342.293 143.514 343.181 143.256 344.177 143.256C345.161 143.256 346.037 143.514 346.805 144.03C347.585 144.534 348.197 145.272 348.641 146.244C349.085 147.216 349.307 148.368 349.307 149.7C349.307 151.032 349.085 152.184 348.641 153.156C348.197 154.128 347.585 154.872 346.805 155.388C346.037 155.892 345.161 156.144 344.177 156.144ZM344.177 154.542C345.185 154.542 345.989 154.128 346.589 153.3C347.201 152.472 347.507 151.272 347.507 149.7C347.507 148.128 347.201 146.928 346.589 146.1C345.989 145.272 345.185 144.858 344.177 144.858C343.157 144.858 342.341 145.272 341.729 146.1C341.129 146.928 340.829 148.128 340.829 149.7C340.829 151.272 341.129 152.472 341.729 153.3C342.341 154.128 343.157 154.542 344.177 154.542Z" fill="#369CB7"/>
<path d="M268 134H358V132H268V134ZM362 138V162H364V138H362ZM358 166H268V168H358V166ZM264 162V138H262V162H264ZM268 166C265.791 166 264 164.209 264 162H262C262 165.314 264.686 168 268 168V166ZM362 162C362 164.209 360.209 166 358 166V168C361.314 168 364 165.314 364 162H362ZM358 134C360.209 134 362 135.791 362 138H364C364 134.686 361.314 132 358 132V134ZM268 132C264.686 132 262 134.686 262 138H264C264 135.791 265.791 134 268 134V132Z" fill="#369CB7"/>
<path d="M442.999 16.807H442.664V20.7279H442.999V16.807Z" fill="black"/>
<path d="M442.999 85.0039H442.664V88.9248H442.999V85.0039Z" fill="black"/>
<path d="M426.613 25.1206L426.903 24.953L424.942 21.5575L424.652 21.7251L426.613 25.1206Z" fill="black"/>
<path d="M460.708 84.1484L460.998 83.9808L459.038 80.5853L458.748 80.7529L460.708 84.1484Z" fill="black"/>
<path d="M414.904 36.9407L415.072 36.6505L411.676 34.6901L411.509 34.9803L414.904 36.9407Z" fill="black"/>
<path d="M473.982 71.0377L474.15 70.7474L470.754 68.787L470.587 69.0772L473.982 71.0377Z" fill="black"/>
<path d="M410.693 52.6984H406.773V53.0335H410.693V52.6984Z" fill="black"/>
<path d="M478.891 52.6984H474.971V53.0335H478.891V52.6984Z" fill="black"/>
<path d="M415.086 69.0707L414.918 68.7805L411.523 70.741L411.69 71.0312L415.086 69.0707Z" fill="black"/>
<path d="M474.133 34.9933L473.966 34.7031L470.57 36.6636L470.738 36.9538L474.133 34.9933Z" fill="black"/>
<path d="M426.9 80.783L426.61 80.6155L424.649 84.011L424.94 84.1786L426.9 80.783Z" fill="black"/>
<path d="M461.012 21.7142L460.721 21.5466L458.761 24.9421L459.051 25.1097L461.012 21.7142Z" fill="black"/>
<path d="M439.144 13.9606V13.2233H440.115V9.53698C439.747 9.70454 439.412 9.83859 439.043 9.97263V9.06781C439.412 8.96727 439.814 8.7662 440.216 8.53162H441.054V13.2233H442.026V13.9606H439.144Z" fill="black"/>
<path d="M445.007 8.46247C445.51 8.46247 445.912 8.63003 446.214 8.93164C446.515 9.23324 446.649 9.6689 446.649 10.2386C446.649 10.3727 446.649 10.4732 446.616 10.5737C446.582 10.6743 446.582 10.7748 446.549 10.8753C446.515 10.9759 446.482 11.0429 446.415 11.1434C446.348 11.244 446.314 11.311 446.281 11.378C446.247 11.445 446.18 11.5121 446.113 11.6126C446.046 11.7131 445.979 11.7802 445.946 11.8137C445.912 11.8472 445.845 11.9142 445.744 12.0147L444.672 13.1542H446.649V13.9249H443.499V13.2547L445.074 11.5121C445.208 11.378 445.275 11.2775 445.342 11.2105C445.376 11.1434 445.443 11.0764 445.543 10.9759C445.61 10.8753 445.677 10.7748 445.711 10.7413C445.744 10.6743 445.778 10.6072 445.778 10.5067C445.811 10.4062 445.811 10.3391 445.811 10.2386C445.811 10.1716 445.811 10.071 445.778 9.937C445.744 9.80295 445.711 9.6689 445.677 9.60188C445.61 9.50134 445.577 9.43432 445.476 9.36729C445.409 9.30027 445.309 9.26676 445.242 9.26676C445.175 9.23324 445.074 9.23324 444.974 9.23324C444.907 9.23324 444.84 9.23324 444.773 9.26676C444.706 9.26676 444.639 9.30027 444.572 9.30027C444.505 9.33378 444.437 9.33378 444.37 9.36729C444.303 9.4008 444.236 9.4008 444.169 9.43432C444.102 9.46783 444.069 9.50134 444.002 9.50134C443.935 9.53485 443.901 9.56836 443.868 9.56836C443.834 9.60188 443.801 9.60188 443.767 9.63539C443.734 9.6689 443.7 9.6689 443.7 9.6689H443.667L443.365 8.93164C443.399 8.93164 443.399 8.89812 443.432 8.86461C443.466 8.8311 443.533 8.79759 443.667 8.73056C443.801 8.66354 443.901 8.63003 444.035 8.563C444.169 8.52949 444.337 8.46247 444.505 8.42896C444.639 8.46247 444.806 8.46247 445.007 8.46247Z" fill="black"/>
<path d="M442.629 97.5375C442.194 97.5375 441.825 97.437 441.523 97.2024C441.222 96.9678 440.987 96.6662 440.853 96.264C440.719 95.8619 440.652 95.3927 440.652 94.8565C440.652 94.4544 440.686 94.0858 440.786 93.7171C440.887 93.382 441.021 93.0469 441.188 92.7788C441.356 92.5107 441.591 92.3096 441.892 92.1421C442.16 91.9745 442.495 91.9075 442.83 91.9075C443.4 91.9075 443.869 92.075 444.204 92.3766L443.903 93.0804C443.568 92.8123 443.233 92.7118 442.83 92.7118C442.495 92.7118 442.227 92.8793 441.993 93.1809C441.758 93.5161 441.658 93.9182 441.624 94.3874C441.892 94.0187 442.261 93.8177 442.696 93.8177C443.233 93.8177 443.668 93.9852 443.97 94.3203C444.271 94.6555 444.439 95.0911 444.439 95.6273C444.439 96.1635 444.271 96.5992 443.936 96.9678C443.601 97.3699 443.166 97.5375 442.629 97.5375ZM442.596 96.7332C442.864 96.7332 443.065 96.6327 443.233 96.4316C443.4 96.2305 443.467 95.9959 443.467 95.6943C443.467 95.3927 443.4 95.1246 443.233 94.9571C443.099 94.756 442.864 94.6555 442.596 94.6555C442.294 94.6555 442.06 94.756 441.892 94.9571C441.725 95.1581 441.624 95.3927 441.624 95.7279C441.624 95.8954 441.658 96.0295 441.691 96.1635C441.758 96.2976 441.825 96.3981 441.892 96.4986C441.993 96.5992 442.093 96.6327 442.194 96.6997C442.361 96.6997 442.495 96.7332 442.596 96.7332Z" fill="black"/>
<path d="M401.778 55.4798C401.376 55.4798 400.907 55.3458 400.371 55.1112L400.706 54.3404C401.041 54.5415 401.343 54.6755 401.678 54.6755C401.845 54.6755 402.013 54.642 402.147 54.575C402.281 54.508 402.415 54.4074 402.549 54.3069C402.65 54.1728 402.75 54.0053 402.817 53.8042C402.884 53.6031 402.918 53.335 402.918 53.0669V52.9664C402.683 53.3015 402.314 53.4691 401.845 53.4691C401.309 53.4691 400.907 53.3015 400.572 52.9664C400.27 52.6313 400.103 52.2291 400.103 51.693C400.103 51.1568 400.27 50.7211 400.605 50.386C400.94 50.0509 401.41 49.8833 401.946 49.8833C402.549 49.8833 403.018 50.1179 403.353 50.5535C403.688 50.9892 403.856 51.6594 403.856 52.5308C403.856 53.1005 403.789 53.6366 403.621 54.0723C403.454 54.508 403.219 54.8766 402.918 55.1112C402.583 55.3793 402.214 55.4798 401.778 55.4798ZM401.912 52.6983C402.214 52.6983 402.449 52.5978 402.616 52.4302C402.784 52.2627 402.884 51.9946 402.884 51.6259C402.884 51.3578 402.817 51.1568 402.65 50.9557C402.482 50.7881 402.281 50.6876 401.979 50.6876C401.678 50.6876 401.477 50.7881 401.276 50.9557C401.108 51.1568 401.007 51.3913 401.007 51.693C401.007 51.9946 401.075 52.2291 401.242 52.3967C401.41 52.5978 401.644 52.6983 401.912 52.6983Z" fill="black"/>
<path d="M484.117 55.5135C483.916 55.5135 483.714 55.5135 483.513 55.4799C483.312 55.4464 483.178 55.4129 483.044 55.3794C482.91 55.3459 482.81 55.2789 482.709 55.2454C482.609 55.2118 482.542 55.1448 482.508 55.1448L482.441 55.1113L482.743 54.4075C482.776 54.4411 482.843 54.4746 482.944 54.5081C483.044 54.5416 483.178 54.6086 483.413 54.6756C483.614 54.7427 483.815 54.7762 484.016 54.7762C484.351 54.7762 484.619 54.7092 484.787 54.5416C484.954 54.374 485.055 54.173 485.055 53.9049C485.055 53.6368 484.921 53.4022 484.686 53.2681C484.452 53.1341 484.117 53.0671 483.681 53.0671H483.547H483.312V52.2628H483.58C484.05 52.2628 484.385 52.1957 484.586 52.0617C484.787 51.9277 484.887 51.7266 484.887 51.3915C484.887 51.1904 484.787 51.0228 484.619 50.9223C484.418 50.8218 484.217 50.7547 483.983 50.7547C483.882 50.7547 483.748 50.7547 483.647 50.7882C483.547 50.8218 483.446 50.8218 483.346 50.8553C483.245 50.8888 483.178 50.9223 483.145 50.9558C483.078 50.9893 483.044 51.0228 482.977 51.0563C482.91 51.0898 482.877 51.1234 482.843 51.1234L482.407 50.4531C482.709 50.252 482.944 50.118 483.178 50.051C483.413 49.9839 483.714 49.9504 484.083 49.9504C484.318 49.9504 484.519 49.9839 484.72 50.051C484.921 50.118 485.122 50.185 485.289 50.3191C485.457 50.4196 485.591 50.5872 485.692 50.7547C485.792 50.9223 485.826 51.1569 485.826 51.3915C485.826 51.5925 485.792 51.7601 485.725 51.9277C485.658 52.0952 485.558 52.2628 485.39 52.3968C485.222 52.5309 485.055 52.6314 484.82 52.6649C485.189 52.7319 485.457 52.866 485.658 53.1341C485.859 53.3687 485.96 53.6703 485.96 53.9719C485.96 54.2065 485.926 54.4411 485.826 54.6421C485.725 54.8432 485.591 55.0108 485.424 55.1448C485.256 55.2789 485.055 55.3794 484.854 55.4464C484.586 55.4799 484.351 55.5135 484.117 55.5135Z" fill="black"/>
<path d="M462.804 20.4262V19.6889H463.776V16.0026C463.407 16.1702 463.072 16.3042 462.704 16.4383V15.567C463.072 15.4664 463.474 15.2653 463.877 15.0308H464.714V19.7225H465.686V20.4597H462.804V20.4262Z" fill="black"/>
<path d="M477.382 27.8659C477.885 27.8659 478.287 28.0335 478.589 28.3351C478.89 28.6367 479.024 29.0723 479.024 29.642C479.024 29.7761 479.024 29.8766 478.991 29.9772C478.957 30.0777 478.957 30.1782 478.924 30.2788C478.89 30.3793 478.857 30.4463 478.79 30.5469C478.723 30.6474 478.689 30.7144 478.656 30.7815C478.622 30.8485 478.555 30.9155 478.488 31.016C478.421 31.1166 478.354 31.1836 478.321 31.2171C478.287 31.2506 478.22 31.3176 478.12 31.4182L477.047 32.5576H479.024V33.3284H475.874V32.6581L477.449 30.9155C477.583 30.7815 477.65 30.6809 477.717 30.6139C477.751 30.5469 477.818 30.4798 477.918 30.3793C477.985 30.2788 478.053 30.1782 478.086 30.1447C478.12 30.0777 478.153 30.0107 478.153 29.9101C478.187 29.8096 478.187 29.7426 478.187 29.642C478.187 29.575 478.187 29.4745 478.153 29.3404C478.12 29.2064 478.086 29.0723 478.052 29.0053C477.985 28.9048 477.952 28.8378 477.851 28.7707C477.784 28.7037 477.684 28.6702 477.617 28.6702C477.55 28.6367 477.449 28.6367 477.349 28.6367C477.282 28.6367 477.215 28.6367 477.148 28.6702C477.081 28.6702 477.014 28.7037 476.947 28.7037C476.88 28.7372 476.813 28.7372 476.746 28.7707C476.679 28.8042 476.611 28.8042 476.544 28.8378C476.477 28.8713 476.444 28.9048 476.377 28.9048C476.31 28.9383 476.276 28.9718 476.243 28.9718C476.209 29.0053 476.176 29.0053 476.142 29.0388C476.109 29.0723 476.075 29.0723 476.075 29.0723H476.042L475.74 28.3351C475.774 28.3351 475.774 28.3016 475.807 28.2681C475.841 28.2345 475.908 28.201 476.042 28.134C476.176 28.067 476.276 28.0335 476.41 27.9664C476.544 27.9329 476.712 27.8659 476.88 27.8324C477.014 27.8994 477.181 27.8659 477.382 27.8659Z" fill="black"/>
<path d="M478.119 77.7319V76.3244H475.84V75.6206L478.018 72.3364H479.091V75.5871H479.929V76.3244H479.091V77.7319H478.119ZM476.845 75.5536H478.119V73.5093C478.052 73.6099 477.65 74.2801 476.845 75.5536Z" fill="black"/>
<path d="M464.178 90.902C463.877 90.902 463.575 90.835 463.273 90.701C462.972 90.5669 462.704 90.3994 462.469 90.1648L462.972 89.461C463.139 89.6621 463.34 89.8296 463.542 89.9302C463.743 90.0307 463.977 90.0977 464.178 90.0977C464.446 90.0977 464.681 89.9972 464.882 89.8297C465.083 89.6621 465.184 89.394 465.184 89.0589C465.184 88.7908 465.117 88.5562 464.983 88.3886C464.849 88.1876 464.681 88.1205 464.446 88.1205C464.145 88.1205 463.944 88.1876 463.81 88.3551L462.871 88.2211V85.4396H465.887V86.2439H463.709L463.676 87.6179C463.843 87.3833 464.178 87.2827 464.647 87.2827C465.05 87.2827 465.418 87.4503 465.72 87.8189C466.021 88.1541 466.155 88.5897 466.155 89.1259C466.155 89.3605 466.122 89.5951 466.055 89.7961C465.988 89.9972 465.887 90.1648 465.753 90.2988C465.619 90.4329 465.485 90.5669 465.318 90.6675C465.15 90.768 464.983 90.835 464.782 90.902C464.58 90.8685 464.379 90.902 464.178 90.902Z" fill="black"/>
<path d="M419.574 90.8016L421.618 86.1769H418.937V85.4061H422.69V86.1434L420.546 90.8351H419.574V90.8016Z" fill="black"/>
<path d="M408.146 77.8994C407.777 77.8994 407.475 77.8324 407.207 77.7319C406.939 77.5978 406.705 77.4303 406.537 77.1957C406.369 76.9611 406.302 76.693 406.302 76.3579C406.302 76.0563 406.369 75.7882 406.537 75.5536C406.705 75.319 406.939 75.1179 407.207 74.9839C406.671 74.6823 406.403 74.2466 406.403 73.7439C406.403 73.3083 406.57 72.9396 406.872 72.7051C407.207 72.437 407.609 72.3364 408.112 72.3364C408.648 72.3364 409.084 72.4705 409.385 72.7386C409.687 73.0067 409.855 73.3753 409.855 73.811C409.855 74.3472 409.587 74.7828 409.05 75.0174C409.318 75.1514 409.52 75.3525 409.687 75.5871C409.855 75.8552 409.955 76.1233 409.955 76.3914C409.955 76.693 409.855 76.9946 409.687 77.2292C409.52 77.4638 409.285 77.6313 409.017 77.7654C408.782 77.8659 408.481 77.8994 408.146 77.8994ZM408.146 77.0951C408.414 77.0951 408.648 77.0281 408.782 76.8941C408.95 76.76 409.017 76.5589 409.017 76.2908C409.017 76.0898 408.95 75.8887 408.782 75.6876C408.615 75.4866 408.414 75.386 408.179 75.319C407.911 75.386 407.71 75.4866 407.542 75.6876C407.375 75.8552 407.274 76.0898 407.274 76.3244C407.274 76.5589 407.341 76.76 407.509 76.8941C407.643 77.0281 407.877 77.0951 408.146 77.0951ZM408.146 74.6488C408.38 74.5817 408.581 74.4812 408.715 74.3136C408.849 74.1796 408.916 73.9785 408.916 73.7774C408.916 73.5764 408.849 73.4423 408.682 73.3418C408.548 73.2413 408.347 73.1742 408.112 73.1742C407.877 73.1742 407.676 73.2413 407.542 73.3418C407.408 73.4423 407.341 73.6099 407.341 73.8445C407.341 74.0455 407.408 74.2131 407.542 74.3807C407.71 74.4477 407.877 74.5817 408.146 74.6488Z" fill="black"/>
<path d="M403.053 33.6299V32.8927H404.024V29.2063C403.656 29.3739 403.321 29.508 402.952 29.642V28.7707C403.321 28.6702 403.723 28.4691 404.125 28.2345H404.963V32.9262H405.935V33.6634H403.053V33.6299Z" fill="black"/>
<path d="M409.085 33.7306C408.482 33.7306 408.012 33.4625 407.677 32.9598C407.342 32.4572 407.175 31.7534 407.175 30.8821C407.175 30.0108 407.342 29.3405 407.677 28.8379C408.012 28.3687 408.482 28.1006 409.085 28.1006C409.688 28.1006 410.157 28.3352 410.492 28.8379C410.827 29.3405 410.995 30.0108 410.995 30.8486C410.995 31.4183 410.928 31.921 410.794 32.3231C410.66 32.7588 410.425 33.0604 410.157 33.3285C409.822 33.5966 409.487 33.7306 409.085 33.7306ZM409.085 32.8928C409.688 32.8928 410.023 32.2226 410.023 30.8486C410.023 30.5805 410.023 30.3459 409.99 30.1113C409.956 29.8767 409.923 29.6757 409.856 29.5081C409.789 29.307 409.688 29.173 409.554 29.0724C409.42 28.9719 409.286 28.9049 409.118 28.9049C408.951 28.9049 408.783 28.9719 408.649 29.0724C408.515 29.173 408.415 29.3405 408.348 29.5081C408.281 29.7092 408.213 29.9102 408.18 30.1113C408.146 30.3459 408.146 30.5805 408.146 30.8486C408.146 31.1502 408.146 31.4183 408.18 31.6529C408.213 31.8874 408.247 32.0885 408.348 32.2896C408.415 32.4907 408.515 32.6247 408.649 32.7252C408.75 32.8593 408.917 32.8928 409.085 32.8928Z" fill="black"/>
<path d="M418.033 19.9906V19.2533H419.005V15.567C418.636 15.7346 418.301 15.8686 417.933 16.0027V15.0978C418.301 14.9973 418.703 14.7962 419.106 14.5616H419.943V19.2533H420.915V19.9906H418.033Z" fill="black"/>
<path d="M422.793 19.9906V19.2533H423.764V15.567C423.396 15.7346 423.061 15.8686 422.692 16.0027V15.0978C423.061 14.9973 423.463 14.7962 423.865 14.5616H424.703V19.2533H425.675V19.9906H422.793Z" fill="black"/>
<path d="M442.829 55.1112C444.069 55.1112 445.075 54.106 445.075 52.8659C445.075 51.6259 444.069 50.6206 442.829 50.6206C441.589 50.6206 440.584 51.6259 440.584 52.8659C440.584 54.106 441.589 55.1112 442.829 55.1112Z" fill="url(#paint3_radial_27_14)"/>
<path d="M442.562 57.9599C442.026 57.9599 441.624 57.4907 441.624 56.921V32.2561H443.5V56.921C443.5 57.4907 443.098 57.9599 442.562 57.9599Z" fill="black"/>
<path d="M444.113 82.7755L444.359 82.7642L444.352 82.5183L443.29 46.6318C443.283 46.1822 442.876 45.9404 442.515 45.9452C442.124 45.9503 441.762 46.263 441.768 46.6872L441.768 46.6872L441.768 46.6913L442.83 82.5798L442.838 82.8337L443.091 82.8221L444.113 82.7755Z" fill="#0E80A4" stroke="#0E80A4" stroke-width="0.5"/>
<path d="M442.831 54.4409C443.701 54.4409 444.406 53.7357 444.406 52.8658C444.406 51.996 443.701 51.2908 442.831 51.2908C441.961 51.2908 441.256 51.996 441.256 52.8658C441.256 53.7357 441.961 54.4409 442.831 54.4409Z" fill="#0E80A4"/>
<path d="M443 103C470.614 103 493 80.6142 493 53C493 25.3858 470.614 3 443 3C415.386 3 393 25.3858 393 53C393 80.6142 415.386 103 443 103Z" stroke="#0E80A4" stroke-width="5" stroke-miterlimit="10"/>
<path d="M393 138C393 135.239 395.239 133 398 133H488C490.761 133 493 135.239 493 138V162C493 164.761 490.761 167 488 167H398C395.239 167 393 164.761 393 162V138Z" fill="white"/>
<path d="M413.271 143.4V156H411.489V144.966H408.645V143.4H413.271ZM424.883 154.434V156H415.829V154.776L420.959 149.826C421.583 149.226 422.003 148.71 422.219 148.278C422.435 147.834 422.543 147.39 422.543 146.946C422.543 146.286 422.309 145.776 421.841 145.416C421.385 145.044 420.725 144.858 419.861 144.858C418.469 144.858 417.395 145.314 416.639 146.226L415.415 145.164C415.907 144.564 416.549 144.096 417.341 143.76C418.145 143.424 419.039 143.256 420.023 143.256C421.343 143.256 422.393 143.574 423.173 144.21C423.953 144.834 424.343 145.686 424.343 146.766C424.343 147.438 424.199 148.074 423.911 148.674C423.623 149.274 423.077 149.958 422.273 150.726L418.421 154.434H424.883Z" fill="#369CB7"/>
<path d="M443.013 148.836C442.677 148.836 442.389 148.722 442.149 148.494C441.909 148.254 441.789 147.954 441.789 147.594C441.789 147.246 441.909 146.958 442.149 146.73C442.389 146.49 442.677 146.37 443.013 146.37C443.349 146.37 443.631 146.484 443.859 146.712C444.087 146.94 444.201 147.234 444.201 147.594C444.201 147.954 444.081 148.254 443.841 148.494C443.613 148.722 443.337 148.836 443.013 148.836ZM443.013 156.108C442.677 156.108 442.389 155.994 442.149 155.766C441.909 155.526 441.789 155.226 441.789 154.866C441.789 154.518 441.909 154.23 442.149 154.002C442.389 153.762 442.677 153.642 443.013 153.642C443.349 153.642 443.631 153.756 443.859 153.984C444.087 154.212 444.201 154.506 444.201 154.866C444.201 155.226 444.081 155.526 443.841 155.766C443.613 155.994 443.337 156.108 443.013 156.108Z" fill="#369CB7"/>
<path d="M463.535 148.692C464.771 148.812 465.713 149.196 466.361 149.844C467.009 150.48 467.333 151.296 467.333 152.292C467.333 153.012 467.153 153.666 466.793 154.254C466.433 154.83 465.893 155.292 465.173 155.64C464.465 155.976 463.595 156.144 462.563 156.144C461.663 156.144 460.799 156.012 459.971 155.748C459.143 155.472 458.465 155.094 457.937 154.614L458.765 153.192C459.197 153.6 459.749 153.93 460.421 154.182C461.093 154.422 461.807 154.542 462.563 154.542C463.499 154.542 464.225 154.344 464.741 153.948C465.269 153.552 465.533 153.006 465.533 152.31C465.533 151.614 465.275 151.074 464.759 150.69C464.243 150.306 463.463 150.114 462.419 150.114H461.411V148.854L464.579 144.966H458.513V143.4H466.829V144.624L463.535 148.692ZM474.159 156.144C473.163 156.144 472.275 155.892 471.495 155.388C470.727 154.872 470.121 154.128 469.677 153.156C469.233 152.184 469.011 151.032 469.011 149.7C469.011 148.368 469.233 147.216 469.677 146.244C470.121 145.272 470.727 144.534 471.495 144.03C472.275 143.514 473.163 143.256 474.159 143.256C475.143 143.256 476.019 143.514 476.787 144.03C477.567 144.534 478.179 145.272 478.623 146.244C479.067 147.216 479.289 148.368 479.289 149.7C479.289 151.032 479.067 152.184 478.623 153.156C478.179 154.128 477.567 154.872 476.787 155.388C476.019 155.892 475.143 156.144 474.159 156.144ZM474.159 154.542C475.167 154.542 475.971 154.128 476.571 153.3C477.183 152.472 477.489 151.272 477.489 149.7C477.489 148.128 477.183 146.928 476.571 146.1C475.971 145.272 475.167 144.858 474.159 144.858C473.139 144.858 472.323 145.272 471.711 146.1C471.111 146.928 470.811 148.128 470.811 149.7C470.811 151.272 471.111 152.472 471.711 153.3C472.323 154.128 473.139 154.542 474.159 154.542Z" fill="#369CB7"/>
<path d="M398 134H488V132H398V134ZM492 138V162H494V138H492ZM488 166H398V168H488V166ZM394 162V138H392V162H394ZM398 166C395.791 166 394 164.209 394 162H392C392 165.314 394.686 168 398 168V166ZM492 162C492 164.209 490.209 166 488 166V168C491.314 168 494 165.314 494 162H492ZM488 134C490.209 134 492 135.791 492 138H494C494 134.686 491.314 132 488 132V134ZM398 132C394.686 132 392 134.686 392 138H394C394 135.791 395.791 134 398 134V132Z" fill="#369CB7"/>
<defs>
<radialGradient id="paint0_radial_27_14" cx="0" cy="0" r="1" gradientUnits="userSpaceOnUse" gradientTransform="translate(52.8292 52.8554) scale(2.23489)">
<stop/>
<stop offset="0.3022" stop-color="#050505"/>
<stop offset="0.6568" stop-color="#131312"/>
<stop offset="1" stop-color="#282826"/>
</radialGradient>
<radialGradient id="paint1_radial_27_14" cx="0" cy="0" r="1" gradientUnits="userSpaceOnUse" gradientTransform="translate(182.829 52.8554) scale(2.23489)">
<stop/>
<stop offset="0.3022" stop-color="#050505"/>
<stop offset="0.6568" stop-color="#131312"/>
<stop offset="1" stop-color="#282826"/>
</radialGradient>
<radialGradient id="paint2_radial_27_14" cx="0" cy="0" r="1" gradientUnits="userSpaceOnUse" gradientTransform="translate(312.829 52.8554) scale(2.23489)">
<stop/>
<stop offset="0.3022" stop-color="#050505"/>
<stop offset="0.6568" stop-color="#131312"/>
<stop offset="1" stop-color="#282826"/>
</radialGradient>
<radialGradient id="paint3_radial_27_14" cx="0" cy="0" r="1" gradientUnits="userSpaceOnUse" gradientTransform="translate(442.829 52.8554) scale(2.23489)">
<stop/>
<stop offset="0.3022" stop-color="#050505"/>
<stop offset="0.6568" stop-color="#131312"/>
<stop offset="1" stop-color="#282826"/>
</radialGradient>
</defs>
</svg>
