<svg width="294" height="30" viewBox="0 0 294 30" fill="none" xmlns="http://www.w3.org/2000/svg">
<path d="M6.02394 13.692C7.25994 13.812 8.20194 14.196 8.84994 14.844C9.49794 15.48 9.82194 16.296 9.82194 17.292C9.82194 18.012 9.64194 18.666 9.28194 19.254C8.92194 19.83 8.38194 20.292 7.66194 20.64C6.95394 20.976 6.08394 21.144 5.05194 21.144C4.15194 21.144 3.28794 21.012 2.45994 20.748C1.63194 20.472 0.953938 20.094 0.425938 19.614L1.25394 18.192C1.68594 18.6 2.23794 18.93 2.90994 19.182C3.58194 19.422 4.29594 19.542 5.05194 19.542C5.98794 19.542 6.71394 19.344 7.22994 18.948C7.75794 18.552 8.02194 18.006 8.02194 17.31C8.02194 16.614 7.76394 16.074 7.24794 15.69C6.73194 15.306 5.95194 15.114 4.90794 15.114H3.89994V13.854L7.06794 9.966H1.00194V8.4H9.31794V9.624L6.02394 13.692ZM20.2688 19.434V21H11.2148V19.776L16.3448 14.826C16.9688 14.226 17.3888 13.71 17.6048 13.278C17.8208 12.834 17.9288 12.39 17.9288 11.946C17.9288 11.286 17.6948 10.776 17.2268 10.416C16.7708 10.044 16.1108 9.858 15.2468 9.858C13.8548 9.858 12.7808 10.314 12.0248 11.226L10.8008 10.164C11.2928 9.564 11.9348 9.096 12.7268 8.76C13.5308 8.424 14.4248 8.256 15.4088 8.256C16.7288 8.256 17.7788 8.574 18.5588 9.21C19.3388 9.834 19.7288 10.686 19.7288 11.766C19.7288 12.438 19.5848 13.074 19.2968 13.674C19.0088 14.274 18.4628 14.958 17.6588 15.726L13.8068 19.434H20.2688ZM34.9888 15.42H31.7128V18.642H30.2008V15.42H26.9248V13.998H30.2008V10.758H31.7128V13.998H34.9888V15.42ZM52.8553 17.904H50.4613V21H48.7153V17.904H41.7133V16.644L48.1573 8.4H50.1013L43.9273 16.356H48.7693V13.62H50.4613V16.356H52.8553V17.904ZM57.4816 13.422C59.2816 13.422 60.6016 13.764 61.4416 14.448C62.2936 15.12 62.7196 16.044 62.7196 17.22C62.7196 17.964 62.5396 18.636 62.1796 19.236C61.8316 19.824 61.2976 20.292 60.5776 20.64C59.8696 20.976 58.9936 21.144 57.9496 21.144C57.0616 21.144 56.2036 21.012 55.3756 20.748C54.5476 20.472 53.8636 20.094 53.3236 19.614L54.1516 18.192C54.5836 18.6 55.1356 18.93 55.8076 19.182C56.4796 19.422 57.1876 19.542 57.9316 19.542C58.8796 19.542 59.6116 19.344 60.1276 18.948C60.6556 18.54 60.9196 17.988 60.9196 17.292C60.9196 16.536 60.6316 15.966 60.0556 15.582C59.4796 15.186 58.4956 14.988 57.1036 14.988H54.2416L54.9076 8.4H62.0176V9.966H56.4196L56.0776 13.422H57.4816ZM69.3935 11.856H77.4575V13.278H69.3935V11.856ZM69.3935 16.122H77.4575V17.544H69.3935V16.122Z" fill="#2F2F2F"/>
<path d="M108.286 8.4V9.624L103.192 21H101.284L106.27 9.966H100.51V12.216H98.7822V8.4H108.286ZM119.044 8.4V9.624L113.95 21H112.042L117.028 9.966H111.268V12.216H109.54V8.4H119.044Z" fill="#2F2F2F"/>
<path d="M89 1H129V-1H89V1ZM133 5V25H135V5H133ZM129 29H89V31H129V29ZM85 25V5H83V25H85ZM89 29C86.7909 29 85 27.2091 85 25H83C83 28.3137 85.6863 31 89 31V29ZM133 25C133 27.2091 131.209 29 129 29V31C132.314 31 135 28.3137 135 25H133ZM129 1C131.209 1 133 2.79086 133 5H135C135 1.68629 132.314 -1 129 -1V1ZM89 -1C85.6863 -1 83 1.68629 83 5H85C85 2.79086 86.7909 1 89 1V-1Z" fill="#2F2F2F"/>
<path d="M175.955 17.904H173.561V21H171.815V17.904H164.813V16.644L171.257 8.4H173.201L167.027 16.356H171.869V13.62H173.561V16.356H175.955V17.904ZM180.581 13.422C182.381 13.422 183.701 13.764 184.541 14.448C185.393 15.12 185.819 16.044 185.819 17.22C185.819 17.964 185.639 18.636 185.279 19.236C184.931 19.824 184.397 20.292 183.677 20.64C182.969 20.976 182.093 21.144 181.049 21.144C180.161 21.144 179.303 21.012 178.475 20.748C177.647 20.472 176.963 20.094 176.423 19.614L177.251 18.192C177.683 18.6 178.235 18.93 178.907 19.182C179.579 19.422 180.287 19.542 181.031 19.542C181.979 19.542 182.711 19.344 183.227 18.948C183.755 18.54 184.019 17.988 184.019 17.292C184.019 16.536 183.731 15.966 183.155 15.582C182.579 15.186 181.595 14.988 180.203 14.988H177.341L178.007 8.4H185.117V9.966H179.519L179.177 13.422H180.581ZM192.313 15.312H197.155V16.806H192.313V15.312ZM208.7 13.692C209.936 13.812 210.878 14.196 211.526 14.844C212.174 15.48 212.498 16.296 212.498 17.292C212.498 18.012 212.318 18.666 211.958 19.254C211.598 19.83 211.058 20.292 210.338 20.64C209.63 20.976 208.76 21.144 207.728 21.144C206.828 21.144 205.964 21.012 205.136 20.748C204.308 20.472 203.63 20.094 203.102 19.614L203.93 18.192C204.362 18.6 204.914 18.93 205.586 19.182C206.258 19.422 206.972 19.542 207.728 19.542C208.664 19.542 209.39 19.344 209.906 18.948C210.434 18.552 210.698 18.006 210.698 17.31C210.698 16.614 210.44 16.074 209.924 15.69C209.408 15.306 208.628 15.114 207.584 15.114H206.576V13.854L209.744 9.966H203.678V8.4H211.994V9.624L208.7 13.692ZM222.945 19.434V21H213.891V19.776L219.021 14.826C219.645 14.226 220.065 13.71 220.281 13.278C220.497 12.834 220.605 12.39 220.605 11.946C220.605 11.286 220.371 10.776 219.903 10.416C219.447 10.044 218.787 9.858 217.923 9.858C216.531 9.858 215.457 10.314 214.701 11.226L213.477 10.164C213.969 9.564 214.611 9.096 215.403 8.76C216.207 8.424 217.101 8.256 218.085 8.256C219.405 8.256 220.455 8.574 221.235 9.21C222.015 9.834 222.405 10.686 222.405 11.766C222.405 12.438 222.261 13.074 221.973 13.674C221.685 14.274 221.139 14.958 220.335 15.726L216.483 19.434H222.945ZM229.601 11.856H237.665V13.278H229.601V11.856ZM229.601 16.122H237.665V17.544H229.601V16.122Z" fill="#2F2F2F"/>
<path d="M265.289 8.4V21H263.507V9.966H260.663V8.4H265.289ZM272.869 13.692C274.105 13.812 275.047 14.196 275.695 14.844C276.343 15.48 276.667 16.296 276.667 17.292C276.667 18.012 276.487 18.666 276.127 19.254C275.767 19.83 275.227 20.292 274.507 20.64C273.799 20.976 272.929 21.144 271.897 21.144C270.997 21.144 270.133 21.012 269.305 20.748C268.477 20.472 267.799 20.094 267.271 19.614L268.099 18.192C268.531 18.6 269.083 18.93 269.755 19.182C270.427 19.422 271.141 19.542 271.897 19.542C272.833 19.542 273.559 19.344 274.075 18.948C274.603 18.552 274.867 18.006 274.867 17.31C274.867 16.614 274.609 16.074 274.093 15.69C273.577 15.306 272.797 15.114 271.753 15.114H270.745V13.854L273.913 9.966H267.847V8.4H276.163V9.624L272.869 13.692Z" fill="#2F2F2F"/>
<path d="M249 1H289V-1H249V1ZM293 5V25H295V5H293ZM289 29H249V31H289V29ZM245 25V5H243V25H245ZM249 29C246.791 29 245 27.2091 245 25H243C243 28.3137 245.686 31 249 31V29ZM293 25C293 27.2091 291.209 29 289 29V31C292.314 31 295 28.3137 295 25H293ZM289 1C291.209 1 293 2.79086 293 5H295C295 1.68629 292.314 -1 289 -1V1ZM249 -1C245.686 -1 243 1.68629 243 5H245C245 2.79086 246.791 1 249 1V-1Z" fill="#2F2F2F"/>
</svg>
