<svg width="89" height="50" viewBox="0 0 89 50" fill="none" xmlns="http://www.w3.org/2000/svg">
<g clip-path="url(#clip0_17_393)">
<path d="M21.782 45.2656H5.76367V49.9864H21.782V45.2656Z" fill="#878787"/>
<path d="M82.9812 45.2656H66.9629V49.9864H82.9812V45.2656Z" fill="#878787"/>
<path d="M81.8478 47.2356H6.3875C2.86092 47.2356 0 44.2444 0 40.5444V6.69124C0 2.99121 2.86092 0 6.3875 0H81.8619C85.3744 0 88.2353 2.99121 88.2353 6.69124V40.5444C88.2353 44.2444 85.3744 47.2356 81.8478 47.2356Z" fill="#00C9DC"/>
<path d="M81.9752 8.46368V38.2482C81.9752 39.8076 80.7714 41.0693 79.2843 41.0693H9.9566C8.46948 41.0693 7.26562 39.8076 7.26562 38.2482V8.46368C7.26562 6.90427 8.46948 5.64258 9.9566 5.64258H79.2985C80.7715 5.64258 81.9752 6.90427 81.9752 8.46368Z" fill="#081D4F"/>
<path d="M79.2848 41.1387H9.9571C8.42749 41.1387 7.19531 39.8487 7.19531 38.2469V8.46229C7.19531 6.87454 8.44166 5.57031 9.9571 5.57031H79.299C80.8286 5.57031 82.0608 6.86036 82.0608 8.46229V38.2469C82.0466 39.8487 80.8144 41.1387 79.2848 41.1387ZM9.9571 5.71208C8.51247 5.71208 7.33695 6.94543 7.33695 8.46229V38.2469C7.33695 39.7637 8.51247 40.9971 9.9571 40.9971H79.299C80.7436 40.9971 81.9191 39.7637 81.9191 38.2469V8.46229C81.9191 6.94543 80.7436 5.71208 79.299 5.71208H9.9571Z" fill="#021438"/>
<g opacity="0.13">
<path opacity="0.3" d="M59.2862 5.64258L20.7062 41.0693H10.4239C8.86598 41.0693 7.60547 39.8076 7.60547 38.2482V30.1818C14.7719 23.0937 24.0204 13.9074 32.334 5.64258H59.2862Z" fill="white"/>
</g>
<g opacity="0.13">
<path opacity="0.3" d="M81.9747 8.46368V24.5254C77.74 28.7075 70.4602 35.2995 63.9311 41.0693H39.2734C47.1905 33.0455 64.271 15.7645 74.4683 5.64258H79.2838C80.7709 5.64258 81.9747 6.90427 81.9747 8.46368Z" fill="white"/>
</g>
<path d="M20.7867 32.8464L18.8172 30.9682V26.4823L20.7867 24.6952V32.8464ZM20.7319 15.9057V24.057L18.7625 22.2881V17.784L20.7319 15.9057ZM26.6367 33.6488L28.5149 31.6794H33.0191L34.7879 33.6488H26.6367ZM26.0896 24.6952L28.059 26.5917V31.0594L26.0896 32.8464V24.6952ZM28.2049 25.3517C27.7794 25.0113 27.3478 24.677 26.9102 24.3487L28.2049 23.3823H33.1832L34.4597 24.3487L33.1832 25.3517H28.2049ZM26.6184 15.1216H34.7697L32.9643 17.091H28.4967L26.6184 15.1216ZM35.3167 15.9057V24.057L33.3473 22.2881V17.784L35.3167 15.9057ZM44.1391 24.5128H46.4368V26.7923H44.1391V24.5128ZM44.1391 19.0969H46.4368V21.4311H44.1391V19.0969Z" fill="white"/>
<path d="M61.7929 32.8464L59.8235 30.9682V26.4823L61.7929 24.6952V32.8464ZM61.7382 15.9057V24.057L59.7688 22.2881V17.784L61.7382 15.9057ZM67.6429 33.6488L69.5211 31.6794H74.0253L75.7941 33.6488H67.6429ZM67.0958 24.6952L69.0653 26.5917V31.0594L67.0958 32.8464V24.6952ZM76.3777 32.8464L74.4082 30.9682V26.4823L76.3777 24.6952V32.8464ZM67.6247 15.1216H75.7759L73.9706 17.091H69.5029L67.6247 15.1216ZM67.0411 24.057V15.9057L69.0106 17.6746V22.197L67.0411 24.057ZM76.323 15.9057V24.057L74.3535 22.2881V17.784L76.323 15.9057Z" fill="white"/>
</g>
<defs>
<clipPath id="clip0_17_393">
<rect width="88.2353" height="50" fill="white"/>
</clipPath>
</defs>
</svg>
