<svg width="124" height="124" viewBox="0 0 124 124" fill="none" xmlns="http://www.w3.org/2000/svg">
<path d="M61.999 19.293H61.6035V23.9196H61.999V19.293Z" fill="black"/>
<path d="M61.999 99.7646H61.6035V104.391H61.999V99.7646Z" fill="black"/>
<path d="M42.6634 29.103L43.0059 28.9053L40.6925 24.8986L40.3501 25.0963L42.6634 29.103Z" fill="black"/>
<path d="M82.8958 98.7553L83.2383 98.5576L80.925 94.5509L80.5825 94.7487L82.8958 98.7553Z" fill="black"/>
<path d="M28.8472 43.0514L29.0449 42.709L25.0382 40.3956L24.8405 40.7381L28.8472 43.0514Z" fill="black"/>
<path d="M98.5581 83.2858L98.7559 82.9434L94.7492 80.63L94.5514 80.9725L98.5581 83.2858Z" fill="black"/>
<path d="M23.8786 61.6436H19.252V62.039H23.8786V61.6436Z" fill="black"/>
<path d="M104.351 61.6445H99.7246V62.04H104.351V61.6445Z" fill="black"/>
<path d="M29.061 80.9645L28.8633 80.6221L24.8566 82.9354L25.0543 83.2779L29.061 80.9645Z" fill="black"/>
<path d="M98.7387 40.7526L98.541 40.4102L94.5343 42.7235L94.732 43.0659L98.7387 40.7526Z" fill="black"/>
<path d="M43.0007 94.7846L42.6582 94.5869L40.3449 98.5936L40.6873 98.7913L43.0007 94.7846Z" fill="black"/>
<path d="M83.2526 25.0835L82.9102 24.8857L80.5968 28.8924L80.9393 29.0902L83.2526 25.0835Z" fill="black"/>
<path d="M57.4487 15.9344V15.0644H58.5955V10.7146C58.1605 10.9123 57.7651 11.0705 57.3301 11.2286V10.1609C57.7651 10.0423 58.2396 9.80504 58.7141 9.52823H59.7027V15.0644H60.8495V15.9344H57.4487Z" fill="black"/>
<path d="M64.3673 9.44677C64.9605 9.44677 65.435 9.64449 65.7909 10.0004C66.1468 10.3563 66.305 10.8704 66.305 11.5426C66.305 11.7008 66.305 11.8194 66.2655 11.9381C66.2259 12.0567 66.2259 12.1753 66.1864 12.294C66.1468 12.4126 66.1073 12.4917 66.0282 12.6103C65.9491 12.7289 65.9096 12.808 65.87 12.8871C65.8305 12.9662 65.7514 13.0453 65.6723 13.1639C65.5932 13.2826 65.5141 13.3616 65.4746 13.4012C65.435 13.4407 65.356 13.5198 65.2373 13.6385L63.9719 14.983H66.305V15.8925H62.5879V15.1016L64.4464 13.0453C64.6046 12.8871 64.6837 12.7685 64.7628 12.6894C64.8023 12.6103 64.8814 12.5312 65.0001 12.4126C65.0791 12.294 65.1582 12.1753 65.1978 12.1358C65.2373 12.0567 65.2769 11.9776 65.2769 11.859C65.3164 11.7403 65.3164 11.6612 65.3164 11.5426C65.3164 11.4635 65.3164 11.3449 65.2769 11.1867C65.2373 11.0285 65.1978 10.8704 65.1582 10.7913C65.0791 10.6726 65.0396 10.5936 64.921 10.5145C64.8419 10.4354 64.7232 10.3958 64.6442 10.3958C64.5651 10.3563 64.4464 10.3563 64.3278 10.3563C64.2487 10.3563 64.1696 10.3563 64.0905 10.3958C64.0115 10.3958 63.9324 10.4354 63.8533 10.4354C63.7742 10.4749 63.6951 10.4749 63.616 10.5145C63.5369 10.554 63.4578 10.554 63.3787 10.5936C63.2997 10.6331 63.2601 10.6726 63.181 10.6726C63.1019 10.7122 63.0624 10.7517 63.0228 10.7517C62.9833 10.7913 62.9438 10.7913 62.9042 10.8308C62.8647 10.8704 62.8251 10.8704 62.8251 10.8704H62.7856L62.4297 10.0004C62.4692 10.0004 62.4692 9.96085 62.5088 9.9213C62.5483 9.88176 62.6274 9.84221 62.7856 9.76312C62.9438 9.68404 63.0624 9.64449 63.2206 9.5654C63.3787 9.52586 63.5765 9.44677 63.7742 9.40723C63.9324 9.44677 64.1301 9.44677 64.3673 9.44677Z" fill="black"/>
<path d="M61.5616 114.556C61.0476 114.556 60.6126 114.437 60.2567 114.16C59.9008 113.883 59.624 113.527 59.4658 113.053C59.3076 112.578 59.2285 112.025 59.2285 111.392C59.2285 110.917 59.2681 110.482 59.3867 110.048C59.5053 109.652 59.6635 109.257 59.8612 108.94C60.0589 108.624 60.3358 108.387 60.6917 108.189C61.008 107.991 61.4035 107.912 61.7989 107.912C62.4712 107.912 63.0248 108.11 63.4202 108.466L63.0643 109.296C62.6689 108.98 62.2734 108.861 61.7989 108.861C61.4035 108.861 61.0871 109.059 60.8103 109.415C60.5335 109.81 60.4149 110.285 60.3753 110.838C60.6917 110.403 61.1266 110.166 61.6407 110.166C62.2734 110.166 62.7875 110.364 63.1434 110.759C63.4993 111.155 63.697 111.669 63.697 112.302C63.697 112.934 63.4993 113.448 63.1039 113.883C62.7084 114.358 62.1943 114.556 61.5616 114.556ZM61.5221 113.606C61.8384 113.606 62.0757 113.488 62.2734 113.251C62.4712 113.013 62.5502 112.737 62.5502 112.381C62.5502 112.025 62.4712 111.708 62.2734 111.511C62.1153 111.273 61.8384 111.155 61.5221 111.155C61.1662 111.155 60.8894 111.273 60.6917 111.511C60.4939 111.748 60.3753 112.025 60.3753 112.42C60.3753 112.618 60.4148 112.776 60.4544 112.934C60.5335 113.092 60.6126 113.211 60.6917 113.33C60.8103 113.448 60.9289 113.488 61.0476 113.567C61.2453 113.567 61.4035 113.606 61.5221 113.606Z" fill="black"/>
<path d="M13.3581 64.9271C12.8835 64.9271 12.3299 64.769 11.6972 64.4921L12.0927 63.5826C12.4881 63.8199 12.844 63.9781 13.2394 63.9781C13.4372 63.9781 13.6349 63.9385 13.7931 63.8594C13.9512 63.7803 14.1094 63.6617 14.2676 63.5431C14.3862 63.3849 14.5049 63.1872 14.5839 62.9499C14.663 62.7127 14.7026 62.3963 14.7026 62.0799V61.9613C14.4258 62.3568 13.9908 62.5545 13.4372 62.5545C12.8045 62.5545 12.3299 62.3568 11.9345 61.9613C11.5786 61.5659 11.3809 61.0913 11.3809 60.4586C11.3809 59.8259 11.5786 59.3118 11.974 58.9164C12.3695 58.521 12.9231 58.3232 13.5558 58.3232C14.2676 58.3232 14.8212 58.6001 15.2166 59.1141C15.6121 59.6282 15.8098 60.4191 15.8098 61.4472C15.8098 62.1195 15.7307 62.7522 15.533 63.2663C15.3353 63.7803 15.0585 64.2153 14.7026 64.4921C14.3071 64.8085 13.8721 64.9271 13.3581 64.9271ZM13.5162 61.645C13.8721 61.645 14.149 61.5263 14.3467 61.3286C14.5444 61.1309 14.663 60.8145 14.663 60.3795C14.663 60.0632 14.5839 59.8259 14.3862 59.5887C14.1885 59.3909 13.9512 59.2723 13.5953 59.2723C13.2394 59.2723 13.0022 59.3909 12.7649 59.5887C12.5672 59.8259 12.4486 60.1027 12.4486 60.4586C12.4486 60.8145 12.5276 61.0913 12.7254 61.2891C12.9231 61.5263 13.1999 61.645 13.5162 61.645Z" fill="black"/>
<path d="M110.517 64.9667C110.279 64.9667 110.042 64.9667 109.805 64.9272C109.568 64.8876 109.41 64.8481 109.251 64.8085C109.093 64.769 108.975 64.6899 108.856 64.6503C108.737 64.6108 108.658 64.5317 108.619 64.5317L108.54 64.4922L108.895 63.6617C108.935 63.7013 109.014 63.7408 109.133 63.7804C109.251 63.8199 109.41 63.899 109.686 63.9781C109.924 64.0572 110.161 64.0967 110.398 64.0967C110.794 64.0967 111.11 64.0176 111.308 63.8199C111.505 63.6222 111.624 63.3849 111.624 63.0686C111.624 62.7522 111.466 62.4754 111.189 62.3172C110.912 62.1591 110.517 62.08 110.003 62.08H109.845H109.568V61.1309H109.884C110.438 61.1309 110.833 61.0518 111.07 60.8936C111.308 60.7355 111.426 60.4982 111.426 60.1027C111.426 59.8655 111.308 59.6678 111.11 59.5491C110.873 59.4305 110.635 59.3514 110.359 59.3514C110.24 59.3514 110.082 59.3514 109.963 59.391C109.845 59.4305 109.726 59.4305 109.607 59.47C109.489 59.5096 109.41 59.5491 109.37 59.5887C109.291 59.6282 109.251 59.6678 109.172 59.7073C109.093 59.7468 109.054 59.7864 109.014 59.7864L108.5 58.9955C108.856 58.7582 109.133 58.6001 109.41 58.521C109.686 58.4419 110.042 58.4023 110.477 58.4023C110.754 58.4023 110.991 58.4419 111.229 58.521C111.466 58.6001 111.703 58.6792 111.901 58.8373C112.099 58.956 112.257 59.1537 112.375 59.3514C112.494 59.5491 112.534 59.8259 112.534 60.1027C112.534 60.34 112.494 60.5377 112.415 60.7355C112.336 60.9332 112.217 61.1309 112.019 61.2891C111.822 61.4473 111.624 61.5659 111.347 61.6054C111.782 61.6845 112.099 61.8427 112.336 62.1591C112.573 62.4359 112.692 62.7918 112.692 63.1477C112.692 63.4245 112.652 63.7013 112.534 63.9385C112.415 64.1758 112.257 64.3735 112.059 64.5317C111.861 64.6899 111.624 64.8085 111.387 64.8876C111.07 64.9272 110.794 64.9667 110.517 64.9667Z" fill="black"/>
<path d="M85.3686 23.5639V22.6939H86.5154V18.344C86.0804 18.5418 85.685 18.6999 85.25 18.8581V17.83C85.685 17.7113 86.1595 17.4741 86.634 17.1973H87.6226V22.7335H88.7694V23.6034H85.3686V23.5639V23.5639Z" fill="black"/>
<path d="M102.57 32.3423C103.164 32.3423 103.638 32.54 103.994 32.8959C104.35 33.2518 104.508 33.7659 104.508 34.4381C104.508 34.5963 104.508 34.7149 104.469 34.8336C104.429 34.9522 104.429 35.0708 104.39 35.1895C104.35 35.3081 104.31 35.3872 104.231 35.5058C104.152 35.6244 104.113 35.7035 104.073 35.7826C104.034 35.8617 103.955 35.9408 103.875 36.0594C103.796 36.1781 103.717 36.2572 103.678 36.2967C103.638 36.3362 103.559 36.4153 103.44 36.534L102.175 37.8785H104.508V38.788H100.791V37.9971L102.65 35.9408C102.808 35.7826 102.887 35.664 102.966 35.5849C103.005 35.5058 103.085 35.4267 103.203 35.3081C103.282 35.1895 103.361 35.0708 103.401 35.0313C103.44 34.9522 103.48 34.8731 103.48 34.7545C103.52 34.6358 103.52 34.5568 103.52 34.4381C103.52 34.359 103.52 34.2404 103.48 34.0822C103.44 33.924 103.401 33.7659 103.361 33.6868C103.282 33.5681 103.243 33.4891 103.124 33.41C103.045 33.3309 102.926 33.2913 102.847 33.2913C102.768 33.2518 102.65 33.2518 102.531 33.2518C102.452 33.2518 102.373 33.2518 102.294 33.2913C102.215 33.2913 102.135 33.3309 102.056 33.3309C101.977 33.3704 101.898 33.3704 101.819 33.41C101.74 33.4495 101.661 33.4495 101.582 33.4891C101.503 33.5286 101.463 33.5681 101.384 33.5681C101.305 33.6077 101.266 33.6472 101.226 33.6472C101.186 33.6868 101.147 33.6868 101.107 33.7263C101.068 33.7659 101.028 33.7659 101.028 33.7659H100.989L100.633 32.8959C100.672 32.8959 100.672 32.8564 100.712 32.8168C100.751 32.7773 100.831 32.7377 100.989 32.6586C101.147 32.5795 101.266 32.54 101.424 32.4609C101.582 32.4214 101.78 32.3423 101.977 32.3027C102.135 32.3818 102.333 32.3423 102.57 32.3423Z" fill="black"/>
<path d="M103.441 91.185V89.5241H100.752V88.6937L103.322 84.8184H104.588V88.6542H105.576V89.5241H104.588V91.185H103.441ZM101.938 88.6146H103.441V86.2024C103.362 86.321 102.887 87.1119 101.938 88.6146Z" fill="black"/>
<path d="M86.9894 106.725C86.6335 106.725 86.2776 106.646 85.9217 106.488C85.5658 106.33 85.2495 106.132 84.9727 105.855L85.5658 105.025C85.7635 105.262 86.0008 105.46 86.2381 105.578C86.4753 105.697 86.7521 105.776 86.9894 105.776C87.3058 105.776 87.5826 105.657 87.8198 105.46C88.0571 105.262 88.1757 104.946 88.1757 104.55C88.1757 104.234 88.0966 103.957 87.9385 103.759C87.7803 103.522 87.5826 103.443 87.3058 103.443C86.9499 103.443 86.7126 103.522 86.5544 103.72L85.4472 103.561V100.279H89.0062V101.228H86.4358L86.3962 102.85C86.594 102.573 86.9894 102.454 87.543 102.454C88.0176 102.454 88.4525 102.652 88.8084 103.087C89.1643 103.482 89.3225 103.996 89.3225 104.629C89.3225 104.906 89.283 105.183 89.2039 105.42C89.1248 105.657 89.0062 105.855 88.848 106.013C88.6898 106.171 88.5316 106.33 88.3339 106.448C88.1362 106.567 87.9385 106.646 87.7012 106.725C87.4639 106.685 87.2267 106.725 86.9894 106.725Z" fill="black"/>
<path d="M34.3568 106.607L36.769 101.15H33.6055V100.24H38.0344V101.11L35.5036 106.646H34.3568V106.607V106.607Z" fill="black"/>
<path d="M20.8722 91.3827C20.4372 91.3827 20.0813 91.3036 19.765 91.185C19.4486 91.0268 19.1718 90.8291 18.9741 90.5523C18.7764 90.2755 18.6973 89.9591 18.6973 89.5637C18.6973 89.2078 18.7764 88.8914 18.9741 88.6146C19.1718 88.3378 19.4486 88.1005 19.765 87.9424C19.1323 87.5865 18.8159 87.0724 18.8159 86.4792C18.8159 85.9651 19.0136 85.5302 19.3695 85.2533C19.765 84.937 20.2395 84.8184 20.8327 84.8184C21.4654 84.8184 21.9794 84.9765 22.3353 85.2929C22.6912 85.6092 22.889 86.0442 22.889 86.5583C22.889 87.191 22.5726 87.7051 21.9399 87.9819C22.2562 88.1401 22.4935 88.3773 22.6912 88.6542C22.889 88.9705 23.0076 89.2869 23.0076 89.6032C23.0076 89.9591 22.889 90.315 22.6912 90.5918C22.4935 90.8686 22.2167 91.0664 21.9003 91.2245C21.6235 91.3432 21.2676 91.3827 20.8722 91.3827ZM20.8722 90.4336C21.1886 90.4336 21.4654 90.3546 21.6235 90.1964C21.8213 90.0382 21.9003 89.8009 21.9003 89.4846C21.9003 89.2473 21.8213 89.01 21.6235 88.7728C21.4258 88.5355 21.1886 88.4169 20.9117 88.3378C20.5954 88.4169 20.3581 88.5355 20.1604 88.7728C19.9627 88.9705 19.844 89.2473 19.844 89.5241C19.844 89.8009 19.9231 90.0382 20.1209 90.1964C20.279 90.3546 20.5558 90.4336 20.8722 90.4336ZM20.8722 87.5469C21.149 87.4678 21.3863 87.3492 21.5445 87.1515C21.7026 86.9933 21.7817 86.756 21.7817 86.5188C21.7817 86.2815 21.7026 86.1233 21.5049 86.0047C21.3467 85.8861 21.1095 85.807 20.8327 85.807C20.5558 85.807 20.3186 85.8861 20.1604 86.0047C20.0022 86.1233 19.9231 86.321 19.9231 86.5978C19.9231 86.8351 20.0022 87.0328 20.1604 87.2306C20.3581 87.3096 20.5558 87.4678 20.8722 87.5469Z" fill="black"/>
<path d="M14.8608 39.1449V38.275H16.0076V33.9251C15.5726 34.1228 15.1772 34.281 14.7422 34.4392V33.411C15.1772 33.2924 15.6517 33.0551 16.1262 32.7783H17.1148V38.3145H18.2616V39.1845H14.8608V39.1449V39.1449Z" fill="black"/>
<path d="M21.9786 39.2635C21.2668 39.2635 20.7132 38.9472 20.3178 38.354C19.9223 37.7609 19.7246 36.9304 19.7246 35.9023C19.7246 34.8741 19.9223 34.0833 20.3178 33.4901C20.7132 32.9365 21.2668 32.6201 21.9786 32.6201C22.6904 32.6201 23.244 32.8969 23.6395 33.4901C24.0349 34.0833 24.2327 34.8741 24.2327 35.8627C24.2327 36.535 24.1536 37.1282 23.9954 37.6027C23.8372 38.1168 23.5604 38.4727 23.244 38.789C22.8486 39.1054 22.4532 39.2635 21.9786 39.2635ZM21.9786 38.2749C22.6904 38.2749 23.0859 37.4841 23.0859 35.8627C23.0859 35.5464 23.0859 35.2696 23.0463 34.9928C23.0068 34.716 22.9672 34.4787 22.8882 34.281C22.8091 34.0437 22.6904 33.8855 22.5323 33.7669C22.3741 33.6483 22.2159 33.5692 22.0182 33.5692C21.8205 33.5692 21.6227 33.6483 21.4646 33.7669C21.3064 33.8855 21.1877 34.0833 21.1087 34.281C21.0296 34.5182 20.9505 34.7555 20.9109 34.9928C20.8714 35.2696 20.8714 35.5464 20.8714 35.8627C20.8714 36.2186 20.8714 36.535 20.9109 36.8118C20.9505 37.0886 20.99 37.3259 21.1087 37.5631C21.1877 37.8004 21.3064 37.9586 21.4646 38.0772C21.5832 38.2354 21.7809 38.2749 21.9786 38.2749Z" fill="black"/>
<path d="M32.5386 23.0498V22.1798H33.6853V17.8299C33.2504 18.0277 32.8549 18.1858 32.4199 18.344V17.2763C32.8549 17.1577 33.3294 16.9204 33.804 16.6436H34.7926V22.1798H35.9394V23.0498H32.5386V23.0498Z" fill="black"/>
<path d="M38.1538 23.0497V22.1797H39.3006V17.8299C38.8656 18.0276 38.4701 18.1858 38.0352 18.344V17.2763C38.4701 17.1576 38.9447 16.9204 39.4192 16.6436H40.4078V22.1797H41.5546V23.0497H38.1538V23.0497Z" fill="black"/>
<path d="M61.7979 64.4923C63.2612 64.4923 64.4474 63.3061 64.4474 61.8428C64.4474 60.3796 63.2612 59.1934 61.7979 59.1934C60.3346 59.1934 59.1484 60.3796 59.1484 61.8428C59.1484 63.3061 60.3346 64.4923 61.7979 64.4923Z" fill="url(#paint0_radial_17_280)"/>
<path d="M63.8697 67.4722C63.3072 67.7618 62.6319 67.4869 62.3241 66.8892L49 41.0137L50.9688 39.9999L64.2929 65.8754C64.6006 66.4731 64.4322 67.1825 63.8697 67.4722Z" fill="black"/>
<path d="M60.7494 26.2593L60.4594 26.2727L60.4682 26.5629L61.7448 68.9057C61.7448 68.9066 61.7449 68.9075 61.7449 68.9085C61.7538 69.4389 62.2338 69.7238 62.6592 69.718C63.1213 69.7117 63.5476 69.3425 63.5407 68.8419L63.5408 68.8419L63.5406 68.837L62.2638 26.4894L62.2548 26.1897L61.9553 26.2036L60.7494 26.2593Z" fill="#0E80A4" stroke="#0E80A4" stroke-width="0.59"/>
<path d="M61.8 63.7015C62.8265 63.7015 63.6586 62.8694 63.6586 61.843C63.6586 60.8165 62.8265 59.9844 61.8 59.9844C60.7735 59.9844 59.9414 60.8165 59.9414 61.843C59.9414 62.8694 60.7735 63.7015 61.8 63.7015Z" fill="#0E80A4"/>
<path d="M62 121C94.5848 121 121 94.5848 121 62C121 29.4152 94.5848 3 62 3C29.4152 3 3 29.4152 3 62C3 94.5848 29.4152 121 62 121Z" stroke="#0E80A4" stroke-width="5.9" stroke-miterlimit="10"/>
<defs>
<radialGradient id="paint0_radial_17_280" cx="0" cy="0" r="1" gradientUnits="userSpaceOnUse" gradientTransform="translate(61.7979 61.8304) scale(2.63716)">
<stop/>
<stop offset="0.3022" stop-color="#050505"/>
<stop offset="0.6568" stop-color="#131312"/>
<stop offset="1" stop-color="#282826"/>
</radialGradient>
</defs>
</svg>
