<svg width="475" height="45" viewBox="0 0 475 45" fill="none" xmlns="http://www.w3.org/2000/svg">
<path d="M0.5 5C0.5 2.23858 2.73858 0 5.5 0H65.5C68.2614 0 70.5 2.23858 70.5 5V40C70.5 42.7614 68.2614 45 65.5 45H5.5C2.73858 45 0.5 42.7614 0.5 40V5Z" fill="#369CB7"/>
<path d="M21.3911 15.9V28.5H19.6091V17.466H16.7651V15.9H21.3911ZM29.5832 20.85C30.4112 20.85 31.1492 21.006 31.7972 21.318C32.4572 21.63 32.9732 22.08 33.3452 22.668C33.7172 23.244 33.9032 23.91 33.9032 24.666C33.9032 25.458 33.7052 26.154 33.3092 26.754C32.9252 27.354 32.3912 27.822 31.7072 28.158C31.0352 28.482 30.2792 28.644 29.4392 28.644C27.7472 28.644 26.4392 28.098 25.5152 27.006C24.6032 25.914 24.1472 24.366 24.1472 22.362C24.1472 20.958 24.3932 19.764 24.8852 18.78C25.3892 17.784 26.0852 17.034 26.9732 16.53C27.8732 16.014 28.9172 15.756 30.1052 15.756C30.7172 15.756 31.2932 15.822 31.8332 15.954C32.3732 16.074 32.8412 16.254 33.2372 16.494L32.5532 17.898C31.9532 17.502 31.1492 17.304 30.1412 17.304C28.8332 17.304 27.8072 17.712 27.0632 18.528C26.3192 19.332 25.9472 20.508 25.9472 22.056C25.9472 22.248 25.9532 22.398 25.9652 22.506C26.3252 21.966 26.8172 21.558 27.4412 21.282C28.0772 20.994 28.7912 20.85 29.5832 20.85ZM29.3672 27.186C30.1952 27.186 30.8672 26.964 31.3832 26.52C31.8992 26.076 32.1572 25.482 32.1572 24.738C32.1572 23.994 31.8932 23.406 31.3652 22.974C30.8492 22.53 30.1532 22.308 29.2772 22.308C28.7132 22.308 28.2092 22.416 27.7652 22.632C27.3332 22.848 26.9912 23.142 26.7392 23.514C26.4992 23.886 26.3792 24.3 26.3792 24.756C26.3792 25.2 26.4932 25.608 26.7212 25.98C26.9612 26.34 27.3032 26.634 27.7472 26.862C28.2032 27.078 28.7432 27.186 29.3672 27.186ZM35.5065 22.812H40.3485V24.306H35.5065V22.812ZM45.8247 15.9V28.5H44.0427V17.466H41.1987V15.9H45.8247ZM52.4868 15.9V28.5H50.7048V17.466H47.8608V15.9H52.4868Z" fill="white"/>
<path d="M5.5 1H65.5V-1H5.5V1ZM69.5 5V40H71.5V5H69.5ZM65.5 44H5.5V46H65.5V44ZM1.5 40V5H-0.5V40H1.5ZM5.5 44C3.29086 44 1.5 42.2091 1.5 40H-0.5C-0.5 43.3137 2.18629 46 5.5 46V44ZM69.5 40C69.5 42.2091 67.7091 44 65.5 44V46C68.8137 46 71.5 43.3137 71.5 40H69.5ZM65.5 1C67.7091 1 69.5 2.79086 69.5 5H71.5C71.5 1.68629 68.8137 -1 65.5 -1V1ZM5.5 -1C2.18629 -1 -0.5 1.68629 -0.5 5H1.5C1.5 2.79086 3.29086 1 5.5 1V-1Z" fill="#369CB7"/>
<path d="M122.744 15.9V28.5H120.962V17.466H118.118V15.9H122.744ZM129.1 20.922C130.9 20.922 132.22 21.264 133.06 21.948C133.912 22.62 134.338 23.544 134.338 24.72C134.338 25.464 134.158 26.136 133.798 26.736C133.45 27.324 132.916 27.792 132.196 28.14C131.488 28.476 130.612 28.644 129.568 28.644C128.68 28.644 127.822 28.512 126.994 28.248C126.166 27.972 125.482 27.594 124.942 27.114L125.77 25.692C126.202 26.1 126.754 26.43 127.426 26.682C128.098 26.922 128.806 27.042 129.55 27.042C130.498 27.042 131.23 26.844 131.746 26.448C132.274 26.04 132.538 25.488 132.538 24.792C132.538 24.036 132.25 23.466 131.674 23.082C131.098 22.686 130.114 22.488 128.722 22.488H125.86L126.526 15.9H133.636V17.466H128.038L127.696 20.922H129.1ZM135.998 22.812H140.84V24.306H135.998V22.812ZM153.811 25.404H151.417V28.5H149.671V25.404H142.669V24.144L149.113 15.9H151.057L144.883 23.856H149.725V21.12H151.417V23.856H153.811V25.404Z" fill="#2F2F2F"/>
<path d="M105.5 1H166.5V-1H105.5V1ZM170.5 5V40H172.5V5H170.5ZM166.5 44H105.5V46H166.5V44ZM101.5 40V5H99.5V40H101.5ZM105.5 44C103.291 44 101.5 42.2091 101.5 40H99.5C99.5 43.3137 102.186 46 105.5 46V44ZM170.5 40C170.5 42.2091 168.709 44 166.5 44V46C169.814 46 172.5 43.3137 172.5 40H170.5ZM166.5 1C168.709 1 170.5 2.79086 170.5 5H172.5C172.5 1.68629 169.814 -1 166.5 -1V1ZM105.5 -1C102.186 -1 99.5 1.68629 99.5 5H101.5C101.5 2.79086 103.291 1 105.5 1V-1Z" fill="#2F2F2F"/>
<path d="M227.008 21.192C228.244 21.312 229.186 21.696 229.834 22.344C230.482 22.98 230.806 23.796 230.806 24.792C230.806 25.512 230.626 26.166 230.266 26.754C229.906 27.33 229.366 27.792 228.646 28.14C227.938 28.476 227.068 28.644 226.036 28.644C225.136 28.644 224.272 28.512 223.444 28.248C222.616 27.972 221.938 27.594 221.41 27.114L222.238 25.692C222.67 26.1 223.222 26.43 223.894 26.682C224.566 26.922 225.28 27.042 226.036 27.042C226.972 27.042 227.698 26.844 228.214 26.448C228.742 26.052 229.006 25.506 229.006 24.81C229.006 24.114 228.748 23.574 228.232 23.19C227.716 22.806 226.936 22.614 225.892 22.614H224.884V21.354L228.052 17.466H221.986V15.9H230.302V17.124L227.008 21.192ZM240.891 22.92H237.615V26.142H236.103V22.92H232.827V21.498H236.103V18.258H237.615V21.498H240.891V22.92ZM251.966 15.9V17.124L246.872 28.5H244.964L249.95 17.466H244.19V19.716H242.462V15.9H251.966Z" fill="#2F2F2F"/>
<path d="M206.5 1H267.5V-1H206.5V1ZM271.5 5V40H273.5V5H271.5ZM267.5 44H206.5V46H267.5V44ZM202.5 40V5H200.5V40H202.5ZM206.5 44C204.291 44 202.5 42.2091 202.5 40H200.5C200.5 43.3137 203.186 46 206.5 46V44ZM271.5 40C271.5 42.2091 269.709 44 267.5 44V46C270.814 46 273.5 43.3137 273.5 40H271.5ZM267.5 1C269.709 1 271.5 2.79086 271.5 5H273.5C273.5 1.68629 270.814 -1 267.5 -1V1ZM206.5 -1C203.186 -1 200.5 1.68629 200.5 5H202.5C202.5 2.79086 204.291 1 206.5 1V-1Z" fill="#2F2F2F"/>
<path d="M302.5 5C302.5 2.23858 304.739 0 307.5 0H368.5C371.261 0 373.5 2.23858 373.5 5V40C373.5 42.7614 371.261 45 368.5 45H307.5C304.739 45 302.5 42.7614 302.5 40V5Z" fill="#369CB7"/>
<path d="M328.119 15.9V28.5H326.337V17.466H323.493V15.9H328.119ZM339.281 22.92H336.005V26.142H334.493V22.92H331.217V21.498H334.493V18.258H336.005V21.498H339.281V22.92ZM352.436 25.404H350.042V28.5H348.296V25.404H341.294V24.144L347.738 15.9H349.682L343.508 23.856H348.35V21.12H350.042V23.856H352.436V25.404Z" fill="white"/>
<path d="M307.5 1H368.5V-1H307.5V1ZM372.5 5V40H374.5V5H372.5ZM368.5 44H307.5V46H368.5V44ZM303.5 40V5H301.5V40H303.5ZM307.5 44C305.291 44 303.5 42.2091 303.5 40H301.5C301.5 43.3137 304.186 46 307.5 46V44ZM372.5 40C372.5 42.2091 370.709 44 368.5 44V46C371.814 46 374.5 43.3137 374.5 40H372.5ZM368.5 1C370.709 1 372.5 2.79086 372.5 5H374.5C374.5 1.68629 371.814 -1 368.5 -1V1ZM307.5 -1C304.186 -1 301.5 1.68629 301.5 5H303.5C303.5 2.79086 305.291 1 307.5 1V-1Z" fill="#369CB7"/>
<path d="M403.5 5C403.5 2.23858 405.739 0 408.5 0H469.5C472.261 0 474.5 2.23858 474.5 5V40C474.5 42.7614 472.261 45 469.5 45H408.5C405.739 45 403.5 42.7614 403.5 40V5Z" fill="#369CB7"/>
<path d="M425.761 15.9V28.5H423.979V17.466H421.135V15.9H425.761ZM433.665 28.644C432.669 28.644 431.781 28.392 431.001 27.888C430.233 27.372 429.627 26.628 429.183 25.656C428.739 24.684 428.517 23.532 428.517 22.2C428.517 20.868 428.739 19.716 429.183 18.744C429.627 17.772 430.233 17.034 431.001 16.53C431.781 16.014 432.669 15.756 433.665 15.756C434.649 15.756 435.525 16.014 436.293 16.53C437.073 17.034 437.685 17.772 438.129 18.744C438.573 19.716 438.795 20.868 438.795 22.2C438.795 23.532 438.573 24.684 438.129 25.656C437.685 26.628 437.073 27.372 436.293 27.888C435.525 28.392 434.649 28.644 433.665 28.644ZM433.665 27.042C434.673 27.042 435.477 26.628 436.077 25.8C436.689 24.972 436.995 23.772 436.995 22.2C436.995 20.628 436.689 19.428 436.077 18.6C435.477 17.772 434.673 17.358 433.665 17.358C432.645 17.358 431.829 17.772 431.217 18.6C430.617 19.428 430.317 20.628 430.317 22.2C430.317 23.772 430.617 24.972 431.217 25.8C431.829 26.628 432.645 27.042 433.665 27.042ZM440.808 22.812H445.65V24.306H440.808V22.812ZM451.137 20.922C452.937 20.922 454.257 21.264 455.097 21.948C455.949 22.62 456.375 23.544 456.375 24.72C456.375 25.464 456.195 26.136 455.835 26.736C455.487 27.324 454.953 27.792 454.233 28.14C453.525 28.476 452.649 28.644 451.605 28.644C450.717 28.644 449.859 28.512 449.031 28.248C448.203 27.972 447.519 27.594 446.979 27.114L447.807 25.692C448.239 26.1 448.791 26.43 449.463 26.682C450.135 26.922 450.843 27.042 451.587 27.042C452.535 27.042 453.267 26.844 453.783 26.448C454.311 26.04 454.575 25.488 454.575 24.792C454.575 24.036 454.287 23.466 453.711 23.082C453.135 22.686 452.151 22.488 450.759 22.488H447.897L448.563 15.9H455.673V17.466H450.075L449.733 20.922H451.137Z" fill="white"/>
<path d="M408.5 1H469.5V-1H408.5V1ZM473.5 5V40H475.5V5H473.5ZM469.5 44H408.5V46H469.5V44ZM404.5 40V5H402.5V40H404.5ZM408.5 44C406.291 44 404.5 42.2091 404.5 40H402.5C402.5 43.3137 405.186 46 408.5 46V44ZM473.5 40C473.5 42.2091 471.709 44 469.5 44V46C472.814 46 475.5 43.3137 475.5 40H473.5ZM469.5 1C471.709 1 473.5 2.79086 473.5 5H475.5C475.5 1.68629 472.814 -1 469.5 -1V1ZM408.5 -1C405.186 -1 402.5 1.68629 402.5 5H404.5C404.5 2.79086 406.291 1 408.5 1V-1Z" fill="#369CB7"/>
</svg>
