<svg width="37" height="41" viewBox="0 0 37 41" fill="none" xmlns="http://www.w3.org/2000/svg">
<g clip-path="url(#clip0_10_14)">
<path d="M17.9267 10.0045C17.9267 10.0045 1.6996 19.2055 0 1.46765C0 1.46765 11.5869 -3.11208 17.9267 10.0045Z" fill="#619631"/>
<path d="M1.94281 2.55958C1.99677 2.55958 1.99677 2.47656 1.94281 2.47656C1.88885 2.47656 1.88885 2.55958 1.94281 2.55958Z" fill="#5D8C30"/>
<path d="M2.29394 2.94795C4.7759 4.3869 7.36576 5.63215 9.92865 6.90506C11.1966 7.52768 12.4646 8.15031 13.746 8.75909C14.3935 9.06348 15.0409 9.34021 15.6884 9.60309C16.2954 9.85214 16.9294 10.2257 17.6038 10.0182C17.8601 9.93516 17.9141 9.63076 17.7927 9.42322C17.442 8.84211 16.7136 8.68991 16.12 8.46853C15.4591 8.21949 14.7981 7.97044 14.1237 7.72139C12.7883 7.23713 11.4529 6.75287 10.131 6.2271C7.50065 5.17556 4.93776 3.97182 2.3479 2.82343C2.26696 2.76808 2.21301 2.90645 2.29394 2.94795Z" fill="#5D8C30"/>
<path d="M6.12455 1.6619C6.13803 2.35371 6.4213 3.03167 6.67759 3.66813C6.92039 4.30459 7.19017 5.0379 7.60832 5.56367C7.74321 5.7297 8.01299 5.60518 7.94555 5.3838C7.71623 4.70583 7.31157 4.08321 7.0283 3.43292C6.77201 2.82413 6.58317 2.17384 6.23246 1.60656C6.19199 1.57889 6.11106 1.60656 6.12455 1.6619Z" fill="#5D8C30"/>
<path d="M3.50788 7.73652C4.26326 7.3076 5.04561 6.97554 5.85494 6.64347C6.50241 6.38059 7.3657 5.85482 8.0941 5.96551C8.47179 6.02085 8.5797 5.46741 8.20201 5.38439C7.41965 5.19069 6.46194 5.85482 5.7875 6.17305C4.99165 6.54662 3.95301 6.89252 3.39997 7.612C3.33252 7.69501 3.42694 7.79186 3.50788 7.73652Z" fill="#5D8C30"/>
<path d="M10.2793 3.24013C10.3602 3.93193 10.657 4.62374 10.8189 5.3017C11.0077 6.04885 11.1426 6.80983 11.3045 7.57081C11.3584 7.84753 11.844 7.75068 11.7901 7.46012C11.6687 6.71298 11.4663 5.96583 11.2235 5.24636C11.0077 4.58223 10.7514 3.7659 10.3198 3.21246C10.3198 3.19862 10.2793 3.21246 10.2793 3.24013Z" fill="#5D8C30"/>
<path d="M7.0692 9.75496C7.82457 9.39522 8.53948 8.93863 9.29486 8.53738C10.1312 8.09463 10.981 7.72106 11.8712 7.38899C12.2624 7.23679 12.0196 6.61417 11.6554 6.79404C10.0502 7.56886 8.29668 8.39902 6.98826 9.63043C6.92082 9.67194 7.00175 9.78263 7.0692 9.75496Z" fill="#5D8C30"/>
<path d="M17.1584 4.02812C17.8194 3.88976 18.5343 4.06963 19.0334 4.51239C18.2645 5.23186 18.278 6.46327 18.278 7.43179C18.278 8.06825 19.3166 13.1737 18.4668 13.1322C17.037 13.0631 16.6458 4.13881 17.1584 4.02812Z" fill="#666720"/>
<path d="M32.7504 35.8768C32.2648 36.3333 31.7657 36.7623 31.2531 37.1635C30.9968 37.3711 30.7405 37.5648 30.4708 37.7446C28.2046 39.3911 25.2775 41.1206 22.4718 39.8754C22.2156 39.82 21.9593 39.7785 21.703 39.737C21.4467 39.6955 21.1904 39.6678 20.9206 39.654C20.0169 39.6125 19.0996 39.8477 18.3038 40.1659C17.9531 40.2628 17.6024 40.3458 17.2517 40.415C15.8353 40.7055 14.3785 40.7885 12.9757 40.581C12.625 40.5257 12.2743 40.4703 11.937 40.3735C9.25275 39.4603 6.71684 37.7861 4.59908 35.7937C4.39675 35.5862 4.18093 35.3787 3.99208 35.1711C-0.0410907 30.8543 -0.324357 23.2029 2.35993 18.139C2.7646 17.3641 3.19624 16.6723 3.66835 16.0774C4.85537 14.5554 6.31217 13.5592 8.51086 12.9643C10.6691 12.3832 12.9082 12.1064 15.1339 12.1618C17.427 12.2171 19.194 12.2448 21.3118 11.4285C22.9979 10.7782 24.8324 10.709 26.5994 10.9996C29.7558 11.5253 32.5345 12.8121 34.2611 15.5516C35.583 17.6547 36.4598 20.1037 36.8375 22.6218C37.5119 27.4229 36.3519 32.4731 32.7504 35.8768Z" fill="#98C11F"/>
<path d="M32.7504 35.8775C32.2648 36.3341 31.7657 36.763 31.2531 37.1643C30.9968 37.3718 30.7405 37.5655 30.4708 37.7454C28.2046 39.3919 25.2775 41.1214 22.4718 39.8761C22.2156 39.8208 21.9593 39.7793 21.703 39.7378C21.4467 39.6962 21.1904 39.6686 20.9206 39.6547C20.0169 39.6132 19.0996 39.8484 18.3038 40.1667C17.9531 40.2635 17.6024 40.3465 17.2517 40.4157C15.8353 40.7063 14.3785 40.7893 12.9757 40.5818C12.625 40.5264 12.2743 40.4711 11.937 40.3742C9.25275 39.461 6.71684 37.7869 4.59908 35.7945C4.39675 35.5869 4.18093 35.3794 3.99208 35.1719C-0.0410907 30.855 -0.324357 23.2037 2.35993 18.1397C2.7646 17.3649 3.19624 16.6731 3.66835 16.0781C2.4004 18.3887 1.87433 21.156 2.17109 23.7848C2.44086 26.1369 3.33113 28.3784 4.65304 30.3292C4.86886 30.6613 5.11166 30.9657 5.35446 31.2839C8.14666 34.4524 11.964 36.4309 16.0646 36.4725C16.4288 36.5001 16.7795 36.514 17.1437 36.5278C17.7373 36.5555 18.3308 36.5555 18.9243 36.5416C19.5178 36.5278 20.1113 36.5001 20.6913 36.4448C24.4412 36.2234 28.4879 35.5869 31.2666 32.6537C31.8062 32.1971 32.3052 31.699 32.7774 31.1871C33.2495 30.6613 33.6946 30.1217 34.0993 29.5406C35.5426 27.4929 36.4598 25.0854 36.824 22.6087C37.5119 27.4237 36.3519 32.4738 32.7504 35.8775Z" fill="#8AAF26"/>
<path d="M26.1549 17.0465C26.4247 17.3371 26.7215 17.5723 27.0182 17.7383C29.689 19.2603 33.1152 15.4554 30.2825 13.6152C29.3113 12.9787 27.6657 12.3284 26.4787 12.6743C24.2125 13.3523 24.887 15.6906 26.1549 17.0465Z" fill="#BDD14C"/>
<path d="M33.0605 16.95C33.6405 17.1437 34.0992 17.7525 33.6001 18.721C33.5461 18.8178 33.4787 18.9147 33.3977 18.9839C33.2898 19.0531 33.1684 19.0807 33.047 19.0946C32.467 19.1361 31.887 18.6933 31.7386 18.1122C31.4958 17.0745 32.3726 16.7148 33.0605 16.95Z" fill="#BDD14C"/>
</g>
<defs>
<clipPath id="clip0_10_14">
<rect width="37" height="40" fill="white" transform="translate(0 0.693359)"/>
</clipPath>
</defs>
</svg>
