<svg width="417" height="31" viewBox="0 0 417 31" fill="none" xmlns="http://www.w3.org/2000/svg">
<path d="M11.0318 17.6342C11.0318 18.6062 10.6718 19.4342 9.95184 20.1182C9.24384 20.7902 8.21184 21.1982 6.85584 21.3422V23.3582H5.37984V21.3602C4.49184 21.3002 3.65184 21.1382 2.85984 20.8742C2.06784 20.6102 1.43784 20.2742 0.969844 19.8662L1.77984 18.0482C2.22384 18.4082 2.76384 18.7142 3.39984 18.9662C4.03584 19.2062 4.69584 19.3562 5.37984 19.4162V15.8162C4.52784 15.6122 3.81384 15.3902 3.23784 15.1502C2.67384 14.8982 2.19984 14.5382 1.81584 14.0702C1.43184 13.5902 1.23984 12.9602 1.23984 12.1802C1.23984 11.2082 1.59384 10.3802 2.30184 9.69624C3.00984 9.01224 4.03584 8.60424 5.37984 8.47224V6.43824H6.85584V8.43624C7.52784 8.47224 8.18184 8.58624 8.81784 8.77824C9.46584 8.97024 10.0298 9.22224 10.5098 9.53424L9.77184 11.3522C8.85984 10.8242 7.88784 10.5002 6.85584 10.3802V14.0162C7.71984 14.2202 8.43384 14.4422 8.99784 14.6822C9.57384 14.9222 10.0538 15.2822 10.4378 15.7622C10.8338 16.2302 11.0318 16.8542 11.0318 17.6342ZM3.56184 12.0722C3.56184 12.4682 3.71784 12.7862 4.02984 13.0262C4.34184 13.2662 4.79184 13.4702 5.37984 13.6382V10.4342C4.76784 10.5302 4.31184 10.7222 4.01184 11.0102C3.71184 11.2982 3.56184 11.6522 3.56184 12.0722ZM6.85584 19.3802C7.49184 19.2842 7.95984 19.0982 8.25984 18.8222C8.57184 18.5462 8.72784 18.2042 8.72784 17.7962C8.72784 17.3882 8.56584 17.0642 8.24184 16.8242C7.91784 16.5722 7.45584 16.3622 6.85584 16.1942V19.3802Z" fill="#2F2F2F"/>
<path d="M22.0037 1.28021L66.0034 1.11642L65.9959 -0.883569L21.9962 -0.719778L22.0037 1.28021ZM70.0182 5.1015L70.0927 25.1014L72.0927 25.0939L72.0182 5.09405L70.0182 5.1015ZM66.1076 29.1162L22.1079 29.28L22.1154 31.28L66.1151 31.1162L66.1076 29.1162ZM18.0931 25.2949L18.0186 5.29507L16.0186 5.30252L16.0931 25.3024L18.0931 25.2949ZM22.1079 29.28C19.8988 29.2882 18.1013 27.5041 18.0931 25.2949L16.0931 25.3024C16.1054 28.6161 18.8017 31.2923 22.1154 31.28L22.1079 29.28ZM70.0927 25.1014C70.1009 27.3105 68.3167 29.108 66.1076 29.1162L66.1151 31.1162C69.4287 31.1039 72.105 28.4076 72.0927 25.0939L70.0927 25.1014ZM66.0034 1.11642C68.2125 1.10819 70.01 2.89238 70.0182 5.1015L72.0182 5.09405C72.0059 1.78037 69.3096 -0.895905 65.9959 -0.883569L66.0034 1.11642ZM21.9962 -0.719778C18.6826 -0.707442 16.0063 1.98883 16.0186 5.30252L18.0186 5.29507C18.0104 3.08595 19.7946 1.28843 22.0037 1.28021L21.9962 -0.719778Z" fill="#2F2F2F"/>
<path d="M87.8438 19.3442C88.6118 19.1882 89.2118 18.7622 89.6438 18.0662L91.3718 19.0742C91.0358 19.7222 90.5618 20.2382 89.9498 20.6222C89.3498 20.9942 88.6478 21.2222 87.8438 21.3062V23.3582H86.3858V21.2702C85.5338 21.1502 84.7778 20.8682 84.1178 20.4242C83.4698 19.9802 82.9658 19.4102 82.6058 18.7142C82.2458 18.0182 82.0658 17.2442 82.0658 16.3922C82.0658 15.5402 82.2458 14.7662 82.6058 14.0702C82.9658 13.3742 83.4698 12.8102 84.1178 12.3782C84.7778 11.9342 85.5338 11.6522 86.3858 11.5322V9.42624H87.8438V11.4962C88.6478 11.5682 89.3558 11.7962 89.9678 12.1802C90.5798 12.5522 91.0478 13.0622 91.3718 13.7102L89.6438 14.7182C89.2118 14.0222 88.6118 13.5962 87.8438 13.4402V19.3442ZM84.3338 16.3922C84.3338 17.1362 84.5198 17.7662 84.8918 18.2822C85.2638 18.7862 85.7618 19.1222 86.3858 19.2902V13.4942C85.7618 13.6742 85.2638 14.0162 84.8918 14.5202C84.5198 15.0242 84.3338 15.6482 84.3338 16.3922Z" fill="#2F2F2F"/>
<path d="M102.115 1.28021L146.115 1.11642L146.107 -0.883569L102.108 -0.719778L102.115 1.28021ZM150.13 5.1015L150.204 25.1014L152.204 25.0939L152.13 5.09405L150.13 5.1015ZM146.219 29.1162L102.219 29.28L102.227 31.28L146.226 31.1162L146.219 29.1162ZM98.2044 25.2949L98.1299 5.29507L96.1299 5.30252L96.2044 25.3024L98.2044 25.2949ZM102.219 29.28C100.01 29.2882 98.2126 27.5041 98.2044 25.2949L96.2044 25.3024C96.2167 28.6161 98.913 31.2923 102.227 31.28L102.219 29.28ZM150.204 25.1014C150.212 27.3105 148.428 29.108 146.219 29.1162L146.226 31.1162C149.54 31.1039 152.216 28.4076 152.204 25.0939L150.204 25.1014ZM146.115 1.11642C148.324 1.10819 150.121 2.89238 150.13 5.1015L152.13 5.09405C152.117 1.78037 149.421 -0.895905 146.107 -0.883569L146.115 1.11642ZM102.108 -0.719778C98.7939 -0.707442 96.1176 1.98883 96.1299 5.30252L98.1299 5.29507C98.1217 3.08595 99.9059 1.28843 102.115 1.28021L102.108 -0.719778Z" fill="#2F2F2F"/>
<path d="M181.223 5.19824C181.223 2.43682 183.461 0.198242 186.223 0.198242H230.223C232.984 0.198242 235.223 2.43682 235.223 5.19824V25.1982C235.223 27.9597 232.984 30.1982 230.223 30.1982H186.223C183.461 30.1982 181.223 27.9597 181.223 25.1982V5.19824Z" fill="#F4F4F4"/>
<path d="M186.223 1.19824H230.223V-0.801758H186.223V1.19824ZM234.223 5.19824V25.1982H236.223V5.19824H234.223ZM230.223 29.1982H186.223V31.1982H230.223V29.1982ZM182.223 25.1982V5.19824H180.223V25.1982H182.223ZM186.223 29.1982C184.014 29.1982 182.223 27.4074 182.223 25.1982H180.223C180.223 28.512 182.909 31.1982 186.223 31.1982V29.1982ZM234.223 25.1982C234.223 27.4074 232.432 29.1982 230.223 29.1982V31.1982C233.536 31.1982 236.223 28.5119 236.223 25.1982H234.223ZM230.223 1.19824C232.432 1.19824 234.223 2.9891 234.223 5.19824H236.223C236.223 1.88453 233.536 -0.801758 230.223 -0.801758V1.19824ZM186.223 -0.801758C182.909 -0.801758 180.223 1.88453 180.223 5.19824H182.223C182.223 2.9891 184.014 1.19824 186.223 1.19824V-0.801758Z" fill="#D0D0D0"/>
<path d="M276.255 17.6342C276.255 18.6062 275.895 19.4342 275.175 20.1182C274.467 20.7902 273.435 21.1982 272.079 21.3422V23.3582H270.603V21.3602C269.715 21.3002 268.875 21.1382 268.083 20.8742C267.291 20.6102 266.661 20.2742 266.193 19.8662L267.003 18.0482C267.447 18.4082 267.987 18.7142 268.623 18.9662C269.259 19.2062 269.919 19.3562 270.603 19.4162V15.8162C269.751 15.6122 269.037 15.3902 268.461 15.1502C267.897 14.8982 267.423 14.5382 267.039 14.0702C266.655 13.5902 266.463 12.9602 266.463 12.1802C266.463 11.2082 266.817 10.3802 267.525 9.69624C268.233 9.01224 269.259 8.60424 270.603 8.47224V6.43824H272.079V8.43624C272.751 8.47224 273.405 8.58624 274.041 8.77824C274.689 8.97024 275.253 9.22224 275.732 9.53424L274.995 11.3522C274.083 10.8242 273.111 10.5002 272.079 10.3802V14.0162C272.943 14.2202 273.657 14.4422 274.221 14.6822C274.797 14.9222 275.277 15.2822 275.661 15.7622C276.057 16.2302 276.255 16.8542 276.255 17.6342ZM268.785 12.0722C268.785 12.4682 268.941 12.7862 269.253 13.0262C269.565 13.2662 270.015 13.4702 270.603 13.6382V10.4342C269.991 10.5302 269.535 10.7222 269.235 11.0102C268.935 11.2982 268.785 11.6522 268.785 12.0722ZM272.079 19.3802C272.715 19.2842 273.183 19.0982 273.483 18.8222C273.795 18.5462 273.951 18.2042 273.951 17.7962C273.951 17.3882 273.789 17.0642 273.465 16.8242C273.141 16.5722 272.679 16.3622 272.079 16.1942V19.3802Z" fill="#2F2F2F"/>
<path d="M287.226 1.28021L331.226 1.11642L331.219 -0.883569L287.219 -0.719778L287.226 1.28021ZM335.241 5.1015L335.315 25.1014L337.315 25.0939L337.241 5.09405L335.241 5.1015ZM331.33 29.1162L287.331 29.28L287.338 31.28L331.338 31.1162L331.33 29.1162ZM283.316 25.2949L283.241 5.29507L281.241 5.30252L281.316 25.3024L283.316 25.2949ZM287.331 29.28C285.121 29.2882 283.324 27.5041 283.316 25.2949L281.316 25.3024C281.328 28.6161 284.024 31.2923 287.338 31.28L287.331 29.28ZM335.315 25.1014C335.324 27.3105 333.539 29.108 331.33 29.1162L331.338 31.1162C334.651 31.1039 337.328 28.4076 337.315 25.0939L335.315 25.1014ZM331.226 1.11642C333.435 1.10819 335.233 2.89238 335.241 5.1015L337.241 5.09405C337.229 1.78037 334.532 -0.895905 331.219 -0.883569L331.226 1.11642ZM287.219 -0.719778C283.905 -0.707442 281.229 1.98883 281.241 5.30252L283.241 5.29507C283.233 3.08595 285.017 1.28843 287.226 1.28021L287.219 -0.719778Z" fill="#2F2F2F"/>
<path d="M353.066 19.3442C353.834 19.1882 354.434 18.7622 354.866 18.0662L356.594 19.0742C356.258 19.7222 355.784 20.2382 355.172 20.6222C354.572 20.9942 353.87 21.2222 353.066 21.3062V23.3582H351.608V21.2702C350.756 21.1502 350 20.8682 349.34 20.4242C348.692 19.9802 348.188 19.4102 347.828 18.7142C347.468 18.0182 347.288 17.2442 347.288 16.3922C347.288 15.5402 347.468 14.7662 347.828 14.0702C348.188 13.3742 348.692 12.8102 349.34 12.3782C350 11.9342 350.756 11.6522 351.608 11.5322V9.42624H353.066V11.4962C353.87 11.5682 354.578 11.7962 355.19 12.1802C355.802 12.5522 356.27 13.0622 356.594 13.7102L354.866 14.7182C354.434 14.0222 353.834 13.5962 353.066 13.4402V19.3442ZM349.556 16.3922C349.556 17.1362 349.742 17.7662 350.114 18.2822C350.486 18.7862 350.984 19.1222 351.608 19.2902V13.4942C350.984 13.6742 350.486 14.0162 350.114 14.5202C349.742 15.0242 349.556 15.6482 349.556 16.3922Z" fill="#2F2F2F"/>
<path d="M367.338 1.28021L411.337 1.11642L411.33 -0.883569L367.33 -0.719778L367.338 1.28021ZM415.352 5.1015L415.427 25.1014L417.427 25.0939L417.352 5.09405L415.352 5.1015ZM411.442 29.1162L367.442 29.28L367.449 31.28L411.449 31.1162L411.442 29.1162ZM363.427 25.2949L363.353 5.29507L361.353 5.30252L361.427 25.3024L363.427 25.2949ZM367.442 29.28C365.233 29.2882 363.435 27.5041 363.427 25.2949L361.427 25.3024C361.439 28.6161 364.136 31.2923 367.449 31.28L367.442 29.28ZM415.427 25.1014C415.435 27.3105 413.651 29.108 411.442 29.1162L411.449 31.1162C414.763 31.1039 417.439 28.4076 417.427 25.0939L415.427 25.1014ZM411.337 1.11642C413.546 1.10819 415.344 2.89238 415.352 5.1015L417.352 5.09405C417.34 1.78037 414.644 -0.895905 411.33 -0.883569L411.337 1.11642ZM367.33 -0.719778C364.017 -0.707442 361.34 1.98883 361.353 5.30252L363.353 5.29507C363.344 3.08595 365.129 1.28843 367.338 1.28021L367.33 -0.719778Z" fill="#2F2F2F"/>
<path d="M181 6C181 3.23858 183.239 1 186 1H230C232.761 1 235 3.23858 235 6V26C235 28.7614 232.761 31 230 31H186C183.239 31 181 28.7614 181 26V6Z" fill="#369CB7"/>
<path d="M214.72 12.39L204.07 16.5L214.72 20.61V23.1L201.28 17.79V15.21L214.72 9.9V12.39Z" fill="white"/>
<path d="M186 2H230V0H186V2ZM234 6V26H236V6H234ZM230 30H186V32H230V30ZM182 26V6H180V26H182ZM186 30C183.791 30 182 28.2091 182 26H180C180 29.3137 182.686 32 186 32V30ZM234 26C234 28.2091 232.209 30 230 30V32C233.314 32 236 29.3137 236 26H234ZM230 2C232.209 2 234 3.79086 234 6H236C236 2.68629 233.314 0 230 0V2ZM186 0C182.686 0 180 2.68629 180 6H182C182 3.79086 183.791 2 186 2V0Z" fill="#369CB7"/>
<path d="M46.0376 14.692C47.2736 14.812 48.2156 15.196 48.8636 15.844C49.5116 16.48 49.8356 17.296 49.8356 18.292C49.8356 19.012 49.6556 19.666 49.2956 20.254C48.9356 20.83 48.3956 21.292 47.6756 21.64C46.9676 21.976 46.0976 22.144 45.0656 22.144C44.1656 22.144 43.3016 22.012 42.4736 21.748C41.6456 21.472 40.9676 21.094 40.4396 20.614L41.2676 19.192C41.6996 19.6 42.2516 19.93 42.9236 20.182C43.5956 20.422 44.3096 20.542 45.0656 20.542C46.0016 20.542 46.7276 20.344 47.2436 19.948C47.7716 19.552 48.0356 19.006 48.0356 18.31C48.0356 17.614 47.7776 17.074 47.2616 16.69C46.7456 16.306 45.9656 16.114 44.9216 16.114H43.9136V14.854L47.0816 10.966H41.0156V9.4H49.3316V10.624L46.0376 14.692Z" fill="#2F2F2F"/>
<path d="M310.038 14.692C311.274 14.812 312.216 15.196 312.864 15.844C313.512 16.48 313.836 17.296 313.836 18.292C313.836 19.012 313.656 19.666 313.296 20.254C312.936 20.83 312.396 21.292 311.676 21.64C310.968 21.976 310.098 22.144 309.066 22.144C308.166 22.144 307.302 22.012 306.474 21.748C305.646 21.472 304.968 21.094 304.44 20.614L305.268 19.192C305.7 19.6 306.252 19.93 306.924 20.182C307.596 20.422 308.31 20.542 309.066 20.542C310.002 20.542 310.728 20.344 311.244 19.948C311.772 19.552 312.036 19.006 312.036 18.31C312.036 17.614 311.778 17.074 311.262 16.69C310.746 16.306 309.966 16.114 308.922 16.114H307.914V14.854L311.082 10.966H305.016V9.4H313.332V10.624L310.038 14.692Z" fill="#2F2F2F"/>
<path d="M125.199 20.434V22H116.145V20.776L121.275 15.826C121.899 15.226 122.319 14.71 122.535 14.278C122.751 13.834 122.859 13.39 122.859 12.946C122.859 12.286 122.625 11.776 122.157 11.416C121.701 11.044 121.041 10.858 120.177 10.858C118.785 10.858 117.711 11.314 116.955 12.226L115.731 11.164C116.223 10.564 116.865 10.096 117.657 9.76C118.461 9.424 119.355 9.256 120.339 9.256C121.659 9.256 122.709 9.574 123.489 10.21C124.269 10.834 124.659 11.686 124.659 12.766C124.659 13.438 124.515 14.074 124.227 14.674C123.939 15.274 123.393 15.958 122.589 16.726L118.737 20.434H125.199ZM135.807 9.4V10.624L130.713 22H128.805L133.791 10.966H128.031V13.216H126.303V9.4H135.807Z" fill="#2F2F2F"/>
<path d="M386.931 14.692C388.167 14.812 389.109 15.196 389.757 15.844C390.405 16.48 390.729 17.296 390.729 18.292C390.729 19.012 390.549 19.666 390.189 20.254C389.829 20.83 389.289 21.292 388.569 21.64C387.861 21.976 386.991 22.144 385.959 22.144C385.059 22.144 384.195 22.012 383.367 21.748C382.539 21.472 381.861 21.094 381.333 20.614L382.161 19.192C382.593 19.6 383.145 19.93 383.817 20.182C384.489 20.422 385.203 20.542 385.959 20.542C386.895 20.542 387.621 20.344 388.137 19.948C388.665 19.552 388.929 19.006 388.929 18.31C388.929 17.614 388.671 17.074 388.155 16.69C387.639 16.306 386.859 16.114 385.815 16.114H384.807V14.854L387.975 10.966H381.909V9.4H390.225V10.624L386.931 14.692ZM397.144 14.692C398.38 14.812 399.322 15.196 399.97 15.844C400.618 16.48 400.942 17.296 400.942 18.292C400.942 19.012 400.762 19.666 400.402 20.254C400.042 20.83 399.502 21.292 398.782 21.64C398.074 21.976 397.204 22.144 396.172 22.144C395.272 22.144 394.408 22.012 393.58 21.748C392.752 21.472 392.074 21.094 391.546 20.614L392.374 19.192C392.806 19.6 393.358 19.93 394.03 20.182C394.702 20.422 395.416 20.542 396.172 20.542C397.108 20.542 397.834 20.344 398.35 19.948C398.878 19.552 399.142 19.006 399.142 18.31C399.142 17.614 398.884 17.074 398.368 16.69C397.852 16.306 397.072 16.114 396.028 16.114H395.02V14.854L398.188 10.966H392.122V9.4H400.438V10.624L397.144 14.692Z" fill="#2F2F2F"/>
</svg>
