<svg width="666" height="120" viewBox="0 0 666 120" fill="none" xmlns="http://www.w3.org/2000/svg">
<path d="M30.9111 27.348V28.5H22.0731V27.582L27.3111 22.452C27.9711 21.804 28.4151 21.246 28.6431 20.778C28.8831 20.298 29.0031 19.818 29.0031 19.338C29.0031 18.594 28.7451 18.018 28.2291 17.61C27.7251 17.19 26.9991 16.98 26.0511 16.98C24.5751 16.98 23.4291 17.448 22.6131 18.384L21.6951 17.592C22.1871 17.016 22.8111 16.572 23.5671 16.26C24.3351 15.948 25.1991 15.792 26.1591 15.792C27.4431 15.792 28.4571 16.098 29.2011 16.71C29.9571 17.31 30.3351 18.138 30.3351 19.194C30.3351 19.842 30.1911 20.466 29.9031 21.066C29.6151 21.666 29.0691 22.356 28.2651 23.136L23.9811 27.348H30.9111ZM43.0805 27.924C42.8405 28.14 42.5405 28.308 42.1805 28.428C41.8325 28.536 41.4665 28.59 41.0825 28.59C40.1945 28.59 39.5105 28.35 39.0305 27.87C38.5505 27.39 38.3105 26.712 38.3105 25.836V20.112H36.6185V19.032H38.3105V16.962H39.5885V19.032H42.4685V20.112H39.5885V25.764C39.5885 26.328 39.7265 26.76 40.0025 27.06C40.2905 27.348 40.6985 27.492 41.2265 27.492C41.4905 27.492 41.7425 27.45 41.9825 27.366C42.2345 27.282 42.4505 27.162 42.6305 27.006L43.0805 27.924ZM53.317 24.162H45.397C45.469 25.146 45.847 25.944 46.531 26.556C47.215 27.156 48.079 27.456 49.123 27.456C49.711 27.456 50.251 27.354 50.743 27.15C51.235 26.934 51.661 26.622 52.021 26.214L52.741 27.042C52.321 27.546 51.793 27.93 51.157 28.194C50.533 28.458 49.843 28.59 49.087 28.59C48.115 28.59 47.251 28.386 46.495 27.978C45.751 27.558 45.169 26.982 44.749 26.25C44.329 25.518 44.119 24.69 44.119 23.766C44.119 22.842 44.317 22.014 44.713 21.282C45.121 20.55 45.673 19.98 46.369 19.572C47.077 19.164 47.869 18.96 48.745 18.96C49.621 18.96 50.407 19.164 51.103 19.572C51.799 19.98 52.345 20.55 52.741 21.282C53.137 22.002 53.335 22.83 53.335 23.766L53.317 24.162ZM48.745 20.058C47.833 20.058 47.065 20.352 46.441 20.94C45.829 21.516 45.481 22.272 45.397 23.208H52.111C52.027 22.272 51.673 21.516 51.049 20.94C50.437 20.352 49.669 20.058 48.745 20.058ZM60.7603 18.96C61.9483 18.96 62.8903 19.308 63.5863 20.004C64.2943 20.688 64.6483 21.69 64.6483 23.01V28.5H63.3703V23.136C63.3703 22.152 63.1243 21.402 62.6323 20.886C62.1403 20.37 61.4383 20.112 60.5263 20.112C59.5063 20.112 58.6963 20.418 58.0963 21.03C57.5083 21.63 57.2143 22.464 57.2143 23.532V28.5H55.9363V19.032H57.1603V20.778C57.5083 20.202 57.9883 19.758 58.6003 19.446C59.2243 19.122 59.9443 18.96 60.7603 18.96ZM70.6559 28.59C69.8879 28.59 69.1499 28.482 68.4419 28.266C67.7459 28.038 67.1999 27.756 66.8039 27.42L67.3799 26.412C67.7759 26.724 68.2739 26.982 68.8739 27.186C69.4739 27.378 70.0979 27.474 70.7459 27.474C71.6099 27.474 72.2459 27.342 72.6539 27.078C73.0739 26.802 73.2839 26.418 73.2839 25.926C73.2839 25.578 73.1699 25.308 72.9419 25.116C72.7139 24.912 72.4259 24.762 72.0779 24.666C71.7299 24.558 71.2679 24.456 70.6919 24.36C69.9239 24.216 69.3059 24.072 68.8379 23.928C68.3699 23.772 67.9679 23.514 67.6319 23.154C67.3079 22.794 67.1459 22.296 67.1459 21.66C67.1459 20.868 67.4759 20.22 68.1359 19.716C68.7959 19.212 69.7139 18.96 70.8899 18.96C71.5019 18.96 72.1139 19.044 72.7259 19.212C73.3379 19.368 73.8419 19.578 74.2379 19.842L73.6799 20.868C72.8999 20.328 71.9699 20.058 70.8899 20.058C70.0739 20.058 69.4559 20.202 69.0359 20.49C68.6279 20.778 68.4239 21.156 68.4239 21.624C68.4239 21.984 68.5379 22.272 68.7659 22.488C69.0059 22.704 69.2999 22.866 69.6479 22.974C69.9959 23.07 70.4759 23.172 71.0879 23.28C71.8439 23.424 72.4499 23.568 72.9059 23.712C73.3619 23.856 73.7519 24.102 74.0759 24.45C74.3999 24.798 74.5619 25.278 74.5619 25.89C74.5619 26.718 74.2139 27.378 73.5179 27.87C72.8339 28.35 71.8799 28.59 70.6559 28.59ZM86.5135 18.96C87.4015 18.96 88.2055 19.164 88.9255 19.572C89.6455 19.968 90.2095 20.532 90.6175 21.264C91.0255 21.996 91.2295 22.83 91.2295 23.766C91.2295 24.714 91.0255 25.554 90.6175 26.286C90.2095 27.018 89.6455 27.588 88.9255 27.996C88.2175 28.392 87.4135 28.59 86.5135 28.59C85.7455 28.59 85.0495 28.434 84.4255 28.122C83.8135 27.798 83.3095 27.33 82.9135 26.718V31.992H81.6355V19.032H82.8595V20.904C83.2435 20.28 83.7475 19.8 84.3715 19.464C85.0075 19.128 85.7215 18.96 86.5135 18.96ZM86.4235 27.456C87.0835 27.456 87.6835 27.306 88.2235 27.006C88.7635 26.694 89.1835 26.256 89.4835 25.692C89.7955 25.128 89.9515 24.486 89.9515 23.766C89.9515 23.046 89.7955 22.41 89.4835 21.858C89.1835 21.294 88.7635 20.856 88.2235 20.544C87.6835 20.232 87.0835 20.076 86.4235 20.076C85.7515 20.076 85.1455 20.232 84.6055 20.544C84.0775 20.856 83.6575 21.294 83.3455 21.858C83.0455 22.41 82.8955 23.046 82.8955 23.766C82.8955 24.486 83.0455 25.128 83.3455 25.692C83.6575 26.256 84.0775 26.694 84.6055 27.006C85.1455 27.306 85.7515 27.456 86.4235 27.456ZM93.8347 15.144H95.1127V28.5H93.8347V15.144ZM107.201 19.032V28.5H105.977V26.772C105.641 27.348 105.179 27.798 104.591 28.122C104.003 28.434 103.331 28.59 102.575 28.59C101.339 28.59 100.361 28.248 99.6407 27.564C98.9327 26.868 98.5787 25.854 98.5787 24.522V19.032H99.8567V24.396C99.8567 25.392 100.103 26.148 100.595 26.664C101.087 27.18 101.789 27.438 102.701 27.438C103.697 27.438 104.483 27.138 105.059 26.538C105.635 25.926 105.923 25.08 105.923 24V19.032H107.201ZM113.318 28.59C112.55 28.59 111.812 28.482 111.104 28.266C110.408 28.038 109.862 27.756 109.466 27.42L110.042 26.412C110.438 26.724 110.936 26.982 111.536 27.186C112.136 27.378 112.76 27.474 113.408 27.474C114.272 27.474 114.908 27.342 115.316 27.078C115.736 26.802 115.946 26.418 115.946 25.926C115.946 25.578 115.832 25.308 115.604 25.116C115.376 24.912 115.088 24.762 114.74 24.666C114.392 24.558 113.93 24.456 113.354 24.36C112.586 24.216 111.968 24.072 111.5 23.928C111.032 23.772 110.63 23.514 110.294 23.154C109.97 22.794 109.808 22.296 109.808 21.66C109.808 20.868 110.138 20.22 110.798 19.716C111.458 19.212 112.376 18.96 113.552 18.96C114.164 18.96 114.776 19.044 115.388 19.212C116 19.368 116.504 19.578 116.9 19.842L116.342 20.868C115.562 20.328 114.632 20.058 113.552 20.058C112.736 20.058 112.118 20.202 111.698 20.49C111.29 20.778 111.086 21.156 111.086 21.624C111.086 21.984 111.2 22.272 111.428 22.488C111.668 22.704 111.962 22.866 112.31 22.974C112.658 23.07 113.138 23.172 113.75 23.28C114.506 23.424 115.112 23.568 115.568 23.712C116.024 23.856 116.414 24.102 116.738 24.45C117.062 24.798 117.224 25.278 117.224 25.89C117.224 26.718 116.876 27.378 116.18 27.87C115.496 28.35 114.542 28.59 113.318 28.59ZM132.056 27.348V28.5H123.218V27.582L128.456 22.452C129.116 21.804 129.56 21.246 129.788 20.778C130.028 20.298 130.148 19.818 130.148 19.338C130.148 18.594 129.89 18.018 129.374 17.61C128.87 17.19 128.144 16.98 127.196 16.98C125.72 16.98 124.574 17.448 123.758 18.384L122.84 17.592C123.332 17.016 123.956 16.572 124.712 16.26C125.48 15.948 126.344 15.792 127.304 15.792C128.588 15.792 129.602 16.098 130.346 16.71C131.102 17.31 131.48 18.138 131.48 19.194C131.48 19.842 131.336 20.466 131.048 21.066C130.76 21.666 130.214 22.356 129.41 23.136L125.126 27.348H132.056ZM143.109 28.59C142.197 28.59 141.375 28.386 140.643 27.978C139.911 27.558 139.335 26.982 138.915 26.25C138.495 25.518 138.285 24.69 138.285 23.766C138.285 22.842 138.495 22.014 138.915 21.282C139.335 20.55 139.911 19.98 140.643 19.572C141.375 19.164 142.197 18.96 143.109 18.96C144.021 18.96 144.843 19.164 145.575 19.572C146.307 19.98 146.877 20.55 147.285 21.282C147.705 22.014 147.915 22.842 147.915 23.766C147.915 24.69 147.705 25.518 147.285 26.25C146.877 26.982 146.307 27.558 145.575 27.978C144.843 28.386 144.021 28.59 143.109 28.59ZM143.109 27.456C143.781 27.456 144.381 27.306 144.909 27.006C145.449 26.694 145.869 26.256 146.169 25.692C146.469 25.128 146.619 24.486 146.619 23.766C146.619 23.046 146.469 22.404 146.169 21.84C145.869 21.276 145.449 20.844 144.909 20.544C144.381 20.232 143.781 20.076 143.109 20.076C142.437 20.076 141.831 20.232 141.291 20.544C140.763 20.844 140.343 21.276 140.031 21.84C139.731 22.404 139.581 23.046 139.581 23.766C139.581 24.486 139.731 25.128 140.031 25.692C140.343 26.256 140.763 26.694 141.291 27.006C141.831 27.306 142.437 27.456 143.109 27.456ZM155.348 18.96C156.536 18.96 157.478 19.308 158.174 20.004C158.882 20.688 159.236 21.69 159.236 23.01V28.5H157.958V23.136C157.958 22.152 157.712 21.402 157.22 20.886C156.728 20.37 156.026 20.112 155.114 20.112C154.094 20.112 153.284 20.418 152.684 21.03C152.096 21.63 151.802 22.464 151.802 23.532V28.5H150.524V19.032H151.748V20.778C152.096 20.202 152.576 19.758 153.188 19.446C153.812 19.122 154.532 18.96 155.348 18.96ZM170.985 24.162H163.065C163.137 25.146 163.515 25.944 164.199 26.556C164.883 27.156 165.747 27.456 166.791 27.456C167.379 27.456 167.919 27.354 168.411 27.15C168.903 26.934 169.329 26.622 169.689 26.214L170.409 27.042C169.989 27.546 169.461 27.93 168.825 28.194C168.201 28.458 167.511 28.59 166.755 28.59C165.783 28.59 164.919 28.386 164.163 27.978C163.419 27.558 162.837 26.982 162.417 26.25C161.997 25.518 161.787 24.69 161.787 23.766C161.787 22.842 161.985 22.014 162.381 21.282C162.789 20.55 163.341 19.98 164.037 19.572C164.745 19.164 165.537 18.96 166.413 18.96C167.289 18.96 168.075 19.164 168.771 19.572C169.467 19.98 170.013 20.55 170.409 21.282C170.805 22.002 171.003 22.83 171.003 23.766L170.985 24.162ZM166.413 20.058C165.501 20.058 164.733 20.352 164.109 20.94C163.497 21.516 163.149 22.272 163.065 23.208H169.779C169.695 22.272 169.341 21.516 168.717 20.94C168.105 20.352 167.337 20.058 166.413 20.058ZM176.142 28.59C175.374 28.59 174.636 28.482 173.928 28.266C173.232 28.038 172.686 27.756 172.29 27.42L172.866 26.412C173.262 26.724 173.76 26.982 174.36 27.186C174.96 27.378 175.584 27.474 176.232 27.474C177.096 27.474 177.732 27.342 178.14 27.078C178.56 26.802 178.77 26.418 178.77 25.926C178.77 25.578 178.656 25.308 178.428 25.116C178.2 24.912 177.912 24.762 177.564 24.666C177.216 24.558 176.754 24.456 176.178 24.36C175.41 24.216 174.792 24.072 174.324 23.928C173.856 23.772 173.454 23.514 173.118 23.154C172.794 22.794 172.632 22.296 172.632 21.66C172.632 20.868 172.962 20.22 173.622 19.716C174.282 19.212 175.2 18.96 176.376 18.96C176.988 18.96 177.6 19.044 178.212 19.212C178.824 19.368 179.328 19.578 179.724 19.842L179.166 20.868C178.386 20.328 177.456 20.058 176.376 20.058C175.56 20.058 174.942 20.202 174.522 20.49C174.114 20.778 173.91 21.156 173.91 21.624C173.91 21.984 174.024 22.272 174.252 22.488C174.492 22.704 174.786 22.866 175.134 22.974C175.482 23.07 175.962 23.172 176.574 23.28C177.33 23.424 177.936 23.568 178.392 23.712C178.848 23.856 179.238 24.102 179.562 24.45C179.886 24.798 180.048 25.278 180.048 25.89C180.048 26.718 179.7 27.378 179.004 27.87C178.32 28.35 177.366 28.59 176.142 28.59Z" fill="black"/>
<path d="M5 1H197V-1H5V1ZM201 5V40H203V5H201ZM197 44H5V46H197V44ZM1 40V5H-1V40H1ZM5 44C2.79086 44 1 42.2091 1 40H-1C-1 43.3137 1.6863 46 5 46V44ZM201 40C201 42.2091 199.209 44 197 44V46C200.314 46 203 43.3137 203 40H201ZM197 1C199.209 1 201 2.79086 201 5H203C203 1.68629 200.314 -1 197 -1V1ZM5 -1C1.68629 -1 -1 1.68629 -1 5H1C1 2.79086 2.79086 1 5 1V-1Z" fill="#2F2F2F"/>
<path d="M232 5C232 2.23858 234.239 0 237 0H429C431.761 0 434 2.23858 434 5V40C434 42.7614 431.761 45 429 45H237C234.239 45 232 42.7614 232 40V5Z" fill="#369CB7"/>
<path d="M253.019 21.3C254.339 21.372 255.341 21.732 256.025 22.38C256.721 23.016 257.069 23.85 257.069 24.882C257.069 25.602 256.895 26.244 256.547 26.808C256.199 27.36 255.683 27.798 254.999 28.122C254.315 28.446 253.481 28.608 252.497 28.608C251.585 28.608 250.721 28.464 249.905 28.176C249.101 27.876 248.453 27.48 247.961 26.988L248.591 25.962C249.011 26.394 249.569 26.748 250.265 27.024C250.961 27.288 251.705 27.42 252.497 27.42C253.529 27.42 254.327 27.198 254.891 26.754C255.455 26.298 255.737 25.674 255.737 24.882C255.737 24.102 255.455 23.49 254.891 23.046C254.327 22.602 253.475 22.38 252.335 22.38H251.435V21.426L254.927 17.052H248.483V15.9H256.583V16.818L253.019 21.3ZM269.438 27.924C269.198 28.14 268.898 28.308 268.538 28.428C268.19 28.536 267.824 28.59 267.44 28.59C266.552 28.59 265.868 28.35 265.388 27.87C264.908 27.39 264.668 26.712 264.668 25.836V20.112H262.976V19.032H264.668V16.962H265.946V19.032H268.826V20.112H265.946V25.764C265.946 26.328 266.084 26.76 266.36 27.06C266.648 27.348 267.056 27.492 267.584 27.492C267.848 27.492 268.1 27.45 268.34 27.366C268.592 27.282 268.808 27.162 268.988 27.006L269.438 27.924ZM279.674 24.162H271.754C271.826 25.146 272.204 25.944 272.888 26.556C273.572 27.156 274.436 27.456 275.48 27.456C276.068 27.456 276.608 27.354 277.1 27.15C277.592 26.934 278.018 26.622 278.378 26.214L279.098 27.042C278.678 27.546 278.15 27.93 277.514 28.194C276.89 28.458 276.2 28.59 275.444 28.59C274.472 28.59 273.608 28.386 272.852 27.978C272.108 27.558 271.526 26.982 271.106 26.25C270.686 25.518 270.476 24.69 270.476 23.766C270.476 22.842 270.674 22.014 271.07 21.282C271.478 20.55 272.03 19.98 272.726 19.572C273.434 19.164 274.226 18.96 275.102 18.96C275.978 18.96 276.764 19.164 277.46 19.572C278.156 19.98 278.702 20.55 279.098 21.282C279.494 22.002 279.692 22.83 279.692 23.766L279.674 24.162ZM275.102 20.058C274.19 20.058 273.422 20.352 272.798 20.94C272.186 21.516 271.838 22.272 271.754 23.208H278.468C278.384 22.272 278.03 21.516 277.406 20.94C276.794 20.352 276.026 20.058 275.102 20.058ZM287.118 18.96C288.306 18.96 289.248 19.308 289.944 20.004C290.652 20.688 291.006 21.69 291.006 23.01V28.5H289.728V23.136C289.728 22.152 289.482 21.402 288.99 20.886C288.498 20.37 287.796 20.112 286.884 20.112C285.864 20.112 285.054 20.418 284.454 21.03C283.866 21.63 283.572 22.464 283.572 23.532V28.5H282.294V19.032H283.518V20.778C283.866 20.202 284.346 19.758 284.958 19.446C285.582 19.122 286.302 18.96 287.118 18.96ZM297.013 28.59C296.245 28.59 295.507 28.482 294.799 28.266C294.103 28.038 293.557 27.756 293.161 27.42L293.737 26.412C294.133 26.724 294.631 26.982 295.231 27.186C295.831 27.378 296.455 27.474 297.103 27.474C297.967 27.474 298.603 27.342 299.011 27.078C299.431 26.802 299.641 26.418 299.641 25.926C299.641 25.578 299.527 25.308 299.299 25.116C299.071 24.912 298.783 24.762 298.435 24.666C298.087 24.558 297.625 24.456 297.049 24.36C296.281 24.216 295.663 24.072 295.195 23.928C294.727 23.772 294.325 23.514 293.989 23.154C293.665 22.794 293.503 22.296 293.503 21.66C293.503 20.868 293.833 20.22 294.493 19.716C295.153 19.212 296.071 18.96 297.247 18.96C297.859 18.96 298.471 19.044 299.083 19.212C299.695 19.368 300.199 19.578 300.595 19.842L300.037 20.868C299.257 20.328 298.327 20.058 297.247 20.058C296.431 20.058 295.813 20.202 295.393 20.49C294.985 20.778 294.781 21.156 294.781 21.624C294.781 21.984 294.895 22.272 295.123 22.488C295.363 22.704 295.657 22.866 296.005 22.974C296.353 23.07 296.833 23.172 297.445 23.28C298.201 23.424 298.807 23.568 299.263 23.712C299.719 23.856 300.109 24.102 300.433 24.45C300.757 24.798 300.919 25.278 300.919 25.89C300.919 26.718 300.571 27.378 299.875 27.87C299.191 28.35 298.237 28.59 297.013 28.59ZM312.871 18.96C313.759 18.96 314.563 19.164 315.283 19.572C316.003 19.968 316.567 20.532 316.975 21.264C317.383 21.996 317.587 22.83 317.587 23.766C317.587 24.714 317.383 25.554 316.975 26.286C316.567 27.018 316.003 27.588 315.283 27.996C314.575 28.392 313.771 28.59 312.871 28.59C312.103 28.59 311.407 28.434 310.783 28.122C310.171 27.798 309.667 27.33 309.271 26.718V31.992H307.993V19.032H309.217V20.904C309.601 20.28 310.105 19.8 310.729 19.464C311.365 19.128 312.079 18.96 312.871 18.96ZM312.781 27.456C313.441 27.456 314.041 27.306 314.581 27.006C315.121 26.694 315.541 26.256 315.841 25.692C316.153 25.128 316.309 24.486 316.309 23.766C316.309 23.046 316.153 22.41 315.841 21.858C315.541 21.294 315.121 20.856 314.581 20.544C314.041 20.232 313.441 20.076 312.781 20.076C312.109 20.076 311.503 20.232 310.963 20.544C310.435 20.856 310.015 21.294 309.703 21.858C309.403 22.41 309.253 23.046 309.253 23.766C309.253 24.486 309.403 25.128 309.703 25.692C310.015 26.256 310.435 26.694 310.963 27.006C311.503 27.306 312.109 27.456 312.781 27.456ZM320.192 15.144H321.47V28.5H320.192V15.144ZM333.558 19.032V28.5H332.334V26.772C331.998 27.348 331.536 27.798 330.948 28.122C330.36 28.434 329.688 28.59 328.932 28.59C327.696 28.59 326.718 28.248 325.998 27.564C325.29 26.868 324.936 25.854 324.936 24.522V19.032H326.214V24.396C326.214 25.392 326.46 26.148 326.952 26.664C327.444 27.18 328.146 27.438 329.058 27.438C330.054 27.438 330.84 27.138 331.416 26.538C331.992 25.926 332.28 25.08 332.28 24V19.032H333.558ZM339.675 28.59C338.907 28.59 338.169 28.482 337.461 28.266C336.765 28.038 336.219 27.756 335.823 27.42L336.399 26.412C336.795 26.724 337.293 26.982 337.893 27.186C338.493 27.378 339.117 27.474 339.765 27.474C340.629 27.474 341.265 27.342 341.673 27.078C342.093 26.802 342.303 26.418 342.303 25.926C342.303 25.578 342.189 25.308 341.961 25.116C341.733 24.912 341.445 24.762 341.097 24.666C340.749 24.558 340.287 24.456 339.711 24.36C338.943 24.216 338.325 24.072 337.857 23.928C337.389 23.772 336.987 23.514 336.651 23.154C336.327 22.794 336.165 22.296 336.165 21.66C336.165 20.868 336.495 20.22 337.155 19.716C337.815 19.212 338.733 18.96 339.909 18.96C340.521 18.96 341.133 19.044 341.745 19.212C342.357 19.368 342.861 19.578 343.257 19.842L342.699 20.868C341.919 20.328 340.989 20.058 339.909 20.058C339.093 20.058 338.475 20.202 338.055 20.49C337.647 20.778 337.443 21.156 337.443 21.624C337.443 21.984 337.557 22.272 337.785 22.488C338.025 22.704 338.319 22.866 338.667 22.974C339.015 23.07 339.495 23.172 340.107 23.28C340.863 23.424 341.469 23.568 341.925 23.712C342.381 23.856 342.771 24.102 343.095 24.45C343.419 24.798 343.581 25.278 343.581 25.89C343.581 26.718 343.233 27.378 342.537 27.87C341.853 28.35 340.899 28.59 339.675 28.59ZM353.301 15.9V28.5H352.005V17.052H349.035V15.9H353.301ZM364.917 27.348V28.5H356.079V27.582L361.317 22.452C361.977 21.804 362.421 21.246 362.649 20.778C362.889 20.298 363.009 19.818 363.009 19.338C363.009 18.594 362.751 18.018 362.235 17.61C361.731 17.19 361.005 16.98 360.057 16.98C358.581 16.98 357.435 17.448 356.619 18.384L355.701 17.592C356.193 17.016 356.817 16.572 357.573 16.26C358.341 15.948 359.205 15.792 360.165 15.792C361.449 15.792 362.463 16.098 363.207 16.71C363.963 17.31 364.341 18.138 364.341 19.194C364.341 19.842 364.197 20.466 363.909 21.066C363.621 21.666 363.075 22.356 362.271 23.136L357.987 27.348H364.917ZM375.97 28.59C375.058 28.59 374.236 28.386 373.504 27.978C372.772 27.558 372.196 26.982 371.776 26.25C371.356 25.518 371.146 24.69 371.146 23.766C371.146 22.842 371.356 22.014 371.776 21.282C372.196 20.55 372.772 19.98 373.504 19.572C374.236 19.164 375.058 18.96 375.97 18.96C376.882 18.96 377.704 19.164 378.436 19.572C379.168 19.98 379.738 20.55 380.146 21.282C380.566 22.014 380.776 22.842 380.776 23.766C380.776 24.69 380.566 25.518 380.146 26.25C379.738 26.982 379.168 27.558 378.436 27.978C377.704 28.386 376.882 28.59 375.97 28.59ZM375.97 27.456C376.642 27.456 377.242 27.306 377.77 27.006C378.31 26.694 378.73 26.256 379.03 25.692C379.33 25.128 379.48 24.486 379.48 23.766C379.48 23.046 379.33 22.404 379.03 21.84C378.73 21.276 378.31 20.844 377.77 20.544C377.242 20.232 376.642 20.076 375.97 20.076C375.298 20.076 374.692 20.232 374.152 20.544C373.624 20.844 373.204 21.276 372.892 21.84C372.592 22.404 372.442 23.046 372.442 23.766C372.442 24.486 372.592 25.128 372.892 25.692C373.204 26.256 373.624 26.694 374.152 27.006C374.692 27.306 375.298 27.456 375.97 27.456ZM388.21 18.96C389.398 18.96 390.34 19.308 391.036 20.004C391.744 20.688 392.098 21.69 392.098 23.01V28.5H390.82V23.136C390.82 22.152 390.574 21.402 390.082 20.886C389.59 20.37 388.888 20.112 387.976 20.112C386.956 20.112 386.146 20.418 385.546 21.03C384.958 21.63 384.664 22.464 384.664 23.532V28.5H383.386V19.032H384.61V20.778C384.958 20.202 385.438 19.758 386.05 19.446C386.674 19.122 387.394 18.96 388.21 18.96ZM403.846 24.162H395.926C395.998 25.146 396.376 25.944 397.06 26.556C397.744 27.156 398.608 27.456 399.652 27.456C400.24 27.456 400.78 27.354 401.272 27.15C401.764 26.934 402.19 26.622 402.55 26.214L403.27 27.042C402.85 27.546 402.322 27.93 401.686 28.194C401.062 28.458 400.372 28.59 399.616 28.59C398.644 28.59 397.78 28.386 397.024 27.978C396.28 27.558 395.698 26.982 395.278 26.25C394.858 25.518 394.648 24.69 394.648 23.766C394.648 22.842 394.846 22.014 395.242 21.282C395.65 20.55 396.202 19.98 396.898 19.572C397.606 19.164 398.398 18.96 399.274 18.96C400.15 18.96 400.936 19.164 401.632 19.572C402.328 19.98 402.874 20.55 403.27 21.282C403.666 22.002 403.864 22.83 403.864 23.766L403.846 24.162ZM399.274 20.058C398.362 20.058 397.594 20.352 396.97 20.94C396.358 21.516 396.01 22.272 395.926 23.208H402.64C402.556 22.272 402.202 21.516 401.578 20.94C400.966 20.352 400.198 20.058 399.274 20.058ZM409.004 28.59C408.236 28.59 407.498 28.482 406.79 28.266C406.094 28.038 405.548 27.756 405.152 27.42L405.728 26.412C406.124 26.724 406.622 26.982 407.222 27.186C407.822 27.378 408.446 27.474 409.094 27.474C409.958 27.474 410.594 27.342 411.002 27.078C411.422 26.802 411.632 26.418 411.632 25.926C411.632 25.578 411.518 25.308 411.29 25.116C411.062 24.912 410.774 24.762 410.426 24.666C410.078 24.558 409.616 24.456 409.04 24.36C408.272 24.216 407.654 24.072 407.186 23.928C406.718 23.772 406.316 23.514 405.98 23.154C405.656 22.794 405.494 22.296 405.494 21.66C405.494 20.868 405.824 20.22 406.484 19.716C407.144 19.212 408.062 18.96 409.238 18.96C409.85 18.96 410.462 19.044 411.074 19.212C411.686 19.368 412.19 19.578 412.586 19.842L412.028 20.868C411.248 20.328 410.318 20.058 409.238 20.058C408.422 20.058 407.804 20.202 407.384 20.49C406.976 20.778 406.772 21.156 406.772 21.624C406.772 21.984 406.886 22.272 407.114 22.488C407.354 22.704 407.648 22.866 407.996 22.974C408.344 23.07 408.824 23.172 409.436 23.28C410.192 23.424 410.798 23.568 411.254 23.712C411.71 23.856 412.1 24.102 412.424 24.45C412.748 24.798 412.91 25.278 412.91 25.89C412.91 26.718 412.562 27.378 411.866 27.87C411.182 28.35 410.228 28.59 409.004 28.59Z" fill="white"/>
<path d="M237 1H429V-1H237V1ZM433 5V40H435V5H433ZM429 44H237V46H429V44ZM233 40V5H231V40H233ZM237 44C234.791 44 233 42.2091 233 40H231C231 43.3137 233.686 46 237 46V44ZM433 40C433 42.2091 431.209 44 429 44V46C432.314 46 435 43.3137 435 40H433ZM429 1C431.209 1 433 2.79086 433 5H435C435 1.68629 432.314 -1 429 -1V1ZM237 -1C233.686 -1 231 1.68629 231 5H233C233 2.79086 234.791 1 237 1V-1Z" fill="#369CB7"/>
<path d="M485.054 21.3C486.374 21.372 487.376 21.732 488.06 22.38C488.756 23.016 489.104 23.85 489.104 24.882C489.104 25.602 488.93 26.244 488.582 26.808C488.234 27.36 487.718 27.798 487.034 28.122C486.35 28.446 485.516 28.608 484.532 28.608C483.62 28.608 482.756 28.464 481.94 28.176C481.136 27.876 480.488 27.48 479.996 26.988L480.626 25.962C481.046 26.394 481.604 26.748 482.3 27.024C482.996 27.288 483.74 27.42 484.532 27.42C485.564 27.42 486.362 27.198 486.926 26.754C487.49 26.298 487.772 25.674 487.772 24.882C487.772 24.102 487.49 23.49 486.926 23.046C486.362 22.602 485.51 22.38 484.37 22.38H483.47V21.426L486.962 17.052H480.518V15.9H488.618V16.818L485.054 21.3ZM501.473 27.924C501.233 28.14 500.933 28.308 500.573 28.428C500.225 28.536 499.859 28.59 499.475 28.59C498.587 28.59 497.903 28.35 497.423 27.87C496.943 27.39 496.703 26.712 496.703 25.836V20.112H495.011V19.032H496.703V16.962H497.981V19.032H500.861V20.112H497.981V25.764C497.981 26.328 498.119 26.76 498.395 27.06C498.683 27.348 499.091 27.492 499.619 27.492C499.883 27.492 500.135 27.45 500.375 27.366C500.627 27.282 500.843 27.162 501.023 27.006L501.473 27.924ZM511.71 24.162H503.79C503.862 25.146 504.24 25.944 504.924 26.556C505.608 27.156 506.472 27.456 507.516 27.456C508.104 27.456 508.644 27.354 509.136 27.15C509.628 26.934 510.054 26.622 510.414 26.214L511.134 27.042C510.714 27.546 510.186 27.93 509.55 28.194C508.926 28.458 508.236 28.59 507.48 28.59C506.508 28.59 505.644 28.386 504.888 27.978C504.144 27.558 503.562 26.982 503.142 26.25C502.722 25.518 502.512 24.69 502.512 23.766C502.512 22.842 502.71 22.014 503.106 21.282C503.514 20.55 504.066 19.98 504.762 19.572C505.47 19.164 506.262 18.96 507.138 18.96C508.014 18.96 508.8 19.164 509.496 19.572C510.192 19.98 510.738 20.55 511.134 21.282C511.53 22.002 511.728 22.83 511.728 23.766L511.71 24.162ZM507.138 20.058C506.226 20.058 505.458 20.352 504.834 20.94C504.222 21.516 503.874 22.272 503.79 23.208H510.504C510.42 22.272 510.066 21.516 509.442 20.94C508.83 20.352 508.062 20.058 507.138 20.058ZM519.153 18.96C520.341 18.96 521.283 19.308 521.979 20.004C522.687 20.688 523.041 21.69 523.041 23.01V28.5H521.763V23.136C521.763 22.152 521.517 21.402 521.025 20.886C520.533 20.37 519.831 20.112 518.919 20.112C517.899 20.112 517.089 20.418 516.489 21.03C515.901 21.63 515.607 22.464 515.607 23.532V28.5H514.329V19.032H515.553V20.778C515.901 20.202 516.381 19.758 516.993 19.446C517.617 19.122 518.337 18.96 519.153 18.96ZM529.049 28.59C528.281 28.59 527.543 28.482 526.835 28.266C526.139 28.038 525.593 27.756 525.197 27.42L525.773 26.412C526.169 26.724 526.667 26.982 527.267 27.186C527.867 27.378 528.491 27.474 529.139 27.474C530.003 27.474 530.639 27.342 531.047 27.078C531.467 26.802 531.677 26.418 531.677 25.926C531.677 25.578 531.563 25.308 531.335 25.116C531.107 24.912 530.819 24.762 530.471 24.666C530.123 24.558 529.661 24.456 529.085 24.36C528.317 24.216 527.699 24.072 527.231 23.928C526.763 23.772 526.361 23.514 526.025 23.154C525.701 22.794 525.539 22.296 525.539 21.66C525.539 20.868 525.869 20.22 526.529 19.716C527.189 19.212 528.107 18.96 529.283 18.96C529.895 18.96 530.507 19.044 531.119 19.212C531.731 19.368 532.235 19.578 532.631 19.842L532.073 20.868C531.293 20.328 530.363 20.058 529.283 20.058C528.467 20.058 527.849 20.202 527.429 20.49C527.021 20.778 526.817 21.156 526.817 21.624C526.817 21.984 526.931 22.272 527.159 22.488C527.399 22.704 527.693 22.866 528.041 22.974C528.389 23.07 528.869 23.172 529.481 23.28C530.237 23.424 530.843 23.568 531.299 23.712C531.755 23.856 532.145 24.102 532.469 24.45C532.793 24.798 532.955 25.278 532.955 25.89C532.955 26.718 532.607 27.378 531.911 27.87C531.227 28.35 530.273 28.59 529.049 28.59ZM544.906 18.96C545.794 18.96 546.598 19.164 547.318 19.572C548.038 19.968 548.602 20.532 549.01 21.264C549.418 21.996 549.622 22.83 549.622 23.766C549.622 24.714 549.418 25.554 549.01 26.286C548.602 27.018 548.038 27.588 547.318 27.996C546.61 28.392 545.806 28.59 544.906 28.59C544.138 28.59 543.442 28.434 542.818 28.122C542.206 27.798 541.702 27.33 541.306 26.718V31.992H540.028V19.032H541.252V20.904C541.636 20.28 542.14 19.8 542.764 19.464C543.4 19.128 544.114 18.96 544.906 18.96ZM544.816 27.456C545.476 27.456 546.076 27.306 546.616 27.006C547.156 26.694 547.576 26.256 547.876 25.692C548.188 25.128 548.344 24.486 548.344 23.766C548.344 23.046 548.188 22.41 547.876 21.858C547.576 21.294 547.156 20.856 546.616 20.544C546.076 20.232 545.476 20.076 544.816 20.076C544.144 20.076 543.538 20.232 542.998 20.544C542.47 20.856 542.05 21.294 541.738 21.858C541.438 22.41 541.288 23.046 541.288 23.766C541.288 24.486 541.438 25.128 541.738 25.692C542.05 26.256 542.47 26.694 542.998 27.006C543.538 27.306 544.144 27.456 544.816 27.456ZM552.227 15.144H553.505V28.5H552.227V15.144ZM565.593 19.032V28.5H564.369V26.772C564.033 27.348 563.571 27.798 562.983 28.122C562.395 28.434 561.723 28.59 560.967 28.59C559.731 28.59 558.753 28.248 558.033 27.564C557.325 26.868 556.971 25.854 556.971 24.522V19.032H558.249V24.396C558.249 25.392 558.495 26.148 558.987 26.664C559.479 27.18 560.181 27.438 561.093 27.438C562.089 27.438 562.875 27.138 563.451 26.538C564.027 25.926 564.315 25.08 564.315 24V19.032H565.593ZM571.711 28.59C570.943 28.59 570.205 28.482 569.497 28.266C568.801 28.038 568.255 27.756 567.859 27.42L568.435 26.412C568.831 26.724 569.329 26.982 569.929 27.186C570.529 27.378 571.153 27.474 571.801 27.474C572.665 27.474 573.301 27.342 573.709 27.078C574.129 26.802 574.339 26.418 574.339 25.926C574.339 25.578 574.225 25.308 573.997 25.116C573.769 24.912 573.481 24.762 573.133 24.666C572.785 24.558 572.323 24.456 571.747 24.36C570.979 24.216 570.361 24.072 569.893 23.928C569.425 23.772 569.023 23.514 568.687 23.154C568.363 22.794 568.201 22.296 568.201 21.66C568.201 20.868 568.531 20.22 569.191 19.716C569.851 19.212 570.769 18.96 571.945 18.96C572.557 18.96 573.169 19.044 573.781 19.212C574.393 19.368 574.897 19.578 575.293 19.842L574.735 20.868C573.955 20.328 573.025 20.058 571.945 20.058C571.129 20.058 570.511 20.202 570.091 20.49C569.683 20.778 569.479 21.156 569.479 21.624C569.479 21.984 569.593 22.272 569.821 22.488C570.061 22.704 570.355 22.866 570.703 22.974C571.051 23.07 571.531 23.172 572.143 23.28C572.899 23.424 573.505 23.568 573.961 23.712C574.417 23.856 574.807 24.102 575.131 24.45C575.455 24.798 575.617 25.278 575.617 25.89C575.617 26.718 575.269 27.378 574.573 27.87C573.889 28.35 572.935 28.59 571.711 28.59ZM585.336 15.9V28.5H584.04V17.052H581.07V15.9H585.336ZM592.632 21.3C593.952 21.372 594.954 21.732 595.638 22.38C596.334 23.016 596.682 23.85 596.682 24.882C596.682 25.602 596.508 26.244 596.16 26.808C595.812 27.36 595.296 27.798 594.612 28.122C593.928 28.446 593.094 28.608 592.11 28.608C591.198 28.608 590.334 28.464 589.518 28.176C588.714 27.876 588.066 27.48 587.574 26.988L588.204 25.962C588.624 26.394 589.182 26.748 589.878 27.024C590.574 27.288 591.318 27.42 592.11 27.42C593.142 27.42 593.94 27.198 594.504 26.754C595.068 26.298 595.35 25.674 595.35 24.882C595.35 24.102 595.068 23.49 594.504 23.046C593.94 22.602 593.088 22.38 591.948 22.38H591.048V21.426L594.54 17.052H588.096V15.9H596.196V16.818L592.632 21.3ZM607.935 28.59C607.023 28.59 606.201 28.386 605.469 27.978C604.737 27.558 604.161 26.982 603.741 26.25C603.321 25.518 603.111 24.69 603.111 23.766C603.111 22.842 603.321 22.014 603.741 21.282C604.161 20.55 604.737 19.98 605.469 19.572C606.201 19.164 607.023 18.96 607.935 18.96C608.847 18.96 609.669 19.164 610.401 19.572C611.133 19.98 611.703 20.55 612.111 21.282C612.531 22.014 612.741 22.842 612.741 23.766C612.741 24.69 612.531 25.518 612.111 26.25C611.703 26.982 611.133 27.558 610.401 27.978C609.669 28.386 608.847 28.59 607.935 28.59ZM607.935 27.456C608.607 27.456 609.207 27.306 609.735 27.006C610.275 26.694 610.695 26.256 610.995 25.692C611.295 25.128 611.445 24.486 611.445 23.766C611.445 23.046 611.295 22.404 610.995 21.84C610.695 21.276 610.275 20.844 609.735 20.544C609.207 20.232 608.607 20.076 607.935 20.076C607.263 20.076 606.657 20.232 606.117 20.544C605.589 20.844 605.169 21.276 604.857 21.84C604.557 22.404 604.407 23.046 604.407 23.766C604.407 24.486 604.557 25.128 604.857 25.692C605.169 26.256 605.589 26.694 606.117 27.006C606.657 27.306 607.263 27.456 607.935 27.456ZM620.174 18.96C621.362 18.96 622.304 19.308 623 20.004C623.708 20.688 624.062 21.69 624.062 23.01V28.5H622.784V23.136C622.784 22.152 622.538 21.402 622.046 20.886C621.554 20.37 620.852 20.112 619.94 20.112C618.92 20.112 618.11 20.418 617.51 21.03C616.922 21.63 616.628 22.464 616.628 23.532V28.5H615.35V19.032H616.574V20.778C616.922 20.202 617.402 19.758 618.014 19.446C618.638 19.122 619.358 18.96 620.174 18.96ZM635.811 24.162H627.891C627.963 25.146 628.341 25.944 629.025 26.556C629.709 27.156 630.573 27.456 631.617 27.456C632.205 27.456 632.745 27.354 633.237 27.15C633.729 26.934 634.155 26.622 634.515 26.214L635.235 27.042C634.815 27.546 634.287 27.93 633.651 28.194C633.027 28.458 632.337 28.59 631.581 28.59C630.609 28.59 629.745 28.386 628.989 27.978C628.245 27.558 627.663 26.982 627.243 26.25C626.823 25.518 626.613 24.69 626.613 23.766C626.613 22.842 626.811 22.014 627.207 21.282C627.615 20.55 628.167 19.98 628.863 19.572C629.571 19.164 630.363 18.96 631.239 18.96C632.115 18.96 632.901 19.164 633.597 19.572C634.293 19.98 634.839 20.55 635.235 21.282C635.631 22.002 635.829 22.83 635.829 23.766L635.811 24.162ZM631.239 20.058C630.327 20.058 629.559 20.352 628.935 20.94C628.323 21.516 627.975 22.272 627.891 23.208H634.605C634.521 22.272 634.167 21.516 633.543 20.94C632.931 20.352 632.163 20.058 631.239 20.058ZM640.968 28.59C640.2 28.59 639.462 28.482 638.754 28.266C638.058 28.038 637.512 27.756 637.116 27.42L637.692 26.412C638.088 26.724 638.586 26.982 639.186 27.186C639.786 27.378 640.41 27.474 641.058 27.474C641.922 27.474 642.558 27.342 642.966 27.078C643.386 26.802 643.596 26.418 643.596 25.926C643.596 25.578 643.482 25.308 643.254 25.116C643.026 24.912 642.738 24.762 642.39 24.666C642.042 24.558 641.58 24.456 641.004 24.36C640.236 24.216 639.618 24.072 639.15 23.928C638.682 23.772 638.28 23.514 637.944 23.154C637.62 22.794 637.458 22.296 637.458 21.66C637.458 20.868 637.788 20.22 638.448 19.716C639.108 19.212 640.026 18.96 641.202 18.96C641.814 18.96 642.426 19.044 643.038 19.212C643.65 19.368 644.154 19.578 644.55 19.842L643.992 20.868C643.212 20.328 642.282 20.058 641.202 20.058C640.386 20.058 639.768 20.202 639.348 20.49C638.94 20.778 638.736 21.156 638.736 21.624C638.736 21.984 638.85 22.272 639.078 22.488C639.318 22.704 639.612 22.866 639.96 22.974C640.308 23.07 640.788 23.172 641.4 23.28C642.156 23.424 642.762 23.568 643.218 23.712C643.674 23.856 644.064 24.102 644.388 24.45C644.712 24.798 644.874 25.278 644.874 25.89C644.874 26.718 644.526 27.378 643.83 27.87C643.146 28.35 642.192 28.59 640.968 28.59Z" fill="black"/>
<path d="M469 1H661V-1H469V1ZM665 5V40H667V5H665ZM661 44H469V46H661V44ZM465 40V5H463V40H465ZM469 44C466.791 44 465 42.2091 465 40H463C463 43.3137 465.686 46 469 46V44ZM665 40C665 42.2091 663.209 44 661 44V46C664.314 46 667 43.3137 667 40H665ZM661 1C663.209 1 665 2.79086 665 5H667C667 1.68629 664.314 -1 661 -1V1ZM469 -1C465.686 -1 463 1.68629 463 5H465C465 2.79086 466.791 1 469 1V-1Z" fill="#2F2F2F"/>
<path d="M116 80C116 77.2386 118.239 75 121 75H313C315.761 75 318 77.2386 318 80V115C318 117.761 315.761 120 313 120H121C118.239 120 116 117.761 116 115V80Z" fill="#369CB7"/>
<path d="M140.674 90.9V103.5H139.378V92.052H136.408V90.9H140.674ZM154.229 102.924C153.989 103.14 153.689 103.308 153.329 103.428C152.981 103.536 152.615 103.59 152.231 103.59C151.343 103.59 150.659 103.35 150.179 102.87C149.699 102.39 149.459 101.712 149.459 100.836V95.112H147.767V94.032H149.459V91.962H150.737V94.032H153.617V95.112H150.737V100.764C150.737 101.328 150.875 101.76 151.151 102.06C151.439 102.348 151.847 102.492 152.375 102.492C152.639 102.492 152.891 102.45 153.131 102.366C153.383 102.282 153.599 102.162 153.779 102.006L154.229 102.924ZM164.465 99.162H156.545C156.617 100.146 156.995 100.944 157.679 101.556C158.363 102.156 159.227 102.456 160.271 102.456C160.859 102.456 161.399 102.354 161.891 102.15C162.383 101.934 162.809 101.622 163.169 101.214L163.889 102.042C163.469 102.546 162.941 102.93 162.305 103.194C161.681 103.458 160.991 103.59 160.235 103.59C159.263 103.59 158.399 103.386 157.643 102.978C156.899 102.558 156.317 101.982 155.897 101.25C155.477 100.518 155.267 99.69 155.267 98.766C155.267 97.842 155.465 97.014 155.861 96.282C156.269 95.55 156.821 94.98 157.517 94.572C158.225 94.164 159.017 93.96 159.893 93.96C160.769 93.96 161.555 94.164 162.251 94.572C162.947 94.98 163.493 95.55 163.889 96.282C164.285 97.002 164.483 97.83 164.483 98.766L164.465 99.162ZM159.893 95.058C158.981 95.058 158.213 95.352 157.589 95.94C156.977 96.516 156.629 97.272 156.545 98.208H163.259C163.175 97.272 162.821 96.516 162.197 95.94C161.585 95.352 160.817 95.058 159.893 95.058ZM171.909 93.96C173.097 93.96 174.039 94.308 174.735 95.004C175.443 95.688 175.797 96.69 175.797 98.01V103.5H174.519V98.136C174.519 97.152 174.273 96.402 173.781 95.886C173.289 95.37 172.587 95.112 171.675 95.112C170.655 95.112 169.845 95.418 169.245 96.03C168.657 96.63 168.363 97.464 168.363 98.532V103.5H167.085V94.032H168.309V95.778C168.657 95.202 169.137 94.758 169.749 94.446C170.373 94.122 171.093 93.96 171.909 93.96ZM188.855 93.96C189.743 93.96 190.547 94.164 191.267 94.572C191.987 94.968 192.551 95.532 192.959 96.264C193.367 96.996 193.571 97.83 193.571 98.766C193.571 99.714 193.367 100.554 192.959 101.286C192.551 102.018 191.987 102.588 191.267 102.996C190.559 103.392 189.755 103.59 188.855 103.59C188.087 103.59 187.391 103.434 186.767 103.122C186.155 102.798 185.651 102.33 185.255 101.718V106.992H183.977V94.032H185.201V95.904C185.585 95.28 186.089 94.8 186.713 94.464C187.349 94.128 188.063 93.96 188.855 93.96ZM188.765 102.456C189.425 102.456 190.025 102.306 190.565 102.006C191.105 101.694 191.525 101.256 191.825 100.692C192.137 100.128 192.293 99.486 192.293 98.766C192.293 98.046 192.137 97.41 191.825 96.858C191.525 96.294 191.105 95.856 190.565 95.544C190.025 95.232 189.425 95.076 188.765 95.076C188.093 95.076 187.487 95.232 186.947 95.544C186.419 95.856 185.999 96.294 185.687 96.858C185.387 97.41 185.237 98.046 185.237 98.766C185.237 99.486 185.387 100.128 185.687 100.692C185.999 101.256 186.419 101.694 186.947 102.006C187.487 102.306 188.093 102.456 188.765 102.456ZM196.177 90.144H197.455V103.5H196.177V90.144ZM209.543 94.032V103.5H208.319V101.772C207.983 102.348 207.521 102.798 206.933 103.122C206.345 103.434 205.673 103.59 204.917 103.59C203.681 103.59 202.703 103.248 201.983 102.564C201.275 101.868 200.921 100.854 200.921 99.522V94.032H202.199V99.396C202.199 100.392 202.445 101.148 202.937 101.664C203.429 102.18 204.131 102.438 205.043 102.438C206.039 102.438 206.825 102.138 207.401 101.538C207.977 100.926 208.265 100.08 208.265 99V94.032H209.543ZM215.66 103.59C214.892 103.59 214.154 103.482 213.446 103.266C212.75 103.038 212.204 102.756 211.808 102.42L212.384 101.412C212.78 101.724 213.278 101.982 213.878 102.186C214.478 102.378 215.102 102.474 215.75 102.474C216.614 102.474 217.25 102.342 217.658 102.078C218.078 101.802 218.288 101.418 218.288 100.926C218.288 100.578 218.174 100.308 217.946 100.116C217.718 99.912 217.43 99.762 217.082 99.666C216.734 99.558 216.272 99.456 215.696 99.36C214.928 99.216 214.31 99.072 213.842 98.928C213.374 98.772 212.972 98.514 212.636 98.154C212.312 97.794 212.15 97.296 212.15 96.66C212.15 95.868 212.48 95.22 213.14 94.716C213.8 94.212 214.718 93.96 215.894 93.96C216.506 93.96 217.118 94.044 217.73 94.212C218.342 94.368 218.846 94.578 219.242 94.842L218.684 95.868C217.904 95.328 216.974 95.058 215.894 95.058C215.078 95.058 214.46 95.202 214.04 95.49C213.632 95.778 213.428 96.156 213.428 96.624C213.428 96.984 213.542 97.272 213.77 97.488C214.01 97.704 214.304 97.866 214.652 97.974C215 98.07 215.48 98.172 216.092 98.28C216.848 98.424 217.454 98.568 217.91 98.712C218.366 98.856 218.756 99.102 219.08 99.45C219.404 99.798 219.566 100.278 219.566 100.89C219.566 101.718 219.218 102.378 218.522 102.87C217.838 103.35 216.884 103.59 215.66 103.59ZM230.077 96.3C231.397 96.372 232.399 96.732 233.083 97.38C233.779 98.016 234.127 98.85 234.127 99.882C234.127 100.602 233.953 101.244 233.605 101.808C233.257 102.36 232.741 102.798 232.057 103.122C231.373 103.446 230.539 103.608 229.555 103.608C228.643 103.608 227.779 103.464 226.963 103.176C226.159 102.876 225.511 102.48 225.019 101.988L225.649 100.962C226.069 101.394 226.627 101.748 227.323 102.024C228.019 102.288 228.763 102.42 229.555 102.42C230.587 102.42 231.385 102.198 231.949 101.754C232.513 101.298 232.795 100.674 232.795 99.882C232.795 99.102 232.513 98.49 231.949 98.046C231.385 97.602 230.533 97.38 229.393 97.38H228.493V96.426L231.985 92.052H225.541V90.9H233.641V91.818L230.077 96.3ZM244.47 102.348V103.5H235.632V102.582L240.87 97.452C241.53 96.804 241.974 96.246 242.202 95.778C242.442 95.298 242.562 94.818 242.562 94.338C242.562 93.594 242.304 93.018 241.788 92.61C241.284 92.19 240.558 91.98 239.61 91.98C238.134 91.98 236.988 92.448 236.172 93.384L235.254 92.592C235.746 92.016 236.37 91.572 237.126 91.26C237.894 90.948 238.758 90.792 239.718 90.792C241.002 90.792 242.016 91.098 242.76 91.71C243.516 92.31 243.894 93.138 243.894 94.194C243.894 94.842 243.75 95.466 243.462 96.066C243.174 96.666 242.628 97.356 241.824 98.136L237.54 102.348H244.47ZM255.523 103.59C254.611 103.59 253.789 103.386 253.057 102.978C252.325 102.558 251.749 101.982 251.329 101.25C250.909 100.518 250.699 99.69 250.699 98.766C250.699 97.842 250.909 97.014 251.329 96.282C251.749 95.55 252.325 94.98 253.057 94.572C253.789 94.164 254.611 93.96 255.523 93.96C256.435 93.96 257.257 94.164 257.989 94.572C258.721 94.98 259.291 95.55 259.699 96.282C260.119 97.014 260.329 97.842 260.329 98.766C260.329 99.69 260.119 100.518 259.699 101.25C259.291 101.982 258.721 102.558 257.989 102.978C257.257 103.386 256.435 103.59 255.523 103.59ZM255.523 102.456C256.195 102.456 256.795 102.306 257.323 102.006C257.863 101.694 258.283 101.256 258.583 100.692C258.883 100.128 259.033 99.486 259.033 98.766C259.033 98.046 258.883 97.404 258.583 96.84C258.283 96.276 257.863 95.844 257.323 95.544C256.795 95.232 256.195 95.076 255.523 95.076C254.851 95.076 254.245 95.232 253.705 95.544C253.177 95.844 252.757 96.276 252.445 96.84C252.145 97.404 251.995 98.046 251.995 98.766C251.995 99.486 252.145 100.128 252.445 100.692C252.757 101.256 253.177 101.694 253.705 102.006C254.245 102.306 254.851 102.456 255.523 102.456ZM267.762 93.96C268.95 93.96 269.892 94.308 270.588 95.004C271.296 95.688 271.65 96.69 271.65 98.01V103.5H270.372V98.136C270.372 97.152 270.126 96.402 269.634 95.886C269.142 95.37 268.44 95.112 267.528 95.112C266.508 95.112 265.698 95.418 265.098 96.03C264.51 96.63 264.216 97.464 264.216 98.532V103.5H262.938V94.032H264.162V95.778C264.51 95.202 264.99 94.758 265.602 94.446C266.226 94.122 266.946 93.96 267.762 93.96ZM283.399 99.162H275.479C275.551 100.146 275.929 100.944 276.613 101.556C277.297 102.156 278.161 102.456 279.205 102.456C279.793 102.456 280.333 102.354 280.825 102.15C281.317 101.934 281.743 101.622 282.103 101.214L282.823 102.042C282.403 102.546 281.875 102.93 281.239 103.194C280.615 103.458 279.925 103.59 279.169 103.59C278.197 103.59 277.333 103.386 276.577 102.978C275.833 102.558 275.251 101.982 274.831 101.25C274.411 100.518 274.201 99.69 274.201 98.766C274.201 97.842 274.399 97.014 274.795 96.282C275.203 95.55 275.755 94.98 276.451 94.572C277.159 94.164 277.951 93.96 278.827 93.96C279.703 93.96 280.489 94.164 281.185 94.572C281.881 94.98 282.427 95.55 282.823 96.282C283.219 97.002 283.417 97.83 283.417 98.766L283.399 99.162ZM278.827 95.058C277.915 95.058 277.147 95.352 276.523 95.94C275.911 96.516 275.563 97.272 275.479 98.208H282.193C282.109 97.272 281.755 96.516 281.131 95.94C280.519 95.352 279.751 95.058 278.827 95.058ZM288.556 103.59C287.788 103.59 287.05 103.482 286.342 103.266C285.646 103.038 285.1 102.756 284.704 102.42L285.28 101.412C285.676 101.724 286.174 101.982 286.774 102.186C287.374 102.378 287.998 102.474 288.646 102.474C289.51 102.474 290.146 102.342 290.554 102.078C290.974 101.802 291.184 101.418 291.184 100.926C291.184 100.578 291.07 100.308 290.842 100.116C290.614 99.912 290.326 99.762 289.978 99.666C289.63 99.558 289.168 99.456 288.592 99.36C287.824 99.216 287.206 99.072 286.738 98.928C286.27 98.772 285.868 98.514 285.532 98.154C285.208 97.794 285.046 97.296 285.046 96.66C285.046 95.868 285.376 95.22 286.036 94.716C286.696 94.212 287.614 93.96 288.79 93.96C289.402 93.96 290.014 94.044 290.626 94.212C291.238 94.368 291.742 94.578 292.138 94.842L291.58 95.868C290.8 95.328 289.87 95.058 288.79 95.058C287.974 95.058 287.356 95.202 286.936 95.49C286.528 95.778 286.324 96.156 286.324 96.624C286.324 96.984 286.438 97.272 286.666 97.488C286.906 97.704 287.2 97.866 287.548 97.974C287.896 98.07 288.376 98.172 288.988 98.28C289.744 98.424 290.35 98.568 290.806 98.712C291.262 98.856 291.652 99.102 291.976 99.45C292.3 99.798 292.462 100.278 292.462 100.89C292.462 101.718 292.114 102.378 291.418 102.87C290.734 103.35 289.78 103.59 288.556 103.59Z" fill="white"/>
<path d="M121 76H313V74H121V76ZM317 80V115H319V80H317ZM313 119H121V121H313V119ZM117 115V80H115V115H117ZM121 119C118.791 119 117 117.209 117 115H115C115 118.314 117.686 121 121 121V119ZM317 115C317 117.209 315.209 119 313 119V121C316.314 121 319 118.314 319 115H317ZM313 76C315.209 76 317 77.7909 317 80H319C319 76.6863 316.314 74 313 74V76ZM121 74C117.686 74 115 76.6863 115 80H117C117 77.7909 118.791 76 121 76V74Z" fill="#369CB7"/>
<path d="M376.992 100.188H374.472V103.5H373.176V100.188H366.066V99.252L372.744 90.9H374.184L367.74 99.036H373.212V96.12H374.472V99.036H376.992V100.188ZM388.725 102.924C388.485 103.14 388.185 103.308 387.825 103.428C387.477 103.536 387.111 103.59 386.727 103.59C385.839 103.59 385.155 103.35 384.675 102.87C384.195 102.39 383.955 101.712 383.955 100.836V95.112H382.263V94.032H383.955V91.962H385.233V94.032H388.113V95.112H385.233V100.764C385.233 101.328 385.371 101.76 385.647 102.06C385.935 102.348 386.343 102.492 386.871 102.492C387.135 102.492 387.387 102.45 387.627 102.366C387.879 102.282 388.095 102.162 388.275 102.006L388.725 102.924ZM398.962 99.162H391.042C391.114 100.146 391.492 100.944 392.176 101.556C392.86 102.156 393.724 102.456 394.768 102.456C395.356 102.456 395.896 102.354 396.388 102.15C396.88 101.934 397.306 101.622 397.666 101.214L398.386 102.042C397.966 102.546 397.438 102.93 396.802 103.194C396.178 103.458 395.488 103.59 394.732 103.59C393.76 103.59 392.896 103.386 392.14 102.978C391.396 102.558 390.814 101.982 390.394 101.25C389.974 100.518 389.764 99.69 389.764 98.766C389.764 97.842 389.962 97.014 390.358 96.282C390.766 95.55 391.318 94.98 392.014 94.572C392.722 94.164 393.514 93.96 394.39 93.96C395.266 93.96 396.052 94.164 396.748 94.572C397.444 94.98 397.99 95.55 398.386 96.282C398.782 97.002 398.98 97.83 398.98 98.766L398.962 99.162ZM394.39 95.058C393.478 95.058 392.71 95.352 392.086 95.94C391.474 96.516 391.126 97.272 391.042 98.208H397.756C397.672 97.272 397.318 96.516 396.694 95.94C396.082 95.352 395.314 95.058 394.39 95.058ZM406.405 93.96C407.593 93.96 408.535 94.308 409.231 95.004C409.939 95.688 410.293 96.69 410.293 98.01V103.5H409.015V98.136C409.015 97.152 408.769 96.402 408.277 95.886C407.785 95.37 407.083 95.112 406.171 95.112C405.151 95.112 404.341 95.418 403.741 96.03C403.153 96.63 402.859 97.464 402.859 98.532V103.5H401.581V94.032H402.805V95.778C403.153 95.202 403.633 94.758 404.245 94.446C404.869 94.122 405.589 93.96 406.405 93.96ZM416.3 103.59C415.532 103.59 414.794 103.482 414.086 103.266C413.39 103.038 412.844 102.756 412.448 102.42L413.024 101.412C413.42 101.724 413.918 101.982 414.518 102.186C415.118 102.378 415.742 102.474 416.39 102.474C417.254 102.474 417.89 102.342 418.298 102.078C418.718 101.802 418.928 101.418 418.928 100.926C418.928 100.578 418.814 100.308 418.586 100.116C418.358 99.912 418.07 99.762 417.722 99.666C417.374 99.558 416.912 99.456 416.336 99.36C415.568 99.216 414.95 99.072 414.482 98.928C414.014 98.772 413.612 98.514 413.276 98.154C412.952 97.794 412.79 97.296 412.79 96.66C412.79 95.868 413.12 95.22 413.78 94.716C414.44 94.212 415.358 93.96 416.534 93.96C417.146 93.96 417.758 94.044 418.37 94.212C418.982 94.368 419.486 94.578 419.882 94.842L419.324 95.868C418.544 95.328 417.614 95.058 416.534 95.058C415.718 95.058 415.1 95.202 414.68 95.49C414.272 95.778 414.068 96.156 414.068 96.624C414.068 96.984 414.182 97.272 414.41 97.488C414.65 97.704 414.944 97.866 415.292 97.974C415.64 98.07 416.12 98.172 416.732 98.28C417.488 98.424 418.094 98.568 418.55 98.712C419.006 98.856 419.396 99.102 419.72 99.45C420.044 99.798 420.206 100.278 420.206 100.89C420.206 101.718 419.858 102.378 419.162 102.87C418.478 103.35 417.524 103.59 416.3 103.59ZM432.158 93.96C433.046 93.96 433.85 94.164 434.57 94.572C435.29 94.968 435.854 95.532 436.262 96.264C436.67 96.996 436.874 97.83 436.874 98.766C436.874 99.714 436.67 100.554 436.262 101.286C435.854 102.018 435.29 102.588 434.57 102.996C433.862 103.392 433.058 103.59 432.158 103.59C431.39 103.59 430.694 103.434 430.07 103.122C429.458 102.798 428.954 102.33 428.558 101.718V106.992H427.28V94.032H428.504V95.904C428.888 95.28 429.392 94.8 430.016 94.464C430.652 94.128 431.366 93.96 432.158 93.96ZM432.068 102.456C432.728 102.456 433.328 102.306 433.868 102.006C434.408 101.694 434.828 101.256 435.128 100.692C435.44 100.128 435.596 99.486 435.596 98.766C435.596 98.046 435.44 97.41 435.128 96.858C434.828 96.294 434.408 95.856 433.868 95.544C433.328 95.232 432.728 95.076 432.068 95.076C431.396 95.076 430.79 95.232 430.25 95.544C429.722 95.856 429.302 96.294 428.99 96.858C428.69 97.41 428.54 98.046 428.54 98.766C428.54 99.486 428.69 100.128 428.99 100.692C429.302 101.256 429.722 101.694 430.25 102.006C430.79 102.306 431.396 102.456 432.068 102.456ZM439.479 90.144H440.757V103.5H439.479V90.144ZM452.845 94.032V103.5H451.621V101.772C451.285 102.348 450.823 102.798 450.235 103.122C449.647 103.434 448.975 103.59 448.219 103.59C446.983 103.59 446.005 103.248 445.285 102.564C444.577 101.868 444.223 100.854 444.223 99.522V94.032H445.501V99.396C445.501 100.392 445.747 101.148 446.239 101.664C446.731 102.18 447.433 102.438 448.345 102.438C449.341 102.438 450.127 102.138 450.703 101.538C451.279 100.926 451.567 100.08 451.567 99V94.032H452.845ZM458.963 103.59C458.195 103.59 457.457 103.482 456.749 103.266C456.053 103.038 455.507 102.756 455.111 102.42L455.687 101.412C456.083 101.724 456.581 101.982 457.181 102.186C457.781 102.378 458.405 102.474 459.053 102.474C459.917 102.474 460.553 102.342 460.961 102.078C461.381 101.802 461.591 101.418 461.591 100.926C461.591 100.578 461.477 100.308 461.249 100.116C461.021 99.912 460.733 99.762 460.385 99.666C460.037 99.558 459.575 99.456 458.999 99.36C458.231 99.216 457.613 99.072 457.145 98.928C456.677 98.772 456.275 98.514 455.939 98.154C455.615 97.794 455.453 97.296 455.453 96.66C455.453 95.868 455.783 95.22 456.443 94.716C457.103 94.212 458.021 93.96 459.197 93.96C459.809 93.96 460.421 94.044 461.033 94.212C461.645 94.368 462.149 94.578 462.545 94.842L461.987 95.868C461.207 95.328 460.277 95.058 459.197 95.058C458.381 95.058 457.763 95.202 457.343 95.49C456.935 95.778 456.731 96.156 456.731 96.624C456.731 96.984 456.845 97.272 457.073 97.488C457.313 97.704 457.607 97.866 457.955 97.974C458.303 98.07 458.783 98.172 459.395 98.28C460.151 98.424 460.757 98.568 461.213 98.712C461.669 98.856 462.059 99.102 462.383 99.45C462.707 99.798 462.869 100.278 462.869 100.89C462.869 101.718 462.521 102.378 461.825 102.87C461.141 103.35 460.187 103.59 458.963 103.59ZM479.806 100.188H477.286V103.5H475.99V100.188H468.88V99.252L475.558 90.9H476.998L470.554 99.036H476.026V96.12H477.286V99.036H479.806V100.188ZM490.423 103.59C489.511 103.59 488.689 103.386 487.957 102.978C487.225 102.558 486.649 101.982 486.229 101.25C485.809 100.518 485.599 99.69 485.599 98.766C485.599 97.842 485.809 97.014 486.229 96.282C486.649 95.55 487.225 94.98 487.957 94.572C488.689 94.164 489.511 93.96 490.423 93.96C491.335 93.96 492.157 94.164 492.889 94.572C493.621 94.98 494.191 95.55 494.599 96.282C495.019 97.014 495.229 97.842 495.229 98.766C495.229 99.69 495.019 100.518 494.599 101.25C494.191 101.982 493.621 102.558 492.889 102.978C492.157 103.386 491.335 103.59 490.423 103.59ZM490.423 102.456C491.095 102.456 491.695 102.306 492.223 102.006C492.763 101.694 493.183 101.256 493.483 100.692C493.783 100.128 493.933 99.486 493.933 98.766C493.933 98.046 493.783 97.404 493.483 96.84C493.183 96.276 492.763 95.844 492.223 95.544C491.695 95.232 491.095 95.076 490.423 95.076C489.751 95.076 489.145 95.232 488.605 95.544C488.077 95.844 487.657 96.276 487.345 96.84C487.045 97.404 486.895 98.046 486.895 98.766C486.895 99.486 487.045 100.128 487.345 100.692C487.657 101.256 488.077 101.694 488.605 102.006C489.145 102.306 489.751 102.456 490.423 102.456ZM502.663 93.96C503.851 93.96 504.793 94.308 505.489 95.004C506.197 95.688 506.551 96.69 506.551 98.01V103.5H505.273V98.136C505.273 97.152 505.027 96.402 504.535 95.886C504.043 95.37 503.341 95.112 502.429 95.112C501.409 95.112 500.599 95.418 499.999 96.03C499.411 96.63 499.117 97.464 499.117 98.532V103.5H497.839V94.032H499.063V95.778C499.411 95.202 499.891 94.758 500.503 94.446C501.127 94.122 501.847 93.96 502.663 93.96ZM518.299 99.162H510.379C510.451 100.146 510.829 100.944 511.513 101.556C512.197 102.156 513.061 102.456 514.105 102.456C514.693 102.456 515.233 102.354 515.725 102.15C516.217 101.934 516.643 101.622 517.003 101.214L517.723 102.042C517.303 102.546 516.775 102.93 516.139 103.194C515.515 103.458 514.825 103.59 514.069 103.59C513.097 103.59 512.233 103.386 511.477 102.978C510.733 102.558 510.151 101.982 509.731 101.25C509.311 100.518 509.101 99.69 509.101 98.766C509.101 97.842 509.299 97.014 509.695 96.282C510.103 95.55 510.655 94.98 511.351 94.572C512.059 94.164 512.851 93.96 513.727 93.96C514.603 93.96 515.389 94.164 516.085 94.572C516.781 94.98 517.327 95.55 517.723 96.282C518.119 97.002 518.317 97.83 518.317 98.766L518.299 99.162ZM513.727 95.058C512.815 95.058 512.047 95.352 511.423 95.94C510.811 96.516 510.463 97.272 510.379 98.208H517.093C517.009 97.272 516.655 96.516 516.031 95.94C515.419 95.352 514.651 95.058 513.727 95.058ZM523.457 103.59C522.689 103.59 521.951 103.482 521.243 103.266C520.547 103.038 520.001 102.756 519.605 102.42L520.181 101.412C520.577 101.724 521.075 101.982 521.675 102.186C522.275 102.378 522.899 102.474 523.547 102.474C524.411 102.474 525.047 102.342 525.455 102.078C525.875 101.802 526.085 101.418 526.085 100.926C526.085 100.578 525.971 100.308 525.743 100.116C525.515 99.912 525.227 99.762 524.879 99.666C524.531 99.558 524.069 99.456 523.493 99.36C522.725 99.216 522.107 99.072 521.639 98.928C521.171 98.772 520.769 98.514 520.433 98.154C520.109 97.794 519.947 97.296 519.947 96.66C519.947 95.868 520.277 95.22 520.937 94.716C521.597 94.212 522.515 93.96 523.691 93.96C524.303 93.96 524.915 94.044 525.527 94.212C526.139 94.368 526.643 94.578 527.039 94.842L526.481 95.868C525.701 95.328 524.771 95.058 523.691 95.058C522.875 95.058 522.257 95.202 521.837 95.49C521.429 95.778 521.225 96.156 521.225 96.624C521.225 96.984 521.339 97.272 521.567 97.488C521.807 97.704 522.101 97.866 522.449 97.974C522.797 98.07 523.277 98.172 523.889 98.28C524.645 98.424 525.251 98.568 525.707 98.712C526.163 98.856 526.553 99.102 526.877 99.45C527.201 99.798 527.363 100.278 527.363 100.89C527.363 101.718 527.015 102.378 526.319 102.87C525.635 103.35 524.681 103.59 523.457 103.59Z" fill="black"/>
<path d="M353 76H545V74H353V76ZM549 80V115H551V80H549ZM545 119H353V121H545V119ZM349 115V80H347V115H349ZM353 119C350.791 119 349 117.209 349 115H347C347 118.314 349.686 121 353 121V119ZM549 115C549 117.209 547.209 119 545 119V121C548.314 121 551 118.314 551 115H549ZM545 76C547.209 76 549 77.7909 549 80H551C551 76.6863 548.314 74 545 74V76ZM353 74C349.686 74 347 76.6863 347 80H349C349 77.7909 350.791 76 353 76V74Z" fill="#2F2F2F"/>
</svg>
