<svg width="768" height="371" viewBox="0 0 768 371" fill="none" xmlns="http://www.w3.org/2000/svg">
<line x1="54.9562" y1="275.247" x2="356.362" y2="275.247" stroke="#A1B9BC" stroke-width="1.08811" stroke-dasharray="2.18 2.18"/>
<line x1="54.9562" y1="233.899" x2="356.362" y2="233.899" stroke="#A1B9BC" stroke-width="1.08811" stroke-dasharray="2.18 2.18"/>
<line x1="54.9562" y1="192.55" x2="356.362" y2="192.55" stroke="#A1B9BC" stroke-width="1.08811" stroke-dasharray="2.18 2.18"/>
<line x1="54.9562" y1="151.203" x2="356.362" y2="151.203" stroke="#A1B9BC" stroke-width="1.08811" stroke-dasharray="2.18 2.18"/>
<line x1="54.9562" y1="109.854" x2="356.362" y2="109.854" stroke="#A1B9BC" stroke-width="1.08811" stroke-dasharray="2.18 2.18"/>
<line x1="54.9562" y1="67.4193" x2="356.362" y2="67.4193" stroke="#A1B9BC" stroke-width="1.08811" stroke-dasharray="2.18 2.18"/>
<line x1="54.9562" y1="26.0702" x2="356.362" y2="26.0702" stroke="#A1B9BC" stroke-width="1.08811" stroke-dasharray="2.18 2.18"/>
<path d="M52.0478 317.2C52.0478 318.645 51.7761 319.737 51.2328 320.474C50.694 321.206 49.8721 321.572 48.767 321.572C47.6803 321.572 46.8607 321.215 46.3081 320.501C45.7602 319.783 45.4793 318.721 45.4655 317.317V315.577C45.4655 314.131 45.7349 313.046 46.2736 312.323C46.8169 311.6 47.6435 311.239 48.7532 311.239C49.8537 311.239 50.6733 311.591 51.2121 312.296C51.7554 313 52.034 314.055 52.0478 315.459V317.2ZM50.3694 315.321C50.3694 314.377 50.2405 313.686 49.9826 313.249C49.7248 312.807 49.315 312.586 48.7532 312.586C48.2052 312.586 47.8023 312.795 47.5445 313.214C47.2866 313.629 47.1508 314.278 47.137 315.162V317.441C47.137 318.381 47.2682 319.081 47.5307 319.541C47.7931 320.002 48.2052 320.232 48.767 320.232C49.3057 320.232 49.704 320.02 49.9619 319.596C50.2198 319.168 50.3556 318.5 50.3694 317.593V315.321Z" fill="#637173"/>
<path d="M50.0379 280.087H48.3664V272.013L45.9006 272.855V271.439L49.8238 269.996H50.0379V280.087Z" fill="#637173"/>
<path d="M52.255 238.739H45.4931V237.585L48.843 233.932C49.3265 233.393 49.6695 232.944 49.8721 232.585C50.0793 232.221 50.1829 231.857 50.1829 231.493C50.1829 231.015 50.0471 230.628 49.7754 230.333C49.5084 230.038 49.1469 229.891 48.691 229.891C48.1477 229.891 47.7264 230.057 47.4271 230.388C47.1278 230.72 46.9781 231.173 46.9781 231.749H45.2997C45.2997 231.137 45.4379 230.586 45.7141 230.098C45.995 229.606 46.3933 229.223 46.909 228.952C47.4294 228.68 48.028 228.544 48.7048 228.544C49.681 228.544 50.45 228.79 51.0118 229.283C51.5781 229.771 51.8613 230.448 51.8613 231.314C51.8613 231.816 51.7186 232.343 51.4331 232.896C51.1522 233.443 50.6894 234.067 50.0448 234.767L47.5859 237.399H52.255V238.739Z" fill="#637173"/>
<path d="M47.434 191.597H48.4562C48.9719 191.593 49.3794 191.459 49.6787 191.197C49.9826 190.934 50.1346 190.554 50.1346 190.057C50.1346 189.578 50.008 189.207 49.7547 188.945C49.506 188.678 49.1239 188.544 48.6081 188.544C48.1569 188.544 47.7862 188.676 47.4961 188.938C47.206 189.196 47.061 189.534 47.061 189.953H45.3826C45.3826 189.438 45.5184 188.968 45.7901 188.544C46.0664 188.121 46.4486 187.791 46.9367 187.557C47.4294 187.317 47.9796 187.197 48.5874 187.197C49.5912 187.197 50.3786 187.451 50.9496 187.957C51.5252 188.459 51.813 189.159 51.813 190.057C51.813 190.508 51.6679 190.934 51.3778 191.335C51.0923 191.731 50.7217 192.03 50.2658 192.233C50.8184 192.421 51.2374 192.718 51.5229 193.124C51.813 193.529 51.958 194.012 51.958 194.574C51.958 195.477 51.6472 196.195 51.0256 196.729C50.4086 197.263 49.5958 197.53 48.5874 197.53C47.6205 197.53 46.8285 197.272 46.2114 196.757C45.5944 196.241 45.2859 195.555 45.2859 194.698H46.9643C46.9643 195.14 47.1116 195.5 47.4063 195.776C47.7056 196.052 48.1062 196.19 48.6081 196.19C49.1285 196.19 49.5383 196.052 49.8376 195.776C50.1369 195.5 50.2865 195.099 50.2865 194.574C50.2865 194.045 50.13 193.637 49.8169 193.352C49.5037 193.066 49.0387 192.923 48.4217 192.923H47.434V191.597Z" fill="#637173"/>
<path d="M51.1706 152.457H52.4208V153.804H51.1706V156.042H49.4922V153.804H45.1478L45.0994 152.781L49.437 145.985H51.1706V152.457ZM46.8607 152.457H49.4922V148.257L49.3679 148.478L46.8607 152.457Z" fill="#637173"/>
<path d="M45.9421 109.707L46.4877 104.637H51.8889V106.087H47.8829L47.6066 108.491C48.0717 108.224 48.5966 108.09 49.1814 108.09C50.1392 108.09 50.8828 108.397 51.4124 109.009C51.9465 109.621 52.2136 110.446 52.2136 111.482C52.2136 112.504 51.9189 113.319 51.3295 113.927C50.7401 114.53 49.932 114.831 48.9051 114.831C47.9842 114.831 47.2199 114.571 46.612 114.051C46.0088 113.526 45.6819 112.835 45.6313 111.979H47.2544C47.3189 112.467 47.4938 112.842 47.7793 113.105C48.0648 113.363 48.4378 113.492 48.8982 113.492C49.414 113.492 49.8146 113.307 50.1 112.939C50.3901 112.571 50.5352 112.069 50.5352 111.433C50.5352 110.821 50.3763 110.337 50.0586 109.983C49.7409 109.624 49.3034 109.444 48.7463 109.444C48.4424 109.444 48.1845 109.486 47.9727 109.568C47.7609 109.647 47.5307 109.803 47.282 110.038L45.9421 109.707Z" fill="#637173"/>
<path d="M50.7148 62.1544V63.5427H50.5076C49.5682 63.5565 48.8177 63.8144 48.2559 64.3163C47.6941 64.8182 47.3603 65.5296 47.2544 66.4505C47.7931 65.8842 48.4815 65.601 49.3196 65.601C50.2083 65.601 50.9082 65.9141 51.4193 66.5403C51.935 67.1666 52.1928 67.9747 52.1928 68.9647C52.1928 69.9869 51.8912 70.8157 51.288 71.4512C50.6894 72.082 49.902 72.3974 48.9259 72.3974C47.9221 72.3974 47.107 72.0267 46.4808 71.2854C45.8592 70.5441 45.5484 69.5725 45.5484 68.3707V67.7974C45.5484 66.0338 45.9766 64.6524 46.8331 63.6532C47.6941 62.654 48.9305 62.1544 50.5421 62.1544H50.7148ZM48.9121 66.9548C48.5437 66.9548 48.2052 67.0584 47.8967 67.2656C47.5928 67.4728 47.3695 67.749 47.2268 68.0944V68.6055C47.2268 69.3515 47.3833 69.9455 47.6964 70.3875C48.0095 70.8249 48.4148 71.0437 48.9121 71.0437C49.4094 71.0437 49.803 70.8572 50.0931 70.4842C50.3832 70.1112 50.5283 69.6208 50.5283 69.013C50.5283 68.4052 50.3809 67.9102 50.0862 67.528C49.7915 67.1458 49.4001 66.9548 48.9121 66.9548Z" fill="#637173"/>
<path d="M52.1859 21.7861L48.1661 30.9102H46.4048L50.4178 22.2005H45.2168V20.8537H52.1859V21.7861Z" fill="#637173"/>
<path d="M15.7268 196.992L15.7268 199.402L9.46912 202.966H15.7268V205.39H5.67031V202.966L11.928 199.409H5.67031V196.992H15.7268ZM14.9187 191.114C15.5495 191.606 15.8649 192.272 15.8649 193.11C15.8649 193.929 15.6278 194.551 15.1535 194.975C14.6747 195.394 13.9886 195.603 13.0953 195.603H8.2535V193.276H13.1091C13.7491 193.276 14.0691 192.965 14.0691 192.343C14.0691 191.809 13.8781 191.429 13.4959 191.204H8.2535V188.862H15.7268V191.045L14.9187 191.114ZM8.2535 185.381L9.13068 185.305C8.45381 184.776 8.11537 184.064 8.11537 183.171C8.11537 182.227 8.49064 181.589 9.2412 181.258C8.49064 180.751 8.11537 180.019 8.11537 179.061C8.11537 177.546 9.03169 176.768 10.8643 176.727H15.7268V179.061H11.0094C10.6272 179.061 10.3486 179.126 10.1736 179.255C9.99866 179.383 9.91117 179.618 9.91117 179.959C9.91117 180.42 10.1161 180.763 10.5259 180.988L10.6226 180.981H15.7268V183.316H11.0232C10.6318 183.316 10.3486 183.378 10.1736 183.502C9.99866 183.627 9.91117 183.864 9.91117 184.214C9.91117 184.66 10.1161 185.001 10.5259 185.236H15.7268V187.564H8.2535V185.381ZM12.0523 168.459C13.2771 168.459 14.2188 168.712 14.8773 169.219C15.5357 169.725 15.8649 170.439 15.8649 171.36C15.8649 172.12 15.5633 172.732 14.9601 173.197L15.7268 173.294V175.38H5.11776L5.11776 173.052H8.85441C8.36171 172.619 8.11537 172.06 8.11537 171.374C8.11537 170.444 8.4492 169.725 9.11687 169.219C9.78454 168.712 10.7239 168.459 11.9349 168.459H12.0523ZM11.9073 170.794C11.189 170.794 10.6778 170.89 10.3739 171.084C10.0654 171.272 9.91117 171.565 9.91117 171.961C9.91117 172.486 10.1115 172.85 10.5121 173.052H13.4821C13.8781 172.854 14.076 172.486 14.076 171.947C14.076 171.399 13.809 171.051 13.2748 170.904C13.0124 170.83 12.5565 170.794 11.9073 170.794ZM15.8649 163.811C15.8649 164.957 15.5242 165.885 14.8427 166.594C14.1566 167.303 13.2656 167.658 12.1697 167.658H11.9763C11.212 167.658 10.5374 167.517 9.95261 167.236C9.36782 166.951 8.91657 166.537 8.59885 165.993C8.27653 165.45 8.11537 164.805 8.11537 164.059C8.11537 163.009 8.44229 162.181 9.09615 161.573C9.7454 160.965 10.6525 160.661 11.8175 160.661H12.7223V165.289C13.1413 165.206 13.4705 165.024 13.71 164.743C13.9494 164.462 14.0691 164.098 14.0691 163.652C14.0691 162.915 13.8113 162.339 13.2956 161.925L14.5526 160.861C14.9532 161.151 15.2733 161.564 15.5127 162.098C15.7475 162.627 15.8649 163.198 15.8649 163.811ZM9.91117 164.073C9.91117 164.755 10.3624 165.16 11.2649 165.289V162.94H11.0853C10.7124 162.931 10.4246 163.026 10.222 163.224C10.0148 163.422 9.91117 163.705 9.91117 164.073ZM10.3601 155.198L10.3049 155.964C10.3049 156.697 10.5351 157.166 10.9956 157.373H15.7268V159.701H8.2535V157.518L9.21357 157.442C8.48143 157.051 8.11537 156.505 8.11537 155.806C8.11537 155.557 8.14299 155.34 8.19825 155.156L10.3601 155.198Z" fill="#637173"/>
<path d="M166.078 364.169H162.756L162.176 366.048H159.586L163.274 355.991H165.554L169.269 366.048H166.666L166.078 364.169ZM163.336 362.297H165.498L164.414 358.809L163.336 362.297ZM171.708 358.575L171.784 359.452C172.299 358.775 173.011 358.436 173.918 358.436C174.696 358.436 175.276 358.669 175.658 359.134C176.045 359.599 176.245 360.299 176.259 361.234V366.048H173.925V361.33C173.925 360.953 173.849 360.677 173.697 360.502C173.545 360.322 173.269 360.232 172.868 360.232C172.412 360.232 172.074 360.412 171.853 360.771V366.048H169.525V358.575H171.708ZM180.01 366.048H177.675V358.575H180.01V366.048ZM177.537 356.648C177.537 356.316 177.657 356.044 177.896 355.832C178.136 355.621 178.447 355.515 178.829 355.515C179.211 355.515 179.522 355.621 179.761 355.832C180.001 356.044 180.12 356.316 180.12 356.648C180.12 356.979 180.001 357.251 179.761 357.463C179.522 357.674 179.211 357.78 178.829 357.78C178.447 357.78 178.136 357.674 177.896 357.463C177.657 357.251 177.537 356.979 177.537 356.648ZM183.65 358.575L183.726 359.452C184.255 358.775 184.967 358.436 185.86 358.436C186.804 358.436 187.442 358.812 187.773 359.562C188.28 358.812 189.012 358.436 189.97 358.436C191.484 358.436 192.263 359.353 192.304 361.185V366.048H189.97V361.33C189.97 360.948 189.905 360.67 189.776 360.495C189.647 360.32 189.412 360.232 189.072 360.232C188.611 360.232 188.268 360.437 188.043 360.847L188.049 360.944V366.048H185.715V361.344C185.715 360.953 185.653 360.67 185.528 360.495C185.404 360.32 185.167 360.232 184.817 360.232C184.37 360.232 184.03 360.437 183.795 360.847V366.048H181.467V358.575H183.65ZM197.843 366.048C197.761 365.896 197.687 365.673 197.622 365.378C197.194 365.917 196.596 366.186 195.827 366.186C195.122 366.186 194.524 365.974 194.031 365.551C193.538 365.122 193.292 364.586 193.292 363.941C193.292 363.131 193.591 362.518 194.19 362.104C194.788 361.69 195.659 361.482 196.801 361.482H197.519V361.089C197.519 360.403 197.222 360.06 196.628 360.06C196.075 360.06 195.799 360.331 195.799 360.875H193.471C193.471 360.152 193.778 359.565 194.39 359.113C195.007 358.662 195.792 358.436 196.745 358.436C197.698 358.436 198.451 358.669 199.004 359.134C199.556 359.599 199.84 360.237 199.853 361.047V364.356C199.863 365.042 199.969 365.567 200.171 365.93V366.048H197.843ZM196.386 364.528C196.676 364.528 196.916 364.466 197.104 364.342C197.298 364.218 197.436 364.077 197.519 363.921V362.726H196.842C196.032 362.726 195.626 363.089 195.626 363.817C195.626 364.029 195.698 364.201 195.84 364.335C195.983 364.464 196.165 364.528 196.386 364.528ZM203.604 366.048H201.269V355.439H203.604V366.048ZM208.957 363.948C208.957 363.75 208.853 363.591 208.646 363.472C208.439 363.352 208.045 363.228 207.465 363.099C206.885 362.97 206.406 362.802 206.028 362.594C205.651 362.383 205.363 362.127 205.165 361.828C204.967 361.528 204.868 361.185 204.868 360.799C204.868 360.112 205.151 359.548 205.717 359.106C206.284 358.66 207.025 358.436 207.941 358.436C208.927 358.436 209.719 358.66 210.317 359.106C210.916 359.553 211.215 360.14 211.215 360.868H208.881C208.881 360.269 208.565 359.97 207.935 359.97C207.69 359.97 207.486 360.039 207.32 360.177C207.154 360.31 207.071 360.479 207.071 360.681C207.071 360.888 207.172 361.056 207.375 361.185C207.578 361.314 207.9 361.42 208.342 361.503C208.789 361.586 209.18 361.685 209.516 361.8C210.64 362.187 211.201 362.88 211.201 363.879C211.201 364.561 210.898 365.115 210.29 365.544C209.687 365.972 208.904 366.186 207.941 366.186C207.301 366.186 206.73 366.071 206.228 365.841C205.727 365.61 205.335 365.297 205.054 364.901C204.773 364.505 204.633 364.089 204.633 363.651H206.809C206.818 363.996 206.933 364.25 207.154 364.411C207.375 364.567 207.658 364.646 208.004 364.646C208.321 364.646 208.558 364.581 208.715 364.452C208.876 364.323 208.957 364.155 208.957 363.948Z" fill="#637173"/>
<path d="M77.6029 328.92C76.4655 328.593 75.6367 328.193 75.1164 327.718C74.6007 327.24 74.3428 326.65 74.3428 325.95C74.3428 325.158 74.6582 324.504 75.2891 323.989C75.9245 323.468 76.7487 323.208 77.7617 323.208C78.4524 323.208 79.0671 323.342 79.6059 323.609C80.1492 323.876 80.5683 324.244 80.863 324.714C81.1623 325.184 81.3119 325.697 81.3119 326.254H79.9789C79.9789 325.646 79.7855 325.17 79.3987 324.824C79.0119 324.474 78.4662 324.299 77.7617 324.299C77.1079 324.299 76.5968 324.445 76.2284 324.735C75.8646 325.02 75.6828 325.418 75.6828 325.93C75.6828 326.339 75.8554 326.687 76.2008 326.972C76.5507 327.253 77.1424 327.511 77.9759 327.746C78.8139 327.981 79.4678 328.241 79.9374 328.527C80.4117 328.807 80.7617 329.137 80.9873 329.514C81.2175 329.892 81.3326 330.336 81.3326 330.847C81.3326 331.662 81.0149 332.316 80.3795 332.809C79.744 333.297 78.8945 333.541 77.8308 333.541C77.1401 333.541 76.4955 333.41 75.8969 333.147C75.2983 332.88 74.8355 332.516 74.5086 332.056C74.1862 331.596 74.0251 331.073 74.0251 330.488H75.3581C75.3581 331.096 75.5814 331.577 76.0281 331.932C76.4794 332.282 77.0803 332.457 77.8308 332.457C78.5307 332.457 79.0671 332.314 79.4401 332.028C79.8131 331.743 79.9996 331.354 79.9996 330.861C79.9996 330.368 79.8269 329.989 79.4816 329.721C79.1362 329.45 78.51 329.183 77.6029 328.92ZM84.1161 326.834C84.6825 326.139 85.4192 325.791 86.3263 325.791C87.9057 325.791 88.7023 326.682 88.7161 328.464V333.403H87.4384V328.457C87.4337 327.919 87.3094 327.52 87.0654 327.263C86.8259 327.005 86.4507 326.876 85.9395 326.876C85.5251 326.876 85.1614 326.986 84.8483 327.207C84.5351 327.428 84.2911 327.718 84.1161 328.078V333.403H82.8383V322.794H84.1161V326.834ZM93.7306 333.541C92.7176 333.541 91.8933 333.209 91.2579 332.546C90.6224 331.879 90.3047 330.988 90.3047 329.873V329.639C90.3047 328.897 90.4452 328.236 90.7261 327.656C91.0115 327.071 91.4075 326.616 91.914 326.289C92.4252 325.957 92.9777 325.791 93.5717 325.791C94.5433 325.791 95.2984 326.111 95.8372 326.751C96.3759 327.391 96.6453 328.308 96.6453 329.5V330.032H91.5825C91.6009 330.769 91.815 331.365 92.2249 331.821C92.6393 332.272 93.1642 332.498 93.7996 332.498C94.2509 332.498 94.6331 332.406 94.9462 332.222C95.2593 332.038 95.5333 331.794 95.7681 331.49L96.5486 332.097C95.9224 333.06 94.983 333.541 93.7306 333.541ZM93.5717 326.841C93.056 326.841 92.6232 327.03 92.2732 327.408C91.9233 327.781 91.7068 328.306 91.624 328.982H95.3675V328.886C95.3307 328.236 95.1557 327.735 94.8426 327.38C94.5295 327.021 94.1058 326.841 93.5717 326.841ZM101.232 333.541C100.218 333.541 99.3943 333.209 98.7588 332.546C98.1234 331.879 97.8057 330.988 97.8057 329.873V329.639C97.8057 328.897 97.9461 328.236 98.227 327.656C98.5125 327.071 98.9085 326.616 99.415 326.289C99.9261 325.957 100.479 325.791 101.073 325.791C102.044 325.791 102.799 326.111 103.338 326.751C103.877 327.391 104.146 328.308 104.146 329.5V330.032H99.0834C99.1019 330.769 99.316 331.365 99.7258 331.821C100.14 332.272 100.665 332.498 101.301 332.498C101.752 332.498 102.134 332.406 102.447 332.222C102.76 332.038 103.034 331.794 103.269 331.49L104.05 332.097C103.423 333.06 102.484 333.541 101.232 333.541ZM101.073 326.841C100.557 326.841 100.124 327.03 99.7741 327.408C99.4242 327.781 99.2078 328.306 99.1249 328.982H102.868V328.886C102.832 328.236 102.657 327.735 102.344 327.38C102.03 327.021 101.607 326.841 101.073 326.841ZM111.944 329.749C111.944 330.886 111.684 331.803 111.164 332.498C110.643 333.193 109.939 333.541 109.05 333.541C108.143 333.541 107.429 333.253 106.909 332.678V336.276H105.631V325.93H106.798L106.861 326.758C107.381 326.114 108.104 325.791 109.029 325.791C109.927 325.791 110.636 326.13 111.157 326.807C111.682 327.484 111.944 328.425 111.944 329.632V329.749ZM110.666 329.604C110.666 328.761 110.487 328.096 110.128 327.608C109.768 327.12 109.276 326.876 108.65 326.876C107.876 326.876 107.296 327.219 106.909 327.905V331.476C107.291 332.157 107.876 332.498 108.663 332.498C109.276 332.498 109.762 332.256 110.121 331.773C110.484 331.285 110.666 330.562 110.666 329.604Z" fill="#637173"/>
<path d="M157.901 329.466V333.403H156.575V323.346H160.284C161.384 323.346 162.245 323.627 162.867 324.189C163.493 324.751 163.806 325.494 163.806 326.42C163.806 327.396 163.5 328.149 162.887 328.678C162.28 329.203 161.407 329.466 160.27 329.466H157.901ZM157.901 328.381H160.284C160.993 328.381 161.536 328.216 161.914 327.884C162.291 327.548 162.48 327.065 162.48 326.434C162.48 325.835 162.291 325.356 161.914 324.997C161.536 324.638 161.018 324.451 160.36 324.438H157.901V328.381ZM166.686 333.403H165.408V325.93H166.686V333.403ZM165.305 323.947C165.305 323.74 165.367 323.565 165.491 323.422C165.62 323.28 165.809 323.208 166.058 323.208C166.306 323.208 166.495 323.28 166.624 323.422C166.753 323.565 166.817 323.74 166.817 323.947C166.817 324.154 166.753 324.327 166.624 324.465C166.495 324.603 166.306 324.672 166.058 324.672C165.809 324.672 165.62 324.603 165.491 324.465C165.367 324.327 165.305 324.154 165.305 323.947ZM168.434 329.604C168.434 328.439 168.703 327.514 169.242 326.827C169.781 326.137 170.494 325.791 171.383 325.791C172.295 325.791 173.006 326.114 173.517 326.758L173.579 325.93H174.747V333.223C174.747 334.19 174.459 334.952 173.883 335.509C173.312 336.067 172.543 336.345 171.576 336.345C171.038 336.345 170.51 336.23 169.995 336C169.479 335.77 169.085 335.454 168.814 335.054L169.477 334.287C170.025 334.964 170.695 335.302 171.487 335.302C172.108 335.302 172.592 335.127 172.937 334.777C173.287 334.427 173.462 333.935 173.462 333.299V332.657C172.951 333.246 172.253 333.541 171.369 333.541C170.494 333.541 169.785 333.189 169.242 332.484C168.703 331.78 168.434 330.82 168.434 329.604ZM169.718 329.749C169.718 330.592 169.891 331.255 170.236 331.738C170.582 332.217 171.065 332.457 171.687 332.457C172.493 332.457 173.084 332.091 173.462 331.358V327.946C173.071 327.233 172.483 326.876 171.701 326.876C171.079 326.876 170.593 327.118 170.243 327.601C169.893 328.084 169.718 328.801 169.718 329.749ZM181.032 331.421C181.032 331.075 180.901 330.808 180.638 330.619C180.38 330.426 179.927 330.26 179.278 330.122C178.633 329.984 178.12 329.818 177.737 329.625C177.36 329.431 177.079 329.201 176.895 328.934C176.715 328.667 176.625 328.349 176.625 327.981C176.625 327.368 176.883 326.85 177.399 326.427C177.919 326.003 178.582 325.791 179.388 325.791C180.235 325.791 180.921 326.01 181.446 326.448C181.976 326.885 182.241 327.444 182.241 328.126H180.956C180.956 327.776 180.806 327.474 180.507 327.221C180.212 326.968 179.839 326.841 179.388 326.841C178.923 326.841 178.559 326.943 178.297 327.145C178.034 327.348 177.903 327.613 177.903 327.939C177.903 328.248 178.025 328.48 178.269 328.637C178.513 328.794 178.953 328.943 179.588 329.086C180.228 329.229 180.746 329.399 181.142 329.597C181.538 329.795 181.831 330.035 182.02 330.315C182.213 330.592 182.31 330.93 182.31 331.331C182.31 331.998 182.043 332.535 181.509 332.94C180.974 333.341 180.281 333.541 179.43 333.541C178.831 333.541 178.301 333.435 177.841 333.223C177.381 333.011 177.019 332.717 176.757 332.339C176.499 331.957 176.37 331.545 176.37 331.103H177.648C177.671 331.531 177.841 331.872 178.159 332.125C178.481 332.374 178.905 332.498 179.43 332.498C179.913 332.498 180.3 332.401 180.59 332.208C180.885 332.01 181.032 331.747 181.032 331.421Z" fill="#637173"/>
<path d="M237.481 332.084C237.14 332.572 236.663 332.938 236.051 333.182C235.443 333.421 234.734 333.541 233.924 333.541C233.104 333.541 232.376 333.35 231.741 332.968C231.106 332.581 230.613 332.033 230.263 331.324C229.918 330.615 229.74 329.793 229.731 328.858V327.981C229.731 326.466 230.083 325.292 230.788 324.458C231.497 323.625 232.492 323.208 233.772 323.208C234.822 323.208 235.666 323.478 236.306 324.016C236.947 324.55 237.338 325.31 237.481 326.296H236.155C235.906 324.965 235.114 324.299 233.779 324.299C232.89 324.299 232.215 324.613 231.755 325.239C231.299 325.86 231.069 326.763 231.064 327.946V328.768C231.064 329.896 231.322 330.794 231.838 331.462C232.353 332.125 233.051 332.457 233.931 332.457C234.428 332.457 234.863 332.401 235.236 332.291C235.609 332.18 235.917 331.994 236.161 331.731V329.473H233.834V328.395H237.481V332.084ZM239.159 329.597C239.159 328.865 239.302 328.207 239.587 327.622C239.877 327.037 240.278 326.586 240.789 326.268C241.305 325.95 241.892 325.791 242.55 325.791C243.568 325.791 244.39 326.144 245.016 326.848C245.647 327.553 245.962 328.49 245.962 329.659V329.749C245.962 330.477 245.822 331.13 245.541 331.711C245.265 332.286 244.866 332.735 244.346 333.057C243.83 333.38 243.236 333.541 242.564 333.541C241.551 333.541 240.729 333.189 240.098 332.484C239.472 331.78 239.159 330.847 239.159 329.687V329.597ZM240.444 329.749C240.444 330.578 240.635 331.243 241.017 331.745C241.404 332.247 241.92 332.498 242.564 332.498C243.213 332.498 243.729 332.245 244.111 331.738C244.494 331.227 244.685 330.513 244.685 329.597C244.685 328.777 244.489 328.114 244.098 327.608C243.711 327.097 243.195 326.841 242.55 326.841C241.92 326.841 241.411 327.092 241.024 327.594C240.637 328.096 240.444 328.814 240.444 329.749ZM252.179 333.403C252.105 333.255 252.045 332.993 251.999 332.615C251.405 333.232 250.696 333.541 249.872 333.541C249.135 333.541 248.529 333.334 248.055 332.919C247.586 332.5 247.351 331.971 247.351 331.331C247.351 330.553 247.645 329.949 248.235 329.521C248.829 329.088 249.662 328.872 250.735 328.872H251.978V328.285C251.978 327.838 251.845 327.484 251.578 327.221C251.311 326.954 250.917 326.821 250.397 326.821C249.941 326.821 249.559 326.936 249.25 327.166C248.942 327.396 248.787 327.675 248.787 328.002H247.503C247.503 327.629 247.634 327.269 247.896 326.924C248.163 326.574 248.523 326.298 248.974 326.095C249.43 325.893 249.929 325.791 250.473 325.791C251.334 325.791 252.008 326.008 252.496 326.441C252.984 326.869 253.238 327.461 253.256 328.216V331.655C253.256 332.341 253.344 332.887 253.519 333.292V333.403H252.179ZM250.058 332.429C250.459 332.429 250.839 332.325 251.198 332.118C251.557 331.911 251.817 331.642 251.978 331.31V329.777H250.977C249.411 329.777 248.628 330.235 248.628 331.151C248.628 331.552 248.762 331.865 249.029 332.091C249.296 332.316 249.639 332.429 250.058 332.429ZM256.993 324.12V325.93H258.388V326.917H256.993V331.552C256.993 331.851 257.055 332.077 257.179 332.229C257.304 332.376 257.515 332.45 257.815 332.45C257.962 332.45 258.165 332.422 258.422 332.367V333.403C258.086 333.495 257.759 333.541 257.442 333.541C256.871 333.541 256.44 333.368 256.15 333.023C255.86 332.678 255.715 332.187 255.715 331.552V326.917H254.354V325.93H255.715V324.12H256.993ZM264.238 331.421C264.238 331.075 264.107 330.808 263.844 330.619C263.587 330.426 263.133 330.26 262.484 330.122C261.839 329.984 261.326 329.818 260.944 329.625C260.566 329.431 260.285 329.201 260.101 328.934C259.921 328.667 259.832 328.349 259.832 327.981C259.832 327.368 260.089 326.85 260.605 326.427C261.125 326.003 261.788 325.791 262.594 325.791C263.442 325.791 264.128 326.01 264.653 326.448C265.182 326.885 265.447 327.444 265.447 328.126H264.162C264.162 327.776 264.013 327.474 263.713 327.221C263.419 326.968 263.046 326.841 262.594 326.841C262.129 326.841 261.765 326.943 261.503 327.145C261.241 327.348 261.109 327.613 261.109 327.939C261.109 328.248 261.231 328.48 261.475 328.637C261.719 328.794 262.159 328.943 262.795 329.086C263.435 329.229 263.953 329.399 264.349 329.597C264.745 329.795 265.037 330.035 265.226 330.315C265.419 330.592 265.516 330.93 265.516 331.331C265.516 331.998 265.249 332.535 264.715 332.94C264.181 333.341 263.488 333.541 262.636 333.541C262.037 333.541 261.508 333.435 261.047 333.223C260.587 333.011 260.225 332.717 259.963 332.339C259.705 331.957 259.576 331.545 259.576 331.103H260.854C260.877 331.531 261.047 331.872 261.365 332.125C261.687 332.374 262.111 332.498 262.636 332.498C263.119 332.498 263.506 332.401 263.796 332.208C264.091 332.01 264.238 331.747 264.238 331.421Z" fill="#637173"/>
<path d="M315.766 330.212C315.641 331.275 315.248 332.097 314.585 332.678C313.926 333.253 313.049 333.541 311.953 333.541C310.765 333.541 309.812 333.115 309.094 332.263C308.38 331.411 308.023 330.272 308.023 328.844V327.877C308.023 326.943 308.189 326.121 308.52 325.412C308.856 324.702 309.331 324.159 309.943 323.781C310.555 323.399 311.265 323.208 312.07 323.208C313.139 323.208 313.995 323.507 314.64 324.106C315.284 324.7 315.66 325.524 315.766 326.579H314.433C314.317 325.778 314.067 325.197 313.68 324.838C313.298 324.479 312.761 324.299 312.07 324.299C311.223 324.299 310.558 324.613 310.074 325.239C309.595 325.865 309.356 326.756 309.356 327.912V328.886C309.356 329.977 309.584 330.845 310.04 331.49C310.496 332.134 311.133 332.457 311.953 332.457C312.69 332.457 313.254 332.291 313.645 331.959C314.041 331.623 314.304 331.041 314.433 330.212H315.766ZM317.043 329.597C317.043 328.865 317.186 328.207 317.472 327.622C317.762 327.037 318.162 326.586 318.673 326.268C319.189 325.95 319.776 325.791 320.435 325.791C321.452 325.791 322.274 326.144 322.9 326.848C323.531 327.553 323.847 328.49 323.847 329.659V329.749C323.847 330.477 323.706 331.13 323.425 331.711C323.149 332.286 322.751 332.735 322.23 333.057C321.715 333.38 321.121 333.541 320.449 333.541C319.435 333.541 318.614 333.189 317.983 332.484C317.357 331.78 317.043 330.847 317.043 329.687V329.597ZM318.328 329.749C318.328 330.578 318.519 331.243 318.901 331.745C319.288 332.247 319.804 332.498 320.449 332.498C321.098 332.498 321.613 332.245 321.996 331.738C322.378 331.227 322.569 330.513 322.569 329.597C322.569 328.777 322.373 328.114 321.982 327.608C321.595 327.097 321.079 326.841 320.435 326.841C319.804 326.841 319.295 327.092 318.908 327.594C318.521 328.096 318.328 328.814 318.328 329.749ZM332.066 331.642L333.503 325.93H334.78L332.605 333.403H331.569L329.752 327.739L327.984 333.403H326.948L324.779 325.93H326.05L327.521 331.524L329.262 325.93H330.291L332.066 331.642ZM340.437 331.421C340.437 331.075 340.306 330.808 340.043 330.619C339.786 330.426 339.332 330.26 338.683 330.122C338.038 329.984 337.525 329.818 337.143 329.625C336.765 329.431 336.484 329.201 336.3 328.934C336.12 328.667 336.031 328.349 336.031 327.981C336.031 327.368 336.288 326.85 336.804 326.427C337.324 326.003 337.988 325.791 338.793 325.791C339.641 325.791 340.327 326.01 340.852 326.448C341.381 326.885 341.646 327.444 341.646 328.126H340.361C340.361 327.776 340.212 327.474 339.912 327.221C339.618 326.968 339.245 326.841 338.793 326.841C338.328 326.841 337.964 326.943 337.702 327.145C337.44 327.348 337.308 327.613 337.308 327.939C337.308 328.248 337.43 328.48 337.674 328.637C337.918 328.794 338.358 328.943 338.994 329.086C339.634 329.229 340.152 329.399 340.548 329.597C340.944 329.795 341.236 330.035 341.425 330.315C341.618 330.592 341.715 330.93 341.715 331.331C341.715 331.998 341.448 332.535 340.914 332.94C340.38 333.341 339.687 333.541 338.835 333.541C338.236 333.541 337.707 333.435 337.246 333.223C336.786 333.011 336.424 332.717 336.162 332.339C335.904 331.957 335.775 331.545 335.775 331.103H337.053C337.076 331.531 337.246 331.872 337.564 332.125C337.886 332.374 338.31 332.498 338.835 332.498C339.318 332.498 339.705 332.401 339.995 332.208C340.29 332.01 340.437 331.747 340.437 331.421Z" fill="#637173"/>
<rect x="66.9253" y="26.6143" width="52.2292" height="290.525" fill="#B5D94A"/>
<rect x="143.093" y="193.094" width="52.2292" height="124.044" fill="#87D7E3"/>
<rect x="221.436" y="151.747" width="52.2292" height="165.392" fill="#FDCC13"/>
<rect x="299" y="234.5" width="52" height="83" fill="#8F6ADE"/>
<path d="M55.3409 9.90811C55.1284 9.69565 54.7839 9.69565 54.5715 9.90811L51.1091 13.3705C50.8967 13.5829 50.8967 13.9274 51.1091 14.1399C51.3216 14.3523 51.6661 14.3523 51.8785 14.1399L54.9562 11.0622L58.0338 14.1399C58.2463 14.3523 58.5907 14.3523 58.8032 14.1399C59.0157 13.9274 59.0157 13.5829 58.8032 13.3705L55.3409 9.90811ZM55.5002 317.139L55.5002 10.2928L54.4121 10.2928L54.4121 317.139L55.5002 317.139Z" fill="#637173"/>
<path d="M369.804 317.524C370.016 317.311 370.016 316.967 369.804 316.754L366.342 313.292C366.129 313.08 365.785 313.08 365.572 313.292C365.36 313.505 365.36 313.849 365.572 314.062L368.65 317.139L365.572 320.217C365.36 320.429 365.36 320.774 365.572 320.986C365.785 321.199 366.129 321.199 366.342 320.986L369.804 317.524ZM54.9562 317.683L369.419 317.683L369.419 316.595L54.9562 316.595L54.9562 317.683Z" fill="#637173"/>
<rect x="399.5" y="75.5" width="184" height="44" fill="#68C2D0" stroke="#CCCCCC"/>
<path d="M470.274 100.6H465.074L464.082 103H461.426L466.418 91.8H468.978L473.986 103H471.266L470.274 100.6ZM469.458 98.632L467.682 94.344L465.906 98.632H469.458ZM480.204 94.264C481.27 94.264 482.129 94.584 482.78 95.224C483.441 95.864 483.772 96.8133 483.772 98.072V103H481.276V98.456C481.276 97.7733 481.126 97.2667 480.828 96.936C480.529 96.5947 480.097 96.424 479.532 96.424C478.902 96.424 478.401 96.6213 478.028 97.016C477.654 97.4 477.468 97.976 477.468 98.744V103H474.972V94.392H477.356V95.4C477.686 95.0373 478.097 94.76 478.588 94.568C479.078 94.3653 479.617 94.264 480.204 94.264ZM486.034 94.392H488.53V103H486.034V94.392ZM487.282 93.192C486.824 93.192 486.45 93.0587 486.162 92.792C485.874 92.5253 485.73 92.1947 485.73 91.8C485.73 91.4053 485.874 91.0747 486.162 90.808C486.45 90.5413 486.824 90.408 487.282 90.408C487.741 90.408 488.114 90.536 488.402 90.792C488.69 91.048 488.834 91.368 488.834 91.752C488.834 92.168 488.69 92.5147 488.402 92.792C488.114 93.0587 487.741 93.192 487.282 93.192ZM501.871 94.264C502.948 94.264 503.801 94.584 504.431 95.224C505.071 95.8533 505.391 96.8027 505.391 98.072V103H502.895V98.456C502.895 97.7733 502.751 97.2667 502.463 96.936C502.185 96.5947 501.785 96.424 501.263 96.424C500.676 96.424 500.212 96.616 499.871 97C499.529 97.3733 499.359 97.9333 499.359 98.68V103H496.863V98.456C496.863 97.1013 496.319 96.424 495.231 96.424C494.655 96.424 494.196 96.616 493.855 97C493.513 97.3733 493.343 97.9333 493.343 98.68V103H490.847V94.392H493.231V95.384C493.551 95.0213 493.94 94.744 494.399 94.552C494.868 94.36 495.38 94.264 495.935 94.264C496.543 94.264 497.092 94.3867 497.583 94.632C498.073 94.8667 498.468 95.2133 498.767 95.672C499.119 95.224 499.561 94.8773 500.095 94.632C500.639 94.3867 501.231 94.264 501.871 94.264ZM511.1 94.264C512.433 94.264 513.457 94.584 514.172 95.224C514.887 95.8533 515.244 96.808 515.244 98.088V103H512.908V101.928C512.439 102.728 511.564 103.128 510.284 103.128C509.623 103.128 509.047 103.016 508.556 102.792C508.076 102.568 507.708 102.259 507.452 101.864C507.196 101.469 507.068 101.021 507.068 100.52C507.068 99.72 507.367 99.0907 507.964 98.632C508.572 98.1733 509.505 97.944 510.764 97.944H512.748C512.748 97.4 512.583 96.984 512.252 96.696C511.921 96.3973 511.425 96.248 510.764 96.248C510.305 96.248 509.852 96.3227 509.404 96.472C508.967 96.6107 508.593 96.8027 508.284 97.048L507.388 95.304C507.857 94.9733 508.417 94.7173 509.068 94.536C509.729 94.3547 510.407 94.264 511.1 94.264ZM510.908 101.448C511.335 101.448 511.713 101.352 512.044 101.16C512.375 100.957 512.609 100.664 512.748 100.28V99.4H511.036C510.012 99.4 509.5 99.736 509.5 100.408C509.5 100.728 509.623 100.984 509.868 101.176C510.124 101.357 510.471 101.448 510.908 101.448ZM517.503 91.128H519.999V103H517.503V91.128Z" fill="white"/>
<rect x="583.5" y="75.5" width="184" height="44" fill="#68C2D0" stroke="#CCCCCC"/>
<path d="M652.741 91.5505V102.75H650.613L645.029 95.9505V102.75H642.469V91.5505H644.613L650.181 98.3505V91.5505H652.741ZM663.887 94.1425V102.75H661.519V101.726C661.188 102.1 660.793 102.388 660.335 102.59C659.876 102.782 659.38 102.878 658.847 102.878C657.716 102.878 656.82 102.553 656.159 101.902C655.497 101.252 655.167 100.286 655.167 99.0065V94.1425H657.663V98.6385C657.663 100.025 658.244 100.718 659.407 100.718C660.004 100.718 660.484 100.526 660.847 100.142C661.209 99.7478 661.391 99.1665 661.391 98.3985V94.1425H663.887ZM677.223 94.0145C678.3 94.0145 679.154 94.3345 679.783 94.9745C680.423 95.6038 680.743 96.5532 680.743 97.8225V102.75H678.247V98.2065C678.247 97.5238 678.103 97.0172 677.815 96.6865C677.538 96.3452 677.138 96.1745 676.615 96.1745C676.028 96.1745 675.564 96.3665 675.223 96.7505C674.882 97.1238 674.711 97.6838 674.711 98.4305V102.75H672.215V98.2065C672.215 96.8518 671.671 96.1745 670.583 96.1745C670.007 96.1745 669.548 96.3665 669.207 96.7505C668.866 97.1238 668.695 97.6838 668.695 98.4305V102.75H666.199V94.1425H668.583V95.1345C668.903 94.7718 669.292 94.4945 669.751 94.3025C670.22 94.1105 670.732 94.0145 671.287 94.0145C671.895 94.0145 672.444 94.1372 672.935 94.3825C673.426 94.6172 673.82 94.9638 674.119 95.4225C674.471 94.9745 674.914 94.6278 675.447 94.3825C675.991 94.1372 676.583 94.0145 677.223 94.0145ZM688.068 94.0145C688.868 94.0145 689.593 94.2012 690.244 94.5745C690.905 94.9372 691.423 95.4545 691.796 96.1265C692.169 96.7878 692.356 97.5612 692.356 98.4465C692.356 99.3318 692.169 100.11 691.796 100.782C691.423 101.444 690.905 101.961 690.244 102.334C689.593 102.697 688.868 102.878 688.068 102.878C686.884 102.878 685.983 102.505 685.364 101.758V102.75H682.98V90.8785H685.476V95.0545C686.105 94.3612 686.969 94.0145 688.068 94.0145ZM687.636 100.83C688.276 100.83 688.799 100.617 689.204 100.19C689.62 99.7532 689.828 99.1718 689.828 98.4465C689.828 97.7212 689.62 97.1452 689.204 96.7185C688.799 96.2812 688.276 96.0625 687.636 96.0625C686.996 96.0625 686.468 96.2812 686.052 96.7185C685.647 97.1452 685.444 97.7212 685.444 98.4465C685.444 99.1718 685.647 99.7532 686.052 100.19C686.468 100.617 686.996 100.83 687.636 100.83ZM702.459 98.4785C702.459 98.5105 702.443 98.7345 702.411 99.1505H695.899C696.016 99.6838 696.294 100.105 696.731 100.414C697.168 100.724 697.712 100.878 698.363 100.878C698.811 100.878 699.206 100.814 699.547 100.686C699.899 100.548 700.224 100.334 700.523 100.046L701.851 101.486C701.04 102.414 699.856 102.878 698.299 102.878C697.328 102.878 696.47 102.692 695.723 102.318C694.976 101.934 694.4 101.406 693.995 100.734C693.59 100.062 693.387 99.2998 693.387 98.4465C693.387 97.6038 693.584 96.8465 693.979 96.1745C694.384 95.4918 694.934 94.9638 695.627 94.5905C696.331 94.2065 697.115 94.0145 697.979 94.0145C698.822 94.0145 699.584 94.1958 700.267 94.5585C700.95 94.9212 701.483 95.4438 701.867 96.1265C702.262 96.7985 702.459 97.5825 702.459 98.4785ZM697.995 95.9025C697.43 95.9025 696.955 96.0625 696.571 96.3825C696.187 96.7025 695.952 97.1398 695.867 97.6945H700.107C700.022 97.1505 699.787 96.7185 699.403 96.3985C699.019 96.0678 698.55 95.9025 697.995 95.9025ZM706.505 95.2785C706.803 94.8625 707.203 94.5478 707.705 94.3345C708.217 94.1212 708.803 94.0145 709.465 94.0145V96.3185C709.187 96.2972 709.001 96.2865 708.905 96.2865C708.19 96.2865 707.63 96.4892 707.225 96.8945C706.819 97.2892 706.617 97.8865 706.617 98.6865V102.75H704.121V94.1425H706.505V95.2785Z" fill="white"/>
<rect x="399.5" y="119.5" width="184" height="44" fill="white" stroke="#CCCCCC"/>
<path d="M470.758 147.16C469.894 147.16 469.057 147.038 468.246 146.792C467.446 146.547 466.812 146.222 466.342 145.816L467.062 144.2C467.521 144.563 468.081 144.862 468.742 145.096C469.414 145.32 470.086 145.432 470.758 145.432C471.59 145.432 472.209 145.299 472.614 145.032C473.03 144.766 473.238 144.414 473.238 143.976C473.238 143.656 473.121 143.395 472.886 143.192C472.662 142.979 472.374 142.814 472.022 142.696C471.67 142.579 471.19 142.446 470.582 142.296C469.729 142.094 469.036 141.891 468.502 141.688C467.98 141.486 467.526 141.171 467.142 140.744C466.769 140.307 466.582 139.72 466.582 138.984C466.582 138.366 466.748 137.806 467.078 137.304C467.42 136.792 467.926 136.387 468.598 136.088C469.281 135.79 470.113 135.64 471.094 135.64C471.777 135.64 472.449 135.726 473.11 135.896C473.772 136.067 474.342 136.312 474.822 136.632L474.166 138.248C473.676 137.96 473.164 137.742 472.63 137.592C472.097 137.443 471.58 137.368 471.078 137.368C470.257 137.368 469.644 137.507 469.238 137.784C468.844 138.062 468.646 138.43 468.646 138.888C468.646 139.208 468.758 139.47 468.982 139.672C469.217 139.875 469.51 140.035 469.862 140.152C470.214 140.27 470.694 140.403 471.302 140.552C472.134 140.744 472.817 140.947 473.35 141.16C473.884 141.363 474.337 141.678 474.71 142.104C475.094 142.531 475.286 143.107 475.286 143.832C475.286 144.451 475.116 145.011 474.774 145.512C474.444 146.014 473.937 146.414 473.254 146.712C472.572 147.011 471.74 147.16 470.758 147.16ZM482.005 138.36C483.082 138.36 483.946 138.675 484.597 139.304C485.247 139.934 485.573 140.867 485.573 142.104V147H483.573V142.36C483.573 141.614 483.397 141.054 483.045 140.68C482.693 140.296 482.191 140.104 481.541 140.104C480.805 140.104 480.223 140.328 479.797 140.776C479.37 141.214 479.157 141.848 479.157 142.68V147H477.157V135.128H479.157V139.448C479.487 139.096 479.893 138.83 480.373 138.648C480.863 138.456 481.407 138.36 482.005 138.36ZM496.22 142.776C496.22 142.915 496.209 143.112 496.188 143.368H489.484C489.601 143.998 489.905 144.499 490.396 144.872C490.897 145.235 491.516 145.416 492.252 145.416C493.191 145.416 493.964 145.107 494.572 144.488L495.644 145.72C495.26 146.179 494.775 146.526 494.188 146.76C493.601 146.995 492.94 147.112 492.204 147.112C491.265 147.112 490.439 146.926 489.724 146.552C489.009 146.179 488.455 145.662 488.06 145C487.676 144.328 487.484 143.571 487.484 142.728C487.484 141.896 487.671 141.15 488.044 140.488C488.428 139.816 488.956 139.294 489.628 138.92C490.3 138.547 491.057 138.36 491.9 138.36C492.732 138.36 493.473 138.547 494.124 138.92C494.785 139.283 495.297 139.8 495.66 140.472C496.033 141.134 496.22 141.902 496.22 142.776ZM491.9 139.96C491.26 139.96 490.716 140.152 490.268 140.536C489.831 140.91 489.564 141.411 489.468 142.04H494.316C494.231 141.422 493.969 140.92 493.532 140.536C493.095 140.152 492.551 139.96 491.9 139.96ZM506.173 142.776C506.173 142.915 506.162 143.112 506.141 143.368H499.437C499.554 143.998 499.858 144.499 500.349 144.872C500.85 145.235 501.469 145.416 502.205 145.416C503.144 145.416 503.917 145.107 504.525 144.488L505.597 145.72C505.213 146.179 504.728 146.526 504.141 146.76C503.554 146.995 502.893 147.112 502.157 147.112C501.218 147.112 500.392 146.926 499.677 146.552C498.962 146.179 498.408 145.662 498.013 145C497.629 144.328 497.437 143.571 497.437 142.728C497.437 141.896 497.624 141.15 497.997 140.488C498.381 139.816 498.909 139.294 499.581 138.92C500.253 138.547 501.01 138.36 501.853 138.36C502.685 138.36 503.426 138.547 504.077 138.92C504.738 139.283 505.25 139.8 505.613 140.472C505.986 141.134 506.173 141.902 506.173 142.776ZM501.853 139.96C501.213 139.96 500.669 140.152 500.221 140.536C499.784 140.91 499.517 141.411 499.421 142.04H504.269C504.184 141.422 503.922 140.92 503.485 140.536C503.048 140.152 502.504 139.96 501.853 139.96ZM512.83 138.36C513.662 138.36 514.404 138.542 515.054 138.904C515.716 139.267 516.233 139.779 516.606 140.44C516.98 141.102 517.166 141.864 517.166 142.728C517.166 143.592 516.98 144.36 516.606 145.032C516.233 145.694 515.716 146.206 515.054 146.568C514.404 146.931 513.662 147.112 512.83 147.112C511.678 147.112 510.766 146.728 510.094 145.96V150.104H508.094V138.456H509.998V139.576C510.329 139.171 510.734 138.867 511.214 138.664C511.705 138.462 512.244 138.36 512.83 138.36ZM512.606 145.4C513.342 145.4 513.945 145.155 514.414 144.664C514.894 144.174 515.134 143.528 515.134 142.728C515.134 141.928 514.894 141.283 514.414 140.792C513.945 140.302 513.342 140.056 512.606 140.056C512.126 140.056 511.694 140.168 511.31 140.392C510.926 140.606 510.622 140.915 510.398 141.32C510.174 141.726 510.062 142.195 510.062 142.728C510.062 143.262 510.174 143.731 510.398 144.136C510.622 144.542 510.926 144.856 511.31 145.08C511.694 145.294 512.126 145.4 512.606 145.4Z" fill="#2F2F2F"/>
<rect x="583.5" y="119.5" width="184" height="44" fill="white" stroke="#CCCCCC"/>
<path d="M680.165 134.4V135.624L675.071 147H673.163L678.149 135.966H672.389V138.216H670.661V134.4H680.165Z" fill="#2F2F2F"/>
<path d="M650 127H701V125H650V127ZM705 131V151H707V131H705ZM701 155H650V157H701V155ZM646 151V131H644V151H646ZM650 155C647.791 155 646 153.209 646 151H644C644 154.314 646.686 157 650 157V155ZM705 151C705 153.209 703.209 155 701 155V157C704.314 157 707 154.314 707 151H705ZM701 127C703.209 127 705 128.791 705 131H707C707 127.686 704.314 125 701 125V127ZM650 125C646.686 125 644 127.686 644 131H646C646 128.791 647.791 127 650 127V125Z" fill="#2F2F2F"/>
<rect x="399.5" y="163.5" width="184" height="44" fill="white" stroke="#CCCCCC"/>
<path d="M479.94 179.8C480.911 179.8 481.753 179.96 482.468 180.28C483.193 180.6 483.748 181.059 484.132 181.656C484.516 182.254 484.708 182.963 484.708 183.784C484.708 184.595 484.516 185.304 484.132 185.912C483.748 186.51 483.193 186.968 482.468 187.288C481.753 187.608 480.911 187.768 479.94 187.768H477.412V191H475.332V179.8H479.94ZM479.844 186.008C480.751 186.008 481.439 185.816 481.908 185.432C482.377 185.048 482.612 184.499 482.612 183.784C482.612 183.07 482.377 182.52 481.908 182.136C481.439 181.752 480.751 181.56 479.844 181.56H477.412V186.008H479.844ZM486.515 182.456H488.515V191H486.515V182.456ZM487.523 181.048C487.16 181.048 486.856 180.936 486.611 180.712C486.366 180.478 486.243 180.19 486.243 179.848C486.243 179.507 486.366 179.224 486.611 179C486.856 178.766 487.16 178.648 487.523 178.648C487.886 178.648 488.19 178.76 488.435 178.984C488.68 179.198 488.803 179.47 488.803 179.8C488.803 180.152 488.68 180.451 488.435 180.696C488.2 180.931 487.896 181.048 487.523 181.048ZM499.62 182.456V189.704C499.62 192.712 498.084 194.216 495.012 194.216C494.191 194.216 493.412 194.11 492.676 193.896C491.94 193.694 491.332 193.395 490.852 193L491.748 191.496C492.121 191.806 492.591 192.051 493.156 192.232C493.732 192.424 494.313 192.52 494.9 192.52C495.839 192.52 496.527 192.307 496.964 191.88C497.401 191.454 497.62 190.803 497.62 189.928V189.48C497.279 189.854 496.863 190.136 496.372 190.328C495.881 190.52 495.343 190.616 494.756 190.616C493.945 190.616 493.209 190.446 492.548 190.104C491.897 189.752 491.38 189.262 490.996 188.632C490.623 188.003 490.436 187.283 490.436 186.472C490.436 185.662 490.623 184.947 490.996 184.328C491.38 183.699 491.897 183.214 492.548 182.872C493.209 182.531 493.945 182.36 494.756 182.36C495.375 182.36 495.935 182.462 496.436 182.664C496.948 182.867 497.375 183.176 497.716 183.592V182.456H499.62ZM495.06 188.92C495.817 188.92 496.436 188.696 496.916 188.248C497.407 187.79 497.652 187.198 497.652 186.472C497.652 185.758 497.407 185.176 496.916 184.728C496.436 184.28 495.817 184.056 495.06 184.056C494.292 184.056 493.663 184.28 493.172 184.728C492.692 185.176 492.452 185.758 492.452 186.472C492.452 187.198 492.692 187.79 493.172 188.248C493.663 188.696 494.292 188.92 495.06 188.92ZM504.889 191.112C504.196 191.112 503.519 191.022 502.857 190.84C502.196 190.659 501.668 190.43 501.273 190.152L502.041 188.632C502.425 188.888 502.884 189.096 503.417 189.256C503.961 189.406 504.495 189.48 505.017 189.48C506.212 189.48 506.809 189.166 506.809 188.536C506.809 188.238 506.655 188.03 506.345 187.912C506.047 187.795 505.561 187.683 504.889 187.576C504.185 187.47 503.609 187.347 503.161 187.208C502.724 187.07 502.34 186.83 502.009 186.488C501.689 186.136 501.529 185.651 501.529 185.032C501.529 184.222 501.865 183.576 502.537 183.096C503.22 182.606 504.137 182.36 505.289 182.36C505.876 182.36 506.463 182.43 507.049 182.568C507.636 182.696 508.116 182.872 508.489 183.096L507.721 184.616C506.996 184.19 506.18 183.976 505.273 183.976C504.687 183.976 504.239 184.067 503.929 184.248C503.631 184.419 503.481 184.648 503.481 184.936C503.481 185.256 503.641 185.486 503.961 185.624C504.292 185.752 504.799 185.875 505.481 185.992C506.164 186.099 506.724 186.222 507.161 186.36C507.599 186.499 507.972 186.734 508.281 187.064C508.601 187.395 508.761 187.864 508.761 188.472C508.761 189.272 508.415 189.912 507.721 190.392C507.028 190.872 506.084 191.112 504.889 191.112Z" fill="#2F2F2F"/>
<rect x="583.5" y="163.5" width="184" height="44" fill="white" stroke="#CCCCCC"/>
<path d="M676.038 183.692C677.274 183.812 678.216 184.196 678.864 184.844C679.512 185.48 679.836 186.296 679.836 187.292C679.836 188.012 679.656 188.666 679.296 189.254C678.936 189.83 678.396 190.292 677.676 190.64C676.968 190.976 676.098 191.144 675.066 191.144C674.166 191.144 673.302 191.012 672.474 190.748C671.646 190.472 670.968 190.094 670.44 189.614L671.268 188.192C671.7 188.6 672.252 188.93 672.924 189.182C673.596 189.422 674.31 189.542 675.066 189.542C676.002 189.542 676.728 189.344 677.244 188.948C677.772 188.552 678.036 188.006 678.036 187.31C678.036 186.614 677.778 186.074 677.262 185.69C676.746 185.306 675.966 185.114 674.922 185.114H673.914V183.854L677.082 179.966H671.016V178.4H679.332V179.624L676.038 183.692Z" fill="#2F2F2F"/>
<path d="M650 171H701V169H650V171ZM705 175V195H707V175H705ZM701 199H650V201H701V199ZM646 195V175H644V195H646ZM650 199C647.791 199 646 197.209 646 195H644C644 198.314 646.686 201 650 201V199ZM705 195C705 197.209 703.209 199 701 199V201C704.314 201 707 198.314 707 195H705ZM701 171C703.209 171 705 172.791 705 175H707C707 171.686 704.314 169 701 169V171ZM650 169C646.686 169 644 171.686 644 175H646C646 172.791 647.791 171 650 171V169Z" fill="#2F2F2F"/>
<rect x="399.5" y="207.5" width="184" height="44" fill="white" stroke="#CCCCCC"/>
<path d="M477.337 229.272H479.305V233.736C478.729 234.195 478.057 234.547 477.289 234.792C476.521 235.038 475.731 235.16 474.921 235.16C473.779 235.16 472.75 234.915 471.833 234.424C470.915 233.923 470.195 233.235 469.673 232.36C469.15 231.486 468.889 230.499 468.889 229.4C468.889 228.302 469.15 227.315 469.673 226.44C470.195 225.566 470.915 224.883 471.833 224.392C472.761 223.891 473.801 223.64 474.953 223.64C475.891 223.64 476.745 223.795 477.513 224.104C478.281 224.414 478.926 224.867 479.449 225.464L478.137 226.744C477.283 225.891 476.254 225.464 475.049 225.464C474.259 225.464 473.555 225.63 472.937 225.96C472.329 226.291 471.849 226.755 471.497 227.352C471.155 227.95 470.985 228.632 470.985 229.4C470.985 230.147 471.155 230.819 471.497 231.416C471.849 232.014 472.329 232.483 472.937 232.824C473.555 233.166 474.254 233.336 475.033 233.336C475.907 233.336 476.675 233.144 477.337 232.76V229.272ZM485.696 235.112C484.832 235.112 484.053 234.926 483.36 234.552C482.667 234.179 482.123 233.662 481.728 233C481.344 232.328 481.152 231.571 481.152 230.728C481.152 229.886 481.344 229.134 481.728 228.472C482.123 227.811 482.667 227.294 483.36 226.92C484.053 226.547 484.832 226.36 485.696 226.36C486.571 226.36 487.355 226.547 488.048 226.92C488.741 227.294 489.28 227.811 489.664 228.472C490.059 229.134 490.256 229.886 490.256 230.728C490.256 231.571 490.059 232.328 489.664 233C489.28 233.662 488.741 234.179 488.048 234.552C487.355 234.926 486.571 235.112 485.696 235.112ZM485.696 233.4C486.432 233.4 487.04 233.155 487.52 232.664C488 232.174 488.24 231.528 488.24 230.728C488.24 229.928 488 229.283 487.52 228.792C487.04 228.302 486.432 228.056 485.696 228.056C484.96 228.056 484.352 228.302 483.872 228.792C483.403 229.283 483.168 229.928 483.168 230.728C483.168 231.528 483.403 232.174 483.872 232.664C484.352 233.155 484.96 233.4 485.696 233.4ZM495.323 226.36C496.582 226.36 497.542 226.664 498.203 227.272C498.875 227.87 499.211 228.776 499.211 229.992V235H497.323V233.96C497.078 234.334 496.726 234.622 496.267 234.824C495.819 235.016 495.275 235.112 494.635 235.112C493.995 235.112 493.435 235.006 492.955 234.792C492.475 234.568 492.102 234.264 491.835 233.88C491.579 233.486 491.451 233.043 491.451 232.552C491.451 231.784 491.734 231.171 492.299 230.712C492.875 230.243 493.776 230.008 495.003 230.008H497.211V229.88C497.211 229.283 497.03 228.824 496.667 228.504C496.315 228.184 495.787 228.024 495.083 228.024C494.603 228.024 494.128 228.099 493.659 228.248C493.2 228.398 492.811 228.606 492.491 228.872L491.707 227.416C492.155 227.075 492.694 226.814 493.323 226.632C493.952 226.451 494.619 226.36 495.323 226.36ZM495.051 233.656C495.552 233.656 495.995 233.544 496.379 233.32C496.774 233.086 497.051 232.755 497.211 232.328V231.336H495.147C493.995 231.336 493.419 231.715 493.419 232.472C493.419 232.835 493.563 233.123 493.851 233.336C494.139 233.55 494.539 233.656 495.051 233.656ZM506.914 234.536C506.679 234.728 506.391 234.872 506.05 234.968C505.719 235.064 505.367 235.112 504.994 235.112C504.055 235.112 503.33 234.867 502.818 234.376C502.306 233.886 502.05 233.171 502.05 232.232V228.12H500.642V226.52H502.05V224.568H504.05V226.52H506.338V228.12H504.05V232.184C504.05 232.6 504.151 232.92 504.354 233.144C504.557 233.358 504.85 233.464 505.234 233.464C505.682 233.464 506.055 233.347 506.354 233.112L506.914 234.536ZM511.199 235.112C510.506 235.112 509.828 235.022 509.167 234.84C508.506 234.659 507.978 234.43 507.583 234.152L508.351 232.632C508.735 232.888 509.194 233.096 509.727 233.256C510.271 233.406 510.804 233.48 511.327 233.48C512.522 233.48 513.119 233.166 513.119 232.536C513.119 232.238 512.964 232.03 512.655 231.912C512.356 231.795 511.871 231.683 511.199 231.576C510.495 231.47 509.919 231.347 509.471 231.208C509.034 231.07 508.65 230.83 508.319 230.488C507.999 230.136 507.839 229.651 507.839 229.032C507.839 228.222 508.175 227.576 508.847 227.096C509.53 226.606 510.447 226.36 511.599 226.36C512.186 226.36 512.772 226.43 513.359 226.568C513.946 226.696 514.426 226.872 514.799 227.096L514.031 228.616C513.306 228.19 512.49 227.976 511.583 227.976C510.996 227.976 510.548 228.067 510.239 228.248C509.94 228.419 509.791 228.648 509.791 228.936C509.791 229.256 509.951 229.486 510.271 229.624C510.602 229.752 511.108 229.875 511.791 229.992C512.474 230.099 513.034 230.222 513.471 230.36C513.908 230.499 514.282 230.734 514.591 231.064C514.911 231.395 515.071 231.864 515.071 232.472C515.071 233.272 514.724 233.912 514.031 234.392C513.338 234.872 512.394 235.112 511.199 235.112Z" fill="#2F2F2F"/>
<rect x="583.5" y="207.5" width="184" height="44" fill="white" stroke="#CCCCCC"/>
<path d="M681.305 231.904H678.911V235H677.165V231.904H670.163V230.644L676.607 222.4H678.551L672.377 230.356H677.219V227.62H678.911V230.356H681.305V231.904Z" fill="#2F2F2F"/>
<path d="M650 215H701V213H650V215ZM705 219V239H707V219H705ZM701 243H650V245H701V243ZM646 239V219H644V239H646ZM650 243C647.791 243 646 241.209 646 239H644C644 242.314 646.686 245 650 245V243ZM705 239C705 241.209 703.209 243 701 243V245C704.314 245 707 242.314 707 239H705ZM701 215C703.209 215 705 216.791 705 219H707C707 215.686 704.314 213 701 213V215ZM650 213C646.686 213 644 215.686 644 219H646C646 216.791 647.791 215 650 215V213Z" fill="#2F2F2F"/>
<rect x="399.5" y="251.5" width="184" height="44" fill="white" stroke="#CCCCCC"/>
<path d="M476.412 279.16C475.281 279.16 474.257 278.915 473.34 278.424C472.433 277.923 471.718 277.235 471.196 276.36C470.684 275.486 470.428 274.499 470.428 273.4C470.428 272.302 470.689 271.315 471.212 270.44C471.734 269.566 472.449 268.883 473.356 268.392C474.273 267.891 475.297 267.64 476.428 267.64C477.345 267.64 478.182 267.8 478.94 268.12C479.697 268.44 480.337 268.904 480.86 269.512L479.516 270.776C478.705 269.902 477.708 269.464 476.524 269.464C475.756 269.464 475.068 269.635 474.46 269.976C473.852 270.307 473.377 270.771 473.036 271.368C472.694 271.966 472.524 272.643 472.524 273.4C472.524 274.158 472.694 274.835 473.036 275.432C473.377 276.03 473.852 276.499 474.46 276.84C475.068 277.171 475.756 277.336 476.524 277.336C477.708 277.336 478.705 276.894 479.516 276.008L480.86 277.288C480.337 277.896 479.692 278.36 478.924 278.68C478.166 279 477.329 279.16 476.412 279.16ZM486.188 279.112C485.324 279.112 484.545 278.926 483.852 278.552C483.159 278.179 482.615 277.662 482.22 277C481.836 276.328 481.644 275.571 481.644 274.728C481.644 273.886 481.836 273.134 482.22 272.472C482.615 271.811 483.159 271.294 483.852 270.92C484.545 270.547 485.324 270.36 486.188 270.36C487.063 270.36 487.847 270.547 488.54 270.92C489.233 271.294 489.772 271.811 490.156 272.472C490.551 273.134 490.748 273.886 490.748 274.728C490.748 275.571 490.551 276.328 490.156 277C489.772 277.662 489.233 278.179 488.54 278.552C487.847 278.926 487.063 279.112 486.188 279.112ZM486.188 277.4C486.924 277.4 487.532 277.155 488.012 276.664C488.492 276.174 488.732 275.528 488.732 274.728C488.732 273.928 488.492 273.283 488.012 272.792C487.532 272.302 486.924 272.056 486.188 272.056C485.452 272.056 484.844 272.302 484.364 272.792C483.895 273.283 483.66 273.928 483.66 274.728C483.66 275.528 483.895 276.174 484.364 276.664C484.844 277.155 485.452 277.4 486.188 277.4ZM505.754 270.456L502.602 279H500.682L498.474 273.112L496.234 279H494.314L491.178 270.456H493.066L495.322 276.76L497.674 270.456H499.354L501.658 276.792L503.978 270.456H505.754ZM509.66 279.112C508.967 279.112 508.289 279.022 507.628 278.84C506.967 278.659 506.439 278.43 506.044 278.152L506.812 276.632C507.196 276.888 507.655 277.096 508.188 277.256C508.732 277.406 509.265 277.48 509.788 277.48C510.983 277.48 511.58 277.166 511.58 276.536C511.58 276.238 511.425 276.03 511.116 275.912C510.817 275.795 510.332 275.683 509.66 275.576C508.956 275.47 508.38 275.347 507.932 275.208C507.495 275.07 507.111 274.83 506.78 274.488C506.46 274.136 506.3 273.651 506.3 273.032C506.3 272.222 506.636 271.576 507.308 271.096C507.991 270.606 508.908 270.36 510.06 270.36C510.647 270.36 511.233 270.43 511.82 270.568C512.407 270.696 512.887 270.872 513.26 271.096L512.492 272.616C511.767 272.19 510.951 271.976 510.044 271.976C509.457 271.976 509.009 272.067 508.7 272.248C508.401 272.419 508.252 272.648 508.252 272.936C508.252 273.256 508.412 273.486 508.732 273.624C509.063 273.752 509.569 273.875 510.252 273.992C510.935 274.099 511.495 274.222 511.932 274.36C512.369 274.499 512.743 274.734 513.052 275.064C513.372 275.395 513.532 275.864 513.532 276.472C513.532 277.272 513.185 277.912 512.492 278.392C511.799 278.872 510.855 279.112 509.66 279.112Z" fill="#2F2F2F"/>
<rect x="583.5" y="251.5" width="184" height="44" fill="white" stroke="#CCCCCC"/>
<path d="M680.052 277.434V279H670.998V277.776L676.128 272.826C676.752 272.226 677.172 271.71 677.388 271.278C677.604 270.834 677.712 270.39 677.712 269.946C677.712 269.286 677.478 268.776 677.01 268.416C676.554 268.044 675.894 267.858 675.03 267.858C673.638 267.858 672.564 268.314 671.808 269.226L670.584 268.164C671.076 267.564 671.718 267.096 672.51 266.76C673.314 266.424 674.208 266.256 675.192 266.256C676.512 266.256 677.562 266.574 678.342 267.21C679.122 267.834 679.512 268.686 679.512 269.766C679.512 270.438 679.368 271.074 679.08 271.674C678.792 272.274 678.246 272.958 677.442 273.726L673.59 277.434H680.052Z" fill="#2F2F2F"/>
<path d="M650 259H701V257H650V259ZM705 263V283H707V263H705ZM701 287H650V289H701V287ZM646 283V263H644V283H646ZM650 287C647.791 287 646 285.209 646 283H644C644 286.314 646.686 289 650 289V287ZM705 283C705 285.209 703.209 287 701 287V289C704.314 289 707 286.314 707 283H705ZM701 259C703.209 259 705 260.791 705 263H707C707 259.686 704.314 257 701 257V259ZM650 257C646.686 257 644 259.686 644 263H646C646 260.791 647.791 259 650 259V257Z" fill="#2F2F2F"/>
</svg>
