<svg width="70" height="70" viewBox="0 0 70 70" fill="none" xmlns="http://www.w3.org/2000/svg">
<g filter="url(#filter0_d_1_9)">
<path d="M34 0.577351C34.6188 0.220085 35.3812 0.220085 36 0.57735L64.3109 16.9226C64.9297 17.2799 65.3109 17.9402 65.3109 18.6547V51.3453C65.3109 52.0598 64.9297 52.7201 64.3109 53.0774L36 69.4226C35.3812 69.7799 34.6188 69.7799 34 69.4226L5.68911 53.0774C5.07031 52.7201 4.68911 52.0598 4.68911 51.3453V18.6547C4.68911 17.9402 5.07031 17.2799 5.68911 16.9226L34 0.577351Z" fill="#6C5BD7"/>
<path d="M35.5 1.44338L63.8109 17.7887C64.1203 17.9673 64.3109 18.2974 64.3109 18.6547V51.3453C64.3109 51.7026 64.1203 52.0327 63.8109 52.2113L35.5 68.5566C35.1906 68.7353 34.8094 68.7353 34.5 68.5566L6.18911 52.2113C5.87971 52.0327 5.68911 51.7026 5.68911 51.3453V18.6547C5.68911 18.2974 5.87971 17.9673 6.18911 17.7887L34.5 1.44338C34.8094 1.26474 35.1906 1.26474 35.5 1.44338Z" stroke="white" stroke-width="2"/>
</g>
<defs>
<filter id="filter0_d_1_9" x="-3.31089" y="-7.6906" width="76.6218" height="85.3812" filterUnits="userSpaceOnUse" color-interpolation-filters="sRGB">
<feFlood flood-opacity="0" result="BackgroundImageFix"/>
<feColorMatrix in="SourceAlpha" type="matrix" values="0 0 0 0 0 0 0 0 0 0 0 0 0 0 0 0 0 0 127 0" result="hardAlpha"/>
<feMorphology radius="2" operator="dilate" in="SourceAlpha" result="effect1_dropShadow_1_9"/>
<feOffset/>
<feGaussianBlur stdDeviation="3"/>
<feColorMatrix type="matrix" values="0 0 0 0 0 0 0 0 0 0 0 0 0 0 0 0 0 0 0.07 0"/>
<feBlend mode="normal" in2="BackgroundImageFix" result="effect1_dropShadow_1_9"/>
<feBlend mode="normal" in="SourceGraphic" in2="effect1_dropShadow_1_9" result="shape"/>
</filter>
</defs>
</svg>
