<svg width="188" height="30" viewBox="0 0 188 30" fill="none" xmlns="http://www.w3.org/2000/svg">
<path d="M25.6639 17.904H23.2699V21H21.5239V17.904H14.5219V16.644L20.9659 8.4H22.9099L16.7359 16.356H21.5779V13.62H23.2699V16.356H25.6639V17.904ZM35.5462 19.434V21H26.4922V19.776L31.6222 14.826C32.2462 14.226 32.6662 13.71 32.8822 13.278C33.0982 12.834 33.2062 12.39 33.2062 11.946C33.2062 11.286 32.9722 10.776 32.5042 10.416C32.0482 10.044 31.3882 9.858 30.5242 9.858C29.1322 9.858 28.0582 10.314 27.3022 11.226L26.0782 10.164C26.5702 9.564 27.2122 9.096 28.0042 8.76C28.8082 8.424 29.7022 8.256 30.6862 8.256C32.0062 8.256 33.0562 8.574 33.8362 9.21C34.6162 9.834 35.0062 10.686 35.0062 11.766C35.0062 12.438 34.8622 13.074 34.5742 13.674C34.2862 14.274 33.7402 14.958 32.9362 15.726L29.0842 19.434H35.5462Z" fill="#2F2F2F"/>
<path d="M5 1H45V-1H5V1ZM49 5V25H51V5H49ZM45 29H5V31H45V29ZM1 25V5H-1V25H1ZM5 29C2.79086 29 1 27.2091 1 25H-1C-1 28.3137 1.68629 31 5 31V29ZM49 25C49 27.2091 47.2091 29 45 29V31C48.3137 31 51 28.3137 51 25H49ZM45 1C47.2091 1 49 2.79086 49 5H51C51 1.68629 48.3137 -1 45 -1V1ZM5 -1C1.68629 -1 -1 1.68629 -1 5H1C1 2.79086 2.79086 1 5 1V-1Z" fill="#2F2F2F"/>
<path d="M56.0807 15.312H60.9227V16.806H56.0807V15.312Z" fill="#2F2F2F"/>
<path d="M87.2642 13.692C88.5002 13.812 89.4422 14.196 90.0902 14.844C90.7382 15.48 91.0622 16.296 91.0622 17.292C91.0622 18.012 90.8822 18.666 90.5222 19.254C90.1622 19.83 89.6222 20.292 88.9022 20.64C88.1942 20.976 87.3242 21.144 86.2922 21.144C85.3922 21.144 84.5282 21.012 83.7002 20.748C82.8722 20.472 82.1942 20.094 81.6662 19.614L82.4942 18.192C82.9262 18.6 83.4782 18.93 84.1502 19.182C84.8222 19.422 85.5362 19.542 86.2922 19.542C87.2282 19.542 87.9542 19.344 88.4702 18.948C88.9982 18.552 89.2622 18.006 89.2622 17.31C89.2622 16.614 89.0042 16.074 88.4882 15.69C87.9722 15.306 87.1922 15.114 86.1482 15.114H85.1402V13.854L88.3082 9.966H82.2422V8.4H90.5582V9.624L87.2642 13.692ZM101.71 8.4V9.624L96.616 21H94.708L99.694 9.966H93.934V12.216H92.206V8.4H101.71Z" fill="#2F2F2F"/>
<path d="M72 1H112V-1H72V1ZM116 5V25H118V5H116ZM112 29H72V31H112V29ZM68 25V5H66V25H68ZM72 29C69.7909 29 68 27.2091 68 25H66C66 28.3137 68.6863 31 72 31V29ZM116 25C116 27.2091 114.209 29 112 29V31C115.314 31 118 28.3137 118 25H116ZM112 1C114.209 1 116 2.79086 116 5H118C118 1.68629 115.314 -1 112 -1V1ZM72 -1C68.6863 -1 66 1.68629 66 5H68C68 2.79086 69.7909 1 72 1V-1Z" fill="#2F2F2F"/>
<path d="M123.468 11.856H131.532V13.278H123.468V11.856ZM123.468 16.122H131.532V17.544H123.468V16.122Z" fill="#2F2F2F"/>
<path d="M162.296 13.422C164.096 13.422 165.416 13.764 166.256 14.448C167.108 15.12 167.534 16.044 167.534 17.22C167.534 17.964 167.354 18.636 166.994 19.236C166.646 19.824 166.112 20.292 165.392 20.64C164.684 20.976 163.808 21.144 162.764 21.144C161.876 21.144 161.018 21.012 160.19 20.748C159.362 20.472 158.678 20.094 158.138 19.614L158.966 18.192C159.398 18.6 159.95 18.93 160.622 19.182C161.294 19.422 162.002 19.542 162.746 19.542C163.694 19.542 164.426 19.344 164.942 18.948C165.47 18.54 165.734 17.988 165.734 17.292C165.734 16.536 165.446 15.966 164.87 15.582C164.294 15.186 163.31 14.988 161.918 14.988H159.056L159.722 8.4H166.832V9.966H161.234L160.892 13.422H162.296Z" fill="#2F2F2F"/>
<path d="M143 1H183V-1H143V1ZM187 5V25H189V5H187ZM183 29H143V31H183V29ZM139 25V5H137V25H139ZM143 29C140.791 29 139 27.2091 139 25H137C137 28.3137 139.686 31 143 31V29ZM187 25C187 27.2091 185.209 29 183 29V31C186.314 31 189 28.3137 189 25H187ZM183 1C185.209 1 187 2.79086 187 5H189C189 1.68629 186.314 -1 183 -1V1ZM143 -1C139.686 -1 137 1.68629 137 5H139C139 2.79086 140.791 1 143 1V-1Z" fill="#2F2F2F"/>
</svg>
