<svg width="474" height="100" viewBox="0 0 474 100" fill="none" xmlns="http://www.w3.org/2000/svg">
<path d="M0 5C0 2.23858 2.23858 0 5 0H49C51.7614 0 54 2.23858 54 5V25C54 27.7614 51.7614 30 49 30H5C2.23858 30 0 27.7614 0 25V5Z" fill="#369CB7"/>
<path d="M25.5755 19.434V21H16.5215V19.776L21.6515 14.826C22.2755 14.226 22.6955 13.71 22.9115 13.278C23.1275 12.834 23.2355 12.39 23.2355 11.946C23.2355 11.286 23.0015 10.776 22.5335 10.416C22.0775 10.044 21.4175 9.858 20.5535 9.858C19.1615 9.858 18.0875 10.314 17.3315 11.226L16.1075 10.164C16.5995 9.564 17.2415 9.096 18.0335 8.76C18.8375 8.424 19.7315 8.256 20.7155 8.256C22.0355 8.256 23.0855 8.574 23.8655 9.21C24.6455 9.834 25.0355 10.686 25.0355 11.766C25.0355 12.438 24.8915 13.074 24.6035 13.674C24.3155 14.274 23.7695 14.958 22.9655 15.726L19.1135 19.434H25.5755ZM32.1507 21.144C31.1547 21.144 30.2667 20.892 29.4867 20.388C28.7187 19.872 28.1127 19.128 27.6687 18.156C27.2247 17.184 27.0027 16.032 27.0027 14.7C27.0027 13.368 27.2247 12.216 27.6687 11.244C28.1127 10.272 28.7187 9.534 29.4867 9.03C30.2667 8.514 31.1547 8.256 32.1507 8.256C33.1347 8.256 34.0107 8.514 34.7787 9.03C35.5587 9.534 36.1707 10.272 36.6147 11.244C37.0587 12.216 37.2807 13.368 37.2807 14.7C37.2807 16.032 37.0587 17.184 36.6147 18.156C36.1707 19.128 35.5587 19.872 34.7787 20.388C34.0107 20.892 33.1347 21.144 32.1507 21.144ZM32.1507 19.542C33.1587 19.542 33.9627 19.128 34.5627 18.3C35.1747 17.472 35.4807 16.272 35.4807 14.7C35.4807 13.128 35.1747 11.928 34.5627 11.1C33.9627 10.272 33.1587 9.858 32.1507 9.858C31.1307 9.858 30.3147 10.272 29.7027 11.1C29.1027 11.928 28.8027 13.128 28.8027 14.7C28.8027 16.272 29.1027 17.472 29.7027 18.3C30.3147 19.128 31.1307 19.542 32.1507 19.542Z" fill="white"/>
<path d="M5 1H49V-1H5V1ZM53 5V25H55V5H53ZM49 29H5V31H49V29ZM1 25V5H-1V25H1ZM5 29C2.79086 29 1 27.2091 1 25H-1C-1 28.3137 1.68629 31 5 31V29ZM53 25C53 27.2091 51.2091 29 49 29V31C52.3137 31 55 28.3137 55 25H53ZM49 1C51.2091 1 53 2.79086 53 5H55C55 1.68629 52.3137 -1 49 -1V1ZM5 -1C1.68629 -1 -1 1.68629 -1 5H1C1 2.79086 2.79086 1 5 1V-1Z" fill="#369CB7"/>
<path d="M84 5C84 2.23858 86.2386 0 89 0H133C135.761 0 138 2.23858 138 5V25C138 27.7614 135.761 30 133 30H89C86.2386 30 84 27.7614 84 25V5Z" fill="#369CB7"/>
<path d="M110.384 19.434V21H101.33V19.776L106.46 14.826C107.084 14.226 107.504 13.71 107.72 13.278C107.936 12.834 108.044 12.39 108.044 11.946C108.044 11.286 107.81 10.776 107.342 10.416C106.886 10.044 106.226 9.858 105.362 9.858C103.97 9.858 102.896 10.314 102.14 11.226L100.916 10.164C101.408 9.564 102.05 9.096 102.842 8.76C103.646 8.424 104.54 8.256 105.524 8.256C106.844 8.256 107.894 8.574 108.674 9.21C109.454 9.834 109.844 10.686 109.844 11.766C109.844 12.438 109.7 13.074 109.412 13.674C109.124 14.274 108.578 14.958 107.774 15.726L103.922 19.434H110.384ZM115.464 13.422C117.264 13.422 118.584 13.764 119.424 14.448C120.276 15.12 120.702 16.044 120.702 17.22C120.702 17.964 120.522 18.636 120.162 19.236C119.814 19.824 119.28 20.292 118.56 20.64C117.852 20.976 116.976 21.144 115.932 21.144C115.044 21.144 114.186 21.012 113.358 20.748C112.53 20.472 111.846 20.094 111.306 19.614L112.134 18.192C112.566 18.6 113.118 18.93 113.79 19.182C114.462 19.422 115.17 19.542 115.914 19.542C116.862 19.542 117.594 19.344 118.11 18.948C118.638 18.54 118.902 17.988 118.902 17.292C118.902 16.536 118.614 15.966 118.038 15.582C117.462 15.186 116.478 14.988 115.086 14.988H112.224L112.89 8.4H120V9.966H114.402L114.06 13.422H115.464Z" fill="white"/>
<path d="M89 1H133V-1H89V1ZM137 5V25H139V5H137ZM133 29H89V31H133V29ZM85 25V5H83V25H85ZM89 29C86.7909 29 85 27.2091 85 25H83C83 28.3137 85.6863 31 89 31V29ZM137 25C137 27.2091 135.209 29 133 29V31C136.314 31 139 28.3137 139 25H137ZM133 1C135.209 1 137 2.79086 137 5H139C139 1.68629 136.314 -1 133 -1V1ZM89 -1C85.6863 -1 83 1.68629 83 5H85C85 2.79086 86.7909 1 89 1V-1Z" fill="#369CB7"/>
<path d="M168 5C168 2.23858 170.239 0 173 0H217C219.761 0 222 2.23858 222 5V25C222 27.7614 219.761 30 217 30H173C170.239 30 168 27.7614 168 25V5Z" fill="#369CB7"/>
<path d="M189.535 13.692C190.771 13.812 191.713 14.196 192.361 14.844C193.009 15.48 193.333 16.296 193.333 17.292C193.333 18.012 193.153 18.666 192.793 19.254C192.433 19.83 191.893 20.292 191.173 20.64C190.465 20.976 189.595 21.144 188.563 21.144C187.663 21.144 186.799 21.012 185.971 20.748C185.143 20.472 184.465 20.094 183.937 19.614L184.765 18.192C185.197 18.6 185.749 18.93 186.421 19.182C187.093 19.422 187.807 19.542 188.563 19.542C189.499 19.542 190.225 19.344 190.741 18.948C191.269 18.552 191.533 18.006 191.533 17.31C191.533 16.614 191.275 16.074 190.759 15.69C190.243 15.306 189.463 15.114 188.419 15.114H187.411V13.854L190.579 9.966H184.513V8.4H192.829V9.624L189.535 13.692ZM200.159 21.144C199.163 21.144 198.275 20.892 197.495 20.388C196.727 19.872 196.121 19.128 195.677 18.156C195.233 17.184 195.011 16.032 195.011 14.7C195.011 13.368 195.233 12.216 195.677 11.244C196.121 10.272 196.727 9.534 197.495 9.03C198.275 8.514 199.163 8.256 200.159 8.256C201.143 8.256 202.019 8.514 202.787 9.03C203.567 9.534 204.179 10.272 204.623 11.244C205.067 12.216 205.289 13.368 205.289 14.7C205.289 16.032 205.067 17.184 204.623 18.156C204.179 19.128 203.567 19.872 202.787 20.388C202.019 20.892 201.143 21.144 200.159 21.144ZM200.159 19.542C201.167 19.542 201.971 19.128 202.571 18.3C203.183 17.472 203.489 16.272 203.489 14.7C203.489 13.128 203.183 11.928 202.571 11.1C201.971 10.272 201.167 9.858 200.159 9.858C199.139 9.858 198.323 10.272 197.711 11.1C197.111 11.928 196.811 13.128 196.811 14.7C196.811 16.272 197.111 17.472 197.711 18.3C198.323 19.128 199.139 19.542 200.159 19.542Z" fill="white"/>
<path d="M173 1H217V-1H173V1ZM221 5V25H223V5H221ZM217 29H173V31H217V29ZM169 25V5H167V25H169ZM173 29C170.791 29 169 27.2091 169 25H167C167 28.3137 169.686 31 173 31V29ZM221 25C221 27.2091 219.209 29 217 29V31C220.314 31 223 28.3137 223 25H221ZM217 1C219.209 1 221 2.79086 221 5H223C223 1.68629 220.314 -1 217 -1V1ZM173 -1C169.686 -1 167 1.68629 167 5H169C169 2.79086 170.791 1 173 1V-1Z" fill="#369CB7"/>
<path d="M252 5C252 2.23858 254.239 0 257 0H301C303.761 0 306 2.23858 306 5V25C306 27.7614 303.761 30 301 30H257C254.239 30 252 27.7614 252 25V5Z" fill="#369CB7"/>
<path d="M274.458 13.692C275.694 13.812 276.636 14.196 277.284 14.844C277.932 15.48 278.256 16.296 278.256 17.292C278.256 18.012 278.076 18.666 277.716 19.254C277.356 19.83 276.816 20.292 276.096 20.64C275.388 20.976 274.518 21.144 273.486 21.144C272.586 21.144 271.722 21.012 270.894 20.748C270.066 20.472 269.388 20.094 268.86 19.614L269.688 18.192C270.12 18.6 270.672 18.93 271.344 19.182C272.016 19.422 272.73 19.542 273.486 19.542C274.422 19.542 275.148 19.344 275.664 18.948C276.192 18.552 276.456 18.006 276.456 17.31C276.456 16.614 276.198 16.074 275.682 15.69C275.166 15.306 274.386 15.114 273.342 15.114H272.334V13.854L275.502 9.966H269.436V8.4H277.752V9.624L274.458 13.692ZM283.359 13.422C285.159 13.422 286.479 13.764 287.319 14.448C288.171 15.12 288.597 16.044 288.597 17.22C288.597 17.964 288.417 18.636 288.057 19.236C287.709 19.824 287.175 20.292 286.455 20.64C285.747 20.976 284.871 21.144 283.827 21.144C282.939 21.144 282.081 21.012 281.253 20.748C280.425 20.472 279.741 20.094 279.201 19.614L280.029 18.192C280.461 18.6 281.013 18.93 281.685 19.182C282.357 19.422 283.065 19.542 283.809 19.542C284.757 19.542 285.489 19.344 286.005 18.948C286.533 18.54 286.797 17.988 286.797 17.292C286.797 16.536 286.509 15.966 285.933 15.582C285.357 15.186 284.373 14.988 282.981 14.988H280.119L280.785 8.4H287.895V9.966H282.297L281.955 13.422H283.359Z" fill="white"/>
<path d="M257 1H301V-1H257V1ZM305 5V25H307V5H305ZM301 29H257V31H301V29ZM253 25V5H251V25H253ZM257 29C254.791 29 253 27.2091 253 25H251C251 28.3137 253.686 31 257 31V29ZM305 25C305 27.2091 303.209 29 301 29V31C304.314 31 307 28.3137 307 25H305ZM301 1C303.209 1 305 2.79086 305 5H307C307 1.68629 304.314 -1 301 -1V1ZM257 -1C253.686 -1 251 1.68629 251 5H253C253 2.79086 254.791 1 257 1V-1Z" fill="#369CB7"/>
<path d="M336 5C336 2.23858 338.239 0 341 0H385C387.761 0 390 2.23858 390 5V25C390 27.7614 387.761 30 385 30H341C338.239 30 336 27.7614 336 25V5Z" fill="#369CB7"/>
<path d="M362.803 17.904H360.409V21H358.663V17.904H351.661V16.644L358.105 8.4H360.049L353.875 16.356H358.717V13.62H360.409V16.356H362.803V17.904ZM369.03 21.144C368.034 21.144 367.146 20.892 366.366 20.388C365.598 19.872 364.992 19.128 364.548 18.156C364.104 17.184 363.882 16.032 363.882 14.7C363.882 13.368 364.104 12.216 364.548 11.244C364.992 10.272 365.598 9.534 366.366 9.03C367.146 8.514 368.034 8.256 369.03 8.256C370.014 8.256 370.89 8.514 371.658 9.03C372.438 9.534 373.05 10.272 373.494 11.244C373.938 12.216 374.16 13.368 374.16 14.7C374.16 16.032 373.938 17.184 373.494 18.156C373.05 19.128 372.438 19.872 371.658 20.388C370.89 20.892 370.014 21.144 369.03 21.144ZM369.03 19.542C370.038 19.542 370.842 19.128 371.442 18.3C372.054 17.472 372.36 16.272 372.36 14.7C372.36 13.128 372.054 11.928 371.442 11.1C370.842 10.272 370.038 9.858 369.03 9.858C368.01 9.858 367.194 10.272 366.582 11.1C365.982 11.928 365.682 13.128 365.682 14.7C365.682 16.272 365.982 17.472 366.582 18.3C367.194 19.128 368.01 19.542 369.03 19.542Z" fill="white"/>
<path d="M341 1H385V-1H341V1ZM389 5V25H391V5H389ZM385 29H341V31H385V29ZM337 25V5H335V25H337ZM341 29C338.791 29 337 27.2091 337 25H335C335 28.3137 337.686 31 341 31V29ZM389 25C389 27.2091 387.209 29 385 29V31C388.314 31 391 28.3137 391 25H389ZM385 1C387.209 1 389 2.79086 389 5H391C391 1.68629 388.314 -1 385 -1V1ZM341 -1C337.686 -1 335 1.68629 335 5H337C337 2.79086 338.791 1 341 1V-1Z" fill="#369CB7"/>
<path d="M420 5C420 2.23858 422.239 0 425 0H469C471.761 0 474 2.23858 474 5V25C474 27.7614 471.761 30 469 30H425C422.239 30 420 27.7614 420 25V5Z" fill="#369CB7"/>
<path d="M447.664 17.904H445.27V21H443.524V17.904H436.522V16.644L442.966 8.4H444.91L438.736 16.356H443.578V13.62H445.27V16.356H447.664V17.904ZM452.29 13.422C454.09 13.422 455.41 13.764 456.25 14.448C457.102 15.12 457.528 16.044 457.528 17.22C457.528 17.964 457.348 18.636 456.988 19.236C456.64 19.824 456.106 20.292 455.386 20.64C454.678 20.976 453.802 21.144 452.758 21.144C451.87 21.144 451.012 21.012 450.184 20.748C449.356 20.472 448.672 20.094 448.132 19.614L448.96 18.192C449.392 18.6 449.944 18.93 450.616 19.182C451.288 19.422 451.996 19.542 452.74 19.542C453.688 19.542 454.42 19.344 454.936 18.948C455.464 18.54 455.728 17.988 455.728 17.292C455.728 16.536 455.44 15.966 454.864 15.582C454.288 15.186 453.304 14.988 451.912 14.988H449.05L449.716 8.4H456.826V9.966H451.228L450.886 13.422H452.29Z" fill="white"/>
<path d="M425 1H469V-1H425V1ZM473 5V25H475V5H473ZM469 29H425V31H469V29ZM421 25V5H419V25H421ZM425 29C422.791 29 421 27.2091 421 25H419C419 28.3137 421.686 31 425 31V29ZM473 25C473 27.2091 471.209 29 469 29V31C472.314 31 475 28.3137 475 25H473ZM469 1C471.209 1 473 2.79086 473 5H475C475 1.68629 472.314 -1 469 -1V1ZM425 -1C421.686 -1 419 1.68629 419 5H421C421 2.79086 422.791 1 425 1V-1Z" fill="#369CB7"/>
<path d="M179.025 91L176.145 86.95C175.821 86.986 175.485 87.004 175.137 87.004H171.753V91H170.421V78.4H175.137C176.745 78.4 178.005 78.784 178.917 79.552C179.829 80.32 180.285 81.376 180.285 82.72C180.285 83.704 180.033 84.538 179.529 85.222C179.037 85.894 178.329 86.38 177.405 86.68L180.483 91H179.025ZM175.101 85.87C176.349 85.87 177.303 85.594 177.963 85.042C178.623 84.49 178.953 83.716 178.953 82.72C178.953 81.7 178.623 80.92 177.963 80.38C177.303 79.828 176.349 79.552 175.101 79.552H171.753V85.87H175.101ZM191.691 81.532V91H190.467V89.272C190.131 89.848 189.669 90.298 189.081 90.622C188.493 90.934 187.821 91.09 187.065 91.09C185.829 91.09 184.851 90.748 184.131 90.064C183.423 89.368 183.069 88.354 183.069 87.022V81.532H184.347V86.896C184.347 87.892 184.593 88.648 185.085 89.164C185.577 89.68 186.279 89.938 187.191 89.938C188.187 89.938 188.973 89.638 189.549 89.038C190.125 88.426 190.413 87.58 190.413 86.5V81.532H191.691ZM195.27 77.644H196.548V91H195.27V77.644ZM208.348 86.662H200.428C200.5 87.646 200.878 88.444 201.562 89.056C202.246 89.656 203.11 89.956 204.154 89.956C204.742 89.956 205.282 89.854 205.774 89.65C206.266 89.434 206.692 89.122 207.052 88.714L207.772 89.542C207.352 90.046 206.824 90.43 206.188 90.694C205.564 90.958 204.874 91.09 204.118 91.09C203.146 91.09 202.282 90.886 201.526 90.478C200.782 90.058 200.2 89.482 199.78 88.75C199.36 88.018 199.15 87.19 199.15 86.266C199.15 85.342 199.348 84.514 199.744 83.782C200.152 83.05 200.704 82.48 201.4 82.072C202.108 81.664 202.9 81.46 203.776 81.46C204.652 81.46 205.438 81.664 206.134 82.072C206.83 82.48 207.376 83.05 207.772 83.782C208.168 84.502 208.366 85.33 208.366 86.266L208.348 86.662ZM203.776 82.558C202.864 82.558 202.096 82.852 201.472 83.44C200.86 84.016 200.512 84.772 200.428 85.708H207.142C207.058 84.772 206.704 84.016 206.08 83.44C205.468 82.852 204.7 82.558 203.776 82.558ZM211.094 83.422C210.83 83.422 210.602 83.326 210.41 83.134C210.23 82.942 210.14 82.708 210.14 82.432C210.14 82.156 210.23 81.928 210.41 81.748C210.602 81.556 210.83 81.46 211.094 81.46C211.358 81.46 211.586 81.556 211.778 81.748C211.97 81.928 212.066 82.156 212.066 82.432C212.066 82.708 211.97 82.942 211.778 83.134C211.586 83.326 211.358 83.422 211.094 83.422ZM211.094 91.09C210.83 91.09 210.602 90.994 210.41 90.802C210.23 90.61 210.14 90.376 210.14 90.1C210.14 89.824 210.23 89.596 210.41 89.416C210.602 89.224 210.83 89.128 211.094 89.128C211.358 89.128 211.586 89.224 211.778 89.416C211.97 89.596 212.066 89.824 212.066 90.1C212.066 90.376 211.97 90.61 211.778 90.802C211.586 90.994 211.358 91.09 211.094 91.09Z" fill="#2F2F2F"/>
<path d="M231.545 86.564H227.369V90.644H224.273V86.564H220.121V83.636H224.273V79.556H227.369V83.636H231.545V86.564Z" fill="#2F2F2F"/>
<path d="M272.296 83.422C274.096 83.422 275.416 83.764 276.256 84.448C277.108 85.12 277.534 86.044 277.534 87.22C277.534 87.964 277.354 88.636 276.994 89.236C276.646 89.824 276.112 90.292 275.392 90.64C274.684 90.976 273.808 91.144 272.764 91.144C271.876 91.144 271.018 91.012 270.19 90.748C269.362 90.472 268.678 90.094 268.138 89.614L268.966 88.192C269.398 88.6 269.95 88.93 270.622 89.182C271.294 89.422 272.002 89.542 272.746 89.542C273.694 89.542 274.426 89.344 274.942 88.948C275.47 88.54 275.734 87.988 275.734 87.292C275.734 86.536 275.446 85.966 274.87 85.582C274.294 85.186 273.31 84.988 271.918 84.988H269.056L269.722 78.4H276.832V79.966H271.234L270.892 83.422H272.296Z" fill="#2F2F2F"/>
<path d="M243 71H303V69H243V71ZM307 75V95H309V75H307ZM303 99H243V101H303V99ZM239 95V75H237V95H239ZM243 99C240.791 99 239 97.2091 239 95H237C237 98.3137 239.686 101 243 101V99ZM307 95C307 97.2091 305.209 99 303 99V101C306.314 101 309 98.3137 309 95H307ZM303 71C305.209 71 307 72.7909 307 75H309C309 71.6863 306.314 69 303 69V71ZM243 69C239.686 69 237 71.6863 237 75H239C239 72.7909 240.791 71 243 71V69Z" fill="#2F2F2F"/>
</svg>
