<svg width="417" height="30" viewBox="0 0 417 30" fill="none" xmlns="http://www.w3.org/2000/svg">
<path d="M5.1157 8.4V21H3.3337V9.966H0.489703V8.4H5.1157ZM11.4718 13.422C13.2718 13.422 14.5918 13.764 15.4318 14.448C16.2838 15.12 16.7098 16.044 16.7098 17.22C16.7098 17.964 16.5298 18.636 16.1698 19.236C15.8218 19.824 15.2878 20.292 14.5678 20.64C13.8598 20.976 12.9838 21.144 11.9398 21.144C11.0518 21.144 10.1938 21.012 9.36581 20.748C8.53781 20.472 7.85381 20.094 7.31381 19.614L8.14181 18.192C8.57381 18.6 9.12581 18.93 9.79781 19.182C10.4698 19.422 11.1778 19.542 11.9218 19.542C12.8698 19.542 13.6018 19.344 14.1178 18.948C14.6458 18.54 14.9098 17.988 14.9098 17.292C14.9098 16.536 14.6218 15.966 14.0458 15.582C13.4698 15.186 12.4858 14.988 11.0938 14.988H8.23181L8.89781 8.4H16.0078V9.966H10.4098L10.0678 13.422H11.4718ZM31.4477 15.42H28.1717V18.642H26.6597V15.42H23.3837V13.998H26.6597V10.758H28.1717V13.998H31.4477V15.42Z" fill="#2F2F2F"/>
<path d="M62.552 19.434V21H53.498V19.776L58.628 14.826C59.252 14.226 59.672 13.71 59.888 13.278C60.104 12.834 60.212 12.39 60.212 11.946C60.212 11.286 59.978 10.776 59.51 10.416C59.054 10.044 58.394 9.858 57.53 9.858C56.138 9.858 55.064 10.314 54.308 11.226L53.084 10.164C53.576 9.564 54.218 9.096 55.01 8.76C55.814 8.424 56.708 8.256 57.692 8.256C59.012 8.256 60.062 8.574 60.842 9.21C61.622 9.834 62.012 10.686 62.012 11.766C62.012 12.438 61.868 13.074 61.58 13.674C61.292 14.274 60.746 14.958 59.942 15.726L56.09 19.434H62.552Z" fill="#2F2F2F"/>
<path d="M43 1H73V-1H43V1ZM77 5V25H79V5H77ZM73 29H43V31H73V29ZM39 25V5H37V25H39ZM43 29C40.7909 29 39 27.2091 39 25H37C37 28.3137 39.6863 31 43 31V29ZM77 25C77 27.2091 75.2091 29 73 29V31C76.3137 31 79 28.3137 79 25H77ZM73 1C75.2091 1 77 2.79086 77 5H79C79 1.68629 76.3137 -1 73 -1V1ZM43 -1C39.6863 -1 37 1.68629 37 5H39C39 2.79086 40.7909 1 43 1V-1Z" fill="#2F2F2F"/>
<path d="M84.3408 11.856H92.4048V13.278H84.3408V11.856ZM84.3408 16.122H92.4048V17.544H84.3408V16.122ZM103.215 8.4V21H101.433V9.966H98.5893V8.4H103.215ZM115.151 8.4V9.624L110.057 21H108.149L113.135 9.966H107.375V12.216H105.647V8.4H115.151Z" fill="#2F2F2F"/>
<path d="M317.212 8.4V21H315.43V9.966H312.586V8.4H317.212ZM323.874 8.4V21H322.092V9.966H319.248V8.4H323.874ZM339.871 15.42H336.595V18.642H335.083V15.42H331.807V13.998H335.083V10.758H336.595V13.998H339.871V15.42ZM350.375 13.422C352.175 13.422 353.495 13.764 354.335 14.448C355.187 15.12 355.613 16.044 355.613 17.22C355.613 17.964 355.433 18.636 355.073 19.236C354.725 19.824 354.191 20.292 353.471 20.64C352.763 20.976 351.887 21.144 350.843 21.144C349.955 21.144 349.097 21.012 348.269 20.748C347.441 20.472 346.757 20.094 346.217 19.614L347.045 18.192C347.477 18.6 348.029 18.93 348.701 19.182C349.373 19.422 350.081 19.542 350.825 19.542C351.773 19.542 352.505 19.344 353.021 18.948C353.549 18.54 353.813 17.988 353.813 17.292C353.813 16.536 353.525 15.966 352.949 15.582C352.373 15.186 351.389 14.988 349.997 14.988H347.135L347.801 8.4H354.911V9.966H349.313L348.971 13.422H350.375ZM362.287 11.856H370.351V13.278H362.287V11.856ZM362.287 16.122H370.351V17.544H362.287V16.122Z" fill="#2F2F2F"/>
<path d="M392.884 8.4V21H391.102V9.966H388.258V8.4H392.884ZM401.076 13.35C401.904 13.35 402.642 13.506 403.29 13.818C403.95 14.13 404.466 14.58 404.838 15.168C405.21 15.744 405.396 16.41 405.396 17.166C405.396 17.958 405.198 18.654 404.802 19.254C404.418 19.854 403.884 20.322 403.2 20.658C402.528 20.982 401.772 21.144 400.932 21.144C399.24 21.144 397.932 20.598 397.008 19.506C396.096 18.414 395.64 16.866 395.64 14.862C395.64 13.458 395.886 12.264 396.378 11.28C396.882 10.284 397.578 9.534 398.466 9.03C399.366 8.514 400.41 8.256 401.598 8.256C402.21 8.256 402.786 8.322 403.326 8.454C403.866 8.574 404.334 8.754 404.73 8.994L404.046 10.398C403.446 10.002 402.642 9.804 401.634 9.804C400.326 9.804 399.3 10.212 398.556 11.028C397.812 11.832 397.44 13.008 397.44 14.556C397.44 14.748 397.446 14.898 397.458 15.006C397.818 14.466 398.31 14.058 398.934 13.782C399.57 13.494 400.284 13.35 401.076 13.35ZM400.86 19.686C401.688 19.686 402.36 19.464 402.876 19.02C403.392 18.576 403.65 17.982 403.65 17.238C403.65 16.494 403.386 15.906 402.858 15.474C402.342 15.03 401.646 14.808 400.77 14.808C400.206 14.808 399.702 14.916 399.258 15.132C398.826 15.348 398.484 15.642 398.232 16.014C397.992 16.386 397.872 16.8 397.872 17.256C397.872 17.7 397.986 18.108 398.214 18.48C398.454 18.84 398.796 19.134 399.24 19.362C399.696 19.578 400.236 19.686 400.86 19.686Z" fill="#2F2F2F"/>
<path d="M382 1H412V-1H382V1ZM416 5V25H418V5H416ZM412 29H382V31H412V29ZM378 25V5H376V25H378ZM382 29C379.791 29 378 27.2091 378 25H376C376 28.3137 378.686 31 382 31V29ZM416 25C416 27.2091 414.209 29 412 29V31C415.314 31 418 28.3137 418 25H416ZM412 1C414.209 1 416 2.79086 416 5H418C418 1.68629 415.314 -1 412 -1V1ZM382 -1C378.686 -1 376 1.68629 376 5H378C378 2.79086 379.791 1 382 1V-1Z" fill="#2F2F2F"/>
<path d="M185.395 8.256C187.087 8.256 188.389 8.802 189.301 9.894C190.225 10.986 190.687 12.534 190.687 14.538C190.687 15.942 190.435 17.142 189.931 18.138C189.439 19.122 188.743 19.872 187.843 20.388C186.955 20.892 185.917 21.144 184.729 21.144C184.117 21.144 183.541 21.084 183.001 20.964C182.461 20.832 181.993 20.646 181.597 20.406L182.281 19.002C182.893 19.398 183.703 19.596 184.711 19.596C186.019 19.596 187.039 19.194 187.771 18.39C188.515 17.574 188.887 16.392 188.887 14.844V14.394C188.527 14.934 188.029 15.348 187.393 15.636C186.757 15.912 186.043 16.05 185.251 16.05C184.423 16.05 183.679 15.894 183.019 15.582C182.371 15.27 181.861 14.826 181.489 14.25C181.129 13.662 180.949 12.99 180.949 12.234C180.949 11.442 181.141 10.746 181.525 10.146C181.921 9.546 182.455 9.084 183.127 8.76C183.799 8.424 184.555 8.256 185.395 8.256ZM185.557 14.592C186.121 14.592 186.625 14.484 187.069 14.268C187.513 14.052 187.855 13.758 188.095 13.386C188.347 13.014 188.473 12.6 188.473 12.144C188.473 11.7 188.353 11.298 188.113 10.938C187.885 10.566 187.543 10.272 187.087 10.056C186.643 9.828 186.103 9.714 185.467 9.714C184.639 9.714 183.967 9.936 183.451 10.38C182.947 10.824 182.695 11.418 182.695 12.162C182.695 12.906 182.953 13.5 183.469 13.944C183.985 14.376 184.681 14.592 185.557 14.592Z" fill="#2F2F2F"/>
<path d="M171 1H201V-1H171V1ZM205 5V25H207V5H205ZM201 29H171V31H201V29ZM167 25V5H165V25H167ZM171 29C168.791 29 167 27.2091 167 25H165C165 28.3137 167.686 31 171 31V29ZM205 25C205 27.2091 203.209 29 201 29V31C204.314 31 207 28.3137 207 25H205ZM201 1C203.209 1 205 2.79086 205 5H207C207 1.68629 204.314 -1 201 -1V1ZM171 -1C167.686 -1 165 1.68629 165 5H167C167 2.79086 168.791 1 171 1V-1Z" fill="#2F2F2F"/>
<path d="M212.468 15.312H217.31V16.806H212.468V15.312ZM231.735 14.394C232.455 14.67 233.007 15.066 233.391 15.582C233.775 16.098 233.967 16.716 233.967 17.436C233.967 18.192 233.763 18.852 233.355 19.416C232.947 19.968 232.365 20.394 231.609 20.694C230.853 20.994 229.965 21.144 228.945 21.144C227.937 21.144 227.055 20.994 226.299 20.694C225.555 20.394 224.979 19.968 224.571 19.416C224.163 18.852 223.959 18.192 223.959 17.436C223.959 16.716 224.145 16.098 224.517 15.582C224.901 15.066 225.453 14.67 226.173 14.394C225.597 14.118 225.159 13.752 224.859 13.296C224.559 12.84 224.409 12.3 224.409 11.676C224.409 10.98 224.595 10.374 224.967 9.858C225.351 9.342 225.885 8.946 226.569 8.67C227.253 8.394 228.045 8.256 228.945 8.256C229.857 8.256 230.655 8.394 231.339 8.67C232.035 8.946 232.569 9.342 232.941 9.858C233.325 10.374 233.517 10.98 233.517 11.676C233.517 12.288 233.361 12.828 233.049 13.296C232.749 13.752 232.311 14.118 231.735 14.394ZM228.945 9.714C228.093 9.714 227.421 9.9 226.929 10.272C226.437 10.632 226.191 11.124 226.191 11.748C226.191 12.372 226.431 12.864 226.911 13.224C227.403 13.584 228.081 13.764 228.945 13.764C229.821 13.764 230.505 13.584 230.997 13.224C231.501 12.864 231.753 12.372 231.753 11.748C231.753 11.124 231.495 10.632 230.979 10.272C230.475 9.9 229.797 9.714 228.945 9.714ZM228.945 19.686C229.941 19.686 230.727 19.482 231.303 19.074C231.879 18.654 232.167 18.09 232.167 17.382C232.167 16.686 231.879 16.14 231.303 15.744C230.727 15.336 229.941 15.132 228.945 15.132C227.949 15.132 227.169 15.336 226.605 15.744C226.041 16.14 225.759 16.686 225.759 17.382C225.759 18.09 226.041 18.654 226.605 19.074C227.169 19.482 227.949 19.686 228.945 19.686ZM240.791 11.856H248.855V13.278H240.791V11.856ZM240.791 16.122H248.855V17.544H240.791V16.122ZM259.666 8.4V21H257.884V9.966H255.04V8.4H259.666Z" fill="#2F2F2F"/>
</svg>
