<svg width="474" height="98" viewBox="0 0 474 98" fill="none" xmlns="http://www.w3.org/2000/svg">
<path d="M0 5C0 2.23858 2.23858 0 5 0H49C51.7614 0 54 2.23858 54 5V25C54 27.7614 51.7614 30 49 30H5C2.23858 30 0 27.7614 0 25V5Z" fill="#369CB7"/>
<path d="M17.2944 8.4V21H15.5124V9.966H12.6684V8.4H17.2944ZM28.9065 19.434V21H19.8525V19.776L24.9825 14.826C25.6065 14.226 26.0265 13.71 26.2425 13.278C26.4585 12.834 26.5665 12.39 26.5665 11.946C26.5665 11.286 26.3325 10.776 25.8645 10.416C25.4085 10.044 24.7485 9.858 23.8845 9.858C22.4925 9.858 21.4185 10.314 20.6625 11.226L19.4385 10.164C19.9305 9.564 20.5725 9.096 21.3645 8.76C22.1685 8.424 23.0625 8.256 24.0465 8.256C25.3665 8.256 26.4165 8.574 27.1965 9.21C27.9765 9.834 28.3665 10.686 28.3665 11.766C28.3665 12.438 28.2225 13.074 27.9345 13.674C27.6465 14.274 27.1005 14.958 26.2965 15.726L22.4445 19.434H28.9065ZM35.4817 21.144C34.4857 21.144 33.5977 20.892 32.8177 20.388C32.0497 19.872 31.4437 19.128 30.9997 18.156C30.5557 17.184 30.3337 16.032 30.3337 14.7C30.3337 13.368 30.5557 12.216 30.9997 11.244C31.4437 10.272 32.0497 9.534 32.8177 9.03C33.5977 8.514 34.4857 8.256 35.4817 8.256C36.4657 8.256 37.3417 8.514 38.1097 9.03C38.8897 9.534 39.5017 10.272 39.9457 11.244C40.3897 12.216 40.6117 13.368 40.6117 14.7C40.6117 16.032 40.3897 17.184 39.9457 18.156C39.5017 19.128 38.8897 19.872 38.1097 20.388C37.3417 20.892 36.4657 21.144 35.4817 21.144ZM35.4817 19.542C36.4897 19.542 37.2937 19.128 37.8937 18.3C38.5057 17.472 38.8117 16.272 38.8117 14.7C38.8117 13.128 38.5057 11.928 37.8937 11.1C37.2937 10.272 36.4897 9.858 35.4817 9.858C34.4617 9.858 33.6457 10.272 33.0337 11.1C32.4337 11.928 32.1337 13.128 32.1337 14.7C32.1337 16.272 32.4337 17.472 33.0337 18.3C33.6457 19.128 34.4617 19.542 35.4817 19.542Z" fill="white"/>
<path d="M5 1H49V-1H5V1ZM53 5V25H55V5H53ZM49 29H5V31H49V29ZM1 25V5H-1V25H1ZM5 29C2.79086 29 1 27.2091 1 25H-1C-1 28.3137 1.68629 31 5 31V29ZM53 25C53 27.2091 51.2091 29 49 29V31C52.3137 31 55 28.3137 55 25H53ZM49 1C51.2091 1 53 2.79086 53 5H55C55 1.68629 52.3137 -1 49 -1V1ZM5 -1C1.68629 -1 -1 1.68629 -1 5H1C1 2.79086 2.79086 1 5 1V-1Z" fill="#369CB7"/>
<path d="M84 5C84 2.23858 86.2386 0 89 0H133C135.761 0 138 2.23858 138 5V25C138 27.7614 135.761 30 133 30H89C86.2386 30 84 27.7614 84 25V5Z" fill="#369CB7"/>
<path d="M103.105 8.4V21H101.323V9.966H98.479V8.4H103.105ZM109.767 8.4V21H107.985V9.966H105.141V8.4H109.767ZM117.671 21.144C116.675 21.144 115.787 20.892 115.007 20.388C114.239 19.872 113.633 19.128 113.189 18.156C112.745 17.184 112.523 16.032 112.523 14.7C112.523 13.368 112.745 12.216 113.189 11.244C113.633 10.272 114.239 9.534 115.007 9.03C115.787 8.514 116.675 8.256 117.671 8.256C118.655 8.256 119.531 8.514 120.299 9.03C121.079 9.534 121.691 10.272 122.135 11.244C122.579 12.216 122.801 13.368 122.801 14.7C122.801 16.032 122.579 17.184 122.135 18.156C121.691 19.128 121.079 19.872 120.299 20.388C119.531 20.892 118.655 21.144 117.671 21.144ZM117.671 19.542C118.679 19.542 119.483 19.128 120.083 18.3C120.695 17.472 121.001 16.272 121.001 14.7C121.001 13.128 120.695 11.928 120.083 11.1C119.483 10.272 118.679 9.858 117.671 9.858C116.651 9.858 115.835 10.272 115.223 11.1C114.623 11.928 114.323 13.128 114.323 14.7C114.323 16.272 114.623 17.472 115.223 18.3C115.835 19.128 116.651 19.542 117.671 19.542Z" fill="white"/>
<path d="M89 1H133V-1H89V1ZM137 5V25H139V5H137ZM133 29H89V31H133V29ZM85 25V5H83V25H85ZM89 29C86.7909 29 85 27.2091 85 25H83C83 28.3137 85.6863 31 89 31V29ZM137 25C137 27.2091 135.209 29 133 29V31C136.314 31 139 28.3137 139 25H137ZM133 1C135.209 1 137 2.79086 137 5H139C139 1.68629 136.314 -1 133 -1V1ZM89 -1C85.6863 -1 83 1.68629 83 5H85C85 2.79086 86.7909 1 89 1V-1Z" fill="#369CB7"/>
<path d="M168 5C168 2.23858 170.239 0 173 0H217C219.761 0 222 2.23858 222 5V25C222 27.7614 219.761 30 217 30H173C170.239 30 168 27.7614 168 25V5Z" fill="#369CB7"/>
<path d="M193.838 8.4V9.624L188.744 21H186.836L191.822 9.966H186.062V12.216H184.334V8.4H193.838ZM200.212 21.144C199.216 21.144 198.328 20.892 197.548 20.388C196.78 19.872 196.174 19.128 195.73 18.156C195.286 17.184 195.064 16.032 195.064 14.7C195.064 13.368 195.286 12.216 195.73 11.244C196.174 10.272 196.78 9.534 197.548 9.03C198.328 8.514 199.216 8.256 200.212 8.256C201.196 8.256 202.072 8.514 202.84 9.03C203.62 9.534 204.232 10.272 204.676 11.244C205.12 12.216 205.342 13.368 205.342 14.7C205.342 16.032 205.12 17.184 204.676 18.156C204.232 19.128 203.62 19.872 202.84 20.388C202.072 20.892 201.196 21.144 200.212 21.144ZM200.212 19.542C201.22 19.542 202.024 19.128 202.624 18.3C203.236 17.472 203.542 16.272 203.542 14.7C203.542 13.128 203.236 11.928 202.624 11.1C202.024 10.272 201.22 9.858 200.212 9.858C199.192 9.858 198.376 10.272 197.764 11.1C197.164 11.928 196.864 13.128 196.864 14.7C196.864 16.272 197.164 17.472 197.764 18.3C198.376 19.128 199.192 19.542 200.212 19.542Z" fill="white"/>
<path d="M173 1H217V-1H173V1ZM221 5V25H223V5H221ZM217 29H173V31H217V29ZM169 25V5H167V25H169ZM173 29C170.791 29 169 27.2091 169 25H167C167 28.3137 169.686 31 173 31V29ZM221 25C221 27.2091 219.209 29 217 29V31C220.314 31 223 28.3137 223 25H221ZM217 1C219.209 1 221 2.79086 221 5H223C223 1.68629 220.314 -1 217 -1V1ZM173 -1C169.686 -1 167 1.68629 167 5H169C169 2.79086 170.791 1 173 1V-1Z" fill="#369CB7"/>
<path d="M252 5C252 2.23858 254.239 0 257 0H301C303.761 0 306 2.23858 306 5V25C306 27.7614 303.761 30 301 30H257C254.239 30 252 27.7614 252 25V5Z" fill="#369CB7"/>
<path d="M268.433 8.4V21H266.651V9.966H263.807V8.4H268.433ZM276.337 21.144C275.341 21.144 274.453 20.892 273.673 20.388C272.905 19.872 272.299 19.128 271.855 18.156C271.411 17.184 271.189 16.032 271.189 14.7C271.189 13.368 271.411 12.216 271.855 11.244C272.299 10.272 272.905 9.534 273.673 9.03C274.453 8.514 275.341 8.256 276.337 8.256C277.321 8.256 278.197 8.514 278.965 9.03C279.745 9.534 280.357 10.272 280.801 11.244C281.245 12.216 281.467 13.368 281.467 14.7C281.467 16.032 281.245 17.184 280.801 18.156C280.357 19.128 279.745 19.872 278.965 20.388C278.197 20.892 277.321 21.144 276.337 21.144ZM276.337 19.542C277.345 19.542 278.149 19.128 278.749 18.3C279.361 17.472 279.667 16.272 279.667 14.7C279.667 13.128 279.361 11.928 278.749 11.1C278.149 10.272 277.345 9.858 276.337 9.858C275.317 9.858 274.501 10.272 273.889 11.1C273.289 11.928 272.989 13.128 272.989 14.7C272.989 16.272 273.289 17.472 273.889 18.3C274.501 19.128 275.317 19.542 276.337 19.542ZM288.343 21.144C287.347 21.144 286.459 20.892 285.679 20.388C284.911 19.872 284.305 19.128 283.861 18.156C283.417 17.184 283.195 16.032 283.195 14.7C283.195 13.368 283.417 12.216 283.861 11.244C284.305 10.272 284.911 9.534 285.679 9.03C286.459 8.514 287.347 8.256 288.343 8.256C289.327 8.256 290.203 8.514 290.971 9.03C291.751 9.534 292.363 10.272 292.807 11.244C293.251 12.216 293.473 13.368 293.473 14.7C293.473 16.032 293.251 17.184 292.807 18.156C292.363 19.128 291.751 19.872 290.971 20.388C290.203 20.892 289.327 21.144 288.343 21.144ZM288.343 19.542C289.351 19.542 290.155 19.128 290.755 18.3C291.367 17.472 291.673 16.272 291.673 14.7C291.673 13.128 291.367 11.928 290.755 11.1C290.155 10.272 289.351 9.858 288.343 9.858C287.323 9.858 286.507 10.272 285.895 11.1C285.295 11.928 284.995 13.128 284.995 14.7C284.995 16.272 285.295 17.472 285.895 18.3C286.507 19.128 287.323 19.542 288.343 19.542Z" fill="white"/>
<path d="M257 1H301V-1H257V1ZM305 5V25H307V5H305ZM301 29H257V31H301V29ZM253 25V5H251V25H253ZM257 29C254.791 29 253 27.2091 253 25H251C251 28.3137 253.686 31 257 31V29ZM305 25C305 27.2091 303.209 29 301 29V31C304.314 31 307 28.3137 307 25H305ZM301 1C303.209 1 305 2.79086 305 5H307C307 1.68629 304.314 -1 301 -1V1ZM257 -1C253.686 -1 251 1.68629 251 5H253C253 2.79086 254.791 1 257 1V-1Z" fill="#369CB7"/>
<path d="M336 5C336 2.23858 338.239 0 341 0H385C387.761 0 390 2.23858 390 5V25C390 27.7614 387.761 30 385 30H341C338.239 30 336 27.7614 336 25V5Z" fill="#369CB7"/>
<path d="M356.392 8.256C358.084 8.256 359.386 8.802 360.298 9.894C361.222 10.986 361.684 12.534 361.684 14.538C361.684 15.942 361.432 17.142 360.928 18.138C360.436 19.122 359.74 19.872 358.84 20.388C357.952 20.892 356.914 21.144 355.726 21.144C355.114 21.144 354.538 21.084 353.998 20.964C353.458 20.832 352.99 20.646 352.594 20.406L353.278 19.002C353.89 19.398 354.7 19.596 355.708 19.596C357.016 19.596 358.036 19.194 358.768 18.39C359.512 17.574 359.884 16.392 359.884 14.844V14.394C359.524 14.934 359.026 15.348 358.39 15.636C357.754 15.912 357.04 16.05 356.248 16.05C355.42 16.05 354.676 15.894 354.016 15.582C353.368 15.27 352.858 14.826 352.486 14.25C352.126 13.662 351.946 12.99 351.946 12.234C351.946 11.442 352.138 10.746 352.522 10.146C352.918 9.546 353.452 9.084 354.124 8.76C354.796 8.424 355.552 8.256 356.392 8.256ZM356.554 14.592C357.118 14.592 357.622 14.484 358.066 14.268C358.51 14.052 358.852 13.758 359.092 13.386C359.344 13.014 359.47 12.6 359.47 12.144C359.47 11.7 359.35 11.298 359.11 10.938C358.882 10.566 358.54 10.272 358.084 10.056C357.64 9.828 357.1 9.714 356.464 9.714C355.636 9.714 354.964 9.936 354.448 10.38C353.944 10.824 353.692 11.418 353.692 12.162C353.692 12.906 353.95 13.5 354.466 13.944C354.982 14.376 355.678 14.592 356.554 14.592ZM368.564 21.144C367.568 21.144 366.68 20.892 365.9 20.388C365.132 19.872 364.526 19.128 364.082 18.156C363.638 17.184 363.416 16.032 363.416 14.7C363.416 13.368 363.638 12.216 364.082 11.244C364.526 10.272 365.132 9.534 365.9 9.03C366.68 8.514 367.568 8.256 368.564 8.256C369.548 8.256 370.424 8.514 371.192 9.03C371.972 9.534 372.584 10.272 373.028 11.244C373.472 12.216 373.694 13.368 373.694 14.7C373.694 16.032 373.472 17.184 373.028 18.156C372.584 19.128 371.972 19.872 371.192 20.388C370.424 20.892 369.548 21.144 368.564 21.144ZM368.564 19.542C369.572 19.542 370.376 19.128 370.976 18.3C371.588 17.472 371.894 16.272 371.894 14.7C371.894 13.128 371.588 11.928 370.976 11.1C370.376 10.272 369.572 9.858 368.564 9.858C367.544 9.858 366.728 10.272 366.116 11.1C365.516 11.928 365.216 13.128 365.216 14.7C365.216 16.272 365.516 17.472 366.116 18.3C366.728 19.128 367.544 19.542 368.564 19.542Z" fill="white"/>
<path d="M341 1H385V-1H341V1ZM389 5V25H391V5H389ZM385 29H341V31H385V29ZM337 25V5H335V25H337ZM341 29C338.791 29 337 27.2091 337 25H335C335 28.3137 337.686 31 341 31V29ZM389 25C389 27.2091 387.209 29 385 29V31C388.314 31 391 28.3137 391 25H389ZM385 1C387.209 1 389 2.79086 389 5H391C391 1.68629 388.314 -1 385 -1V1ZM341 -1C337.686 -1 335 1.68629 335 5H337C337 2.79086 338.791 1 341 1V-1Z" fill="#369CB7"/>
<path d="M420 5C420 2.23858 422.239 0 425 0H469C471.761 0 474 2.23858 474 5V25C474 27.7614 471.761 30 469 30H425C422.239 30 420 27.7614 420 25V5Z" fill="#369CB7"/>
<path d="M443.773 14.394C444.493 14.67 445.045 15.066 445.429 15.582C445.813 16.098 446.005 16.716 446.005 17.436C446.005 18.192 445.801 18.852 445.393 19.416C444.985 19.968 444.403 20.394 443.647 20.694C442.891 20.994 442.003 21.144 440.983 21.144C439.975 21.144 439.093 20.994 438.337 20.694C437.593 20.394 437.017 19.968 436.609 19.416C436.201 18.852 435.997 18.192 435.997 17.436C435.997 16.716 436.183 16.098 436.555 15.582C436.939 15.066 437.491 14.67 438.211 14.394C437.635 14.118 437.197 13.752 436.897 13.296C436.597 12.84 436.447 12.3 436.447 11.676C436.447 10.98 436.633 10.374 437.005 9.858C437.389 9.342 437.923 8.946 438.607 8.67C439.291 8.394 440.083 8.256 440.983 8.256C441.895 8.256 442.693 8.394 443.377 8.67C444.073 8.946 444.607 9.342 444.979 9.858C445.363 10.374 445.555 10.98 445.555 11.676C445.555 12.288 445.399 12.828 445.087 13.296C444.787 13.752 444.349 14.118 443.773 14.394ZM440.983 9.714C440.131 9.714 439.459 9.9 438.967 10.272C438.475 10.632 438.229 11.124 438.229 11.748C438.229 12.372 438.469 12.864 438.949 13.224C439.441 13.584 440.119 13.764 440.983 13.764C441.859 13.764 442.543 13.584 443.035 13.224C443.539 12.864 443.791 12.372 443.791 11.748C443.791 11.124 443.533 10.632 443.017 10.272C442.513 9.9 441.835 9.714 440.983 9.714ZM440.983 19.686C441.979 19.686 442.765 19.482 443.341 19.074C443.917 18.654 444.205 18.09 444.205 17.382C444.205 16.686 443.917 16.14 443.341 15.744C442.765 15.336 441.979 15.132 440.983 15.132C439.987 15.132 439.207 15.336 438.643 15.744C438.079 16.14 437.797 16.686 437.797 17.382C437.797 18.09 438.079 18.654 438.643 19.074C439.207 19.482 439.987 19.686 440.983 19.686ZM452.801 21.144C451.805 21.144 450.917 20.892 450.137 20.388C449.369 19.872 448.763 19.128 448.319 18.156C447.875 17.184 447.653 16.032 447.653 14.7C447.653 13.368 447.875 12.216 448.319 11.244C448.763 10.272 449.369 9.534 450.137 9.03C450.917 8.514 451.805 8.256 452.801 8.256C453.785 8.256 454.661 8.514 455.429 9.03C456.209 9.534 456.821 10.272 457.265 11.244C457.709 12.216 457.931 13.368 457.931 14.7C457.931 16.032 457.709 17.184 457.265 18.156C456.821 19.128 456.209 19.872 455.429 20.388C454.661 20.892 453.785 21.144 452.801 21.144ZM452.801 19.542C453.809 19.542 454.613 19.128 455.213 18.3C455.825 17.472 456.131 16.272 456.131 14.7C456.131 13.128 455.825 11.928 455.213 11.1C454.613 10.272 453.809 9.858 452.801 9.858C451.781 9.858 450.965 10.272 450.353 11.1C449.753 11.928 449.453 13.128 449.453 14.7C449.453 16.272 449.753 17.472 450.353 18.3C450.965 19.128 451.781 19.542 452.801 19.542Z" fill="white"/>
<path d="M425 1H469V-1H425V1ZM473 5V25H475V5H473ZM469 29H425V31H469V29ZM421 25V5H419V25H421ZM425 29C422.791 29 421 27.2091 421 25H419C419 28.3137 421.686 31 425 31V29ZM473 25C473 27.2091 471.209 29 469 29V31C472.314 31 475 28.3137 475 25H473ZM469 1C471.209 1 473 2.79086 473 5H475C475 1.68629 472.314 -1 469 -1V1ZM425 -1C421.686 -1 419 1.68629 419 5H421C421 2.79086 422.791 1 425 1V-1Z" fill="#369CB7"/>
<path d="M181.025 89L178.145 84.95C177.821 84.986 177.485 85.004 177.137 85.004H173.753V89H172.421V76.4H177.137C178.745 76.4 180.005 76.784 180.917 77.552C181.829 78.32 182.285 79.376 182.285 80.72C182.285 81.704 182.033 82.538 181.529 83.222C181.037 83.894 180.329 84.38 179.405 84.68L182.483 89H181.025ZM177.101 83.87C178.349 83.87 179.303 83.594 179.963 83.042C180.623 82.49 180.953 81.716 180.953 80.72C180.953 79.7 180.623 78.92 179.963 78.38C179.303 77.828 178.349 77.552 177.101 77.552H173.753V83.87H177.101ZM193.691 79.532V89H192.467V87.272C192.131 87.848 191.669 88.298 191.081 88.622C190.493 88.934 189.821 89.09 189.065 89.09C187.829 89.09 186.851 88.748 186.131 88.064C185.423 87.368 185.069 86.354 185.069 85.022V79.532H186.347V84.896C186.347 85.892 186.593 86.648 187.085 87.164C187.577 87.68 188.279 87.938 189.191 87.938C190.187 87.938 190.973 87.638 191.549 87.038C192.125 86.426 192.413 85.58 192.413 84.5V79.532H193.691ZM197.27 75.644H198.548V89H197.27V75.644ZM210.348 84.662H202.428C202.5 85.646 202.878 86.444 203.562 87.056C204.246 87.656 205.11 87.956 206.154 87.956C206.742 87.956 207.282 87.854 207.774 87.65C208.266 87.434 208.692 87.122 209.052 86.714L209.772 87.542C209.352 88.046 208.824 88.43 208.188 88.694C207.564 88.958 206.874 89.09 206.118 89.09C205.146 89.09 204.282 88.886 203.526 88.478C202.782 88.058 202.2 87.482 201.78 86.75C201.36 86.018 201.15 85.19 201.15 84.266C201.15 83.342 201.348 82.514 201.744 81.782C202.152 81.05 202.704 80.48 203.4 80.072C204.108 79.664 204.9 79.46 205.776 79.46C206.652 79.46 207.438 79.664 208.134 80.072C208.83 80.48 209.376 81.05 209.772 81.782C210.168 82.502 210.366 83.33 210.366 84.266L210.348 84.662ZM205.776 80.558C204.864 80.558 204.096 80.852 203.472 81.44C202.86 82.016 202.512 82.772 202.428 83.708H209.142C209.058 82.772 208.704 82.016 208.08 81.44C207.468 80.852 206.7 80.558 205.776 80.558ZM213.094 81.422C212.83 81.422 212.602 81.326 212.41 81.134C212.23 80.942 212.14 80.708 212.14 80.432C212.14 80.156 212.23 79.928 212.41 79.748C212.602 79.556 212.83 79.46 213.094 79.46C213.358 79.46 213.586 79.556 213.778 79.748C213.97 79.928 214.066 80.156 214.066 80.432C214.066 80.708 213.97 80.942 213.778 81.134C213.586 81.326 213.358 81.422 213.094 81.422ZM213.094 89.09C212.83 89.09 212.602 88.994 212.41 88.802C212.23 88.61 212.14 88.376 212.14 88.1C212.14 87.824 212.23 87.596 212.41 87.416C212.602 87.224 212.83 87.128 213.094 87.128C213.358 87.128 213.586 87.224 213.778 87.416C213.97 87.596 214.066 87.824 214.066 88.1C214.066 88.376 213.97 88.61 213.778 88.802C213.586 88.994 213.358 89.09 213.094 89.09Z" fill="#2F2F2F"/>
<path d="M221.99 83.244H228.782V86.244H221.99V83.244Z" fill="#2F2F2F"/>
<path d="M265.436 76.4V89H263.654V77.966H260.81V76.4H265.436ZM273.34 89.144C272.344 89.144 271.456 88.892 270.676 88.388C269.908 87.872 269.302 87.128 268.858 86.156C268.414 85.184 268.192 84.032 268.192 82.7C268.192 81.368 268.414 80.216 268.858 79.244C269.302 78.272 269.908 77.534 270.676 77.03C271.456 76.514 272.344 76.256 273.34 76.256C274.324 76.256 275.2 76.514 275.968 77.03C276.748 77.534 277.36 78.272 277.804 79.244C278.248 80.216 278.47 81.368 278.47 82.7C278.47 84.032 278.248 85.184 277.804 86.156C277.36 87.128 276.748 87.872 275.968 88.388C275.2 88.892 274.324 89.144 273.34 89.144ZM273.34 87.542C274.348 87.542 275.152 87.128 275.752 86.3C276.364 85.472 276.67 84.272 276.67 82.7C276.67 81.128 276.364 79.928 275.752 79.1C275.152 78.272 274.348 77.858 273.34 77.858C272.32 77.858 271.504 78.272 270.892 79.1C270.292 79.928 269.992 81.128 269.992 82.7C269.992 84.272 270.292 85.472 270.892 86.3C271.504 87.128 272.32 87.542 273.34 87.542Z" fill="#2F2F2F"/>
<path d="M240 69H300V67H240V69ZM304 73V93H306V73H304ZM300 97H240V99H300V97ZM236 93V73H234V93H236ZM240 97C237.791 97 236 95.2091 236 93H234C234 96.3137 236.686 99 240 99V97ZM304 93C304 95.2091 302.209 97 300 97V99C303.314 99 306 96.3137 306 93H304ZM300 69C302.209 69 304 70.7909 304 73H306C306 69.6863 303.314 67 300 67V69ZM240 67C236.686 67 234 69.6863 234 73H236C236 70.7909 237.791 69 240 69V67Z" fill="#2F2F2F"/>
</svg>
