<svg width="123" height="45" viewBox="0 0 123 45" fill="none" xmlns="http://www.w3.org/2000/svg">
<rect x="1" y="0.5" width="121" height="44" rx="4.5" fill="white"/>
<path d="M21.6304 15.9V28.5H19.8484V17.466H17.0044V15.9H21.6304ZM35.3485 25.404H32.9545V28.5H31.2085V25.404H24.2065V24.144L30.6505 15.9H32.5945L26.4205 23.856H31.2625V21.12H32.9545V23.856H35.3485V25.404ZM49.6675 22.92H46.3915V26.142H44.8795V22.92H41.6035V21.498H44.8795V18.258H46.3915V21.498H49.6675V22.92ZM67.534 25.404H65.14V28.5H63.394V25.404H56.392V24.144L62.836 15.9H64.78L58.606 23.856H63.448V21.12H65.14V23.856H67.534V25.404ZM73.789 19.356H81.853V20.778H73.789V19.356ZM73.789 23.622H81.853V25.044H73.789V23.622ZM92.6636 15.9V28.5H90.8816V17.466H88.0376V15.9H92.6636ZM103.124 21.894C103.844 22.17 104.396 22.566 104.78 23.082C105.164 23.598 105.356 24.216 105.356 24.936C105.356 25.692 105.152 26.352 104.744 26.916C104.336 27.468 103.754 27.894 102.998 28.194C102.242 28.494 101.354 28.644 100.334 28.644C99.3257 28.644 98.4437 28.494 97.6877 28.194C96.9437 27.894 96.3677 27.468 95.9597 26.916C95.5517 26.352 95.3477 25.692 95.3477 24.936C95.3477 24.216 95.5337 23.598 95.9057 23.082C96.2897 22.566 96.8417 22.17 97.5617 21.894C96.9857 21.618 96.5477 21.252 96.2477 20.796C95.9477 20.34 95.7977 19.8 95.7977 19.176C95.7977 18.48 95.9837 17.874 96.3557 17.358C96.7397 16.842 97.2737 16.446 97.9577 16.17C98.6417 15.894 99.4337 15.756 100.334 15.756C101.246 15.756 102.044 15.894 102.728 16.17C103.424 16.446 103.958 16.842 104.33 17.358C104.714 17.874 104.906 18.48 104.906 19.176C104.906 19.788 104.75 20.328 104.438 20.796C104.138 21.252 103.7 21.618 103.124 21.894ZM100.334 17.214C99.4817 17.214 98.8097 17.4 98.3177 17.772C97.8257 18.132 97.5797 18.624 97.5797 19.248C97.5797 19.872 97.8197 20.364 98.2997 20.724C98.7917 21.084 99.4697 21.264 100.334 21.264C101.21 21.264 101.894 21.084 102.386 20.724C102.89 20.364 103.142 19.872 103.142 19.248C103.142 18.624 102.884 18.132 102.368 17.772C101.864 17.4 101.186 17.214 100.334 17.214ZM100.334 27.186C101.33 27.186 102.116 26.982 102.692 26.574C103.268 26.154 103.556 25.59 103.556 24.882C103.556 24.186 103.268 23.64 102.692 23.244C102.116 22.836 101.33 22.632 100.334 22.632C99.3377 22.632 98.5577 22.836 97.9937 23.244C97.4297 23.64 97.1477 24.186 97.1477 24.882C97.1477 25.59 97.4297 26.154 97.9937 26.574C98.5577 26.982 99.3377 27.186 100.334 27.186Z" fill="#2F2F2F"/>
<rect x="1" y="0.5" width="121" height="44" rx="4.5" stroke="#2F2F2F"/>
</svg>
