<svg width="702" height="79" viewBox="0 0 702 79" fill="none" xmlns="http://www.w3.org/2000/svg">
<path d="M0.93934 44.9393C0.353553 45.5251 0.353553 46.4749 0.93934 47.0607L10.4853 56.6066C11.0711 57.1924 12.0208 57.1924 12.6066 56.6066C13.1924 56.0208 13.1924 55.0711 12.6066 54.4853L4.12132 46L12.6066 37.5147C13.1924 36.9289 13.1924 35.9792 12.6066 35.3934C12.0208 34.8076 11.0711 34.8076 10.4853 35.3934L0.93934 44.9393ZM701.061 47.0607C701.646 46.4749 701.646 45.5251 701.061 44.9393L691.515 35.3934C690.929 34.8076 689.979 34.8076 689.393 35.3934C688.808 35.9792 688.808 36.9289 689.393 37.5147L697.879 46L689.393 54.4853C688.808 55.0711 688.808 56.0208 689.393 56.6066C689.979 57.1924 690.929 57.1924 691.515 56.6066L701.061 47.0607ZM2 47.5H700V44.5H2V47.5Z" fill="#369CB7"/>
<line x1="80.5" y1="37.5" x2="80.5" y2="54.5" stroke="#369CB7" stroke-width="3" stroke-linecap="round"/>
<path d="M75.77 63.4V76H73.988V64.966H71.144V63.4H75.77ZM89.4881 72.904H87.0941V76H85.3481V72.904H78.3461V71.644L84.7901 63.4H86.7341L80.5601 71.356H85.4021V68.62H87.0941V71.356H89.4881V72.904Z" fill="#2F2F2F"/>
<path d="M155.77 63.4V76H153.988V64.966H151.144V63.4H155.77ZM162.126 68.422C163.926 68.422 165.246 68.764 166.086 69.448C166.938 70.12 167.364 71.044 167.364 72.22C167.364 72.964 167.184 73.636 166.824 74.236C166.476 74.824 165.942 75.292 165.222 75.64C164.514 75.976 163.638 76.144 162.594 76.144C161.706 76.144 160.848 76.012 160.02 75.748C159.192 75.472 158.508 75.094 157.968 74.614L158.796 73.192C159.228 73.6 159.78 73.93 160.452 74.182C161.124 74.422 161.832 74.542 162.576 74.542C163.524 74.542 164.256 74.344 164.772 73.948C165.3 73.54 165.564 72.988 165.564 72.292C165.564 71.536 165.276 70.966 164.7 70.582C164.124 70.186 163.14 69.988 161.748 69.988H158.886L159.552 63.4H166.662V64.966H161.064L160.722 68.422H162.126Z" fill="#2F2F2F"/>
<path d="M629.72 74.434V76H620.666V74.776L625.796 69.826C626.42 69.226 626.84 68.71 627.056 68.278C627.272 67.834 627.38 67.39 627.38 66.946C627.38 66.286 627.146 65.776 626.678 65.416C626.222 65.044 625.562 64.858 624.698 64.858C623.306 64.858 622.232 65.314 621.476 66.226L620.252 65.164C620.744 64.564 621.386 64.096 622.178 63.76C622.982 63.424 623.876 63.256 624.86 63.256C626.18 63.256 627.23 63.574 628.01 64.21C628.79 64.834 629.18 65.686 629.18 66.766C629.18 67.438 629.036 68.074 628.748 68.674C628.46 69.274 627.914 69.958 627.11 70.726L623.258 74.434H629.72ZM635.106 63.4V76H633.324V64.966H630.48V63.4H635.106Z" fill="#2F2F2F"/>
<path d="M232.77 63.4V76H230.988V64.966H228.144V63.4H232.77ZM240.962 68.35C241.79 68.35 242.528 68.506 243.176 68.818C243.836 69.13 244.352 69.58 244.724 70.168C245.096 70.744 245.282 71.41 245.282 72.166C245.282 72.958 245.084 73.654 244.688 74.254C244.304 74.854 243.77 75.322 243.086 75.658C242.414 75.982 241.658 76.144 240.818 76.144C239.126 76.144 237.818 75.598 236.894 74.506C235.982 73.414 235.526 71.866 235.526 69.862C235.526 68.458 235.772 67.264 236.264 66.28C236.768 65.284 237.464 64.534 238.352 64.03C239.252 63.514 240.296 63.256 241.484 63.256C242.096 63.256 242.672 63.322 243.212 63.454C243.752 63.574 244.22 63.754 244.616 63.994L243.932 65.398C243.332 65.002 242.528 64.804 241.52 64.804C240.212 64.804 239.186 65.212 238.442 66.028C237.698 66.832 237.326 68.008 237.326 69.556C237.326 69.748 237.332 69.898 237.344 70.006C237.704 69.466 238.196 69.058 238.82 68.782C239.456 68.494 240.17 68.35 240.962 68.35ZM240.746 74.686C241.574 74.686 242.246 74.464 242.762 74.02C243.278 73.576 243.536 72.982 243.536 72.238C243.536 71.494 243.272 70.906 242.744 70.474C242.228 70.03 241.532 69.808 240.656 69.808C240.092 69.808 239.588 69.916 239.144 70.132C238.712 70.348 238.37 70.642 238.118 71.014C237.878 71.386 237.758 71.8 237.758 72.256C237.758 72.7 237.872 73.108 238.1 73.48C238.34 73.84 238.682 74.134 239.126 74.362C239.582 74.578 240.122 74.686 240.746 74.686Z" fill="#2F2F2F"/>
<path d="M310.77 63.4V76H308.988V64.966H306.144V63.4H310.77ZM322.706 63.4V64.624L317.612 76H315.704L320.69 64.966H314.93V67.216H313.202V63.4H322.706Z" fill="#2F2F2F"/>
<path d="M387.77 63.4V76H385.988V64.966H383.144V63.4H387.77ZM398.23 69.394C398.95 69.67 399.502 70.066 399.886 70.582C400.27 71.098 400.462 71.716 400.462 72.436C400.462 73.192 400.258 73.852 399.85 74.416C399.442 74.968 398.86 75.394 398.104 75.694C397.348 75.994 396.46 76.144 395.44 76.144C394.432 76.144 393.55 75.994 392.794 75.694C392.05 75.394 391.474 74.968 391.066 74.416C390.658 73.852 390.454 73.192 390.454 72.436C390.454 71.716 390.64 71.098 391.012 70.582C391.396 70.066 391.948 69.67 392.668 69.394C392.092 69.118 391.654 68.752 391.354 68.296C391.054 67.84 390.904 67.3 390.904 66.676C390.904 65.98 391.09 65.374 391.462 64.858C391.846 64.342 392.38 63.946 393.064 63.67C393.748 63.394 394.54 63.256 395.44 63.256C396.352 63.256 397.15 63.394 397.834 63.67C398.53 63.946 399.064 64.342 399.436 64.858C399.82 65.374 400.012 65.98 400.012 66.676C400.012 67.288 399.856 67.828 399.544 68.296C399.244 68.752 398.806 69.118 398.23 69.394ZM395.44 64.714C394.588 64.714 393.916 64.9 393.424 65.272C392.932 65.632 392.686 66.124 392.686 66.748C392.686 67.372 392.926 67.864 393.406 68.224C393.898 68.584 394.576 68.764 395.44 68.764C396.316 68.764 397 68.584 397.492 68.224C397.996 67.864 398.248 67.372 398.248 66.748C398.248 66.124 397.99 65.632 397.474 65.272C396.97 64.9 396.292 64.714 395.44 64.714ZM395.44 74.686C396.436 74.686 397.222 74.482 397.798 74.074C398.374 73.654 398.662 73.09 398.662 72.382C398.662 71.686 398.374 71.14 397.798 70.744C397.222 70.336 396.436 70.132 395.44 70.132C394.444 70.132 393.664 70.336 393.1 70.744C392.536 71.14 392.254 71.686 392.254 72.382C392.254 73.09 392.536 73.654 393.1 74.074C393.664 74.482 394.444 74.686 395.44 74.686Z" fill="#2F2F2F"/>
<path d="M467.77 63.4V76H465.988V64.966H463.144V63.4H467.77ZM474.612 63.256C476.304 63.256 477.606 63.802 478.518 64.894C479.442 65.986 479.904 67.534 479.904 69.538C479.904 70.942 479.652 72.142 479.148 73.138C478.656 74.122 477.96 74.872 477.06 75.388C476.172 75.892 475.134 76.144 473.946 76.144C473.334 76.144 472.758 76.084 472.218 75.964C471.678 75.832 471.21 75.646 470.814 75.406L471.498 74.002C472.11 74.398 472.92 74.596 473.928 74.596C475.236 74.596 476.256 74.194 476.988 73.39C477.732 72.574 478.104 71.392 478.104 69.844V69.394C477.744 69.934 477.246 70.348 476.61 70.636C475.974 70.912 475.26 71.05 474.468 71.05C473.64 71.05 472.896 70.894 472.236 70.582C471.588 70.27 471.078 69.826 470.706 69.25C470.346 68.662 470.166 67.99 470.166 67.234C470.166 66.442 470.358 65.746 470.742 65.146C471.138 64.546 471.672 64.084 472.344 63.76C473.016 63.424 473.772 63.256 474.612 63.256ZM474.774 69.592C475.338 69.592 475.842 69.484 476.286 69.268C476.73 69.052 477.072 68.758 477.312 68.386C477.564 68.014 477.69 67.6 477.69 67.144C477.69 66.7 477.57 66.298 477.33 65.938C477.102 65.566 476.76 65.272 476.304 65.056C475.86 64.828 475.32 64.714 474.684 64.714C473.856 64.714 473.184 64.936 472.668 65.38C472.164 65.824 471.912 66.418 471.912 67.162C471.912 67.906 472.17 68.5 472.686 68.944C473.202 69.376 473.898 69.592 474.774 69.592Z" fill="#2F2F2F"/>
<path d="M546.72 74.434V76H537.666V74.776L542.796 69.826C543.42 69.226 543.84 68.71 544.056 68.278C544.272 67.834 544.38 67.39 544.38 66.946C544.38 66.286 544.146 65.776 543.678 65.416C543.222 65.044 542.562 64.858 541.698 64.858C540.306 64.858 539.232 65.314 538.476 66.226L537.252 65.164C537.744 64.564 538.386 64.096 539.178 63.76C539.982 63.424 540.876 63.256 541.86 63.256C543.18 63.256 544.23 63.574 545.01 64.21C545.79 64.834 546.18 65.686 546.18 66.766C546.18 67.438 546.036 68.074 545.748 68.674C545.46 69.274 544.914 69.958 544.11 70.726L540.258 74.434H546.72ZM553.295 76.144C552.299 76.144 551.411 75.892 550.631 75.388C549.863 74.872 549.257 74.128 548.813 73.156C548.369 72.184 548.147 71.032 548.147 69.7C548.147 68.368 548.369 67.216 548.813 66.244C549.257 65.272 549.863 64.534 550.631 64.03C551.411 63.514 552.299 63.256 553.295 63.256C554.279 63.256 555.155 63.514 555.923 64.03C556.703 64.534 557.315 65.272 557.759 66.244C558.203 67.216 558.425 68.368 558.425 69.7C558.425 71.032 558.203 72.184 557.759 73.156C557.315 74.128 556.703 74.872 555.923 75.388C555.155 75.892 554.279 76.144 553.295 76.144ZM553.295 74.542C554.303 74.542 555.107 74.128 555.707 73.3C556.319 72.472 556.625 71.272 556.625 69.7C556.625 68.128 556.319 66.928 555.707 66.1C555.107 65.272 554.303 64.858 553.295 64.858C552.275 64.858 551.459 65.272 550.847 66.1C550.247 66.928 549.947 68.128 549.947 69.7C549.947 71.272 550.247 72.472 550.847 73.3C551.459 74.128 552.275 74.542 553.295 74.542Z" fill="#2F2F2F"/>
<line x1="158.5" y1="37.5" x2="158.5" y2="54.5" stroke="#369CB7" stroke-width="3" stroke-linecap="round"/>
<line x1="236.5" y1="37.5" x2="236.5" y2="54.5" stroke="#369CB7" stroke-width="3" stroke-linecap="round"/>
<line x1="314.5" y1="37.5" x2="314.5" y2="54.5" stroke="#369CB7" stroke-width="3" stroke-linecap="round"/>
<line x1="392.5" y1="37.5" x2="392.5" y2="54.5" stroke="#369CB7" stroke-width="3" stroke-linecap="round"/>
<line x1="470.5" y1="37.5" x2="470.5" y2="54.5" stroke="#369CB7" stroke-width="3" stroke-linecap="round"/>
<line x1="548.5" y1="37.5" x2="548.5" y2="54.5" stroke="#369CB7" stroke-width="3" stroke-linecap="round"/>
<line x1="626.5" y1="37.5" x2="626.5" y2="54.5" stroke="#369CB7" stroke-width="3" stroke-linecap="round"/>
<path d="M77.5085 29.841C77.4206 30.6648 78.0172 31.4037 78.841 31.4915C79.6648 31.5794 80.4037 30.9828 80.4915 30.159L77.5085 29.841ZM114.794 2.00272L114.808 0.502794L114.808 0.502794L114.794 2.00272ZM146.956 31.0771C147.551 31.6536 148.5 31.6388 149.077 31.044L158.473 21.3505C159.05 20.7556 159.035 19.806 158.44 19.2294C157.845 18.6528 156.896 18.6676 156.319 19.2625L147.967 27.8789L139.35 19.5269C138.756 18.9503 137.806 18.9651 137.229 19.5599C136.653 20.1548 136.668 21.1044 137.262 21.681L146.956 31.0771ZM79 30C80.4915 30.159 80.4915 30.1597 80.4914 30.1603C80.4914 30.1604 80.4913 30.1609 80.4913 30.1611C80.4913 30.1613 80.4913 30.1611 80.4914 30.1606C80.4915 30.1594 80.4918 30.1565 80.4924 30.152C80.4934 30.143 80.4953 30.1273 80.498 30.1052C80.5036 30.0611 80.5127 29.9913 80.5263 29.8976C80.5535 29.7102 80.5985 29.4274 80.6675 29.063C80.8057 28.3336 81.0398 27.28 81.4205 26.0113C82.1832 23.4694 83.5259 20.0915 85.8413 16.7319C90.4246 10.0816 98.9153 3.34689 114.779 3.50265L114.808 0.502794C97.8972 0.336748 88.491 7.60069 83.3712 15.0295C80.835 18.7094 79.3746 22.3911 78.5471 25.1491C78.1326 26.5303 77.8749 27.6865 77.7199 28.5046C77.6424 28.9139 77.5905 29.2392 77.5575 29.4665C77.541 29.5801 77.5292 29.6693 77.5213 29.7323C77.5173 29.7638 77.5144 29.7887 77.5123 29.8069C77.5112 29.816 77.5104 29.8234 77.5097 29.8291C77.5094 29.832 77.5092 29.8344 77.509 29.8364C77.5088 29.8374 77.5087 29.8385 77.5087 29.839C77.5086 29.8401 77.5085 29.841 79 30ZM114.779 3.50265C130.652 3.6585 138.47 10.388 142.404 16.8977C144.397 20.1976 145.425 23.4992 145.953 25.9825C146.217 27.2216 146.354 28.2491 146.425 28.9596C146.46 29.3146 146.479 29.5896 146.489 29.7715C146.494 29.8625 146.497 29.93 146.499 29.9726C146.499 29.9939 146.5 30.0089 146.5 30.0174C146.5 30.0217 146.5 30.0243 146.5 30.0253C146.5 30.0258 146.5 30.0259 146.5 30.0256C146.5 30.0254 146.5 30.0249 146.5 30.0248C146.5 30.0241 146.5 30.0234 148 30C149.5 29.9766 149.5 29.9757 149.5 29.9746C149.5 29.9741 149.5 29.9729 149.5 29.9719C149.5 29.9699 149.5 29.9674 149.5 29.9646C149.499 29.9589 149.499 29.9515 149.499 29.9425C149.499 29.9244 149.498 29.8997 149.497 29.8686C149.495 29.8064 149.491 29.7185 149.485 29.6067C149.473 29.383 149.45 29.0632 149.41 28.6608C149.329 27.8565 149.177 26.7193 148.888 25.3588C148.31 22.643 147.182 19.0056 144.971 15.3463C140.495 7.93793 131.711 0.668754 114.808 0.502794L114.779 3.50265Z" fill="#065B5B"/>
<path d="M159.508 29.841C159.421 30.6648 160.017 31.4037 160.841 31.4915C161.665 31.5794 162.404 30.9828 162.492 30.159L159.508 29.841ZM196.794 2.00272L196.808 0.502794L196.808 0.502794L196.794 2.00272ZM228.956 31.0771C229.551 31.6536 230.5 31.6388 231.077 31.044L240.473 21.3505C241.05 20.7556 241.035 19.806 240.44 19.2294C239.845 18.6528 238.896 18.6676 238.319 19.2625L229.967 27.8789L221.35 19.5269C220.756 18.9503 219.806 18.9651 219.229 19.5599C218.653 20.1548 218.668 21.1044 219.262 21.681L228.956 31.0771ZM161 30C162.492 30.159 162.491 30.1597 162.491 30.1603C162.491 30.1604 162.491 30.1609 162.491 30.1611C162.491 30.1613 162.491 30.1611 162.491 30.1606C162.492 30.1594 162.492 30.1565 162.492 30.152C162.493 30.143 162.495 30.1273 162.498 30.1052C162.504 30.0611 162.513 29.9913 162.526 29.8976C162.554 29.7102 162.598 29.4274 162.668 29.063C162.806 28.3336 163.04 27.28 163.421 26.0113C164.183 23.4694 165.526 20.0915 167.841 16.7319C172.425 10.0816 180.915 3.34689 196.779 3.50265L196.808 0.502794C179.897 0.336748 170.491 7.60069 165.371 15.0295C162.835 18.7094 161.375 22.3911 160.547 25.1491C160.133 26.5303 159.875 27.6865 159.72 28.5046C159.642 28.9139 159.59 29.2392 159.557 29.4665C159.541 29.5801 159.529 29.6693 159.521 29.7323C159.517 29.7638 159.514 29.7887 159.512 29.8069C159.511 29.816 159.51 29.8234 159.51 29.8291C159.509 29.832 159.509 29.8344 159.509 29.8364C159.509 29.8374 159.509 29.8385 159.509 29.839C159.509 29.8401 159.508 29.841 161 30ZM196.779 3.50265C212.652 3.6585 220.47 10.388 224.404 16.8977C226.397 20.1976 227.425 23.4992 227.953 25.9825C228.217 27.2216 228.354 28.2491 228.425 28.9596C228.46 29.3146 228.479 29.5896 228.489 29.7715C228.494 29.8625 228.497 29.93 228.499 29.9726C228.499 29.9939 228.5 30.0089 228.5 30.0174C228.5 30.0217 228.5 30.0243 228.5 30.0253C228.5 30.0258 228.5 30.0259 228.5 30.0256C228.5 30.0254 228.5 30.0249 228.5 30.0248C228.5 30.0241 228.5 30.0234 230 30C231.5 29.9766 231.5 29.9757 231.5 29.9746C231.5 29.9741 231.5 29.9729 231.5 29.9719C231.5 29.9699 231.5 29.9674 231.5 29.9646C231.499 29.9589 231.499 29.9515 231.499 29.9425C231.499 29.9244 231.498 29.8997 231.497 29.8686C231.495 29.8064 231.491 29.7185 231.485 29.6067C231.473 29.383 231.45 29.0632 231.41 28.6608C231.329 27.8565 231.177 26.7193 230.888 25.3588C230.31 22.643 229.182 19.0056 226.971 15.3463C222.495 7.93793 213.711 0.668754 196.808 0.502794L196.779 3.50265Z" fill="#065B5B"/>
<path d="M239.508 29.841C239.421 30.6648 240.017 31.4037 240.841 31.4915C241.665 31.5794 242.404 30.9828 242.492 30.159L239.508 29.841ZM276.794 2.00272L276.808 0.502794L276.808 0.502794L276.794 2.00272ZM308.956 31.0771C309.551 31.6536 310.5 31.6388 311.077 31.044L320.473 21.3505C321.05 20.7556 321.035 19.806 320.44 19.2294C319.845 18.6528 318.896 18.6676 318.319 19.2625L309.967 27.8789L301.35 19.5269C300.756 18.9503 299.806 18.9651 299.229 19.5599C298.653 20.1548 298.668 21.1044 299.262 21.681L308.956 31.0771ZM241 30C242.492 30.159 242.491 30.1597 242.491 30.1603C242.491 30.1604 242.491 30.1609 242.491 30.1611C242.491 30.1613 242.491 30.1611 242.491 30.1606C242.492 30.1594 242.492 30.1565 242.492 30.152C242.493 30.143 242.495 30.1273 242.498 30.1052C242.504 30.0611 242.513 29.9913 242.526 29.8976C242.554 29.7102 242.598 29.4274 242.668 29.063C242.806 28.3336 243.04 27.28 243.421 26.0113C244.183 23.4694 245.526 20.0915 247.841 16.7319C252.425 10.0816 260.915 3.34689 276.779 3.50265L276.808 0.502794C259.897 0.336748 250.491 7.60069 245.371 15.0295C242.835 18.7094 241.375 22.3911 240.547 25.1491C240.133 26.5303 239.875 27.6865 239.72 28.5046C239.642 28.9139 239.59 29.2392 239.557 29.4665C239.541 29.5801 239.529 29.6693 239.521 29.7323C239.517 29.7638 239.514 29.7887 239.512 29.8069C239.511 29.816 239.51 29.8234 239.51 29.8291C239.509 29.832 239.509 29.8344 239.509 29.8364C239.509 29.8374 239.509 29.8385 239.509 29.839C239.509 29.8401 239.508 29.841 241 30ZM276.779 3.50265C292.652 3.6585 300.47 10.388 304.404 16.8977C306.397 20.1976 307.425 23.4992 307.953 25.9825C308.217 27.2216 308.354 28.2491 308.425 28.9596C308.46 29.3146 308.479 29.5896 308.489 29.7715C308.494 29.8625 308.497 29.93 308.499 29.9726C308.499 29.9939 308.5 30.0089 308.5 30.0174C308.5 30.0217 308.5 30.0243 308.5 30.0253C308.5 30.0258 308.5 30.0259 308.5 30.0256C308.5 30.0254 308.5 30.0249 308.5 30.0248C308.5 30.0241 308.5 30.0234 310 30C311.5 29.9766 311.5 29.9757 311.5 29.9746C311.5 29.9741 311.5 29.9729 311.5 29.9719C311.5 29.9699 311.5 29.9674 311.5 29.9646C311.499 29.9589 311.499 29.9515 311.499 29.9425C311.499 29.9244 311.498 29.8997 311.497 29.8686C311.495 29.8064 311.491 29.7185 311.485 29.6067C311.473 29.383 311.45 29.0632 311.41 28.6608C311.329 27.8565 311.177 26.7193 310.888 25.3588C310.31 22.643 309.182 19.0056 306.971 15.3463C302.495 7.93793 293.711 0.668754 276.808 0.502794L276.779 3.50265Z" fill="#065B5B"/>
<path d="M321.508 29.841C321.421 30.6648 322.017 31.4037 322.841 31.4915C323.665 31.5794 324.404 30.9828 324.492 30.159L321.508 29.841ZM358.794 2.00272L358.808 0.502794L358.808 0.502794L358.794 2.00272ZM390.956 31.0771C391.551 31.6536 392.5 31.6388 393.077 31.044L402.473 21.3505C403.05 20.7556 403.035 19.806 402.44 19.2294C401.845 18.6528 400.896 18.6676 400.319 19.2625L391.967 27.8789L383.35 19.5269C382.756 18.9503 381.806 18.9651 381.229 19.5599C380.653 20.1548 380.668 21.1044 381.262 21.681L390.956 31.0771ZM323 30C324.492 30.159 324.491 30.1597 324.491 30.1603C324.491 30.1604 324.491 30.1609 324.491 30.1611C324.491 30.1613 324.491 30.1611 324.491 30.1606C324.492 30.1594 324.492 30.1565 324.492 30.152C324.493 30.143 324.495 30.1273 324.498 30.1052C324.504 30.0611 324.513 29.9913 324.526 29.8976C324.554 29.7102 324.598 29.4274 324.668 29.063C324.806 28.3336 325.04 27.28 325.421 26.0113C326.183 23.4694 327.526 20.0915 329.841 16.7319C334.425 10.0816 342.915 3.34689 358.779 3.50265L358.808 0.502794C341.897 0.336748 332.491 7.60069 327.371 15.0295C324.835 18.7094 323.375 22.3911 322.547 25.1491C322.133 26.5303 321.875 27.6865 321.72 28.5046C321.642 28.9139 321.59 29.2392 321.557 29.4665C321.541 29.5801 321.529 29.6693 321.521 29.7323C321.517 29.7638 321.514 29.7887 321.512 29.8069C321.511 29.816 321.51 29.8234 321.51 29.8291C321.509 29.832 321.509 29.8344 321.509 29.8364C321.509 29.8374 321.509 29.8385 321.509 29.839C321.509 29.8401 321.508 29.841 323 30ZM358.779 3.50265C374.652 3.6585 382.47 10.388 386.404 16.8977C388.397 20.1976 389.425 23.4992 389.953 25.9825C390.217 27.2216 390.354 28.2491 390.425 28.9596C390.46 29.3146 390.479 29.5896 390.489 29.7715C390.494 29.8625 390.497 29.93 390.499 29.9726C390.499 29.9939 390.5 30.0089 390.5 30.0174C390.5 30.0217 390.5 30.0243 390.5 30.0253C390.5 30.0258 390.5 30.0259 390.5 30.0256C390.5 30.0254 390.5 30.0249 390.5 30.0248C390.5 30.0241 390.5 30.0234 392 30C393.5 29.9766 393.5 29.9757 393.5 29.9746C393.5 29.9741 393.5 29.9729 393.5 29.9719C393.5 29.9699 393.5 29.9674 393.5 29.9646C393.499 29.9589 393.499 29.9515 393.499 29.9425C393.499 29.9244 393.498 29.8997 393.497 29.8686C393.495 29.8064 393.491 29.7185 393.485 29.6067C393.473 29.383 393.45 29.0632 393.41 28.6608C393.329 27.8565 393.177 26.7193 392.888 25.3588C392.31 22.643 391.182 19.0056 388.971 15.3463C384.495 7.93793 375.711 0.668754 358.808 0.502794L358.779 3.50265Z" fill="#065B5B"/>
</svg>
