<svg width="442" height="30" viewBox="0 0 442 30" fill="none" xmlns="http://www.w3.org/2000/svg">
<path d="M10.128 8.4V9.624L5.03398 21H3.12598L8.11198 9.966H2.35198V12.216H0.623984V8.4H10.128ZM16.5022 21.144C15.5062 21.144 14.6182 20.892 13.8382 20.388C13.0702 19.872 12.4642 19.128 12.0202 18.156C11.5762 17.184 11.3542 16.032 11.3542 14.7C11.3542 13.368 11.5762 12.216 12.0202 11.244C12.4642 10.272 13.0702 9.534 13.8382 9.03C14.6182 8.514 15.5062 8.256 16.5022 8.256C17.4862 8.256 18.3622 8.514 19.1302 9.03C19.9102 9.534 20.5222 10.272 20.9662 11.244C21.4102 12.216 21.6322 13.368 21.6322 14.7C21.6322 16.032 21.4102 17.184 20.9662 18.156C20.5222 19.128 19.9102 19.872 19.1302 20.388C18.3622 20.892 17.4862 21.144 16.5022 21.144ZM16.5022 19.542C17.5102 19.542 18.3142 19.128 18.9142 18.3C19.5262 17.472 19.8322 16.272 19.8322 14.7C19.8322 13.128 19.5262 11.928 18.9142 11.1C18.3142 10.272 17.5102 9.858 16.5022 9.858C15.4822 9.858 14.6662 10.272 14.0542 11.1C13.4542 11.928 13.1542 13.128 13.1542 14.7C13.1542 16.272 13.4542 17.472 14.0542 18.3C14.6662 19.128 15.4822 19.542 16.5022 19.542ZM28.7961 13.35C29.6241 13.35 30.3621 13.506 31.0101 13.818C31.6701 14.13 32.1861 14.58 32.5581 15.168C32.9301 15.744 33.1161 16.41 33.1161 17.166C33.1161 17.958 32.9181 18.654 32.5221 19.254C32.1381 19.854 31.6041 20.322 30.9201 20.658C30.2481 20.982 29.4921 21.144 28.6521 21.144C26.9601 21.144 25.6521 20.598 24.7281 19.506C23.8161 18.414 23.3601 16.866 23.3601 14.862C23.3601 13.458 23.6061 12.264 24.0981 11.28C24.6021 10.284 25.2981 9.534 26.1861 9.03C27.0861 8.514 28.1301 8.256 29.3181 8.256C29.9301 8.256 30.5061 8.322 31.0461 8.454C31.5861 8.574 32.0541 8.754 32.4501 8.994L31.7661 10.398C31.1661 10.002 30.3621 9.804 29.3541 9.804C28.0461 9.804 27.0201 10.212 26.2761 11.028C25.5321 11.832 25.1601 13.008 25.1601 14.556C25.1601 14.748 25.1661 14.898 25.1781 15.006C25.5381 14.466 26.0301 14.058 26.6541 13.782C27.2901 13.494 28.0041 13.35 28.7961 13.35ZM28.5801 19.686C29.4081 19.686 30.0801 19.464 30.5961 19.02C31.1121 18.576 31.3701 17.982 31.3701 17.238C31.3701 16.494 31.1061 15.906 30.5781 15.474C30.0621 15.03 29.3661 14.808 28.4901 14.808C27.9261 14.808 27.4221 14.916 26.9781 15.132C26.5461 15.348 26.2041 15.642 25.9521 16.014C25.7121 16.386 25.5921 16.8 25.5921 17.256C25.5921 17.7 25.7061 18.108 25.9341 18.48C26.1741 18.84 26.5161 19.134 26.9601 19.362C27.4161 19.578 27.9561 19.686 28.5801 19.686ZM39.6455 11.856H47.7095V13.278H39.6455V11.856ZM39.6455 16.122H47.7095V17.544H39.6455V16.122Z" fill="#2F2F2F"/>
<path d="M83.6651 8.4V9.624L78.5711 21H76.6631L81.6491 9.966H75.8891V12.216H74.1611V8.4H83.6651Z" fill="#2F2F2F"/>
<path d="M64 1H94V-1H64V1ZM98 5V25H100V5H98ZM94 29H64V31H94V29ZM60 25V5H58V25H60ZM64 29C61.7909 29 60 27.2091 60 25H58C58 28.3137 60.6863 31 64 31V29ZM98 25C98 27.2091 96.2091 29 94 29V31C97.3137 31 100 28.3137 100 25H98ZM94 1C96.2091 1 98 2.79086 98 5H100C100 1.68629 97.3137 -1 94 -1V1ZM64 -1C60.6863 -1 58 1.68629 58 5H60C60 2.79086 61.7909 1 64 1V-1Z" fill="#2F2F2F"/>
<path d="M115.819 11.46C117.007 11.46 117.949 11.808 118.645 12.504C119.353 13.188 119.707 14.19 119.707 15.51V21H118.429V15.636C118.429 14.652 118.183 13.902 117.691 13.386C117.199 12.87 116.497 12.612 115.585 12.612C114.565 12.612 113.755 12.918 113.155 13.53C112.567 14.13 112.273 14.964 112.273 16.032V21H110.995V7.644H112.273V13.188C112.621 12.636 113.101 12.21 113.713 11.91C114.325 11.61 115.027 11.46 115.819 11.46ZM131.709 11.532V21H130.485V19.272C130.149 19.848 129.687 20.298 129.099 20.622C128.511 20.934 127.839 21.09 127.083 21.09C125.847 21.09 124.869 20.748 124.149 20.064C123.441 19.368 123.087 18.354 123.087 17.022V11.532H124.365V16.896C124.365 17.892 124.611 18.648 125.103 19.164C125.595 19.68 126.297 19.938 127.209 19.938C128.205 19.938 128.991 19.638 129.567 19.038C130.143 18.426 130.431 17.58 130.431 16.5V11.532H131.709ZM140.112 11.46C141.3 11.46 142.242 11.808 142.938 12.504C143.646 13.188 144 14.19 144 15.51V21H142.722V15.636C142.722 14.652 142.476 13.902 141.984 13.386C141.492 12.87 140.79 12.612 139.878 12.612C138.858 12.612 138.048 12.918 137.448 13.53C136.86 14.13 136.566 14.964 136.566 16.032V21H135.288V11.532H136.512V13.278C136.86 12.702 137.34 12.258 137.952 11.946C138.576 11.622 139.296 11.46 140.112 11.46ZM156.145 7.644V21H154.921V19.128C154.537 19.764 154.027 20.25 153.391 20.586C152.767 20.922 152.059 21.09 151.267 21.09C150.379 21.09 149.575 20.886 148.855 20.478C148.135 20.07 147.571 19.5 147.163 18.768C146.755 18.036 146.551 17.202 146.551 16.266C146.551 15.33 146.755 14.496 147.163 13.764C147.571 13.032 148.135 12.468 148.855 12.072C149.575 11.664 150.379 11.46 151.267 11.46C152.035 11.46 152.725 11.622 153.337 11.946C153.961 12.258 154.471 12.72 154.867 13.332V7.644H156.145ZM151.375 19.956C152.035 19.956 152.629 19.806 153.157 19.506C153.697 19.194 154.117 18.756 154.417 18.192C154.729 17.628 154.885 16.986 154.885 16.266C154.885 15.546 154.729 14.904 154.417 14.34C154.117 13.776 153.697 13.344 153.157 13.044C152.629 12.732 152.035 12.576 151.375 12.576C150.703 12.576 150.097 12.732 149.557 13.044C149.029 13.344 148.609 13.776 148.297 14.34C147.997 14.904 147.847 15.546 147.847 16.266C147.847 16.986 147.997 17.628 148.297 18.192C148.609 18.756 149.029 19.194 149.557 19.506C150.097 19.806 150.703 19.956 151.375 19.956ZM160.928 13.386C161.228 12.75 161.672 12.27 162.26 11.946C162.86 11.622 163.598 11.46 164.474 11.46V12.702L164.168 12.684C163.172 12.684 162.392 12.99 161.828 13.602C161.264 14.214 160.982 15.072 160.982 16.176V21H159.704V11.532H160.928V13.386ZM174.944 16.662H167.024C167.096 17.646 167.474 18.444 168.158 19.056C168.842 19.656 169.706 19.956 170.75 19.956C171.338 19.956 171.878 19.854 172.37 19.65C172.862 19.434 173.288 19.122 173.648 18.714L174.368 19.542C173.948 20.046 173.42 20.43 172.784 20.694C172.16 20.958 171.47 21.09 170.714 21.09C169.742 21.09 168.878 20.886 168.122 20.478C167.378 20.058 166.796 19.482 166.376 18.75C165.956 18.018 165.746 17.19 165.746 16.266C165.746 15.342 165.944 14.514 166.34 13.782C166.748 13.05 167.3 12.48 167.996 12.072C168.704 11.664 169.496 11.46 170.372 11.46C171.248 11.46 172.034 11.664 172.73 12.072C173.426 12.48 173.972 13.05 174.368 13.782C174.764 14.502 174.962 15.33 174.962 16.266L174.944 16.662ZM170.372 12.558C169.46 12.558 168.692 12.852 168.068 13.44C167.456 14.016 167.108 14.772 167.024 15.708H173.738C173.654 14.772 173.3 14.016 172.676 13.44C172.064 12.852 171.296 12.558 170.372 12.558ZM186.203 7.644V21H184.979V19.128C184.595 19.764 184.085 20.25 183.449 20.586C182.825 20.922 182.117 21.09 181.325 21.09C180.437 21.09 179.633 20.886 178.913 20.478C178.193 20.07 177.629 19.5 177.221 18.768C176.813 18.036 176.609 17.202 176.609 16.266C176.609 15.33 176.813 14.496 177.221 13.764C177.629 13.032 178.193 12.468 178.913 12.072C179.633 11.664 180.437 11.46 181.325 11.46C182.093 11.46 182.783 11.622 183.395 11.946C184.019 12.258 184.529 12.72 184.925 13.332V7.644H186.203ZM181.433 19.956C182.093 19.956 182.687 19.806 183.215 19.506C183.755 19.194 184.175 18.756 184.475 18.192C184.787 17.628 184.943 16.986 184.943 16.266C184.943 15.546 184.787 14.904 184.475 14.34C184.175 13.776 183.755 13.344 183.215 13.044C182.687 12.732 182.093 12.576 181.433 12.576C180.761 12.576 180.155 12.732 179.615 13.044C179.087 13.344 178.667 13.776 178.355 14.34C178.055 14.904 177.905 15.546 177.905 16.266C177.905 16.986 178.055 17.628 178.355 18.192C178.667 18.756 179.087 19.194 179.615 19.506C180.155 19.806 180.761 19.956 181.433 19.956ZM192.3 21.09C191.532 21.09 190.794 20.982 190.086 20.766C189.39 20.538 188.844 20.256 188.448 19.92L189.024 18.912C189.42 19.224 189.918 19.482 190.518 19.686C191.118 19.878 191.742 19.974 192.39 19.974C193.254 19.974 193.89 19.842 194.298 19.578C194.718 19.302 194.928 18.918 194.928 18.426C194.928 18.078 194.814 17.808 194.586 17.616C194.358 17.412 194.07 17.262 193.722 17.166C193.374 17.058 192.912 16.956 192.336 16.86C191.568 16.716 190.95 16.572 190.482 16.428C190.014 16.272 189.612 16.014 189.276 15.654C188.952 15.294 188.79 14.796 188.79 14.16C188.79 13.368 189.12 12.72 189.78 12.216C190.44 11.712 191.358 11.46 192.534 11.46C193.146 11.46 193.758 11.544 194.37 11.712C194.982 11.868 195.486 12.078 195.882 12.342L195.324 13.368C194.544 12.828 193.614 12.558 192.534 12.558C191.718 12.558 191.1 12.702 190.68 12.99C190.272 13.278 190.068 13.656 190.068 14.124C190.068 14.484 190.182 14.772 190.41 14.988C190.65 15.204 190.944 15.366 191.292 15.474C191.64 15.57 192.12 15.672 192.732 15.78C193.488 15.924 194.094 16.068 194.55 16.212C195.006 16.356 195.396 16.602 195.72 16.95C196.044 17.298 196.206 17.778 196.206 18.39C196.206 19.218 195.858 19.878 195.162 20.37C194.478 20.85 193.524 21.09 192.3 21.09Z" fill="#2F2F2F"/>
<path d="M216.532 15.42H213.256V18.642H211.744V15.42H208.468V13.998H211.744V10.758H213.256V13.998H216.532V15.42Z" fill="#2F2F2F"/>
<path d="M248.009 21.144C247.013 21.144 246.125 20.892 245.345 20.388C244.577 19.872 243.971 19.128 243.527 18.156C243.083 17.184 242.861 16.032 242.861 14.7C242.861 13.368 243.083 12.216 243.527 11.244C243.971 10.272 244.577 9.534 245.345 9.03C246.125 8.514 247.013 8.256 248.009 8.256C248.993 8.256 249.869 8.514 250.637 9.03C251.417 9.534 252.029 10.272 252.473 11.244C252.917 12.216 253.139 13.368 253.139 14.7C253.139 16.032 252.917 17.184 252.473 18.156C252.029 19.128 251.417 19.872 250.637 20.388C249.869 20.892 248.993 21.144 248.009 21.144ZM248.009 19.542C249.017 19.542 249.821 19.128 250.421 18.3C251.033 17.472 251.339 16.272 251.339 14.7C251.339 13.128 251.033 11.928 250.421 11.1C249.821 10.272 249.017 9.858 248.009 9.858C246.989 9.858 246.173 10.272 245.561 11.1C244.961 11.928 244.661 13.128 244.661 14.7C244.661 16.272 244.961 17.472 245.561 18.3C246.173 19.128 246.989 19.542 248.009 19.542Z" fill="#2F2F2F"/>
<path d="M233 1H263V-1H233V1ZM267 5V25H269V5H267ZM263 29H233V31H263V29ZM229 25V5H227V25H229ZM233 29C230.791 29 229 27.2091 229 25H227C227 28.3137 229.686 31 233 31V29ZM267 25C267 27.2091 265.209 29 263 29V31C266.314 31 269 28.3137 269 25H267ZM263 1C265.209 1 267 2.79086 267 5H269C269 1.68629 266.314 -1 263 -1V1ZM233 -1C229.686 -1 227 1.68629 227 5H229C229 2.79086 230.791 1 233 1V-1Z" fill="#2F2F2F"/>
<path d="M284.853 20.424C284.613 20.64 284.313 20.808 283.953 20.928C283.605 21.036 283.239 21.09 282.855 21.09C281.967 21.09 281.283 20.85 280.803 20.37C280.323 19.89 280.083 19.212 280.083 18.336V12.612H278.391V11.532H280.083V9.462H281.361V11.532H284.241V12.612H281.361V18.264C281.361 18.828 281.499 19.26 281.775 19.56C282.063 19.848 282.471 19.992 282.999 19.992C283.263 19.992 283.515 19.95 283.755 19.866C284.007 19.782 284.223 19.662 284.403 19.506L284.853 20.424ZM295.089 16.662H287.169C287.241 17.646 287.619 18.444 288.303 19.056C288.987 19.656 289.851 19.956 290.895 19.956C291.483 19.956 292.023 19.854 292.515 19.65C293.007 19.434 293.433 19.122 293.793 18.714L294.513 19.542C294.093 20.046 293.565 20.43 292.929 20.694C292.305 20.958 291.615 21.09 290.859 21.09C289.887 21.09 289.023 20.886 288.267 20.478C287.523 20.058 286.941 19.482 286.521 18.75C286.101 18.018 285.891 17.19 285.891 16.266C285.891 15.342 286.089 14.514 286.485 13.782C286.893 13.05 287.445 12.48 288.141 12.072C288.849 11.664 289.641 11.46 290.517 11.46C291.393 11.46 292.179 11.664 292.875 12.072C293.571 12.48 294.117 13.05 294.513 13.782C294.909 14.502 295.107 15.33 295.107 16.266L295.089 16.662ZM290.517 12.558C289.605 12.558 288.837 12.852 288.213 13.44C287.601 14.016 287.253 14.772 287.169 15.708H293.883C293.799 14.772 293.445 14.016 292.821 13.44C292.209 12.852 291.441 12.558 290.517 12.558ZM302.533 11.46C303.721 11.46 304.663 11.808 305.359 12.504C306.067 13.188 306.421 14.19 306.421 15.51V21H305.143V15.636C305.143 14.652 304.897 13.902 304.405 13.386C303.913 12.87 303.211 12.612 302.299 12.612C301.279 12.612 300.469 12.918 299.869 13.53C299.281 14.13 298.987 14.964 298.987 16.032V21H297.709V11.532H298.933V13.278C299.281 12.702 299.761 12.258 300.373 11.946C300.997 11.622 301.717 11.46 302.533 11.46ZM312.428 21.09C311.66 21.09 310.922 20.982 310.214 20.766C309.518 20.538 308.972 20.256 308.576 19.92L309.152 18.912C309.548 19.224 310.046 19.482 310.646 19.686C311.246 19.878 311.87 19.974 312.518 19.974C313.382 19.974 314.018 19.842 314.426 19.578C314.846 19.302 315.056 18.918 315.056 18.426C315.056 18.078 314.942 17.808 314.714 17.616C314.486 17.412 314.198 17.262 313.85 17.166C313.502 17.058 313.04 16.956 312.464 16.86C311.696 16.716 311.078 16.572 310.61 16.428C310.142 16.272 309.74 16.014 309.404 15.654C309.08 15.294 308.918 14.796 308.918 14.16C308.918 13.368 309.248 12.72 309.908 12.216C310.568 11.712 311.486 11.46 312.662 11.46C313.274 11.46 313.886 11.544 314.498 11.712C315.11 11.868 315.614 12.078 316.01 12.342L315.452 13.368C314.672 12.828 313.742 12.558 312.662 12.558C311.846 12.558 311.228 12.702 310.808 12.99C310.4 13.278 310.196 13.656 310.196 14.124C310.196 14.484 310.31 14.772 310.538 14.988C310.778 15.204 311.072 15.366 311.42 15.474C311.768 15.57 312.248 15.672 312.86 15.78C313.616 15.924 314.222 16.068 314.678 16.212C315.134 16.356 315.524 16.602 315.848 16.95C316.172 17.298 316.334 17.778 316.334 18.39C316.334 19.218 315.986 19.878 315.29 20.37C314.606 20.85 313.652 21.09 312.428 21.09Z" fill="#2F2F2F"/>
<path d="M336.532 15.42H333.256V18.642H331.744V15.42H328.468V13.998H331.744V10.758H333.256V13.998H336.532V15.42Z" fill="#2F2F2F"/>
<path d="M368.745 13.35C369.573 13.35 370.311 13.506 370.959 13.818C371.619 14.13 372.135 14.58 372.507 15.168C372.879 15.744 373.065 16.41 373.065 17.166C373.065 17.958 372.867 18.654 372.471 19.254C372.087 19.854 371.553 20.322 370.869 20.658C370.197 20.982 369.441 21.144 368.601 21.144C366.909 21.144 365.601 20.598 364.677 19.506C363.765 18.414 363.309 16.866 363.309 14.862C363.309 13.458 363.555 12.264 364.047 11.28C364.551 10.284 365.247 9.534 366.135 9.03C367.035 8.514 368.079 8.256 369.267 8.256C369.879 8.256 370.455 8.322 370.995 8.454C371.535 8.574 372.003 8.754 372.399 8.994L371.715 10.398C371.115 10.002 370.311 9.804 369.303 9.804C367.995 9.804 366.969 10.212 366.225 11.028C365.481 11.832 365.109 13.008 365.109 14.556C365.109 14.748 365.115 14.898 365.127 15.006C365.487 14.466 365.979 14.058 366.603 13.782C367.239 13.494 367.953 13.35 368.745 13.35ZM368.529 19.686C369.357 19.686 370.029 19.464 370.545 19.02C371.061 18.576 371.319 17.982 371.319 17.238C371.319 16.494 371.055 15.906 370.527 15.474C370.011 15.03 369.315 14.808 368.439 14.808C367.875 14.808 367.371 14.916 366.927 15.132C366.495 15.348 366.153 15.642 365.901 16.014C365.661 16.386 365.541 16.8 365.541 17.256C365.541 17.7 365.655 18.108 365.883 18.48C366.123 18.84 366.465 19.134 366.909 19.362C367.365 19.578 367.905 19.686 368.529 19.686Z" fill="#2F2F2F"/>
<path d="M353 1H383V-1H353V1ZM387 5V25H389V5H387ZM383 29H353V31H383V29ZM349 25V5H347V25H349ZM353 29C350.791 29 349 27.2091 349 25H347C347 28.3137 349.686 31 353 31V29ZM387 25C387 27.2091 385.209 29 383 29V31C386.314 31 389 28.3137 389 25H387ZM383 1C385.209 1 387 2.79086 387 5H389C389 1.68629 386.314 -1 383 -1V1ZM353 -1C349.686 -1 347 1.68629 347 5H349C349 2.79086 350.791 1 353 1V-1Z" fill="#2F2F2F"/>
<path d="M404.066 21.09C403.154 21.09 402.332 20.886 401.6 20.478C400.868 20.058 400.292 19.482 399.872 18.75C399.452 18.018 399.242 17.19 399.242 16.266C399.242 15.342 399.452 14.514 399.872 13.782C400.292 13.05 400.868 12.48 401.6 12.072C402.332 11.664 403.154 11.46 404.066 11.46C404.978 11.46 405.8 11.664 406.532 12.072C407.264 12.48 407.834 13.05 408.242 13.782C408.662 14.514 408.872 15.342 408.872 16.266C408.872 17.19 408.662 18.018 408.242 18.75C407.834 19.482 407.264 20.058 406.532 20.478C405.8 20.886 404.978 21.09 404.066 21.09ZM404.066 19.956C404.738 19.956 405.338 19.806 405.866 19.506C406.406 19.194 406.826 18.756 407.126 18.192C407.426 17.628 407.576 16.986 407.576 16.266C407.576 15.546 407.426 14.904 407.126 14.34C406.826 13.776 406.406 13.344 405.866 13.044C405.338 12.732 404.738 12.576 404.066 12.576C403.394 12.576 402.788 12.732 402.248 13.044C401.72 13.344 401.3 13.776 400.988 14.34C400.688 14.904 400.538 15.546 400.538 16.266C400.538 16.986 400.688 17.628 400.988 18.192C401.3 18.756 401.72 19.194 402.248 19.506C402.788 19.806 403.394 19.956 404.066 19.956ZM416.305 11.46C417.493 11.46 418.435 11.808 419.131 12.504C419.839 13.188 420.193 14.19 420.193 15.51V21H418.915V15.636C418.915 14.652 418.669 13.902 418.177 13.386C417.685 12.87 416.983 12.612 416.071 12.612C415.051 12.612 414.241 12.918 413.641 13.53C413.053 14.13 412.759 14.964 412.759 16.032V21H411.481V11.532H412.705V13.278C413.053 12.702 413.533 12.258 414.145 11.946C414.769 11.622 415.489 11.46 416.305 11.46ZM431.942 16.662H424.022C424.094 17.646 424.472 18.444 425.156 19.056C425.84 19.656 426.704 19.956 427.748 19.956C428.336 19.956 428.876 19.854 429.368 19.65C429.86 19.434 430.286 19.122 430.646 18.714L431.366 19.542C430.946 20.046 430.418 20.43 429.782 20.694C429.158 20.958 428.468 21.09 427.712 21.09C426.74 21.09 425.876 20.886 425.12 20.478C424.376 20.058 423.794 19.482 423.374 18.75C422.954 18.018 422.744 17.19 422.744 16.266C422.744 15.342 422.942 14.514 423.338 13.782C423.746 13.05 424.298 12.48 424.994 12.072C425.702 11.664 426.494 11.46 427.37 11.46C428.246 11.46 429.032 11.664 429.728 12.072C430.424 12.48 430.97 13.05 431.366 13.782C431.762 14.502 431.96 15.33 431.96 16.266L431.942 16.662ZM427.37 12.558C426.458 12.558 425.69 12.852 425.066 13.44C424.454 14.016 424.106 14.772 424.022 15.708H430.736C430.652 14.772 430.298 14.016 429.674 13.44C429.062 12.852 428.294 12.558 427.37 12.558ZM437.099 21.09C436.331 21.09 435.593 20.982 434.885 20.766C434.189 20.538 433.643 20.256 433.247 19.92L433.823 18.912C434.219 19.224 434.717 19.482 435.317 19.686C435.917 19.878 436.541 19.974 437.189 19.974C438.053 19.974 438.689 19.842 439.097 19.578C439.517 19.302 439.727 18.918 439.727 18.426C439.727 18.078 439.613 17.808 439.385 17.616C439.157 17.412 438.869 17.262 438.521 17.166C438.173 17.058 437.711 16.956 437.135 16.86C436.367 16.716 435.749 16.572 435.281 16.428C434.813 16.272 434.411 16.014 434.075 15.654C433.751 15.294 433.589 14.796 433.589 14.16C433.589 13.368 433.919 12.72 434.579 12.216C435.239 11.712 436.157 11.46 437.333 11.46C437.945 11.46 438.557 11.544 439.169 11.712C439.781 11.868 440.285 12.078 440.681 12.342L440.123 13.368C439.343 12.828 438.413 12.558 437.333 12.558C436.517 12.558 435.899 12.702 435.479 12.99C435.071 13.278 434.867 13.656 434.867 14.124C434.867 14.484 434.981 14.772 435.209 14.988C435.449 15.204 435.743 15.366 436.091 15.474C436.439 15.57 436.919 15.672 437.531 15.78C438.287 15.924 438.893 16.068 439.349 16.212C439.805 16.356 440.195 16.602 440.519 16.95C440.843 17.298 441.005 17.778 441.005 18.39C441.005 19.218 440.657 19.878 439.961 20.37C439.277 20.85 438.323 21.09 437.099 21.09Z" fill="#2F2F2F"/>
</svg>
