<svg width="570" height="45" viewBox="0 0 570 45" fill="none" xmlns="http://www.w3.org/2000/svg">
<path d="M78.2065 25.188H75.6865V28.5H74.3905V25.188H67.2805V24.252L73.9585 15.9H75.3985L68.9545 24.036H74.4265V21.12H75.6865V24.036H78.2065V25.188ZM82.6386 21.066C84.4626 21.066 85.7886 21.396 86.6166 22.056C87.4566 22.704 87.8766 23.616 87.8766 24.792C87.8766 25.524 87.7026 26.178 87.3546 26.754C87.0186 27.33 86.5086 27.786 85.8246 28.122C85.1406 28.446 84.3006 28.608 83.3046 28.608C82.4046 28.608 81.5466 28.464 80.7306 28.176C79.9266 27.876 79.2786 27.48 78.7866 26.988L79.4166 25.962C79.8366 26.394 80.3886 26.748 81.0726 27.024C81.7566 27.288 82.4946 27.42 83.2866 27.42C84.3306 27.42 85.1346 27.186 85.6986 26.718C86.2746 26.25 86.5626 25.626 86.5626 24.846C86.5626 23.982 86.2386 23.328 85.5906 22.884C84.9546 22.44 83.8746 22.218 82.3506 22.218H79.6686L80.3166 15.9H87.2106V17.052H81.4506L81.0186 21.066H82.6386ZM99.3269 27.438C99.8309 27.402 100.293 27.27 100.713 27.042C101.133 26.814 101.481 26.49 101.757 26.07L102.711 26.718C102.363 27.282 101.895 27.726 101.307 28.05C100.719 28.362 100.059 28.536 99.3269 28.572V30.66H98.4449V28.572C97.6049 28.488 96.8549 28.23 96.1949 27.798C95.5469 27.366 95.0369 26.802 94.6649 26.106C94.3049 25.41 94.1249 24.63 94.1249 23.766C94.1249 22.902 94.3049 22.122 94.6649 21.426C95.0369 20.73 95.5469 20.172 96.1949 19.752C96.8549 19.32 97.6049 19.062 98.4449 18.978V16.872H99.3269V18.96C100.071 19.008 100.731 19.194 101.307 19.518C101.895 19.83 102.363 20.268 102.711 20.832L101.757 21.48C101.481 21.06 101.133 20.736 100.713 20.508C100.293 20.268 99.8309 20.13 99.3269 20.094V27.438ZM95.4209 23.766C95.4209 24.774 95.6969 25.608 96.2489 26.268C96.8129 26.916 97.5449 27.3 98.4449 27.42V20.112C97.5449 20.232 96.8129 20.622 96.2489 21.282C95.6969 21.942 95.4209 22.77 95.4209 23.766Z" fill="black"/>
<path d="M5 1H165V-1H5V1ZM169 5V40H171V5H169ZM165 44H5V46H165V44ZM1 40V5H-1V40H1ZM5 44C2.79086 44 1 42.2091 1 40H-1C-1 43.3137 1.6863 46 5 46V44ZM169 40C169 42.2091 167.209 44 165 44V46C168.314 46 171 43.3137 171 40H169ZM165 1C167.209 1 169 2.79086 169 5H171C171 1.68629 168.314 -1 165 -1V1ZM5 -1C1.68629 -1 -1 1.68629 -1 5H1C1 2.79086 2.79086 1 5 1V-1Z" fill="#2F2F2F"/>
<path d="M270.765 21.066C272.589 21.066 273.915 21.396 274.743 22.056C275.583 22.704 276.003 23.616 276.003 24.792C276.003 25.524 275.829 26.178 275.481 26.754C275.145 27.33 274.635 27.786 273.951 28.122C273.267 28.446 272.427 28.608 271.431 28.608C270.531 28.608 269.673 28.464 268.857 28.176C268.053 27.876 267.405 27.48 266.913 26.988L267.543 25.962C267.963 26.394 268.515 26.748 269.199 27.024C269.883 27.288 270.621 27.42 271.413 27.42C272.457 27.42 273.261 27.186 273.825 26.718C274.401 26.25 274.689 25.626 274.689 24.846C274.689 23.982 274.365 23.328 273.717 22.884C273.081 22.44 272.001 22.218 270.477 22.218H267.795L268.443 15.9H275.337V17.052H269.577L269.145 21.066H270.765ZM282.67 28.608C281.698 28.608 280.828 28.35 280.06 27.834C279.304 27.318 278.71 26.58 278.278 25.62C277.858 24.648 277.648 23.508 277.648 22.2C277.648 20.892 277.858 19.758 278.278 18.798C278.71 17.826 279.304 17.082 280.06 16.566C280.828 16.05 281.698 15.792 282.67 15.792C283.642 15.792 284.506 16.05 285.262 16.566C286.03 17.082 286.63 17.826 287.062 18.798C287.494 19.758 287.71 20.892 287.71 22.2C287.71 23.508 287.494 24.648 287.062 25.62C286.63 26.58 286.03 27.318 285.262 27.834C284.506 28.35 283.642 28.608 282.67 28.608ZM282.67 27.42C283.402 27.42 284.044 27.216 284.596 26.808C285.16 26.4 285.598 25.806 285.91 25.026C286.222 24.246 286.378 23.304 286.378 22.2C286.378 21.096 286.222 20.154 285.91 19.374C285.598 18.594 285.16 18 284.596 17.592C284.044 17.184 283.402 16.98 282.67 16.98C281.938 16.98 281.29 17.184 280.726 17.592C280.174 18 279.742 18.594 279.43 19.374C279.118 20.154 278.962 21.096 278.962 22.2C278.962 23.304 279.118 24.246 279.43 25.026C279.742 25.806 280.174 26.4 280.726 26.808C281.29 27.216 281.938 27.42 282.67 27.42ZM299.371 27.438C299.875 27.402 300.337 27.27 300.757 27.042C301.177 26.814 301.525 26.49 301.801 26.07L302.755 26.718C302.407 27.282 301.939 27.726 301.351 28.05C300.763 28.362 300.103 28.536 299.371 28.572V30.66H298.489V28.572C297.649 28.488 296.899 28.23 296.239 27.798C295.591 27.366 295.081 26.802 294.709 26.106C294.349 25.41 294.169 24.63 294.169 23.766C294.169 22.902 294.349 22.122 294.709 21.426C295.081 20.73 295.591 20.172 296.239 19.752C296.899 19.32 297.649 19.062 298.489 18.978V16.872H299.371V18.96C300.115 19.008 300.775 19.194 301.351 19.518C301.939 19.83 302.407 20.268 302.755 20.832L301.801 21.48C301.525 21.06 301.177 20.736 300.757 20.508C300.337 20.268 299.875 20.13 299.371 20.094V27.438ZM295.465 23.766C295.465 24.774 295.741 25.608 296.293 26.268C296.857 26.916 297.589 27.3 298.489 27.42V20.112C297.589 20.232 296.857 20.622 296.293 21.282C295.741 21.942 295.465 22.77 295.465 23.766Z" fill="black"/>
<path d="M205 1H365V-1H205V1ZM369 5V40H371V5H369ZM365 44H205V46H365V44ZM201 40V5H199V40H201ZM205 44C202.791 44 201 42.2091 201 40H199C199 43.3137 201.686 46 205 46V44ZM369 40C369 42.2091 367.209 44 365 44V46C368.314 46 371 43.3137 371 40H369ZM365 1C367.209 1 369 2.79086 369 5H371C371 1.68629 368.314 -1 365 -1V1ZM205 -1C201.686 -1 199 1.68629 199 5H201C201 2.79086 202.791 1 205 1V-1Z" fill="#2F2F2F"/>
<path d="M400 5C400 2.23858 402.239 0 405 0H565C567.761 0 570 2.23858 570 5V40C570 42.7614 567.761 45 565 45H405C402.239 45 400 42.7614 400 40V5Z" fill="#369CB7"/>
<path d="M470.773 21.066C472.597 21.066 473.923 21.396 474.751 22.056C475.591 22.704 476.011 23.616 476.011 24.792C476.011 25.524 475.837 26.178 475.489 26.754C475.153 27.33 474.643 27.786 473.959 28.122C473.275 28.446 472.435 28.608 471.439 28.608C470.539 28.608 469.681 28.464 468.865 28.176C468.061 27.876 467.413 27.48 466.921 26.988L467.551 25.962C467.971 26.394 468.523 26.748 469.207 27.024C469.891 27.288 470.629 27.42 471.421 27.42C472.465 27.42 473.269 27.186 473.833 26.718C474.409 26.25 474.697 25.626 474.697 24.846C474.697 23.982 474.373 23.328 473.725 22.884C473.089 22.44 472.009 22.218 470.485 22.218H467.803L468.451 15.9H475.345V17.052H469.585L469.153 21.066H470.773ZM488.367 25.188H485.847V28.5H484.551V25.188H477.441V24.252L484.119 15.9H485.559L479.115 24.036H484.587V21.12H485.847V24.036H488.367V25.188ZM499.362 27.438C499.866 27.402 500.328 27.27 500.748 27.042C501.168 26.814 501.516 26.49 501.792 26.07L502.746 26.718C502.398 27.282 501.93 27.726 501.342 28.05C500.754 28.362 500.094 28.536 499.362 28.572V30.66H498.48V28.572C497.64 28.488 496.89 28.23 496.23 27.798C495.582 27.366 495.072 26.802 494.7 26.106C494.34 25.41 494.16 24.63 494.16 23.766C494.16 22.902 494.34 22.122 494.7 21.426C495.072 20.73 495.582 20.172 496.23 19.752C496.89 19.32 497.64 19.062 498.48 18.978V16.872H499.362V18.96C500.106 19.008 500.766 19.194 501.342 19.518C501.93 19.83 502.398 20.268 502.746 20.832L501.792 21.48C501.516 21.06 501.168 20.736 500.748 20.508C500.328 20.268 499.866 20.13 499.362 20.094V27.438ZM495.456 23.766C495.456 24.774 495.732 25.608 496.284 26.268C496.848 26.916 497.58 27.3 498.48 27.42V20.112C497.58 20.232 496.848 20.622 496.284 21.282C495.732 21.942 495.456 22.77 495.456 23.766Z" fill="white"/>
<path d="M405 1H565V-1H405V1ZM569 5V40H571V5H569ZM565 44H405V46H565V44ZM401 40V5H399V40H401ZM405 44C402.791 44 401 42.2091 401 40H399C399 43.3137 401.686 46 405 46V44ZM569 40C569 42.2091 567.209 44 565 44V46C568.314 46 571 43.3137 571 40H569ZM565 1C567.209 1 569 2.79086 569 5H571C571 1.68629 568.314 -1 565 -1V1ZM405 -1C401.686 -1 399 1.68629 399 5H401C401 2.79086 402.791 1 405 1V-1Z" fill="#369CB7"/>
</svg>
