<svg width="496" height="106" viewBox="0 0 496 106" fill="none" xmlns="http://www.w3.org/2000/svg">
<path d="M53.0011 16.8066H52.666V20.7276H53.0011V16.8066Z" fill="black"/>
<path d="M53.0011 85.0039H52.666V88.9248H53.0011V85.0039Z" fill="black"/>
<path d="M36.6121 25.1207L36.9023 24.9531L34.9419 21.5576L34.6517 21.7252L36.6121 25.1207Z" fill="black"/>
<path d="M70.7078 84.149L70.998 83.9814L69.0376 80.586L68.7474 80.7535L70.7078 84.149Z" fill="black"/>
<path d="M24.9047 36.9406L25.0723 36.6504L21.6768 34.6899L21.5092 34.9801L24.9047 36.9406Z" fill="black"/>
<path d="M83.9828 71.0373L84.1504 70.7471L80.7549 68.7866L80.5873 69.0768L83.9828 71.0373Z" fill="black"/>
<path d="M20.6943 52.6982H16.7734V53.0334H20.6943V52.6982Z" fill="black"/>
<path d="M88.8916 52.6982H84.9707V53.0334H88.8916V52.6982Z" fill="black"/>
<path d="M25.0855 69.0705L24.918 68.7803L21.5225 70.7407L21.69 71.0309L25.0855 69.0705Z" fill="black"/>
<path d="M84.1344 34.9933L83.9668 34.7031L80.5713 36.6636L80.7388 36.9538L84.1344 34.9933Z" fill="black"/>
<path d="M36.9015 80.7818L36.6113 80.6143L34.6509 84.0098L34.9411 84.1773L36.9015 80.7818Z" fill="black"/>
<path d="M71.0129 21.7135L70.7227 21.5459L68.7622 24.9414L69.0524 25.109L71.0129 21.7135Z" fill="black"/>
<path d="M49.1435 13.9602V13.2229H50.1154V9.53661C49.7467 9.70417 49.4116 9.83822 49.043 9.97227V9.06744C49.4116 8.96691 49.8137 8.76583 50.2159 8.53125H51.0537V13.2229H52.0255V13.9602H49.1435Z" fill="black"/>
<path d="M55.0073 8.46222C55.51 8.46222 55.9121 8.62978 56.2138 8.93139C56.5154 9.233 56.6494 9.66866 56.6494 10.2384C56.6494 10.3724 56.6494 10.4729 56.6159 10.5735C56.5824 10.674 56.5824 10.7746 56.5489 10.8751C56.5154 10.9756 56.4818 11.0427 56.4148 11.1432C56.3478 11.2437 56.3143 11.3107 56.2808 11.3778C56.2473 11.4448 56.1802 11.5118 56.1132 11.6124C56.0462 11.7129 55.9792 11.7799 55.9457 11.8134C55.9121 11.8469 55.8451 11.914 55.7446 12.0145L54.6722 13.1539H56.6494V13.9247H53.4993V13.2544L55.0743 11.5118C55.2084 11.3778 55.2754 11.2772 55.3424 11.2102C55.376 11.1432 55.443 11.0762 55.5435 10.9756C55.6105 10.8751 55.6776 10.7746 55.7111 10.741C55.7446 10.674 55.7781 10.607 55.7781 10.5065C55.8116 10.4059 55.8116 10.3389 55.8116 10.2384C55.8116 10.1713 55.8116 10.0708 55.7781 9.93675C55.7446 9.80271 55.7111 9.66866 55.6776 9.60163C55.6105 9.5011 55.577 9.43407 55.4765 9.36705C55.4095 9.30002 55.3089 9.26651 55.2419 9.26651C55.1749 9.233 55.0743 9.233 54.9738 9.233C54.9068 9.233 54.8398 9.233 54.7727 9.26651C54.7057 9.26651 54.6387 9.30002 54.5717 9.30002C54.5046 9.33354 54.4376 9.33354 54.3706 9.36705C54.3036 9.40056 54.2365 9.40056 54.1695 9.43407C54.1025 9.46758 54.069 9.5011 54.002 9.5011C53.9349 9.53461 53.9014 9.56812 53.8679 9.56812C53.8344 9.60163 53.8009 9.60163 53.7674 9.63514C53.7339 9.66866 53.7004 9.66866 53.7004 9.66866H53.6668L53.3652 8.93139C53.3987 8.93139 53.3987 8.89788 53.4323 8.86437C53.4658 8.83086 53.5328 8.79734 53.6668 8.73032C53.8009 8.6633 53.9014 8.62978 54.0355 8.56276C54.1695 8.52925 54.3371 8.46222 54.5046 8.42871C54.6387 8.46222 54.8062 8.46222 55.0073 8.46222Z" fill="black"/>
<path d="M52.6296 97.5373C52.1939 97.5373 51.8253 97.4367 51.5237 97.2021C51.2221 96.9676 50.9875 96.6659 50.8534 96.2638C50.7194 95.8616 50.6523 95.3925 50.6523 94.8563C50.6523 94.4541 50.6859 94.0855 50.7864 93.7169C50.8869 93.3818 51.021 93.0466 51.1885 92.7785C51.3561 92.5104 51.5907 92.3094 51.8923 92.1418C52.1604 91.9743 52.4955 91.9072 52.8306 91.9072C53.4003 91.9072 53.8695 92.0748 54.2046 92.3764L53.903 93.0801C53.5679 92.8121 53.2328 92.7115 52.8306 92.7115C52.4955 92.7115 52.2274 92.8791 51.9928 93.1807C51.7582 93.5158 51.6577 93.918 51.6242 94.3871C51.8923 94.0185 52.2609 93.8174 52.6966 93.8174C53.2328 93.8174 53.6684 93.985 53.9701 94.3201C54.2717 94.6552 54.4392 95.0909 54.4392 95.6271C54.4392 96.1633 54.2717 96.5989 53.9365 96.9675C53.6014 97.3697 53.1658 97.5373 52.6296 97.5373ZM52.5961 96.733C52.8641 96.733 53.0652 96.6324 53.2328 96.4314C53.4003 96.2303 53.4674 95.9957 53.4674 95.6941C53.4674 95.3925 53.4003 95.1244 53.2328 94.9568C53.0987 94.7558 52.8641 94.6552 52.5961 94.6552C52.2944 94.6552 52.0599 94.7558 51.8923 94.9568C51.7247 95.1579 51.6242 95.3925 51.6242 95.7276C51.6242 95.8952 51.6577 96.0292 51.6912 96.1633C51.7582 96.2973 51.8253 96.3978 51.8923 96.4984C51.9928 96.5989 52.0934 96.6324 52.1939 96.6995C52.3615 96.6995 52.4955 96.733 52.5961 96.733Z" fill="black"/>
<path d="M11.7791 55.4793C11.377 55.4793 10.9078 55.3453 10.3716 55.1107L10.7067 54.3399C11.0419 54.541 11.3435 54.675 11.6786 54.675C11.8461 54.675 12.0137 54.6415 12.1477 54.5745C12.2818 54.5075 12.4158 54.4069 12.5499 54.3064C12.6504 54.1724 12.751 54.0048 12.818 53.8037C12.885 53.6027 12.9185 53.3346 12.9185 53.0665V52.9659C12.6839 53.301 12.3153 53.4686 11.8461 53.4686C11.3099 53.4686 10.9078 53.301 10.5727 52.9659C10.2711 52.6308 10.1035 52.2287 10.1035 51.6925C10.1035 51.1563 10.2711 50.7206 10.6062 50.3855C10.9413 50.0504 11.4105 49.8828 11.9467 49.8828C12.5499 49.8828 13.0191 50.1174 13.3542 50.5531C13.6893 50.9887 13.8569 51.659 13.8569 52.5303C13.8569 53.1 13.7898 53.6362 13.6223 54.0718C13.4547 54.5075 13.2201 54.8761 12.9185 55.1107C12.5834 55.3788 12.2148 55.4793 11.7791 55.4793ZM11.9132 52.6978C12.2148 52.6978 12.4494 52.5973 12.6169 52.4297C12.7845 52.2622 12.885 51.9941 12.885 51.6254C12.885 51.3573 12.818 51.1563 12.6504 50.9552C12.4829 50.7876 12.2818 50.6871 11.9802 50.6871C11.6786 50.6871 11.4775 50.7876 11.2764 50.9552C11.1089 51.1563 11.0083 51.3909 11.0083 51.6925C11.0083 51.9941 11.0754 52.2287 11.2429 52.3962C11.4105 52.5973 11.6451 52.6978 11.9132 52.6978Z" fill="black"/>
<path d="M94.1174 55.5133C93.9163 55.5133 93.7152 55.5133 93.5142 55.4797C93.3131 55.4462 93.179 55.4127 93.045 55.3792C92.911 55.3457 92.8104 55.2787 92.7099 55.2452C92.6093 55.2116 92.5423 55.1446 92.5088 55.1446L92.4418 55.1111L92.7434 54.4074C92.7769 54.4409 92.8439 54.4744 92.9445 54.5079C93.045 54.5414 93.179 54.6084 93.4136 54.6754C93.6147 54.7425 93.8158 54.776 94.0168 54.776C94.352 54.776 94.6201 54.709 94.7876 54.5414C94.9552 54.3738 95.0557 54.1728 95.0557 53.9047C95.0557 53.6366 94.9217 53.402 94.6871 53.2679C94.4525 53.1339 94.1174 53.0669 93.6817 53.0669H93.5477H93.3131V52.2626H93.5812C94.0503 52.2626 94.3855 52.1955 94.5865 52.0615C94.7876 51.9275 94.8882 51.7264 94.8882 51.3913C94.8882 51.1902 94.7876 51.0226 94.6201 50.9221C94.419 50.8216 94.2179 50.7545 93.9833 50.7545C93.8828 50.7545 93.7487 50.7545 93.6482 50.788C93.5477 50.8216 93.4471 50.8216 93.3466 50.8551C93.2461 50.8886 93.179 50.9221 93.1455 50.9556C93.0785 50.9891 93.045 51.0226 92.978 51.0561C92.9109 51.0896 92.8774 51.1232 92.8439 51.1232L92.4083 50.4529C92.7099 50.2519 92.9445 50.1178 93.179 50.0508C93.4136 49.9837 93.7152 49.9502 94.0839 49.9502C94.3184 49.9502 94.5195 49.9837 94.7206 50.0508C94.9217 50.1178 95.1227 50.1848 95.2903 50.3189C95.4579 50.4194 95.5919 50.587 95.6924 50.7545C95.793 50.9221 95.8265 51.1567 95.8265 51.3913C95.8265 51.5923 95.793 51.7599 95.726 51.9275C95.6589 52.095 95.5584 52.2626 95.3908 52.3966C95.2233 52.5307 95.0557 52.6312 94.8211 52.6647C95.1898 52.7317 95.4579 52.8658 95.6589 53.1339C95.86 53.3685 95.9605 53.6701 95.9605 53.9717C95.9605 54.2063 95.927 54.4409 95.8265 54.6419C95.7259 54.843 95.5919 55.0106 95.4243 55.1446C95.2568 55.2787 95.0557 55.3792 94.8546 55.4462C94.5865 55.4797 94.352 55.5133 94.1174 55.5133Z" fill="black"/>
<path d="M72.8056 20.4257V19.6885H73.7775V16.0021C73.4088 16.1697 73.0737 16.3037 72.7051 16.4378V15.5665C73.0737 15.4659 73.4759 15.2649 73.878 15.0303H74.7158V19.722H75.6876V20.4592H72.8056V20.4257Z" fill="black"/>
<path d="M87.3823 27.8655C87.885 27.8655 88.2871 28.0331 88.5888 28.3347C88.8904 28.6363 89.0244 29.072 89.0244 29.6417C89.0244 29.7757 89.0244 29.8763 88.9909 29.9768C88.9574 30.0773 88.9574 30.1779 88.9239 30.2784C88.8904 30.3789 88.8569 30.446 88.7898 30.5465C88.7228 30.647 88.6893 30.7141 88.6558 30.7811C88.6223 30.8481 88.5552 30.9151 88.4882 31.0157C88.4212 31.1162 88.3542 31.1832 88.3207 31.2167C88.2871 31.2503 88.2201 31.3173 88.1196 31.4178L87.0472 32.5572H89.0244V33.328H85.8743V32.6578L87.4493 30.9151C87.5834 30.7811 87.6504 30.6806 87.7174 30.6135C87.751 30.5465 87.818 30.4795 87.9185 30.3789C87.9855 30.2784 88.0526 30.1779 88.0861 30.1444C88.1196 30.0773 88.1531 30.0103 88.1531 29.9098C88.1866 29.8092 88.1866 29.7422 88.1866 29.6417C88.1866 29.5747 88.1866 29.4741 88.1531 29.3401C88.1196 29.206 88.0861 29.072 88.0526 29.005C87.9855 28.9044 87.952 28.8374 87.8515 28.7704C87.7845 28.7033 87.6839 28.6698 87.6169 28.6698C87.5499 28.6363 87.4493 28.6363 87.3488 28.6363C87.2818 28.6363 87.2148 28.6363 87.1477 28.6698C87.0807 28.6698 87.0137 28.7033 86.9467 28.7033C86.8796 28.7369 86.8126 28.7369 86.7456 28.7704C86.6786 28.8039 86.6115 28.8039 86.5445 28.8374C86.4775 28.8709 86.444 28.9044 86.377 28.9044C86.3099 28.9379 86.2764 28.9714 86.2429 28.9714C86.2094 29.005 86.1759 29.005 86.1424 29.0385C86.1089 29.072 86.0754 29.072 86.0754 29.072H86.0418L85.7402 28.3347C85.7737 28.3347 85.7738 28.3012 85.8073 28.2677C85.8408 28.2342 85.9078 28.2007 86.0418 28.1336C86.1759 28.0666 86.2764 28.0331 86.4105 27.9661C86.5445 27.9326 86.7121 27.8655 86.8796 27.832C87.0137 27.8991 87.1813 27.8655 87.3823 27.8655Z" fill="black"/>
<path d="M88.1206 77.7314V76.3239H85.8418V75.6201L88.0201 72.3359H89.0925V75.5866H89.9303V76.3239H89.0925V77.7314H88.1206ZM86.8472 75.5531H88.1206V73.5089C88.0536 73.6094 87.6514 74.2796 86.8472 75.5531Z" fill="black"/>
<path d="M74.1798 90.9019C73.8782 90.9019 73.5766 90.8349 73.275 90.7008C72.9734 90.5668 72.7053 90.3992 72.4707 90.1647L72.9734 89.4609C73.1409 89.662 73.342 89.8295 73.5431 89.9301C73.7442 90.0306 73.9787 90.0976 74.1798 90.0976C74.4479 90.0976 74.6825 89.9971 74.8836 89.8295C75.0846 89.662 75.1852 89.3939 75.1852 89.0587C75.1852 88.7907 75.1182 88.5561 74.9841 88.3885C74.8501 88.1874 74.6825 88.1204 74.4479 88.1204C74.1463 88.1204 73.9452 88.1874 73.8112 88.355L72.8728 88.2209V85.4395H75.8889V86.2437H73.7106L73.6771 87.6177C73.8447 87.3832 74.1798 87.2826 74.649 87.2826C75.0511 87.2826 75.4198 87.4502 75.7214 87.8188C76.023 88.1539 76.157 88.5896 76.157 89.1258C76.157 89.3604 76.1235 89.5949 76.0565 89.796C75.9895 89.9971 75.8889 90.1647 75.7549 90.2987C75.6208 90.4327 75.4868 90.5668 75.3192 90.6673C75.1517 90.7679 74.9841 90.8349 74.783 90.9019C74.582 90.8684 74.3809 90.9019 74.1798 90.9019Z" fill="black"/>
<path d="M29.5742 90.8017L31.6185 86.177H28.9375V85.4062H32.6909V86.1435L30.5461 90.8352H29.5742V90.8017Z" fill="black"/>
<path d="M18.1459 77.8989C17.7773 77.8989 17.4757 77.8319 17.2076 77.7314C16.9395 77.5973 16.7049 77.4298 16.5373 77.1952C16.3698 76.9606 16.3027 76.6925 16.3027 76.3574C16.3027 76.0558 16.3698 75.7877 16.5373 75.5531C16.7049 75.3185 16.9395 75.1174 17.2076 74.9834C16.6714 74.6818 16.4033 74.2461 16.4033 73.7434C16.4033 73.3078 16.5708 72.9392 16.8724 72.7046C17.2076 72.4365 17.6097 72.3359 18.1124 72.3359C18.6486 72.3359 19.0842 72.47 19.3858 72.7381C19.6875 73.0062 19.855 73.3748 19.855 73.8105C19.855 74.3467 19.5869 74.7823 19.0507 75.0169C19.3188 75.1509 19.5199 75.352 19.6875 75.5866C19.855 75.8547 19.9555 76.1228 19.9555 76.3909C19.9555 76.6925 19.855 76.9941 19.6875 77.2287C19.5199 77.4633 19.2853 77.6308 19.0172 77.7649C18.7826 77.8654 18.481 77.8989 18.1459 77.8989ZM18.1459 77.0947C18.414 77.0947 18.6486 77.0276 18.7826 76.8936C18.9502 76.7595 19.0172 76.5585 19.0172 76.2904C19.0172 76.0893 18.9502 75.8882 18.7826 75.6871C18.6151 75.4861 18.414 75.3855 18.1794 75.3185C17.9113 75.3855 17.7102 75.4861 17.5427 75.6871C17.3751 75.8547 17.2746 76.0893 17.2746 76.3239C17.2746 76.5585 17.3416 76.7595 17.5092 76.8936C17.6432 77.0276 17.8778 77.0947 18.1459 77.0947ZM18.1459 74.6483C18.3805 74.5812 18.5816 74.4807 18.7156 74.3132C18.8497 74.1791 18.9167 73.978 18.9167 73.777C18.9167 73.5759 18.8497 73.4418 18.6821 73.3413C18.548 73.2408 18.347 73.1737 18.1124 73.1737C17.8778 73.1737 17.6767 73.2408 17.5427 73.3413C17.4086 73.4418 17.3416 73.6094 17.3416 73.844C17.3416 74.0451 17.4086 74.2126 17.5427 74.3802C17.7102 74.4472 17.8778 74.5812 18.1459 74.6483Z" fill="black"/>
<path d="M13.0537 33.6298V32.8925H14.0255V29.2062C13.6569 29.3738 13.3218 29.5078 12.9531 29.6419V28.7706C13.3218 28.67 13.7239 28.469 14.126 28.2344H14.9638V32.9261H15.9357V33.6633H13.0537V33.6298V33.6298Z" fill="black"/>
<path d="M19.086 33.7307C18.4828 33.7307 18.0136 33.4626 17.6785 32.9599C17.3434 32.4572 17.1758 31.7535 17.1758 30.8821C17.1758 30.0108 17.3434 29.3406 17.6785 28.8379C18.0136 28.3687 18.4828 28.1006 19.086 28.1006C19.6892 28.1006 20.1584 28.3352 20.4935 28.8379C20.8286 29.3406 20.9962 30.0108 20.9962 30.8486C20.9962 31.4183 20.9292 31.921 20.7951 32.3232C20.6611 32.7588 20.4265 33.0604 20.1584 33.3285C19.8233 33.5966 19.4882 33.7307 19.086 33.7307ZM19.086 32.8929C19.6892 32.8929 20.0244 32.2226 20.0244 30.8486C20.0244 30.5805 20.0244 30.346 19.9908 30.1114C19.9573 29.8768 19.9238 29.6757 19.8568 29.5082C19.7898 29.3071 19.6892 29.173 19.5552 29.0725C19.4211 28.972 19.2871 28.9049 19.1195 28.9049C18.952 28.9049 18.7844 28.972 18.6504 29.0725C18.5163 29.173 18.4158 29.3406 18.3487 29.5082C18.2817 29.7092 18.2147 29.9103 18.1812 30.1114C18.1477 30.346 18.1477 30.5805 18.1477 30.8486C18.1477 31.1502 18.1477 31.4183 18.1812 31.6529C18.2147 31.8875 18.2482 32.0886 18.3487 32.2897C18.4158 32.4907 18.5163 32.6248 18.6504 32.7253C18.7509 32.8594 18.9185 32.8929 19.086 32.8929Z" fill="black"/>
<path d="M28.0341 19.9905V19.2532H29.006V15.5669C28.6373 15.7344 28.3022 15.8685 27.9336 16.0025V15.0977C28.3022 14.9972 28.7044 14.7961 29.1065 14.5615H29.9443V19.2532H30.9162V19.9905H28.0341Z" fill="black"/>
<path d="M32.7939 19.9905V19.2532H33.7657V15.5669C33.3971 15.7344 33.062 15.8685 32.6934 16.0025V15.0977C33.062 14.9972 33.4641 14.7961 33.8663 14.5615H34.7041V19.2532H35.6759V19.9905H32.7939Z" fill="black"/>
<path d="M52.8293 55.1107C54.0693 55.1107 55.0746 54.1055 55.0746 52.8654C55.0746 51.6254 54.0693 50.6201 52.8293 50.6201C51.5892 50.6201 50.584 51.6254 50.584 52.8654C50.584 54.1055 51.5892 55.1107 52.8293 55.1107Z" fill="url(#paint0_radial_0_180)"/>
<path d="M52.5633 57.9596C52.0271 57.9596 51.625 57.4904 51.625 56.9207V32.2559H53.5017V56.9207C53.5017 57.4904 53.0995 57.9596 52.5633 57.9596Z" fill="black"/>
<path d="M77.0848 38.0301L76.9559 37.8206L76.7443 37.9461L45.8697 56.2691C45.4799 56.4933 45.4657 56.9663 45.6445 57.2793C45.8388 57.6193 46.2875 57.7839 46.6559 57.5734L46.6559 57.5734L46.6594 57.5713L77.5357 39.2474L77.7542 39.1178L77.621 38.9014L77.0848 38.0301Z" fill="#0E80A4" stroke="#0E80A4" stroke-width="0.5"/>
<path d="M52.8309 54.4402C53.7008 54.4402 54.406 53.735 54.406 52.8651C54.406 51.9952 53.7008 51.29 52.8309 51.29C51.961 51.29 51.2559 51.9952 51.2559 52.8651C51.2559 53.735 51.961 54.4402 52.8309 54.4402Z" fill="#0E80A4"/>
<path d="M53 103C80.6142 103 103 80.6142 103 53C103 25.3858 80.6142 3 53 3C25.3858 3 3 25.3858 3 53C3 80.6142 25.3858 103 53 103Z" stroke="#0E80A4" stroke-width="5" stroke-miterlimit="10"/>
<path d="M183.001 16.8066H182.666V20.7276H183.001V16.8066Z" fill="black"/>
<path d="M183.001 85.0039H182.666V88.9248H183.001V85.0039Z" fill="black"/>
<path d="M166.612 25.1207L166.902 24.9531L164.942 21.5576L164.652 21.7252L166.612 25.1207Z" fill="black"/>
<path d="M200.708 84.149L200.998 83.9814L199.038 80.586L198.747 80.7535L200.708 84.149Z" fill="black"/>
<path d="M154.905 36.9406L155.072 36.6504L151.677 34.6899L151.509 34.9801L154.905 36.9406Z" fill="black"/>
<path d="M213.983 71.0373L214.15 70.7471L210.755 68.7866L210.587 69.0768L213.983 71.0373Z" fill="black"/>
<path d="M150.694 52.6982H146.773V53.0334H150.694V52.6982Z" fill="black"/>
<path d="M218.892 52.6982H214.971V53.0334H218.892V52.6982Z" fill="black"/>
<path d="M155.086 69.0705L154.918 68.7803L151.522 70.7407L151.69 71.0309L155.086 69.0705Z" fill="black"/>
<path d="M214.134 34.9933L213.967 34.7031L210.571 36.6636L210.739 36.9538L214.134 34.9933Z" fill="black"/>
<path d="M166.902 80.7818L166.611 80.6143L164.651 84.0098L164.941 84.1773L166.902 80.7818Z" fill="black"/>
<path d="M201.013 21.7135L200.723 21.5459L198.762 24.9414L199.052 25.109L201.013 21.7135Z" fill="black"/>
<path d="M179.144 13.9602V13.2229H180.115V9.53661C179.747 9.70417 179.412 9.83822 179.043 9.97227V9.06744C179.412 8.96691 179.814 8.76583 180.216 8.53125H181.054V13.2229H182.026V13.9602H179.144Z" fill="black"/>
<path d="M185.007 8.46222C185.51 8.46222 185.912 8.62978 186.214 8.93139C186.515 9.233 186.649 9.66866 186.649 10.2384C186.649 10.3724 186.649 10.4729 186.616 10.5735C186.582 10.674 186.582 10.7746 186.549 10.8751C186.515 10.9756 186.482 11.0427 186.415 11.1432C186.348 11.2437 186.314 11.3107 186.281 11.3778C186.247 11.4448 186.18 11.5118 186.113 11.6124C186.046 11.7129 185.979 11.7799 185.946 11.8134C185.912 11.8469 185.845 11.914 185.745 12.0145L184.672 13.1539H186.649V13.9247H183.499V13.2544L185.074 11.5118C185.208 11.3778 185.275 11.2772 185.342 11.2102C185.376 11.1432 185.443 11.0762 185.544 10.9756C185.611 10.8751 185.678 10.7746 185.711 10.741C185.745 10.674 185.778 10.607 185.778 10.5065C185.812 10.4059 185.812 10.3389 185.812 10.2384C185.812 10.1713 185.812 10.0708 185.778 9.93675C185.745 9.80271 185.711 9.66866 185.678 9.60163C185.611 9.5011 185.577 9.43407 185.476 9.36705C185.409 9.30002 185.309 9.26651 185.242 9.26651C185.175 9.233 185.074 9.233 184.974 9.233C184.907 9.233 184.84 9.233 184.773 9.26651C184.706 9.26651 184.639 9.30002 184.572 9.30002C184.505 9.33354 184.438 9.33354 184.371 9.36705C184.304 9.40056 184.237 9.40056 184.17 9.43407C184.102 9.46758 184.069 9.5011 184.002 9.5011C183.935 9.53461 183.901 9.56812 183.868 9.56812C183.834 9.60163 183.801 9.60163 183.767 9.63514C183.734 9.66866 183.7 9.66866 183.7 9.66866H183.667L183.365 8.93139C183.399 8.93139 183.399 8.89788 183.432 8.86437C183.466 8.83086 183.533 8.79734 183.667 8.73032C183.801 8.6633 183.901 8.62978 184.035 8.56276C184.17 8.52925 184.337 8.46222 184.505 8.42871C184.639 8.46222 184.806 8.46222 185.007 8.46222Z" fill="black"/>
<path d="M182.63 97.5373C182.194 97.5373 181.825 97.4367 181.524 97.2021C181.222 96.9676 180.987 96.6659 180.853 96.2638C180.719 95.8616 180.652 95.3925 180.652 94.8563C180.652 94.4541 180.686 94.0855 180.786 93.7169C180.887 93.3818 181.021 93.0466 181.189 92.7785C181.356 92.5104 181.591 92.3094 181.892 92.1418C182.16 91.9743 182.496 91.9072 182.831 91.9072C183.4 91.9072 183.87 92.0748 184.205 92.3764L183.903 93.0801C183.568 92.8121 183.233 92.7115 182.831 92.7115C182.496 92.7115 182.227 92.8791 181.993 93.1807C181.758 93.5158 181.658 93.918 181.624 94.3871C181.892 94.0185 182.261 93.8174 182.697 93.8174C183.233 93.8174 183.668 93.985 183.97 94.3201C184.272 94.6552 184.439 95.0909 184.439 95.6271C184.439 96.1633 184.272 96.5989 183.937 96.9675C183.601 97.3697 183.166 97.5373 182.63 97.5373ZM182.596 96.733C182.864 96.733 183.065 96.6324 183.233 96.4314C183.4 96.2303 183.467 95.9957 183.467 95.6941C183.467 95.3925 183.4 95.1244 183.233 94.9568C183.099 94.7558 182.864 94.6552 182.596 94.6552C182.294 94.6552 182.06 94.7558 181.892 94.9568C181.725 95.1579 181.624 95.3925 181.624 95.7276C181.624 95.8952 181.658 96.0292 181.691 96.1633C181.758 96.2973 181.825 96.3978 181.892 96.4984C181.993 96.5989 182.093 96.6324 182.194 96.6995C182.361 96.6995 182.496 96.733 182.596 96.733Z" fill="black"/>
<path d="M141.779 55.4793C141.377 55.4793 140.908 55.3453 140.372 55.1107L140.707 54.3399C141.042 54.541 141.343 54.675 141.679 54.675C141.846 54.675 142.014 54.6415 142.148 54.5745C142.282 54.5075 142.416 54.4069 142.55 54.3064C142.65 54.1724 142.751 54.0048 142.818 53.8037C142.885 53.6027 142.919 53.3346 142.919 53.0665V52.9659C142.684 53.301 142.315 53.4686 141.846 53.4686C141.31 53.4686 140.908 53.301 140.573 52.9659C140.271 52.6308 140.104 52.2287 140.104 51.6925C140.104 51.1563 140.271 50.7206 140.606 50.3855C140.941 50.0504 141.41 49.8828 141.947 49.8828C142.55 49.8828 143.019 50.1174 143.354 50.5531C143.689 50.9887 143.857 51.659 143.857 52.5303C143.857 53.1 143.79 53.6362 143.622 54.0718C143.455 54.5075 143.22 54.8761 142.919 55.1107C142.583 55.3788 142.215 55.4793 141.779 55.4793ZM141.913 52.6978C142.215 52.6978 142.449 52.5973 142.617 52.4297C142.784 52.2622 142.885 51.9941 142.885 51.6254C142.885 51.3573 142.818 51.1563 142.65 50.9552C142.483 50.7876 142.282 50.6871 141.98 50.6871C141.679 50.6871 141.478 50.7876 141.276 50.9552C141.109 51.1563 141.008 51.3909 141.008 51.6925C141.008 51.9941 141.075 52.2287 141.243 52.3962C141.41 52.5973 141.645 52.6978 141.913 52.6978Z" fill="black"/>
<path d="M224.117 55.5133C223.916 55.5133 223.715 55.5133 223.514 55.4797C223.313 55.4462 223.179 55.4127 223.045 55.3792C222.911 55.3457 222.81 55.2787 222.71 55.2452C222.609 55.2116 222.542 55.1446 222.509 55.1446L222.442 55.1111L222.743 54.4074C222.777 54.4409 222.844 54.4744 222.944 54.5079C223.045 54.5414 223.179 54.6084 223.414 54.6754C223.615 54.7425 223.816 54.776 224.017 54.776C224.352 54.776 224.62 54.709 224.788 54.5414C224.955 54.3738 225.056 54.1728 225.056 53.9047C225.056 53.6366 224.922 53.402 224.687 53.2679C224.452 53.1339 224.117 53.0669 223.682 53.0669H223.548H223.313V52.2626H223.581C224.05 52.2626 224.385 52.1955 224.587 52.0615C224.788 51.9275 224.888 51.7264 224.888 51.3913C224.888 51.1902 224.788 51.0226 224.62 50.9221C224.419 50.8216 224.218 50.7545 223.983 50.7545C223.883 50.7545 223.749 50.7545 223.648 50.788C223.548 50.8216 223.447 50.8216 223.347 50.8551C223.246 50.8886 223.179 50.9221 223.146 50.9556C223.079 50.9891 223.045 51.0226 222.978 51.0561C222.911 51.0896 222.877 51.1232 222.844 51.1232L222.408 50.4529C222.71 50.2519 222.944 50.1178 223.179 50.0508C223.414 49.9837 223.715 49.9502 224.084 49.9502C224.318 49.9502 224.52 49.9837 224.721 50.0508C224.922 50.1178 225.123 50.1848 225.29 50.3189C225.458 50.4194 225.592 50.587 225.692 50.7545C225.793 50.9221 225.826 51.1567 225.826 51.3913C225.826 51.5923 225.793 51.7599 225.726 51.9275C225.659 52.095 225.558 52.2626 225.391 52.3966C225.223 52.5307 225.056 52.6312 224.821 52.6647C225.19 52.7317 225.458 52.8658 225.659 53.1339C225.86 53.3685 225.961 53.6701 225.961 53.9717C225.961 54.2063 225.927 54.4409 225.826 54.6419C225.726 54.843 225.592 55.0106 225.424 55.1446C225.257 55.2787 225.056 55.3792 224.855 55.4462C224.587 55.4797 224.352 55.5133 224.117 55.5133Z" fill="black"/>
<path d="M202.806 20.4257V19.6885H203.777V16.0021C203.409 16.1697 203.074 16.3037 202.705 16.4378V15.5665C203.074 15.4659 203.476 15.2649 203.878 15.0303H204.716V19.722H205.688V20.4592H202.806V20.4257Z" fill="black"/>
<path d="M217.382 27.8655C217.885 27.8655 218.287 28.0331 218.589 28.3347C218.89 28.6363 219.024 29.072 219.024 29.6417C219.024 29.7757 219.024 29.8763 218.991 29.9768C218.957 30.0773 218.957 30.1779 218.924 30.2784C218.89 30.3789 218.857 30.446 218.79 30.5465C218.723 30.647 218.689 30.7141 218.656 30.7811C218.622 30.8481 218.555 30.9151 218.488 31.0157C218.421 31.1162 218.354 31.1832 218.321 31.2167C218.287 31.2503 218.22 31.3173 218.12 31.4178L217.047 32.5572H219.024V33.328H215.874V32.6578L217.449 30.9151C217.583 30.7811 217.65 30.6806 217.717 30.6135C217.751 30.5465 217.818 30.4795 217.919 30.3789C217.986 30.2784 218.053 30.1779 218.086 30.1444C218.12 30.0773 218.153 30.0103 218.153 29.9098C218.187 29.8092 218.187 29.7422 218.187 29.6417C218.187 29.5747 218.187 29.4741 218.153 29.3401C218.12 29.206 218.086 29.072 218.053 29.005C217.986 28.9044 217.952 28.8374 217.851 28.7704C217.784 28.7033 217.684 28.6698 217.617 28.6698C217.55 28.6363 217.449 28.6363 217.349 28.6363C217.282 28.6363 217.215 28.6363 217.148 28.6698C217.081 28.6698 217.014 28.7033 216.947 28.7033C216.88 28.7369 216.813 28.7369 216.746 28.7704C216.679 28.8039 216.612 28.8039 216.545 28.8374C216.478 28.8709 216.444 28.9044 216.377 28.9044C216.31 28.9379 216.276 28.9714 216.243 28.9714C216.209 29.005 216.176 29.005 216.142 29.0385C216.109 29.072 216.075 29.072 216.075 29.072H216.042L215.74 28.3347C215.774 28.3347 215.774 28.3012 215.807 28.2677C215.841 28.2342 215.908 28.2007 216.042 28.1336C216.176 28.0666 216.276 28.0331 216.41 27.9661C216.545 27.9326 216.712 27.8655 216.88 27.832C217.014 27.8991 217.181 27.8655 217.382 27.8655Z" fill="black"/>
<path d="M218.121 77.7314V76.3239H215.842V75.6201L218.02 72.3359H219.092V75.5866H219.93V76.3239H219.092V77.7314H218.121ZM216.847 75.5531H218.121V73.5089C218.054 73.6094 217.651 74.2796 216.847 75.5531Z" fill="black"/>
<path d="M204.18 90.9019C203.878 90.9019 203.577 90.8349 203.275 90.7008C202.973 90.5668 202.705 90.3992 202.471 90.1647L202.973 89.4609C203.141 89.662 203.342 89.8295 203.543 89.9301C203.744 90.0306 203.979 90.0976 204.18 90.0976C204.448 90.0976 204.682 89.9971 204.884 89.8295C205.085 89.662 205.185 89.3939 205.185 89.0587C205.185 88.7907 205.118 88.5561 204.984 88.3885C204.85 88.1874 204.682 88.1204 204.448 88.1204C204.146 88.1204 203.945 88.1874 203.811 88.355L202.873 88.2209V85.4395H205.889V86.2437H203.711L203.677 87.6177C203.845 87.3832 204.18 87.2826 204.649 87.2826C205.051 87.2826 205.42 87.4502 205.721 87.8188C206.023 88.1539 206.157 88.5896 206.157 89.1258C206.157 89.3604 206.124 89.5949 206.056 89.796C205.989 89.9971 205.889 90.1647 205.755 90.2987C205.621 90.4327 205.487 90.5668 205.319 90.6673C205.152 90.7679 204.984 90.8349 204.783 90.9019C204.582 90.8684 204.381 90.9019 204.18 90.9019Z" fill="black"/>
<path d="M159.574 90.8017L161.618 86.177H158.938V85.4062H162.691V86.1435L160.546 90.8352H159.574V90.8017Z" fill="black"/>
<path d="M148.146 77.8989C147.777 77.8989 147.476 77.8319 147.208 77.7314C146.939 77.5973 146.705 77.4298 146.537 77.1952C146.37 76.9606 146.303 76.6925 146.303 76.3574C146.303 76.0558 146.37 75.7877 146.537 75.5531C146.705 75.3185 146.939 75.1174 147.208 74.9834C146.671 74.6818 146.403 74.2461 146.403 73.7434C146.403 73.3078 146.571 72.9392 146.872 72.7046C147.208 72.4365 147.61 72.3359 148.112 72.3359C148.649 72.3359 149.084 72.47 149.386 72.7381C149.687 73.0062 149.855 73.3748 149.855 73.8105C149.855 74.3467 149.587 74.7823 149.051 75.0169C149.319 75.1509 149.52 75.352 149.687 75.5866C149.855 75.8547 149.956 76.1228 149.956 76.3909C149.956 76.6925 149.855 76.9941 149.687 77.2287C149.52 77.4633 149.285 77.6308 149.017 77.7649C148.783 77.8654 148.481 77.8989 148.146 77.8989ZM148.146 77.0947C148.414 77.0947 148.649 77.0276 148.783 76.8936C148.95 76.7595 149.017 76.5585 149.017 76.2904C149.017 76.0893 148.95 75.8882 148.783 75.6871C148.615 75.4861 148.414 75.3855 148.179 75.3185C147.911 75.3855 147.71 75.4861 147.543 75.6871C147.375 75.8547 147.275 76.0893 147.275 76.3239C147.275 76.5585 147.342 76.7595 147.509 76.8936C147.643 77.0276 147.878 77.0947 148.146 77.0947ZM148.146 74.6483C148.38 74.5812 148.582 74.4807 148.716 74.3132C148.85 74.1791 148.917 73.978 148.917 73.777C148.917 73.5759 148.85 73.4418 148.682 73.3413C148.548 73.2408 148.347 73.1737 148.112 73.1737C147.878 73.1737 147.677 73.2408 147.543 73.3413C147.409 73.4418 147.342 73.6094 147.342 73.844C147.342 74.0451 147.409 74.2126 147.543 74.3802C147.71 74.4472 147.878 74.5812 148.146 74.6483Z" fill="black"/>
<path d="M143.054 33.6298V32.8925H144.026V29.2062C143.657 29.3738 143.322 29.5078 142.953 29.6419V28.7706C143.322 28.67 143.724 28.469 144.126 28.2344H144.964V32.9261H145.936V33.6633H143.054V33.6298Z" fill="black"/>
<path d="M149.086 33.7307C148.483 33.7307 148.014 33.4626 147.678 32.9599C147.343 32.4572 147.176 31.7535 147.176 30.8821C147.176 30.0108 147.343 29.3406 147.678 28.8379C148.014 28.3687 148.483 28.1006 149.086 28.1006C149.689 28.1006 150.158 28.3352 150.494 28.8379C150.829 29.3406 150.996 30.0108 150.996 30.8486C150.996 31.4183 150.929 31.921 150.795 32.3232C150.661 32.7588 150.426 33.0604 150.158 33.3285C149.823 33.5966 149.488 33.7307 149.086 33.7307ZM149.086 32.8929C149.689 32.8929 150.024 32.2226 150.024 30.8486C150.024 30.5805 150.024 30.346 149.991 30.1114C149.957 29.8768 149.924 29.6757 149.857 29.5082C149.79 29.3071 149.689 29.173 149.555 29.0725C149.421 28.972 149.287 28.9049 149.12 28.9049C148.952 28.9049 148.784 28.972 148.65 29.0725C148.516 29.173 148.416 29.3406 148.349 29.5082C148.282 29.7092 148.215 29.9103 148.181 30.1114C148.148 30.346 148.148 30.5805 148.148 30.8486C148.148 31.1502 148.148 31.4183 148.181 31.6529C148.215 31.8875 148.248 32.0886 148.349 32.2897C148.416 32.4907 148.516 32.6248 148.65 32.7253C148.751 32.8594 148.918 32.8929 149.086 32.8929Z" fill="black"/>
<path d="M158.034 19.9905V19.2532H159.006V15.5669C158.637 15.7344 158.302 15.8685 157.934 16.0025V15.0977C158.302 14.9972 158.704 14.7961 159.107 14.5615H159.944V19.2532H160.916V19.9905H158.034Z" fill="black"/>
<path d="M162.794 19.9905V19.2532H163.766V15.5669C163.397 15.7344 163.062 15.8685 162.693 16.0025V15.0977C163.062 14.9972 163.464 14.7961 163.866 14.5615H164.704V19.2532H165.676V19.9905H162.794Z" fill="black"/>
<path d="M182.829 55.1107C184.069 55.1107 185.075 54.1055 185.075 52.8654C185.075 51.6254 184.069 50.6201 182.829 50.6201C181.589 50.6201 180.584 51.6254 180.584 52.8654C180.584 54.1055 181.589 55.1107 182.829 55.1107Z" fill="url(#paint1_radial_0_180)"/>
<path d="M187.691 52.7065C187.737 53.2408 187.304 53.6817 186.736 53.7305L162.162 55.8467L162.001 53.9769L186.575 51.8608C187.143 51.8119 187.645 52.1723 187.691 52.7065Z" fill="black"/>
<path d="M167.829 27.3185L167.616 27.4409L167.735 27.6562L185.102 59.0783C185.314 59.4747 185.787 59.5035 186.105 59.3343C186.451 59.1505 186.629 58.7072 186.43 58.3325L186.43 58.3325L186.428 58.3289L169.06 26.9051L168.937 26.6828L168.716 26.8092L167.829 27.3185Z" fill="#0E80A4" stroke="#0E80A4" stroke-width="0.5"/>
<path d="M182.831 54.4402C183.701 54.4402 184.406 53.735 184.406 52.8651C184.406 51.9952 183.701 51.29 182.831 51.29C181.961 51.29 181.256 51.9952 181.256 52.8651C181.256 53.735 181.961 54.4402 182.831 54.4402Z" fill="#0E80A4"/>
<path d="M183 103C210.614 103 233 80.6142 233 53C233 25.3858 210.614 3 183 3C155.386 3 133 25.3858 133 53C133 80.6142 155.386 103 183 103Z" stroke="#0E80A4" stroke-width="5" stroke-miterlimit="10"/>
<path d="M313.001 16.8066H312.666V20.7276H313.001V16.8066Z" fill="black"/>
<path d="M313.001 85.0039H312.666V88.9248H313.001V85.0039Z" fill="black"/>
<path d="M296.612 25.1207L296.902 24.9531L294.942 21.5576L294.652 21.7252L296.612 25.1207Z" fill="black"/>
<path d="M330.708 84.149L330.998 83.9814L329.038 80.586L328.747 80.7535L330.708 84.149Z" fill="black"/>
<path d="M284.905 36.9406L285.072 36.6504L281.677 34.6899L281.509 34.9801L284.905 36.9406Z" fill="black"/>
<path d="M343.983 71.0373L344.15 70.7471L340.755 68.7866L340.587 69.0768L343.983 71.0373Z" fill="black"/>
<path d="M280.694 52.6982H276.773V53.0334H280.694V52.6982Z" fill="black"/>
<path d="M348.892 52.6982H344.971V53.0334H348.892V52.6982Z" fill="black"/>
<path d="M285.086 69.0705L284.918 68.7803L281.522 70.7407L281.69 71.0309L285.086 69.0705Z" fill="black"/>
<path d="M344.134 34.9933L343.967 34.7031L340.571 36.6636L340.739 36.9538L344.134 34.9933Z" fill="black"/>
<path d="M296.902 80.7818L296.611 80.6143L294.651 84.0098L294.941 84.1773L296.902 80.7818Z" fill="black"/>
<path d="M331.013 21.7135L330.723 21.5459L328.762 24.9414L329.052 25.109L331.013 21.7135Z" fill="black"/>
<path d="M309.144 13.9602V13.2229H310.115V9.53661C309.747 9.70417 309.412 9.83822 309.043 9.97227V9.06744C309.412 8.96691 309.814 8.76583 310.216 8.53125H311.054V13.2229H312.026V13.9602H309.144Z" fill="black"/>
<path d="M315.007 8.46222C315.51 8.46222 315.912 8.62978 316.214 8.93139C316.515 9.233 316.649 9.66866 316.649 10.2384C316.649 10.3724 316.649 10.4729 316.616 10.5735C316.582 10.674 316.582 10.7746 316.549 10.8751C316.515 10.9756 316.482 11.0427 316.415 11.1432C316.348 11.2437 316.314 11.3107 316.281 11.3778C316.247 11.4448 316.18 11.5118 316.113 11.6124C316.046 11.7129 315.979 11.7799 315.946 11.8134C315.912 11.8469 315.845 11.914 315.745 12.0145L314.672 13.1539H316.649V13.9247H313.499V13.2544L315.074 11.5118C315.208 11.3778 315.275 11.2772 315.342 11.2102C315.376 11.1432 315.443 11.0762 315.544 10.9756C315.611 10.8751 315.678 10.7746 315.711 10.741C315.745 10.674 315.778 10.607 315.778 10.5065C315.812 10.4059 315.812 10.3389 315.812 10.2384C315.812 10.1713 315.812 10.0708 315.778 9.93675C315.745 9.80271 315.711 9.66866 315.678 9.60163C315.611 9.5011 315.577 9.43407 315.476 9.36705C315.409 9.30002 315.309 9.26651 315.242 9.26651C315.175 9.233 315.074 9.233 314.974 9.233C314.907 9.233 314.84 9.233 314.773 9.26651C314.706 9.26651 314.639 9.30002 314.572 9.30002C314.505 9.33354 314.438 9.33354 314.371 9.36705C314.304 9.40056 314.237 9.40056 314.17 9.43407C314.102 9.46758 314.069 9.5011 314.002 9.5011C313.935 9.53461 313.901 9.56812 313.868 9.56812C313.834 9.60163 313.801 9.60163 313.767 9.63514C313.734 9.66866 313.7 9.66866 313.7 9.66866H313.667L313.365 8.93139C313.399 8.93139 313.399 8.89788 313.432 8.86437C313.466 8.83086 313.533 8.79734 313.667 8.73032C313.801 8.6633 313.901 8.62978 314.035 8.56276C314.17 8.52925 314.337 8.46222 314.505 8.42871C314.639 8.46222 314.806 8.46222 315.007 8.46222Z" fill="black"/>
<path d="M312.63 97.5373C312.194 97.5373 311.825 97.4367 311.524 97.2021C311.222 96.9676 310.987 96.6659 310.853 96.2638C310.719 95.8616 310.652 95.3925 310.652 94.8563C310.652 94.4541 310.686 94.0855 310.786 93.7169C310.887 93.3818 311.021 93.0466 311.189 92.7785C311.356 92.5104 311.591 92.3094 311.892 92.1418C312.16 91.9743 312.496 91.9072 312.831 91.9072C313.4 91.9072 313.87 92.0748 314.205 92.3764L313.903 93.0801C313.568 92.8121 313.233 92.7115 312.831 92.7115C312.496 92.7115 312.227 92.8791 311.993 93.1807C311.758 93.5158 311.658 93.918 311.624 94.3871C311.892 94.0185 312.261 93.8174 312.697 93.8174C313.233 93.8174 313.668 93.985 313.97 94.3201C314.272 94.6552 314.439 95.0909 314.439 95.6271C314.439 96.1633 314.272 96.5989 313.937 96.9675C313.601 97.3697 313.166 97.5373 312.63 97.5373ZM312.596 96.733C312.864 96.733 313.065 96.6324 313.233 96.4314C313.4 96.2303 313.467 95.9957 313.467 95.6941C313.467 95.3925 313.4 95.1244 313.233 94.9568C313.099 94.7558 312.864 94.6552 312.596 94.6552C312.294 94.6552 312.06 94.7558 311.892 94.9568C311.725 95.1579 311.624 95.3925 311.624 95.7276C311.624 95.8952 311.658 96.0292 311.691 96.1633C311.758 96.2973 311.825 96.3978 311.892 96.4984C311.993 96.5989 312.093 96.6324 312.194 96.6995C312.361 96.6995 312.496 96.733 312.596 96.733Z" fill="black"/>
<path d="M271.779 55.4793C271.377 55.4793 270.908 55.3453 270.372 55.1107L270.707 54.3399C271.042 54.541 271.343 54.675 271.679 54.675C271.846 54.675 272.014 54.6415 272.148 54.5745C272.282 54.5075 272.416 54.4069 272.55 54.3064C272.65 54.1724 272.751 54.0048 272.818 53.8037C272.885 53.6027 272.919 53.3346 272.919 53.0665V52.9659C272.684 53.301 272.315 53.4686 271.846 53.4686C271.31 53.4686 270.908 53.301 270.573 52.9659C270.271 52.6308 270.104 52.2287 270.104 51.6925C270.104 51.1563 270.271 50.7206 270.606 50.3855C270.941 50.0504 271.41 49.8828 271.947 49.8828C272.55 49.8828 273.019 50.1174 273.354 50.5531C273.689 50.9887 273.857 51.659 273.857 52.5303C273.857 53.1 273.79 53.6362 273.622 54.0718C273.455 54.5075 273.22 54.8761 272.919 55.1107C272.583 55.3788 272.215 55.4793 271.779 55.4793ZM271.913 52.6978C272.215 52.6978 272.449 52.5973 272.617 52.4297C272.784 52.2622 272.885 51.9941 272.885 51.6254C272.885 51.3573 272.818 51.1563 272.65 50.9552C272.483 50.7876 272.282 50.6871 271.98 50.6871C271.679 50.6871 271.478 50.7876 271.276 50.9552C271.109 51.1563 271.008 51.3909 271.008 51.6925C271.008 51.9941 271.075 52.2287 271.243 52.3962C271.41 52.5973 271.645 52.6978 271.913 52.6978Z" fill="black"/>
<path d="M354.117 55.5133C353.916 55.5133 353.715 55.5133 353.514 55.4797C353.313 55.4462 353.179 55.4127 353.045 55.3792C352.911 55.3457 352.81 55.2787 352.71 55.2452C352.609 55.2116 352.542 55.1446 352.509 55.1446L352.442 55.1111L352.743 54.4074C352.777 54.4409 352.844 54.4744 352.944 54.5079C353.045 54.5414 353.179 54.6084 353.414 54.6754C353.615 54.7425 353.816 54.776 354.017 54.776C354.352 54.776 354.62 54.709 354.788 54.5414C354.955 54.3738 355.056 54.1728 355.056 53.9047C355.056 53.6366 354.922 53.402 354.687 53.2679C354.452 53.1339 354.117 53.0669 353.682 53.0669H353.548H353.313V52.2626H353.581C354.05 52.2626 354.385 52.1955 354.587 52.0615C354.788 51.9275 354.888 51.7264 354.888 51.3913C354.888 51.1902 354.788 51.0226 354.62 50.9221C354.419 50.8216 354.218 50.7545 353.983 50.7545C353.883 50.7545 353.749 50.7545 353.648 50.788C353.548 50.8216 353.447 50.8216 353.347 50.8551C353.246 50.8886 353.179 50.9221 353.146 50.9556C353.079 50.9891 353.045 51.0226 352.978 51.0561C352.911 51.0896 352.877 51.1232 352.844 51.1232L352.408 50.4529C352.71 50.2519 352.944 50.1178 353.179 50.0508C353.414 49.9837 353.715 49.9502 354.084 49.9502C354.318 49.9502 354.52 49.9837 354.721 50.0508C354.922 50.1178 355.123 50.1848 355.29 50.3189C355.458 50.4194 355.592 50.587 355.692 50.7545C355.793 50.9221 355.826 51.1567 355.826 51.3913C355.826 51.5923 355.793 51.7599 355.726 51.9275C355.659 52.095 355.558 52.2626 355.391 52.3966C355.223 52.5307 355.056 52.6312 354.821 52.6647C355.19 52.7317 355.458 52.8658 355.659 53.1339C355.86 53.3685 355.961 53.6701 355.961 53.9717C355.961 54.2063 355.927 54.4409 355.826 54.6419C355.726 54.843 355.592 55.0106 355.424 55.1446C355.257 55.2787 355.056 55.3792 354.855 55.4462C354.587 55.4797 354.352 55.5133 354.117 55.5133Z" fill="black"/>
<path d="M332.806 20.4257V19.6885H333.777V16.0021C333.409 16.1697 333.074 16.3037 332.705 16.4378V15.5665C333.074 15.4659 333.476 15.2649 333.878 15.0303H334.716V19.722H335.688V20.4592H332.806V20.4257Z" fill="black"/>
<path d="M347.382 27.8655C347.885 27.8655 348.287 28.0331 348.589 28.3347C348.89 28.6363 349.024 29.072 349.024 29.6417C349.024 29.7757 349.024 29.8763 348.991 29.9768C348.957 30.0773 348.957 30.1779 348.924 30.2784C348.89 30.3789 348.857 30.446 348.79 30.5465C348.723 30.647 348.689 30.7141 348.656 30.7811C348.622 30.8481 348.555 30.9151 348.488 31.0157C348.421 31.1162 348.354 31.1832 348.321 31.2167C348.287 31.2503 348.22 31.3173 348.12 31.4178L347.047 32.5572H349.024V33.328H345.874V32.6578L347.449 30.9151C347.583 30.7811 347.65 30.6806 347.717 30.6135C347.751 30.5465 347.818 30.4795 347.919 30.3789C347.986 30.2784 348.053 30.1779 348.086 30.1444C348.12 30.0773 348.153 30.0103 348.153 29.9098C348.187 29.8092 348.187 29.7422 348.187 29.6417C348.187 29.5747 348.187 29.4741 348.153 29.3401C348.12 29.206 348.086 29.072 348.053 29.005C347.986 28.9044 347.952 28.8374 347.851 28.7704C347.784 28.7033 347.684 28.6698 347.617 28.6698C347.55 28.6363 347.449 28.6363 347.349 28.6363C347.282 28.6363 347.215 28.6363 347.148 28.6698C347.081 28.6698 347.014 28.7033 346.947 28.7033C346.88 28.7369 346.813 28.7369 346.746 28.7704C346.679 28.8039 346.612 28.8039 346.545 28.8374C346.478 28.8709 346.444 28.9044 346.377 28.9044C346.31 28.9379 346.276 28.9714 346.243 28.9714C346.209 29.005 346.176 29.005 346.142 29.0385C346.109 29.072 346.075 29.072 346.075 29.072H346.042L345.74 28.3347C345.774 28.3347 345.774 28.3012 345.807 28.2677C345.841 28.2342 345.908 28.2007 346.042 28.1336C346.176 28.0666 346.276 28.0331 346.41 27.9661C346.545 27.9326 346.712 27.8655 346.88 27.832C347.014 27.8991 347.181 27.8655 347.382 27.8655Z" fill="black"/>
<path d="M348.121 77.7314V76.3239H345.842V75.6201L348.02 72.3359H349.092V75.5866H349.93V76.3239H349.092V77.7314H348.121ZM346.847 75.5531H348.121V73.5089C348.054 73.6094 347.651 74.2796 346.847 75.5531Z" fill="black"/>
<path d="M334.18 90.9019C333.878 90.9019 333.577 90.8349 333.275 90.7008C332.973 90.5668 332.705 90.3992 332.471 90.1647L332.973 89.4609C333.141 89.662 333.342 89.8295 333.543 89.9301C333.744 90.0306 333.979 90.0976 334.18 90.0976C334.448 90.0976 334.682 89.9971 334.884 89.8295C335.085 89.662 335.185 89.3939 335.185 89.0587C335.185 88.7907 335.118 88.5561 334.984 88.3885C334.85 88.1874 334.682 88.1204 334.448 88.1204C334.146 88.1204 333.945 88.1874 333.811 88.355L332.873 88.2209V85.4395H335.889V86.2437H333.711L333.677 87.6177C333.845 87.3832 334.18 87.2826 334.649 87.2826C335.051 87.2826 335.42 87.4502 335.721 87.8188C336.023 88.1539 336.157 88.5896 336.157 89.1258C336.157 89.3604 336.124 89.5949 336.056 89.796C335.989 89.9971 335.889 90.1646 335.755 90.2987C335.621 90.4327 335.487 90.5668 335.319 90.6673C335.152 90.7679 334.984 90.8349 334.783 90.9019C334.582 90.8684 334.381 90.9019 334.18 90.9019Z" fill="black"/>
<path d="M289.574 90.8017L291.618 86.177H288.938V85.4062H292.691V86.1435L290.546 90.8352H289.574V90.8017Z" fill="black"/>
<path d="M278.146 77.8989C277.777 77.8989 277.476 77.8319 277.208 77.7314C276.939 77.5973 276.705 77.4298 276.537 77.1952C276.37 76.9606 276.303 76.6925 276.303 76.3574C276.303 76.0558 276.37 75.7877 276.537 75.5531C276.705 75.3185 276.939 75.1174 277.208 74.9834C276.671 74.6818 276.403 74.2461 276.403 73.7434C276.403 73.3078 276.571 72.9392 276.872 72.7046C277.208 72.4365 277.61 72.3359 278.112 72.3359C278.649 72.3359 279.084 72.47 279.386 72.7381C279.687 73.0062 279.855 73.3748 279.855 73.8105C279.855 74.3467 279.587 74.7823 279.051 75.0169C279.319 75.1509 279.52 75.352 279.687 75.5866C279.855 75.8547 279.956 76.1228 279.956 76.3909C279.956 76.6925 279.855 76.9941 279.687 77.2287C279.52 77.4633 279.285 77.6308 279.017 77.7649C278.783 77.8654 278.481 77.8989 278.146 77.8989ZM278.146 77.0947C278.414 77.0947 278.649 77.0276 278.783 76.8936C278.95 76.7595 279.017 76.5585 279.017 76.2904C279.017 76.0893 278.95 75.8882 278.783 75.6871C278.615 75.4861 278.414 75.3855 278.179 75.3185C277.911 75.3855 277.71 75.4861 277.543 75.6871C277.375 75.8547 277.275 76.0893 277.275 76.3239C277.275 76.5585 277.342 76.7595 277.509 76.8936C277.643 77.0276 277.878 77.0947 278.146 77.0947ZM278.146 74.6483C278.38 74.5812 278.582 74.4807 278.716 74.3132C278.85 74.1791 278.917 73.978 278.917 73.777C278.917 73.5759 278.85 73.4418 278.682 73.3413C278.548 73.2408 278.347 73.1737 278.112 73.1737C277.878 73.1737 277.677 73.2408 277.543 73.3413C277.409 73.4418 277.342 73.6094 277.342 73.844C277.342 74.0451 277.409 74.2126 277.543 74.3802C277.71 74.4472 277.878 74.5812 278.146 74.6483Z" fill="black"/>
<path d="M273.054 33.6298V32.8925H274.026V29.2062C273.657 29.3738 273.322 29.5078 272.953 29.6419V28.7706C273.322 28.67 273.724 28.469 274.126 28.2344H274.964V32.9261H275.936V33.6633H273.054V33.6298Z" fill="black"/>
<path d="M279.086 33.7307C278.483 33.7307 278.014 33.4626 277.678 32.9599C277.343 32.4572 277.176 31.7535 277.176 30.8821C277.176 30.0108 277.343 29.3406 277.678 28.8379C278.014 28.3687 278.483 28.1006 279.086 28.1006C279.689 28.1006 280.158 28.3352 280.494 28.8379C280.829 29.3406 280.996 30.0108 280.996 30.8486C280.996 31.4183 280.929 31.921 280.795 32.3232C280.661 32.7588 280.426 33.0604 280.158 33.3285C279.823 33.5966 279.488 33.7307 279.086 33.7307ZM279.086 32.8929C279.689 32.8929 280.024 32.2226 280.024 30.8486C280.024 30.5805 280.024 30.346 279.991 30.1114C279.957 29.8768 279.924 29.6757 279.857 29.5082C279.79 29.3071 279.689 29.173 279.555 29.0725C279.421 28.972 279.287 28.9049 279.12 28.9049C278.952 28.9049 278.784 28.972 278.65 29.0725C278.516 29.173 278.416 29.3406 278.349 29.5082C278.282 29.7092 278.215 29.9103 278.181 30.1114C278.148 30.346 278.148 30.5805 278.148 30.8486C278.148 31.1502 278.148 31.4183 278.181 31.6529C278.215 31.8875 278.248 32.0886 278.349 32.2897C278.416 32.4907 278.516 32.6248 278.65 32.7253C278.751 32.8594 278.918 32.8929 279.086 32.8929Z" fill="black"/>
<path d="M288.034 19.9905V19.2532H289.006V15.5669C288.637 15.7344 288.302 15.8685 287.934 16.0025V15.0977C288.302 14.9972 288.704 14.7961 289.107 14.5615H289.944V19.2532H290.916V19.9905H288.034Z" fill="black"/>
<path d="M292.794 19.9905V19.2532H293.766V15.5669C293.397 15.7344 293.062 15.8685 292.693 16.0025V15.0977C293.062 14.9972 293.464 14.7961 293.866 14.5615H294.704V19.2532H295.676V19.9905H292.794V19.9905Z" fill="black"/>
<path d="M312.829 55.1107C314.069 55.1107 315.075 54.1055 315.075 52.8654C315.075 51.6254 314.069 50.6201 312.829 50.6201C311.589 50.6201 310.584 51.6254 310.584 52.8654C310.584 54.1055 311.589 55.1107 312.829 55.1107Z" fill="url(#paint2_radial_0_180)"/>
<path d="M312.601 48.2727C313.134 48.2084 313.589 48.626 313.657 49.1916L316.613 73.6787L314.75 73.9036L311.794 49.4165C311.726 48.8509 312.069 48.3369 312.601 48.2727Z" fill="black"/>
<path d="M287.041 38.6326L286.92 38.8466L287.132 38.9714L318.073 57.1814C318.458 57.4147 318.879 57.1991 319.067 56.8914C319.271 56.5572 319.199 56.0848 318.837 55.8636L318.837 55.8636L318.833 55.8615L287.89 37.6506L287.671 37.5217L287.546 37.7427L287.041 38.6326Z" fill="#0E80A4" stroke="#0E80A4" stroke-width="0.5"/>
<path d="M312.831 54.4402C313.701 54.4402 314.406 53.735 314.406 52.8651C314.406 51.9952 313.701 51.29 312.831 51.29C311.961 51.29 311.256 51.9952 311.256 52.8651C311.256 53.735 311.961 54.4402 312.831 54.4402Z" fill="#0E80A4"/>
<path d="M313 103C340.614 103 363 80.6142 363 53C363 25.3858 340.614 3 313 3C285.386 3 263 25.3858 263 53C263 80.6142 285.386 103 313 103Z" stroke="#0E80A4" stroke-width="5" stroke-miterlimit="10"/>
<path d="M443.001 16.8066H442.666V20.7276H443.001V16.8066Z" fill="black"/>
<path d="M443.001 85.0039H442.666V88.9248H443.001V85.0039Z" fill="black"/>
<path d="M426.612 25.1207L426.902 24.9531L424.942 21.5576L424.652 21.7252L426.612 25.1207Z" fill="black"/>
<path d="M460.708 84.149L460.998 83.9814L459.038 80.586L458.747 80.7535L460.708 84.149Z" fill="black"/>
<path d="M414.905 36.9406L415.072 36.6504L411.677 34.6899L411.509 34.9801L414.905 36.9406Z" fill="black"/>
<path d="M473.983 71.0373L474.15 70.7471L470.755 68.7866L470.587 69.0768L473.983 71.0373Z" fill="black"/>
<path d="M410.694 52.6982H406.773V53.0334H410.694V52.6982Z" fill="black"/>
<path d="M478.892 52.6982H474.971V53.0334H478.892V52.6982Z" fill="black"/>
<path d="M415.086 69.0705L414.918 68.7803L411.522 70.7407L411.69 71.0309L415.086 69.0705Z" fill="black"/>
<path d="M474.134 34.9933L473.967 34.7031L470.571 36.6636L470.739 36.9538L474.134 34.9933Z" fill="black"/>
<path d="M426.902 80.7818L426.611 80.6143L424.651 84.0098L424.941 84.1773L426.902 80.7818Z" fill="black"/>
<path d="M461.013 21.7135L460.723 21.5459L458.762 24.9414L459.052 25.109L461.013 21.7135Z" fill="black"/>
<path d="M439.144 13.9602V13.2229H440.115V9.53661C439.747 9.70417 439.412 9.83822 439.043 9.97227V9.06744C439.412 8.96691 439.814 8.76583 440.216 8.53125H441.054V13.2229H442.026V13.9602H439.144Z" fill="black"/>
<path d="M445.007 8.46222C445.51 8.46222 445.912 8.62978 446.214 8.93139C446.515 9.233 446.649 9.66866 446.649 10.2384C446.649 10.3724 446.649 10.4729 446.616 10.5735C446.582 10.674 446.582 10.7746 446.549 10.8751C446.515 10.9756 446.482 11.0427 446.415 11.1432C446.348 11.2437 446.314 11.3107 446.281 11.3778C446.247 11.4448 446.18 11.5118 446.113 11.6124C446.046 11.7129 445.979 11.7799 445.946 11.8134C445.912 11.8469 445.845 11.914 445.745 12.0145L444.672 13.1539H446.649V13.9247H443.499V13.2544L445.074 11.5118C445.208 11.3778 445.275 11.2772 445.342 11.2102C445.376 11.1432 445.443 11.0762 445.544 10.9756C445.611 10.8751 445.678 10.7746 445.711 10.741C445.745 10.674 445.778 10.607 445.778 10.5065C445.812 10.4059 445.812 10.3389 445.812 10.2384C445.812 10.1713 445.812 10.0708 445.778 9.93675C445.745 9.80271 445.711 9.66866 445.678 9.60163C445.611 9.5011 445.577 9.43407 445.476 9.36705C445.409 9.30002 445.309 9.26651 445.242 9.26651C445.175 9.233 445.074 9.233 444.974 9.233C444.907 9.233 444.84 9.233 444.773 9.26651C444.706 9.26651 444.639 9.30002 444.572 9.30002C444.505 9.33354 444.438 9.33354 444.371 9.36705C444.304 9.40056 444.237 9.40056 444.17 9.43407C444.102 9.46758 444.069 9.5011 444.002 9.5011C443.935 9.53461 443.901 9.56812 443.868 9.56812C443.834 9.60163 443.801 9.60163 443.767 9.63514C443.734 9.66866 443.7 9.66866 443.7 9.66866H443.667L443.365 8.93139C443.399 8.93139 443.399 8.89788 443.432 8.86437C443.466 8.83086 443.533 8.79734 443.667 8.73032C443.801 8.6633 443.901 8.62978 444.035 8.56276C444.17 8.52925 444.337 8.46222 444.505 8.42871C444.639 8.46222 444.806 8.46222 445.007 8.46222Z" fill="black"/>
<path d="M442.63 97.5373C442.194 97.5373 441.825 97.4367 441.524 97.2021C441.222 96.9676 440.987 96.6659 440.853 96.2638C440.719 95.8616 440.652 95.3925 440.652 94.8563C440.652 94.4541 440.686 94.0855 440.786 93.7169C440.887 93.3818 441.021 93.0466 441.189 92.7785C441.356 92.5104 441.591 92.3094 441.892 92.1418C442.16 91.9743 442.496 91.9072 442.831 91.9072C443.4 91.9072 443.87 92.0748 444.205 92.3764L443.903 93.0801C443.568 92.8121 443.233 92.7115 442.831 92.7115C442.496 92.7115 442.227 92.8791 441.993 93.1807C441.758 93.5158 441.658 93.918 441.624 94.3871C441.892 94.0185 442.261 93.8174 442.697 93.8174C443.233 93.8174 443.668 93.985 443.97 94.3201C444.272 94.6552 444.439 95.0909 444.439 95.6271C444.439 96.1633 444.272 96.5989 443.937 96.9675C443.601 97.3697 443.166 97.5373 442.63 97.5373ZM442.596 96.733C442.864 96.733 443.065 96.6324 443.233 96.4314C443.4 96.2303 443.467 95.9957 443.467 95.6941C443.467 95.3925 443.4 95.1244 443.233 94.9568C443.099 94.7558 442.864 94.6552 442.596 94.6552C442.294 94.6552 442.06 94.7558 441.892 94.9568C441.725 95.1579 441.624 95.3925 441.624 95.7276C441.624 95.8952 441.658 96.0292 441.691 96.1633C441.758 96.2973 441.825 96.3978 441.892 96.4984C441.993 96.5989 442.093 96.6324 442.194 96.6995C442.361 96.6995 442.496 96.733 442.596 96.733Z" fill="black"/>
<path d="M401.779 55.4793C401.377 55.4793 400.908 55.3453 400.372 55.1107L400.707 54.3399C401.042 54.541 401.343 54.675 401.679 54.675C401.846 54.675 402.014 54.6415 402.148 54.5745C402.282 54.5075 402.416 54.4069 402.55 54.3064C402.65 54.1724 402.751 54.0048 402.818 53.8037C402.885 53.6027 402.919 53.3346 402.919 53.0665V52.9659C402.684 53.301 402.315 53.4686 401.846 53.4686C401.31 53.4686 400.908 53.301 400.573 52.9659C400.271 52.6308 400.104 52.2287 400.104 51.6925C400.104 51.1563 400.271 50.7206 400.606 50.3855C400.941 50.0504 401.41 49.8828 401.947 49.8828C402.55 49.8828 403.019 50.1174 403.354 50.5531C403.689 50.9887 403.857 51.659 403.857 52.5303C403.857 53.1 403.79 53.6362 403.622 54.0718C403.455 54.5075 403.22 54.8761 402.919 55.1107C402.583 55.3788 402.215 55.4793 401.779 55.4793ZM401.913 52.6978C402.215 52.6978 402.449 52.5973 402.617 52.4297C402.784 52.2622 402.885 51.9941 402.885 51.6254C402.885 51.3573 402.818 51.1563 402.65 50.9552C402.483 50.7876 402.282 50.6871 401.98 50.6871C401.679 50.6871 401.478 50.7876 401.276 50.9552C401.109 51.1563 401.008 51.3909 401.008 51.6925C401.008 51.9941 401.075 52.2287 401.243 52.3962C401.41 52.5973 401.645 52.6978 401.913 52.6978Z" fill="black"/>
<path d="M484.117 55.5133C483.916 55.5133 483.715 55.5133 483.514 55.4797C483.313 55.4462 483.179 55.4127 483.045 55.3792C482.911 55.3457 482.81 55.2787 482.71 55.2452C482.609 55.2116 482.542 55.1446 482.509 55.1446L482.442 55.1111L482.743 54.4074C482.777 54.4409 482.844 54.4744 482.944 54.5079C483.045 54.5414 483.179 54.6084 483.414 54.6754C483.615 54.7425 483.816 54.776 484.017 54.776C484.352 54.776 484.62 54.709 484.788 54.5414C484.955 54.3738 485.056 54.1728 485.056 53.9047C485.056 53.6366 484.922 53.402 484.687 53.2679C484.452 53.1339 484.117 53.0669 483.682 53.0669H483.548H483.313V52.2626H483.581C484.05 52.2626 484.385 52.1955 484.587 52.0615C484.788 51.9275 484.888 51.7264 484.888 51.3913C484.888 51.1902 484.788 51.0226 484.62 50.9221C484.419 50.8216 484.218 50.7545 483.983 50.7545C483.883 50.7545 483.749 50.7545 483.648 50.788C483.548 50.8216 483.447 50.8216 483.347 50.8551C483.246 50.8886 483.179 50.9221 483.146 50.9556C483.079 50.9891 483.045 51.0226 482.978 51.0561C482.911 51.0896 482.877 51.1232 482.844 51.1232L482.408 50.4529C482.71 50.2519 482.944 50.1178 483.179 50.0508C483.414 49.9837 483.715 49.9502 484.084 49.9502C484.318 49.9502 484.52 49.9837 484.721 50.0508C484.922 50.1178 485.123 50.1848 485.29 50.3189C485.458 50.4194 485.592 50.587 485.692 50.7545C485.793 50.9221 485.826 51.1567 485.826 51.3913C485.826 51.5923 485.793 51.7599 485.726 51.9275C485.659 52.095 485.558 52.2626 485.391 52.3966C485.223 52.5307 485.056 52.6312 484.821 52.6647C485.19 52.7317 485.458 52.8658 485.659 53.1339C485.86 53.3685 485.961 53.6701 485.961 53.9717C485.961 54.2063 485.927 54.4409 485.826 54.6419C485.726 54.843 485.592 55.0106 485.424 55.1446C485.257 55.2787 485.056 55.3792 484.855 55.4462C484.587 55.4797 484.352 55.5133 484.117 55.5133Z" fill="black"/>
<path d="M462.806 20.4257V19.6885H463.777V16.0021C463.409 16.1697 463.074 16.3037 462.705 16.4378V15.5665C463.074 15.4659 463.476 15.2649 463.878 15.0303H464.716V19.722H465.688V20.4592H462.806V20.4257Z" fill="black"/>
<path d="M477.382 27.8655C477.885 27.8655 478.287 28.0331 478.589 28.3347C478.89 28.6363 479.024 29.072 479.024 29.6417C479.024 29.7757 479.024 29.8763 478.991 29.9768C478.957 30.0773 478.957 30.1779 478.924 30.2784C478.89 30.3789 478.857 30.446 478.79 30.5465C478.723 30.647 478.689 30.7141 478.656 30.7811C478.622 30.8481 478.555 30.9151 478.488 31.0157C478.421 31.1162 478.354 31.1832 478.321 31.2167C478.287 31.2503 478.22 31.3173 478.12 31.4178L477.047 32.5572H479.024V33.328H475.874V32.6578L477.449 30.9151C477.583 30.7811 477.65 30.6806 477.717 30.6135C477.751 30.5465 477.818 30.4795 477.919 30.3789C477.986 30.2784 478.053 30.1779 478.086 30.1444C478.12 30.0773 478.153 30.0103 478.153 29.9098C478.187 29.8092 478.187 29.7422 478.187 29.6417C478.187 29.5747 478.187 29.4741 478.153 29.3401C478.12 29.206 478.086 29.072 478.053 29.005C477.986 28.9044 477.952 28.8374 477.851 28.7704C477.784 28.7033 477.684 28.6698 477.617 28.6698C477.55 28.6363 477.449 28.6363 477.349 28.6363C477.282 28.6363 477.215 28.6363 477.148 28.6698C477.081 28.6698 477.014 28.7033 476.947 28.7033C476.88 28.7369 476.813 28.7369 476.746 28.7704C476.679 28.8039 476.612 28.8039 476.545 28.8374C476.478 28.8709 476.444 28.9044 476.377 28.9044C476.31 28.9379 476.276 28.9714 476.243 28.9714C476.209 29.005 476.176 29.005 476.142 29.0385C476.109 29.072 476.075 29.072 476.075 29.072H476.042L475.74 28.3347C475.774 28.3347 475.774 28.3012 475.807 28.2677C475.841 28.2342 475.908 28.2007 476.042 28.1336C476.176 28.0666 476.276 28.0331 476.41 27.9661C476.545 27.9326 476.712 27.8655 476.88 27.832C477.014 27.8991 477.181 27.8655 477.382 27.8655Z" fill="black"/>
<path d="M478.121 77.7314V76.3239H475.842V75.6201L478.02 72.3359H479.092V75.5866H479.93V76.3239H479.092V77.7314H478.121ZM476.847 75.5531H478.121V73.5089C478.054 73.6094 477.651 74.2796 476.847 75.5531Z" fill="black"/>
<path d="M464.18 90.9019C463.878 90.9019 463.577 90.8349 463.275 90.7008C462.973 90.5668 462.705 90.3992 462.471 90.1647L462.973 89.4609C463.141 89.662 463.342 89.8295 463.543 89.9301C463.744 90.0306 463.979 90.0976 464.18 90.0976C464.448 90.0976 464.682 89.9971 464.884 89.8295C465.085 89.662 465.185 89.3939 465.185 89.0587C465.185 88.7907 465.118 88.5561 464.984 88.3885C464.85 88.1874 464.682 88.1204 464.448 88.1204C464.146 88.1204 463.945 88.1874 463.811 88.355L462.873 88.2209V85.4395H465.889V86.2437H463.711L463.677 87.6177C463.845 87.3832 464.18 87.2826 464.649 87.2826C465.051 87.2826 465.42 87.4502 465.721 87.8188C466.023 88.1539 466.157 88.5896 466.157 89.1258C466.157 89.3604 466.124 89.5949 466.056 89.796C465.989 89.9971 465.889 90.1646 465.755 90.2987C465.621 90.4327 465.487 90.5668 465.319 90.6673C465.152 90.7679 464.984 90.8349 464.783 90.9019C464.582 90.8684 464.381 90.9019 464.18 90.9019Z" fill="black"/>
<path d="M419.574 90.8017L421.618 86.177H418.938V85.4062H422.691V86.1435L420.546 90.8352H419.574V90.8017Z" fill="black"/>
<path d="M408.146 77.8989C407.777 77.8989 407.476 77.8319 407.208 77.7314C406.939 77.5973 406.705 77.4298 406.537 77.1952C406.37 76.9606 406.303 76.6925 406.303 76.3574C406.303 76.0558 406.37 75.7877 406.537 75.5531C406.705 75.3185 406.939 75.1174 407.208 74.9834C406.671 74.6818 406.403 74.2461 406.403 73.7434C406.403 73.3078 406.571 72.9392 406.872 72.7046C407.208 72.4365 407.61 72.3359 408.112 72.3359C408.649 72.3359 409.084 72.47 409.386 72.7381C409.687 73.0062 409.855 73.3748 409.855 73.8105C409.855 74.3467 409.587 74.7823 409.051 75.0169C409.319 75.1509 409.52 75.352 409.687 75.5866C409.855 75.8547 409.956 76.1228 409.956 76.3909C409.956 76.6925 409.855 76.9941 409.687 77.2287C409.52 77.4633 409.285 77.6308 409.017 77.7649C408.783 77.8654 408.481 77.8989 408.146 77.8989ZM408.146 77.0947C408.414 77.0947 408.649 77.0276 408.783 76.8936C408.95 76.7595 409.017 76.5585 409.017 76.2904C409.017 76.0893 408.95 75.8882 408.783 75.6871C408.615 75.4861 408.414 75.3855 408.179 75.3185C407.911 75.3855 407.71 75.4861 407.543 75.6871C407.375 75.8547 407.275 76.0893 407.275 76.3239C407.275 76.5585 407.342 76.7595 407.509 76.8936C407.643 77.0276 407.878 77.0947 408.146 77.0947ZM408.146 74.6483C408.38 74.5812 408.582 74.4807 408.716 74.3132C408.85 74.1791 408.917 73.978 408.917 73.777C408.917 73.5759 408.85 73.4418 408.682 73.3413C408.548 73.2408 408.347 73.1737 408.112 73.1737C407.878 73.1737 407.677 73.2408 407.543 73.3413C407.409 73.4418 407.342 73.6094 407.342 73.844C407.342 74.0451 407.409 74.2126 407.543 74.3802C407.71 74.4472 407.878 74.5812 408.146 74.6483Z" fill="black"/>
<path d="M403.054 33.6298V32.8925H404.026V29.2062C403.657 29.3738 403.322 29.5078 402.953 29.6419V28.7706C403.322 28.67 403.724 28.469 404.126 28.2344H404.964V32.9261H405.936V33.6633H403.054V33.6298Z" fill="black"/>
<path d="M409.086 33.7307C408.483 33.7307 408.014 33.4626 407.679 32.9599C407.343 32.4572 407.176 31.7535 407.176 30.8821C407.176 30.0108 407.343 29.3406 407.679 28.8379C408.014 28.3687 408.483 28.1006 409.086 28.1006C409.689 28.1006 410.158 28.3352 410.494 28.8379C410.829 29.3406 410.996 30.0108 410.996 30.8486C410.996 31.4183 410.929 31.921 410.795 32.3232C410.661 32.7588 410.427 33.0604 410.158 33.3285C409.823 33.5966 409.488 33.7307 409.086 33.7307ZM409.086 32.8929C409.689 32.8929 410.024 32.2226 410.024 30.8486C410.024 30.5805 410.024 30.346 409.991 30.1114C409.957 29.8768 409.924 29.6757 409.857 29.5082C409.79 29.3071 409.689 29.173 409.555 29.0725C409.421 28.972 409.287 28.9049 409.12 28.9049C408.952 28.9049 408.784 28.972 408.65 29.0725C408.516 29.173 408.416 29.3406 408.349 29.5082C408.282 29.7092 408.215 29.9103 408.181 30.1114C408.148 30.346 408.148 30.5805 408.148 30.8486C408.148 31.1502 408.148 31.4183 408.181 31.6529C408.215 31.8875 408.248 32.0886 408.349 32.2897C408.416 32.4907 408.516 32.6248 408.65 32.7253C408.751 32.8594 408.918 32.8929 409.086 32.8929Z" fill="black"/>
<path d="M418.034 19.9905V19.2532H419.006V15.5669C418.637 15.7344 418.302 15.8685 417.934 16.0025V15.0977C418.302 14.9972 418.704 14.7961 419.107 14.5615H419.944V19.2532H420.916V19.9905H418.034Z" fill="black"/>
<path d="M422.794 19.9905V19.2532H423.766V15.5669C423.397 15.7344 423.062 15.8685 422.693 16.0025V15.0977C423.062 14.9972 423.464 14.7961 423.866 14.5615H424.704V19.2532H425.676V19.9905H422.794Z" fill="black"/>
<path d="M442.829 55.1107C444.069 55.1107 445.075 54.1055 445.075 52.8654C445.075 51.6254 444.069 50.6201 442.829 50.6201C441.589 50.6201 440.584 51.6254 440.584 52.8654C440.584 54.1055 441.589 55.1107 442.829 55.1107Z" fill="url(#paint3_radial_0_180)"/>
<path d="M442.563 57.9596C442.027 57.9596 441.625 57.4904 441.625 56.9207V32.2559H443.502V56.9207C443.502 57.4904 443.1 57.9596 442.563 57.9596Z" fill="black"/>
<path d="M444.115 82.7756L444.361 82.7644L444.353 82.5184L443.291 46.6318C443.284 46.1823 442.877 45.9406 442.517 45.9453C442.125 45.9504 441.764 46.2631 441.769 46.6874L441.769 46.6874L441.769 46.6915L442.832 82.5799L442.839 82.8338L443.093 82.8223L444.115 82.7756Z" fill="#0E80A4" stroke="#0E80A4" stroke-width="0.5"/>
<path d="M442.831 54.4402C443.701 54.4402 444.406 53.735 444.406 52.8651C444.406 51.9952 443.701 51.29 442.831 51.29C441.961 51.29 441.256 51.9952 441.256 52.8651C441.256 53.735 441.961 54.4402 442.831 54.4402Z" fill="#0E80A4"/>
<path d="M443 103C470.614 103 493 80.6142 493 53C493 25.3858 470.614 3 443 3C415.386 3 393 25.3858 393 53C393 80.6142 415.386 103 443 103Z" stroke="#0E80A4" stroke-width="5" stroke-miterlimit="10"/>
<defs>
<radialGradient id="paint0_radial_0_180" cx="0" cy="0" r="1" gradientUnits="userSpaceOnUse" gradientTransform="translate(52.8293 52.8549) scale(2.23489)">
<stop/>
<stop offset="0.3022" stop-color="#050505"/>
<stop offset="0.6568" stop-color="#131312"/>
<stop offset="1" stop-color="#282826"/>
</radialGradient>
<radialGradient id="paint1_radial_0_180" cx="0" cy="0" r="1" gradientUnits="userSpaceOnUse" gradientTransform="translate(182.829 52.8549) scale(2.23489)">
<stop/>
<stop offset="0.3022" stop-color="#050505"/>
<stop offset="0.6568" stop-color="#131312"/>
<stop offset="1" stop-color="#282826"/>
</radialGradient>
<radialGradient id="paint2_radial_0_180" cx="0" cy="0" r="1" gradientUnits="userSpaceOnUse" gradientTransform="translate(312.829 52.8549) scale(2.23489)">
<stop/>
<stop offset="0.3022" stop-color="#050505"/>
<stop offset="0.6568" stop-color="#131312"/>
<stop offset="1" stop-color="#282826"/>
</radialGradient>
<radialGradient id="paint3_radial_0_180" cx="0" cy="0" r="1" gradientUnits="userSpaceOnUse" gradientTransform="translate(442.829 52.8549) scale(2.23489)">
<stop/>
<stop offset="0.3022" stop-color="#050505"/>
<stop offset="0.6568" stop-color="#131312"/>
<stop offset="1" stop-color="#282826"/>
</radialGradient>
</defs>
</svg>
