<svg width="369" height="221" viewBox="0 0 369 221" fill="none" xmlns="http://www.w3.org/2000/svg">
<rect x="0.5" y="0.5" width="184" height="44" fill="#68C2D0" stroke="#CCCCCC"/>
<path d="M71.2743 25.6H66.0743L65.0823 28H62.4263L67.4183 16.8H69.9783L74.9863 28H72.2663L71.2743 25.6ZM70.4583 23.632L68.6823 19.344L66.9063 23.632H70.4583ZM81.2043 19.264C82.271 19.264 83.1296 19.584 83.7803 20.224C84.4416 20.864 84.7723 21.8133 84.7723 23.072V28H82.2763V23.456C82.2763 22.7733 82.127 22.2667 81.8283 21.936C81.5296 21.5947 81.0976 21.424 80.5323 21.424C79.903 21.424 79.4016 21.6213 79.0283 22.016C78.655 22.4 78.4683 22.976 78.4683 23.744V28H75.9723V19.392H78.3563V20.4C78.687 20.0373 79.0976 19.76 79.5883 19.568C80.079 19.3653 80.6176 19.264 81.2043 19.264ZM87.0348 19.392H89.5308V28H87.0348V19.392ZM88.2828 18.192C87.8241 18.192 87.4508 18.0587 87.1628 17.792C86.8748 17.5253 86.7308 17.1947 86.7308 16.8C86.7308 16.4053 86.8748 16.0747 87.1628 15.808C87.4508 15.5413 87.8241 15.408 88.2828 15.408C88.7415 15.408 89.1148 15.536 89.4028 15.792C89.6908 16.048 89.8348 16.368 89.8348 16.752C89.8348 17.168 89.6908 17.5147 89.4028 17.792C89.1148 18.0587 88.7415 18.192 88.2828 18.192ZM102.871 19.264C103.949 19.264 104.802 19.584 105.431 20.224C106.071 20.8533 106.391 21.8027 106.391 23.072V28H103.895V23.456C103.895 22.7733 103.751 22.2667 103.463 21.936C103.186 21.5947 102.786 21.424 102.263 21.424C101.677 21.424 101.213 21.616 100.871 22C100.53 22.3733 100.359 22.9333 100.359 23.68V28H97.8633V23.456C97.8633 22.1013 97.3193 21.424 96.2313 21.424C95.6553 21.424 95.1966 21.616 94.8553 22C94.514 22.3733 94.3433 22.9333 94.3433 23.68V28H91.8473V19.392H94.2313V20.384C94.5513 20.0213 94.9406 19.744 95.3993 19.552C95.8686 19.36 96.3806 19.264 96.9353 19.264C97.5433 19.264 98.0926 19.3867 98.5833 19.632C99.074 19.8667 99.4686 20.2133 99.7673 20.672C100.119 20.224 100.562 19.8773 101.095 19.632C101.639 19.3867 102.231 19.264 102.871 19.264ZM112.101 19.264C113.434 19.264 114.458 19.584 115.173 20.224C115.887 20.8533 116.245 21.808 116.245 23.088V28H113.909V26.928C113.439 27.728 112.565 28.128 111.285 28.128C110.623 28.128 110.047 28.016 109.557 27.792C109.077 27.568 108.709 27.2587 108.453 26.864C108.197 26.4693 108.069 26.0213 108.069 25.52C108.069 24.72 108.367 24.0907 108.965 23.632C109.573 23.1733 110.506 22.944 111.765 22.944H113.749C113.749 22.4 113.583 21.984 113.253 21.696C112.922 21.3973 112.426 21.248 111.765 21.248C111.306 21.248 110.853 21.3227 110.405 21.472C109.967 21.6107 109.594 21.8027 109.285 22.048L108.389 20.304C108.858 19.9733 109.418 19.7173 110.069 19.536C110.73 19.3547 111.407 19.264 112.101 19.264ZM111.909 26.448C112.335 26.448 112.714 26.352 113.045 26.16C113.375 25.9573 113.61 25.664 113.749 25.28V24.4H112.037C111.013 24.4 110.501 24.736 110.501 25.408C110.501 25.728 110.623 25.984 110.869 26.176C111.125 26.3573 111.471 26.448 111.909 26.448ZM118.504 16.128H121V28H118.504V16.128Z" fill="white"/>
<rect x="184.5" y="0.5" width="184" height="44" fill="#68C2D0" stroke="#CCCCCC"/>
<path d="M253.741 16.55V27.75H251.613L246.029 20.95V27.75H243.469V16.55H245.613L251.181 23.35V16.55H253.741ZM264.887 19.142V27.75H262.519V26.726C262.188 27.0993 261.793 27.3873 261.335 27.59C260.876 27.782 260.38 27.878 259.847 27.878C258.716 27.878 257.82 27.5527 257.159 26.902C256.497 26.2513 256.167 25.286 256.167 24.006V19.142H258.663V23.638C258.663 25.0247 259.244 25.718 260.407 25.718C261.004 25.718 261.484 25.526 261.847 25.142C262.209 24.7473 262.391 24.166 262.391 23.398V19.142H264.887ZM278.223 19.014C279.3 19.014 280.154 19.334 280.783 19.974C281.423 20.6033 281.743 21.5527 281.743 22.822V27.75H279.247V23.206C279.247 22.5233 279.103 22.0167 278.815 21.686C278.538 21.3447 278.138 21.174 277.615 21.174C277.028 21.174 276.564 21.366 276.223 21.75C275.882 22.1233 275.711 22.6833 275.711 23.43V27.75H273.215V23.206C273.215 21.8513 272.671 21.174 271.583 21.174C271.007 21.174 270.548 21.366 270.207 21.75C269.866 22.1233 269.695 22.6833 269.695 23.43V27.75H267.199V19.142H269.583V20.134C269.903 19.7713 270.292 19.494 270.751 19.302C271.22 19.11 271.732 19.014 272.287 19.014C272.895 19.014 273.444 19.1367 273.935 19.382C274.426 19.6167 274.82 19.9633 275.119 20.422C275.471 19.974 275.914 19.6273 276.447 19.382C276.991 19.1367 277.583 19.014 278.223 19.014ZM289.068 19.014C289.868 19.014 290.593 19.2007 291.244 19.574C291.905 19.9367 292.423 20.454 292.796 21.126C293.169 21.7873 293.356 22.5607 293.356 23.446C293.356 24.3313 293.169 25.11 292.796 25.782C292.423 26.4433 291.905 26.9607 291.244 27.334C290.593 27.6967 289.868 27.878 289.068 27.878C287.884 27.878 286.983 27.5047 286.364 26.758V27.75H283.98V15.878H286.476V20.054C287.105 19.3607 287.969 19.014 289.068 19.014ZM288.636 25.83C289.276 25.83 289.799 25.6167 290.204 25.19C290.62 24.7527 290.828 24.1713 290.828 23.446C290.828 22.7207 290.62 22.1447 290.204 21.718C289.799 21.2807 289.276 21.062 288.636 21.062C287.996 21.062 287.468 21.2807 287.052 21.718C286.647 22.1447 286.444 22.7207 286.444 23.446C286.444 24.1713 286.647 24.7527 287.052 25.19C287.468 25.6167 287.996 25.83 288.636 25.83ZM303.459 23.478C303.459 23.51 303.443 23.734 303.411 24.15H296.899C297.016 24.6833 297.294 25.1047 297.731 25.414C298.168 25.7233 298.712 25.878 299.363 25.878C299.811 25.878 300.206 25.814 300.547 25.686C300.899 25.5473 301.224 25.334 301.523 25.046L302.851 26.486C302.04 27.414 300.856 27.878 299.299 27.878C298.328 27.878 297.47 27.6913 296.723 27.318C295.976 26.934 295.4 26.406 294.995 25.734C294.59 25.062 294.387 24.2993 294.387 23.446C294.387 22.6033 294.584 21.846 294.979 21.174C295.384 20.4913 295.934 19.9633 296.627 19.59C297.331 19.206 298.115 19.014 298.979 19.014C299.822 19.014 300.584 19.1953 301.267 19.558C301.95 19.9207 302.483 20.4433 302.867 21.126C303.262 21.798 303.459 22.582 303.459 23.478ZM298.995 20.902C298.43 20.902 297.955 21.062 297.571 21.382C297.187 21.702 296.952 22.1393 296.867 22.694H301.107C301.022 22.15 300.787 21.718 300.403 21.398C300.019 21.0673 299.55 20.902 298.995 20.902ZM307.505 20.278C307.803 19.862 308.203 19.5473 308.705 19.334C309.217 19.1207 309.803 19.014 310.465 19.014V21.318C310.187 21.2967 310.001 21.286 309.905 21.286C309.19 21.286 308.63 21.4887 308.225 21.894C307.819 22.2887 307.617 22.886 307.617 23.686V27.75H305.121V19.142H307.505V20.278Z" fill="white"/>
<rect x="0.5" y="44.5" width="184" height="44" fill="white" stroke="#CCCCCC"/>
<path d="M71.7592 72.16C70.8952 72.16 70.0579 72.0373 69.2472 71.792C68.4472 71.5467 67.8125 71.2213 67.3432 70.816L68.0632 69.2C68.5219 69.5627 69.0819 69.8613 69.7432 70.096C70.4152 70.32 71.0872 70.432 71.7592 70.432C72.5912 70.432 73.2099 70.2987 73.6152 70.032C74.0312 69.7653 74.2392 69.4133 74.2392 68.976C74.2392 68.656 74.1219 68.3947 73.8872 68.192C73.6632 67.9787 73.3752 67.8133 73.0232 67.696C72.6712 67.5787 72.1912 67.4453 71.5832 67.296C70.7299 67.0933 70.0365 66.8907 69.5032 66.688C68.9805 66.4853 68.5272 66.1707 68.1432 65.744C67.7699 65.3067 67.5832 64.72 67.5832 63.984C67.5832 63.3653 67.7485 62.8053 68.0792 62.304C68.4205 61.792 68.9272 61.3867 69.5992 61.088C70.2819 60.7893 71.1139 60.64 72.0952 60.64C72.7779 60.64 73.4499 60.7253 74.1112 60.896C74.7725 61.0667 75.3432 61.312 75.8232 61.632L75.1672 63.248C74.6765 62.96 74.1645 62.7413 73.6312 62.592C73.0979 62.4427 72.5805 62.368 72.0792 62.368C71.2579 62.368 70.6445 62.5067 70.2392 62.784C69.8445 63.0613 69.6472 63.4293 69.6472 63.888C69.6472 64.208 69.7592 64.4693 69.9832 64.672C70.2179 64.8747 70.5112 65.0347 70.8632 65.152C71.2152 65.2693 71.6952 65.4027 72.3032 65.552C73.1352 65.744 73.8179 65.9467 74.3512 66.16C74.8845 66.3627 75.3379 66.6773 75.7112 67.104C76.0952 67.5307 76.2872 68.1067 76.2872 68.832C76.2872 69.4507 76.1165 70.0107 75.7752 70.512C75.4445 71.0133 74.9379 71.4133 74.2552 71.712C73.5725 72.0107 72.7405 72.16 71.7592 72.16ZM83.0057 63.36C84.083 63.36 84.947 63.6747 85.5977 64.304C86.2484 64.9333 86.5737 65.8667 86.5737 67.104V72H84.5737V67.36C84.5737 66.6133 84.3977 66.0533 84.0457 65.68C83.6937 65.296 83.1924 65.104 82.5417 65.104C81.8057 65.104 81.2244 65.328 80.7977 65.776C80.371 66.2133 80.1577 66.848 80.1577 67.68V72H78.1577V60.128H80.1577V64.448C80.4884 64.096 80.8937 63.8293 81.3737 63.648C81.8644 63.456 82.4084 63.36 83.0057 63.36ZM97.221 67.776C97.221 67.9147 97.2103 68.112 97.189 68.368H90.485C90.6023 68.9973 90.9063 69.4987 91.397 69.872C91.8983 70.2347 92.517 70.416 93.253 70.416C94.1916 70.416 94.965 70.1067 95.573 69.488L96.645 70.72C96.261 71.1787 95.7756 71.5253 95.189 71.76C94.6023 71.9947 93.941 72.112 93.205 72.112C92.2663 72.112 91.4396 71.9253 90.725 71.552C90.0103 71.1787 89.4556 70.6613 89.061 70C88.677 69.328 88.485 68.5707 88.485 67.728C88.485 66.896 88.6716 66.1493 89.045 65.488C89.429 64.816 89.957 64.2933 90.629 63.92C91.301 63.5467 92.0583 63.36 92.901 63.36C93.733 63.36 94.4743 63.5467 95.125 63.92C95.7863 64.2827 96.2983 64.8 96.661 65.472C97.0343 66.1333 97.221 66.9013 97.221 67.776ZM92.901 64.96C92.261 64.96 91.717 65.152 91.269 65.536C90.8316 65.9093 90.565 66.4107 90.469 67.04H95.317C95.2316 66.4213 94.9703 65.92 94.533 65.536C94.0956 65.152 93.5516 64.96 92.901 64.96ZM107.174 67.776C107.174 67.9147 107.163 68.112 107.142 68.368H100.438C100.555 68.9973 100.859 69.4987 101.35 69.872C101.851 70.2347 102.47 70.416 103.206 70.416C104.145 70.416 104.918 70.1067 105.526 69.488L106.598 70.72C106.214 71.1787 105.729 71.5253 105.142 71.76C104.555 71.9947 103.894 72.112 103.158 72.112C102.219 72.112 101.393 71.9253 100.678 71.552C99.9634 71.1787 99.4087 70.6613 99.0141 70C98.6301 69.328 98.4381 68.5707 98.4381 67.728C98.4381 66.896 98.6247 66.1493 98.9981 65.488C99.3821 64.816 99.9101 64.2933 100.582 63.92C101.254 63.5467 102.011 63.36 102.854 63.36C103.686 63.36 104.427 63.5467 105.078 63.92C105.739 64.2827 106.251 64.8 106.614 65.472C106.987 66.1333 107.174 66.9013 107.174 67.776ZM102.854 64.96C102.214 64.96 101.67 65.152 101.222 65.536C100.785 65.9093 100.518 66.4107 100.422 67.04H105.27C105.185 66.4213 104.923 65.92 104.486 65.536C104.049 65.152 103.505 64.96 102.854 64.96ZM113.831 63.36C114.663 63.36 115.405 63.5413 116.055 63.904C116.717 64.2667 117.234 64.7787 117.607 65.44C117.981 66.1013 118.167 66.864 118.167 67.728C118.167 68.592 117.981 69.36 117.607 70.032C117.234 70.6933 116.717 71.2053 116.055 71.568C115.405 71.9307 114.663 72.112 113.831 72.112C112.679 72.112 111.767 71.728 111.095 70.96V75.104H109.095V63.456H110.999V64.576C111.33 64.1707 111.735 63.8667 112.215 63.664C112.706 63.4613 113.245 63.36 113.831 63.36ZM113.607 70.4C114.343 70.4 114.946 70.1547 115.415 69.664C115.895 69.1733 116.135 68.528 116.135 67.728C116.135 66.928 115.895 66.2827 115.415 65.792C114.946 65.3013 114.343 65.056 113.607 65.056C113.127 65.056 112.695 65.168 112.311 65.392C111.927 65.6053 111.623 65.9147 111.399 66.32C111.175 66.7253 111.063 67.1947 111.063 67.728C111.063 68.2613 111.175 68.7307 111.399 69.136C111.623 69.5413 111.927 69.856 112.311 70.08C112.695 70.2933 113.127 70.4 113.607 70.4Z" fill="#2F2F2F"/>
<rect x="184.5" y="44.5" width="184" height="44" fill="white" stroke="#CCCCCC"/>
<rect x="246.5" y="47.5" width="60" height="37" rx="4.5" fill="white"/>
<path d="M281.165 59.4V60.624L276.071 72H274.163L279.149 60.966H273.389V63.216H271.661V59.4H281.165Z" fill="#2F2F2F"/>
<rect x="246.5" y="47.5" width="60" height="37" rx="4.5" stroke="#2F2F2F"/>
<rect x="0.5" y="88.5" width="184" height="44" fill="white" stroke="#CCCCCC"/>
<path d="M80.9399 104.8C81.9105 104.8 82.7532 104.96 83.4679 105.28C84.1932 105.6 84.7479 106.059 85.1319 106.656C85.5159 107.253 85.7079 107.963 85.7079 108.784C85.7079 109.595 85.5159 110.304 85.1319 110.912C84.7479 111.509 84.1932 111.968 83.4679 112.288C82.7532 112.608 81.9105 112.768 80.9399 112.768H78.4119V116H76.3319V104.8H80.9399ZM80.8439 111.008C81.7505 111.008 82.4385 110.816 82.9079 110.432C83.3772 110.048 83.6119 109.499 83.6119 108.784C83.6119 108.069 83.3772 107.52 82.9079 107.136C82.4385 106.752 81.7505 106.56 80.8439 106.56H78.4119V111.008H80.8439ZM87.5149 107.456H89.5149V116H87.5149V107.456ZM88.5229 106.048C88.1602 106.048 87.8562 105.936 87.6109 105.712C87.3655 105.477 87.2429 105.189 87.2429 104.848C87.2429 104.507 87.3655 104.224 87.6109 104C87.8562 103.765 88.1602 103.648 88.5229 103.648C88.8855 103.648 89.1895 103.76 89.4349 103.984C89.6802 104.197 89.8029 104.469 89.8029 104.8C89.8029 105.152 89.6802 105.451 89.4349 105.696C89.2002 105.931 88.8962 106.048 88.5229 106.048ZM100.62 107.456V114.704C100.62 117.712 99.0839 119.216 96.0119 119.216C95.1905 119.216 94.4119 119.109 93.6759 118.896C92.9399 118.693 92.3319 118.395 91.8519 118L92.7479 116.496C93.1212 116.805 93.5905 117.051 94.1559 117.232C94.7319 117.424 95.3132 117.52 95.8999 117.52C96.8385 117.52 97.5265 117.307 97.9639 116.88C98.4012 116.453 98.6199 115.803 98.6199 114.928V114.48C98.2785 114.853 97.8625 115.136 97.3719 115.328C96.8812 115.52 96.3425 115.616 95.7559 115.616C94.9452 115.616 94.2092 115.445 93.5479 115.104C92.8972 114.752 92.3799 114.261 91.9959 113.632C91.6225 113.003 91.4359 112.283 91.4359 111.472C91.4359 110.661 91.6225 109.947 91.9959 109.328C92.3799 108.699 92.8972 108.213 93.5479 107.872C94.2092 107.531 94.9452 107.36 95.7559 107.36C96.3745 107.36 96.9345 107.461 97.4359 107.664C97.9479 107.867 98.3745 108.176 98.7159 108.592V107.456H100.62ZM96.0599 113.92C96.8172 113.92 97.4359 113.696 97.9159 113.248C98.4065 112.789 98.6519 112.197 98.6519 111.472C98.6519 110.757 98.4065 110.176 97.9159 109.728C97.4359 109.28 96.8172 109.056 96.0599 109.056C95.2919 109.056 94.6625 109.28 94.1719 109.728C93.6919 110.176 93.4519 110.757 93.4519 111.472C93.4519 112.197 93.6919 112.789 94.1719 113.248C94.6625 113.696 95.2919 113.92 96.0599 113.92ZM105.889 116.112C105.196 116.112 104.519 116.021 103.857 115.84C103.196 115.659 102.668 115.429 102.273 115.152L103.041 113.632C103.425 113.888 103.884 114.096 104.417 114.256C104.961 114.405 105.495 114.48 106.017 114.48C107.212 114.48 107.809 114.165 107.809 113.536C107.809 113.237 107.655 113.029 107.345 112.912C107.047 112.795 106.561 112.683 105.889 112.576C105.185 112.469 104.609 112.347 104.161 112.208C103.724 112.069 103.34 111.829 103.009 111.488C102.689 111.136 102.529 110.651 102.529 110.032C102.529 109.221 102.865 108.576 103.537 108.096C104.22 107.605 105.137 107.36 106.289 107.36C106.876 107.36 107.463 107.429 108.049 107.568C108.636 107.696 109.116 107.872 109.489 108.096L108.721 109.616C107.996 109.189 107.18 108.976 106.273 108.976C105.687 108.976 105.239 109.067 104.929 109.248C104.631 109.419 104.481 109.648 104.481 109.936C104.481 110.256 104.641 110.485 104.961 110.624C105.292 110.752 105.799 110.875 106.481 110.992C107.164 111.099 107.724 111.221 108.161 111.36C108.599 111.499 108.972 111.733 109.281 112.064C109.601 112.395 109.761 112.864 109.761 113.472C109.761 114.272 109.415 114.912 108.721 115.392C108.028 115.872 107.084 116.112 105.889 116.112Z" fill="#2F2F2F"/>
<rect x="184.5" y="88.5" width="184" height="44" fill="white" stroke="#CCCCCC"/>
<rect x="246.5" y="91.5" width="60" height="37" rx="4.5" fill="white"/>
<path d="M277.038 108.692C278.274 108.812 279.216 109.196 279.864 109.844C280.512 110.48 280.836 111.296 280.836 112.292C280.836 113.012 280.656 113.666 280.296 114.254C279.936 114.83 279.396 115.292 278.676 115.64C277.968 115.976 277.098 116.144 276.066 116.144C275.166 116.144 274.302 116.012 273.474 115.748C272.646 115.472 271.968 115.094 271.44 114.614L272.268 113.192C272.7 113.6 273.252 113.93 273.924 114.182C274.596 114.422 275.31 114.542 276.066 114.542C277.002 114.542 277.728 114.344 278.244 113.948C278.772 113.552 279.036 113.006 279.036 112.31C279.036 111.614 278.778 111.074 278.262 110.69C277.746 110.306 276.966 110.114 275.922 110.114H274.914V108.854L278.082 104.966H272.016V103.4H280.332V104.624L277.038 108.692Z" fill="#2F2F2F"/>
<rect x="246.5" y="91.5" width="60" height="37" rx="4.5" stroke="#2F2F2F"/>
<rect x="0.5" y="132.5" width="184" height="44" fill="white" stroke="#CCCCCC"/>
<path d="M78.3369 154.272H80.3049V158.736C79.7289 159.195 79.0569 159.547 78.2889 159.792C77.5209 160.037 76.7316 160.16 75.9209 160.16C74.7796 160.16 73.7502 159.915 72.8329 159.424C71.9156 158.923 71.1956 158.235 70.6729 157.36C70.1502 156.485 69.8889 155.499 69.8889 154.4C69.8889 153.301 70.1502 152.315 70.6729 151.44C71.1956 150.565 71.9156 149.883 72.8329 149.392C73.7609 148.891 74.8009 148.64 75.9529 148.64C76.8916 148.64 77.7449 148.795 78.5129 149.104C79.2809 149.413 79.9262 149.867 80.4489 150.464L79.1369 151.744C78.2836 150.891 77.2542 150.464 76.0489 150.464C75.2596 150.464 74.5556 150.629 73.9369 150.96C73.3289 151.291 72.8489 151.755 72.4969 152.352C72.1556 152.949 71.9849 153.632 71.9849 154.4C71.9849 155.147 72.1556 155.819 72.4969 156.416C72.8489 157.013 73.3289 157.483 73.9369 157.824C74.5556 158.165 75.2542 158.336 76.0329 158.336C76.9076 158.336 77.6756 158.144 78.3369 157.76V154.272ZM86.6963 160.112C85.8323 160.112 85.0536 159.925 84.3603 159.552C83.6669 159.179 83.1229 158.661 82.7283 158C82.3443 157.328 82.1523 156.571 82.1523 155.728C82.1523 154.885 82.3443 154.133 82.7283 153.472C83.1229 152.811 83.6669 152.293 84.3603 151.92C85.0536 151.547 85.8323 151.36 86.6963 151.36C87.5709 151.36 88.3549 151.547 89.0483 151.92C89.7416 152.293 90.2803 152.811 90.6643 153.472C91.0589 154.133 91.2563 154.885 91.2563 155.728C91.2563 156.571 91.0589 157.328 90.6643 158C90.2803 158.661 89.7416 159.179 89.0483 159.552C88.3549 159.925 87.5709 160.112 86.6963 160.112ZM86.6963 158.4C87.4323 158.4 88.0403 158.155 88.5203 157.664C89.0003 157.173 89.2403 156.528 89.2403 155.728C89.2403 154.928 89.0003 154.283 88.5203 153.792C88.0403 153.301 87.4323 153.056 86.6963 153.056C85.9603 153.056 85.3523 153.301 84.8723 153.792C84.4029 154.283 84.1683 154.928 84.1683 155.728C84.1683 156.528 84.4029 157.173 84.8723 157.664C85.3523 158.155 85.9603 158.4 86.6963 158.4ZM96.3234 151.36C97.5821 151.36 98.5421 151.664 99.2034 152.272C99.8754 152.869 100.211 153.776 100.211 154.992V160H98.3234V158.96C98.0781 159.333 97.7261 159.621 97.2674 159.824C96.8194 160.016 96.2754 160.112 95.6354 160.112C94.9954 160.112 94.4354 160.005 93.9554 159.792C93.4754 159.568 93.1021 159.264 92.8354 158.88C92.5794 158.485 92.4514 158.043 92.4514 157.552C92.4514 156.784 92.7341 156.171 93.2994 155.712C93.8754 155.243 94.7767 155.008 96.0034 155.008H98.2114V154.88C98.2114 154.283 98.0301 153.824 97.6674 153.504C97.3154 153.184 96.7874 153.024 96.0834 153.024C95.6034 153.024 95.1287 153.099 94.6594 153.248C94.2007 153.397 93.8114 153.605 93.4914 153.872L92.7074 152.416C93.1554 152.075 93.6941 151.813 94.3234 151.632C94.9527 151.451 95.6194 151.36 96.3234 151.36ZM96.0514 158.656C96.5527 158.656 96.9954 158.544 97.3794 158.32C97.7741 158.085 98.0514 157.755 98.2114 157.328V156.336H96.1474C94.9954 156.336 94.4194 156.715 94.4194 157.472C94.4194 157.835 94.5634 158.123 94.8514 158.336C95.1394 158.549 95.5394 158.656 96.0514 158.656ZM107.914 159.536C107.679 159.728 107.391 159.872 107.05 159.968C106.719 160.064 106.367 160.112 105.994 160.112C105.055 160.112 104.33 159.867 103.818 159.376C103.306 158.885 103.05 158.171 103.05 157.232V153.12H101.642V151.52H103.05V149.568H105.05V151.52H107.338V153.12H105.05V157.184C105.05 157.6 105.151 157.92 105.354 158.144C105.557 158.357 105.85 158.464 106.234 158.464C106.682 158.464 107.055 158.347 107.354 158.112L107.914 159.536ZM112.199 160.112C111.506 160.112 110.829 160.021 110.167 159.84C109.506 159.659 108.978 159.429 108.583 159.152L109.351 157.632C109.735 157.888 110.194 158.096 110.727 158.256C111.271 158.405 111.805 158.48 112.327 158.48C113.522 158.48 114.119 158.165 114.119 157.536C114.119 157.237 113.965 157.029 113.655 156.912C113.357 156.795 112.871 156.683 112.199 156.576C111.495 156.469 110.919 156.347 110.471 156.208C110.034 156.069 109.65 155.829 109.319 155.488C108.999 155.136 108.839 154.651 108.839 154.032C108.839 153.221 109.175 152.576 109.847 152.096C110.53 151.605 111.447 151.36 112.599 151.36C113.186 151.36 113.773 151.429 114.359 151.568C114.946 151.696 115.426 151.872 115.799 152.096L115.031 153.616C114.306 153.189 113.49 152.976 112.583 152.976C111.997 152.976 111.549 153.067 111.239 153.248C110.941 153.419 110.791 153.648 110.791 153.936C110.791 154.256 110.951 154.485 111.271 154.624C111.602 154.752 112.109 154.875 112.791 154.992C113.474 155.099 114.034 155.221 114.471 155.36C114.909 155.499 115.282 155.733 115.591 156.064C115.911 156.395 116.071 156.864 116.071 157.472C116.071 158.272 115.725 158.912 115.031 159.392C114.338 159.872 113.394 160.112 112.199 160.112Z" fill="#2F2F2F"/>
<rect x="184.5" y="132.5" width="184" height="44" fill="white" stroke="#CCCCCC"/>
<rect x="246.5" y="136.5" width="60" height="37" rx="4.5" fill="white"/>
<path d="M282.305 157.904H279.911V161H278.165V157.904H271.163V156.644L277.607 148.4H279.551L273.377 156.356H278.219V153.62H279.911V156.356H282.305V157.904Z" fill="#2F2F2F"/>
<rect x="246.5" y="136.5" width="60" height="37" rx="4.5" stroke="#2F2F2F"/>
<rect x="0.5" y="176.5" width="184" height="44" fill="white" stroke="#CCCCCC"/>
<path d="M77.412 204.16C76.2813 204.16 75.2573 203.915 74.34 203.424C73.4333 202.923 72.7186 202.235 72.196 201.36C71.684 200.485 71.428 199.499 71.428 198.4C71.428 197.301 71.6893 196.315 72.212 195.44C72.7346 194.565 73.4493 193.883 74.356 193.392C75.2733 192.891 76.2973 192.64 77.428 192.64C78.3453 192.64 79.1826 192.8 79.94 193.12C80.6973 193.44 81.3373 193.904 81.86 194.512L80.516 195.776C79.7053 194.901 78.708 194.464 77.524 194.464C76.756 194.464 76.068 194.635 75.46 194.976C74.852 195.307 74.3773 195.771 74.036 196.368C73.6946 196.965 73.524 197.643 73.524 198.4C73.524 199.157 73.6946 199.835 74.036 200.432C74.3773 201.029 74.852 201.499 75.46 201.84C76.068 202.171 76.756 202.336 77.524 202.336C78.708 202.336 79.7053 201.893 80.516 201.008L81.86 202.288C81.3373 202.896 80.692 203.36 79.924 203.68C79.1666 204 78.3293 204.16 77.412 204.16ZM87.1885 204.112C86.3245 204.112 85.5458 203.925 84.8525 203.552C84.1591 203.179 83.6151 202.661 83.2205 202C82.8365 201.328 82.6445 200.571 82.6445 199.728C82.6445 198.885 82.8365 198.133 83.2205 197.472C83.6151 196.811 84.1591 196.293 84.8525 195.92C85.5458 195.547 86.3245 195.36 87.1885 195.36C88.0631 195.36 88.8471 195.547 89.5405 195.92C90.2338 196.293 90.7725 196.811 91.1565 197.472C91.5511 198.133 91.7485 198.885 91.7485 199.728C91.7485 200.571 91.5511 201.328 91.1565 202C90.7725 202.661 90.2338 203.179 89.5405 203.552C88.8471 203.925 88.0631 204.112 87.1885 204.112ZM87.1885 202.4C87.9245 202.4 88.5325 202.155 89.0125 201.664C89.4925 201.173 89.7325 200.528 89.7325 199.728C89.7325 198.928 89.4925 198.283 89.0125 197.792C88.5325 197.301 87.9245 197.056 87.1885 197.056C86.4525 197.056 85.8445 197.301 85.3645 197.792C84.8951 198.283 84.6605 198.928 84.6605 199.728C84.6605 200.528 84.8951 201.173 85.3645 201.664C85.8445 202.155 86.4525 202.4 87.1885 202.4ZM106.755 195.456L103.603 204H101.683L99.4746 198.112L97.2346 204H95.3146L92.1786 195.456H94.0666L96.3226 201.76L98.6746 195.456H100.355L102.659 201.792L104.979 195.456H106.755ZM110.66 204.112C109.967 204.112 109.29 204.021 108.628 203.84C107.967 203.659 107.439 203.429 107.044 203.152L107.812 201.632C108.196 201.888 108.655 202.096 109.188 202.256C109.732 202.405 110.266 202.48 110.788 202.48C111.983 202.48 112.58 202.165 112.58 201.536C112.58 201.237 112.426 201.029 112.116 200.912C111.818 200.795 111.332 200.683 110.66 200.576C109.956 200.469 109.38 200.347 108.932 200.208C108.495 200.069 108.111 199.829 107.78 199.488C107.46 199.136 107.3 198.651 107.3 198.032C107.3 197.221 107.636 196.576 108.308 196.096C108.991 195.605 109.908 195.36 111.06 195.36C111.647 195.36 112.234 195.429 112.82 195.568C113.407 195.696 113.887 195.872 114.26 196.096L113.492 197.616C112.767 197.189 111.951 196.976 111.044 196.976C110.458 196.976 110.01 197.067 109.7 197.248C109.402 197.419 109.252 197.648 109.252 197.936C109.252 198.256 109.412 198.485 109.732 198.624C110.063 198.752 110.57 198.875 111.252 198.992C111.935 199.099 112.495 199.221 112.932 199.36C113.37 199.499 113.743 199.733 114.052 200.064C114.372 200.395 114.532 200.864 114.532 201.472C114.532 202.272 114.186 202.912 113.492 203.392C112.799 203.872 111.855 204.112 110.66 204.112Z" fill="#2F2F2F"/>
<rect x="184.5" y="176.5" width="184" height="44" fill="white" stroke="#CCCCCC"/>
<rect x="246.5" y="180.5" width="60" height="37" rx="4.5" fill="white"/>
<path d="M281.052 203.434V205H271.998V203.776L277.128 198.826C277.752 198.226 278.172 197.71 278.388 197.278C278.604 196.834 278.712 196.39 278.712 195.946C278.712 195.286 278.478 194.776 278.01 194.416C277.554 194.044 276.894 193.858 276.03 193.858C274.638 193.858 273.564 194.314 272.808 195.226L271.584 194.164C272.076 193.564 272.718 193.096 273.51 192.76C274.314 192.424 275.208 192.256 276.192 192.256C277.512 192.256 278.562 192.574 279.342 193.21C280.122 193.834 280.512 194.686 280.512 195.766C280.512 196.438 280.368 197.074 280.08 197.674C279.792 198.274 279.246 198.958 278.442 199.726L274.59 203.434H281.052Z" fill="#2F2F2F"/>
<rect x="246.5" y="180.5" width="60" height="37" rx="4.5" stroke="#2F2F2F"/>
</svg>
