<svg width="570" height="45" viewBox="0 0 570 45" fill="none" xmlns="http://www.w3.org/2000/svg">
<path d="M0 5C0 2.23858 2.23858 0 5 0H165C167.761 0 170 2.23858 170 5V40C170 42.7614 167.761 45 165 45H5C2.23858 45 0 42.7614 0 40V5Z" fill="#369CB7"/>
<path d="M83.9973 26.934V28.5H74.9433V27.276L80.0733 22.326C80.6973 21.726 81.1173 21.21 81.3333 20.778C81.5493 20.334 81.6573 19.89 81.6573 19.446C81.6573 18.786 81.4233 18.276 80.9553 17.916C80.4993 17.544 79.8393 17.358 78.9753 17.358C77.5833 17.358 76.5093 17.814 75.7533 18.726L74.5293 17.664C75.0213 17.064 75.6633 16.596 76.4553 16.26C77.2593 15.924 78.1533 15.756 79.1373 15.756C80.4573 15.756 81.5073 16.074 82.2873 16.71C83.0673 17.334 83.4573 18.186 83.4573 19.266C83.4573 19.938 83.3133 20.574 83.0253 21.174C82.7373 21.774 82.1913 22.458 81.3873 23.226L77.5353 26.934H83.9973ZM89.5633 15.756C91.2553 15.756 92.5573 16.302 93.4693 17.394C94.3933 18.486 94.8553 20.034 94.8553 22.038C94.8553 23.442 94.6033 24.642 94.0993 25.638C93.6073 26.622 92.9113 27.372 92.0113 27.888C91.1233 28.392 90.0853 28.644 88.8973 28.644C88.2853 28.644 87.7093 28.584 87.1693 28.464C86.6293 28.332 86.1613 28.146 85.7653 27.906L86.4493 26.502C87.0613 26.898 87.8713 27.096 88.8793 27.096C90.1873 27.096 91.2073 26.694 91.9393 25.89C92.6833 25.074 93.0553 23.892 93.0553 22.344V21.894C92.6953 22.434 92.1973 22.848 91.5613 23.136C90.9253 23.412 90.2113 23.55 89.4193 23.55C88.5913 23.55 87.8473 23.394 87.1873 23.082C86.5393 22.77 86.0293 22.326 85.6573 21.75C85.2973 21.162 85.1173 20.49 85.1173 19.734C85.1173 18.942 85.3093 18.246 85.6933 17.646C86.0893 17.046 86.6233 16.584 87.2953 16.26C87.9673 15.924 88.7233 15.756 89.5633 15.756ZM89.7253 22.092C90.2893 22.092 90.7933 21.984 91.2373 21.768C91.6813 21.552 92.0233 21.258 92.2633 20.886C92.5153 20.514 92.6413 20.1 92.6413 19.644C92.6413 19.2 92.5213 18.798 92.2813 18.438C92.0533 18.066 91.7113 17.772 91.2553 17.556C90.8113 17.328 90.2713 17.214 89.6353 17.214C88.8073 17.214 88.1353 17.436 87.6193 17.88C87.1153 18.324 86.8633 18.918 86.8633 19.662C86.8633 20.406 87.1213 21 87.6373 21.444C88.1533 21.876 88.8493 22.092 89.7253 22.092Z" fill="white"/>
<path d="M5 1H165V-1H5V1ZM169 5V40H171V5H169ZM165 44H5V46H165V44ZM1 40V5H-1V40H1ZM5 44C2.79086 44 1 42.2091 1 40H-1C-1 43.3137 1.6863 46 5 46V44ZM169 40C169 42.2091 167.209 44 165 44V46C168.314 46 171 43.3137 171 40H169ZM165 1C167.209 1 169 2.79086 169 5H171C171 1.68629 168.314 -1 165 -1V1ZM5 -1C1.68629 -1 -1 1.68629 -1 5H1C1 2.79086 2.79086 1 5 1V-1Z" fill="#369CB7"/>
<path d="M282.207 21.192C283.443 21.312 284.385 21.696 285.033 22.344C285.681 22.98 286.005 23.796 286.005 24.792C286.005 25.512 285.825 26.166 285.465 26.754C285.105 27.33 284.565 27.792 283.845 28.14C283.137 28.476 282.267 28.644 281.235 28.644C280.335 28.644 279.471 28.512 278.643 28.248C277.815 27.972 277.137 27.594 276.609 27.114L277.437 25.692C277.869 26.1 278.421 26.43 279.093 26.682C279.765 26.922 280.479 27.042 281.235 27.042C282.171 27.042 282.897 26.844 283.413 26.448C283.941 26.052 284.205 25.506 284.205 24.81C284.205 24.114 283.947 23.574 283.431 23.19C282.915 22.806 282.135 22.614 281.091 22.614H280.083V21.354L283.251 17.466H277.185V15.9H285.501V17.124L282.207 21.192ZM291.589 15.9V28.5H289.807V17.466H286.963V15.9H291.589Z" fill="#2F2F2F"/>
<path d="M205 1H365V-1H205V1ZM369 5V40H371V5H369ZM365 44H205V46H365V44ZM201 40V5H199V40H201ZM205 44C202.791 44 201 42.2091 201 40H199C199 43.3137 201.686 46 205 46V44ZM369 40C369 42.2091 367.209 44 365 44V46C368.314 46 371 43.3137 371 40H369ZM365 1C367.209 1 369 2.79086 369 5H371C371 1.68629 368.314 -1 365 -1V1ZM205 -1C201.686 -1 199 1.68629 199 5H201C201 2.79086 202.791 1 205 1V-1Z" fill="#2F2F2F"/>
<path d="M486.221 26.934V28.5H477.167V27.276L482.297 22.326C482.921 21.726 483.341 21.21 483.557 20.778C483.773 20.334 483.881 19.89 483.881 19.446C483.881 18.786 483.647 18.276 483.179 17.916C482.723 17.544 482.063 17.358 481.199 17.358C479.807 17.358 478.733 17.814 477.977 18.726L476.753 17.664C477.245 17.064 477.887 16.596 478.679 16.26C479.483 15.924 480.377 15.756 481.361 15.756C482.681 15.756 483.731 16.074 484.511 16.71C485.291 17.334 485.681 18.186 485.681 19.266C485.681 19.938 485.537 20.574 485.249 21.174C484.961 21.774 484.415 22.458 483.611 23.226L479.759 26.934H486.221ZM491.607 15.9V28.5H489.825V17.466H486.981V15.9H491.607Z" fill="#2F2F2F"/>
<path d="M405 1H565V-1H405V1ZM569 5V40H571V5H569ZM565 44H405V46H565V44ZM401 40V5H399V40H401ZM405 44C402.791 44 401 42.2091 401 40H399C399 43.3137 401.686 46 405 46V44ZM569 40C569 42.2091 567.209 44 565 44V46C568.314 46 571 43.3137 571 40H569ZM565 1C567.209 1 569 2.79086 569 5H571C571 1.68629 568.314 -1 565 -1V1ZM405 -1C401.686 -1 399 1.68629 399 5H401C401 2.79086 402.791 1 405 1V-1Z" fill="#2F2F2F"/>
</svg>
