<svg width="445" height="30" viewBox="0 0 445 30" fill="none" xmlns="http://www.w3.org/2000/svg">
<path d="M25.5376 13.692C26.7736 13.812 27.7156 14.196 28.3636 14.844C29.0116 15.48 29.3356 16.296 29.3356 17.292C29.3356 18.012 29.1556 18.666 28.7956 19.254C28.4356 19.83 27.8956 20.292 27.1756 20.64C26.4676 20.976 25.5976 21.144 24.5656 21.144C23.6656 21.144 22.8016 21.012 21.9736 20.748C21.1456 20.472 20.4676 20.094 19.9396 19.614L20.7676 18.192C21.1996 18.6 21.7516 18.93 22.4236 19.182C23.0956 19.422 23.8096 19.542 24.5656 19.542C25.5016 19.542 26.2276 19.344 26.7436 18.948C27.2716 18.552 27.5356 18.006 27.5356 17.31C27.5356 16.614 27.2776 16.074 26.7616 15.69C26.2456 15.306 25.4656 15.114 24.4216 15.114H23.4136V13.854L26.5816 9.966H20.5156V8.4H28.8316V9.624L25.5376 13.692Z" fill="#2F2F2F"/>
<path d="M5 1H45V-1H5V1ZM49 5V25H51V5H49ZM45 29H5V31H45V29ZM1 25V5H-1V25H1ZM5 29C2.79086 29 1 27.2091 1 25H-1C-1 28.3137 1.68629 31 5 31V29ZM49 25C49 27.2091 47.2091 29 45 29V31C48.3137 31 51 28.3137 51 25H49ZM45 1C47.2091 1 49 2.79086 49 5H51C51 1.68629 48.3137 -1 45 -1V1ZM5 -1C1.68629 -1 -1 1.68629 -1 5H1C1 2.79086 2.79086 1 5 1V-1Z" fill="#2F2F2F"/>
<path d="M68.5317 15.42H65.2557V18.642H63.7437V15.42H60.4677V13.998H63.7437V10.758H65.2557V13.998H68.5317V15.42Z" fill="#2F2F2F"/>
<path d="M104.538 13.692C105.774 13.812 106.716 14.196 107.364 14.844C108.012 15.48 108.336 16.296 108.336 17.292C108.336 18.012 108.156 18.666 107.796 19.254C107.436 19.83 106.896 20.292 106.176 20.64C105.468 20.976 104.598 21.144 103.566 21.144C102.666 21.144 101.802 21.012 100.974 20.748C100.146 20.472 99.4676 20.094 98.9396 19.614L99.7676 18.192C100.2 18.6 100.752 18.93 101.424 19.182C102.096 19.422 102.81 19.542 103.566 19.542C104.502 19.542 105.228 19.344 105.744 18.948C106.272 18.552 106.536 18.006 106.536 17.31C106.536 16.614 106.278 16.074 105.762 15.69C105.246 15.306 104.466 15.114 103.422 15.114H102.414V13.854L105.582 9.966H99.5156V8.4H107.832V9.624L104.538 13.692Z" fill="#2F2F2F"/>
<path d="M84 1H124V-1H84V1ZM128 5V25H130V5H128ZM124 29H84V31H124V29ZM80 25V5H78V25H80ZM84 29C81.7909 29 80 27.2091 80 25H78C78 28.3137 80.6863 31 84 31V29ZM128 25C128 27.2091 126.209 29 124 29V31C127.314 31 130 28.3137 130 25H128ZM124 1C126.209 1 128 2.79086 128 5H130C130 1.68629 127.314 -1 124 -1V1ZM84 -1C80.6863 -1 78 1.68629 78 5H80C80 2.79086 81.7909 1 84 1V-1Z" fill="#2F2F2F"/>
<path d="M147.532 15.42H144.256V18.642H142.744V15.42H139.468V13.998H142.744V10.758H144.256V13.998H147.532V15.42Z" fill="#2F2F2F"/>
<path d="M183.538 13.692C184.774 13.812 185.716 14.196 186.364 14.844C187.012 15.48 187.336 16.296 187.336 17.292C187.336 18.012 187.156 18.666 186.796 19.254C186.436 19.83 185.896 20.292 185.176 20.64C184.468 20.976 183.598 21.144 182.566 21.144C181.666 21.144 180.802 21.012 179.974 20.748C179.146 20.472 178.468 20.094 177.94 19.614L178.768 18.192C179.2 18.6 179.752 18.93 180.424 19.182C181.096 19.422 181.81 19.542 182.566 19.542C183.502 19.542 184.228 19.344 184.744 18.948C185.272 18.552 185.536 18.006 185.536 17.31C185.536 16.614 185.278 16.074 184.762 15.69C184.246 15.306 183.466 15.114 182.422 15.114H181.414V13.854L184.582 9.966H178.516V8.4H186.832V9.624L183.538 13.692Z" fill="#2F2F2F"/>
<path d="M163 1H203V-1H163V1ZM207 5V25H209V5H207ZM203 29H163V31H203V29ZM159 25V5H157V25H159ZM163 29C160.791 29 159 27.2091 159 25H157C157 28.3137 159.686 31 163 31V29ZM207 25C207 27.2091 205.209 29 203 29V31C206.314 31 209 28.3137 209 25H207ZM203 1C205.209 1 207 2.79086 207 5H209C209 1.68629 206.314 -1 203 -1V1ZM163 -1C159.686 -1 157 1.68629 157 5H159C159 2.79086 160.791 1 163 1V-1Z" fill="#2F2F2F"/>
<path d="M226.532 15.42H223.256V18.642H221.744V15.42H218.468V13.998H221.744V10.758H223.256V13.998H226.532V15.42Z" fill="#2F2F2F"/>
<path d="M262.538 13.692C263.774 13.812 264.716 14.196 265.364 14.844C266.012 15.48 266.336 16.296 266.336 17.292C266.336 18.012 266.156 18.666 265.796 19.254C265.436 19.83 264.896 20.292 264.176 20.64C263.468 20.976 262.598 21.144 261.566 21.144C260.666 21.144 259.802 21.012 258.974 20.748C258.146 20.472 257.468 20.094 256.94 19.614L257.768 18.192C258.2 18.6 258.752 18.93 259.424 19.182C260.096 19.422 260.81 19.542 261.566 19.542C262.502 19.542 263.228 19.344 263.744 18.948C264.272 18.552 264.536 18.006 264.536 17.31C264.536 16.614 264.278 16.074 263.762 15.69C263.246 15.306 262.466 15.114 261.422 15.114H260.414V13.854L263.582 9.966H257.516V8.4H265.832V9.624L262.538 13.692Z" fill="#2F2F2F"/>
<path d="M242 1H282V-1H242V1ZM286 5V25H288V5H286ZM282 29H242V31H282V29ZM238 25V5H236V25H238ZM242 29C239.791 29 238 27.2091 238 25H236C236 28.3137 238.686 31 242 31V29ZM286 25C286 27.2091 284.209 29 282 29V31C285.314 31 288 28.3137 288 25H286ZM282 1C284.209 1 286 2.79086 286 5H288C288 1.68629 285.314 -1 282 -1V1ZM242 -1C238.686 -1 236 1.68629 236 5H238C238 2.79086 239.791 1 242 1V-1Z" fill="#2F2F2F"/>
<path d="M305.532 15.42H302.256V18.642H300.744V15.42H297.468V13.998H300.744V10.758H302.256V13.998H305.532V15.42Z" fill="#2F2F2F"/>
<path d="M341.538 13.692C342.774 13.812 343.716 14.196 344.364 14.844C345.012 15.48 345.336 16.296 345.336 17.292C345.336 18.012 345.156 18.666 344.796 19.254C344.436 19.83 343.896 20.292 343.176 20.64C342.468 20.976 341.598 21.144 340.566 21.144C339.666 21.144 338.802 21.012 337.974 20.748C337.146 20.472 336.468 20.094 335.94 19.614L336.768 18.192C337.2 18.6 337.752 18.93 338.424 19.182C339.096 19.422 339.81 19.542 340.566 19.542C341.502 19.542 342.228 19.344 342.744 18.948C343.272 18.552 343.536 18.006 343.536 17.31C343.536 16.614 343.278 16.074 342.762 15.69C342.246 15.306 341.466 15.114 340.422 15.114H339.414V13.854L342.582 9.966H336.516V8.4H344.832V9.624L341.538 13.692Z" fill="#2F2F2F"/>
<path d="M321 1H361V-1H321V1ZM365 5V25H367V5H365ZM361 29H321V31H361V29ZM317 25V5H315V25H317ZM321 29C318.791 29 317 27.2091 317 25H315C315 28.3137 317.686 31 321 31V29ZM365 25C365 27.2091 363.209 29 361 29V31C364.314 31 367 28.3137 367 25H365ZM361 1C363.209 1 365 2.79086 365 5H367C367 1.68629 364.314 -1 361 -1V1ZM321 -1C317.686 -1 315 1.68629 315 5H317C317 2.79086 318.791 1 321 1V-1Z" fill="#2F2F2F"/>
<path d="M376.468 11.856H384.532V13.278H376.468V11.856ZM376.468 16.122H384.532V17.544H376.468V16.122Z" fill="#2F2F2F"/>
<path d="M416.271 8.4V21H414.489V9.966H411.645V8.4H416.271ZM422.627 13.422C424.427 13.422 425.747 13.764 426.587 14.448C427.439 15.12 427.865 16.044 427.865 17.22C427.865 17.964 427.685 18.636 427.325 19.236C426.977 19.824 426.443 20.292 425.723 20.64C425.015 20.976 424.139 21.144 423.095 21.144C422.207 21.144 421.349 21.012 420.521 20.748C419.693 20.472 419.009 20.094 418.469 19.614L419.297 18.192C419.729 18.6 420.281 18.93 420.953 19.182C421.625 19.422 422.333 19.542 423.077 19.542C424.025 19.542 424.757 19.344 425.273 18.948C425.801 18.54 426.065 17.988 426.065 17.292C426.065 16.536 425.777 15.966 425.201 15.582C424.625 15.186 423.641 14.988 422.249 14.988H419.387L420.053 8.4H427.163V9.966H421.565L421.223 13.422H422.627Z" fill="#2F2F2F"/>
<path d="M400 1H440V-1H400V1ZM444 5V25H446V5H444ZM440 29H400V31H440V29ZM396 25V5H394V25H396ZM400 29C397.791 29 396 27.2091 396 25H394C394 28.3137 396.686 31 400 31V29ZM444 25C444 27.2091 442.209 29 440 29V31C443.314 31 446 28.3137 446 25H444ZM440 1C442.209 1 444 2.79086 444 5H446C446 1.68629 443.314 -1 440 -1V1ZM400 -1C396.686 -1 394 1.68629 394 5H396C396 2.79086 397.791 1 400 1V-1Z" fill="#2F2F2F"/>
</svg>
