<svg width="370" height="190" viewBox="0 0 370 190" fill="none" xmlns="http://www.w3.org/2000/svg">
<path d="M24.979 49.958C38.7745 49.958 49.958 38.7745 49.958 24.979C49.958 11.1835 38.7745 0 24.979 0C11.1835 0 0 11.1835 0 24.979C0 38.7745 11.1835 49.958 24.979 49.958Z" fill="#66C5A8"/>
<path d="M33.3044 12.5738C31.9588 15.2651 33.5988 18.7975 36.963 20.4376C40.3271 22.0776 44.1118 21.2365 45.4155 18.5032C46.7611 15.8118 45.1211 12.2794 41.7569 10.6394C38.4348 8.99937 34.6501 9.88247 33.3044 12.5738Z" fill="#232224"/>
<path d="M35.8698 14.34C35.1549 15.8118 35.996 17.7042 37.7622 18.5873C39.5284 19.4704 41.5889 18.9657 42.3038 17.4939C43.0187 16.0221 42.1776 14.1298 40.4114 13.2467C38.6032 12.3636 36.5847 12.8682 35.8698 14.34Z" fill="#C29C97"/>
<path d="M16.6948 12.5738C18.0404 15.2651 16.4004 18.7975 13.0362 20.4376C9.67205 22.0776 5.88735 21.2365 4.58373 18.5032C3.23807 15.8118 4.8781 12.2794 8.24227 10.6394C11.5644 8.99937 15.3491 9.88247 16.6948 12.5738Z" fill="#232224"/>
<path d="M12.2203 18.6212C13.9915 17.7497 14.8371 15.8438 14.1091 14.3643C13.3811 12.8849 11.3551 12.3921 9.58393 13.2637C7.81277 14.1353 6.96713 16.0411 7.69514 17.5206C8.42316 19 10.4491 19.4928 12.2203 18.6212Z" fill="#C29C97"/>
<path d="M24.9791 44.8701C35.8018 44.8701 44.5754 37.5086 44.5754 28.4277C44.5754 19.3469 35.8018 11.9854 24.9791 11.9854C14.1564 11.9854 5.38281 19.3469 5.38281 28.4277C5.38281 37.5086 14.1564 44.8701 24.9791 44.8701Z" fill="white"/>
<path d="M27.7966 25.5675C26.0304 27.6281 26.8714 31.2445 29.6889 33.6415C32.5064 36.0385 36.207 36.2487 37.9732 34.1882C39.7394 32.0856 38.8983 28.4691 36.0808 26.1142C33.2634 23.7172 29.5628 23.5069 27.7966 25.5675Z" fill="black"/>
<path d="M22.2036 25.5675C23.9698 27.6701 23.1288 31.2866 20.3113 33.6415C17.4938 36.0385 13.7932 36.2487 12.027 34.1882C10.2608 32.0856 11.1019 28.4691 13.9194 26.1142C16.6948 23.7172 20.4374 23.5069 22.2036 25.5675Z" fill="black"/>
<path d="M18.419 32.422C19.5803 32.422 20.5216 31.4806 20.5216 30.3194C20.5216 29.1582 19.5803 28.2168 18.419 28.2168C17.2578 28.2168 16.3164 29.1582 16.3164 30.3194C16.3164 31.4806 17.2578 32.422 18.419 32.422Z" fill="white"/>
<path d="M19.6813 30.6981C19.6813 31.413 19.0926 31.9597 18.4198 31.9597C17.7049 31.9597 17.1582 31.3709 17.1582 30.6981C17.1582 29.9832 17.7469 29.4365 18.4198 29.4365C19.0926 29.4365 19.6813 30.0253 19.6813 30.6981Z" fill="#1F0C00"/>
<path d="M18.0405 30.1931C18.0405 30.4875 17.8302 30.6977 17.5359 30.6977C17.2415 30.6977 17.0312 30.4875 17.0312 30.1931C17.0312 29.8987 17.2415 29.6885 17.5359 29.6885C17.7882 29.6885 18.0405 29.9408 18.0405 30.1931Z" fill="white"/>
<path d="M18.6706 30.4457C18.6706 30.5718 18.5445 30.698 18.4183 30.698C18.2922 30.698 18.166 30.5718 18.166 30.4457C18.166 30.3195 18.2922 30.1934 18.4183 30.1934C18.5445 30.1934 18.6706 30.3195 18.6706 30.4457Z" fill="white"/>
<path d="M31.6241 32.422C32.7853 32.422 33.7267 31.4806 33.7267 30.3194C33.7267 29.1582 32.7853 28.2168 31.6241 28.2168C30.4629 28.2168 29.5215 29.1582 29.5215 30.3194C29.5215 31.4806 30.4629 32.422 31.6241 32.422Z" fill="white"/>
<path d="M32.9274 30.6981C32.9274 31.413 32.3387 31.9597 31.6659 31.9597C30.951 31.9597 30.4043 31.3709 30.4043 30.6981C30.4043 29.9832 30.993 29.4365 31.6659 29.4365C32.3387 29.4365 32.9274 30.0253 32.9274 30.6981Z" fill="#1F0C00"/>
<path d="M31.2456 30.1931C31.2456 30.4875 31.0353 30.6977 30.741 30.6977C30.4466 30.6977 30.2363 30.4875 30.2363 30.1931C30.2363 29.8987 30.4466 29.6885 30.741 29.6885C31.0353 29.6885 31.2456 29.9408 31.2456 30.1931Z" fill="white"/>
<path d="M31.8757 30.4457C31.8757 30.5718 31.7496 30.698 31.6234 30.698C31.4972 30.698 31.3711 30.5718 31.3711 30.4457C31.3711 30.3195 31.4972 30.1934 31.6234 30.1934C31.7916 30.1934 31.8757 30.3195 31.8757 30.4457Z" fill="white"/>
<path d="M24.9783 36.5858C26.4183 36.5858 27.5856 35.8328 27.5856 34.9038C27.5856 33.9748 26.4183 33.2217 24.9783 33.2217C23.5384 33.2217 22.3711 33.9748 22.3711 34.9038C22.3711 35.8328 23.5384 36.5858 24.9783 36.5858Z" fill="#422E31"/>
<path d="M24.8941 36.7104C24.8941 37.2991 24.9782 37.8879 24.3895 38.2243C23.8428 38.5607 23.0438 38.3505 22.5812 37.972C22.413 37.8038 22.1607 38.0561 22.3289 38.2243C22.8756 38.6869 23.7587 38.9392 24.4315 38.6028C25.2305 38.2243 25.2305 37.5515 25.2305 36.7525C25.2305 36.5002 24.8941 36.5002 24.8941 36.7104Z" fill="#422E31"/>
<path d="M24.8945 36.7114C24.8945 37.4263 25.1468 38.0991 25.7776 38.5196C26.4505 38.9402 27.2494 38.6037 27.7541 38.1412C27.9223 37.973 27.67 37.7627 27.5018 37.8889C27.0392 38.3094 26.4925 38.5196 25.9458 38.2253C25.3992 37.9309 25.2309 37.2581 25.2309 36.7114C25.2309 36.5011 24.8945 36.5011 24.8945 36.7114Z" fill="#422E31"/>
<path d="M25.062 37.3418C25.062 37.3418 25.0199 38.2669 24.0527 38.5193C24.0527 38.5193 25.062 40.2014 26.0292 38.4772C26.0712 38.4772 25.1881 38.0987 25.062 37.3418Z" fill="#422E31"/>
<path d="M104.979 49.958C118.774 49.958 129.958 38.7745 129.958 24.979C129.958 11.1835 118.774 0 104.979 0C91.1835 0 80 11.1835 80 24.979C80 38.7745 91.1835 49.958 104.979 49.958Z" fill="#66C5A8"/>
<path d="M113.304 12.5738C111.959 15.2651 113.599 18.7975 116.963 20.4376C120.327 22.0776 124.112 21.2365 125.415 18.5032C126.761 15.8118 125.121 12.2794 121.757 10.6394C118.435 8.99937 114.65 9.88247 113.304 12.5738Z" fill="#232224"/>
<path d="M115.87 14.34C115.155 15.8118 115.996 17.7042 117.762 18.5873C119.528 19.4704 121.589 18.9657 122.304 17.4939C123.019 16.0221 122.178 14.1298 120.411 13.2467C118.603 12.3636 116.585 12.8682 115.87 14.34Z" fill="#C29C97"/>
<path d="M96.6948 12.5738C98.0404 15.2651 96.4004 18.7975 93.0362 20.4376C89.672 22.0776 85.8874 21.2365 84.5837 18.5032C83.2381 15.8118 84.8781 12.2794 88.2423 10.6394C91.5644 8.99937 95.3491 9.88247 96.6948 12.5738Z" fill="#232224"/>
<path d="M92.2203 18.6212C93.9915 17.7497 94.8371 15.8438 94.1091 14.3643C93.3811 12.8849 91.3551 12.3921 89.5839 13.2637C87.8128 14.1353 86.9671 16.0411 87.6951 17.5206C88.4232 19 90.4491 19.4928 92.2203 18.6212Z" fill="#C29C97"/>
<path d="M104.979 44.8701C115.802 44.8701 124.575 37.5086 124.575 28.4277C124.575 19.3469 115.802 11.9854 104.979 11.9854C94.1564 11.9854 85.3828 19.3469 85.3828 28.4277C85.3828 37.5086 94.1564 44.8701 104.979 44.8701Z" fill="white"/>
<path d="M107.797 25.5675C106.03 27.6281 106.871 31.2445 109.689 33.6415C112.506 36.0385 116.207 36.2487 117.973 34.1882C119.739 32.0856 118.898 28.4691 116.081 26.1142C113.263 23.7172 109.563 23.5069 107.797 25.5675Z" fill="black"/>
<path d="M102.204 25.5675C103.97 27.6701 103.129 31.2866 100.311 33.6415C97.4938 36.0385 93.7932 36.2487 92.027 34.1882C90.2608 32.0856 91.1019 28.4691 93.9194 26.1142C96.6948 23.7172 100.437 23.5069 102.204 25.5675Z" fill="black"/>
<path d="M98.419 32.422C99.5803 32.422 100.522 31.4806 100.522 30.3194C100.522 29.1582 99.5803 28.2168 98.419 28.2168C97.2578 28.2168 96.3164 29.1582 96.3164 30.3194C96.3164 31.4806 97.2578 32.422 98.419 32.422Z" fill="white"/>
<path d="M99.6813 30.6981C99.6813 31.413 99.0926 31.9597 98.4198 31.9597C97.7049 31.9597 97.1582 31.3709 97.1582 30.6981C97.1582 29.9832 97.7469 29.4365 98.4198 29.4365C99.0926 29.4365 99.6813 30.0253 99.6813 30.6981Z" fill="#1F0C00"/>
<path d="M98.0405 30.1931C98.0405 30.4875 97.8302 30.6977 97.5359 30.6977C97.2415 30.6977 97.0312 30.4875 97.0312 30.1931C97.0312 29.8987 97.2415 29.6885 97.5359 29.6885C97.7882 29.6885 98.0405 29.9408 98.0405 30.1931Z" fill="white"/>
<path d="M98.6706 30.4457C98.6706 30.5718 98.5445 30.698 98.4183 30.698C98.2922 30.698 98.166 30.5718 98.166 30.4457C98.166 30.3195 98.2922 30.1934 98.4183 30.1934C98.5445 30.1934 98.6706 30.3195 98.6706 30.4457Z" fill="white"/>
<path d="M111.624 32.422C112.785 32.422 113.727 31.4806 113.727 30.3194C113.727 29.1582 112.785 28.2168 111.624 28.2168C110.463 28.2168 109.521 29.1582 109.521 30.3194C109.521 31.4806 110.463 32.422 111.624 32.422Z" fill="white"/>
<path d="M112.927 30.6981C112.927 31.413 112.339 31.9597 111.666 31.9597C110.951 31.9597 110.404 31.3709 110.404 30.6981C110.404 29.9832 110.993 29.4365 111.666 29.4365C112.339 29.4365 112.927 30.0253 112.927 30.6981Z" fill="#1F0C00"/>
<path d="M111.246 30.1931C111.246 30.4875 111.035 30.6977 110.741 30.6977C110.447 30.6977 110.236 30.4875 110.236 30.1931C110.236 29.8987 110.447 29.6885 110.741 29.6885C111.035 29.6885 111.246 29.9408 111.246 30.1931Z" fill="white"/>
<path d="M111.876 30.4457C111.876 30.5718 111.75 30.698 111.623 30.698C111.497 30.698 111.371 30.5718 111.371 30.4457C111.371 30.3195 111.497 30.1934 111.623 30.1934C111.792 30.1934 111.876 30.3195 111.876 30.4457Z" fill="white"/>
<path d="M104.978 36.5858C106.418 36.5858 107.586 35.8328 107.586 34.9038C107.586 33.9748 106.418 33.2217 104.978 33.2217C103.538 33.2217 102.371 33.9748 102.371 34.9038C102.371 35.8328 103.538 36.5858 104.978 36.5858Z" fill="#422E31"/>
<path d="M104.894 36.7104C104.894 37.2991 104.978 37.8879 104.389 38.2243C103.843 38.5607 103.044 38.3505 102.581 37.972C102.413 37.8038 102.161 38.0561 102.329 38.2243C102.876 38.6869 103.759 38.9392 104.432 38.6028C105.231 38.2243 105.231 37.5515 105.231 36.7525C105.231 36.5002 104.894 36.5002 104.894 36.7104Z" fill="#422E31"/>
<path d="M104.895 36.7114C104.895 37.4263 105.147 38.0991 105.778 38.5196C106.45 38.9402 107.249 38.6037 107.754 38.1412C107.922 37.973 107.67 37.7627 107.502 37.8889C107.039 38.3094 106.493 38.5196 105.946 38.2253C105.399 37.9309 105.231 37.2581 105.231 36.7114C105.231 36.5011 104.895 36.5011 104.895 36.7114Z" fill="#422E31"/>
<path d="M105.062 37.3418C105.062 37.3418 105.02 38.2669 104.053 38.5193C104.053 38.5193 105.062 40.2014 106.029 38.4772C106.071 38.4772 105.188 38.0987 105.062 37.3418Z" fill="#422E31"/>
<path d="M184.979 49.958C198.774 49.958 209.958 38.7745 209.958 24.979C209.958 11.1835 198.774 0 184.979 0C171.183 0 160 11.1835 160 24.979C160 38.7745 171.183 49.958 184.979 49.958Z" fill="#66C5A8"/>
<path d="M193.304 12.5738C191.959 15.2651 193.599 18.7975 196.963 20.4376C200.327 22.0776 204.112 21.2365 205.415 18.5032C206.761 15.8118 205.121 12.2794 201.757 10.6394C198.435 8.99937 194.65 9.88247 193.304 12.5738Z" fill="#232224"/>
<path d="M195.87 14.34C195.155 15.8118 195.996 17.7042 197.762 18.5873C199.528 19.4704 201.589 18.9657 202.304 17.4939C203.019 16.0221 202.178 14.1298 200.411 13.2467C198.603 12.3636 196.585 12.8682 195.87 14.34Z" fill="#C29C97"/>
<path d="M176.695 12.5738C178.04 15.2651 176.4 18.7975 173.036 20.4376C169.672 22.0776 165.887 21.2365 164.584 18.5032C163.238 15.8118 164.878 12.2794 168.242 10.6394C171.564 8.99937 175.349 9.88247 176.695 12.5738Z" fill="#232224"/>
<path d="M172.22 18.6212C173.991 17.7497 174.837 15.8438 174.109 14.3643C173.381 12.8849 171.355 12.3921 169.584 13.2637C167.813 14.1353 166.967 16.0411 167.695 17.5206C168.423 19 170.449 19.4928 172.22 18.6212Z" fill="#C29C97"/>
<path d="M184.979 44.8701C195.802 44.8701 204.575 37.5086 204.575 28.4277C204.575 19.3469 195.802 11.9854 184.979 11.9854C174.156 11.9854 165.383 19.3469 165.383 28.4277C165.383 37.5086 174.156 44.8701 184.979 44.8701Z" fill="white"/>
<path d="M187.797 25.5675C186.03 27.6281 186.871 31.2445 189.689 33.6415C192.506 36.0385 196.207 36.2487 197.973 34.1882C199.739 32.0856 198.898 28.4691 196.081 26.1142C193.263 23.7172 189.563 23.5069 187.797 25.5675Z" fill="black"/>
<path d="M182.204 25.5675C183.97 27.6701 183.129 31.2866 180.311 33.6415C177.494 36.0385 173.793 36.2487 172.027 34.1882C170.261 32.0856 171.102 28.4691 173.919 26.1142C176.695 23.7172 180.437 23.5069 182.204 25.5675Z" fill="black"/>
<path d="M178.419 32.422C179.58 32.422 180.522 31.4806 180.522 30.3194C180.522 29.1582 179.58 28.2168 178.419 28.2168C177.258 28.2168 176.316 29.1582 176.316 30.3194C176.316 31.4806 177.258 32.422 178.419 32.422Z" fill="white"/>
<path d="M179.681 30.6981C179.681 31.413 179.093 31.9597 178.42 31.9597C177.705 31.9597 177.158 31.3709 177.158 30.6981C177.158 29.9832 177.747 29.4365 178.42 29.4365C179.093 29.4365 179.681 30.0253 179.681 30.6981Z" fill="#1F0C00"/>
<path d="M178.041 30.1931C178.041 30.4875 177.83 30.6977 177.536 30.6977C177.242 30.6977 177.031 30.4875 177.031 30.1931C177.031 29.8987 177.242 29.6885 177.536 29.6885C177.788 29.6885 178.041 29.9408 178.041 30.1931Z" fill="white"/>
<path d="M178.671 30.4457C178.671 30.5718 178.544 30.698 178.418 30.698C178.292 30.698 178.166 30.5718 178.166 30.4457C178.166 30.3195 178.292 30.1934 178.418 30.1934C178.544 30.1934 178.671 30.3195 178.671 30.4457Z" fill="white"/>
<path d="M191.624 32.422C192.785 32.422 193.727 31.4806 193.727 30.3194C193.727 29.1582 192.785 28.2168 191.624 28.2168C190.463 28.2168 189.521 29.1582 189.521 30.3194C189.521 31.4806 190.463 32.422 191.624 32.422Z" fill="white"/>
<path d="M192.927 30.6981C192.927 31.413 192.339 31.9597 191.666 31.9597C190.951 31.9597 190.404 31.3709 190.404 30.6981C190.404 29.9832 190.993 29.4365 191.666 29.4365C192.339 29.4365 192.927 30.0253 192.927 30.6981Z" fill="#1F0C00"/>
<path d="M191.246 30.1931C191.246 30.4875 191.035 30.6977 190.741 30.6977C190.447 30.6977 190.236 30.4875 190.236 30.1931C190.236 29.8987 190.447 29.6885 190.741 29.6885C191.035 29.6885 191.246 29.9408 191.246 30.1931Z" fill="white"/>
<path d="M191.876 30.4457C191.876 30.5718 191.75 30.698 191.623 30.698C191.497 30.698 191.371 30.5718 191.371 30.4457C191.371 30.3195 191.497 30.1934 191.623 30.1934C191.792 30.1934 191.876 30.3195 191.876 30.4457Z" fill="white"/>
<path d="M184.978 36.5858C186.418 36.5858 187.586 35.8328 187.586 34.9038C187.586 33.9748 186.418 33.2217 184.978 33.2217C183.538 33.2217 182.371 33.9748 182.371 34.9038C182.371 35.8328 183.538 36.5858 184.978 36.5858Z" fill="#422E31"/>
<path d="M184.894 36.7104C184.894 37.2991 184.978 37.8879 184.389 38.2243C183.843 38.5607 183.044 38.3505 182.581 37.972C182.413 37.8038 182.161 38.0561 182.329 38.2243C182.876 38.6869 183.759 38.9392 184.432 38.6028C185.231 38.2243 185.231 37.5515 185.231 36.7525C185.231 36.5002 184.894 36.5002 184.894 36.7104Z" fill="#422E31"/>
<path d="M184.895 36.7114C184.895 37.4263 185.147 38.0991 185.778 38.5196C186.45 38.9402 187.249 38.6037 187.754 38.1412C187.922 37.973 187.67 37.7627 187.502 37.8889C187.039 38.3094 186.493 38.5196 185.946 38.2253C185.399 37.9309 185.231 37.2581 185.231 36.7114C185.231 36.5011 184.895 36.5011 184.895 36.7114Z" fill="#422E31"/>
<path d="M185.062 37.3418C185.062 37.3418 185.02 38.2669 184.053 38.5193C184.053 38.5193 185.062 40.2014 186.029 38.4772C186.071 38.4772 185.188 38.0987 185.062 37.3418Z" fill="#422E31"/>
<path d="M264.979 49.958C278.774 49.958 289.958 38.7745 289.958 24.979C289.958 11.1835 278.774 0 264.979 0C251.183 0 240 11.1835 240 24.979C240 38.7745 251.183 49.958 264.979 49.958Z" fill="#66C5A8"/>
<path d="M273.304 12.5738C271.959 15.2651 273.599 18.7975 276.963 20.4376C280.327 22.0776 284.112 21.2365 285.415 18.5032C286.761 15.8118 285.121 12.2794 281.757 10.6394C278.435 8.99937 274.65 9.88247 273.304 12.5738Z" fill="#232224"/>
<path d="M275.87 14.34C275.155 15.8118 275.996 17.7042 277.762 18.5873C279.528 19.4704 281.589 18.9657 282.304 17.4939C283.019 16.0221 282.178 14.1298 280.411 13.2467C278.603 12.3636 276.585 12.8682 275.87 14.34Z" fill="#C29C97"/>
<path d="M256.695 12.5738C258.04 15.2651 256.4 18.7975 253.036 20.4376C249.672 22.0776 245.887 21.2365 244.584 18.5032C243.238 15.8118 244.878 12.2794 248.242 10.6394C251.564 8.99937 255.349 9.88247 256.695 12.5738Z" fill="#232224"/>
<path d="M252.22 18.6212C253.991 17.7497 254.837 15.8438 254.109 14.3643C253.381 12.8849 251.355 12.3921 249.584 13.2637C247.813 14.1353 246.967 16.0411 247.695 17.5206C248.423 19 250.449 19.4928 252.22 18.6212Z" fill="#C29C97"/>
<path d="M264.979 44.8701C275.802 44.8701 284.575 37.5086 284.575 28.4277C284.575 19.3469 275.802 11.9854 264.979 11.9854C254.156 11.9854 245.383 19.3469 245.383 28.4277C245.383 37.5086 254.156 44.8701 264.979 44.8701Z" fill="white"/>
<path d="M267.797 25.5675C266.03 27.6281 266.871 31.2445 269.689 33.6415C272.506 36.0385 276.207 36.2487 277.973 34.1882C279.739 32.0856 278.898 28.4691 276.081 26.1142C273.263 23.7172 269.563 23.5069 267.797 25.5675Z" fill="black"/>
<path d="M262.204 25.5675C263.97 27.6701 263.129 31.2866 260.311 33.6415C257.494 36.0385 253.793 36.2487 252.027 34.1882C250.261 32.0856 251.102 28.4691 253.919 26.1142C256.695 23.7172 260.437 23.5069 262.204 25.5675Z" fill="black"/>
<path d="M258.419 32.422C259.58 32.422 260.522 31.4806 260.522 30.3194C260.522 29.1582 259.58 28.2168 258.419 28.2168C257.258 28.2168 256.316 29.1582 256.316 30.3194C256.316 31.4806 257.258 32.422 258.419 32.422Z" fill="white"/>
<path d="M259.681 30.6981C259.681 31.413 259.093 31.9597 258.42 31.9597C257.705 31.9597 257.158 31.3709 257.158 30.6981C257.158 29.9832 257.747 29.4365 258.42 29.4365C259.093 29.4365 259.681 30.0253 259.681 30.6981Z" fill="#1F0C00"/>
<path d="M258.041 30.1931C258.041 30.4875 257.83 30.6977 257.536 30.6977C257.242 30.6977 257.031 30.4875 257.031 30.1931C257.031 29.8987 257.242 29.6885 257.536 29.6885C257.788 29.6885 258.041 29.9408 258.041 30.1931Z" fill="white"/>
<path d="M258.671 30.4457C258.671 30.5718 258.544 30.698 258.418 30.698C258.292 30.698 258.166 30.5718 258.166 30.4457C258.166 30.3195 258.292 30.1934 258.418 30.1934C258.544 30.1934 258.671 30.3195 258.671 30.4457Z" fill="white"/>
<path d="M271.624 32.422C272.785 32.422 273.727 31.4806 273.727 30.3194C273.727 29.1582 272.785 28.2168 271.624 28.2168C270.463 28.2168 269.521 29.1582 269.521 30.3194C269.521 31.4806 270.463 32.422 271.624 32.422Z" fill="white"/>
<path d="M272.927 30.6981C272.927 31.413 272.339 31.9597 271.666 31.9597C270.951 31.9597 270.404 31.3709 270.404 30.6981C270.404 29.9832 270.993 29.4365 271.666 29.4365C272.339 29.4365 272.927 30.0253 272.927 30.6981Z" fill="#1F0C00"/>
<path d="M271.246 30.1931C271.246 30.4875 271.035 30.6977 270.741 30.6977C270.447 30.6977 270.236 30.4875 270.236 30.1931C270.236 29.8987 270.447 29.6885 270.741 29.6885C271.035 29.6885 271.246 29.9408 271.246 30.1931Z" fill="white"/>
<path d="M271.876 30.4457C271.876 30.5718 271.75 30.698 271.623 30.698C271.497 30.698 271.371 30.5718 271.371 30.4457C271.371 30.3195 271.497 30.1934 271.623 30.1934C271.792 30.1934 271.876 30.3195 271.876 30.4457Z" fill="white"/>
<path d="M264.978 36.5858C266.418 36.5858 267.586 35.8328 267.586 34.9038C267.586 33.9748 266.418 33.2217 264.978 33.2217C263.538 33.2217 262.371 33.9748 262.371 34.9038C262.371 35.8328 263.538 36.5858 264.978 36.5858Z" fill="#422E31"/>
<path d="M264.894 36.7104C264.894 37.2991 264.978 37.8879 264.389 38.2243C263.843 38.5607 263.044 38.3505 262.581 37.972C262.413 37.8038 262.161 38.0561 262.329 38.2243C262.876 38.6869 263.759 38.9392 264.432 38.6028C265.231 38.2243 265.231 37.5515 265.231 36.7525C265.231 36.5002 264.894 36.5002 264.894 36.7104Z" fill="#422E31"/>
<path d="M264.895 36.7114C264.895 37.4263 265.147 38.0991 265.778 38.5196C266.45 38.9402 267.249 38.6037 267.754 38.1412C267.922 37.973 267.67 37.7627 267.502 37.8889C267.039 38.3094 266.493 38.5196 265.946 38.2253C265.399 37.9309 265.231 37.2581 265.231 36.7114C265.231 36.5011 264.895 36.5011 264.895 36.7114Z" fill="#422E31"/>
<path d="M265.062 37.3418C265.062 37.3418 265.02 38.2669 264.053 38.5193C264.053 38.5193 265.062 40.2014 266.029 38.4772C266.071 38.4772 265.188 38.0987 265.062 37.3418Z" fill="#422E31"/>
<path d="M344.979 49.958C358.774 49.958 369.958 38.7745 369.958 24.979C369.958 11.1835 358.774 0 344.979 0C331.183 0 320 11.1835 320 24.979C320 38.7745 331.183 49.958 344.979 49.958Z" fill="#66C5A8"/>
<path d="M353.304 12.5738C351.959 15.2651 353.599 18.7975 356.963 20.4376C360.327 22.0776 364.112 21.2365 365.415 18.5032C366.761 15.8118 365.121 12.2794 361.757 10.6394C358.435 8.99937 354.65 9.88247 353.304 12.5738Z" fill="#232224"/>
<path d="M355.87 14.34C355.155 15.8118 355.996 17.7042 357.762 18.5873C359.528 19.4704 361.589 18.9657 362.304 17.4939C363.019 16.0221 362.178 14.1298 360.411 13.2467C358.603 12.3636 356.585 12.8682 355.87 14.34Z" fill="#C29C97"/>
<path d="M336.695 12.5738C338.04 15.2651 336.4 18.7975 333.036 20.4376C329.672 22.0776 325.887 21.2365 324.584 18.5032C323.238 15.8118 324.878 12.2794 328.242 10.6394C331.564 8.99937 335.349 9.88247 336.695 12.5738Z" fill="#232224"/>
<path d="M332.22 18.6212C333.991 17.7497 334.837 15.8438 334.109 14.3643C333.381 12.8849 331.355 12.3921 329.584 13.2637C327.813 14.1353 326.967 16.0411 327.695 17.5206C328.423 19 330.449 19.4928 332.22 18.6212Z" fill="#C29C97"/>
<path d="M344.979 44.8701C355.802 44.8701 364.575 37.5086 364.575 28.4277C364.575 19.3469 355.802 11.9854 344.979 11.9854C334.156 11.9854 325.383 19.3469 325.383 28.4277C325.383 37.5086 334.156 44.8701 344.979 44.8701Z" fill="white"/>
<path d="M347.797 25.5675C346.03 27.6281 346.871 31.2445 349.689 33.6415C352.506 36.0385 356.207 36.2487 357.973 34.1882C359.739 32.0856 358.898 28.4691 356.081 26.1142C353.263 23.7172 349.563 23.5069 347.797 25.5675Z" fill="black"/>
<path d="M342.204 25.5675C343.97 27.6701 343.129 31.2866 340.311 33.6415C337.494 36.0385 333.793 36.2487 332.027 34.1882C330.261 32.0856 331.102 28.4691 333.919 26.1142C336.695 23.7172 340.437 23.5069 342.204 25.5675Z" fill="black"/>
<path d="M338.419 32.422C339.58 32.422 340.522 31.4806 340.522 30.3194C340.522 29.1582 339.58 28.2168 338.419 28.2168C337.258 28.2168 336.316 29.1582 336.316 30.3194C336.316 31.4806 337.258 32.422 338.419 32.422Z" fill="white"/>
<path d="M339.681 30.6981C339.681 31.413 339.093 31.9597 338.42 31.9597C337.705 31.9597 337.158 31.3709 337.158 30.6981C337.158 29.9832 337.747 29.4365 338.42 29.4365C339.093 29.4365 339.681 30.0253 339.681 30.6981Z" fill="#1F0C00"/>
<path d="M338.041 30.1931C338.041 30.4875 337.83 30.6977 337.536 30.6977C337.242 30.6977 337.031 30.4875 337.031 30.1931C337.031 29.8987 337.242 29.6885 337.536 29.6885C337.788 29.6885 338.041 29.9408 338.041 30.1931Z" fill="white"/>
<path d="M338.671 30.4457C338.671 30.5718 338.544 30.698 338.418 30.698C338.292 30.698 338.166 30.5718 338.166 30.4457C338.166 30.3195 338.292 30.1934 338.418 30.1934C338.544 30.1934 338.671 30.3195 338.671 30.4457Z" fill="white"/>
<path d="M351.624 32.422C352.785 32.422 353.727 31.4806 353.727 30.3194C353.727 29.1582 352.785 28.2168 351.624 28.2168C350.463 28.2168 349.521 29.1582 349.521 30.3194C349.521 31.4806 350.463 32.422 351.624 32.422Z" fill="white"/>
<path d="M352.927 30.6981C352.927 31.413 352.339 31.9597 351.666 31.9597C350.951 31.9597 350.404 31.3709 350.404 30.6981C350.404 29.9832 350.993 29.4365 351.666 29.4365C352.339 29.4365 352.927 30.0253 352.927 30.6981Z" fill="#1F0C00"/>
<path d="M351.246 30.1931C351.246 30.4875 351.035 30.6977 350.741 30.6977C350.447 30.6977 350.236 30.4875 350.236 30.1931C350.236 29.8987 350.447 29.6885 350.741 29.6885C351.035 29.6885 351.246 29.9408 351.246 30.1931Z" fill="white"/>
<path d="M351.876 30.4457C351.876 30.5718 351.75 30.698 351.623 30.698C351.497 30.698 351.371 30.5718 351.371 30.4457C351.371 30.3195 351.497 30.1934 351.623 30.1934C351.792 30.1934 351.876 30.3195 351.876 30.4457Z" fill="white"/>
<path d="M344.978 36.5858C346.418 36.5858 347.586 35.8328 347.586 34.9038C347.586 33.9748 346.418 33.2217 344.978 33.2217C343.538 33.2217 342.371 33.9748 342.371 34.9038C342.371 35.8328 343.538 36.5858 344.978 36.5858Z" fill="#422E31"/>
<path d="M344.894 36.7104C344.894 37.2991 344.978 37.8879 344.389 38.2243C343.843 38.5607 343.044 38.3505 342.581 37.972C342.413 37.8038 342.161 38.0561 342.329 38.2243C342.876 38.6869 343.759 38.9392 344.432 38.6028C345.231 38.2243 345.231 37.5515 345.231 36.7525C345.231 36.5002 344.894 36.5002 344.894 36.7104Z" fill="#422E31"/>
<path d="M344.895 36.7114C344.895 37.4263 345.147 38.0991 345.778 38.5196C346.45 38.9402 347.249 38.6037 347.754 38.1412C347.922 37.973 347.67 37.7627 347.502 37.8889C347.039 38.3094 346.493 38.5196 345.946 38.2253C345.399 37.9309 345.231 37.2581 345.231 36.7114C345.231 36.5011 344.895 36.5011 344.895 36.7114Z" fill="#422E31"/>
<path d="M345.062 37.3418C345.062 37.3418 345.02 38.2669 344.053 38.5193C344.053 38.5193 345.062 40.2014 346.029 38.4772C346.071 38.4772 345.188 38.0987 345.062 37.3418Z" fill="#422E31"/>
<path d="M24.979 119.958C38.7745 119.958 49.958 108.774 49.958 94.979C49.958 81.1835 38.7745 70 24.979 70C11.1835 70 0 81.1835 0 94.979C0 108.774 11.1835 119.958 24.979 119.958Z" fill="#66C5A8"/>
<path d="M33.3044 82.5738C31.9588 85.2651 33.5988 88.7975 36.963 90.4376C40.3271 92.0776 44.1118 91.2365 45.4155 88.5032C46.7611 85.8118 45.1211 82.2794 41.7569 80.6394C38.4348 78.9994 34.6501 79.8825 33.3044 82.5738Z" fill="#232224"/>
<path d="M35.8698 84.34C35.1549 85.8118 35.996 87.7042 37.7622 88.5873C39.5284 89.4704 41.5889 88.9657 42.3038 87.4939C43.0187 86.0221 42.1776 84.1298 40.4114 83.2467C38.6032 82.3636 36.5847 82.8682 35.8698 84.34Z" fill="#C29C97"/>
<path d="M16.6948 82.5738C18.0404 85.2651 16.4004 88.7975 13.0362 90.4376C9.67205 92.0776 5.88735 91.2365 4.58373 88.5032C3.23807 85.8118 4.8781 82.2794 8.24227 80.6394C11.5644 78.9994 15.3491 79.8825 16.6948 82.5738Z" fill="#232224"/>
<path d="M12.2203 88.6212C13.9915 87.7497 14.8371 85.8438 14.1091 84.3643C13.3811 82.8849 11.3551 82.3921 9.58393 83.2637C7.81277 84.1353 6.96713 86.0411 7.69514 87.5206C8.42316 89 10.4491 89.4928 12.2203 88.6212Z" fill="#C29C97"/>
<path d="M24.9791 114.87C35.8018 114.87 44.5754 107.509 44.5754 98.4277C44.5754 89.3469 35.8018 81.9854 24.9791 81.9854C14.1564 81.9854 5.38281 89.3469 5.38281 98.4277C5.38281 107.509 14.1564 114.87 24.9791 114.87Z" fill="white"/>
<path d="M27.7966 95.5675C26.0304 97.6281 26.8714 101.245 29.6889 103.642C32.5064 106.038 36.207 106.249 37.9732 104.188C39.7394 102.086 38.8983 98.4691 36.0808 96.1142C33.2634 93.7172 29.5628 93.5069 27.7966 95.5675Z" fill="black"/>
<path d="M22.2036 95.5675C23.9698 97.6701 23.1288 101.287 20.3113 103.642C17.4938 106.038 13.7932 106.249 12.027 104.188C10.2608 102.086 11.1019 98.4691 13.9194 96.1142C16.6948 93.7172 20.4374 93.5069 22.2036 95.5675Z" fill="black"/>
<path d="M18.419 102.422C19.5803 102.422 20.5216 101.481 20.5216 100.319C20.5216 99.1582 19.5803 98.2168 18.419 98.2168C17.2578 98.2168 16.3164 99.1582 16.3164 100.319C16.3164 101.481 17.2578 102.422 18.419 102.422Z" fill="white"/>
<path d="M19.6813 100.698C19.6813 101.413 19.0926 101.96 18.4198 101.96C17.7049 101.96 17.1582 101.371 17.1582 100.698C17.1582 99.9832 17.7469 99.4365 18.4198 99.4365C19.0926 99.4365 19.6813 100.025 19.6813 100.698Z" fill="#1F0C00"/>
<path d="M18.0405 100.193C18.0405 100.487 17.8302 100.698 17.5359 100.698C17.2415 100.698 17.0312 100.487 17.0312 100.193C17.0312 99.8987 17.2415 99.6885 17.5359 99.6885C17.7882 99.6885 18.0405 99.9408 18.0405 100.193Z" fill="white"/>
<path d="M18.6706 100.446C18.6706 100.572 18.5445 100.698 18.4183 100.698C18.2922 100.698 18.166 100.572 18.166 100.446C18.166 100.32 18.2922 100.193 18.4183 100.193C18.5445 100.193 18.6706 100.32 18.6706 100.446Z" fill="white"/>
<path d="M31.6241 102.422C32.7853 102.422 33.7267 101.481 33.7267 100.319C33.7267 99.1582 32.7853 98.2168 31.6241 98.2168C30.4629 98.2168 29.5215 99.1582 29.5215 100.319C29.5215 101.481 30.4629 102.422 31.6241 102.422Z" fill="white"/>
<path d="M32.9274 100.698C32.9274 101.413 32.3387 101.96 31.6659 101.96C30.951 101.96 30.4043 101.371 30.4043 100.698C30.4043 99.9832 30.993 99.4365 31.6659 99.4365C32.3387 99.4365 32.9274 100.025 32.9274 100.698Z" fill="#1F0C00"/>
<path d="M31.2456 100.193C31.2456 100.487 31.0353 100.698 30.741 100.698C30.4466 100.698 30.2363 100.487 30.2363 100.193C30.2363 99.8987 30.4466 99.6885 30.741 99.6885C31.0353 99.6885 31.2456 99.9408 31.2456 100.193Z" fill="white"/>
<path d="M31.8757 100.446C31.8757 100.572 31.7496 100.698 31.6234 100.698C31.4972 100.698 31.3711 100.572 31.3711 100.446C31.3711 100.32 31.4972 100.193 31.6234 100.193C31.7916 100.193 31.8757 100.32 31.8757 100.446Z" fill="white"/>
<path d="M24.9783 106.586C26.4183 106.586 27.5856 105.833 27.5856 104.904C27.5856 103.975 26.4183 103.222 24.9783 103.222C23.5384 103.222 22.3711 103.975 22.3711 104.904C22.3711 105.833 23.5384 106.586 24.9783 106.586Z" fill="#422E31"/>
<path d="M24.8941 106.71C24.8941 107.299 24.9782 107.888 24.3895 108.224C23.8428 108.561 23.0438 108.35 22.5812 107.972C22.413 107.804 22.1607 108.056 22.3289 108.224C22.8756 108.687 23.7587 108.939 24.4315 108.603C25.2305 108.224 25.2305 107.551 25.2305 106.752C25.2305 106.5 24.8941 106.5 24.8941 106.71Z" fill="#422E31"/>
<path d="M24.8945 106.711C24.8945 107.426 25.1468 108.099 25.7776 108.52C26.4505 108.94 27.2494 108.604 27.7541 108.141C27.9223 107.973 27.67 107.763 27.5018 107.889C27.0392 108.309 26.4925 108.52 25.9458 108.225C25.3992 107.931 25.2309 107.258 25.2309 106.711C25.2309 106.501 24.8945 106.501 24.8945 106.711Z" fill="#422E31"/>
<path d="M25.062 107.342C25.062 107.342 25.0199 108.267 24.0527 108.519C24.0527 108.519 25.062 110.201 26.0292 108.477C26.0712 108.477 25.1881 108.099 25.062 107.342Z" fill="#422E31"/>
<path d="M104.979 119.958C118.774 119.958 129.958 108.774 129.958 94.979C129.958 81.1835 118.774 70 104.979 70C91.1835 70 80 81.1835 80 94.979C80 108.774 91.1835 119.958 104.979 119.958Z" fill="#66C5A8"/>
<path d="M113.304 82.5738C111.959 85.2651 113.599 88.7975 116.963 90.4376C120.327 92.0776 124.112 91.2365 125.415 88.5032C126.761 85.8118 125.121 82.2794 121.757 80.6394C118.435 78.9994 114.65 79.8825 113.304 82.5738Z" fill="#232224"/>
<path d="M115.87 84.34C115.155 85.8118 115.996 87.7042 117.762 88.5873C119.528 89.4704 121.589 88.9657 122.304 87.4939C123.019 86.0221 122.178 84.1298 120.411 83.2467C118.603 82.3636 116.585 82.8682 115.87 84.34Z" fill="#C29C97"/>
<path d="M96.6948 82.5738C98.0404 85.2651 96.4004 88.7975 93.0362 90.4376C89.672 92.0776 85.8874 91.2365 84.5837 88.5032C83.2381 85.8118 84.8781 82.2794 88.2423 80.6394C91.5644 78.9994 95.3491 79.8825 96.6948 82.5738Z" fill="#232224"/>
<path d="M92.2203 88.6212C93.9915 87.7497 94.8371 85.8438 94.1091 84.3643C93.3811 82.8849 91.3551 82.3921 89.5839 83.2637C87.8128 84.1353 86.9671 86.0411 87.6951 87.5206C88.4232 89 90.4491 89.4928 92.2203 88.6212Z" fill="#C29C97"/>
<path d="M104.979 114.87C115.802 114.87 124.575 107.509 124.575 98.4277C124.575 89.3469 115.802 81.9854 104.979 81.9854C94.1564 81.9854 85.3828 89.3469 85.3828 98.4277C85.3828 107.509 94.1564 114.87 104.979 114.87Z" fill="white"/>
<path d="M107.797 95.5675C106.03 97.6281 106.871 101.245 109.689 103.642C112.506 106.038 116.207 106.249 117.973 104.188C119.739 102.086 118.898 98.4691 116.081 96.1142C113.263 93.7172 109.563 93.5069 107.797 95.5675Z" fill="black"/>
<path d="M102.204 95.5675C103.97 97.6701 103.129 101.287 100.311 103.642C97.4938 106.038 93.7932 106.249 92.027 104.188C90.2608 102.086 91.1019 98.4691 93.9194 96.1142C96.6948 93.7172 100.437 93.5069 102.204 95.5675Z" fill="black"/>
<path d="M98.419 102.422C99.5803 102.422 100.522 101.481 100.522 100.319C100.522 99.1582 99.5803 98.2168 98.419 98.2168C97.2578 98.2168 96.3164 99.1582 96.3164 100.319C96.3164 101.481 97.2578 102.422 98.419 102.422Z" fill="white"/>
<path d="M99.6813 100.698C99.6813 101.413 99.0926 101.96 98.4198 101.96C97.7049 101.96 97.1582 101.371 97.1582 100.698C97.1582 99.9832 97.7469 99.4365 98.4198 99.4365C99.0926 99.4365 99.6813 100.025 99.6813 100.698Z" fill="#1F0C00"/>
<path d="M98.0405 100.193C98.0405 100.487 97.8302 100.698 97.5359 100.698C97.2415 100.698 97.0312 100.487 97.0312 100.193C97.0312 99.8987 97.2415 99.6885 97.5359 99.6885C97.7882 99.6885 98.0405 99.9408 98.0405 100.193Z" fill="white"/>
<path d="M98.6706 100.446C98.6706 100.572 98.5445 100.698 98.4183 100.698C98.2922 100.698 98.166 100.572 98.166 100.446C98.166 100.32 98.2922 100.193 98.4183 100.193C98.5445 100.193 98.6706 100.32 98.6706 100.446Z" fill="white"/>
<path d="M111.624 102.422C112.785 102.422 113.727 101.481 113.727 100.319C113.727 99.1582 112.785 98.2168 111.624 98.2168C110.463 98.2168 109.521 99.1582 109.521 100.319C109.521 101.481 110.463 102.422 111.624 102.422Z" fill="white"/>
<path d="M112.927 100.698C112.927 101.413 112.339 101.96 111.666 101.96C110.951 101.96 110.404 101.371 110.404 100.698C110.404 99.9832 110.993 99.4365 111.666 99.4365C112.339 99.4365 112.927 100.025 112.927 100.698Z" fill="#1F0C00"/>
<path d="M111.246 100.193C111.246 100.487 111.035 100.698 110.741 100.698C110.447 100.698 110.236 100.487 110.236 100.193C110.236 99.8987 110.447 99.6885 110.741 99.6885C111.035 99.6885 111.246 99.9408 111.246 100.193Z" fill="white"/>
<path d="M111.876 100.446C111.876 100.572 111.75 100.698 111.623 100.698C111.497 100.698 111.371 100.572 111.371 100.446C111.371 100.32 111.497 100.193 111.623 100.193C111.792 100.193 111.876 100.32 111.876 100.446Z" fill="white"/>
<path d="M104.978 106.586C106.418 106.586 107.586 105.833 107.586 104.904C107.586 103.975 106.418 103.222 104.978 103.222C103.538 103.222 102.371 103.975 102.371 104.904C102.371 105.833 103.538 106.586 104.978 106.586Z" fill="#422E31"/>
<path d="M104.894 106.71C104.894 107.299 104.978 107.888 104.389 108.224C103.843 108.561 103.044 108.35 102.581 107.972C102.413 107.804 102.161 108.056 102.329 108.224C102.876 108.687 103.759 108.939 104.432 108.603C105.231 108.224 105.231 107.551 105.231 106.752C105.231 106.5 104.894 106.5 104.894 106.71Z" fill="#422E31"/>
<path d="M104.895 106.711C104.895 107.426 105.147 108.099 105.778 108.52C106.45 108.94 107.249 108.604 107.754 108.141C107.922 107.973 107.67 107.763 107.502 107.889C107.039 108.309 106.493 108.52 105.946 108.225C105.399 107.931 105.231 107.258 105.231 106.711C105.231 106.501 104.895 106.501 104.895 106.711Z" fill="#422E31"/>
<path d="M105.062 107.342C105.062 107.342 105.02 108.267 104.053 108.519C104.053 108.519 105.062 110.201 106.029 108.477C106.071 108.477 105.188 108.099 105.062 107.342Z" fill="#422E31"/>
<path d="M184.979 119.958C198.774 119.958 209.958 108.774 209.958 94.979C209.958 81.1835 198.774 70 184.979 70C171.183 70 160 81.1835 160 94.979C160 108.774 171.183 119.958 184.979 119.958Z" fill="#66C5A8"/>
<path d="M193.304 82.5738C191.959 85.2651 193.599 88.7975 196.963 90.4376C200.327 92.0776 204.112 91.2365 205.415 88.5032C206.761 85.8118 205.121 82.2794 201.757 80.6394C198.435 78.9994 194.65 79.8825 193.304 82.5738Z" fill="#232224"/>
<path d="M195.87 84.34C195.155 85.8118 195.996 87.7042 197.762 88.5873C199.528 89.4704 201.589 88.9657 202.304 87.4939C203.019 86.0221 202.178 84.1298 200.411 83.2467C198.603 82.3636 196.585 82.8682 195.87 84.34Z" fill="#C29C97"/>
<path d="M176.695 82.5738C178.04 85.2651 176.4 88.7975 173.036 90.4376C169.672 92.0776 165.887 91.2365 164.584 88.5032C163.238 85.8118 164.878 82.2794 168.242 80.6394C171.564 78.9994 175.349 79.8825 176.695 82.5738Z" fill="#232224"/>
<path d="M172.22 88.6212C173.991 87.7497 174.837 85.8438 174.109 84.3643C173.381 82.8849 171.355 82.3921 169.584 83.2637C167.813 84.1353 166.967 86.0411 167.695 87.5206C168.423 89 170.449 89.4928 172.22 88.6212Z" fill="#C29C97"/>
<path d="M184.979 114.87C195.802 114.87 204.575 107.509 204.575 98.4277C204.575 89.3469 195.802 81.9854 184.979 81.9854C174.156 81.9854 165.383 89.3469 165.383 98.4277C165.383 107.509 174.156 114.87 184.979 114.87Z" fill="white"/>
<path d="M187.797 95.5675C186.03 97.6281 186.871 101.245 189.689 103.642C192.506 106.038 196.207 106.249 197.973 104.188C199.739 102.086 198.898 98.4691 196.081 96.1142C193.263 93.7172 189.563 93.5069 187.797 95.5675Z" fill="black"/>
<path d="M182.204 95.5675C183.97 97.6701 183.129 101.287 180.311 103.642C177.494 106.038 173.793 106.249 172.027 104.188C170.261 102.086 171.102 98.4691 173.919 96.1142C176.695 93.7172 180.437 93.5069 182.204 95.5675Z" fill="black"/>
<path d="M178.419 102.422C179.58 102.422 180.522 101.481 180.522 100.319C180.522 99.1582 179.58 98.2168 178.419 98.2168C177.258 98.2168 176.316 99.1582 176.316 100.319C176.316 101.481 177.258 102.422 178.419 102.422Z" fill="white"/>
<path d="M179.681 100.698C179.681 101.413 179.093 101.96 178.42 101.96C177.705 101.96 177.158 101.371 177.158 100.698C177.158 99.9832 177.747 99.4365 178.42 99.4365C179.093 99.4365 179.681 100.025 179.681 100.698Z" fill="#1F0C00"/>
<path d="M178.041 100.193C178.041 100.487 177.83 100.698 177.536 100.698C177.242 100.698 177.031 100.487 177.031 100.193C177.031 99.8987 177.242 99.6885 177.536 99.6885C177.788 99.6885 178.041 99.9408 178.041 100.193Z" fill="white"/>
<path d="M178.671 100.446C178.671 100.572 178.544 100.698 178.418 100.698C178.292 100.698 178.166 100.572 178.166 100.446C178.166 100.32 178.292 100.193 178.418 100.193C178.544 100.193 178.671 100.32 178.671 100.446Z" fill="white"/>
<path d="M191.624 102.422C192.785 102.422 193.727 101.481 193.727 100.319C193.727 99.1582 192.785 98.2168 191.624 98.2168C190.463 98.2168 189.521 99.1582 189.521 100.319C189.521 101.481 190.463 102.422 191.624 102.422Z" fill="white"/>
<path d="M192.927 100.698C192.927 101.413 192.339 101.96 191.666 101.96C190.951 101.96 190.404 101.371 190.404 100.698C190.404 99.9832 190.993 99.4365 191.666 99.4365C192.339 99.4365 192.927 100.025 192.927 100.698Z" fill="#1F0C00"/>
<path d="M191.246 100.193C191.246 100.487 191.035 100.698 190.741 100.698C190.447 100.698 190.236 100.487 190.236 100.193C190.236 99.8987 190.447 99.6885 190.741 99.6885C191.035 99.6885 191.246 99.9408 191.246 100.193Z" fill="white"/>
<path d="M191.876 100.446C191.876 100.572 191.75 100.698 191.623 100.698C191.497 100.698 191.371 100.572 191.371 100.446C191.371 100.32 191.497 100.193 191.623 100.193C191.792 100.193 191.876 100.32 191.876 100.446Z" fill="white"/>
<path d="M184.978 106.586C186.418 106.586 187.586 105.833 187.586 104.904C187.586 103.975 186.418 103.222 184.978 103.222C183.538 103.222 182.371 103.975 182.371 104.904C182.371 105.833 183.538 106.586 184.978 106.586Z" fill="#422E31"/>
<path d="M184.894 106.71C184.894 107.299 184.978 107.888 184.389 108.224C183.843 108.561 183.044 108.35 182.581 107.972C182.413 107.804 182.161 108.056 182.329 108.224C182.876 108.687 183.759 108.939 184.432 108.603C185.231 108.224 185.231 107.551 185.231 106.752C185.231 106.5 184.894 106.5 184.894 106.71Z" fill="#422E31"/>
<path d="M184.895 106.711C184.895 107.426 185.147 108.099 185.778 108.52C186.45 108.94 187.249 108.604 187.754 108.141C187.922 107.973 187.67 107.763 187.502 107.889C187.039 108.309 186.493 108.52 185.946 108.225C185.399 107.931 185.231 107.258 185.231 106.711C185.231 106.501 184.895 106.501 184.895 106.711Z" fill="#422E31"/>
<path d="M185.062 107.342C185.062 107.342 185.02 108.267 184.053 108.519C184.053 108.519 185.062 110.201 186.029 108.477C186.071 108.477 185.188 108.099 185.062 107.342Z" fill="#422E31"/>
<path d="M264.979 119.958C278.774 119.958 289.958 108.774 289.958 94.979C289.958 81.1835 278.774 70 264.979 70C251.183 70 240 81.1835 240 94.979C240 108.774 251.183 119.958 264.979 119.958Z" fill="#66C5A8"/>
<path d="M273.304 82.5738C271.959 85.2651 273.599 88.7975 276.963 90.4376C280.327 92.0776 284.112 91.2365 285.415 88.5032C286.761 85.8118 285.121 82.2794 281.757 80.6394C278.435 78.9994 274.65 79.8825 273.304 82.5738Z" fill="#232224"/>
<path d="M275.87 84.34C275.155 85.8118 275.996 87.7042 277.762 88.5873C279.528 89.4704 281.589 88.9657 282.304 87.4939C283.019 86.0221 282.178 84.1298 280.411 83.2467C278.603 82.3636 276.585 82.8682 275.87 84.34Z" fill="#C29C97"/>
<path d="M256.695 82.5738C258.04 85.2651 256.4 88.7975 253.036 90.4376C249.672 92.0776 245.887 91.2365 244.584 88.5032C243.238 85.8118 244.878 82.2794 248.242 80.6394C251.564 78.9994 255.349 79.8825 256.695 82.5738Z" fill="#232224"/>
<path d="M252.22 88.6212C253.991 87.7497 254.837 85.8438 254.109 84.3643C253.381 82.8849 251.355 82.3921 249.584 83.2637C247.813 84.1353 246.967 86.0411 247.695 87.5206C248.423 89 250.449 89.4928 252.22 88.6212Z" fill="#C29C97"/>
<path d="M264.979 114.87C275.802 114.87 284.575 107.509 284.575 98.4277C284.575 89.3469 275.802 81.9854 264.979 81.9854C254.156 81.9854 245.383 89.3469 245.383 98.4277C245.383 107.509 254.156 114.87 264.979 114.87Z" fill="white"/>
<path d="M267.797 95.5675C266.03 97.6281 266.871 101.245 269.689 103.642C272.506 106.038 276.207 106.249 277.973 104.188C279.739 102.086 278.898 98.4691 276.081 96.1142C273.263 93.7172 269.563 93.5069 267.797 95.5675Z" fill="black"/>
<path d="M262.204 95.5675C263.97 97.6701 263.129 101.287 260.311 103.642C257.494 106.038 253.793 106.249 252.027 104.188C250.261 102.086 251.102 98.4691 253.919 96.1142C256.695 93.7172 260.437 93.5069 262.204 95.5675Z" fill="black"/>
<path d="M258.419 102.422C259.58 102.422 260.522 101.481 260.522 100.319C260.522 99.1582 259.58 98.2168 258.419 98.2168C257.258 98.2168 256.316 99.1582 256.316 100.319C256.316 101.481 257.258 102.422 258.419 102.422Z" fill="white"/>
<path d="M259.681 100.698C259.681 101.413 259.093 101.96 258.42 101.96C257.705 101.96 257.158 101.371 257.158 100.698C257.158 99.9832 257.747 99.4365 258.42 99.4365C259.093 99.4365 259.681 100.025 259.681 100.698Z" fill="#1F0C00"/>
<path d="M258.041 100.193C258.041 100.487 257.83 100.698 257.536 100.698C257.242 100.698 257.031 100.487 257.031 100.193C257.031 99.8987 257.242 99.6885 257.536 99.6885C257.788 99.6885 258.041 99.9408 258.041 100.193Z" fill="white"/>
<path d="M258.671 100.446C258.671 100.572 258.544 100.698 258.418 100.698C258.292 100.698 258.166 100.572 258.166 100.446C258.166 100.32 258.292 100.193 258.418 100.193C258.544 100.193 258.671 100.32 258.671 100.446Z" fill="white"/>
<path d="M271.624 102.422C272.785 102.422 273.727 101.481 273.727 100.319C273.727 99.1582 272.785 98.2168 271.624 98.2168C270.463 98.2168 269.521 99.1582 269.521 100.319C269.521 101.481 270.463 102.422 271.624 102.422Z" fill="white"/>
<path d="M272.927 100.698C272.927 101.413 272.339 101.96 271.666 101.96C270.951 101.96 270.404 101.371 270.404 100.698C270.404 99.9832 270.993 99.4365 271.666 99.4365C272.339 99.4365 272.927 100.025 272.927 100.698Z" fill="#1F0C00"/>
<path d="M271.246 100.193C271.246 100.487 271.035 100.698 270.741 100.698C270.447 100.698 270.236 100.487 270.236 100.193C270.236 99.8987 270.447 99.6885 270.741 99.6885C271.035 99.6885 271.246 99.9408 271.246 100.193Z" fill="white"/>
<path d="M271.876 100.446C271.876 100.572 271.75 100.698 271.623 100.698C271.497 100.698 271.371 100.572 271.371 100.446C271.371 100.32 271.497 100.193 271.623 100.193C271.792 100.193 271.876 100.32 271.876 100.446Z" fill="white"/>
<path d="M264.978 106.586C266.418 106.586 267.586 105.833 267.586 104.904C267.586 103.975 266.418 103.222 264.978 103.222C263.538 103.222 262.371 103.975 262.371 104.904C262.371 105.833 263.538 106.586 264.978 106.586Z" fill="#422E31"/>
<path d="M264.894 106.71C264.894 107.299 264.978 107.888 264.389 108.224C263.843 108.561 263.044 108.35 262.581 107.972C262.413 107.804 262.161 108.056 262.329 108.224C262.876 108.687 263.759 108.939 264.432 108.603C265.231 108.224 265.231 107.551 265.231 106.752C265.231 106.5 264.894 106.5 264.894 106.71Z" fill="#422E31"/>
<path d="M264.895 106.711C264.895 107.426 265.147 108.099 265.778 108.52C266.45 108.94 267.249 108.604 267.754 108.141C267.922 107.973 267.67 107.763 267.502 107.889C267.039 108.309 266.493 108.52 265.946 108.225C265.399 107.931 265.231 107.258 265.231 106.711C265.231 106.501 264.895 106.501 264.895 106.711Z" fill="#422E31"/>
<path d="M265.062 107.342C265.062 107.342 265.02 108.267 264.053 108.519C264.053 108.519 265.062 110.201 266.029 108.477C266.071 108.477 265.188 108.099 265.062 107.342Z" fill="#422E31"/>
<path d="M344.979 119.958C358.774 119.958 369.958 108.774 369.958 94.979C369.958 81.1835 358.774 70 344.979 70C331.183 70 320 81.1835 320 94.979C320 108.774 331.183 119.958 344.979 119.958Z" fill="#66C5A8"/>
<path d="M353.304 82.5738C351.959 85.2651 353.599 88.7975 356.963 90.4376C360.327 92.0776 364.112 91.2365 365.415 88.5032C366.761 85.8118 365.121 82.2794 361.757 80.6394C358.435 78.9994 354.65 79.8825 353.304 82.5738Z" fill="#232224"/>
<path d="M355.87 84.34C355.155 85.8118 355.996 87.7042 357.762 88.5873C359.528 89.4704 361.589 88.9657 362.304 87.4939C363.019 86.0221 362.178 84.1298 360.411 83.2467C358.603 82.3636 356.585 82.8682 355.87 84.34Z" fill="#C29C97"/>
<path d="M336.695 82.5738C338.04 85.2651 336.4 88.7975 333.036 90.4376C329.672 92.0776 325.887 91.2365 324.584 88.5032C323.238 85.8118 324.878 82.2794 328.242 80.6394C331.564 78.9994 335.349 79.8825 336.695 82.5738Z" fill="#232224"/>
<path d="M332.22 88.6212C333.991 87.7497 334.837 85.8438 334.109 84.3643C333.381 82.8849 331.355 82.3921 329.584 83.2637C327.813 84.1353 326.967 86.0411 327.695 87.5206C328.423 89 330.449 89.4928 332.22 88.6212Z" fill="#C29C97"/>
<path d="M344.979 114.87C355.802 114.87 364.575 107.509 364.575 98.4277C364.575 89.3469 355.802 81.9854 344.979 81.9854C334.156 81.9854 325.383 89.3469 325.383 98.4277C325.383 107.509 334.156 114.87 344.979 114.87Z" fill="white"/>
<path d="M347.797 95.5675C346.03 97.6281 346.871 101.245 349.689 103.642C352.506 106.038 356.207 106.249 357.973 104.188C359.739 102.086 358.898 98.4691 356.081 96.1142C353.263 93.7172 349.563 93.5069 347.797 95.5675Z" fill="black"/>
<path d="M342.204 95.5675C343.97 97.6701 343.129 101.287 340.311 103.642C337.494 106.038 333.793 106.249 332.027 104.188C330.261 102.086 331.102 98.4691 333.919 96.1142C336.695 93.7172 340.437 93.5069 342.204 95.5675Z" fill="black"/>
<path d="M338.419 102.422C339.58 102.422 340.522 101.481 340.522 100.319C340.522 99.1582 339.58 98.2168 338.419 98.2168C337.258 98.2168 336.316 99.1582 336.316 100.319C336.316 101.481 337.258 102.422 338.419 102.422Z" fill="white"/>
<path d="M339.681 100.698C339.681 101.413 339.093 101.96 338.42 101.96C337.705 101.96 337.158 101.371 337.158 100.698C337.158 99.9832 337.747 99.4365 338.42 99.4365C339.093 99.4365 339.681 100.025 339.681 100.698Z" fill="#1F0C00"/>
<path d="M338.041 100.193C338.041 100.487 337.83 100.698 337.536 100.698C337.242 100.698 337.031 100.487 337.031 100.193C337.031 99.8987 337.242 99.6885 337.536 99.6885C337.788 99.6885 338.041 99.9408 338.041 100.193Z" fill="white"/>
<path d="M338.671 100.446C338.671 100.572 338.544 100.698 338.418 100.698C338.292 100.698 338.166 100.572 338.166 100.446C338.166 100.32 338.292 100.193 338.418 100.193C338.544 100.193 338.671 100.32 338.671 100.446Z" fill="white"/>
<path d="M351.624 102.422C352.785 102.422 353.727 101.481 353.727 100.319C353.727 99.1582 352.785 98.2168 351.624 98.2168C350.463 98.2168 349.521 99.1582 349.521 100.319C349.521 101.481 350.463 102.422 351.624 102.422Z" fill="white"/>
<path d="M352.927 100.698C352.927 101.413 352.339 101.96 351.666 101.96C350.951 101.96 350.404 101.371 350.404 100.698C350.404 99.9832 350.993 99.4365 351.666 99.4365C352.339 99.4365 352.927 100.025 352.927 100.698Z" fill="#1F0C00"/>
<path d="M351.246 100.193C351.246 100.487 351.035 100.698 350.741 100.698C350.447 100.698 350.236 100.487 350.236 100.193C350.236 99.8987 350.447 99.6885 350.741 99.6885C351.035 99.6885 351.246 99.9408 351.246 100.193Z" fill="white"/>
<path d="M351.876 100.446C351.876 100.572 351.75 100.698 351.623 100.698C351.497 100.698 351.371 100.572 351.371 100.446C351.371 100.32 351.497 100.193 351.623 100.193C351.792 100.193 351.876 100.32 351.876 100.446Z" fill="white"/>
<path d="M344.978 106.586C346.418 106.586 347.586 105.833 347.586 104.904C347.586 103.975 346.418 103.222 344.978 103.222C343.538 103.222 342.371 103.975 342.371 104.904C342.371 105.833 343.538 106.586 344.978 106.586Z" fill="#422E31"/>
<path d="M344.894 106.71C344.894 107.299 344.978 107.888 344.389 108.224C343.843 108.561 343.044 108.35 342.581 107.972C342.413 107.804 342.161 108.056 342.329 108.224C342.876 108.687 343.759 108.939 344.432 108.603C345.231 108.224 345.231 107.551 345.231 106.752C345.231 106.5 344.894 106.5 344.894 106.71Z" fill="#422E31"/>
<path d="M344.895 106.711C344.895 107.426 345.147 108.099 345.778 108.52C346.45 108.94 347.249 108.604 347.754 108.141C347.922 107.973 347.67 107.763 347.502 107.889C347.039 108.309 346.493 108.52 345.946 108.225C345.399 107.931 345.231 107.258 345.231 106.711C345.231 106.501 344.895 106.501 344.895 106.711Z" fill="#422E31"/>
<path d="M345.062 107.342C345.062 107.342 345.02 108.267 344.053 108.519C344.053 108.519 345.062 110.201 346.029 108.477C346.071 108.477 345.188 108.099 345.062 107.342Z" fill="#422E31"/>
<path d="M24.979 189.958C38.7745 189.958 49.958 178.774 49.958 164.979C49.958 151.183 38.7745 140 24.979 140C11.1835 140 0 151.183 0 164.979C0 178.774 11.1835 189.958 24.979 189.958Z" fill="#66C5A8"/>
<path d="M33.3044 152.574C31.9588 155.265 33.5988 158.798 36.963 160.438C40.3271 162.078 44.1118 161.237 45.4155 158.503C46.7611 155.812 45.1211 152.279 41.7569 150.639C38.4348 148.999 34.6501 149.882 33.3044 152.574Z" fill="#232224"/>
<path d="M35.8698 154.34C35.1549 155.812 35.996 157.704 37.7622 158.587C39.5284 159.47 41.5889 158.966 42.3038 157.494C43.0187 156.022 42.1776 154.13 40.4114 153.247C38.6032 152.364 36.5847 152.868 35.8698 154.34Z" fill="#C29C97"/>
<path d="M16.6948 152.574C18.0404 155.265 16.4004 158.798 13.0362 160.438C9.67205 162.078 5.88735 161.237 4.58373 158.503C3.23807 155.812 4.8781 152.279 8.24227 150.639C11.5644 148.999 15.3491 149.882 16.6948 152.574Z" fill="#232224"/>
<path d="M12.2203 158.621C13.9915 157.75 14.8371 155.844 14.1091 154.364C13.3811 152.885 11.3551 152.392 9.58393 153.264C7.81277 154.135 6.96713 156.041 7.69514 157.521C8.42316 159 10.4491 159.493 12.2203 158.621Z" fill="#C29C97"/>
<path d="M24.9791 184.87C35.8018 184.87 44.5754 177.509 44.5754 168.428C44.5754 159.347 35.8018 151.985 24.9791 151.985C14.1564 151.985 5.38281 159.347 5.38281 168.428C5.38281 177.509 14.1564 184.87 24.9791 184.87Z" fill="white"/>
<path d="M27.7966 165.568C26.0304 167.628 26.8714 171.245 29.6889 173.642C32.5064 176.038 36.207 176.249 37.9732 174.188C39.7394 172.086 38.8983 168.469 36.0808 166.114C33.2634 163.717 29.5628 163.507 27.7966 165.568Z" fill="black"/>
<path d="M22.2036 165.568C23.9698 167.67 23.1288 171.287 20.3113 173.642C17.4938 176.038 13.7932 176.249 12.027 174.188C10.2608 172.086 11.1019 168.469 13.9194 166.114C16.6948 163.717 20.4374 163.507 22.2036 165.568Z" fill="black"/>
<path d="M18.419 172.422C19.5803 172.422 20.5216 171.481 20.5216 170.319C20.5216 169.158 19.5803 168.217 18.419 168.217C17.2578 168.217 16.3164 169.158 16.3164 170.319C16.3164 171.481 17.2578 172.422 18.419 172.422Z" fill="white"/>
<path d="M19.6813 170.698C19.6813 171.413 19.0926 171.96 18.4198 171.96C17.7049 171.96 17.1582 171.371 17.1582 170.698C17.1582 169.983 17.7469 169.437 18.4198 169.437C19.0926 169.437 19.6813 170.025 19.6813 170.698Z" fill="#1F0C00"/>
<path d="M18.0405 170.193C18.0405 170.487 17.8302 170.698 17.5359 170.698C17.2415 170.698 17.0312 170.487 17.0312 170.193C17.0312 169.899 17.2415 169.688 17.5359 169.688C17.7882 169.688 18.0405 169.941 18.0405 170.193Z" fill="white"/>
<path d="M18.6706 170.446C18.6706 170.572 18.5445 170.698 18.4183 170.698C18.2922 170.698 18.166 170.572 18.166 170.446C18.166 170.32 18.2922 170.193 18.4183 170.193C18.5445 170.193 18.6706 170.32 18.6706 170.446Z" fill="white"/>
<path d="M31.6241 172.422C32.7853 172.422 33.7267 171.481 33.7267 170.319C33.7267 169.158 32.7853 168.217 31.6241 168.217C30.4629 168.217 29.5215 169.158 29.5215 170.319C29.5215 171.481 30.4629 172.422 31.6241 172.422Z" fill="white"/>
<path d="M32.9274 170.698C32.9274 171.413 32.3387 171.96 31.6659 171.96C30.951 171.96 30.4043 171.371 30.4043 170.698C30.4043 169.983 30.993 169.437 31.6659 169.437C32.3387 169.437 32.9274 170.025 32.9274 170.698Z" fill="#1F0C00"/>
<path d="M31.2456 170.193C31.2456 170.487 31.0353 170.698 30.741 170.698C30.4466 170.698 30.2363 170.487 30.2363 170.193C30.2363 169.899 30.4466 169.688 30.741 169.688C31.0353 169.688 31.2456 169.941 31.2456 170.193Z" fill="white"/>
<path d="M31.8757 170.446C31.8757 170.572 31.7496 170.698 31.6234 170.698C31.4972 170.698 31.3711 170.572 31.3711 170.446C31.3711 170.32 31.4972 170.193 31.6234 170.193C31.7916 170.193 31.8757 170.32 31.8757 170.446Z" fill="white"/>
<path d="M24.9783 176.586C26.4183 176.586 27.5856 175.833 27.5856 174.904C27.5856 173.975 26.4183 173.222 24.9783 173.222C23.5384 173.222 22.3711 173.975 22.3711 174.904C22.3711 175.833 23.5384 176.586 24.9783 176.586Z" fill="#422E31"/>
<path d="M24.8941 176.71C24.8941 177.299 24.9782 177.888 24.3895 178.224C23.8428 178.561 23.0438 178.35 22.5812 177.972C22.413 177.804 22.1607 178.056 22.3289 178.224C22.8756 178.687 23.7587 178.939 24.4315 178.603C25.2305 178.224 25.2305 177.551 25.2305 176.752C25.2305 176.5 24.8941 176.5 24.8941 176.71Z" fill="#422E31"/>
<path d="M24.8945 176.711C24.8945 177.426 25.1468 178.099 25.7776 178.52C26.4505 178.94 27.2494 178.604 27.7541 178.141C27.9223 177.973 27.67 177.763 27.5018 177.889C27.0392 178.309 26.4925 178.52 25.9458 178.225C25.3992 177.931 25.2309 177.258 25.2309 176.711C25.2309 176.501 24.8945 176.501 24.8945 176.711Z" fill="#422E31"/>
<path d="M25.062 177.342C25.062 177.342 25.0199 178.267 24.0527 178.519C24.0527 178.519 25.062 180.201 26.0292 178.477C26.0712 178.477 25.1881 178.099 25.062 177.342Z" fill="#422E31"/>
<path d="M104.979 189.958C118.774 189.958 129.958 178.774 129.958 164.979C129.958 151.183 118.774 140 104.979 140C91.1835 140 80 151.183 80 164.979C80 178.774 91.1835 189.958 104.979 189.958Z" fill="#66C5A8"/>
<path d="M113.304 152.574C111.959 155.265 113.599 158.798 116.963 160.438C120.327 162.078 124.112 161.237 125.415 158.503C126.761 155.812 125.121 152.279 121.757 150.639C118.435 148.999 114.65 149.882 113.304 152.574Z" fill="#232224"/>
<path d="M115.87 154.34C115.155 155.812 115.996 157.704 117.762 158.587C119.528 159.47 121.589 158.966 122.304 157.494C123.019 156.022 122.178 154.13 120.411 153.247C118.603 152.364 116.585 152.868 115.87 154.34Z" fill="#C29C97"/>
<path d="M96.6948 152.574C98.0404 155.265 96.4004 158.798 93.0362 160.438C89.672 162.078 85.8874 161.237 84.5837 158.503C83.2381 155.812 84.8781 152.279 88.2423 150.639C91.5644 148.999 95.3491 149.882 96.6948 152.574Z" fill="#232224"/>
<path d="M92.2203 158.621C93.9915 157.75 94.8371 155.844 94.1091 154.364C93.3811 152.885 91.3551 152.392 89.5839 153.264C87.8128 154.135 86.9671 156.041 87.6951 157.521C88.4232 159 90.4491 159.493 92.2203 158.621Z" fill="#C29C97"/>
<path d="M104.979 184.87C115.802 184.87 124.575 177.509 124.575 168.428C124.575 159.347 115.802 151.985 104.979 151.985C94.1564 151.985 85.3828 159.347 85.3828 168.428C85.3828 177.509 94.1564 184.87 104.979 184.87Z" fill="white"/>
<path d="M107.797 165.568C106.03 167.628 106.871 171.245 109.689 173.642C112.506 176.038 116.207 176.249 117.973 174.188C119.739 172.086 118.898 168.469 116.081 166.114C113.263 163.717 109.563 163.507 107.797 165.568Z" fill="black"/>
<path d="M102.204 165.568C103.97 167.67 103.129 171.287 100.311 173.642C97.4938 176.038 93.7932 176.249 92.027 174.188C90.2608 172.086 91.1019 168.469 93.9194 166.114C96.6948 163.717 100.437 163.507 102.204 165.568Z" fill="black"/>
<path d="M98.419 172.422C99.5803 172.422 100.522 171.481 100.522 170.319C100.522 169.158 99.5803 168.217 98.419 168.217C97.2578 168.217 96.3164 169.158 96.3164 170.319C96.3164 171.481 97.2578 172.422 98.419 172.422Z" fill="white"/>
<path d="M99.6813 170.698C99.6813 171.413 99.0926 171.96 98.4198 171.96C97.7049 171.96 97.1582 171.371 97.1582 170.698C97.1582 169.983 97.7469 169.437 98.4198 169.437C99.0926 169.437 99.6813 170.025 99.6813 170.698Z" fill="#1F0C00"/>
<path d="M98.0405 170.193C98.0405 170.487 97.8302 170.698 97.5359 170.698C97.2415 170.698 97.0312 170.487 97.0312 170.193C97.0312 169.899 97.2415 169.688 97.5359 169.688C97.7882 169.688 98.0405 169.941 98.0405 170.193Z" fill="white"/>
<path d="M98.6706 170.446C98.6706 170.572 98.5445 170.698 98.4183 170.698C98.2922 170.698 98.166 170.572 98.166 170.446C98.166 170.32 98.2922 170.193 98.4183 170.193C98.5445 170.193 98.6706 170.32 98.6706 170.446Z" fill="white"/>
<path d="M111.624 172.422C112.785 172.422 113.727 171.481 113.727 170.319C113.727 169.158 112.785 168.217 111.624 168.217C110.463 168.217 109.521 169.158 109.521 170.319C109.521 171.481 110.463 172.422 111.624 172.422Z" fill="white"/>
<path d="M112.927 170.698C112.927 171.413 112.339 171.96 111.666 171.96C110.951 171.96 110.404 171.371 110.404 170.698C110.404 169.983 110.993 169.437 111.666 169.437C112.339 169.437 112.927 170.025 112.927 170.698Z" fill="#1F0C00"/>
<path d="M111.246 170.193C111.246 170.487 111.035 170.698 110.741 170.698C110.447 170.698 110.236 170.487 110.236 170.193C110.236 169.899 110.447 169.688 110.741 169.688C111.035 169.688 111.246 169.941 111.246 170.193Z" fill="white"/>
<path d="M111.876 170.446C111.876 170.572 111.75 170.698 111.623 170.698C111.497 170.698 111.371 170.572 111.371 170.446C111.371 170.32 111.497 170.193 111.623 170.193C111.792 170.193 111.876 170.32 111.876 170.446Z" fill="white"/>
<path d="M104.978 176.586C106.418 176.586 107.586 175.833 107.586 174.904C107.586 173.975 106.418 173.222 104.978 173.222C103.538 173.222 102.371 173.975 102.371 174.904C102.371 175.833 103.538 176.586 104.978 176.586Z" fill="#422E31"/>
<path d="M104.894 176.71C104.894 177.299 104.978 177.888 104.389 178.224C103.843 178.561 103.044 178.35 102.581 177.972C102.413 177.804 102.161 178.056 102.329 178.224C102.876 178.687 103.759 178.939 104.432 178.603C105.231 178.224 105.231 177.551 105.231 176.752C105.231 176.5 104.894 176.5 104.894 176.71Z" fill="#422E31"/>
<path d="M104.895 176.711C104.895 177.426 105.147 178.099 105.778 178.52C106.45 178.94 107.249 178.604 107.754 178.141C107.922 177.973 107.67 177.763 107.502 177.889C107.039 178.309 106.493 178.52 105.946 178.225C105.399 177.931 105.231 177.258 105.231 176.711C105.231 176.501 104.895 176.501 104.895 176.711Z" fill="#422E31"/>
<path d="M105.062 177.342C105.062 177.342 105.02 178.267 104.053 178.519C104.053 178.519 105.062 180.201 106.029 178.477C106.071 178.477 105.188 178.099 105.062 177.342Z" fill="#422E31"/>
<path d="M184.979 189.958C198.774 189.958 209.958 178.774 209.958 164.979C209.958 151.183 198.774 140 184.979 140C171.183 140 160 151.183 160 164.979C160 178.774 171.183 189.958 184.979 189.958Z" fill="#66C5A8"/>
<path d="M193.304 152.574C191.959 155.265 193.599 158.798 196.963 160.438C200.327 162.078 204.112 161.237 205.415 158.503C206.761 155.812 205.121 152.279 201.757 150.639C198.435 148.999 194.65 149.882 193.304 152.574Z" fill="#232224"/>
<path d="M195.87 154.34C195.155 155.812 195.996 157.704 197.762 158.587C199.528 159.47 201.589 158.966 202.304 157.494C203.019 156.022 202.178 154.13 200.411 153.247C198.603 152.364 196.585 152.868 195.87 154.34Z" fill="#C29C97"/>
<path d="M176.695 152.574C178.04 155.265 176.4 158.798 173.036 160.438C169.672 162.078 165.887 161.237 164.584 158.503C163.238 155.812 164.878 152.279 168.242 150.639C171.564 148.999 175.349 149.882 176.695 152.574Z" fill="#232224"/>
<path d="M172.22 158.621C173.991 157.75 174.837 155.844 174.109 154.364C173.381 152.885 171.355 152.392 169.584 153.264C167.813 154.135 166.967 156.041 167.695 157.521C168.423 159 170.449 159.493 172.22 158.621Z" fill="#C29C97"/>
<path d="M184.979 184.87C195.802 184.87 204.575 177.509 204.575 168.428C204.575 159.347 195.802 151.985 184.979 151.985C174.156 151.985 165.383 159.347 165.383 168.428C165.383 177.509 174.156 184.87 184.979 184.87Z" fill="white"/>
<path d="M187.797 165.568C186.03 167.628 186.871 171.245 189.689 173.642C192.506 176.038 196.207 176.249 197.973 174.188C199.739 172.086 198.898 168.469 196.081 166.114C193.263 163.717 189.563 163.507 187.797 165.568Z" fill="black"/>
<path d="M182.204 165.568C183.97 167.67 183.129 171.287 180.311 173.642C177.494 176.038 173.793 176.249 172.027 174.188C170.261 172.086 171.102 168.469 173.919 166.114C176.695 163.717 180.437 163.507 182.204 165.568Z" fill="black"/>
<path d="M178.419 172.422C179.58 172.422 180.522 171.481 180.522 170.319C180.522 169.158 179.58 168.217 178.419 168.217C177.258 168.217 176.316 169.158 176.316 170.319C176.316 171.481 177.258 172.422 178.419 172.422Z" fill="white"/>
<path d="M179.681 170.698C179.681 171.413 179.093 171.96 178.42 171.96C177.705 171.96 177.158 171.371 177.158 170.698C177.158 169.983 177.747 169.437 178.42 169.437C179.093 169.437 179.681 170.025 179.681 170.698Z" fill="#1F0C00"/>
<path d="M178.041 170.193C178.041 170.487 177.83 170.698 177.536 170.698C177.242 170.698 177.031 170.487 177.031 170.193C177.031 169.899 177.242 169.688 177.536 169.688C177.788 169.688 178.041 169.941 178.041 170.193Z" fill="white"/>
<path d="M178.671 170.446C178.671 170.572 178.544 170.698 178.418 170.698C178.292 170.698 178.166 170.572 178.166 170.446C178.166 170.32 178.292 170.193 178.418 170.193C178.544 170.193 178.671 170.32 178.671 170.446Z" fill="white"/>
<path d="M191.624 172.422C192.785 172.422 193.727 171.481 193.727 170.319C193.727 169.158 192.785 168.217 191.624 168.217C190.463 168.217 189.521 169.158 189.521 170.319C189.521 171.481 190.463 172.422 191.624 172.422Z" fill="white"/>
<path d="M192.927 170.698C192.927 171.413 192.339 171.96 191.666 171.96C190.951 171.96 190.404 171.371 190.404 170.698C190.404 169.983 190.993 169.437 191.666 169.437C192.339 169.437 192.927 170.025 192.927 170.698Z" fill="#1F0C00"/>
<path d="M191.246 170.193C191.246 170.487 191.035 170.698 190.741 170.698C190.447 170.698 190.236 170.487 190.236 170.193C190.236 169.899 190.447 169.688 190.741 169.688C191.035 169.688 191.246 169.941 191.246 170.193Z" fill="white"/>
<path d="M191.876 170.446C191.876 170.572 191.75 170.698 191.623 170.698C191.497 170.698 191.371 170.572 191.371 170.446C191.371 170.32 191.497 170.193 191.623 170.193C191.792 170.193 191.876 170.32 191.876 170.446Z" fill="white"/>
<path d="M184.978 176.586C186.418 176.586 187.586 175.833 187.586 174.904C187.586 173.975 186.418 173.222 184.978 173.222C183.538 173.222 182.371 173.975 182.371 174.904C182.371 175.833 183.538 176.586 184.978 176.586Z" fill="#422E31"/>
<path d="M184.894 176.71C184.894 177.299 184.978 177.888 184.389 178.224C183.843 178.561 183.044 178.35 182.581 177.972C182.413 177.804 182.161 178.056 182.329 178.224C182.876 178.687 183.759 178.939 184.432 178.603C185.231 178.224 185.231 177.551 185.231 176.752C185.231 176.5 184.894 176.5 184.894 176.71Z" fill="#422E31"/>
<path d="M184.895 176.711C184.895 177.426 185.147 178.099 185.778 178.52C186.45 178.94 187.249 178.604 187.754 178.141C187.922 177.973 187.67 177.763 187.502 177.889C187.039 178.309 186.493 178.52 185.946 178.225C185.399 177.931 185.231 177.258 185.231 176.711C185.231 176.501 184.895 176.501 184.895 176.711Z" fill="#422E31"/>
<path d="M185.062 177.342C185.062 177.342 185.02 178.267 184.053 178.519C184.053 178.519 185.062 180.201 186.029 178.477C186.071 178.477 185.188 178.099 185.062 177.342Z" fill="#422E31"/>
<path d="M264.979 189.958C278.774 189.958 289.958 178.774 289.958 164.979C289.958 151.183 278.774 140 264.979 140C251.183 140 240 151.183 240 164.979C240 178.774 251.183 189.958 264.979 189.958Z" fill="#66C5A8"/>
<path d="M273.304 152.574C271.959 155.265 273.599 158.798 276.963 160.438C280.327 162.078 284.112 161.237 285.415 158.503C286.761 155.812 285.121 152.279 281.757 150.639C278.435 148.999 274.65 149.882 273.304 152.574Z" fill="#232224"/>
<path d="M275.87 154.34C275.155 155.812 275.996 157.704 277.762 158.587C279.528 159.47 281.589 158.966 282.304 157.494C283.019 156.022 282.178 154.13 280.411 153.247C278.603 152.364 276.585 152.868 275.87 154.34Z" fill="#C29C97"/>
<path d="M256.695 152.574C258.04 155.265 256.4 158.798 253.036 160.438C249.672 162.078 245.887 161.237 244.584 158.503C243.238 155.812 244.878 152.279 248.242 150.639C251.564 148.999 255.349 149.882 256.695 152.574Z" fill="#232224"/>
<path d="M252.22 158.621C253.991 157.75 254.837 155.844 254.109 154.364C253.381 152.885 251.355 152.392 249.584 153.264C247.813 154.135 246.967 156.041 247.695 157.521C248.423 159 250.449 159.493 252.22 158.621Z" fill="#C29C97"/>
<path d="M264.979 184.87C275.802 184.87 284.575 177.509 284.575 168.428C284.575 159.347 275.802 151.985 264.979 151.985C254.156 151.985 245.383 159.347 245.383 168.428C245.383 177.509 254.156 184.87 264.979 184.87Z" fill="white"/>
<path d="M267.797 165.568C266.03 167.628 266.871 171.245 269.689 173.642C272.506 176.038 276.207 176.249 277.973 174.188C279.739 172.086 278.898 168.469 276.081 166.114C273.263 163.717 269.563 163.507 267.797 165.568Z" fill="black"/>
<path d="M262.204 165.568C263.97 167.67 263.129 171.287 260.311 173.642C257.494 176.038 253.793 176.249 252.027 174.188C250.261 172.086 251.102 168.469 253.919 166.114C256.695 163.717 260.437 163.507 262.204 165.568Z" fill="black"/>
<path d="M258.419 172.422C259.58 172.422 260.522 171.481 260.522 170.319C260.522 169.158 259.58 168.217 258.419 168.217C257.258 168.217 256.316 169.158 256.316 170.319C256.316 171.481 257.258 172.422 258.419 172.422Z" fill="white"/>
<path d="M259.681 170.698C259.681 171.413 259.093 171.96 258.42 171.96C257.705 171.96 257.158 171.371 257.158 170.698C257.158 169.983 257.747 169.437 258.42 169.437C259.093 169.437 259.681 170.025 259.681 170.698Z" fill="#1F0C00"/>
<path d="M258.041 170.193C258.041 170.487 257.83 170.698 257.536 170.698C257.242 170.698 257.031 170.487 257.031 170.193C257.031 169.899 257.242 169.688 257.536 169.688C257.788 169.688 258.041 169.941 258.041 170.193Z" fill="white"/>
<path d="M258.671 170.446C258.671 170.572 258.544 170.698 258.418 170.698C258.292 170.698 258.166 170.572 258.166 170.446C258.166 170.32 258.292 170.193 258.418 170.193C258.544 170.193 258.671 170.32 258.671 170.446Z" fill="white"/>
<path d="M271.624 172.422C272.785 172.422 273.727 171.481 273.727 170.319C273.727 169.158 272.785 168.217 271.624 168.217C270.463 168.217 269.521 169.158 269.521 170.319C269.521 171.481 270.463 172.422 271.624 172.422Z" fill="white"/>
<path d="M272.927 170.698C272.927 171.413 272.339 171.96 271.666 171.96C270.951 171.96 270.404 171.371 270.404 170.698C270.404 169.983 270.993 169.437 271.666 169.437C272.339 169.437 272.927 170.025 272.927 170.698Z" fill="#1F0C00"/>
<path d="M271.246 170.193C271.246 170.487 271.035 170.698 270.741 170.698C270.447 170.698 270.236 170.487 270.236 170.193C270.236 169.899 270.447 169.688 270.741 169.688C271.035 169.688 271.246 169.941 271.246 170.193Z" fill="white"/>
<path d="M271.876 170.446C271.876 170.572 271.75 170.698 271.623 170.698C271.497 170.698 271.371 170.572 271.371 170.446C271.371 170.32 271.497 170.193 271.623 170.193C271.792 170.193 271.876 170.32 271.876 170.446Z" fill="white"/>
<path d="M264.978 176.586C266.418 176.586 267.586 175.833 267.586 174.904C267.586 173.975 266.418 173.222 264.978 173.222C263.538 173.222 262.371 173.975 262.371 174.904C262.371 175.833 263.538 176.586 264.978 176.586Z" fill="#422E31"/>
<path d="M264.894 176.71C264.894 177.299 264.978 177.888 264.389 178.224C263.843 178.561 263.044 178.35 262.581 177.972C262.413 177.804 262.161 178.056 262.329 178.224C262.876 178.687 263.759 178.939 264.432 178.603C265.231 178.224 265.231 177.551 265.231 176.752C265.231 176.5 264.894 176.5 264.894 176.71Z" fill="#422E31"/>
<path d="M264.895 176.711C264.895 177.426 265.147 178.099 265.778 178.52C266.45 178.94 267.249 178.604 267.754 178.141C267.922 177.973 267.67 177.763 267.502 177.889C267.039 178.309 266.493 178.52 265.946 178.225C265.399 177.931 265.231 177.258 265.231 176.711C265.231 176.501 264.895 176.501 264.895 176.711Z" fill="#422E31"/>
<path d="M265.062 177.342C265.062 177.342 265.02 178.267 264.053 178.519C264.053 178.519 265.062 180.201 266.029 178.477C266.071 178.477 265.188 178.099 265.062 177.342Z" fill="#422E31"/>
<path d="M344.979 189.958C358.774 189.958 369.958 178.774 369.958 164.979C369.958 151.183 358.774 140 344.979 140C331.183 140 320 151.183 320 164.979C320 178.774 331.183 189.958 344.979 189.958Z" fill="#66C5A8"/>
<path d="M353.304 152.574C351.959 155.265 353.599 158.798 356.963 160.438C360.327 162.078 364.112 161.237 365.415 158.503C366.761 155.812 365.121 152.279 361.757 150.639C358.435 148.999 354.65 149.882 353.304 152.574Z" fill="#232224"/>
<path d="M355.87 154.34C355.155 155.812 355.996 157.704 357.762 158.587C359.528 159.47 361.589 158.966 362.304 157.494C363.019 156.022 362.178 154.13 360.411 153.247C358.603 152.364 356.585 152.868 355.87 154.34Z" fill="#C29C97"/>
<path d="M336.695 152.574C338.04 155.265 336.4 158.798 333.036 160.438C329.672 162.078 325.887 161.237 324.584 158.503C323.238 155.812 324.878 152.279 328.242 150.639C331.564 148.999 335.349 149.882 336.695 152.574Z" fill="#232224"/>
<path d="M332.22 158.621C333.991 157.75 334.837 155.844 334.109 154.364C333.381 152.885 331.355 152.392 329.584 153.264C327.813 154.135 326.967 156.041 327.695 157.521C328.423 159 330.449 159.493 332.22 158.621Z" fill="#C29C97"/>
<path d="M344.979 184.87C355.802 184.87 364.575 177.509 364.575 168.428C364.575 159.347 355.802 151.985 344.979 151.985C334.156 151.985 325.383 159.347 325.383 168.428C325.383 177.509 334.156 184.87 344.979 184.87Z" fill="white"/>
<path d="M347.797 165.568C346.03 167.628 346.871 171.245 349.689 173.642C352.506 176.038 356.207 176.249 357.973 174.188C359.739 172.086 358.898 168.469 356.081 166.114C353.263 163.717 349.563 163.507 347.797 165.568Z" fill="black"/>
<path d="M342.204 165.568C343.97 167.67 343.129 171.287 340.311 173.642C337.494 176.038 333.793 176.249 332.027 174.188C330.261 172.086 331.102 168.469 333.919 166.114C336.695 163.717 340.437 163.507 342.204 165.568Z" fill="black"/>
<path d="M338.419 172.422C339.58 172.422 340.522 171.481 340.522 170.319C340.522 169.158 339.58 168.217 338.419 168.217C337.258 168.217 336.316 169.158 336.316 170.319C336.316 171.481 337.258 172.422 338.419 172.422Z" fill="white"/>
<path d="M339.681 170.698C339.681 171.413 339.093 171.96 338.42 171.96C337.705 171.96 337.158 171.371 337.158 170.698C337.158 169.983 337.747 169.437 338.42 169.437C339.093 169.437 339.681 170.025 339.681 170.698Z" fill="#1F0C00"/>
<path d="M338.041 170.193C338.041 170.487 337.83 170.698 337.536 170.698C337.242 170.698 337.031 170.487 337.031 170.193C337.031 169.899 337.242 169.688 337.536 169.688C337.788 169.688 338.041 169.941 338.041 170.193Z" fill="white"/>
<path d="M338.671 170.446C338.671 170.572 338.544 170.698 338.418 170.698C338.292 170.698 338.166 170.572 338.166 170.446C338.166 170.32 338.292 170.193 338.418 170.193C338.544 170.193 338.671 170.32 338.671 170.446Z" fill="white"/>
<path d="M351.624 172.422C352.785 172.422 353.727 171.481 353.727 170.319C353.727 169.158 352.785 168.217 351.624 168.217C350.463 168.217 349.521 169.158 349.521 170.319C349.521 171.481 350.463 172.422 351.624 172.422Z" fill="white"/>
<path d="M352.927 170.698C352.927 171.413 352.339 171.96 351.666 171.96C350.951 171.96 350.404 171.371 350.404 170.698C350.404 169.983 350.993 169.437 351.666 169.437C352.339 169.437 352.927 170.025 352.927 170.698Z" fill="#1F0C00"/>
<path d="M351.246 170.193C351.246 170.487 351.035 170.698 350.741 170.698C350.447 170.698 350.236 170.487 350.236 170.193C350.236 169.899 350.447 169.688 350.741 169.688C351.035 169.688 351.246 169.941 351.246 170.193Z" fill="white"/>
<path d="M351.876 170.446C351.876 170.572 351.75 170.698 351.623 170.698C351.497 170.698 351.371 170.572 351.371 170.446C351.371 170.32 351.497 170.193 351.623 170.193C351.792 170.193 351.876 170.32 351.876 170.446Z" fill="white"/>
<path d="M344.978 176.586C346.418 176.586 347.586 175.833 347.586 174.904C347.586 173.975 346.418 173.222 344.978 173.222C343.538 173.222 342.371 173.975 342.371 174.904C342.371 175.833 343.538 176.586 344.978 176.586Z" fill="#422E31"/>
<path d="M344.894 176.71C344.894 177.299 344.978 177.888 344.389 178.224C343.843 178.561 343.044 178.35 342.581 177.972C342.413 177.804 342.161 178.056 342.329 178.224C342.876 178.687 343.759 178.939 344.432 178.603C345.231 178.224 345.231 177.551 345.231 176.752C345.231 176.5 344.894 176.5 344.894 176.71Z" fill="#422E31"/>
<path d="M344.895 176.711C344.895 177.426 345.147 178.099 345.778 178.52C346.45 178.94 347.249 178.604 347.754 178.141C347.922 177.973 347.67 177.763 347.502 177.889C347.039 178.309 346.493 178.52 345.946 178.225C345.399 177.931 345.231 177.258 345.231 176.711C345.231 176.501 344.895 176.501 344.895 176.711Z" fill="#422E31"/>
<path d="M345.062 177.342C345.062 177.342 345.02 178.267 344.053 178.519C344.053 178.519 345.062 180.201 346.029 178.477C346.071 178.477 345.188 178.099 345.062 177.342Z" fill="#422E31"/>
</svg>
