<svg width="171" height="115" viewBox="0 0 171 115" fill="none" xmlns="http://www.w3.org/2000/svg">
<path d="M22.7499 28.644C21.4779 28.644 20.3319 28.368 19.3119 27.816C18.2919 27.252 17.4879 26.478 16.8999 25.494C16.3239 24.51 16.0359 23.412 16.0359 22.2C16.0359 20.988 16.3239 19.89 16.8999 18.906C17.4879 17.922 18.2919 17.154 19.3119 16.602C20.3319 16.038 21.4779 15.756 22.7499 15.756C24.0099 15.756 25.1499 16.038 26.1699 16.602C27.1899 17.154 27.9879 17.922 28.5639 18.906C29.1399 19.878 29.4279 20.976 29.4279 22.2C29.4279 23.424 29.1399 24.528 28.5639 25.512C27.9879 26.484 27.1899 27.252 26.1699 27.816C25.1499 28.368 24.0099 28.644 22.7499 28.644ZM22.7499 27.042C23.6739 27.042 24.5019 26.832 25.2339 26.412C25.9779 25.992 26.5599 25.416 26.9799 24.684C27.4119 23.94 27.6279 23.112 27.6279 22.2C27.6279 21.288 27.4119 20.466 26.9799 19.734C26.5599 18.99 25.9779 18.408 25.2339 17.988C24.5019 17.568 23.6739 17.358 22.7499 17.358C21.8259 17.358 20.9859 17.568 20.2299 17.988C19.4859 18.408 18.8979 18.99 18.4659 19.734C18.0459 20.466 17.8359 21.288 17.8359 22.2C17.8359 23.112 18.0459 23.94 18.4659 24.684C18.8979 25.416 19.4859 25.992 20.2299 26.412C20.9859 26.832 21.8259 27.042 22.7499 27.042ZM40.9271 15.144V28.5H39.2711V26.988C38.8871 27.516 38.4011 27.918 37.8131 28.194C37.2251 28.47 36.5771 28.608 35.8691 28.608C34.9451 28.608 34.1171 28.404 33.3851 27.996C32.6531 27.588 32.0771 27.018 31.6571 26.286C31.2491 25.542 31.0451 24.69 31.0451 23.73C31.0451 22.77 31.2491 21.924 31.6571 21.192C32.0771 20.46 32.6531 19.89 33.3851 19.482C34.1171 19.074 34.9451 18.87 35.8691 18.87C36.5531 18.87 37.1831 19.002 37.7591 19.266C38.3351 19.518 38.8151 19.896 39.1991 20.4V15.144H40.9271ZM36.0131 27.096C36.6131 27.096 37.1591 26.958 37.6511 26.682C38.1431 26.394 38.5271 25.998 38.8031 25.494C39.0791 24.978 39.2171 24.39 39.2171 23.73C39.2171 23.07 39.0791 22.488 38.8031 21.984C38.5271 21.468 38.1431 21.072 37.6511 20.796C37.1591 20.52 36.6131 20.382 36.0131 20.382C35.4011 20.382 34.8491 20.52 34.3571 20.796C33.8771 21.072 33.4931 21.468 33.2051 21.984C32.9291 22.488 32.7911 23.07 32.7911 23.73C32.7911 24.39 32.9291 24.978 33.2051 25.494C33.4931 25.998 33.8771 26.394 34.3571 26.682C34.8491 26.958 35.4011 27.096 36.0131 27.096ZM53.1966 15.144V28.5H51.5406V26.988C51.1566 27.516 50.6706 27.918 50.0826 28.194C49.4946 28.47 48.8466 28.608 48.1386 28.608C47.2146 28.608 46.3866 28.404 45.6546 27.996C44.9226 27.588 44.3466 27.018 43.9266 26.286C43.5186 25.542 43.3146 24.69 43.3146 23.73C43.3146 22.77 43.5186 21.924 43.9266 21.192C44.3466 20.46 44.9226 19.89 45.6546 19.482C46.3866 19.074 47.2146 18.87 48.1386 18.87C48.8226 18.87 49.4526 19.002 50.0286 19.266C50.6046 19.518 51.0846 19.896 51.4686 20.4V15.144H53.1966ZM48.2826 27.096C48.8826 27.096 49.4286 26.958 49.9206 26.682C50.4126 26.394 50.7966 25.998 51.0726 25.494C51.3486 24.978 51.4866 24.39 51.4866 23.73C51.4866 23.07 51.3486 22.488 51.0726 21.984C50.7966 21.468 50.4126 21.072 49.9206 20.796C49.4286 20.52 48.8826 20.382 48.2826 20.382C47.6706 20.382 47.1186 20.52 46.6266 20.796C46.1466 21.072 45.7626 21.468 45.4746 21.984C45.1986 22.488 45.0606 23.07 45.0606 23.73C45.0606 24.39 45.1986 24.978 45.4746 25.494C45.7626 25.998 46.1466 26.394 46.6266 26.682C47.1186 26.958 47.6706 27.096 48.2826 27.096Z" fill="#2F2F2F"/>
<path d="M5 1H65V-1H5V1ZM69 5V40H71V5H69ZM65 44H5V46H65V44ZM1 40V5H-1V40H1ZM5 44C2.79086 44 1 42.2091 1 40H-1C-1 43.3137 1.68629 46 5 46V44ZM69 40C69 42.2091 67.2091 44 65 44V46C68.3137 46 71 43.3137 71 40H69ZM65 1C67.2091 1 69 2.79086 69 5H71C71 1.68629 68.3137 -1 65 -1V1ZM5 -1C1.68629 -1 -1 1.68629 -1 5H1C1 2.79086 2.79086 1 5 1V-1Z" fill="#2F2F2F"/>
<path d="M100 5C100 2.23858 102.239 0 105 0H165C167.761 0 170 2.23858 170 5V40C170 42.7614 167.761 45 165 45H105C102.239 45 100 42.7614 100 40V5Z" fill="#369CB7"/>
<path d="M123.552 26.934V28.5H114.408V15.9H123.3V17.466H116.208V21.336H122.526V22.866H116.208V26.934H123.552ZM134.498 18.96L130.322 28.5H128.558L124.382 18.96H126.182L129.458 26.61L132.806 18.96H134.498ZM144.469 23.784C144.469 23.916 144.457 24.09 144.433 24.306H136.693C136.801 25.146 137.167 25.824 137.791 26.34C138.427 26.844 139.213 27.096 140.149 27.096C141.289 27.096 142.207 26.712 142.903 25.944L143.857 27.06C143.425 27.564 142.885 27.948 142.237 28.212C141.601 28.476 140.887 28.608 140.095 28.608C139.087 28.608 138.193 28.404 137.413 27.996C136.633 27.576 136.027 26.994 135.595 26.25C135.175 25.506 134.965 24.666 134.965 23.73C134.965 22.806 135.169 21.972 135.577 21.228C135.997 20.484 136.567 19.908 137.287 19.5C138.019 19.08 138.841 18.87 139.753 18.87C140.665 18.87 141.475 19.08 142.183 19.5C142.903 19.908 143.461 20.484 143.857 21.228C144.265 21.972 144.469 22.824 144.469 23.784ZM139.753 20.328C138.925 20.328 138.229 20.58 137.665 21.084C137.113 21.588 136.789 22.248 136.693 23.064H142.813C142.717 22.26 142.387 21.606 141.823 21.102C141.271 20.586 140.581 20.328 139.753 20.328ZM151.962 18.87C153.174 18.87 154.134 19.224 154.842 19.932C155.562 20.628 155.922 21.654 155.922 23.01V28.5H154.194V23.208C154.194 22.284 153.972 21.588 153.528 21.12C153.084 20.652 152.448 20.418 151.62 20.418C150.684 20.418 149.946 20.694 149.406 21.246C148.866 21.786 148.596 22.566 148.596 23.586V28.5H146.868V18.96H148.524V20.4C148.872 19.908 149.34 19.53 149.928 19.266C150.528 19.002 151.206 18.87 151.962 18.87Z" fill="white"/>
<path d="M105 1H165V-1H105V1ZM169 5V40H171V5H169ZM165 44H105V46H165V44ZM101 40V5H99V40H101ZM105 44C102.791 44 101 42.2091 101 40H99C99 43.3137 101.686 46 105 46V44ZM169 40C169 42.2091 167.209 44 165 44V46C168.314 46 171 43.3137 171 40H169ZM165 1C167.209 1 169 2.79086 169 5H171C171 1.68629 168.314 -1 165 -1V1ZM105 -1C101.686 -1 99 1.68629 99 5H101C101 2.79086 102.791 1 105 1V-1Z" fill="#369CB7"/>
<path d="M21.7453 98.35C22.5733 98.35 23.3113 98.506 23.9593 98.818C24.6193 99.13 25.1353 99.58 25.5073 100.168C25.8793 100.744 26.0653 101.41 26.0653 102.166C26.0653 102.958 25.8673 103.654 25.4713 104.254C25.0873 104.854 24.5533 105.322 23.8693 105.658C23.1973 105.982 22.4413 106.144 21.6013 106.144C19.9093 106.144 18.6013 105.598 17.6773 104.506C16.7653 103.414 16.3093 101.866 16.3093 99.862C16.3093 98.458 16.5553 97.264 17.0473 96.28C17.5513 95.284 18.2473 94.534 19.1353 94.03C20.0353 93.514 21.0793 93.256 22.2673 93.256C22.8793 93.256 23.4553 93.322 23.9953 93.454C24.5353 93.574 25.0033 93.754 25.3993 93.994L24.7153 95.398C24.1153 95.002 23.3113 94.804 22.3033 94.804C20.9953 94.804 19.9693 95.212 19.2253 96.028C18.4813 96.832 18.1093 98.008 18.1093 99.556C18.1093 99.748 18.1153 99.898 18.1273 100.006C18.4873 99.466 18.9793 99.058 19.6033 98.782C20.2393 98.494 20.9533 98.35 21.7453 98.35ZM21.5293 104.686C22.3573 104.686 23.0293 104.464 23.5453 104.02C24.0613 103.576 24.3193 102.982 24.3193 102.238C24.3193 101.494 24.0553 100.906 23.5273 100.474C23.0113 100.03 22.3153 99.808 21.4393 99.808C20.8753 99.808 20.3713 99.916 19.9273 100.132C19.4953 100.348 19.1533 100.642 18.9013 101.014C18.6613 101.386 18.5413 101.8 18.5413 102.256C18.5413 102.7 18.6553 103.108 18.8833 103.48C19.1233 103.84 19.4653 104.134 19.9093 104.362C20.3653 104.578 20.9053 104.686 21.5293 104.686Z" fill="#2F2F2F"/>
<path d="M6 86H36V84H6V86ZM40 90V110H42V90H40ZM36 114H6V116H36V114ZM2 110V90H0V110H2ZM6 114C3.79086 114 2 112.209 2 110H0C0 113.314 2.68629 116 6 116V114ZM40 110C40 112.209 38.2091 114 36 114V116C39.3137 116 42 113.314 42 110H40ZM36 86C38.2091 86 40 87.7909 40 90H42C42 86.6863 39.3137 84 36 84V86ZM6 84C2.68629 84 0 86.6863 0 90H2C2 87.7909 3.79086 86 6 86V84Z" fill="#2F2F2F"/>
<path d="M55.5317 100.42H52.2557V103.642H50.7437V100.42H47.4677V98.998H50.7437V95.758H52.2557V98.998H55.5317V100.42Z" fill="#2F2F2F"/>
<path d="M82.7453 98.35C83.5733 98.35 84.3113 98.506 84.9593 98.818C85.6193 99.13 86.1353 99.58 86.5073 100.168C86.8793 100.744 87.0653 101.41 87.0653 102.166C87.0653 102.958 86.8673 103.654 86.4713 104.254C86.0873 104.854 85.5533 105.322 84.8693 105.658C84.1973 105.982 83.4413 106.144 82.6013 106.144C80.9093 106.144 79.6013 105.598 78.6773 104.506C77.7653 103.414 77.3093 101.866 77.3093 99.862C77.3093 98.458 77.5553 97.264 78.0473 96.28C78.5513 95.284 79.2473 94.534 80.1353 94.03C81.0353 93.514 82.0793 93.256 83.2673 93.256C83.8793 93.256 84.4553 93.322 84.9953 93.454C85.5353 93.574 86.0033 93.754 86.3993 93.994L85.7153 95.398C85.1153 95.002 84.3113 94.804 83.3033 94.804C81.9953 94.804 80.9693 95.212 80.2253 96.028C79.4813 96.832 79.1093 98.008 79.1093 99.556C79.1093 99.748 79.1153 99.898 79.1273 100.006C79.4873 99.466 79.9793 99.058 80.6033 98.782C81.2393 98.494 81.9533 98.35 82.7453 98.35ZM82.5293 104.686C83.3573 104.686 84.0293 104.464 84.5453 104.02C85.0613 103.576 85.3193 102.982 85.3193 102.238C85.3193 101.494 85.0553 100.906 84.5273 100.474C84.0113 100.03 83.3153 99.808 82.4393 99.808C81.8753 99.808 81.3713 99.916 80.9273 100.132C80.4953 100.348 80.1533 100.642 79.9013 101.014C79.6613 101.386 79.5413 101.8 79.5413 102.256C79.5413 102.7 79.6553 103.108 79.8833 103.48C80.1233 103.84 80.4653 104.134 80.9093 104.362C81.3653 104.578 81.9053 104.686 82.5293 104.686Z" fill="#2F2F2F"/>
<path d="M67 86H97V84H67V86ZM101 90V110H103V90H101ZM97 114H67V116H97V114ZM63 110V90H61V110H63ZM67 114C64.7909 114 63 112.209 63 110H61C61 113.314 63.6863 116 67 116V114ZM101 110C101 112.209 99.2091 114 97 114V116C100.314 116 103 113.314 103 110H101ZM97 86C99.2091 86 101 87.7909 101 90H103C103 86.6863 100.314 84 97 84V86ZM67 84C63.6863 84 61 86.6863 61 90H63C63 87.7909 64.7909 86 67 86V84Z" fill="#2F2F2F"/>
<path d="M108.468 96.856H116.532V98.278H108.468V96.856ZM108.468 101.122H116.532V102.544H108.468V101.122Z" fill="#2F2F2F"/>
<path d="M143.271 93.4V106H141.489V94.966H138.645V93.4H143.271ZM154.883 104.434V106H145.829V104.776L150.959 99.826C151.583 99.226 152.003 98.71 152.219 98.278C152.435 97.834 152.543 97.39 152.543 96.946C152.543 96.286 152.309 95.776 151.841 95.416C151.385 95.044 150.725 94.858 149.861 94.858C148.469 94.858 147.395 95.314 146.639 96.226L145.415 95.164C145.907 94.564 146.549 94.096 147.341 93.76C148.145 93.424 149.039 93.256 150.023 93.256C151.343 93.256 152.393 93.574 153.173 94.21C153.953 94.834 154.343 95.686 154.343 96.766C154.343 97.438 154.199 98.074 153.911 98.674C153.623 99.274 153.077 99.958 152.273 100.726L148.421 104.434H154.883Z" fill="#2F2F2F"/>
<path d="M128 86H166V84H128V86ZM170 90V110H172V90H170ZM166 114H128V116H166V114ZM124 110V90H122V110H124ZM128 114C125.791 114 124 112.209 124 110H122C122 113.314 124.686 116 128 116V114ZM170 110C170 112.209 168.209 114 166 114V116C169.314 116 172 113.314 172 110H170ZM166 86C168.209 86 170 87.7909 170 90H172C172 86.6863 169.314 84 166 84V86ZM128 84C124.686 84 122 86.6863 122 90H124C124 87.7909 125.791 86 128 86V84Z" fill="#2F2F2F"/>
</svg>
