<svg width="369" height="178" viewBox="0 0 369 178" fill="none" xmlns="http://www.w3.org/2000/svg">
<rect x="0.5" y="1.33229" width="184" height="44" fill="#68C2D0" stroke="#CCCCCC"/>
<path d="M77.7505 29.0243C76.6092 29.0243 75.5745 28.779 74.6465 28.2883C73.7292 27.787 73.0038 27.099 72.4705 26.2243C71.9478 25.339 71.6865 24.3416 71.6865 23.2323C71.6865 22.123 71.9478 21.131 72.4705 20.2563C73.0038 19.371 73.7292 18.683 74.6465 18.1923C75.5745 17.691 76.6145 17.4403 77.7665 17.4403C78.7372 17.4403 79.6118 17.611 80.3905 17.9523C81.1798 18.2936 81.8412 18.7843 82.3745 19.4243L80.7105 20.9603C79.9532 20.0856 79.0145 19.6483 77.8945 19.6483C77.2012 19.6483 76.5825 19.803 76.0385 20.1123C75.4945 20.411 75.0678 20.8323 74.7585 21.3763C74.4598 21.9203 74.3105 22.539 74.3105 23.2323C74.3105 23.9256 74.4598 24.5443 74.7585 25.0883C75.0678 25.6323 75.4945 26.059 76.0385 26.3683C76.5825 26.667 77.2012 26.8163 77.8945 26.8163C79.0145 26.8163 79.9532 26.3736 80.7105 25.4883L82.3745 27.0243C81.8412 27.675 81.1798 28.171 80.3905 28.5123C79.6012 28.8536 78.7212 29.0243 77.7505 29.0243ZM87.748 28.9603C86.8413 28.9603 86.0253 28.7736 85.3 28.4003C84.5853 28.0163 84.0253 27.4883 83.62 26.8163C83.2147 26.1443 83.012 25.3816 83.012 24.5283C83.012 23.675 83.2147 22.9123 83.62 22.2403C84.0253 21.5683 84.5853 21.0456 85.3 20.6723C86.0253 20.2883 86.8413 20.0963 87.748 20.0963C88.6547 20.0963 89.4653 20.2883 90.18 20.6723C90.8947 21.0456 91.4547 21.5683 91.86 22.2403C92.2653 22.9123 92.468 23.675 92.468 24.5283C92.468 25.3816 92.2653 26.1443 91.86 26.8163C91.4547 27.4883 90.8947 28.0163 90.18 28.4003C89.4653 28.7736 88.6547 28.9603 87.748 28.9603ZM87.748 26.9123C88.388 26.9123 88.9107 26.699 89.316 26.2723C89.732 25.835 89.94 25.2536 89.94 24.5283C89.94 23.803 89.732 23.227 89.316 22.8003C88.9107 22.363 88.388 22.1443 87.748 22.1443C87.108 22.1443 86.58 22.363 86.164 22.8003C85.748 23.227 85.54 23.803 85.54 24.5283C85.54 25.2536 85.748 25.835 86.164 26.2723C86.58 26.699 87.108 26.9123 87.748 26.9123ZM94.1364 16.9603H96.6324V28.8323H94.1364V16.9603ZM103.045 28.9603C102.138 28.9603 101.322 28.7736 100.597 28.4003C99.8822 28.0163 99.3222 27.4883 98.9169 26.8163C98.5115 26.1443 98.3089 25.3816 98.3089 24.5283C98.3089 23.675 98.5115 22.9123 98.9169 22.2403C99.3222 21.5683 99.8822 21.0456 100.597 20.6723C101.322 20.2883 102.138 20.0963 103.045 20.0963C103.952 20.0963 104.762 20.2883 105.477 20.6723C106.192 21.0456 106.752 21.5683 107.157 22.2403C107.562 22.9123 107.765 23.675 107.765 24.5283C107.765 25.3816 107.562 26.1443 107.157 26.8163C106.752 27.4883 106.192 28.0163 105.477 28.4003C104.762 28.7736 103.952 28.9603 103.045 28.9603ZM103.045 26.9123C103.685 26.9123 104.208 26.699 104.613 26.2723C105.029 25.835 105.237 25.2536 105.237 24.5283C105.237 23.803 105.029 23.227 104.613 22.8003C104.208 22.363 103.685 22.1443 103.045 22.1443C102.405 22.1443 101.877 22.363 101.461 22.8003C101.045 23.227 100.837 23.803 100.837 24.5283C100.837 25.2536 101.045 25.835 101.461 26.2723C101.877 26.699 102.405 26.9123 103.045 26.9123ZM111.817 21.3603C112.116 20.9443 112.516 20.6296 113.017 20.4163C113.529 20.203 114.116 20.0963 114.777 20.0963V22.4003C114.5 22.379 114.313 22.3683 114.217 22.3683C113.503 22.3683 112.943 22.571 112.537 22.9763C112.132 23.371 111.929 23.9683 111.929 24.7683V28.8323H109.433V20.2243H111.817V21.3603Z" fill="white"/>
<rect x="184.5" y="1.33229" width="184" height="44" fill="#68C2D0" stroke="#CCCCCC"/>
<path d="M231.367 17.3833H233.959V26.4713H239.575V28.5833H231.367V17.3833ZM249.217 24.3113C249.217 24.3433 249.201 24.5673 249.169 24.9833H242.657C242.774 25.5166 243.051 25.9379 243.489 26.2473C243.926 26.5566 244.47 26.7113 245.121 26.7113C245.569 26.7113 245.963 26.6473 246.305 26.5193C246.657 26.3806 246.982 26.1673 247.281 25.8793L248.609 27.3193C247.798 28.2473 246.614 28.7113 245.057 28.7113C244.086 28.7113 243.227 28.5246 242.481 28.1513C241.734 27.7673 241.158 27.2393 240.753 26.5673C240.347 25.8953 240.145 25.1326 240.145 24.2793C240.145 23.4366 240.342 22.6793 240.737 22.0073C241.142 21.3246 241.691 20.7966 242.385 20.4233C243.089 20.0393 243.873 19.8473 244.737 19.8473C245.579 19.8473 246.342 20.0286 247.025 20.3913C247.707 20.7539 248.241 21.2766 248.625 21.9593C249.019 22.6313 249.217 23.4153 249.217 24.3113ZM244.753 21.7353C244.187 21.7353 243.713 21.8953 243.329 22.2153C242.945 22.5353 242.71 22.9726 242.625 23.5273H246.865C246.779 22.9833 246.545 22.5513 246.161 22.2313C245.777 21.9006 245.307 21.7353 244.753 21.7353ZM256.111 19.8473C257.177 19.8473 258.036 20.1673 258.687 20.8073C259.348 21.4473 259.679 22.3966 259.679 23.6553V28.5833H257.183V24.0393C257.183 23.3566 257.033 22.8499 256.735 22.5193C256.436 22.1779 256.004 22.0073 255.439 22.0073C254.809 22.0073 254.308 22.2046 253.935 22.5993C253.561 22.9833 253.375 23.5593 253.375 24.3273V28.5833H250.879V19.9753H253.263V20.9833C253.593 20.6206 254.004 20.3433 254.495 20.1513C254.985 19.9486 255.524 19.8473 256.111 19.8473ZM270.915 19.9753V27.1433C270.915 28.7219 270.504 29.8953 269.683 30.6633C268.861 31.4313 267.661 31.8153 266.083 31.8153C265.251 31.8153 264.461 31.7139 263.715 31.5113C262.968 31.3086 262.349 31.0153 261.859 30.6313L262.851 28.8393C263.213 29.1379 263.672 29.3726 264.227 29.5433C264.781 29.7246 265.336 29.8153 265.891 29.8153C266.755 29.8153 267.389 29.6179 267.795 29.2233C268.211 28.8393 268.419 28.2526 268.419 27.4633V27.0953C267.768 27.8099 266.861 28.1673 265.699 28.1673C264.909 28.1673 264.184 27.9966 263.523 27.6553C262.872 27.3033 262.355 26.8126 261.971 26.1833C261.587 25.5539 261.395 24.8286 261.395 24.0073C261.395 23.1859 261.587 22.4606 261.971 21.8313C262.355 21.2019 262.872 20.7166 263.523 20.3753C264.184 20.0233 264.909 19.8473 265.699 19.8473C266.947 19.8473 267.896 20.2579 268.547 21.0793V19.9753H270.915ZM266.195 26.1193C266.856 26.1193 267.395 25.9273 267.811 25.5433C268.237 25.1486 268.451 24.6366 268.451 24.0073C268.451 23.3779 268.237 22.8713 267.811 22.4873C267.395 22.0926 266.856 21.8953 266.195 21.8953C265.533 21.8953 264.989 22.0926 264.563 22.4873C264.136 22.8713 263.923 23.3779 263.923 24.0073C263.923 24.6366 264.136 25.1486 264.563 25.5433C264.989 25.9273 265.533 26.1193 266.195 26.1193ZM278.79 28.1673C278.545 28.3486 278.241 28.4873 277.878 28.5833C277.526 28.6686 277.153 28.7113 276.758 28.7113C275.734 28.7113 274.939 28.4499 274.374 27.9273C273.819 27.4046 273.542 26.6366 273.542 25.6233V22.0873H272.214V20.1673H273.542V18.0713H276.038V20.1673H278.182V22.0873H276.038V25.5913C276.038 25.9539 276.129 26.2366 276.31 26.4393C276.502 26.6313 276.769 26.7273 277.11 26.7273C277.505 26.7273 277.841 26.6206 278.118 26.4073L278.79 28.1673ZM285.423 19.8473C286.49 19.8473 287.348 20.1673 287.999 20.8073C288.66 21.4473 288.991 22.3966 288.991 23.6553V28.5833H286.495V24.0393C286.495 23.3566 286.346 22.8499 286.047 22.5193C285.748 22.1779 285.316 22.0073 284.751 22.0073C284.122 22.0073 283.62 22.2046 283.247 22.5993C282.874 22.9833 282.687 23.5593 282.687 24.3273V28.5833H280.191V16.7113H282.687V20.8713C283.018 20.5406 283.418 20.2899 283.887 20.1193C284.356 19.9379 284.868 19.8473 285.423 19.8473ZM297.801 31.6873C297.161 30.7166 296.665 29.5913 296.313 28.3113C295.971 27.0313 295.801 25.6606 295.801 24.1993C295.801 22.7379 295.971 21.3673 296.313 20.0873C296.665 18.7966 297.161 17.6713 297.801 16.7113H300.185C299.513 17.8953 299.022 19.1006 298.713 20.3273C298.403 21.5433 298.249 22.8339 298.249 24.1993C298.249 25.5646 298.403 26.8606 298.713 28.0873C299.022 29.3033 299.513 30.5033 300.185 31.6873H297.801ZM301.504 19.9753H304V28.5833H301.504V19.9753ZM302.752 18.7753C302.293 18.7753 301.92 18.6419 301.632 18.3753C301.344 18.1086 301.2 17.7779 301.2 17.3833C301.2 16.9886 301.344 16.6579 301.632 16.3913C301.92 16.1246 302.293 15.9913 302.752 15.9913C303.21 15.9913 303.584 16.1193 303.872 16.3753C304.16 16.6313 304.304 16.9513 304.304 17.3353C304.304 17.7513 304.16 18.0979 303.872 18.3753C303.584 18.6419 303.21 18.7753 302.752 18.7753ZM311.548 19.8473C312.615 19.8473 313.473 20.1673 314.124 20.8073C314.785 21.4473 315.116 22.3966 315.116 23.6553V28.5833H312.62V24.0393C312.62 23.3566 312.471 22.8499 312.172 22.5193C311.873 22.1779 311.441 22.0073 310.876 22.0073C310.247 22.0073 309.745 22.2046 309.372 22.5993C308.999 22.9833 308.812 23.5593 308.812 24.3273V28.5833H306.316V19.9753H308.7V20.9833C309.031 20.6206 309.441 20.3433 309.932 20.1513C310.423 19.9486 310.961 19.8473 311.548 19.8473ZM316.387 31.6873C317.059 30.5033 317.549 29.3033 317.859 28.0873C318.179 26.8606 318.339 25.5646 318.339 24.1993C318.339 22.8339 318.179 21.5433 317.859 20.3273C317.549 19.1006 317.059 17.8953 316.387 16.7113H318.771C319.421 17.6606 319.917 18.7806 320.259 20.0713C320.611 21.3513 320.787 22.7273 320.787 24.1993C320.787 25.6713 320.616 27.0473 320.275 28.3273C319.933 29.5966 319.432 30.7166 318.771 31.6873H316.387Z" fill="white"/>
<rect x="0.5" y="45.3323" width="184" height="44" fill="white" stroke="#CCCCCC"/>
<path d="M85.6293 72.8333L83.3413 69.5533C83.2453 69.5639 83.1013 69.5693 82.9093 69.5693H80.3813V72.8333H78.3013V61.6333H82.9093C83.8799 61.6333 84.7226 61.7933 85.4373 62.1133C86.1626 62.4333 86.7173 62.8919 87.1013 63.4893C87.4853 64.0866 87.6773 64.7959 87.6773 65.6173C87.6773 66.4599 87.4693 67.1853 87.0533 67.7933C86.6479 68.4013 86.0613 68.8546 85.2933 69.1533L87.8693 72.8333H85.6293ZM85.5813 65.6173C85.5813 64.9026 85.3466 64.3533 84.8773 63.9693C84.4079 63.5853 83.7199 63.3933 82.8133 63.3933H80.3813V67.8573H82.8133C83.7199 67.8573 84.4079 67.6653 84.8773 67.2813C85.3466 66.8866 85.5813 66.3319 85.5813 65.6173ZM97.8444 68.6093C97.8444 68.7479 97.8337 68.9453 97.8124 69.2013H91.1084C91.2257 69.8306 91.5297 70.3319 92.0204 70.7053C92.5217 71.0679 93.1404 71.2493 93.8764 71.2493C94.8151 71.2493 95.5884 70.9399 96.1964 70.3213L97.2684 71.5533C96.8844 72.0119 96.3991 72.3586 95.8124 72.5933C95.2257 72.8279 94.5644 72.9453 93.8284 72.9453C92.8897 72.9453 92.0631 72.7586 91.3484 72.3853C90.6337 72.0119 90.0791 71.4946 89.6844 70.8333C89.3004 70.1613 89.1084 69.4039 89.1084 68.5613C89.1084 67.7293 89.2951 66.9826 89.6684 66.3213C90.0524 65.6493 90.5804 65.1266 91.2524 64.7533C91.9244 64.3799 92.6817 64.1933 93.5244 64.1933C94.3564 64.1933 95.0977 64.3799 95.7484 64.7533C96.4097 65.1159 96.9217 65.6333 97.2844 66.3053C97.6577 66.9666 97.8444 67.7346 97.8444 68.6093ZM93.5244 65.7933C92.8844 65.7933 92.3404 65.9853 91.8924 66.3693C91.4551 66.7426 91.1884 67.2439 91.0924 67.8733H95.9404C95.8551 67.2546 95.5937 66.7533 95.1564 66.3693C94.7191 65.9853 94.1751 65.7933 93.5244 65.7933ZM108.134 60.9613V72.8333H106.214V71.7293C105.883 72.1346 105.472 72.4386 104.982 72.6413C104.502 72.8439 103.968 72.9453 103.382 72.9453C102.56 72.9453 101.819 72.7639 101.158 72.4013C100.507 72.0386 99.9948 71.5266 99.6215 70.8653C99.2482 70.1933 99.0615 69.4253 99.0615 68.5613C99.0615 67.6973 99.2482 66.9346 99.6215 66.2733C99.9948 65.6119 100.507 65.0999 101.158 64.7373C101.819 64.3746 102.56 64.1933 103.382 64.1933C103.947 64.1933 104.464 64.2893 104.934 64.4813C105.403 64.6733 105.803 64.9613 106.134 65.3453V60.9613H108.134ZM103.622 71.2333C104.102 71.2333 104.534 71.1266 104.918 70.9133C105.302 70.6893 105.606 70.3746 105.83 69.9693C106.054 69.5639 106.166 69.0946 106.166 68.5613C106.166 68.0279 106.054 67.5586 105.83 67.1533C105.606 66.7479 105.302 66.4386 104.918 66.2253C104.534 66.0013 104.102 65.8893 103.622 65.8893C103.142 65.8893 102.71 66.0013 102.326 66.2253C101.942 66.4386 101.638 66.7479 101.414 67.1533C101.19 67.5586 101.078 68.0279 101.078 68.5613C101.078 69.0946 101.19 69.5639 101.414 69.9693C101.638 70.3746 101.942 70.6893 102.326 70.9133C102.71 71.1266 103.142 71.2333 103.622 71.2333Z" fill="#2F2F2F"/>
<rect x="184.5" y="45.3323" width="184" height="44" fill="white" stroke="#CCCCCC"/>
<rect x="287.5" y="46.3323" width="60" height="41" rx="4.5" fill="white"/>
<path d="M317.492 73.0123C316.484 73.0123 315.584 72.7603 314.792 72.2563C314 71.7403 313.376 70.9963 312.92 70.0243C312.464 69.0403 312.236 67.8763 312.236 66.5323C312.236 65.1883 312.464 64.0303 312.92 63.0583C313.376 62.0743 314 61.3303 314.792 60.8263C315.584 60.3103 316.484 60.0523 317.492 60.0523C318.5 60.0523 319.4 60.3103 320.192 60.8263C320.996 61.3303 321.626 62.0743 322.082 63.0583C322.538 64.0303 322.766 65.1883 322.766 66.5323C322.766 67.8763 322.538 69.0403 322.082 70.0243C321.626 70.9963 320.996 71.7403 320.192 72.2563C319.4 72.7603 318.5 73.0123 317.492 73.0123ZM317.492 70.9783C318.392 70.9783 319.1 70.6063 319.616 69.8623C320.144 69.1183 320.408 68.0083 320.408 66.5323C320.408 65.0563 320.144 63.9463 319.616 63.2023C319.1 62.4583 318.392 62.0863 317.492 62.0863C316.604 62.0863 315.896 62.4583 315.368 63.2023C314.852 63.9463 314.594 65.0563 314.594 66.5323C314.594 68.0083 314.852 69.1183 315.368 69.8623C315.896 70.6063 316.604 70.9783 317.492 70.9783Z" fill="#2F2F2F"/>
<rect x="287.5" y="46.3323" width="60" height="41" rx="4.5" stroke="#2F2F2F"/>
<rect x="206.5" y="46.3323" width="60" height="41" rx="4.5" fill="white"/>
<path d="M235.978 65.1103C237.754 65.1103 239.068 65.4583 239.92 66.1543C240.772 66.8383 241.198 67.7743 241.198 68.9623C241.198 69.7183 241.012 70.4023 240.64 71.0143C240.268 71.6263 239.71 72.1123 238.966 72.4723C238.222 72.8323 237.304 73.0123 236.212 73.0123C235.312 73.0123 234.442 72.8863 233.602 72.6343C232.762 72.3703 232.054 72.0103 231.478 71.5543L232.468 69.7363C232.936 70.1203 233.494 70.4263 234.142 70.6543C234.802 70.8703 235.48 70.9783 236.176 70.9783C237.004 70.9783 237.652 70.8103 238.12 70.4743C238.6 70.1263 238.84 69.6523 238.84 69.0523C238.84 68.4043 238.582 67.9183 238.066 67.5943C237.562 67.2583 236.692 67.0903 235.456 67.0903H232.414L233.062 60.2323H240.46V62.1943H235.042L234.772 65.1103H235.978Z" fill="#2F2F2F"/>
<rect x="206.5" y="46.3323" width="60" height="41" rx="4.5" stroke="#2F2F2F"/>
<rect x="0.5" y="89.3323" width="184" height="44" fill="white" stroke="#CCCCCC"/>
<path d="M83.1194 111.009C83.7381 111.212 84.2288 111.553 84.5914 112.033C84.9541 112.503 85.1354 113.089 85.1354 113.793C85.1354 114.764 84.7621 115.516 84.0154 116.049C83.2688 116.572 82.1808 116.833 80.7514 116.833H75.1834V105.633H80.4314C81.7541 105.633 82.7728 105.895 83.4874 106.417C84.2021 106.929 84.5594 107.639 84.5594 108.545C84.5594 109.1 84.4314 109.591 84.1754 110.017C83.9194 110.444 83.5674 110.775 83.1194 111.009ZM77.2634 107.265V110.353H80.2074C80.9328 110.353 81.4874 110.225 81.8714 109.969C82.2661 109.703 82.4634 109.319 82.4634 108.817C82.4634 108.305 82.2661 107.921 81.8714 107.665C81.4874 107.399 80.9328 107.265 80.2074 107.265H77.2634ZM80.6234 115.201C82.2341 115.201 83.0394 114.663 83.0394 113.585C83.0394 112.508 82.2341 111.969 80.6234 111.969H77.2634V115.201H80.6234ZM87.1633 104.961H89.1633V116.833H87.1633V104.961ZM100.06 108.289V116.833H98.1563V115.745C97.8363 116.129 97.4363 116.428 96.9563 116.641C96.4763 116.844 95.959 116.945 95.4043 116.945C94.263 116.945 93.3616 116.631 92.7003 116.001C92.0496 115.361 91.7243 114.417 91.7243 113.169V108.289H93.7243V112.897C93.7243 113.665 93.895 114.241 94.2363 114.625C94.5883 114.999 95.0843 115.185 95.7243 115.185C96.439 115.185 97.0043 114.967 97.4203 114.529C97.847 114.081 98.0603 113.441 98.0603 112.609V108.289H100.06ZM110.711 112.609C110.711 112.748 110.7 112.945 110.679 113.201H103.975C104.092 113.831 104.396 114.332 104.887 114.705C105.388 115.068 106.007 115.249 106.743 115.249C107.682 115.249 108.455 114.94 109.063 114.321L110.135 115.553C109.751 116.012 109.266 116.359 108.679 116.593C108.092 116.828 107.431 116.945 106.695 116.945C105.756 116.945 104.93 116.759 104.215 116.385C103.5 116.012 102.946 115.495 102.551 114.833C102.167 114.161 101.975 113.404 101.975 112.561C101.975 111.729 102.162 110.983 102.535 110.321C102.919 109.649 103.447 109.127 104.119 108.753C104.791 108.38 105.548 108.193 106.391 108.193C107.223 108.193 107.964 108.38 108.615 108.753C109.276 109.116 109.788 109.633 110.151 110.305C110.524 110.967 110.711 111.735 110.711 112.609ZM106.391 109.793C105.751 109.793 105.207 109.985 104.759 110.369C104.322 110.743 104.055 111.244 103.959 111.873H108.807C108.722 111.255 108.46 110.753 108.023 110.369C107.586 109.985 107.042 109.793 106.391 109.793Z" fill="#2F2F2F"/>
<rect x="184.5" y="89.3323" width="184" height="44" fill="white" stroke="#CCCCCC"/>
<rect x="206.5" y="91.3323" width="60" height="41" rx="4.5" fill="white"/>
<path d="M241.18 115.852V117.832H231.892V116.266L236.896 111.514C237.46 110.974 237.838 110.506 238.03 110.11C238.234 109.702 238.336 109.3 238.336 108.904C238.336 108.316 238.138 107.866 237.742 107.554C237.346 107.242 236.764 107.086 235.996 107.086C234.712 107.086 233.728 107.524 233.044 108.4L231.406 107.14C231.898 106.48 232.558 105.97 233.386 105.61C234.226 105.238 235.162 105.052 236.194 105.052C237.562 105.052 238.654 105.376 239.47 106.024C240.286 106.672 240.694 107.554 240.694 108.67C240.694 109.354 240.55 109.996 240.262 110.596C239.974 111.196 239.422 111.88 238.606 112.648L235.24 115.852H241.18Z" fill="#2F2F2F"/>
<rect x="206.5" y="91.3323" width="60" height="41" rx="4.5" stroke="#2F2F2F"/>
<rect x="0.5" y="133.332" width="184" height="44" fill="white" stroke="#CCCCCC"/>
<path d="M77.0947 155.105H79.0627V159.569C78.4867 160.028 77.8147 160.38 77.0467 160.625C76.2787 160.871 75.4894 160.993 74.6787 160.993C73.5374 160.993 72.508 160.748 71.5907 160.257C70.6734 159.756 69.9534 159.068 69.4307 158.193C68.908 157.319 68.6467 156.332 68.6467 155.233C68.6467 154.135 68.908 153.148 69.4307 152.273C69.9534 151.399 70.6734 150.716 71.5907 150.225C72.5187 149.724 73.5587 149.473 74.7107 149.473C75.6494 149.473 76.5027 149.628 77.2707 149.937C78.0387 150.247 78.684 150.7 79.2067 151.297L77.8947 152.577C77.0414 151.724 76.012 151.297 74.8067 151.297C74.0174 151.297 73.3134 151.463 72.6947 151.793C72.0867 152.124 71.6067 152.588 71.2547 153.185C70.9134 153.783 70.7427 154.465 70.7427 155.233C70.7427 155.98 70.9134 156.652 71.2547 157.249C71.6067 157.847 72.0867 158.316 72.6947 158.657C73.3134 158.999 74.012 159.169 74.7907 159.169C75.6654 159.169 76.4334 158.977 77.0947 158.593V155.105ZM83.5181 153.537C84.0941 152.641 85.1074 152.193 86.5581 152.193V154.097C86.3874 154.065 86.2328 154.049 86.0941 154.049C85.3154 154.049 84.7074 154.279 84.2701 154.737C83.8328 155.185 83.6141 155.836 83.6141 156.689V160.833H81.6141V152.289H83.5181V153.537ZM96.2086 156.609C96.2086 156.748 96.1979 156.945 96.1766 157.201H89.4726C89.5899 157.831 89.8939 158.332 90.3846 158.705C90.8859 159.068 91.5046 159.249 92.2406 159.249C93.1793 159.249 93.9526 158.94 94.5606 158.321L95.6326 159.553C95.2486 160.012 94.7633 160.359 94.1766 160.593C93.5899 160.828 92.9286 160.945 92.1926 160.945C91.2539 160.945 90.4273 160.759 89.7126 160.385C88.9979 160.012 88.4433 159.495 88.0486 158.833C87.6646 158.161 87.4726 157.404 87.4726 156.561C87.4726 155.729 87.6593 154.983 88.0326 154.321C88.4166 153.649 88.9446 153.127 89.6166 152.753C90.2886 152.38 91.0459 152.193 91.8886 152.193C92.7206 152.193 93.4619 152.38 94.1126 152.753C94.7739 153.116 95.2859 153.633 95.6486 154.305C96.0219 154.967 96.2086 155.735 96.2086 156.609ZM91.8886 153.793C91.2486 153.793 90.7046 153.985 90.2566 154.369C89.8193 154.743 89.5526 155.244 89.4566 155.873H94.3046C94.2193 155.255 93.9579 154.753 93.5206 154.369C93.0833 153.985 92.5393 153.793 91.8886 153.793ZM106.162 156.609C106.162 156.748 106.151 156.945 106.13 157.201H99.4257C99.543 157.831 99.847 158.332 100.338 158.705C100.839 159.068 101.458 159.249 102.194 159.249C103.132 159.249 103.906 158.94 104.514 158.321L105.586 159.553C105.202 160.012 104.716 160.359 104.13 160.593C103.543 160.828 102.882 160.945 102.146 160.945C101.207 160.945 100.38 160.759 99.6657 160.385C98.951 160.012 98.3964 159.495 98.0017 158.833C97.6177 158.161 97.4257 157.404 97.4257 156.561C97.4257 155.729 97.6124 154.983 97.9857 154.321C98.3697 153.649 98.8977 153.127 99.5697 152.753C100.242 152.38 100.999 152.193 101.842 152.193C102.674 152.193 103.415 152.38 104.066 152.753C104.727 153.116 105.239 153.633 105.602 154.305C105.975 154.967 106.162 155.735 106.162 156.609ZM101.842 153.793C101.202 153.793 100.658 153.985 100.21 154.369C99.7724 154.743 99.5057 155.244 99.4097 155.873H104.258C104.172 155.255 103.911 154.753 103.474 154.369C103.036 153.985 102.492 153.793 101.842 153.793ZM112.931 152.193C114.008 152.193 114.872 152.508 115.523 153.137C116.174 153.767 116.499 154.7 116.499 155.937V160.833H114.499V156.193C114.499 155.447 114.323 154.887 113.971 154.513C113.619 154.129 113.118 153.937 112.467 153.937C111.731 153.937 111.15 154.161 110.723 154.609C110.296 155.047 110.083 155.681 110.083 156.513V160.833H108.083V152.289H109.987V153.393C110.318 152.999 110.734 152.7 111.235 152.497C111.736 152.295 112.302 152.193 112.931 152.193Z" fill="#2F2F2F"/>
<rect x="184.5" y="133.332" width="184" height="44" fill="white" stroke="#CCCCCC"/>
<rect x="206.5" y="134.332" width="60" height="41" rx="4.5" fill="white"/>
<path d="M237.418 153.434C238.582 153.578 239.47 153.974 240.082 154.622C240.694 155.27 241 156.08 241 157.052C241 157.784 240.814 158.45 240.442 159.05C240.07 159.65 239.506 160.13 238.75 160.49C238.006 160.838 237.094 161.012 236.014 161.012C235.114 161.012 234.244 160.886 233.404 160.634C232.576 160.37 231.868 160.01 231.28 159.554L232.288 157.736C232.744 158.12 233.296 158.426 233.944 158.654C234.604 158.87 235.282 158.978 235.978 158.978C236.806 158.978 237.454 158.81 237.922 158.474C238.402 158.126 238.642 157.658 238.642 157.07C238.642 156.482 238.414 156.026 237.958 155.702C237.514 155.366 236.83 155.198 235.906 155.198H234.754V153.596L237.616 150.194H231.892V148.232H240.478V149.798L237.418 153.434Z" fill="#2F2F2F"/>
<rect x="206.5" y="134.332" width="60" height="41" rx="4.5" stroke="#2F2F2F"/>
<rect x="288.5" y="134.5" width="60" height="41" rx="4.5" fill="white"/>
<path d="M318.492 161.18C317.484 161.18 316.584 160.928 315.792 160.424C315 159.908 314.376 159.164 313.92 158.192C313.464 157.208 313.236 156.044 313.236 154.7C313.236 153.356 313.464 152.198 313.92 151.226C314.376 150.242 315 149.498 315.792 148.994C316.584 148.478 317.484 148.22 318.492 148.22C319.5 148.22 320.4 148.478 321.192 148.994C321.996 149.498 322.626 150.242 323.082 151.226C323.538 152.198 323.766 153.356 323.766 154.7C323.766 156.044 323.538 157.208 323.082 158.192C322.626 159.164 321.996 159.908 321.192 160.424C320.4 160.928 319.5 161.18 318.492 161.18ZM318.492 159.146C319.392 159.146 320.1 158.774 320.616 158.03C321.144 157.286 321.408 156.176 321.408 154.7C321.408 153.224 321.144 152.114 320.616 151.37C320.1 150.626 319.392 150.254 318.492 150.254C317.604 150.254 316.896 150.626 316.368 151.37C315.852 152.114 315.594 153.224 315.594 154.7C315.594 156.176 315.852 157.286 316.368 158.03C316.896 158.774 317.604 159.146 318.492 159.146Z" fill="#2F2F2F"/>
<rect x="288.5" y="134.5" width="60" height="41" rx="4.5" stroke="#2F2F2F"/>
<rect x="288.5" y="90.5" width="60" height="41" rx="4.5" fill="white"/>
<path d="M311.642 104.4V117H309.302V106.362H306.638V104.4H311.642ZM318.75 101.844H320.766L314.826 118.8H312.81L318.75 101.844ZM329.947 115.02V117H320.659V115.434L325.663 110.682C326.227 110.142 326.605 109.674 326.797 109.278C327.001 108.87 327.103 108.468 327.103 108.072C327.103 107.484 326.905 107.034 326.509 106.722C326.113 106.41 325.531 106.254 324.763 106.254C323.479 106.254 322.495 106.692 321.811 107.568L320.173 106.308C320.665 105.648 321.325 105.138 322.153 104.778C322.993 104.406 323.929 104.22 324.961 104.22C326.329 104.22 327.421 104.544 328.237 105.192C329.053 105.84 329.461 106.722 329.461 107.838C329.461 108.522 329.317 109.164 329.029 109.764C328.741 110.364 328.189 111.048 327.373 111.816L324.007 115.02H329.947Z" fill="#2F2F2F"/>
<rect x="288.5" y="90.5" width="60" height="41" rx="4.5" stroke="#2F2F2F"/>
</svg>
