<svg width="360" height="97" viewBox="0 0 360 97" fill="none" xmlns="http://www.w3.org/2000/svg">
<g clip-path="url(#clip0_6_593)">
<path d="M14.2193 17.6706C15.0607 17.7339 15.7887 17.4048 15.8629 16.8166L17.2871 2.75066C17.3358 2.2295 16.6737 1.69685 15.8322 1.63353L4.31074 0.463676C3.46929 0.400358 2.74132 0.729442 2.66706 1.31765L1.24288 15.3836C1.19424 15.9047 1.85631 16.4374 2.69776 16.5007L14.2193 17.6706Z" fill="#8BC53F"/>
<path d="M152.996 31.6089L154.539 16.1204L26.9146 3.35994L25.3715 18.8484L152.996 31.6089Z" fill="#37B34A"/>
<path d="M152.879 32.1761L166.508 25.4604L154.492 16.1433L152.879 32.1761Z" fill="#E4C494"/>
<path d="M153.318 28.2369L154.186 19.5159L26.5934 6.73911L25.726 15.4602L153.318 28.2369Z" fill="#8BC53F"/>
<path d="M161.171 28.1249L166.505 25.4921L161.8 21.8521L161.171 28.1249Z" fill="#040607"/>
<path d="M25.4062 18.7773L27.0019 2.78932L12.3305 1.32496L10.7348 17.3129L25.4062 18.7773Z" fill="#FFD963"/>
<path d="M24.0793 2.49468L22.4643 18.5516L24.0793 2.49468Z" stroke="#F59120" stroke-width="5" stroke-miterlimit="10"/>
<path d="M21.4074 2.19878L19.7924 18.2557L21.4074 2.19878Z" stroke="#F59120" stroke-width="5" stroke-miterlimit="10"/>
</g>
<g clip-path="url(#clip1_6_593)">
<path d="M17.8371 95.9642C18.7457 95.8882 19.4675 95.4201 19.4485 94.7911L18.6171 79.8079C18.5819 79.2534 17.7863 78.8072 16.8778 78.8832L4.38666 79.6064C3.47808 79.6824 2.75622 80.1504 2.77528 80.7795L3.60664 95.7627C3.64184 96.3171 4.43743 96.7634 5.346 96.6874L17.8371 95.9642Z" fill="#E78668"/>
<path d="M268.079 81.2524L266.988 64.513L29.2583 78.4404L30.3489 95.1799L268.079 81.2524Z" fill="#B34637"/>
<path d="M268.069 81.5667L281.493 72.2206L267.109 64.4872L268.069 81.5667Z" fill="#E4C494"/>
<path d="M267.842 77.6439L267.223 68.1702L29.5008 82.0498L30.1205 91.5235L267.842 77.6439Z" fill="#E78668"/>
<path d="M276.241 75.8953L281.493 72.2329L275.864 69.2133L276.241 75.8953Z" fill="#040607"/>
<path d="M29.9769 95.2171L29.0058 78.1555L13.0909 79.1038L14.0619 96.1653L29.9769 95.2171Z" fill="#FFD963"/>
<path d="M25.8327 78.3501L26.7924 95.4379L25.8327 78.3501Z" stroke="#F59120" stroke-width="5" stroke-miterlimit="10"/>
<path d="M22.9284 78.5024L23.8881 95.5902L22.9284 78.5024Z" stroke="#F59120" stroke-width="5" stroke-miterlimit="10"/>
</g>
<g clip-path="url(#clip2_6_593)">
<path d="M237.716 29.8529C238.625 30.204 239.523 30.0888 239.776 29.4717L245.447 14.5967C245.653 14.0441 245.079 13.2409 244.17 12.8898L231.818 7.75214C230.91 7.40106 230.012 7.5163 229.759 8.13341L224.088 23.0084C223.882 23.5609 224.456 24.3642 225.365 24.7152L237.716 29.8529Z" fill="#68B8E6"/>
<path d="M338.518 70.9284L344.893 54.3167L256.534 17.8535L250.159 34.4652L338.518 70.9284Z" fill="#3786B3"/>
<path d="M338.551 70.9481L355.532 68.1841L345.006 53.9813L338.551 70.9481Z" fill="#E4C494"/>
<path d="M339.907 67.3607L343.537 57.8938L255.148 21.4281L251.518 30.895L339.907 67.3607Z" fill="#68B8E6"/>
<path d="M348.896 69.2491L355.543 68.1623L351.42 62.6103L348.896 69.2491Z" fill="#040607"/>
<path d="M249.731 34.7027L256.143 17.8108L240.507 11.3388L234.096 28.2307L249.731 34.7027Z" fill="#FFD963"/>
<path d="M253.083 16.5002L246.636 33.4465L253.083 16.5002Z" stroke="#F59120" stroke-width="5" stroke-miterlimit="10"/>
<path d="M250.212 15.3059L243.765 32.2522L250.212 15.3059Z" stroke="#F59120" stroke-width="5" stroke-miterlimit="10"/>
</g>
<defs>
<clipPath id="clip0_6_593">
<rect width="16" height="168" fill="white" transform="translate(0.625 15.9104) rotate(-83.9341)"/>
</clipPath>
<clipPath id="clip1_6_593">
<rect width="16.6983" height="279.995" fill="white" transform="translate(2.73242 96.7688) rotate(-93.3602)"/>
</clipPath>
<clipPath id="clip2_6_593">
<rect width="18" height="140" fill="white" transform="translate(222.729 23.9397) rotate(-67.988)"/>
</clipPath>
</defs>
</svg>
