<svg width="570" height="58" viewBox="0 0 570 58" fill="none" xmlns="http://www.w3.org/2000/svg">
<g clip-path="url(#clip0_6_314)">
<path d="M570 57.8323V0.832291L0 0.832291V57.8323L570 57.8323Z" fill="#FECC7B"/>
<g clip-path="url(#clip1_6_314)">
<path d="M4.48571 3.09303H3.70898V17.9543H4.48571V3.09303Z" fill="black"/>
<path d="M60.4095 3.09303H59.6328V17.9543H60.4095V3.09303Z" fill="black"/>
<path d="M116.333 3.09303H115.557V17.9543H116.333V3.09303Z" fill="black"/>
<path d="M172.259 3.09303H171.482V17.9543H172.259V3.09303Z" fill="black"/>
<path d="M228.183 3.09303H227.406V17.9543H228.183V3.09303Z" fill="black"/>
<path d="M284.107 3.09303H283.33V17.9543H284.107V3.09303Z" fill="black"/>
<path d="M340.031 3.09303H339.254V17.9543H340.031V3.09303Z" fill="black"/>
<path d="M7.97985 3.09303H7.20312V10.6769H7.97985V3.09303Z" fill="black"/>
<path d="M11.474 3.09303H10.6972V10.6769H11.474V3.09303Z" fill="black"/>
<path d="M14.9701 3.09303H14.1934V10.6769H14.9701V3.09303Z" fill="black"/>
<path d="M18.4642 3.09303H17.6875V10.6769H18.4642V3.09303Z" fill="black"/>
<path d="M21.9623 3.09303H21.1855V10.6769H21.9623V3.09303Z" fill="black"/>
<path d="M25.4564 3.09303H24.6797V10.6769H25.4564V3.09303Z" fill="black"/>
<path d="M28.9525 3.09303H28.1758V10.6769H28.9525V3.09303Z" fill="black"/>
<path d="M32.4466 3.09303H31.6699V14.5071H32.4466V3.09303Z" fill="black"/>
<path d="M88.3705 3.09303H87.5938V14.5071H88.3705V3.09303Z" fill="black"/>
<path d="M144.294 3.09303H143.518V14.5071H144.294V3.09303Z" fill="black"/>
<path d="M200.218 3.09303H199.441V14.5071H200.218V3.09303Z" fill="black"/>
<path d="M256.144 3.09303H255.367V14.5071H256.144V3.09303Z" fill="black"/>
<path d="M312.068 3.09303H311.291V14.5071H312.068V3.09303Z" fill="black"/>
<path d="M35.9427 3.09303H35.166V10.6769H35.9427V3.09303Z" fill="black"/>
<path d="M39.4369 3.09303H38.6602V10.6769H39.4369V3.09303Z" fill="black"/>
<path d="M42.931 3.09303H42.1543V10.6769H42.931V3.09303Z" fill="black"/>
<path d="M46.4291 3.09303H45.6523V10.6769H46.4291V3.09303Z" fill="black"/>
<path d="M49.9232 3.09303H49.1465V10.6769H49.9232V3.09303Z" fill="black"/>
<path d="M53.4193 3.09303H52.6426V10.6769H53.4193V3.09303Z" fill="black"/>
<path d="M56.9134 3.09303H56.1367V10.6769H56.9134V3.09303Z" fill="black"/>
<path d="M63.9037 3.09303H63.127V10.6769H63.9037V3.09303Z" fill="black"/>
<path d="M67.3978 3.09303H66.6211V10.6769H67.3978V3.09303Z" fill="black"/>
<path d="M70.8939 3.09303H70.1172V10.6769H70.8939V3.09303Z" fill="black"/>
<path d="M74.3881 3.09303H73.6113V10.6769H74.3881V3.09303Z" fill="black"/>
<path d="M77.8861 3.09303H77.1094V10.6769H77.8861V3.09303Z" fill="black"/>
<path d="M81.3802 3.09303H80.6035V10.6769H81.3802V3.09303Z" fill="black"/>
<path d="M84.8763 3.09303H84.0996V10.6769H84.8763V3.09303Z" fill="black"/>
<path d="M91.8666 3.09303H91.0898V10.6769H91.8666V3.09303Z" fill="black"/>
<path d="M95.3607 3.09303H94.584V10.6769H95.3607V3.09303Z" fill="black"/>
<path d="M98.8549 3.09303H98.0781V10.6769H98.8549V3.09303Z" fill="black"/>
<path d="M102.353 3.09303H101.576V10.6769H102.353V3.09303Z" fill="black"/>
<path d="M105.847 3.09303H105.07V10.6769H105.847V3.09303Z" fill="black"/>
<path d="M109.343 3.09303H108.566V10.6769H109.343V3.09303Z" fill="black"/>
<path d="M112.837 3.09303H112.061V10.6769H112.837V3.09303Z" fill="black"/>
<path d="M119.828 3.09303H119.051V10.6769H119.828V3.09303Z" fill="black"/>
<path d="M123.322 3.09303H122.545V10.6769H123.322V3.09303Z" fill="black"/>
<path d="M126.82 3.09303H126.043V10.6769H126.82V3.09303Z" fill="black"/>
<path d="M130.314 3.09303H129.537V10.6769H130.314V3.09303Z" fill="black"/>
<path d="M133.81 3.09303H133.033V10.6769H133.81V3.09303Z" fill="black"/>
<path d="M137.304 3.09303H136.527V10.6769H137.304V3.09303Z" fill="black"/>
<path d="M140.8 3.09303H140.023V10.6769H140.8V3.09303Z" fill="black"/>
<path d="M147.792 3.09303H147.016V10.6769H147.792V3.09303Z" fill="black"/>
<path d="M151.286 3.09303H150.51V10.6769H151.286V3.09303Z" fill="black"/>
<path d="M154.781 3.09303H154.004V10.6769H154.781V3.09303Z" fill="black"/>
<path d="M158.277 3.09303H157.5V10.6769H158.277V3.09303Z" fill="black"/>
<path d="M161.771 3.09303H160.994V10.6769H161.771V3.09303Z" fill="black"/>
<path d="M165.267 3.09303H164.49V10.6769H165.267V3.09303Z" fill="black"/>
<path d="M168.761 3.09303H167.984V10.6769H168.761V3.09303Z" fill="black"/>
<path d="M175.753 3.09303H174.977V10.6769H175.753V3.09303Z" fill="black"/>
<path d="M179.249 3.09303H178.473V10.6769H179.249V3.09303Z" fill="black"/>
<path d="M182.744 3.09303H181.967V10.6769H182.744V3.09303Z" fill="black"/>
<path d="M186.238 3.09303H185.461V10.6769H186.238V3.09303Z" fill="black"/>
<path d="M189.734 3.09303H188.957V10.6769H189.734V3.09303Z" fill="black"/>
<path d="M193.228 3.09303H192.451V10.6769H193.228V3.09303Z" fill="black"/>
<path d="M196.724 3.09303H195.947V10.6769H196.724V3.09303Z" fill="black"/>
<path d="M203.716 3.09303H202.939V10.6769H203.716V3.09303Z" fill="black"/>
<path d="M207.21 3.09303H206.434V10.6769H207.21V3.09303Z" fill="black"/>
<path d="M210.704 3.09303H209.928V10.6769H210.704V3.09303Z" fill="black"/>
<path d="M214.201 3.09303H213.424V10.6769H214.201V3.09303Z" fill="black"/>
<path d="M217.695 3.09303H216.918V10.6769H217.695V3.09303Z" fill="black"/>
<path d="M221.191 3.09303H220.414V10.6769H221.191V3.09303Z" fill="black"/>
<path d="M224.685 3.09303H223.908V10.6769H224.685V3.09303Z" fill="black"/>
<path d="M231.677 3.09303H230.9V10.6769H231.677V3.09303Z" fill="black"/>
<path d="M235.173 3.09303H234.397V10.6769H235.173V3.09303Z" fill="black"/>
<path d="M238.667 3.09303H237.891V10.6769H238.667V3.09303Z" fill="black"/>
<path d="M242.162 3.09303H241.385V10.6769H242.162V3.09303Z" fill="black"/>
<path d="M245.658 3.09303H244.881V10.6769H245.658V3.09303Z" fill="black"/>
<path d="M249.152 3.09303H248.375V10.6769H249.152V3.09303Z" fill="black"/>
<path d="M252.65 3.09303H251.873V10.6769H252.65V3.09303Z" fill="black"/>
<path d="M259.64 3.09303H258.863V10.6769H259.64V3.09303Z" fill="black"/>
<path d="M263.134 3.09303H262.357V10.6769H263.134V3.09303Z" fill="black"/>
<path d="M266.63 3.09303H265.854V10.6769H266.63V3.09303Z" fill="black"/>
<path d="M270.124 3.09303H269.348V10.6769H270.124V3.09303Z" fill="black"/>
<path d="M273.618 3.09303H272.842V10.6769H273.618V3.09303Z" fill="black"/>
<path d="M277.117 3.09303H276.34V10.6769H277.117V3.09303Z" fill="black"/>
<path d="M280.611 3.09303H279.834V10.6769H280.611V3.09303Z" fill="black"/>
<path d="M287.601 3.09303H286.824V10.6769H287.601V3.09303Z" fill="black"/>
<path d="M291.097 3.09303H290.32V10.6769H291.097V3.09303Z" fill="black"/>
<path d="M294.591 3.09303H293.814V10.6769H294.591V3.09303Z" fill="black"/>
<path d="M298.085 3.09303H297.309V10.6769H298.085V3.09303Z" fill="black"/>
<path d="M301.583 3.09303H300.807V10.6769H301.583V3.09303Z" fill="black"/>
<path d="M305.077 3.09303H304.301V10.6769H305.077V3.09303Z" fill="black"/>
<path d="M308.574 3.09303H307.797V10.6769H308.574V3.09303Z" fill="black"/>
<path d="M315.564 3.09303H314.787V10.6769H315.564V3.09303Z" fill="black"/>
<path d="M319.058 3.09303H318.281V10.6769H319.058V3.09303Z" fill="black"/>
<path d="M322.554 3.09303H321.777V10.6769H322.554V3.09303Z" fill="black"/>
<path d="M326.048 3.09303H325.271V10.6769H326.048V3.09303Z" fill="black"/>
<path d="M329.542 3.09303H328.766V10.6769H329.542V3.09303Z" fill="black"/>
<path d="M333.04 3.09303H332.264V10.6769H333.04V3.09303Z" fill="black"/>
<path d="M336.535 3.09303H335.758V10.6769H336.535V3.09303Z" fill="black"/>
<path d="M6.42734 25.4616C6.42734 26.6107 6.27199 27.4534 5.88363 27.9896C5.49527 28.5258 4.95156 28.8322 4.2525 28.8322C3.55345 28.8322 3.00974 28.5258 2.62138 27.9896C2.15535 27.3768 2 26.6107 2 25.4616C2 24.3126 2.15535 23.4699 2.54371 22.9337C2.93207 22.3975 3.47578 22.091 4.17483 22.091C4.87388 22.091 5.41759 22.3975 5.80596 22.9337C6.19432 23.5465 6.42734 24.3892 6.42734 25.4616ZM2.77673 25.4616C2.77673 26.3809 2.8544 27.1469 3.08742 27.53C3.32043 27.9896 3.7088 28.2194 4.17483 28.2194C4.64087 28.2194 5.02923 27.9896 5.26225 27.53C5.49527 27.0703 5.57294 26.3809 5.57294 25.4616C5.57294 24.5424 5.49527 23.853 5.26225 23.3933C5.02923 22.9337 4.64087 22.7039 4.17483 22.7039C3.7088 22.7039 3.32043 22.9337 3.08742 23.3167C2.8544 23.8529 2.77673 24.5424 2.77673 25.4616Z" fill="black"/>
<path d="M60.6422 28.7562H59.9432V24.0833C59.9432 23.7003 59.9432 23.3173 59.9432 23.0109C59.8655 23.0875 59.7878 23.1641 59.7102 23.2407C59.6325 23.3173 59.2441 23.6237 58.6227 24.0833L58.2344 23.5471L60.0208 22.1682H60.6422V28.7562V28.7562Z" fill="black"/>
<path d="M118.356 28.7561H114.006V28.1433L115.792 26.3814C116.336 25.8451 116.647 25.4621 116.88 25.2323C117.035 25.0025 117.19 24.7727 117.268 24.5429C117.346 24.313 117.423 24.0832 117.423 23.8534C117.423 23.4704 117.346 23.2406 117.113 23.0108C116.88 22.781 116.569 22.7043 116.181 22.7043C115.87 22.7043 115.637 22.781 115.404 22.8576C115.171 22.9342 114.86 23.0874 114.55 23.3172L114.161 22.781C114.783 22.2447 115.404 22.0149 116.181 22.0149C116.802 22.0149 117.268 22.1681 117.656 22.4745C118.045 22.781 118.2 23.2406 118.2 23.7768C118.2 24.1598 118.045 24.6195 117.812 25.0025C117.579 25.3855 117.113 25.9217 116.491 26.5346L115.016 27.9135H118.433V28.7561H118.356Z" fill="black"/>
<path d="M173.81 23.6998C173.81 24.0828 173.655 24.4658 173.422 24.6956C173.189 24.9254 172.878 25.1553 172.412 25.2319C172.956 25.3085 173.344 25.4617 173.577 25.7681C173.81 26.0745 173.965 26.3809 173.965 26.8406C173.965 27.4534 173.732 27.913 173.344 28.296C172.878 28.6025 172.257 28.8323 171.48 28.8323C171.091 28.8323 170.781 28.8323 170.548 28.7557C170.237 28.6791 170.004 28.6025 169.693 28.4493V27.7598C170.004 27.913 170.315 27.9896 170.625 28.0662C170.936 28.1428 171.247 28.1428 171.558 28.1428C172.723 28.1428 173.266 27.6832 173.266 26.8406C173.266 26.0745 172.645 25.6149 171.402 25.6149H170.781V25.0021H171.48C172.024 25.0021 172.412 24.9254 172.723 24.6956C173.033 24.4658 173.189 24.1594 173.189 23.7764C173.189 23.47 173.111 23.2401 172.878 23.0103C172.645 22.8571 172.334 22.7039 171.946 22.7039C171.635 22.7039 171.402 22.7805 171.091 22.8571C170.858 22.9337 170.548 23.0869 170.237 23.3168L169.849 22.7805C170.159 22.5507 170.47 22.3975 170.781 22.2443C171.091 22.0911 171.48 22.0911 171.946 22.0911C172.567 22.0911 173.111 22.2443 173.422 22.5507C173.655 22.8571 173.81 23.2401 173.81 23.6998Z" fill="black"/>
<path d="M230.356 27.2241H229.346V28.7562H228.647V27.2241H225.385V26.6113L228.569 22.1682H229.346V26.6113H230.356V27.2241V27.2241ZM228.647 26.5347V24.3898C228.647 23.9301 228.647 23.4705 228.725 22.9343C228.569 23.2407 228.414 23.4705 228.336 23.6237L226.239 26.5347H228.647Z" fill="black"/>
<path d="M284.497 24.7724C285.196 24.7724 285.74 24.9256 286.128 25.3086C286.516 25.615 286.749 26.1512 286.749 26.6875C286.749 27.3769 286.516 27.9131 286.128 28.2962C285.662 28.6792 285.118 28.909 284.342 28.909C283.565 28.909 283.021 28.7558 282.633 28.526V27.8365C282.866 27.9897 283.099 28.0663 283.41 28.143C283.72 28.2196 284.031 28.2196 284.342 28.2196C284.885 28.2196 285.274 28.0663 285.584 27.8365C285.895 27.6067 286.05 27.2237 286.05 26.7641C286.05 25.8448 285.507 25.3852 284.342 25.3852C284.031 25.3852 283.643 25.4618 283.177 25.5384L282.788 25.3086L283.021 22.2444H286.361V22.9338H283.72L283.565 24.9256C283.798 24.7724 284.186 24.7724 284.497 24.7724Z" fill="black"/>
<path d="M337.701 25.9217C337.701 24.6195 337.934 23.7002 338.478 23.0108C339.022 22.3979 339.721 22.0149 340.73 22.0149C341.041 22.0149 341.352 22.0149 341.507 22.0915V22.7043C341.274 22.6277 341.041 22.6277 340.73 22.6277C340.031 22.6277 339.488 22.8576 339.099 23.3172C338.711 23.7768 338.478 24.4663 338.478 25.3855H338.556C338.866 24.8493 339.41 24.6195 340.109 24.6195C340.73 24.6195 341.196 24.7727 341.507 25.1557C341.818 25.5387 342.051 25.9983 342.051 26.6112C342.051 27.3006 341.895 27.8369 341.507 28.2199C341.119 28.6029 340.653 28.8327 339.954 28.8327C339.255 28.8327 338.711 28.6029 338.323 28.0667C337.934 27.5304 337.701 26.841 337.701 25.9217ZM339.954 28.2199C340.42 28.2199 340.73 28.0667 340.963 27.8369C341.196 27.607 341.352 27.1474 341.352 26.6878C341.352 26.2282 341.274 25.9217 341.041 25.6919C340.808 25.4621 340.497 25.3089 340.031 25.3089C339.721 25.3089 339.488 25.3855 339.255 25.4621C339.022 25.5387 338.866 25.6919 338.711 25.9217C338.556 26.1516 338.478 26.3048 338.478 26.5346C338.478 26.841 338.556 27.1474 338.633 27.3772C338.789 27.607 338.944 27.8369 339.177 27.9901C339.41 28.1433 339.643 28.2199 339.954 28.2199Z" fill="black"/>
<path d="M29.4974 25.0787H28.9537V21.5549C28.9537 21.2485 28.9537 21.0187 28.9537 20.7122C28.876 20.7888 28.876 20.7888 28.7984 20.8654C28.7207 20.9421 28.4877 21.1719 28.0216 21.5549L27.7109 21.1719L29.0314 20.176H29.4974V25.0787Z" fill="black"/>
<path d="M33.3038 20.176L31.4397 25.0787H30.8183L32.6824 20.176H33.3038Z" fill="black"/>
<path d="M37.188 25.0792H33.9258V24.6195L35.2462 23.3173C35.6346 22.9342 35.9453 22.6278 36.0229 22.4746C36.1783 22.3214 36.256 22.1682 36.3336 21.9384C36.4113 21.7852 36.4113 21.632 36.4113 21.4021C36.4113 21.1723 36.3336 20.9425 36.1783 20.7893C36.0229 20.6361 35.7899 20.5595 35.4792 20.5595C35.2462 20.5595 35.0909 20.5595 34.8579 20.6361C34.7025 20.7127 34.4695 20.7893 34.2365 21.0191L33.9258 20.6361C34.3918 20.2531 34.8579 20.0999 35.4016 20.0999C35.8676 20.0999 36.256 20.2531 36.489 20.4829C36.722 20.7127 36.8773 21.0191 36.8773 21.4021C36.8773 21.7086 36.7997 22.015 36.6443 22.3214C36.489 22.6278 36.1006 23.0108 35.6346 23.4705L34.6248 24.5429H37.188V25.0792Z" fill="black"/>
<path d="M85.1888 25.0787H84.6451V21.5549C84.6451 21.2485 84.6451 21.0187 84.6451 20.7122C84.5674 20.7888 84.5674 20.7888 84.4898 20.8654C84.4121 20.9421 84.1791 21.1719 83.713 21.5549L83.4023 21.1719L84.7228 20.176H85.1888V25.0787V25.0787Z" fill="black"/>
<path d="M88.9952 20.176L87.131 25.0787H86.5097L88.3738 20.176H88.9952Z" fill="black"/>
<path d="M92.8794 25.0792H89.6172V24.6195L90.9376 23.3173C91.326 22.9342 91.6367 22.6278 91.7143 22.4746C91.8697 22.3214 91.9474 22.1682 92.025 21.9384C92.1027 21.7852 92.1027 21.632 92.1027 21.4021C92.1027 21.1723 92.025 20.9425 91.8697 20.7893C91.7143 20.6361 91.4813 20.5595 91.1706 20.5595C90.9376 20.5595 90.7823 20.5595 90.5493 20.6361C90.3939 20.7127 90.1609 20.7893 89.9279 21.0191L89.6172 20.6361C90.0832 20.2531 90.5493 20.0999 91.093 20.0999C91.559 20.0999 91.9474 20.2531 92.1804 20.4829C92.4134 20.7127 92.5687 21.0191 92.5687 21.4021C92.5687 21.7086 92.4911 22.015 92.3357 22.3214C92.1804 22.6278 91.792 23.0108 91.326 23.4705L90.2386 24.5429H92.8018V25.0792H92.8794Z" fill="black"/>
<path d="M141.423 25.0787H140.88V21.5549C140.88 21.2485 140.88 21.0187 140.88 20.7122C140.802 20.7888 140.802 20.7888 140.724 20.8654C140.646 20.9421 140.413 21.1719 139.947 21.5549L139.637 21.1719L140.957 20.176H141.423V25.0787Z" fill="black"/>
<path d="M145.23 20.176L143.366 25.0787H142.822L144.686 20.176H145.23Z" fill="black"/>
<path d="M149.19 25.0792H145.928V24.6195L147.248 23.3173C147.637 22.9342 147.947 22.6278 148.025 22.4746C148.18 22.3214 148.258 22.1682 148.336 21.9384C148.413 21.7852 148.413 21.632 148.413 21.4021C148.413 21.1723 148.336 20.9425 148.18 20.7893C148.025 20.6361 147.792 20.5595 147.481 20.5595C147.248 20.5595 147.093 20.5595 146.86 20.6361C146.704 20.7127 146.471 20.7893 146.238 21.0191L145.928 20.6361C146.394 20.2531 146.86 20.0999 147.404 20.0999C147.87 20.0999 148.258 20.2531 148.491 20.4829C148.724 20.7127 148.879 21.0191 148.879 21.4021C148.879 21.7086 148.802 22.015 148.646 22.3214C148.491 22.6278 148.103 23.0108 147.637 23.4705L146.549 24.5429H149.112V25.0792H149.19Z" fill="black"/>
<path d="M197.97 25.0787H197.426V21.5549C197.426 21.2485 197.426 21.0187 197.426 20.7122C197.349 20.7888 197.349 20.7888 197.271 20.8654C197.193 20.9421 196.96 21.1719 196.494 21.5549L196.184 21.1719L197.504 20.176H197.97V25.0787Z" fill="black"/>
<path d="M201.699 20.176L199.835 25.0787H199.291L201.155 20.176H201.699Z" fill="black"/>
<path d="M205.661 25.0792H202.398V24.6195L203.719 23.3173C204.107 22.9342 204.418 22.6278 204.496 22.4746C204.651 22.3214 204.729 22.1682 204.806 21.9384C204.884 21.7852 204.884 21.632 204.884 21.4021C204.884 21.1723 204.806 20.9425 204.651 20.7893C204.496 20.6361 204.263 20.5595 203.952 20.5595C203.719 20.5595 203.564 20.5595 203.331 20.6361C203.175 20.7127 202.942 20.7893 202.709 21.0191L202.398 20.6361C202.864 20.2531 203.33 20.0999 203.874 20.0999C204.34 20.0999 204.729 20.2531 204.962 20.4829C205.195 20.7127 205.35 21.0191 205.35 21.4021C205.35 21.7086 205.272 22.015 205.117 22.3214C204.962 22.6278 204.573 23.0108 204.107 23.4705L203.02 24.5429H205.583V25.0792H205.661Z" fill="black"/>
<path d="M253.273 25.0787H252.729V21.5549C252.729 21.2485 252.729 21.0187 252.729 20.7122C252.651 20.7888 252.651 20.7888 252.574 20.8654C252.496 20.9421 252.263 21.1719 251.797 21.5549L251.486 21.1719L252.807 20.176H253.273V25.0787V25.0787Z" fill="black"/>
<path d="M257.079 20.176L255.215 25.0787H254.594L256.458 20.176H257.079Z" fill="black"/>
<path d="M260.963 25.0792H257.701V24.6195L259.022 23.3173C259.41 22.9342 259.721 22.6278 259.798 22.4746C259.954 22.3214 260.031 22.1682 260.109 21.9384C260.187 21.7852 260.187 21.632 260.187 21.4021C260.187 21.1723 260.109 20.9425 259.954 20.7893C259.798 20.6361 259.565 20.5595 259.255 20.5595C259.022 20.5595 258.866 20.5595 258.633 20.6361C258.478 20.7127 258.245 20.7893 258.012 21.0191L257.701 20.6361C258.167 20.2531 258.633 20.0999 259.177 20.0999C259.643 20.0999 260.031 20.2531 260.264 20.4829C260.497 20.7127 260.653 21.0191 260.653 21.4021C260.653 21.7086 260.575 22.015 260.42 22.3214C260.264 22.6278 259.876 23.0108 259.41 23.4705L258.323 24.5429H260.886V25.0792H260.963Z" fill="black"/>
<path d="M309.351 25.0787H308.807V21.5549C308.807 21.2485 308.807 21.0187 308.807 20.7122C308.73 20.7888 308.73 20.7888 308.652 20.8654C308.574 20.9421 308.341 21.1719 307.875 21.5549L307.564 21.1719L308.885 20.176H309.351V25.0787V25.0787Z" fill="black"/>
<path d="M313.157 20.176L311.293 25.0787H310.672L312.536 20.176H313.157Z" fill="black"/>
<path d="M317.042 25.0792H313.779V24.6195L315.1 23.3173C315.488 22.9342 315.799 22.6278 315.876 22.4746C316.032 22.3214 316.109 22.1682 316.187 21.9384C316.265 21.7852 316.265 21.632 316.265 21.4021C316.265 21.1723 316.187 20.9425 316.032 20.7893C315.876 20.6361 315.643 20.5595 315.333 20.5595C315.1 20.5595 314.944 20.5595 314.711 20.6361C314.556 20.7127 314.323 20.7893 314.09 21.0191L313.779 20.6361C314.245 20.2531 314.711 20.0999 315.255 20.0999C315.721 20.0999 316.109 20.2531 316.342 20.4829C316.576 20.7127 316.731 21.0191 316.731 21.4021C316.731 21.7086 316.653 22.015 316.498 22.3214C316.342 22.6278 315.954 23.0108 315.488 23.4705L314.401 24.5429H316.964V25.0792H317.042Z" fill="black"/>
<path d="M396.033 3.09303H395.256V17.9543H396.033V3.09303Z" fill="black"/>
<path d="M451.958 3.09303H451.182V17.9543H451.958V3.09303Z" fill="black"/>
<path d="M507.882 3.09303H507.105V17.9543H507.882V3.09303Z" fill="black"/>
<path d="M343.603 3.09303H342.826V10.6769H343.603V3.09303Z" fill="black"/>
<path d="M347.097 3.09303H346.32V10.6769H347.097V3.09303Z" fill="black"/>
<path d="M350.593 3.09303H349.816V10.6769H350.593V3.09303Z" fill="black"/>
<path d="M354.087 3.09303H353.311V10.6769H354.087V3.09303Z" fill="black"/>
<path d="M357.585 3.09303H356.809V10.6769H357.585V3.09303Z" fill="black"/>
<path d="M361.079 3.09303H360.303V10.6769H361.079V3.09303Z" fill="black"/>
<path d="M364.576 3.09303H363.799V10.6769H364.576V3.09303Z" fill="black"/>
<path d="M368.07 3.09303H367.293V14.5071H368.07V3.09303Z" fill="black"/>
<path d="M423.994 3.09303H423.217V14.5071H423.994V3.09303Z" fill="black"/>
<path d="M479.917 3.09303H479.141V14.5071H479.917V3.09303Z" fill="black"/>
<path d="M371.566 3.09303H370.789V10.6769H371.566V3.09303Z" fill="black"/>
<path d="M375.06 3.09303H374.283V10.6769H375.06V3.09303Z" fill="black"/>
<path d="M378.554 3.09303H377.777V10.6769H378.554V3.09303Z" fill="black"/>
<path d="M382.052 3.09303H381.275V10.6769H382.052V3.09303Z" fill="black"/>
<path d="M385.546 3.09303H384.77V10.6769H385.546V3.09303Z" fill="black"/>
<path d="M389.042 3.09303H388.266V10.6769H389.042V3.09303Z" fill="black"/>
<path d="M392.537 3.09303H391.76V10.6769H392.537V3.09303Z" fill="black"/>
<path d="M399.527 3.09303H398.75V10.6769H399.527V3.09303Z" fill="black"/>
<path d="M403.021 3.09303H402.244V10.6769H403.021V3.09303Z" fill="black"/>
<path d="M406.519 3.09303H405.742V10.6769H406.519V3.09303Z" fill="black"/>
<path d="M410.011 3.09303H409.234V10.6769H410.011V3.09303Z" fill="black"/>
<path d="M413.509 3.09303H412.732V10.6769H413.509V3.09303Z" fill="black"/>
<path d="M417.003 3.09303H416.227V10.6769H417.003V3.09303Z" fill="black"/>
<path d="M420.499 3.09303H419.723V10.6769H420.499V3.09303Z" fill="black"/>
<path d="M427.49 3.09303H426.713V10.6769H427.49V3.09303Z" fill="black"/>
<path d="M430.984 3.09303H430.207V10.6769H430.984V3.09303Z" fill="black"/>
<path d="M434.478 3.09303H433.701V10.6769H434.478V3.09303Z" fill="black"/>
<path d="M437.976 3.09303H437.199V10.6769H437.976V3.09303Z" fill="black"/>
<path d="M441.47 3.09303H440.693V10.6769H441.47V3.09303Z" fill="black"/>
<path d="M444.966 3.09303H444.19V10.6769H444.966V3.09303Z" fill="black"/>
<path d="M448.46 3.09303H447.684V10.6769H448.46V3.09303Z" fill="black"/>
<path d="M455.451 3.09303H454.674V10.6769H455.451V3.09303Z" fill="black"/>
<path d="M458.945 3.09303H458.168V10.6769H458.945V3.09303Z" fill="black"/>
<path d="M462.443 3.09303H461.666V10.6769H462.443V3.09303Z" fill="black"/>
<path d="M465.937 3.09303H465.16V10.6769H465.937V3.09303Z" fill="black"/>
<path d="M469.433 3.09303H468.656V10.6769H469.433V3.09303Z" fill="black"/>
<path d="M472.927 3.09303H472.15V10.6769H472.927V3.09303Z" fill="black"/>
<path d="M476.423 3.09303H475.646V10.6769H476.423V3.09303Z" fill="black"/>
<path d="M483.415 3.09303H482.639V10.6769H483.415V3.09303Z" fill="black"/>
<path d="M486.909 3.09303H486.133V10.6769H486.909V3.09303Z" fill="black"/>
<path d="M490.404 3.09303H489.627V10.6769H490.404V3.09303Z" fill="black"/>
<path d="M493.9 3.09303H493.123V10.6769H493.9V3.09303Z" fill="black"/>
<path d="M497.394 3.09303H496.617V10.6769H497.394V3.09303Z" fill="black"/>
<path d="M500.89 3.09303H500.113V10.6769H500.89V3.09303Z" fill="black"/>
<path d="M504.384 3.09303H503.607V10.6769H504.384V3.09303Z" fill="black"/>
<path d="M394.323 28.7552L397.119 22.8567H393.469V22.1672H397.896V22.7801L395.178 28.7552H394.323Z" fill="black"/>
<path d="M451.8 22.0911C452.422 22.0911 452.888 22.2443 453.276 22.4741C453.664 22.7805 453.82 23.1635 453.82 23.6232C453.82 23.9296 453.742 24.236 453.509 24.5424C453.276 24.7722 452.965 25.0787 452.499 25.2319C453.043 25.4617 453.431 25.7681 453.664 25.9979C453.897 26.3043 453.975 26.6108 453.975 26.9938C453.975 27.53 453.82 27.9896 453.431 28.296C453.043 28.6025 452.499 28.7557 451.878 28.7557C451.179 28.7557 450.635 28.6025 450.247 28.296C449.858 27.9896 449.703 27.53 449.703 26.9938C449.703 26.2277 450.169 25.6915 451.101 25.2319C450.713 25.0021 450.402 24.7722 450.169 24.4658C450.014 24.1594 449.858 23.9296 449.858 23.5466C449.858 23.0869 450.014 22.7039 450.402 22.3975C450.713 22.2443 451.179 22.0911 451.8 22.0911ZM450.325 27.0704C450.325 27.4534 450.48 27.6832 450.713 27.913C450.946 28.1428 451.334 28.2194 451.8 28.2194C452.266 28.2194 452.577 28.1428 452.888 27.913C453.121 27.6832 453.276 27.4534 453.276 27.0704C453.276 26.764 453.121 26.5341 452.888 26.3043C452.655 26.0745 452.266 25.8447 451.645 25.6149C451.179 25.8447 450.868 25.9979 450.635 26.2277C450.48 26.5341 450.325 26.764 450.325 27.0704ZM451.8 22.7039C451.412 22.7039 451.101 22.7805 450.946 23.0103C450.713 23.1635 450.635 23.3934 450.635 23.6998C450.635 24.0062 450.713 24.236 450.868 24.3892C451.024 24.619 451.412 24.7722 451.878 25.0021C452.344 24.8488 452.655 24.619 452.81 24.3892C452.965 24.1594 453.043 23.9296 453.043 23.6998C453.043 23.3934 452.965 23.1635 452.732 23.0103C452.422 22.7805 452.189 22.7039 451.8 22.7039Z" fill="black"/>
<path d="M509.744 25.0021C509.744 27.6066 508.734 28.8323 506.715 28.8323C506.326 28.8323 506.093 28.8323 505.86 28.7557V28.1428C506.093 28.2194 506.404 28.296 506.715 28.296C507.414 28.296 507.957 28.0662 508.346 27.6066C508.734 27.147 508.889 26.4575 508.967 25.5383H508.889C508.734 25.7681 508.501 25.9979 508.19 26.0745C507.88 26.2277 507.569 26.3043 507.258 26.3043C506.637 26.3043 506.171 26.1511 505.86 25.7681C505.549 25.3851 505.316 24.9254 505.316 24.3126C505.316 23.6232 505.472 23.0869 505.86 22.7039C506.248 22.3209 506.792 22.0911 507.414 22.0911C507.88 22.0911 508.268 22.1677 508.579 22.3975C508.889 22.6273 509.2 22.9337 509.355 23.3934C509.588 23.853 509.744 24.3892 509.744 25.0021ZM507.491 22.7039C507.025 22.7039 506.715 22.8571 506.482 23.0869C506.248 23.3934 506.093 23.7764 506.093 24.236C506.093 24.6956 506.171 25.0021 506.404 25.2319C506.637 25.4617 506.948 25.6149 507.414 25.6149C507.724 25.6149 507.957 25.5383 508.19 25.4617C508.423 25.3851 508.579 25.2319 508.734 25.0021C508.889 24.7722 508.967 24.619 508.967 24.3892C508.967 24.0828 508.889 23.7764 508.812 23.5466C508.656 23.3168 508.501 23.0869 508.268 22.9337C508.035 22.7805 507.724 22.7039 507.491 22.7039Z" fill="black"/>
<path d="M365.12 25.0777H364.577V21.5539C364.577 21.2475 364.577 21.0177 364.577 20.7113C364.499 20.7879 364.499 20.7879 364.421 20.8645C364.344 20.9411 364.111 21.1709 363.645 21.5539L363.334 21.1709L364.654 20.175H365.12V25.0777V25.0777Z" fill="black"/>
<path d="M368.927 20.1751L367.063 25.0778H366.441L368.306 20.1751H368.927Z" fill="black"/>
<path d="M372.811 25.0782H369.549V24.6186L370.869 23.3163C371.258 22.9333 371.568 22.6268 371.646 22.4736C371.801 22.3204 371.879 22.1672 371.957 21.9374C372.034 21.7842 372.034 21.631 372.034 21.4012C372.034 21.1714 371.957 20.9415 371.801 20.7883C371.646 20.6351 371.413 20.5585 371.102 20.5585C370.869 20.5585 370.714 20.5585 370.481 20.6351C370.326 20.7117 370.093 20.7883 369.86 21.0181L369.549 20.6351C370.015 20.2521 370.481 20.0989 371.025 20.0989C371.491 20.0989 371.879 20.2521 372.112 20.4819C372.345 20.7117 372.5 21.0181 372.5 21.4012C372.5 21.7076 372.423 22.014 372.267 22.3204C372.112 22.6268 371.724 23.0099 371.258 23.4695L370.17 24.542H372.733V25.0782H372.811Z" fill="black"/>
<path d="M420.812 25.0777H420.268V21.5539C420.268 21.2475 420.268 21.0177 420.268 20.7113C420.19 20.7879 420.19 20.7879 420.113 20.8645C420.035 20.9411 419.802 21.1709 419.336 21.5539L419.025 21.1709L420.346 20.175H420.812V25.0777Z" fill="black"/>
<path d="M424.618 20.175L422.754 25.0777H422.133L423.997 20.175H424.618Z" fill="black"/>
<path d="M428.503 25.0782H425.24V24.6186L426.561 23.3163C426.949 22.9333 427.26 22.6268 427.337 22.4736C427.493 22.3204 427.57 22.1672 427.648 21.9374C427.726 21.7842 427.726 21.631 427.726 21.4012C427.726 21.1714 427.648 20.9415 427.493 20.7883C427.337 20.6351 427.104 20.5585 426.794 20.5585C426.561 20.5585 426.405 20.5585 426.172 20.6351C426.017 20.7117 425.784 20.7883 425.551 21.0181L425.24 20.6351C425.706 20.2521 426.172 20.0989 426.716 20.0989C427.182 20.0989 427.57 20.2521 427.803 20.4819C428.036 20.7117 428.192 21.0181 428.192 21.4012C428.192 21.7076 428.114 22.014 427.959 22.3204C427.803 22.6268 427.415 23.0099 426.949 23.4695L425.862 24.542H428.425V25.0782H428.503Z" fill="black"/>
<path d="M477.126 25.0777H476.583V21.5539C476.583 21.2475 476.583 21.0177 476.583 20.7113C476.505 20.7879 476.505 20.7879 476.427 20.8645C476.35 20.9411 476.117 21.1709 475.651 21.5539L475.34 21.1709L476.583 20.175H477.049V25.0777H477.126Z" fill="black"/>
<path d="M480.855 20.175L478.991 25.0777H478.447L480.311 20.175H480.855Z" fill="black"/>
<path d="M484.817 25.0782H481.555V24.6186L482.875 23.3163C483.263 22.9333 483.574 22.6268 483.652 22.4736C483.807 22.3204 483.885 22.1672 483.963 21.9374C484.04 21.7842 484.04 21.631 484.04 21.4012C484.04 21.1714 483.963 20.9415 483.807 20.7883C483.652 20.6351 483.419 20.5585 483.108 20.5585C482.875 20.5585 482.72 20.5585 482.487 20.6351C482.331 20.7117 482.098 20.7883 481.865 21.0181L481.555 20.6351C482.021 20.2521 482.487 20.0989 483.03 20.0989C483.496 20.0989 483.885 20.2521 484.118 20.4819C484.351 20.7117 484.506 21.0181 484.506 21.4012C484.506 21.7076 484.429 22.014 484.273 22.3204C484.118 22.6268 483.729 23.0099 483.263 23.4695L482.176 24.542H484.739V25.0782H484.817Z" fill="black"/>
<path d="M563.652 3.09303H562.875V17.9543H563.652V3.09303Z" fill="black"/>
<path d="M535.689 3.09303H534.912V14.5071H535.689V3.09303Z" fill="black"/>
<path d="M511.222 3.09303H510.445V10.6769H511.222V3.09303Z" fill="black"/>
<path d="M514.718 3.09303H513.941V10.6769H514.718V3.09303Z" fill="black"/>
<path d="M518.212 3.09303H517.436V10.6769H518.212V3.09303Z" fill="black"/>
<path d="M521.708 3.09303H520.932V10.6769H521.708V3.09303Z" fill="black"/>
<path d="M525.203 3.09303H524.426V10.6769H525.203V3.09303Z" fill="black"/>
<path d="M528.701 3.09303H527.924V10.6769H528.701V3.09303Z" fill="black"/>
<path d="M532.195 3.09303H531.418V10.6769H532.195V3.09303Z" fill="black"/>
<path d="M539.185 3.09303H538.408V10.6769H539.185V3.09303Z" fill="black"/>
<path d="M542.679 3.09303H541.902V10.6769H542.679V3.09303Z" fill="black"/>
<path d="M546.175 3.09303H545.398V10.6769H546.175V3.09303Z" fill="black"/>
<path d="M549.669 3.09303H548.893V10.6769H549.669V3.09303Z" fill="black"/>
<path d="M553.167 3.09303H552.391V10.6769H553.167V3.09303Z" fill="black"/>
<path d="M556.661 3.09303H555.885V10.6769H556.661V3.09303Z" fill="black"/>
<path d="M560.156 3.09303H559.379V10.6769H560.156V3.09303Z" fill="black"/>
<path d="M561.554 28.7552H560.855V24.0823C560.855 23.6993 560.855 23.3163 560.855 23.0099C560.778 23.0865 560.7 23.1631 560.622 23.2397C560.545 23.3163 560.156 23.6227 559.535 24.0823L559.146 23.5461L560.933 22.1672H561.554V28.7552Z" fill="black"/>
<path d="M568.002 25.4617C568.002 26.6107 567.847 27.4534 567.458 27.9896C567.07 28.5259 566.526 28.8323 565.827 28.8323C565.128 28.8323 564.584 28.5259 564.196 27.9896C563.808 27.4534 563.652 26.6107 563.652 25.4617C563.652 24.3126 563.808 23.47 564.196 22.9337C564.584 22.3975 565.128 22.0911 565.827 22.0911C566.526 22.0911 567.07 22.3975 567.458 22.9337C567.847 23.5466 568.002 24.3892 568.002 25.4617ZM564.351 25.4617C564.351 26.3809 564.429 27.147 564.662 27.53C564.895 27.9896 565.283 28.2194 565.75 28.2194C566.216 28.2194 566.604 27.9896 566.837 27.53C567.07 27.0704 567.148 26.3809 567.148 25.4617C567.148 24.5424 567.07 23.853 566.837 23.3934C566.604 22.9337 566.216 22.7039 565.75 22.7039C565.283 22.7039 564.895 22.9337 564.662 23.3168C564.507 23.853 564.351 24.5424 564.351 25.4617Z" fill="black"/>
<path d="M532.814 25.0777H532.27V21.5539C532.27 21.2475 532.27 21.0177 532.27 20.7113C532.192 20.7879 532.192 20.7879 532.115 20.8645C532.037 20.9411 531.804 21.1709 531.338 21.5539L531.027 21.1709L532.348 20.175H532.814V25.0777Z" fill="black"/>
<path d="M536.621 20.1751L534.757 25.0778H534.213L536.077 20.1751H536.621Z" fill="black"/>
<path d="M540.581 25.0782H537.318V24.6186L538.639 23.3163C539.027 22.9333 539.338 22.6268 539.416 22.4736C539.571 22.3204 539.649 22.1672 539.726 21.9374C539.804 21.7842 539.804 21.631 539.804 21.4012C539.804 21.1714 539.726 20.9415 539.571 20.7883C539.415 20.6351 539.183 20.5585 538.872 20.5585C538.639 20.5585 538.483 20.5585 538.25 20.6351C538.095 20.7117 537.862 20.7883 537.629 21.0181L537.318 20.6351C537.784 20.2521 538.25 20.0989 538.794 20.0989C539.26 20.0989 539.649 20.2521 539.882 20.4819C540.115 20.7117 540.27 21.0181 540.27 21.4012C540.27 21.7076 540.192 22.014 540.037 22.3204C539.882 22.6268 539.493 23.0099 539.027 23.4695L537.94 24.542H540.503V25.0782H540.581Z" fill="black"/>
</g>
<g clip-path="url(#clip2_6_314)">
<path d="M522.736 51.4136C521.9 51.4136 521.316 50.7726 521.316 49.9607C521.316 49.1487 521.942 48.5077 522.736 48.5077C523.571 48.5077 524.156 49.1487 524.156 49.9607C524.156 50.7726 523.571 51.4136 522.736 51.4136ZM525.952 51.3282C525.659 51.3282 525.534 51.1572 525.534 50.9008V47.3111H524.198V47.9948C523.78 47.482 523.195 47.1829 522.485 47.1829C521.023 47.1829 519.938 48.3795 519.938 49.9607C519.938 51.5419 521.023 52.7384 522.485 52.7384C523.237 52.7384 523.863 52.3538 524.281 51.7983C524.49 52.3538 524.949 52.653 525.659 52.653H526.035V51.3282H525.952V51.3282Z" fill="#9C6A17"/>
<path d="M529.46 52.7384C530.839 52.7384 531.924 51.841 532.175 50.5589H530.755C530.546 51.0718 530.045 51.4136 529.46 51.4136C528.625 51.4136 528.04 50.7726 528.04 49.9607C528.04 49.1487 528.667 48.5077 529.46 48.5077C530.045 48.5077 530.546 48.8495 530.755 49.3624H532.175C531.924 48.0803 530.839 47.1829 529.46 47.1829C527.873 47.1829 526.662 48.3795 526.662 49.9607C526.662 51.5419 527.873 52.7384 529.46 52.7384Z" fill="#9C6A17"/>
<path d="M536.06 48.5502V47.3109H534.849V45.9007H533.596V46.8836C533.596 47.1827 533.471 47.3109 533.178 47.3109H532.719V48.5502H533.554V50.9434C533.554 52.0545 534.181 52.6101 535.35 52.6101H536.06V51.3707H535.559C535.141 51.3707 534.891 51.1143 534.891 50.687V48.5502H536.06Z" fill="#9C6A17"/>
<path d="M537.187 52.6101H538.523V47.3109H537.187V52.6101ZM537.855 46.5417C538.314 46.5417 538.69 46.1571 538.69 45.687C538.69 45.2169 538.314 44.8323 537.855 44.8323C537.395 44.8323 537.02 45.2169 537.02 45.687C537.02 46.1571 537.354 46.5417 537.855 46.5417Z" fill="#9C6A17"/>
<path d="M542.951 48.5502V47.3109H541.739V45.9007H540.486V46.8836C540.486 47.1827 540.361 47.3109 540.069 47.3109H539.609V48.5502H540.445V50.9434C540.445 52.0545 541.071 52.6101 542.241 52.6101H542.951V51.3707H542.449C542.032 51.3707 541.781 51.1143 541.781 50.687V48.5502H542.951Z" fill="#9C6A17"/>
<path d="M549.508 51.3287C549.216 51.3287 549.091 51.1577 549.091 50.9013V49.2774C549.091 48.0381 548.297 47.2261 547.044 47.2261C546.376 47.2261 545.791 47.5253 545.374 48.0381V45.1321H544.037V52.6535H545.374V49.7475C545.374 49.021 545.875 48.5509 546.585 48.5509C547.253 48.5509 547.712 49.021 547.712 49.7475V51.2005C547.712 52.1834 548.214 52.6535 549.216 52.6535H549.592V51.3287H549.508V51.3287Z" fill="#9C6A17"/>
<path d="M550.468 52.6101H551.804V47.3109H550.468V52.6101ZM551.136 46.5417C551.595 46.5417 551.971 46.1571 551.971 45.687C551.971 45.2169 551.595 44.8323 551.136 44.8323C550.677 44.8323 550.301 45.2169 550.301 45.687C550.301 46.1571 550.677 46.5417 551.136 46.5417Z" fill="#9C6A17"/>
<path d="M558.653 51.3284C558.36 51.3284 558.235 51.1575 558.235 50.9011V49.2771C558.235 48.0378 557.442 47.2258 556.189 47.2258C555.52 47.2258 554.936 47.4823 554.518 47.9951V47.3113H553.182V52.6105H554.518V49.7045C554.518 48.978 555.019 48.5079 555.729 48.5079C556.398 48.5079 556.857 48.978 556.857 49.7045V51.1575C556.857 52.1404 557.358 52.6105 558.36 52.6105H558.736V51.2857H558.653V51.3284Z" fill="#9C6A17"/>
<path fill-rule="evenodd" clip-rule="evenodd" d="M515.803 47.3529C515.803 47.3101 515.803 47.3101 515.803 47.2674C515.761 47.1392 515.719 46.9682 515.636 46.7973C515.552 46.6264 515.343 46.3699 515.009 46.3272C514.675 46.2845 514.383 46.4554 514.174 46.6264C513.965 46.7973 513.798 47.0537 513.756 47.3529C513.714 47.6947 513.84 47.9084 514.007 48.0794C514.132 48.2076 514.299 48.293 514.383 48.3358C514.424 48.3785 514.466 48.3785 514.508 48.3785C514.508 48.3785 514.508 48.3785 514.55 48.3785L513.631 52.8657L514.759 53.1221L515.719 48.464L517.933 48.5494C517.849 48.6776 517.807 48.8058 517.724 48.9341C517.557 49.2759 517.39 49.6178 517.264 49.9597C517.139 50.2588 517.014 50.6862 517.056 51.0281C517.097 51.4554 517.223 51.9255 517.599 52.3101C517.974 52.652 518.476 52.8657 519.144 52.9939L519.687 53.0794L519.896 51.9255L519.353 51.84C518.768 51.7118 518.517 51.5836 518.392 51.4554C518.267 51.37 518.225 51.199 518.183 50.8999V50.8571C518.183 50.8144 518.183 50.8144 518.225 50.7717C518.267 50.6862 518.267 50.558 518.35 50.4298C518.476 50.1306 518.601 49.8315 518.768 49.5323C518.977 48.9341 519.311 48.3785 519.311 48.3785C519.311 48.3358 519.394 48.2503 519.394 48.0794C519.394 47.9939 519.353 47.8657 519.311 47.7375C519.227 47.6093 519.144 47.5665 519.06 47.5238C518.977 47.4811 518.893 47.4811 518.851 47.4811L515.803 47.3529Z" fill="#9C6A17"/>
<path d="M497.052 52.3106C496.885 52.0115 496.592 51.7551 496.342 51.5414C496.049 51.3277 495.715 51.0713 495.381 50.9431C495.047 50.8149 494.671 50.8576 494.337 50.9858C494.045 51.0713 493.794 51.285 493.669 51.5841C493.544 51.926 493.544 52.2252 493.794 52.4816C494.045 52.6952 494.379 52.8662 494.671 52.9089C494.755 52.9089 495.005 52.9517 495.089 52.8662C495.172 52.7807 495.131 52.4816 495.131 52.3961C495.047 52.0969 494.755 51.8405 494.504 52.0969C494.254 52.3534 493.878 51.8833 494.128 51.6269C494.421 51.3277 494.88 51.3277 495.214 51.5414C495.548 51.7551 495.715 52.1824 495.715 52.6098C495.715 53.0371 495.59 53.4217 495.172 53.5072C494.796 53.6354 494.337 53.5499 494.003 53.379C493.669 53.2081 493.335 52.9517 493.126 52.6098C492.959 52.2252 493.001 51.7551 493.168 51.3705C493.502 50.5585 494.337 50.2593 495.131 50.3021C495.632 50.3448 496.091 50.644 496.467 50.9004C496.843 51.1995 497.261 51.4987 497.511 51.926C497.678 52.2679 497.219 52.6525 497.052 52.3106Z" fill="#9C6A17"/>
<path d="M504.192 48.9345C504.276 49.6183 503.984 50.2166 503.566 50.2593C503.148 50.302 502.731 49.7465 502.647 49.0627C502.564 48.3789 502.856 47.7807 503.274 47.7379C503.691 47.6952 504.109 48.2507 504.192 48.9345Z" fill="#9C6A17"/>
<path d="M496.174 49.5761C496.174 51.6702 497.886 53.0804 499.933 53.0804C501.979 53.0804 503.608 51.9693 503.65 49.5761C503.691 47.4821 501.979 45.7727 499.933 45.7727C497.844 45.7727 496.174 47.4394 496.174 49.5761Z" fill="#9C6A17"/>
<path d="M500.935 45.9859C500.935 45.8149 499.849 45.7722 499.557 45.1312C499.515 45.0457 499.515 44.9602 499.515 44.9602C499.39 45.003 499.181 45.0884 498.972 45.3021C498.763 45.5158 498.721 45.7295 498.68 45.8149C498.638 45.8149 498.513 45.7295 498.429 45.644C498.346 45.5158 498.346 45.3448 498.346 45.3021C498.262 45.3876 498.137 45.473 498.053 45.644C497.761 46.1141 497.886 46.5842 497.928 46.7124C500.392 46.3277 500.935 46.1141 500.935 45.9859Z" fill="#9C6A17"/>
<path d="M498.22 51.2851C498.428 52.268 499.681 52.8236 500.976 52.4817C502.313 52.1826 503.231 51.1142 503.023 50.174C502.814 49.1911 501.561 48.6356 500.224 48.9774C498.93 49.2766 498.053 50.3022 498.22 51.2851Z" fill="#FECC7B"/>
<path d="M497.804 49.4897C497.971 50.3444 498.722 50.9 499.474 50.6863C500.226 50.4726 500.727 49.6179 500.56 48.7632C500.393 47.9085 499.641 47.353 498.89 47.5666C498.096 47.7376 497.637 48.5923 497.804 49.4897Z" fill="#FECC7B"/>
<path d="M502.48 48.2082C502.647 49.1056 502.188 49.9603 501.52 50.1312C500.81 50.3022 500.1 49.7466 499.974 48.8919C499.766 47.9945 500.225 47.1398 500.935 46.9688C501.603 46.7552 502.313 47.3107 502.48 48.2082Z" fill="#FECC7B"/>
<path d="M496.759 51.5413C496.508 51.5841 496.257 51.4559 496.049 51.1994C495.84 50.943 495.631 50.5584 495.547 50.1311C495.464 49.7037 495.506 49.2764 495.589 48.9345C495.715 48.5926 495.923 48.3789 496.174 48.3362C496.425 48.2507 496.675 48.3789 496.884 48.6353C497.093 48.8918 497.302 49.2764 497.385 49.7037C497.469 50.1311 497.427 50.5584 497.343 50.9003C497.176 51.2849 497.009 51.4986 496.759 51.5413Z" fill="#9C6A17"/>
<path d="M497.177 50.901C497.052 51.2002 496.885 51.3711 496.718 51.4138L496.76 51.6703C497.094 51.5848 497.303 51.3284 497.428 50.9865L497.177 50.901ZM497.219 49.7899C497.303 50.2173 497.261 50.6019 497.177 50.901L497.47 50.9865C497.595 50.6446 497.637 50.1745 497.553 49.7044L497.219 49.7899ZM496.76 48.7643C496.968 48.9779 497.135 49.3626 497.219 49.7899L497.511 49.7472C497.428 49.2771 497.219 48.8497 497.01 48.5933L496.76 48.7643ZM496.175 48.4651C496.342 48.4224 496.593 48.5079 496.76 48.7643L496.968 48.5506C496.76 48.2942 496.467 48.1232 496.133 48.166L496.175 48.4651ZM495.757 48.9779C495.841 48.6788 496.008 48.5079 496.175 48.4651L496.133 48.166C495.799 48.2515 495.59 48.5079 495.465 48.8497L495.757 48.9779ZM495.674 50.0891C495.59 49.6617 495.632 49.2771 495.715 48.9779L495.465 48.8497C495.34 49.1916 495.298 49.6617 495.381 50.1318L495.674 50.0891ZM496.133 51.1147C495.924 50.901 495.757 50.5164 495.674 50.0891L495.381 50.1318C495.465 50.6019 495.674 51.0292 495.883 51.2856L496.133 51.1147ZM496.718 51.4138C496.551 51.4566 496.342 51.3711 496.133 51.1147L495.924 51.2856C496.175 51.5848 496.467 51.7557 496.801 51.6703L496.718 51.4138ZM497.303 50.9438L497.428 50.9865L497.303 50.9438ZM497.386 49.7472L497.261 49.7899L497.386 49.7472ZM496.885 48.6361L497.01 48.5506L496.885 48.6361ZM496.175 48.3369L496.133 48.166L496.175 48.3369ZM495.59 48.9352L495.465 48.8497L495.59 48.9352ZM495.548 50.1318L495.674 50.0891L495.548 50.1318ZM496.008 51.2002L495.924 51.2856L496.008 51.2002ZM496.76 51.5421L496.718 51.4138L496.76 51.5421Z" fill="#FECC7B"/>
<path d="M496.216 50.0888C496.717 51.1572 496.8 51.9692 497.176 51.8837C497.552 51.7982 497.636 50.6444 497.51 49.7042C497.385 48.8068 496.633 48.1657 496.508 48.2939C496.341 48.3367 496.09 49.1914 496.216 50.0888Z" fill="#9C6A17"/>
<path d="M501.854 51.2855C501.812 51.3282 501.311 51.9265 500.434 51.9265C499.807 51.9265 499.223 51.5846 498.889 51.1145C499.014 51.2 499.557 51.6701 500.392 51.7128C501.186 51.7128 501.687 51.3709 501.854 51.2855Z" fill="#9C6A17"/>
<path d="M500.268 50.6014C500.309 50.6014 500.476 50.6441 500.685 50.6441C500.894 50.6014 501.019 50.5586 501.061 50.5159C500.936 50.5159 500.811 50.5586 500.685 50.5586C500.518 50.6014 500.351 50.6014 500.268 50.6014Z" fill="#9C6A17"/>
<path d="M503.609 49.7044C503.651 49.7044 503.693 49.7044 503.693 49.7471L503.86 53.1232C503.86 53.1659 503.86 53.1659 503.818 53.2086L500.895 54.7044H500.853L497.721 53.636C497.679 53.636 497.679 53.5933 497.679 53.5933L497.512 50.2172C497.512 50.1744 497.512 50.1744 497.553 50.1744H497.595L500.686 51.2856C500.728 51.2856 500.728 51.2856 500.769 51.2856L503.609 49.7044Z" fill="#9C6A17"/>
<path d="M500.852 51.3701L503.692 49.8744L503.525 49.5325L500.685 51.0282L500.852 51.3701ZM500.643 51.3701C500.727 51.4128 500.768 51.3701 500.852 51.3701L500.685 51.0709H500.727L500.643 51.3701ZM500.727 51.3701V51.0282V51.3701ZM497.553 50.259L500.643 51.3701L500.768 51.0282L497.678 49.9598L497.553 50.259ZM497.594 50.3017V49.9598V50.3017ZM497.678 50.259L497.636 50.3017C497.594 50.3017 497.594 50.3017 497.553 50.3017L497.678 49.9598C497.594 49.9171 497.511 49.9598 497.469 50.0026L497.678 50.259ZM497.678 50.1735C497.678 50.2162 497.678 50.2162 497.636 50.259L497.427 50.0026C497.386 50.0453 497.344 50.1308 497.344 50.2162L497.678 50.1735ZM497.887 53.5496L497.72 50.1735H497.386L497.553 53.5496H497.887ZM497.803 53.4214C497.845 53.4214 497.887 53.5068 497.887 53.5068L497.553 53.5496C497.553 53.635 497.594 53.7205 497.72 53.7633L497.803 53.4214ZM497.761 53.4214V53.7633V53.4214ZM500.936 54.5325L497.803 53.4641L497.678 53.806L500.81 54.8744L500.936 54.5325ZM500.852 54.4898V54.8316V54.4898ZM500.81 54.5325C500.852 54.5325 500.894 54.5325 500.894 54.5325L500.768 54.8316C500.81 54.8744 500.894 54.8316 500.936 54.8316L500.81 54.5325ZM500.768 54.5752L501.019 54.8316L500.768 54.5752ZM503.776 53.0368L500.852 54.5325L501.019 54.8316L503.943 53.3359L503.776 53.0368ZM503.692 53.1222C503.692 53.0795 503.692 53.0368 503.734 53.0368L503.859 53.3359C503.943 53.2932 503.984 53.2077 503.984 53.1222H503.692ZM503.525 49.7889L503.692 53.165H504.026L503.859 49.7462L503.525 49.7889ZM503.692 49.8744C503.65 49.9171 503.608 49.8744 503.567 49.8744C503.525 49.8744 503.525 49.8316 503.525 49.7889H503.859C503.859 49.618 503.692 49.4898 503.525 49.5752L503.692 49.8744ZM500.768 51.1992L500.685 51.0282L500.768 51.1992ZM500.727 51.1992L500.768 51.0282H500.727H500.685V51.1992H500.727ZM500.727 51.1992L500.685 51.3701H500.727H500.768V51.1992H500.727ZM497.594 50.1308L497.636 49.9598H497.594V50.1308ZM497.594 50.1308L497.553 50.3017H497.594V50.1308ZM497.553 50.1308L497.678 50.259L497.553 50.1308ZM497.511 50.1735H497.678H497.511ZM497.72 53.5496H497.553H497.72ZM497.761 53.5923L497.72 53.7633H497.761H497.803V53.5923H497.761ZM497.761 53.5923L497.803 53.4214H497.761H497.72V53.5923H497.761ZM500.852 54.6607L500.81 54.8316H500.852H500.894V54.6607H500.852ZM500.852 54.6607L500.894 54.4898H500.852H500.81V54.6607H500.852ZM500.894 54.6607L500.977 54.8316H501.019L500.894 54.6607ZM500.894 54.6607L500.81 54.4898H500.768L500.894 54.6607ZM503.817 53.2077L503.734 53.0368L503.817 53.2077ZM503.859 53.1222H504.026H503.859ZM503.692 49.7462H503.859H503.692ZM503.608 49.7034L503.692 49.8744L503.608 49.7034Z" fill="#FECC7B"/>
<path d="M500.853 54.576L500.686 51.499L500.936 51.4563L501.061 54.4478L500.853 54.576Z" fill="#FECC7B"/>
<path d="M497.928 49.9178L497.887 50.0887V50.046V49.9178V49.8323L500.142 50.7297L497.928 49.9178Z" fill="#9C6A17"/>
<path d="M497.844 49.918L498.012 49.9608L497.844 49.918ZM497.97 49.8326L497.886 50.0035L497.97 49.8326ZM500.183 50.6445L497.97 49.8326L497.928 50.0035L500.1 50.8155L500.183 50.6445ZM497.844 49.8753L500.1 50.8155L500.142 50.6445L497.886 49.7044L497.844 49.8753ZM497.97 49.918V49.7898H497.803V49.918H497.97ZM497.97 50.0462V49.918L497.803 49.9608V50.089L497.97 50.0462ZM497.97 50.0035L497.844 50.1317L497.97 50.0035ZM497.844 49.918V50.0462H498.012V49.918H497.844ZM497.928 49.918L497.97 49.8326L497.886 49.7898V49.918H497.928ZM497.928 49.918L497.886 50.0035L497.928 49.918ZM500.142 50.73L500.1 50.8155L500.142 50.6445V50.73ZM497.886 49.8326L497.928 49.7471L497.803 49.7044V49.8326H497.886V49.8326ZM497.886 49.918H497.803H497.886ZM497.886 50.0462H497.803V50.089L497.886 50.0462ZM497.886 50.089L497.844 50.1317L497.97 50.2599V50.089H497.886ZM497.928 49.918H497.844H497.928Z" fill="#FECC7B"/>
<path d="M503.65 49.7894L503.567 49.4475L501.27 50.986L503.567 49.6612V49.6185V49.6612L503.65 49.7894Z" fill="#9C6A17"/>
<path d="M503.733 49.7887H503.566H503.733ZM503.65 49.8742V49.7032V49.8742ZM503.483 49.7032L503.566 49.8314L503.691 49.746L503.608 49.6178L503.483 49.7032ZM503.483 49.6605L503.65 49.575L503.483 49.6605ZM503.608 49.7032L503.524 49.5323L503.608 49.7032ZM501.311 51.028L503.608 49.7032L503.524 49.575L501.227 50.8998L501.311 51.028ZM503.483 49.4041L501.186 50.8998L501.269 51.028L503.566 49.5323L503.483 49.4041ZM503.733 49.746L503.65 49.4468L503.483 49.4896L503.566 49.7887L503.733 49.746ZM503.65 49.7887V49.8742H503.733V49.7887H503.65ZM503.65 49.7887L503.566 49.8314L503.608 49.8742H503.65V49.7887V49.7887ZM503.566 49.6605L503.483 49.7032L503.566 49.6605ZM503.566 49.6178L503.65 49.575L503.608 49.5323L503.524 49.575L503.566 49.6178ZM503.566 49.6605L503.524 49.575L503.566 49.6605ZM501.269 50.9853L501.227 50.8998L501.311 51.028L501.269 50.9853ZM503.566 49.4468L503.65 49.4041L503.608 49.3186L503.524 49.3614L503.566 49.4468ZM503.65 49.7887H503.733H503.65Z" fill="#FECC7B"/>
<path d="M497.894 53.3789C498.332 53.3706 498.683 53.1343 498.678 52.8511C498.673 52.568 498.314 52.3451 497.875 52.3534C497.437 52.3617 497.086 52.598 497.091 52.8811C497.096 53.1643 497.456 53.3871 497.894 53.3789Z" fill="#9C6A17"/>
<path d="M497.892 53.1651C498.145 53.1604 498.349 53.0227 498.346 52.8576C498.343 52.6924 498.135 52.5623 497.881 52.567C497.628 52.5717 497.424 52.7094 497.427 52.8745C497.43 53.0397 497.638 53.1698 497.892 53.1651Z" fill="#FECC7B"/>
<path d="M498.681 52.3534C498.681 52.6953 498.305 52.9517 497.846 52.9517C497.386 52.9517 497.011 52.6953 496.969 52.3962C496.969 52.097 497.345 51.7979 497.804 51.7979C498.263 51.7552 498.639 52.0116 498.681 52.3534Z" fill="#9C6A17"/>
<path d="M498.304 52.225C498.304 52.3959 498.095 52.5668 497.844 52.5668C497.594 52.5668 497.385 52.4386 497.385 52.225C497.385 52.054 497.594 51.8831 497.844 51.8831C498.095 51.8831 498.304 52.054 498.304 52.225Z" fill="#FECC7B"/>
<path d="M498.556 51.7555C498.556 52.0119 498.222 52.2256 497.762 52.2256C497.345 52.2256 496.969 52.0119 496.969 51.7555V51.7128C497.011 51.4564 497.345 51.2854 497.762 51.2854C498.18 51.3282 498.556 51.4991 498.556 51.7555Z" fill="#9C6A17"/>
<path d="M498.222 51.7552C498.222 51.9262 498.013 52.0971 497.762 52.0971C497.595 52.0971 497.344 51.9689 497.303 51.798V51.7552C497.303 51.5843 497.553 51.4133 497.762 51.4133C498.013 51.4133 498.222 51.5843 498.222 51.7552Z" fill="#FECC7B"/>
<path d="M497.51 50.9856C497.427 51.0283 497.176 51.1138 497.051 51.3702C496.968 51.5412 496.926 51.7121 496.926 51.7976C497.093 51.6694 497.302 51.5412 497.469 51.3702C497.51 51.242 497.552 51.1138 497.51 50.9856Z" fill="#9C6A17"/>
<path d="M497.51 51.5844C497.426 51.6698 497.384 51.798 497.301 51.8835C497.301 51.8408 497.217 51.6271 497.301 51.3707C497.343 51.157 497.468 51.0715 497.51 51.0715C497.426 51.2425 497.384 51.4562 497.426 51.5416C497.468 51.5844 497.51 51.5844 497.51 51.5844Z" fill="#FECC7B"/>
<path d="M502.982 52.1404C502.982 52.4395 503.358 52.6532 503.734 52.6104C504.151 52.5677 504.444 52.3113 504.444 52.0549C504.444 51.7557 504.068 51.5421 503.692 51.5848C503.274 51.5848 502.94 51.8412 502.982 52.1404Z" fill="#9C6A17"/>
<path d="M503.724 51.7977C503.471 51.8154 503.275 51.9634 503.286 52.1282C503.297 52.293 503.511 52.4123 503.764 52.3946C504.017 52.3769 504.214 52.2289 504.203 52.0641C504.192 51.8993 503.978 51.78 503.724 51.7977Z" fill="#FECC7B"/>
<path d="M502.857 51.6274C502.857 51.9266 503.274 52.183 503.734 52.1402C504.193 52.0975 504.569 51.7983 504.527 51.4992C504.527 51.2001 504.11 50.9436 503.65 50.9864C503.191 51.0291 502.815 51.2855 502.857 51.6274Z" fill="#9C6A17"/>
<path d="M503.618 51.0786C503.296 51.1006 503.045 51.2712 503.057 51.4596C503.069 51.648 503.34 51.7829 503.663 51.7608C503.985 51.7388 504.236 51.5682 504.224 51.3798C504.212 51.1914 503.94 51.0566 503.618 51.0786Z" fill="#FECC7B"/>
<path d="M502.982 51.0287C502.982 51.2851 503.358 51.4561 503.734 51.4561C504.151 51.4133 504.444 51.1996 504.444 50.9432V50.9005C504.402 50.6441 504.068 50.5159 503.692 50.5159C503.274 50.5586 502.94 50.7723 502.982 51.0287Z" fill="#9C6A17"/>
<path d="M503.316 51.0282C503.316 51.1992 503.525 51.3701 503.776 51.3274C503.943 51.3274 504.193 51.1564 504.193 50.9855V50.9428C504.193 50.7718 503.943 50.6009 503.734 50.6436C503.483 50.6436 503.316 50.8146 503.316 51.0282Z" fill="#FECC7B"/>
<path d="M503.773 50.1741C503.857 50.2168 504.108 50.3023 504.275 50.5587C504.4 50.7296 504.442 50.9006 504.442 50.9861C504.233 50.8578 504.024 50.7296 503.815 50.6014C503.815 50.516 503.815 50.4732 503.773 50.3878C503.773 50.3023 503.773 50.2168 503.773 50.1741Z" fill="#9C6A17"/>
<path d="M503.942 50.7301C504.026 50.8156 504.109 50.901 504.193 50.9865C504.193 50.9438 504.235 50.7301 504.151 50.5164C504.067 50.3455 503.9 50.3028 503.9 50.26C504.026 50.431 504.067 50.6019 504.026 50.6446C503.984 50.6874 503.984 50.7301 503.942 50.7301Z" fill="#FECC7B"/>
<path d="M499.807 49.5758C499.849 49.875 499.682 50.1314 499.431 50.1741C499.181 50.2168 498.972 50.0032 498.93 49.704C498.846 49.4049 499.013 49.1485 499.264 49.1057C499.515 49.1057 499.765 49.2767 499.807 49.5758Z" fill="#9C6A17"/>
<path d="M499.348 49.3621C499.348 49.5331 499.265 49.6613 499.139 49.704C499.014 49.704 498.889 49.6185 498.889 49.4476C498.889 49.2767 498.972 49.1485 499.097 49.1057C499.223 49.1057 499.306 49.2339 499.348 49.3621Z" fill="#FECC7B"/>
<path d="M501.813 49.1059C501.855 49.4051 501.688 49.6615 501.479 49.7042C501.27 49.747 501.061 49.5333 501.02 49.2341C501.02 48.935 501.145 48.6786 501.395 48.6786C501.604 48.6358 501.813 48.8495 501.813 49.1059Z" fill="#9C6A17"/>
<path d="M501.479 48.806C501.479 48.8914 501.395 48.9769 501.27 49.0196C501.145 49.0196 501.02 48.9769 501.02 48.8487C501.02 48.7632 501.103 48.6778 501.228 48.635C501.354 48.635 501.479 48.7205 501.479 48.806Z" fill="#FECC7B"/>
<path d="M497.887 49.9182V50.0892L498.096 50.1746L498.012 50.0037L497.887 49.9182Z" fill="#FECC7B"/>
<path d="M497.887 49.9182L499.39 50.5593L500.685 51.0721L497.928 50.0037L497.887 49.9182Z" fill="#9C6A17"/>
<path d="M502.982 50.0035L501.27 50.9864L502.564 50.3454L503.65 49.8326L503.567 49.7044L502.982 50.0035Z" fill="#FECC7B"/>
<path d="M503.4 49.7044L501.98 50.4309L500.686 51.0719L503.358 49.7471L503.4 49.7044Z" fill="#9C6A17"/>
<path d="M510.166 47.1829C509.456 47.1829 508.871 47.482 508.454 47.9948V47.3111H507.117V54.6188H508.454V51.9265C508.871 52.4393 509.456 52.7384 510.166 52.7384C511.628 52.7384 512.714 51.5419 512.714 49.9607C512.714 48.3795 511.628 47.1829 510.166 47.1829ZM509.915 51.4564C509.707 51.4564 509.54 51.4136 509.331 51.3282C508.871 51.1572 508.537 50.6871 508.454 50.1743C508.454 50.0889 508.454 50.0461 508.454 49.9607C508.454 49.8752 508.454 49.8324 508.454 49.747C508.537 49.1914 508.83 48.7641 509.331 48.5931C509.498 48.5077 509.707 48.4649 509.915 48.4649C510.709 48.4649 511.377 49.1487 511.377 49.9607C511.377 50.7726 510.751 51.4564 509.915 51.4564Z" fill="#9C6A17"/>
<path d="M561.745 50.3026C561.745 50.1316 561.787 49.918 561.912 49.6615C561.995 49.4051 562.162 49.1487 562.288 48.8923C562.413 48.6359 562.58 48.4222 562.664 48.294C562.705 48.2086 562.747 48.1658 562.789 48.1231L562.831 48.0803L563.165 47.6103L563.29 47.4821L562.037 47.2256L561.912 47.3111L561.87 47.3539C561.828 47.3966 561.787 47.4821 561.745 47.5675C561.619 47.7385 561.452 47.9949 561.327 48.2513C561.16 48.5077 560.993 48.8496 560.868 49.1915C560.826 49.3197 560.742 49.4906 560.742 49.7043V45.0462H559.531V52.5675H560.742V50.9863C561.035 52.0547 562.121 52.6103 563.29 52.8239L563.833 52.9094L564.042 51.7556L563.499 51.6701C562.288 51.4564 561.745 50.9009 561.745 50.3026Z" fill="#9C6A17"/>
</g>
</g>
<defs>
<clipPath id="clip0_6_314">
<rect width="57" height="570" fill="white" transform="translate(570 0.832291) rotate(90)"/>
</clipPath>
<clipPath id="clip1_6_314">
<rect width="566" height="37" fill="white" transform="translate(2 -8.16771)"/>
</clipPath>
<clipPath id="clip2_6_314">
<rect width="71" height="10" fill="white" transform="translate(493 44.8323)"/>
</clipPath>
</defs>
</svg>
