<svg width="170" height="45" viewBox="0 0 170 45" fill="none" xmlns="http://www.w3.org/2000/svg">
<path d="M36.4389 15.9V28.5H34.6569V17.466H31.8129V15.9H36.4389Z" fill="#2F2F2F"/>
<path d="M5 1H65V-1H5V1ZM69 5V40H71V5H69ZM65 44H5V46H65V44ZM1 40V5H-1V40H1ZM5 44C2.79086 44 1 42.2091 1 40H-1C-1 43.3137 1.68629 46 5 46V44ZM69 40C69 42.2091 67.2091 44 65 44V46C68.3137 46 71 43.3137 71 40H69ZM65 1C67.2091 1 69 2.79086 69 5H71C71 1.68629 68.3137 -1 65 -1V1ZM5 -1C1.68629 -1 -1 1.68629 -1 5H1C1 2.79086 2.79086 1 5 1V-1Z" fill="#2F2F2F"/>
<path d="M100 5C100 2.23858 102.239 0 105 0H165C167.761 0 170 2.23858 170 5V40C170 42.7614 167.761 45 165 45H105C102.239 45 100 42.7614 100 40V5Z" fill="#369CB7"/>
<path d="M139.552 26.934V28.5H130.498V27.276L135.628 22.326C136.252 21.726 136.672 21.21 136.888 20.778C137.104 20.334 137.212 19.89 137.212 19.446C137.212 18.786 136.978 18.276 136.51 17.916C136.054 17.544 135.394 17.358 134.53 17.358C133.138 17.358 132.064 17.814 131.308 18.726L130.084 17.664C130.576 17.064 131.218 16.596 132.01 16.26C132.814 15.924 133.708 15.756 134.692 15.756C136.012 15.756 137.062 16.074 137.842 16.71C138.622 17.334 139.012 18.186 139.012 19.266C139.012 19.938 138.868 20.574 138.58 21.174C138.292 21.774 137.746 22.458 136.942 23.226L133.09 26.934H139.552Z" fill="white"/>
<path d="M105 1H165V-1H105V1ZM169 5V40H171V5H169ZM165 44H105V46H165V44ZM101 40V5H99V40H101ZM105 44C102.791 44 101 42.2091 101 40H99C99 43.3137 101.686 46 105 46V44ZM169 40C169 42.2091 167.209 44 165 44V46C168.314 46 171 43.3137 171 40H169ZM165 1C167.209 1 169 2.79086 169 5H171C171 1.68629 168.314 -1 165 -1V1ZM105 -1C101.686 -1 99 1.68629 99 5H101C101 2.79086 102.791 1 105 1V-1Z" fill="#369CB7"/>
</svg>
