<svg width="589" height="212" viewBox="0 0 589 212" fill="none" xmlns="http://www.w3.org/2000/svg">
<g filter="url(#filter0_d_20_16874)">
<rect x="19" y="19" width="170" height="170" rx="10" fill="white"/>
<rect x="20" y="20" width="168" height="168" rx="9" stroke="#369CB7" stroke-width="2"/>
</g>
<path d="M103.999 61.2927H103.604V65.9194H103.999V61.2927Z" fill="black"/>
<path d="M103.999 141.765H103.604V146.392H103.999V141.765Z" fill="black"/>
<path d="M84.6629 71.1028L85.0054 70.905L82.692 66.8983L82.3496 67.0961L84.6629 71.1028Z" fill="black"/>
<path d="M124.896 140.756L125.238 140.558L122.925 136.551L122.582 136.749L124.896 140.756Z" fill="black"/>
<path d="M70.8467 85.0507L71.0444 84.7083L67.0377 82.3949L66.84 82.7374L70.8467 85.0507Z" fill="black"/>
<path d="M140.559 125.285L140.757 124.942L136.75 122.629L136.552 122.971L140.559 125.285Z" fill="black"/>
<path d="M65.8782 103.643H61.2515V104.039H65.8782V103.643Z" fill="black"/>
<path d="M146.352 103.644H141.725V104.039H146.352V103.644Z" fill="black"/>
<path d="M71.0611 122.964L70.8634 122.622L66.8567 124.935L67.0544 125.277L71.0611 122.964Z" fill="black"/>
<path d="M140.737 82.7524L140.539 82.4099L136.533 84.7232L136.73 85.0657L140.737 82.7524Z" fill="black"/>
<path d="M85.0021 136.785L84.6596 136.587L82.3463 140.594L82.6887 140.791L85.0021 136.785Z" fill="black"/>
<path d="M125.254 67.0832L124.911 66.8855L122.598 70.8922L122.94 71.0899L125.254 67.0832Z" fill="black"/>
<path d="M99.4493 57.9342V57.0643H100.596V52.7144C100.161 52.9121 99.7657 53.0703 99.3307 53.2285V52.1608C99.7657 52.0422 100.24 51.8049 100.715 51.5281H101.703V57.0643H102.85V57.9342H99.4493Z" fill="black"/>
<path d="M106.368 51.4465C106.962 51.4465 107.436 51.6442 107.792 52.0001C108.148 52.356 108.306 52.8701 108.306 53.5424C108.306 53.7005 108.306 53.8192 108.267 53.9378C108.227 54.0564 108.227 54.1751 108.187 54.2937C108.148 54.4123 108.108 54.4914 108.029 54.6101C107.95 54.7287 107.911 54.8078 107.871 54.8869C107.832 54.966 107.752 55.0451 107.673 55.1637C107.594 55.2823 107.515 55.3614 107.476 55.4009C107.436 55.4405 107.357 55.5196 107.238 55.6382L105.973 56.9827H108.306V57.8922H104.589V57.1014L106.447 55.0451C106.606 54.8869 106.685 54.7682 106.764 54.6892C106.803 54.6101 106.882 54.531 107.001 54.4123C107.08 54.2937 107.159 54.1751 107.199 54.1355C107.238 54.0564 107.278 53.9774 107.278 53.8587C107.317 53.7401 107.317 53.661 107.317 53.5424C107.317 53.4633 107.317 53.3446 107.278 53.1865C107.238 53.0283 107.199 52.8701 107.159 52.791C107.08 52.6724 107.041 52.5933 106.922 52.5142C106.843 52.4351 106.724 52.3956 106.645 52.3956C106.566 52.356 106.447 52.356 106.329 52.356C106.25 52.356 106.171 52.356 106.092 52.3956C106.012 52.3956 105.933 52.4351 105.854 52.4351C105.775 52.4747 105.696 52.4747 105.617 52.5142C105.538 52.5538 105.459 52.5538 105.38 52.5933C105.301 52.6329 105.261 52.6724 105.182 52.6724C105.103 52.7119 105.063 52.7515 105.024 52.7515C104.984 52.791 104.945 52.791 104.905 52.8306C104.866 52.8701 104.826 52.8701 104.826 52.8701H104.787L104.431 52.0001C104.47 52.0001 104.47 51.9606 104.51 51.9211C104.549 51.8815 104.628 51.842 104.787 51.7629C104.945 51.6838 105.063 51.6442 105.222 51.5652C105.38 51.5256 105.578 51.4465 105.775 51.407C105.933 51.4465 106.131 51.4465 106.368 51.4465Z" fill="black"/>
<path d="M103.563 156.555C103.049 156.555 102.614 156.436 102.258 156.16C101.902 155.883 101.625 155.527 101.467 155.052C101.309 154.578 101.229 154.024 101.229 153.392C101.229 152.917 101.269 152.482 101.388 152.047C101.506 151.652 101.664 151.256 101.862 150.94C102.06 150.623 102.337 150.386 102.693 150.188C103.009 149.991 103.404 149.912 103.8 149.912C104.472 149.912 105.026 150.109 105.421 150.465L105.065 151.296C104.67 150.979 104.274 150.861 103.8 150.861C103.404 150.861 103.088 151.058 102.811 151.414C102.534 151.81 102.416 152.284 102.376 152.838C102.693 152.403 103.128 152.166 103.642 152.166C104.274 152.166 104.788 152.363 105.144 152.759C105.5 153.154 105.698 153.668 105.698 154.301C105.698 154.934 105.5 155.448 105.105 155.883C104.709 156.357 104.195 156.555 103.563 156.555ZM103.523 155.606C103.839 155.606 104.077 155.487 104.274 155.25C104.472 155.013 104.551 154.736 104.551 154.38C104.551 154.024 104.472 153.708 104.274 153.51C104.116 153.273 103.839 153.154 103.523 153.154C103.167 153.154 102.89 153.273 102.693 153.51C102.495 153.747 102.376 154.024 102.376 154.42C102.376 154.617 102.416 154.776 102.455 154.934C102.534 155.092 102.614 155.211 102.693 155.329C102.811 155.448 102.93 155.487 103.049 155.566C103.246 155.566 103.404 155.606 103.523 155.606Z" fill="black"/>
<path d="M55.3583 106.927C54.8838 106.927 54.3302 106.769 53.6975 106.492L54.0929 105.583C54.4883 105.82 54.8442 105.978 55.2397 105.978C55.4374 105.978 55.6351 105.939 55.7933 105.859C55.9515 105.78 56.1097 105.662 56.2678 105.543C56.3865 105.385 56.5051 105.187 56.5842 104.95C56.6633 104.713 56.7028 104.396 56.7028 104.08V103.961C56.426 104.357 55.991 104.554 55.4374 104.554C54.8047 104.554 54.3302 104.357 53.9347 103.961C53.5788 103.566 53.3811 103.091 53.3811 102.459C53.3811 101.826 53.5788 101.312 53.9743 100.916C54.3697 100.521 54.9233 100.323 55.556 100.323C56.2678 100.323 56.8215 100.6 57.2169 101.114C57.6123 101.628 57.8101 102.419 57.8101 103.447C57.8101 104.119 57.731 104.752 57.5332 105.266C57.3355 105.78 57.0587 106.215 56.7028 106.492C56.3074 106.808 55.8724 106.927 55.3583 106.927ZM55.5165 103.645C55.8724 103.645 56.1492 103.526 56.3469 103.329C56.5446 103.131 56.6633 102.815 56.6633 102.38C56.6633 102.063 56.5842 101.826 56.3865 101.589C56.1887 101.391 55.9515 101.272 55.5956 101.272C55.2397 101.272 55.0024 101.391 54.7652 101.589C54.5674 101.826 54.4488 102.103 54.4488 102.459C54.4488 102.815 54.5279 103.091 54.7256 103.289C54.9233 103.526 55.2001 103.645 55.5165 103.645Z" fill="black"/>
<path d="M152.518 106.966C152.28 106.966 152.043 106.966 151.806 106.927C151.568 106.887 151.41 106.848 151.252 106.808C151.094 106.769 150.975 106.69 150.857 106.65C150.738 106.611 150.659 106.531 150.619 106.531L150.54 106.492L150.896 105.661C150.936 105.701 151.015 105.741 151.134 105.78C151.252 105.82 151.41 105.899 151.687 105.978C151.924 106.057 152.162 106.096 152.399 106.096C152.794 106.096 153.111 106.017 153.308 105.82C153.506 105.622 153.625 105.385 153.625 105.068C153.625 104.752 153.467 104.475 153.19 104.317C152.913 104.159 152.518 104.08 152.003 104.08H151.845H151.568V103.131H151.885C152.438 103.131 152.834 103.052 153.071 102.893C153.308 102.735 153.427 102.498 153.427 102.103C153.427 101.865 153.308 101.668 153.111 101.549C152.873 101.43 152.636 101.351 152.359 101.351C152.241 101.351 152.083 101.351 151.964 101.391C151.845 101.43 151.727 101.43 151.608 101.47C151.489 101.509 151.41 101.549 151.371 101.588C151.292 101.628 151.252 101.668 151.173 101.707C151.094 101.747 151.054 101.786 151.015 101.786L150.501 100.995C150.857 100.758 151.134 100.6 151.41 100.521C151.687 100.442 152.043 100.402 152.478 100.402C152.755 100.402 152.992 100.442 153.229 100.521C153.467 100.6 153.704 100.679 153.902 100.837C154.099 100.956 154.257 101.153 154.376 101.351C154.495 101.549 154.534 101.826 154.534 102.103C154.534 102.34 154.495 102.537 154.416 102.735C154.337 102.933 154.218 103.131 154.02 103.289C153.823 103.447 153.625 103.566 153.348 103.605C153.783 103.684 154.099 103.842 154.337 104.159C154.574 104.436 154.692 104.792 154.692 105.147C154.692 105.424 154.653 105.701 154.534 105.938C154.416 106.176 154.257 106.373 154.06 106.531C153.862 106.69 153.625 106.808 153.388 106.887C153.071 106.927 152.794 106.966 152.518 106.966Z" fill="black"/>
<path d="M127.369 65.5639V64.6939H128.516V60.344C128.081 60.5418 127.685 60.6999 127.25 60.8581V59.83C127.685 59.7113 128.16 59.4741 128.634 59.1973H129.623V64.7335H130.77V65.6034H127.369V65.5639Z" fill="black"/>
<path d="M144.571 74.3423C145.164 74.3423 145.639 74.54 145.995 74.8959C146.351 75.2518 146.509 75.7659 146.509 76.4381C146.509 76.5963 146.509 76.7149 146.469 76.8336C146.43 76.9522 146.43 77.0708 146.39 77.1895C146.351 77.3081 146.311 77.3872 146.232 77.5058C146.153 77.6244 146.113 77.7035 146.074 77.7826C146.034 77.8617 145.955 77.9408 145.876 78.0594C145.797 78.1781 145.718 78.2572 145.678 78.2967C145.639 78.3362 145.56 78.4153 145.441 78.534L144.176 79.8785H146.509V80.788H142.792V79.9971L144.65 77.9408C144.808 77.7826 144.887 77.664 144.966 77.5849C145.006 77.5058 145.085 77.4267 145.204 77.3081C145.283 77.1895 145.362 77.0708 145.401 77.0313C145.441 76.9522 145.481 76.8731 145.481 76.7545C145.52 76.6358 145.52 76.5568 145.52 76.4381C145.52 76.359 145.52 76.2404 145.481 76.0822C145.441 75.924 145.401 75.7659 145.362 75.6868C145.283 75.5681 145.243 75.4891 145.125 75.41C145.046 75.3309 144.927 75.2913 144.848 75.2913C144.769 75.2518 144.65 75.2518 144.531 75.2518C144.452 75.2518 144.373 75.2518 144.294 75.2913C144.215 75.2913 144.136 75.3309 144.057 75.3309C143.978 75.3704 143.899 75.3704 143.82 75.41C143.741 75.4495 143.662 75.4495 143.582 75.4891C143.503 75.5286 143.464 75.5681 143.385 75.5681C143.306 75.6077 143.266 75.6472 143.227 75.6472C143.187 75.6868 143.147 75.6868 143.108 75.7263C143.068 75.7659 143.029 75.7659 143.029 75.7659H142.989L142.633 74.8959C142.673 74.8959 142.673 74.8564 142.712 74.8168C142.752 74.7773 142.831 74.7377 142.989 74.6586C143.147 74.5795 143.266 74.54 143.424 74.4609C143.582 74.4214 143.78 74.3423 143.978 74.3027C144.136 74.3818 144.334 74.3423 144.571 74.3423Z" fill="black"/>
<path d="M145.44 133.184V131.524H142.751V130.693L145.322 126.818H146.587V130.654H147.576V131.524H146.587V133.184H145.44ZM143.938 130.614H145.44V128.202C145.361 128.321 144.887 129.111 143.938 130.614Z" fill="black"/>
<path d="M128.99 148.725C128.634 148.725 128.279 148.646 127.923 148.488C127.567 148.33 127.25 148.132 126.974 147.855L127.567 147.025C127.764 147.262 128.002 147.46 128.239 147.578C128.476 147.697 128.753 147.776 128.99 147.776C129.307 147.776 129.583 147.658 129.821 147.46C130.058 147.262 130.177 146.946 130.177 146.55C130.177 146.234 130.098 145.957 129.939 145.759C129.781 145.522 129.583 145.443 129.307 145.443C128.951 145.443 128.714 145.522 128.555 145.72L127.448 145.562V142.28H131.007V143.229H128.437L128.397 144.85C128.595 144.573 128.99 144.454 129.544 144.454C130.018 144.454 130.453 144.652 130.809 145.087C131.165 145.483 131.323 145.997 131.323 146.629C131.323 146.906 131.284 147.183 131.205 147.42C131.126 147.658 131.007 147.855 130.849 148.013C130.691 148.172 130.533 148.33 130.335 148.448C130.137 148.567 129.939 148.646 129.702 148.725C129.465 148.686 129.228 148.725 128.99 148.725Z" fill="black"/>
<path d="M76.3571 148.606L78.7693 143.149H75.6058V142.24H80.0347V143.11L77.5039 148.646H76.3571V148.606Z" fill="black"/>
<path d="M62.8717 133.382C62.4367 133.382 62.0808 133.303 61.7645 133.184C61.4481 133.026 61.1713 132.829 60.9736 132.552C60.7759 132.275 60.6968 131.959 60.6968 131.563C60.6968 131.207 60.7759 130.891 60.9736 130.614C61.1713 130.337 61.4481 130.1 61.7645 129.942C61.1318 129.586 60.8154 129.072 60.8154 128.479C60.8154 127.965 61.0131 127.53 61.369 127.253C61.7645 126.937 62.239 126.818 62.8322 126.818C63.4649 126.818 63.9789 126.976 64.3348 127.292C64.6907 127.609 64.8885 128.044 64.8885 128.558C64.8885 129.191 64.5721 129.705 63.9394 129.981C64.2558 130.14 64.493 130.377 64.6907 130.654C64.8885 130.97 65.0071 131.286 65.0071 131.603C65.0071 131.959 64.8885 132.315 64.6907 132.591C64.493 132.868 64.2162 133.066 63.8999 133.224C63.6231 133.343 63.2672 133.382 62.8717 133.382ZM62.8717 132.433C63.1881 132.433 63.4649 132.354 63.6231 132.196C63.8208 132.038 63.8999 131.8 63.8999 131.484C63.8999 131.247 63.8208 131.01 63.6231 130.772C63.4253 130.535 63.1881 130.416 62.9113 130.337C62.5949 130.416 62.3576 130.535 62.1599 130.772C61.9622 130.97 61.8436 131.247 61.8436 131.524C61.8436 131.8 61.9226 132.038 62.1204 132.196C62.2785 132.354 62.5554 132.433 62.8717 132.433ZM62.8717 129.546C63.1485 129.467 63.3858 129.349 63.544 129.151C63.7021 128.993 63.7812 128.756 63.7812 128.518C63.7812 128.281 63.7021 128.123 63.5044 128.004C63.3462 127.886 63.109 127.806 62.8322 127.806C62.5554 127.806 62.3181 127.886 62.1599 128.004C62.0017 128.123 61.9226 128.321 61.9226 128.597C61.9226 128.835 62.0017 129.032 62.1599 129.23C62.3576 129.309 62.5554 129.467 62.8717 129.546Z" fill="black"/>
<path d="M56.8619 81.1442V80.2742H58.0087V75.9244C57.5737 76.1221 57.1783 76.2803 56.7433 76.4384V75.4103C57.1783 75.2917 57.6528 75.0544 58.1273 74.7776H59.1159V80.3138H60.2627V81.1837H56.8619V81.1442Z" fill="black"/>
<path d="M63.98 81.2631C63.2682 81.2631 62.7146 80.9467 62.3192 80.3535C61.9237 79.7604 61.726 78.9299 61.726 77.9018C61.726 76.8736 61.9237 76.0828 62.3192 75.4896C62.7146 74.936 63.2682 74.6196 63.98 74.6196C64.6918 74.6196 65.2455 74.8964 65.6409 75.4896C66.0363 76.0828 66.2341 76.8736 66.2341 77.8623C66.2341 78.5345 66.155 79.1277 65.9968 79.6022C65.8386 80.1163 65.5618 80.4722 65.2455 80.7885C64.85 81.1049 64.4546 81.2631 63.98 81.2631ZM63.98 80.2745C64.6918 80.2745 65.0873 79.4836 65.0873 77.8623C65.0873 77.5459 65.0873 77.2691 65.0477 76.9923C65.0082 76.7155 64.9686 76.4782 64.8896 76.2805C64.8105 76.0432 64.6918 75.885 64.5337 75.7664C64.3755 75.6478 64.2173 75.5687 64.0196 75.5687C63.8219 75.5687 63.6241 75.6478 63.466 75.7664C63.3078 75.885 63.1892 76.0828 63.1101 76.2805C63.031 76.5178 62.9519 76.755 62.9123 76.9923C62.8728 77.2691 62.8728 77.5459 62.8728 77.8623C62.8728 78.2182 62.8728 78.5345 62.9123 78.8113C62.9519 79.0881 62.9914 79.3254 63.1101 79.5627C63.1892 79.7999 63.3078 79.9581 63.466 80.0767C63.5846 80.2349 63.7823 80.2745 63.98 80.2745Z" fill="black"/>
<path d="M74.5392 65.0497V64.1797H75.6859V59.8299C75.251 60.0276 74.8555 60.1858 74.4205 60.344V59.2763C74.8555 59.1576 75.3301 58.9204 75.8046 58.6436H76.7932V64.1797H77.94V65.0497H74.5392Z" fill="black"/>
<path d="M80.1552 65.0497V64.1797H81.302V59.8299C80.867 60.0276 80.4715 60.1858 80.0366 60.344V59.2763C80.4715 59.1576 80.9461 58.9204 81.4206 58.6436H82.4092V64.1797H83.556V65.0497H80.1552Z" fill="black"/>
<path d="M103.798 106.492C105.262 106.492 106.448 105.306 106.448 103.843C106.448 102.379 105.262 101.193 103.798 101.193C102.335 101.193 101.149 102.379 101.149 103.843C101.149 105.306 102.335 106.492 103.798 106.492Z" fill="url(#paint0_radial_20_16874)"/>
<path d="M103.483 109.853C102.85 109.853 102.376 109.3 102.376 108.627V79.5227H104.59V108.627C104.59 109.3 104.116 109.853 103.483 109.853Z" fill="black"/>
<path d="M132.418 86.3364L132.266 86.0891L132.016 86.2373L95.5866 107.857C95.5859 107.857 95.5851 107.858 95.5844 107.858C95.1245 108.123 95.1076 108.681 95.3187 109.05C95.548 109.452 96.0773 109.646 96.5121 109.397L96.5121 109.397L96.5163 109.395L132.95 87.7728L133.208 87.6198L133.051 87.3645L132.418 86.3364Z" fill="#0E80A4" stroke="#0E80A4" stroke-width="0.59"/>
<path d="M103.8 105.701C104.827 105.701 105.659 104.869 105.659 103.842C105.659 102.816 104.827 101.984 103.8 101.984C102.774 101.984 101.942 102.816 101.942 103.842C101.942 104.869 102.774 105.701 103.8 105.701Z" fill="#0E80A4"/>
<path d="M104 163C136.585 163 163 136.585 163 104C163 71.4152 136.585 45 104 45C71.4152 45 45 71.4152 45 104C45 136.585 71.4152 163 104 163Z" stroke="#0E80A4" stroke-width="5.9" stroke-miterlimit="10"/>
<rect x="219" y="19" width="170" height="170" rx="10" fill="white"/>
<path d="M303.999 61.2927H303.604V65.9194H303.999V61.2927Z" fill="black"/>
<path d="M303.999 141.765H303.604V146.392H303.999V141.765Z" fill="black"/>
<path d="M284.663 71.1028L285.005 70.905L282.692 66.8983L282.35 67.0961L284.663 71.1028Z" fill="black"/>
<path d="M324.896 140.756L325.238 140.558L322.925 136.551L322.582 136.749L324.896 140.756Z" fill="black"/>
<path d="M270.847 85.0507L271.044 84.7083L267.038 82.3949L266.84 82.7374L270.847 85.0507Z" fill="black"/>
<path d="M340.559 125.285L340.757 124.942L336.75 122.629L336.552 122.971L340.559 125.285Z" fill="black"/>
<path d="M265.878 103.643H261.252V104.039H265.878V103.643Z" fill="black"/>
<path d="M346.352 103.644H341.725V104.039H346.352V103.644Z" fill="black"/>
<path d="M271.061 122.964L270.863 122.622L266.857 124.935L267.054 125.277L271.061 122.964Z" fill="black"/>
<path d="M340.737 82.7524L340.539 82.4099L336.533 84.7232L336.73 85.0657L340.737 82.7524Z" fill="black"/>
<path d="M285.002 136.785L284.66 136.587L282.346 140.594L282.689 140.791L285.002 136.785Z" fill="black"/>
<path d="M325.254 67.0832L324.911 66.8855L322.598 70.8922L322.94 71.0899L325.254 67.0832Z" fill="black"/>
<path d="M299.449 57.9342V57.0643H300.596V52.7144C300.161 52.9121 299.766 53.0703 299.331 53.2285V52.1608C299.766 52.0422 300.24 51.8049 300.715 51.5281H301.703V57.0643H302.85V57.9342H299.449Z" fill="black"/>
<path d="M306.368 51.4465C306.962 51.4465 307.436 51.6442 307.792 52.0001C308.148 52.356 308.306 52.8701 308.306 53.5424C308.306 53.7005 308.306 53.8192 308.267 53.9378C308.227 54.0564 308.227 54.1751 308.187 54.2937C308.148 54.4123 308.108 54.4914 308.029 54.6101C307.95 54.7287 307.911 54.8078 307.871 54.8869C307.832 54.966 307.752 55.0451 307.673 55.1637C307.594 55.2823 307.515 55.3614 307.476 55.4009C307.436 55.4405 307.357 55.5196 307.238 55.6382L305.973 56.9827H308.306V57.8922H304.589V57.1014L306.447 55.0451C306.606 54.8869 306.685 54.7682 306.764 54.6892C306.803 54.6101 306.882 54.531 307.001 54.4123C307.08 54.2937 307.159 54.1751 307.199 54.1355C307.238 54.0564 307.278 53.9774 307.278 53.8587C307.317 53.7401 307.317 53.661 307.317 53.5424C307.317 53.4633 307.317 53.3446 307.278 53.1865C307.238 53.0283 307.199 52.8701 307.159 52.791C307.08 52.6724 307.041 52.5933 306.922 52.5142C306.843 52.4351 306.724 52.3956 306.645 52.3956C306.566 52.356 306.447 52.356 306.329 52.356C306.25 52.356 306.171 52.356 306.092 52.3956C306.012 52.3956 305.933 52.4351 305.854 52.4351C305.775 52.4747 305.696 52.4747 305.617 52.5142C305.538 52.5538 305.459 52.5538 305.38 52.5933C305.301 52.6329 305.261 52.6724 305.182 52.6724C305.103 52.7119 305.063 52.7515 305.024 52.7515C304.984 52.791 304.945 52.791 304.905 52.8306C304.866 52.8701 304.826 52.8701 304.826 52.8701H304.787L304.431 52.0001C304.47 52.0001 304.47 51.9606 304.51 51.9211C304.549 51.8815 304.628 51.842 304.787 51.7629C304.945 51.6838 305.063 51.6442 305.222 51.5652C305.38 51.5256 305.578 51.4465 305.775 51.407C305.933 51.4465 306.131 51.4465 306.368 51.4465Z" fill="black"/>
<path d="M303.563 156.555C303.049 156.555 302.614 156.436 302.258 156.16C301.902 155.883 301.625 155.527 301.467 155.052C301.309 154.578 301.229 154.024 301.229 153.392C301.229 152.917 301.269 152.482 301.388 152.047C301.506 151.652 301.664 151.256 301.862 150.94C302.06 150.623 302.337 150.386 302.693 150.188C303.009 149.991 303.404 149.912 303.8 149.912C304.472 149.912 305.026 150.109 305.421 150.465L305.065 151.296C304.67 150.979 304.274 150.861 303.8 150.861C303.404 150.861 303.088 151.058 302.811 151.414C302.534 151.81 302.416 152.284 302.376 152.838C302.693 152.403 303.128 152.166 303.642 152.166C304.274 152.166 304.788 152.363 305.144 152.759C305.5 153.154 305.698 153.668 305.698 154.301C305.698 154.934 305.5 155.448 305.105 155.883C304.709 156.357 304.195 156.555 303.563 156.555ZM303.523 155.606C303.839 155.606 304.077 155.487 304.274 155.25C304.472 155.013 304.551 154.736 304.551 154.38C304.551 154.024 304.472 153.708 304.274 153.51C304.116 153.273 303.839 153.154 303.523 153.154C303.167 153.154 302.89 153.273 302.693 153.51C302.495 153.747 302.376 154.024 302.376 154.42C302.376 154.617 302.416 154.776 302.455 154.934C302.534 155.092 302.614 155.211 302.693 155.329C302.811 155.448 302.93 155.487 303.049 155.566C303.246 155.566 303.404 155.606 303.523 155.606Z" fill="black"/>
<path d="M255.358 106.927C254.884 106.927 254.33 106.769 253.697 106.492L254.093 105.583C254.488 105.82 254.844 105.978 255.24 105.978C255.437 105.978 255.635 105.939 255.793 105.859C255.951 105.78 256.11 105.662 256.268 105.543C256.386 105.385 256.505 105.187 256.584 104.95C256.663 104.713 256.703 104.396 256.703 104.08V103.961C256.426 104.357 255.991 104.554 255.437 104.554C254.805 104.554 254.33 104.357 253.935 103.961C253.579 103.566 253.381 103.091 253.381 102.459C253.381 101.826 253.579 101.312 253.974 100.916C254.37 100.521 254.923 100.323 255.556 100.323C256.268 100.323 256.821 100.6 257.217 101.114C257.612 101.628 257.81 102.419 257.81 103.447C257.81 104.119 257.731 104.752 257.533 105.266C257.336 105.78 257.059 106.215 256.703 106.492C256.307 106.808 255.872 106.927 255.358 106.927ZM255.516 103.645C255.872 103.645 256.149 103.526 256.347 103.329C256.545 103.131 256.663 102.815 256.663 102.38C256.663 102.063 256.584 101.826 256.386 101.589C256.189 101.391 255.951 101.272 255.596 101.272C255.24 101.272 255.002 101.391 254.765 101.589C254.567 101.826 254.449 102.103 254.449 102.459C254.449 102.815 254.528 103.091 254.726 103.289C254.923 103.526 255.2 103.645 255.516 103.645Z" fill="black"/>
<path d="M352.518 106.966C352.28 106.966 352.043 106.966 351.806 106.927C351.568 106.887 351.41 106.848 351.252 106.808C351.094 106.769 350.975 106.69 350.857 106.65C350.738 106.611 350.659 106.531 350.619 106.531L350.54 106.492L350.896 105.661C350.936 105.701 351.015 105.741 351.134 105.78C351.252 105.82 351.41 105.899 351.687 105.978C351.924 106.057 352.162 106.096 352.399 106.096C352.794 106.096 353.111 106.017 353.308 105.82C353.506 105.622 353.625 105.385 353.625 105.068C353.625 104.752 353.467 104.475 353.19 104.317C352.913 104.159 352.518 104.08 352.003 104.08H351.845H351.568V103.131H351.885C352.438 103.131 352.834 103.052 353.071 102.893C353.308 102.735 353.427 102.498 353.427 102.103C353.427 101.865 353.308 101.668 353.111 101.549C352.873 101.43 352.636 101.351 352.359 101.351C352.241 101.351 352.083 101.351 351.964 101.391C351.845 101.43 351.727 101.43 351.608 101.47C351.489 101.509 351.41 101.549 351.371 101.588C351.292 101.628 351.252 101.668 351.173 101.707C351.094 101.747 351.054 101.786 351.015 101.786L350.501 100.995C350.857 100.758 351.134 100.6 351.41 100.521C351.687 100.442 352.043 100.402 352.478 100.402C352.755 100.402 352.992 100.442 353.229 100.521C353.467 100.6 353.704 100.679 353.902 100.837C354.099 100.956 354.257 101.153 354.376 101.351C354.495 101.549 354.534 101.826 354.534 102.103C354.534 102.34 354.495 102.537 354.416 102.735C354.337 102.933 354.218 103.131 354.02 103.289C353.823 103.447 353.625 103.566 353.348 103.605C353.783 103.684 354.099 103.842 354.337 104.159C354.574 104.436 354.692 104.792 354.692 105.147C354.692 105.424 354.653 105.701 354.534 105.938C354.416 106.176 354.257 106.373 354.06 106.531C353.862 106.69 353.625 106.808 353.388 106.887C353.071 106.927 352.794 106.966 352.518 106.966Z" fill="black"/>
<path d="M327.369 65.5639V64.6939H328.516V60.344C328.081 60.5418 327.685 60.6999 327.25 60.8581V59.83C327.685 59.7113 328.16 59.4741 328.634 59.1973H329.623V64.7335H330.77V65.6034H327.369V65.5639Z" fill="black"/>
<path d="M344.571 74.3423C345.164 74.3423 345.639 74.54 345.995 74.8959C346.351 75.2518 346.509 75.7659 346.509 76.4381C346.509 76.5963 346.509 76.7149 346.469 76.8336C346.43 76.9522 346.43 77.0708 346.39 77.1895C346.351 77.3081 346.311 77.3872 346.232 77.5058C346.153 77.6244 346.113 77.7035 346.074 77.7826C346.034 77.8617 345.955 77.9408 345.876 78.0594C345.797 78.1781 345.718 78.2572 345.678 78.2967C345.639 78.3362 345.56 78.4153 345.441 78.534L344.176 79.8785H346.509V80.788H342.792V79.9971L344.65 77.9408C344.808 77.7826 344.887 77.664 344.966 77.5849C345.006 77.5058 345.085 77.4267 345.204 77.3081C345.283 77.1895 345.362 77.0708 345.401 77.0313C345.441 76.9522 345.481 76.8731 345.481 76.7545C345.52 76.6358 345.52 76.5568 345.52 76.4381C345.52 76.359 345.52 76.2404 345.481 76.0822C345.441 75.924 345.401 75.7659 345.362 75.6868C345.283 75.5681 345.243 75.4891 345.125 75.41C345.046 75.3309 344.927 75.2913 344.848 75.2913C344.769 75.2518 344.65 75.2518 344.531 75.2518C344.452 75.2518 344.373 75.2518 344.294 75.2913C344.215 75.2913 344.136 75.3309 344.057 75.3309C343.978 75.3704 343.899 75.3704 343.82 75.41C343.741 75.4495 343.662 75.4495 343.582 75.4891C343.503 75.5286 343.464 75.5681 343.385 75.5681C343.306 75.6077 343.266 75.6472 343.227 75.6472C343.187 75.6868 343.147 75.6868 343.108 75.7263C343.068 75.7659 343.029 75.7659 343.029 75.7659H342.989L342.633 74.8959C342.673 74.8959 342.673 74.8564 342.712 74.8168C342.752 74.7773 342.831 74.7377 342.989 74.6586C343.147 74.5795 343.266 74.54 343.424 74.4609C343.582 74.4214 343.78 74.3423 343.978 74.3027C344.136 74.3818 344.334 74.3423 344.571 74.3423Z" fill="black"/>
<path d="M345.44 133.184V131.524H342.751V130.693L345.322 126.818H346.587V130.654H347.576V131.524H346.587V133.184H345.44ZM343.938 130.614H345.44V128.202C345.361 128.321 344.887 129.111 343.938 130.614Z" fill="black"/>
<path d="M328.99 148.725C328.634 148.725 328.279 148.646 327.923 148.488C327.567 148.33 327.25 148.132 326.974 147.855L327.567 147.025C327.764 147.262 328.002 147.46 328.239 147.578C328.476 147.697 328.753 147.776 328.99 147.776C329.307 147.776 329.583 147.658 329.821 147.46C330.058 147.262 330.177 146.946 330.177 146.55C330.177 146.234 330.098 145.957 329.939 145.759C329.781 145.522 329.583 145.443 329.307 145.443C328.951 145.443 328.714 145.522 328.555 145.72L327.448 145.562V142.28H331.007V143.229H328.437L328.397 144.85C328.595 144.573 328.99 144.454 329.544 144.454C330.018 144.454 330.453 144.652 330.809 145.087C331.165 145.483 331.323 145.997 331.323 146.629C331.323 146.906 331.284 147.183 331.205 147.42C331.126 147.658 331.007 147.855 330.849 148.013C330.691 148.172 330.533 148.33 330.335 148.448C330.137 148.567 329.939 148.646 329.702 148.725C329.465 148.686 329.228 148.725 328.99 148.725Z" fill="black"/>
<path d="M276.357 148.606L278.769 143.149H275.606V142.24H280.035V143.11L277.504 148.646H276.357V148.606Z" fill="black"/>
<path d="M262.872 133.382C262.437 133.382 262.081 133.303 261.764 133.184C261.448 133.026 261.171 132.829 260.974 132.552C260.776 132.275 260.697 131.959 260.697 131.563C260.697 131.207 260.776 130.891 260.974 130.614C261.171 130.337 261.448 130.1 261.764 129.942C261.132 129.586 260.815 129.072 260.815 128.479C260.815 127.965 261.013 127.53 261.369 127.253C261.764 126.937 262.239 126.818 262.832 126.818C263.465 126.818 263.979 126.976 264.335 127.292C264.691 127.609 264.888 128.044 264.888 128.558C264.888 129.191 264.572 129.705 263.939 129.981C264.256 130.14 264.493 130.377 264.691 130.654C264.888 130.97 265.007 131.286 265.007 131.603C265.007 131.959 264.888 132.315 264.691 132.591C264.493 132.868 264.216 133.066 263.9 133.224C263.623 133.343 263.267 133.382 262.872 133.382ZM262.872 132.433C263.188 132.433 263.465 132.354 263.623 132.196C263.821 132.038 263.9 131.8 263.9 131.484C263.9 131.247 263.821 131.01 263.623 130.772C263.425 130.535 263.188 130.416 262.911 130.337C262.595 130.416 262.358 130.535 262.16 130.772C261.962 130.97 261.844 131.247 261.844 131.524C261.844 131.8 261.923 132.038 262.12 132.196C262.279 132.354 262.555 132.433 262.872 132.433ZM262.872 129.546C263.149 129.467 263.386 129.349 263.544 129.151C263.702 128.993 263.781 128.756 263.781 128.518C263.781 128.281 263.702 128.123 263.504 128.004C263.346 127.886 263.109 127.806 262.832 127.806C262.555 127.806 262.318 127.886 262.16 128.004C262.002 128.123 261.923 128.321 261.923 128.597C261.923 128.835 262.002 129.032 262.16 129.23C262.358 129.309 262.555 129.467 262.872 129.546Z" fill="black"/>
<path d="M256.862 81.1442V80.2742H258.009V75.9244C257.574 76.1221 257.178 76.2803 256.743 76.4384V75.4103C257.178 75.2917 257.653 75.0544 258.127 74.7776H259.116V80.3138H260.263V81.1837H256.862V81.1442Z" fill="black"/>
<path d="M263.98 81.2631C263.268 81.2631 262.715 80.9467 262.319 80.3535C261.924 79.7604 261.726 78.9299 261.726 77.9018C261.726 76.8736 261.924 76.0828 262.319 75.4896C262.715 74.936 263.268 74.6196 263.98 74.6196C264.692 74.6196 265.245 74.8964 265.641 75.4896C266.036 76.0828 266.234 76.8736 266.234 77.8623C266.234 78.5345 266.155 79.1277 265.997 79.6022C265.839 80.1163 265.562 80.4722 265.245 80.7885C264.85 81.1049 264.455 81.2631 263.98 81.2631ZM263.98 80.2745C264.692 80.2745 265.087 79.4836 265.087 77.8623C265.087 77.5459 265.087 77.2691 265.048 76.9923C265.008 76.7155 264.969 76.4782 264.89 76.2805C264.81 76.0432 264.692 75.885 264.534 75.7664C264.375 75.6478 264.217 75.5687 264.02 75.5687C263.822 75.5687 263.624 75.6478 263.466 75.7664C263.308 75.885 263.189 76.0828 263.11 76.2805C263.031 76.5178 262.952 76.755 262.912 76.9923C262.873 77.2691 262.873 77.5459 262.873 77.8623C262.873 78.2182 262.873 78.5345 262.912 78.8113C262.952 79.0881 262.991 79.3254 263.11 79.5627C263.189 79.7999 263.308 79.9581 263.466 80.0767C263.585 80.2349 263.782 80.2745 263.98 80.2745Z" fill="black"/>
<path d="M274.539 65.0497V64.1797H275.686V59.8299C275.251 60.0276 274.856 60.1858 274.421 60.344V59.2763C274.856 59.1576 275.33 58.9204 275.805 58.6436H276.793V64.1797H277.94V65.0497H274.539Z" fill="black"/>
<path d="M280.155 65.0497V64.1797H281.302V59.8299C280.867 60.0276 280.472 60.1858 280.037 60.344V59.2763C280.472 59.1576 280.946 58.9204 281.421 58.6436H282.409V64.1797H283.556V65.0497H280.155Z" fill="black"/>
<path d="M303.798 106.492C305.262 106.492 306.448 105.306 306.448 103.843C306.448 102.379 305.262 101.193 303.798 101.193C302.335 101.193 301.149 102.379 301.149 103.843C301.149 105.306 302.335 106.492 303.798 106.492Z" fill="url(#paint1_radial_20_16874)"/>
<path d="M305.87 109.472C305.307 109.762 304.632 109.487 304.324 108.889L291 83.0139L292.969 82.0001L306.293 107.876C306.601 108.473 306.432 109.183 305.87 109.472Z" fill="black"/>
<path d="M302.749 68.2591L302.459 68.2725L302.468 68.5627L303.745 110.905C303.745 110.906 303.745 110.907 303.745 110.908C303.754 111.439 304.234 111.724 304.659 111.718C305.121 111.711 305.548 111.342 305.541 110.842L305.541 110.842L305.541 110.837L304.264 68.4891L304.255 68.1895L303.955 68.2033L302.749 68.2591Z" fill="#0E80A4" stroke="#0E80A4" stroke-width="0.59"/>
<path d="M303.8 105.701C304.827 105.701 305.659 104.869 305.659 103.842C305.659 102.816 304.827 101.984 303.8 101.984C302.774 101.984 301.942 102.816 301.942 103.842C301.942 104.869 302.774 105.701 303.8 105.701Z" fill="#0E80A4"/>
<path d="M304 163C336.585 163 363 136.585 363 104C363 71.4152 336.585 45 304 45C271.415 45 245 71.4152 245 104C245 136.585 271.415 163 304 163Z" stroke="#0E80A4" stroke-width="5.9" stroke-miterlimit="10"/>
<rect x="419" y="19" width="170" height="170" rx="10" fill="white"/>
<path d="M503.999 61.2927H503.604V65.9194H503.999V61.2927Z" fill="black"/>
<path d="M503.999 141.765H503.604V146.392H503.999V141.765Z" fill="black"/>
<path d="M484.663 71.1028L485.005 70.905L482.692 66.8983L482.35 67.0961L484.663 71.1028Z" fill="black"/>
<path d="M524.896 140.756L525.238 140.558L522.925 136.551L522.582 136.749L524.896 140.756Z" fill="black"/>
<path d="M470.847 85.0507L471.044 84.7083L467.038 82.3949L466.84 82.7374L470.847 85.0507Z" fill="black"/>
<path d="M540.559 125.285L540.757 124.942L536.75 122.629L536.552 122.971L540.559 125.285Z" fill="black"/>
<path d="M465.878 103.643H461.252V104.039H465.878V103.643Z" fill="black"/>
<path d="M546.352 103.644H541.725V104.039H546.352V103.644Z" fill="black"/>
<path d="M471.061 122.964L470.863 122.622L466.857 124.935L467.054 125.277L471.061 122.964Z" fill="black"/>
<path d="M540.737 82.7524L540.539 82.4099L536.533 84.7232L536.73 85.0657L540.737 82.7524Z" fill="black"/>
<path d="M485.002 136.785L484.66 136.587L482.346 140.594L482.689 140.791L485.002 136.785Z" fill="black"/>
<path d="M525.254 67.0832L524.911 66.8855L522.598 70.8922L522.94 71.0899L525.254 67.0832Z" fill="black"/>
<path d="M499.449 57.9342V57.0643H500.596V52.7144C500.161 52.9121 499.766 53.0703 499.331 53.2285V52.1608C499.766 52.0422 500.24 51.8049 500.715 51.5281H501.703V57.0643H502.85V57.9342H499.449Z" fill="black"/>
<path d="M506.368 51.4465C506.962 51.4465 507.436 51.6442 507.792 52.0001C508.148 52.356 508.306 52.8701 508.306 53.5424C508.306 53.7005 508.306 53.8192 508.267 53.9378C508.227 54.0564 508.227 54.1751 508.187 54.2937C508.148 54.4123 508.108 54.4914 508.029 54.6101C507.95 54.7287 507.911 54.8078 507.871 54.8869C507.832 54.966 507.752 55.0451 507.673 55.1637C507.594 55.2823 507.515 55.3614 507.476 55.4009C507.436 55.4405 507.357 55.5196 507.238 55.6382L505.973 56.9827H508.306V57.8922H504.589V57.1014L506.447 55.0451C506.606 54.8869 506.685 54.7682 506.764 54.6892C506.803 54.6101 506.882 54.531 507.001 54.4123C507.08 54.2937 507.159 54.1751 507.199 54.1355C507.238 54.0564 507.278 53.9774 507.278 53.8587C507.317 53.7401 507.317 53.661 507.317 53.5424C507.317 53.4633 507.317 53.3446 507.278 53.1865C507.238 53.0283 507.199 52.8701 507.159 52.791C507.08 52.6724 507.041 52.5933 506.922 52.5142C506.843 52.4351 506.724 52.3956 506.645 52.3956C506.566 52.356 506.447 52.356 506.329 52.356C506.25 52.356 506.171 52.356 506.092 52.3956C506.012 52.3956 505.933 52.4351 505.854 52.4351C505.775 52.4747 505.696 52.4747 505.617 52.5142C505.538 52.5538 505.459 52.5538 505.38 52.5933C505.301 52.6329 505.261 52.6724 505.182 52.6724C505.103 52.7119 505.063 52.7515 505.024 52.7515C504.984 52.791 504.945 52.791 504.905 52.8306C504.866 52.8701 504.826 52.8701 504.826 52.8701H504.787L504.431 52.0001C504.47 52.0001 504.47 51.9606 504.51 51.9211C504.549 51.8815 504.628 51.842 504.787 51.7629C504.945 51.6838 505.063 51.6442 505.222 51.5652C505.38 51.5256 505.578 51.4465 505.775 51.407C505.933 51.4465 506.131 51.4465 506.368 51.4465Z" fill="black"/>
<path d="M503.563 156.555C503.049 156.555 502.614 156.436 502.258 156.16C501.902 155.883 501.625 155.527 501.467 155.052C501.309 154.578 501.229 154.024 501.229 153.392C501.229 152.917 501.269 152.482 501.388 152.047C501.506 151.652 501.664 151.256 501.862 150.94C502.06 150.623 502.337 150.386 502.693 150.188C503.009 149.991 503.404 149.912 503.8 149.912C504.472 149.912 505.026 150.109 505.421 150.465L505.065 151.296C504.67 150.979 504.274 150.861 503.8 150.861C503.404 150.861 503.088 151.058 502.811 151.414C502.534 151.81 502.416 152.284 502.376 152.838C502.693 152.403 503.128 152.166 503.642 152.166C504.274 152.166 504.788 152.363 505.144 152.759C505.5 153.154 505.698 153.668 505.698 154.301C505.698 154.934 505.5 155.448 505.105 155.883C504.709 156.357 504.195 156.555 503.563 156.555ZM503.523 155.606C503.839 155.606 504.077 155.487 504.274 155.25C504.472 155.013 504.551 154.736 504.551 154.38C504.551 154.024 504.472 153.708 504.274 153.51C504.116 153.273 503.839 153.154 503.523 153.154C503.167 153.154 502.89 153.273 502.693 153.51C502.495 153.747 502.376 154.024 502.376 154.42C502.376 154.617 502.416 154.776 502.455 154.934C502.534 155.092 502.614 155.211 502.693 155.329C502.811 155.448 502.93 155.487 503.049 155.566C503.246 155.566 503.404 155.606 503.523 155.606Z" fill="black"/>
<path d="M455.358 106.927C454.884 106.927 454.33 106.769 453.697 106.492L454.093 105.583C454.488 105.82 454.844 105.978 455.24 105.978C455.437 105.978 455.635 105.939 455.793 105.859C455.951 105.78 456.11 105.662 456.268 105.543C456.386 105.385 456.505 105.187 456.584 104.95C456.663 104.713 456.703 104.396 456.703 104.08V103.961C456.426 104.357 455.991 104.554 455.437 104.554C454.805 104.554 454.33 104.357 453.935 103.961C453.579 103.566 453.381 103.091 453.381 102.459C453.381 101.826 453.579 101.312 453.974 100.916C454.37 100.521 454.923 100.323 455.556 100.323C456.268 100.323 456.821 100.6 457.217 101.114C457.612 101.628 457.81 102.419 457.81 103.447C457.81 104.119 457.731 104.752 457.533 105.266C457.336 105.78 457.059 106.215 456.703 106.492C456.307 106.808 455.872 106.927 455.358 106.927ZM455.516 103.645C455.872 103.645 456.149 103.526 456.347 103.329C456.545 103.131 456.663 102.815 456.663 102.38C456.663 102.063 456.584 101.826 456.386 101.589C456.189 101.391 455.951 101.272 455.596 101.272C455.24 101.272 455.002 101.391 454.765 101.589C454.567 101.826 454.449 102.103 454.449 102.459C454.449 102.815 454.528 103.091 454.726 103.289C454.923 103.526 455.2 103.645 455.516 103.645Z" fill="black"/>
<path d="M552.518 106.966C552.28 106.966 552.043 106.966 551.806 106.927C551.568 106.887 551.41 106.848 551.252 106.808C551.094 106.769 550.975 106.69 550.857 106.65C550.738 106.611 550.659 106.531 550.619 106.531L550.54 106.492L550.896 105.661C550.936 105.701 551.015 105.741 551.134 105.78C551.252 105.82 551.41 105.899 551.687 105.978C551.924 106.057 552.162 106.096 552.399 106.096C552.794 106.096 553.111 106.017 553.308 105.82C553.506 105.622 553.625 105.385 553.625 105.068C553.625 104.752 553.467 104.475 553.19 104.317C552.913 104.159 552.518 104.08 552.003 104.08H551.845H551.568V103.131H551.885C552.438 103.131 552.834 103.052 553.071 102.893C553.308 102.735 553.427 102.498 553.427 102.103C553.427 101.865 553.308 101.668 553.111 101.549C552.873 101.43 552.636 101.351 552.359 101.351C552.241 101.351 552.083 101.351 551.964 101.391C551.845 101.43 551.727 101.43 551.608 101.47C551.489 101.509 551.41 101.549 551.371 101.588C551.292 101.628 551.252 101.668 551.173 101.707C551.094 101.747 551.054 101.786 551.015 101.786L550.501 100.995C550.857 100.758 551.134 100.6 551.41 100.521C551.687 100.442 552.043 100.402 552.478 100.402C552.755 100.402 552.992 100.442 553.229 100.521C553.467 100.6 553.704 100.679 553.902 100.837C554.099 100.956 554.257 101.153 554.376 101.351C554.495 101.549 554.534 101.826 554.534 102.103C554.534 102.34 554.495 102.537 554.416 102.735C554.337 102.933 554.218 103.131 554.02 103.289C553.823 103.447 553.625 103.566 553.348 103.605C553.783 103.684 554.099 103.842 554.337 104.159C554.574 104.436 554.692 104.792 554.692 105.147C554.692 105.424 554.653 105.701 554.534 105.938C554.416 106.176 554.257 106.373 554.06 106.531C553.862 106.69 553.625 106.808 553.388 106.887C553.071 106.927 552.794 106.966 552.518 106.966Z" fill="black"/>
<path d="M527.369 65.5639V64.6939H528.516V60.344C528.081 60.5418 527.685 60.6999 527.25 60.8581V59.83C527.685 59.7113 528.16 59.4741 528.634 59.1973H529.623V64.7335H530.77V65.6034H527.369V65.5639Z" fill="black"/>
<path d="M544.571 74.3423C545.164 74.3423 545.639 74.54 545.995 74.8959C546.351 75.2518 546.509 75.7659 546.509 76.4381C546.509 76.5963 546.509 76.7149 546.469 76.8336C546.43 76.9522 546.43 77.0708 546.39 77.1895C546.351 77.3081 546.311 77.3872 546.232 77.5058C546.153 77.6244 546.113 77.7035 546.074 77.7826C546.034 77.8617 545.955 77.9408 545.876 78.0594C545.797 78.1781 545.718 78.2572 545.678 78.2967C545.639 78.3362 545.56 78.4153 545.441 78.534L544.176 79.8785H546.509V80.788H542.792V79.9971L544.65 77.9408C544.808 77.7826 544.887 77.664 544.966 77.5849C545.006 77.5058 545.085 77.4267 545.204 77.3081C545.283 77.1895 545.362 77.0708 545.401 77.0313C545.441 76.9522 545.481 76.8731 545.481 76.7545C545.52 76.6358 545.52 76.5568 545.52 76.4381C545.52 76.359 545.52 76.2404 545.481 76.0822C545.441 75.924 545.401 75.7659 545.362 75.6868C545.283 75.5681 545.243 75.4891 545.125 75.41C545.046 75.3309 544.927 75.2913 544.848 75.2913C544.769 75.2518 544.65 75.2518 544.531 75.2518C544.452 75.2518 544.373 75.2518 544.294 75.2913C544.215 75.2913 544.136 75.3309 544.057 75.3309C543.978 75.3704 543.899 75.3704 543.82 75.41C543.741 75.4495 543.662 75.4495 543.582 75.4891C543.503 75.5286 543.464 75.5681 543.385 75.5681C543.306 75.6077 543.266 75.6472 543.227 75.6472C543.187 75.6868 543.147 75.6868 543.108 75.7263C543.068 75.7659 543.029 75.7659 543.029 75.7659H542.989L542.633 74.8959C542.673 74.8959 542.673 74.8564 542.712 74.8168C542.752 74.7773 542.831 74.7377 542.989 74.6586C543.147 74.5795 543.266 74.54 543.424 74.4609C543.582 74.4214 543.78 74.3423 543.978 74.3027C544.136 74.3818 544.334 74.3423 544.571 74.3423Z" fill="black"/>
<path d="M545.44 133.184V131.524H542.751V130.693L545.322 126.818H546.587V130.654H547.576V131.524H546.587V133.184H545.44ZM543.938 130.614H545.44V128.202C545.361 128.321 544.887 129.111 543.938 130.614Z" fill="black"/>
<path d="M528.99 148.725C528.634 148.725 528.279 148.646 527.923 148.488C527.567 148.33 527.25 148.132 526.974 147.855L527.567 147.025C527.764 147.262 528.002 147.46 528.239 147.578C528.476 147.697 528.753 147.776 528.99 147.776C529.307 147.776 529.583 147.658 529.821 147.46C530.058 147.262 530.177 146.946 530.177 146.55C530.177 146.234 530.098 145.957 529.939 145.759C529.781 145.522 529.583 145.443 529.307 145.443C528.951 145.443 528.714 145.522 528.555 145.72L527.448 145.562V142.28H531.007V143.229H528.437L528.397 144.85C528.595 144.573 528.99 144.454 529.544 144.454C530.018 144.454 530.453 144.652 530.809 145.087C531.165 145.483 531.323 145.997 531.323 146.629C531.323 146.906 531.284 147.183 531.205 147.42C531.126 147.658 531.007 147.855 530.849 148.013C530.691 148.172 530.533 148.33 530.335 148.448C530.137 148.567 529.939 148.646 529.702 148.725C529.465 148.686 529.228 148.725 528.99 148.725Z" fill="black"/>
<path d="M476.357 148.606L478.769 143.149H475.606V142.24H480.035V143.11L477.504 148.646H476.357V148.606Z" fill="black"/>
<path d="M462.872 133.382C462.437 133.382 462.081 133.303 461.764 133.184C461.448 133.026 461.171 132.829 460.974 132.552C460.776 132.275 460.697 131.959 460.697 131.563C460.697 131.207 460.776 130.891 460.974 130.614C461.171 130.337 461.448 130.1 461.764 129.942C461.132 129.586 460.815 129.072 460.815 128.479C460.815 127.965 461.013 127.53 461.369 127.253C461.764 126.937 462.239 126.818 462.832 126.818C463.465 126.818 463.979 126.976 464.335 127.292C464.691 127.609 464.888 128.044 464.888 128.558C464.888 129.191 464.572 129.705 463.939 129.981C464.256 130.14 464.493 130.377 464.691 130.654C464.888 130.97 465.007 131.286 465.007 131.603C465.007 131.959 464.888 132.315 464.691 132.591C464.493 132.868 464.216 133.066 463.9 133.224C463.623 133.343 463.267 133.382 462.872 133.382ZM462.872 132.433C463.188 132.433 463.465 132.354 463.623 132.196C463.821 132.038 463.9 131.8 463.9 131.484C463.9 131.247 463.821 131.01 463.623 130.772C463.425 130.535 463.188 130.416 462.911 130.337C462.595 130.416 462.358 130.535 462.16 130.772C461.962 130.97 461.844 131.247 461.844 131.524C461.844 131.8 461.923 132.038 462.12 132.196C462.279 132.354 462.555 132.433 462.872 132.433ZM462.872 129.546C463.149 129.467 463.386 129.349 463.544 129.151C463.702 128.993 463.781 128.756 463.781 128.518C463.781 128.281 463.702 128.123 463.504 128.004C463.346 127.886 463.109 127.806 462.832 127.806C462.555 127.806 462.318 127.886 462.16 128.004C462.002 128.123 461.923 128.321 461.923 128.597C461.923 128.835 462.002 129.032 462.16 129.23C462.358 129.309 462.555 129.467 462.872 129.546Z" fill="black"/>
<path d="M456.862 81.1442V80.2742H458.009V75.9244C457.574 76.1221 457.178 76.2803 456.743 76.4384V75.4103C457.178 75.2917 457.653 75.0544 458.127 74.7776H459.116V80.3138H460.263V81.1837H456.862V81.1442Z" fill="black"/>
<path d="M463.98 81.2631C463.268 81.2631 462.715 80.9467 462.319 80.3535C461.924 79.7604 461.726 78.9299 461.726 77.9018C461.726 76.8736 461.924 76.0828 462.319 75.4896C462.715 74.936 463.268 74.6196 463.98 74.6196C464.692 74.6196 465.245 74.8964 465.641 75.4896C466.036 76.0828 466.234 76.8736 466.234 77.8623C466.234 78.5345 466.155 79.1277 465.997 79.6022C465.839 80.1163 465.562 80.4722 465.245 80.7885C464.85 81.1049 464.455 81.2631 463.98 81.2631ZM463.98 80.2745C464.692 80.2745 465.087 79.4836 465.087 77.8623C465.087 77.5459 465.087 77.2691 465.048 76.9923C465.008 76.7155 464.969 76.4782 464.89 76.2805C464.81 76.0432 464.692 75.885 464.534 75.7664C464.375 75.6478 464.217 75.5687 464.02 75.5687C463.822 75.5687 463.624 75.6478 463.466 75.7664C463.308 75.885 463.189 76.0828 463.11 76.2805C463.031 76.5178 462.952 76.755 462.912 76.9923C462.873 77.2691 462.873 77.5459 462.873 77.8623C462.873 78.2182 462.873 78.5345 462.912 78.8113C462.952 79.0881 462.991 79.3254 463.11 79.5627C463.189 79.7999 463.308 79.9581 463.466 80.0767C463.585 80.2349 463.782 80.2745 463.98 80.2745Z" fill="black"/>
<path d="M474.539 65.0497V64.1797H475.686V59.8299C475.251 60.0276 474.856 60.1858 474.421 60.344V59.2763C474.856 59.1576 475.33 58.9204 475.805 58.6436H476.793V64.1797H477.94V65.0497H474.539Z" fill="black"/>
<path d="M480.155 65.0497V64.1797H481.302V59.8299C480.867 60.0276 480.472 60.1858 480.037 60.344V59.2763C480.472 59.1576 480.946 58.9204 481.421 58.6436H482.409V64.1797H483.556V65.0497H480.155Z" fill="black"/>
<path d="M503.798 106.492C505.262 106.492 506.448 105.306 506.448 103.843C506.448 102.379 505.262 101.193 503.798 101.193C502.335 101.193 501.149 102.379 501.149 103.843C501.149 105.306 502.335 106.492 503.798 106.492Z" fill="url(#paint2_radial_20_16874)"/>
<path d="M513.331 104.122C513.331 104.755 512.777 105.229 512.105 105.229L483 105.215L483.001 103L512.106 103.014C512.778 103.015 513.331 103.489 513.331 104.122Z" fill="black"/>
<path d="M532.418 86.3364L532.266 86.0891L532.016 86.2373L495.587 107.857C495.586 107.857 495.585 107.858 495.584 107.858C495.124 108.123 495.108 108.681 495.319 109.05C495.548 109.452 496.077 109.646 496.512 109.397L496.512 109.397L496.516 109.395L532.95 87.7728L533.208 87.6198L533.051 87.3645L532.418 86.3364Z" fill="#0E80A4" stroke="#0E80A4" stroke-width="0.59"/>
<path d="M503.8 105.701C504.827 105.701 505.659 104.869 505.659 103.842C505.659 102.816 504.827 101.984 503.8 101.984C502.774 101.984 501.942 102.816 501.942 103.842C501.942 104.869 502.774 105.701 503.8 105.701Z" fill="#0E80A4"/>
<path d="M504 163C536.585 163 563 136.585 563 104C563 71.4152 536.585 45 504 45C471.415 45 445 71.4152 445 104C445 136.585 471.415 163 504 163Z" stroke="#0E80A4" stroke-width="5.9" stroke-miterlimit="10"/>
<defs>
<filter id="filter0_d_20_16874" x="0" y="0" width="212" height="212" filterUnits="userSpaceOnUse" color-interpolation-filters="sRGB">
<feFlood flood-opacity="0" result="BackgroundImageFix"/>
<feColorMatrix in="SourceAlpha" type="matrix" values="0 0 0 0 0 0 0 0 0 0 0 0 0 0 0 0 0 0 127 0" result="hardAlpha"/>
<feMorphology radius="1" operator="dilate" in="SourceAlpha" result="effect1_dropShadow_20_16874"/>
<feOffset dx="2" dy="2"/>
<feGaussianBlur stdDeviation="10"/>
<feColorMatrix type="matrix" values="0 0 0 0 0.211765 0 0 0 0 0.611765 0 0 0 0 0.717647 0 0 0 0.29 0"/>
<feBlend mode="normal" in2="BackgroundImageFix" result="effect1_dropShadow_20_16874"/>
<feBlend mode="normal" in="SourceGraphic" in2="effect1_dropShadow_20_16874" result="shape"/>
</filter>
<radialGradient id="paint0_radial_20_16874" cx="0" cy="0" r="1" gradientUnits="userSpaceOnUse" gradientTransform="translate(103.798 103.83) scale(2.63716)">
<stop/>
<stop offset="0.3022" stop-color="#050505"/>
<stop offset="0.6568" stop-color="#131312"/>
<stop offset="1" stop-color="#282826"/>
</radialGradient>
<radialGradient id="paint1_radial_20_16874" cx="0" cy="0" r="1" gradientUnits="userSpaceOnUse" gradientTransform="translate(303.798 103.83) scale(2.63716)">
<stop/>
<stop offset="0.3022" stop-color="#050505"/>
<stop offset="0.6568" stop-color="#131312"/>
<stop offset="1" stop-color="#282826"/>
</radialGradient>
<radialGradient id="paint2_radial_20_16874" cx="0" cy="0" r="1" gradientUnits="userSpaceOnUse" gradientTransform="translate(503.798 103.83) scale(2.63716)">
<stop/>
<stop offset="0.3022" stop-color="#050505"/>
<stop offset="0.6568" stop-color="#131312"/>
<stop offset="1" stop-color="#282826"/>
</radialGradient>
</defs>
</svg>
