<svg width="614" height="193" viewBox="0 0 614 193" fill="none" xmlns="http://www.w3.org/2000/svg">
<path d="M60.5516 157.44C60.4268 157.637 60.4855 157.898 60.6828 158.023L63.898 160.057C64.0953 160.182 64.3565 160.123 64.4813 159.926C64.6061 159.729 64.5473 159.468 64.35 159.343L61.4921 157.535L63.3002 154.677C63.425 154.48 63.3663 154.218 63.169 154.094C62.9717 153.969 62.7105 154.028 62.5857 154.225L60.5516 157.44ZM365.277 157.666C365.392 157.259 365.392 157.259 365.392 157.259C365.392 157.259 365.392 157.259 365.392 157.259C365.392 157.259 365.392 157.259 365.392 157.259C365.392 157.259 365.392 157.259 365.392 157.259C365.391 157.259 365.391 157.259 365.391 157.259C365.39 157.259 365.39 157.258 365.389 157.258C365.387 157.258 365.384 157.257 365.38 157.256C365.372 157.253 365.36 157.25 365.345 157.246C365.314 157.237 365.268 157.225 365.207 157.208C365.085 157.174 364.902 157.125 364.661 157.06L364.442 157.877C364.682 157.941 364.863 157.99 364.983 158.023C365.043 158.04 365.088 158.052 365.118 158.061C365.133 158.065 365.145 158.068 365.152 158.07C365.156 158.071 365.159 158.072 365.16 158.072C365.161 158.072 365.162 158.073 365.162 158.073C365.163 158.073 365.163 158.073 365.163 158.073C365.163 158.073 365.163 158.073 365.163 158.073C365.163 158.073 365.163 158.073 365.163 158.073C365.163 158.073 365.163 158.073 365.163 158.073C365.163 158.073 365.163 158.073 365.277 157.666ZM363.029 156.634C362.545 156.51 361.989 156.369 361.361 156.213L361.158 157.034C361.783 157.189 362.338 157.329 362.819 157.453L363.029 156.634ZM359.706 155.808C359.201 155.686 358.665 155.558 358.096 155.424L357.902 156.247C358.469 156.381 359.004 156.509 359.507 156.63L359.706 155.808ZM356.416 155.032C355.896 154.913 355.355 154.789 354.792 154.662L354.606 155.487C355.168 155.614 355.708 155.737 356.226 155.856L356.416 155.032ZM353.151 154.296C352.601 154.174 352.034 154.05 351.449 153.923L351.27 154.75C351.854 154.876 352.42 155 352.968 155.121L353.151 154.296ZM349.857 153.582C349.313 153.466 348.755 153.348 348.184 153.229L348.012 154.057C348.582 154.176 349.138 154.293 349.682 154.409L349.857 153.582ZM346.501 152.881C345.976 152.774 345.44 152.665 344.895 152.556L344.728 153.385C345.273 153.494 345.807 153.602 346.331 153.71L346.501 152.881ZM343.229 152.224C342.666 152.112 342.093 152 341.51 151.887L341.349 152.717C341.931 152.83 342.503 152.942 343.065 153.053L343.229 152.224ZM339.912 151.58C339.372 151.477 338.823 151.374 338.267 151.27L338.111 152.101C338.667 152.205 339.214 152.308 339.754 152.411L339.912 151.58ZM336.574 150.956C336.022 150.854 335.463 150.752 334.896 150.65L334.746 151.482C335.312 151.584 335.87 151.686 336.421 151.787L336.574 150.956ZM333.277 150.36C332.731 150.263 332.178 150.166 331.62 150.068L331.474 150.901C332.032 150.999 332.584 151.096 333.129 151.192L333.277 150.36ZM329.924 149.775C329.369 149.68 328.808 149.585 328.242 149.49L328.102 150.324C328.667 150.419 329.227 150.514 329.781 150.609L329.924 149.775ZM326.618 149.219C326.071 149.129 325.519 149.038 324.962 148.948L324.827 149.782C325.383 149.873 325.934 149.963 326.48 150.053L326.618 149.219ZM323.276 148.676C322.709 148.586 322.136 148.496 321.559 148.405L321.428 149.24C322.005 149.331 322.576 149.421 323.143 149.511L323.276 148.676ZM319.935 148.153C319.391 148.07 318.842 147.986 318.29 147.903L318.163 148.739C318.716 148.822 319.263 148.906 319.807 148.989L319.935 148.153ZM316.618 147.653C316.056 147.57 315.49 147.486 314.92 147.404L314.798 148.24C315.368 148.323 315.933 148.406 316.494 148.489L316.618 147.653ZM313.224 147.16C312.684 147.083 312.14 147.006 311.592 146.929L311.475 147.766C312.022 147.843 312.565 147.92 313.105 147.997L313.224 147.16ZM309.937 146.7C309.381 146.624 308.823 146.548 308.26 146.472L308.147 147.31C308.709 147.385 309.267 147.461 309.822 147.537L309.937 146.7ZM306.561 146.246C305.998 146.171 305.431 146.097 304.86 146.024L304.752 146.862C305.322 146.936 305.888 147.01 306.451 147.084L306.561 146.246ZM303.223 145.814C302.674 145.745 302.122 145.676 301.567 145.607L301.463 146.446C302.017 146.515 302.568 146.584 303.117 146.653L303.223 145.814ZM299.892 145.401C299.33 145.333 298.766 145.265 298.198 145.198L298.098 146.038C298.665 146.105 299.229 146.173 299.79 146.241L299.892 145.401ZM296.486 144.997C295.937 144.933 295.386 144.87 294.831 144.807L294.736 145.647C295.289 145.71 295.84 145.773 296.388 145.837L296.486 144.997ZM293.179 144.621C292.625 144.559 292.069 144.498 291.51 144.438L291.418 145.278C291.977 145.339 292.532 145.4 293.085 145.461L293.179 144.621ZM289.825 144.257C289.26 144.197 288.693 144.137 288.123 144.078L288.036 144.919C288.605 144.978 289.172 145.038 289.735 145.097L289.825 144.257ZM286.416 143.904C285.869 143.848 285.321 143.794 284.769 143.739L284.687 144.581C285.237 144.635 285.785 144.69 286.331 144.745L286.416 143.904ZM283.109 143.578C282.553 143.524 281.995 143.471 281.434 143.419L281.355 144.26C281.915 144.313 282.473 144.366 283.028 144.419L283.109 143.578ZM279.745 143.262C279.18 143.211 278.612 143.16 278.042 143.109L277.968 143.951C278.537 144.002 279.104 144.053 279.668 144.104L279.745 143.262ZM276.336 142.96C275.787 142.913 275.237 142.866 274.685 142.82L274.614 143.662C275.166 143.708 275.715 143.755 276.263 143.802L276.336 142.96ZM273.021 142.682C272.464 142.637 271.906 142.592 271.345 142.548L271.279 143.39C271.839 143.435 272.397 143.479 272.952 143.525L273.021 142.682ZM269.657 142.416C269.092 142.373 268.525 142.33 267.956 142.288L267.894 143.131C268.462 143.173 269.028 143.216 269.592 143.259L269.657 142.416ZM266.244 142.163C265.691 142.123 265.137 142.084 264.581 142.046L264.522 142.889C265.078 142.928 265.631 142.967 266.183 143.006L266.244 142.163ZM262.918 141.933C262.362 141.895 261.804 141.859 261.244 141.822L261.189 142.666C261.748 142.702 262.306 142.739 262.861 142.776L262.918 141.933ZM259.559 141.716C258.995 141.681 258.43 141.646 257.863 141.612L257.813 142.456C258.379 142.49 258.944 142.524 259.506 142.559L259.559 141.716ZM256.156 141.512C255.592 141.48 255.027 141.448 254.459 141.417L254.413 142.261C254.98 142.292 255.545 142.324 256.108 142.356L256.156 141.512ZM252.799 141.327C252.244 141.298 251.687 141.269 251.129 141.241L251.087 142.086C251.644 142.114 252.2 142.142 252.755 142.172L252.799 141.327ZM249.45 141.159C248.888 141.132 248.325 141.106 247.76 141.08L247.722 141.924C248.286 141.95 248.848 141.976 249.409 142.003L249.45 141.159ZM246.061 141.004C245.493 140.98 244.924 140.956 244.353 140.933L244.318 141.777C244.889 141.801 245.458 141.825 246.025 141.849L246.061 141.004ZM242.665 140.866C242.111 140.844 241.557 140.824 241 140.804L240.97 141.649C241.525 141.669 242.08 141.689 242.632 141.711L242.665 140.866ZM239.327 140.745C238.768 140.726 238.207 140.708 237.645 140.69L237.619 141.535C238.18 141.553 238.74 141.571 239.299 141.59L239.327 140.745ZM235.955 140.639C235.39 140.623 234.824 140.607 234.256 140.592L234.233 141.437C234.8 141.452 235.366 141.468 235.93 141.484L235.955 140.639ZM232.548 140.548C231.986 140.534 231.421 140.521 230.856 140.509L230.837 141.354C231.402 141.366 231.966 141.38 232.528 141.393L232.548 140.548ZM229.19 140.474C228.633 140.463 228.075 140.453 227.516 140.443L227.502 141.288C228.06 141.298 228.617 141.308 229.173 141.319L229.19 140.474ZM225.835 140.416C225.273 140.407 224.71 140.399 224.146 140.392L224.135 141.238C224.699 141.245 225.261 141.253 225.822 141.261L225.835 140.416ZM222.449 140.373C221.882 140.367 221.314 140.362 220.744 140.357L220.738 141.202C221.306 141.207 221.874 141.212 222.44 141.218L222.449 140.373ZM219.037 140.345C218.483 140.342 217.928 140.34 217.372 140.338L217.369 141.183C217.924 141.185 218.479 141.188 219.032 141.191L219.037 140.345ZM215.699 140.334C215.141 140.334 214.581 140.334 214.02 140.335L214.021 141.18C214.582 141.179 215.141 141.179 215.699 141.18L215.699 140.334ZM212.334 140.339C211.771 140.341 211.207 140.344 210.641 140.347L210.646 141.192C211.211 141.189 211.775 141.186 212.337 141.184L212.334 140.339ZM208.941 140.359C208.374 140.364 207.805 140.369 207.235 140.375L207.244 141.221C207.813 141.215 208.381 141.209 208.948 141.205L208.941 140.359ZM205.548 140.395C204.993 140.403 204.436 140.411 203.879 140.419L203.892 141.265C204.449 141.256 205.004 141.248 205.559 141.241L205.548 140.395ZM202.203 140.447C201.644 140.457 201.083 140.467 200.522 140.479L200.539 141.324C201.1 141.313 201.659 141.302 202.218 141.292L202.203 140.447ZM198.834 140.514C198.27 140.527 197.705 140.54 197.14 140.554L197.161 141.399C197.726 141.386 198.29 141.372 198.853 141.36L198.834 140.514ZM195.439 140.598C194.872 140.614 194.303 140.63 193.733 140.647L193.758 141.492C194.327 141.475 194.895 141.459 195.462 141.443L195.439 140.598ZM192.056 140.698C191.5 140.716 190.943 140.734 190.385 140.753L190.414 141.598C190.971 141.579 191.527 141.561 192.083 141.543L192.056 140.698ZM188.709 140.812C188.149 140.833 187.589 140.854 187.027 140.875L187.06 141.72C187.621 141.698 188.181 141.677 188.74 141.657L188.709 140.812ZM185.34 140.943C184.776 140.966 184.212 140.99 183.647 141.015L183.683 141.859C184.248 141.835 184.812 141.811 185.374 141.788L185.34 140.943ZM181.948 141.09C181.381 141.116 180.813 141.143 180.244 141.171L180.285 142.015C180.853 141.988 181.421 141.961 181.987 141.935L181.948 141.09ZM178.567 141.254C178.012 141.282 177.455 141.311 176.897 141.34L176.942 142.184C177.499 142.155 178.055 142.126 178.61 142.098L178.567 141.254ZM175.222 141.431C174.663 141.462 174.103 141.493 173.542 141.526L173.591 142.37C174.151 142.337 174.71 142.306 175.269 142.275L175.222 141.431ZM171.857 141.625C171.294 141.659 170.731 141.693 170.167 141.728L170.219 142.572C170.783 142.537 171.346 142.502 171.908 142.469L171.857 141.625ZM168.472 141.836C167.906 141.873 167.339 141.91 166.772 141.948L166.828 142.792C167.395 142.754 167.961 142.716 168.526 142.68L168.472 141.836ZM165.088 142.063C164.533 142.102 163.977 142.141 163.42 142.181L163.481 143.025C164.037 142.985 164.592 142.945 165.147 142.907L165.088 142.063ZM161.748 142.304C161.19 142.345 160.631 142.387 160.071 142.43L160.136 143.273C160.695 143.23 161.253 143.188 161.811 143.147L161.748 142.304ZM158.39 142.561C157.829 142.605 157.267 142.65 156.704 142.696L156.773 143.539C157.335 143.493 157.896 143.448 158.456 143.404L158.39 142.561ZM155.014 142.836C154.449 142.883 153.885 142.931 153.319 142.98L153.392 143.822C153.957 143.774 154.521 143.726 155.084 143.678L155.014 142.836ZM151.623 143.128C151.069 143.177 150.514 143.227 149.959 143.278L150.036 144.12C150.59 144.069 151.144 144.02 151.698 143.971L151.623 143.128ZM148.291 143.432C147.734 143.484 147.177 143.536 146.619 143.59L146.699 144.432C147.257 144.378 147.813 144.325 148.369 144.274L148.291 143.432ZM144.942 143.753C144.383 143.808 143.823 143.863 143.262 143.92L143.347 144.761C143.907 144.705 144.466 144.649 145.025 144.594L144.942 143.753ZM141.578 144.091C141.015 144.149 140.453 144.208 139.889 144.267L139.978 145.108C140.541 145.049 141.103 144.99 141.664 144.932L141.578 144.091ZM138.197 144.448C137.638 144.508 137.078 144.569 136.517 144.631L136.61 145.472C137.17 145.41 137.729 145.349 138.288 145.288L138.197 144.448ZM134.855 144.817C134.3 144.879 133.744 144.943 133.188 145.007L133.285 145.847C133.84 145.783 134.395 145.719 134.949 145.657L134.855 144.817ZM131.518 145.201C130.961 145.267 130.403 145.333 129.844 145.4L129.945 146.239C130.503 146.172 131.06 146.106 131.617 146.041L131.518 145.201ZM128.167 145.603C127.607 145.672 127.047 145.741 126.486 145.811L126.591 146.65C127.151 146.58 127.711 146.511 128.27 146.443L128.167 145.603ZM124.801 146.024C124.239 146.095 123.677 146.168 123.113 146.241L123.222 147.079C123.785 147.006 124.347 146.934 124.908 146.863L124.801 146.024ZM121.444 146.46C120.891 146.533 120.338 146.607 119.784 146.682L119.897 147.519C120.45 147.445 121.003 147.371 121.555 147.298L121.444 146.46ZM118.121 146.908C117.566 146.984 117.011 147.061 116.455 147.138L116.572 147.976C117.127 147.898 117.682 147.821 118.236 147.745L118.121 146.908ZM114.785 147.374C114.228 147.453 113.671 147.533 113.113 147.614L113.234 148.45C113.791 148.37 114.348 148.29 114.904 148.211L114.785 147.374ZM111.437 147.858C110.878 147.94 110.318 148.023 109.758 148.107L109.883 148.943C110.442 148.86 111.001 148.777 111.56 148.695L111.437 147.858ZM108.075 148.361C107.521 148.445 106.966 148.531 106.41 148.616L106.54 149.452C107.094 149.366 107.649 149.281 108.202 149.197L108.075 148.361ZM104.756 148.874C104.204 148.961 103.651 149.049 103.098 149.137L103.231 149.972C103.783 149.884 104.335 149.796 104.887 149.71L104.756 148.874ZM101.437 149.404C100.883 149.494 100.328 149.584 99.7734 149.676L99.9107 150.51C100.465 150.419 101.019 150.328 101.572 150.239L101.437 149.404ZM98.1068 149.952C97.5508 150.045 96.9943 150.139 96.4373 150.233L96.5787 151.067C97.135 150.972 97.6908 150.879 98.2462 150.786L98.1068 149.952ZM94.765 150.519C94.2071 150.615 93.6488 150.712 93.0899 150.81L93.2354 151.642C93.7936 151.545 94.3513 151.448 94.9085 151.352L94.765 150.519ZM91.4255 151.103C90.8765 151.2 90.3269 151.298 89.777 151.397L89.9266 152.229C90.4759 152.13 91.0247 152.032 91.5731 151.935L91.4255 151.103ZM88.1258 151.696C87.575 151.796 87.0237 151.897 86.472 151.999L86.6256 152.831C87.1767 152.729 87.7273 152.628 88.2774 152.528L88.1258 151.696ZM84.8155 152.308C84.263 152.411 83.7099 152.516 83.1565 152.621L83.3143 153.451C83.867 153.346 84.4194 153.242 84.9713 153.139L84.8155 152.308ZM81.4949 152.938C80.9407 153.045 80.386 153.153 79.8309 153.261L79.9928 154.091C80.5472 153.983 81.1012 153.875 81.6548 153.769L81.4949 152.938ZM78.1642 153.588C77.6088 153.698 77.0529 153.809 76.4966 153.92L76.6627 154.749C77.2182 154.638 77.7734 154.527 78.3282 154.418L78.1642 153.588ZM74.8558 154.251C74.3085 154.362 73.7607 154.474 73.2126 154.586L73.3827 155.414C73.9302 155.302 74.4772 155.19 75.0239 155.079L74.8558 154.251ZM71.5671 154.926C71.0182 155.04 70.4689 155.155 69.9193 155.271L70.0935 156.098C70.6425 155.983 71.1911 155.868 71.7393 155.754L71.5671 154.926ZM68.2692 155.621C67.7187 155.738 67.1679 155.856 66.6167 155.975L66.7951 156.802C67.3456 156.683 67.8957 156.565 68.4454 156.448L68.2692 155.621ZM64.9621 156.334C64.4102 156.455 63.8579 156.576 63.3052 156.698L63.4877 157.524C64.0397 157.402 64.5913 157.281 65.1425 157.16L64.9621 156.334ZM61.6462 157.067C61.3695 157.129 61.0928 157.191 60.816 157.254L61.0016 158.078C61.2781 158.016 61.5544 157.954 61.8307 157.892L61.6462 157.067Z" fill="#17723B"/>
<path d="M366.565 157.538C366.495 157.761 366.618 157.999 366.841 158.069L370.468 159.217C370.691 159.287 370.928 159.164 370.999 158.941C371.069 158.719 370.946 158.481 370.723 158.411L367.499 157.391L368.519 154.166C368.59 153.944 368.466 153.706 368.244 153.636C368.021 153.565 367.784 153.689 367.713 153.911L366.565 157.538ZM498.861 157.666C499.091 157.311 499.091 157.311 499.091 157.311C499.091 157.311 499.091 157.311 499.091 157.311C499.091 157.311 499.091 157.311 499.091 157.311C499.091 157.311 499.091 157.311 499.091 157.311C499.091 157.311 499.091 157.311 499.09 157.311C499.09 157.31 499.089 157.31 499.088 157.309C499.086 157.308 499.083 157.306 499.079 157.303C499.071 157.298 499.059 157.291 499.044 157.281C499.013 157.261 498.967 157.232 498.907 157.195C498.787 157.119 498.608 157.009 498.372 156.867L497.936 157.592C498.168 157.731 498.343 157.839 498.459 157.912C498.517 157.948 498.561 157.975 498.589 157.994C498.604 158.003 498.614 158.01 498.621 158.014C498.625 158.017 498.627 158.018 498.629 158.019C498.63 158.02 498.631 158.02 498.631 158.02C498.631 158.021 498.631 158.021 498.631 158.021C498.631 158.021 498.631 158.021 498.631 158.021C498.631 158.021 498.631 158.021 498.631 158.021C498.631 158.021 498.631 158.021 498.631 158.021C498.631 158.021 498.631 158.021 498.861 157.666ZM496.941 156.036C496.509 155.792 496.014 155.519 495.458 155.22L495.058 155.965C495.609 156.261 496.099 156.531 496.526 156.772L496.941 156.036ZM493.967 154.438C493.494 154.196 492.991 153.942 492.457 153.679L492.084 154.438C492.613 154.699 493.112 154.95 493.581 155.19L493.967 154.438ZM490.918 152.937C490.434 152.708 489.931 152.474 489.407 152.236L489.057 153.005C489.577 153.242 490.077 153.474 490.557 153.701L490.918 152.937ZM487.871 151.55C487.365 151.328 486.843 151.103 486.305 150.876L485.977 151.656C486.511 151.881 487.029 152.104 487.532 152.324L487.871 151.55ZM484.77 150.241C484.252 150.031 483.721 149.819 483.177 149.607L482.869 150.394C483.409 150.605 483.937 150.815 484.452 151.025L484.77 150.241ZM481.633 149.015C481.108 148.818 480.572 148.62 480.025 148.423L479.738 149.218C480.281 149.414 480.813 149.61 481.335 149.806L481.633 149.015ZM478.465 147.87C477.936 147.687 477.398 147.504 476.851 147.322L476.585 148.124C477.128 148.305 477.662 148.487 478.188 148.669L478.465 147.87ZM475.268 146.806C474.737 146.637 474.199 146.469 473.653 146.302L473.406 147.111C473.949 147.276 474.484 147.443 475.011 147.611L475.268 146.806ZM472.041 145.821C471.51 145.666 470.973 145.512 470.428 145.361L470.201 146.175C470.742 146.326 471.277 146.478 471.804 146.632L472.041 145.821ZM468.785 144.914C468.254 144.773 467.718 144.634 467.175 144.497L466.968 145.317C467.508 145.453 468.041 145.591 468.568 145.731L468.785 144.914ZM465.529 144.093C464.99 143.964 464.444 143.837 463.893 143.712L463.707 144.537C464.254 144.661 464.796 144.787 465.333 144.915L465.529 144.093ZM462.256 143.352C461.704 143.234 461.148 143.119 460.587 143.007L460.421 143.835C460.978 143.947 461.531 144.062 462.079 144.179L462.256 143.352ZM458.953 142.689C458.405 142.586 457.852 142.486 457.295 142.388L457.149 143.221C457.703 143.318 458.252 143.418 458.797 143.52L458.953 142.689ZM455.621 142.105C455.077 142.017 454.528 141.931 453.975 141.848L453.849 142.684C454.399 142.766 454.944 142.852 455.486 142.94L455.621 142.105ZM452.304 141.607C451.749 141.531 451.189 141.457 450.626 141.387L450.521 142.226C451.081 142.296 451.637 142.369 452.189 142.445L452.304 141.607ZM448.968 141.19C448.412 141.127 447.852 141.068 447.289 141.011L447.204 141.853C447.764 141.909 448.321 141.968 448.874 142.03L448.968 141.19ZM445.605 140.853C445.053 140.805 444.499 140.76 443.94 140.718L443.877 141.561C444.432 141.603 444.983 141.648 445.531 141.696L445.605 140.853ZM442.256 140.602C441.696 140.566 441.132 140.534 440.565 140.506L440.522 141.35C441.086 141.379 441.646 141.41 442.203 141.445L442.256 140.602ZM438.898 140.432C438.34 140.411 437.778 140.393 437.214 140.379L437.192 141.224C437.753 141.238 438.311 141.256 438.866 141.277L438.898 140.432ZM435.513 140.346C434.961 140.338 434.406 140.334 433.848 140.334L433.847 141.179C434.401 141.18 434.953 141.184 435.502 141.191L435.513 140.346ZM432.166 140.343C431.603 140.349 431.038 140.359 430.469 140.373L430.49 141.218C431.054 141.205 431.617 141.195 432.176 141.188L432.166 140.343ZM428.795 140.423C428.239 140.444 427.681 140.467 427.12 140.495L427.162 141.339C427.719 141.312 428.273 141.288 428.826 141.268L428.795 140.423ZM425.432 140.587C424.872 140.622 424.31 140.659 423.746 140.701L423.808 141.544C424.369 141.503 424.927 141.465 425.483 141.431L425.432 140.587ZM422.081 140.834C421.524 140.881 420.965 140.933 420.404 140.988L420.487 141.829C421.045 141.775 421.6 141.723 422.154 141.676L422.081 140.834ZM418.714 141.165C418.163 141.226 417.61 141.291 417.055 141.359L417.158 142.198C417.71 142.13 418.259 142.066 418.807 142.005L418.714 141.165ZM415.392 141.574C414.836 141.65 414.278 141.729 413.718 141.812L413.842 142.648C414.398 142.565 414.953 142.487 415.505 142.412L415.392 141.574ZM412.045 142.07C411.498 142.158 410.95 142.249 410.4 142.344L410.544 143.177C411.09 143.083 411.635 142.992 412.179 142.905L412.045 142.07ZM408.745 142.641C408.191 142.743 407.636 142.85 407.08 142.96L407.244 143.789C407.797 143.68 408.349 143.574 408.899 143.472L408.745 142.641ZM405.431 143.297C404.889 143.411 404.344 143.529 403.798 143.651L403.982 144.476C404.525 144.355 405.066 144.238 405.605 144.124L405.431 143.297ZM402.157 144.027C401.608 144.156 401.058 144.289 400.506 144.426L400.71 145.246C401.258 145.11 401.805 144.978 402.35 144.85L402.157 144.027ZM398.882 144.839C398.345 144.979 397.806 145.123 397.266 145.27L397.489 146.086C398.026 145.939 398.561 145.796 399.095 145.657L398.882 144.839ZM395.643 145.723C395.101 145.878 394.557 146.037 394.012 146.2L394.254 147.01C394.795 146.848 395.336 146.69 395.875 146.536L395.643 145.723ZM392.411 146.687C391.881 146.852 391.349 147.02 390.817 147.193L391.077 147.997C391.606 147.826 392.135 147.658 392.662 147.495L392.411 146.687ZM389.217 147.72C388.682 147.9 388.146 148.083 387.609 148.27L387.888 149.068C388.422 148.882 388.954 148.7 389.486 148.521L389.217 147.72ZM386.029 148.831C385.508 149.019 384.985 149.211 384.462 149.407L384.758 150.199C385.278 150.004 385.798 149.813 386.316 149.626L386.029 148.831ZM382.889 150.004C382.363 150.207 381.837 150.414 381.31 150.624L381.623 151.41C382.147 151.2 382.671 150.995 383.193 150.793L382.889 150.004ZM379.747 151.258C379.235 151.468 378.723 151.682 378.21 151.9L378.54 152.678C379.05 152.462 379.56 152.249 380.068 152.04L379.747 151.258ZM376.668 152.564C376.153 152.789 375.637 153.017 375.121 153.249L375.468 154.02C375.981 153.789 376.494 153.562 377.006 153.339L376.668 152.564ZM373.571 153.956C373.07 154.187 372.57 154.422 372.068 154.66L372.43 155.424C372.93 155.187 373.428 154.953 373.925 154.723L373.571 153.956ZM370.561 155.385C370.057 155.63 369.554 155.879 369.049 156.131L369.427 156.887C369.929 156.636 370.43 156.389 370.931 156.145L370.561 155.385ZM367.533 156.899C367.28 157.029 367.027 157.159 366.774 157.291L367.163 158.041C367.415 157.91 367.667 157.78 367.919 157.651L367.533 156.899Z" fill="#6361D1"/>
<path d="M597.803 186.31H595.916V188.729H593.998V186.31H588.154V184.94L593.405 178.077H595.52L590.574 184.636H594.059V182.49H595.916V184.636H597.803V186.31ZM601.923 182.201C603.425 182.201 604.536 182.495 605.256 183.083C605.977 183.662 606.337 184.453 606.337 185.458C606.337 186.097 606.18 186.675 605.865 187.192C605.551 187.71 605.079 188.121 604.45 188.425C603.821 188.729 603.045 188.882 602.121 188.882C601.36 188.882 600.625 188.775 599.915 188.562C599.204 188.339 598.606 188.035 598.119 187.649L598.956 186.112C599.352 186.437 599.823 186.695 600.371 186.888C600.929 187.071 601.502 187.162 602.091 187.162C602.791 187.162 603.339 187.02 603.734 186.736C604.14 186.442 604.343 186.041 604.343 185.534C604.343 184.986 604.125 184.575 603.689 184.301C603.263 184.017 602.527 183.875 601.482 183.875H598.91L599.458 178.077H605.713V179.735H601.132L600.904 182.201H601.923Z" fill="#404040"/>
<path d="M541.126 121.143H545.311V122.726H541.126V121.143ZM553.723 120.565C554.281 120.818 554.707 121.163 555.002 121.6C555.306 122.026 555.458 122.528 555.458 123.106C555.458 123.755 555.276 124.324 554.91 124.811C554.555 125.298 554.048 125.673 553.389 125.937C552.729 126.19 551.963 126.317 551.091 126.317C550.218 126.317 549.452 126.19 548.793 125.937C548.143 125.673 547.641 125.298 547.286 124.811C546.931 124.324 546.753 123.755 546.753 123.106C546.753 122.528 546.9 122.026 547.195 121.6C547.489 121.163 547.91 120.818 548.458 120.565C548.032 120.331 547.702 120.027 547.469 119.652C547.245 119.266 547.134 118.825 547.134 118.328C547.134 117.729 547.296 117.206 547.621 116.76C547.956 116.314 548.422 115.969 549.021 115.725C549.619 115.482 550.309 115.36 551.091 115.36C551.882 115.36 552.577 115.482 553.176 115.725C553.774 115.969 554.241 116.314 554.576 116.76C554.91 117.206 555.078 117.729 555.078 118.328C555.078 118.825 554.961 119.261 554.728 119.636C554.494 120.012 554.16 120.321 553.723 120.565ZM551.091 116.912C550.472 116.912 549.98 117.044 549.614 117.308C549.259 117.572 549.082 117.942 549.082 118.419C549.082 118.875 549.259 119.241 549.614 119.515C549.98 119.778 550.472 119.91 551.091 119.91C551.72 119.91 552.217 119.778 552.582 119.515C552.947 119.241 553.13 118.875 553.13 118.419C553.13 117.942 552.942 117.572 552.567 117.308C552.202 117.044 551.709 116.912 551.091 116.912ZM551.091 124.765C551.821 124.765 552.399 124.613 552.825 124.308C553.252 124.004 553.465 123.583 553.465 123.045C553.465 122.518 553.252 122.102 552.825 121.797C552.399 121.493 551.821 121.341 551.091 121.341C550.36 121.341 549.787 121.493 549.371 121.797C548.955 122.102 548.747 122.518 548.747 123.045C548.747 123.583 548.955 124.004 549.371 124.308C549.787 124.613 550.36 124.765 551.091 124.765Z" fill="#404040"/>
<path d="M425.298 121.143H429.483V122.726H425.298V121.143ZM434.372 115.512V126.165H432.393V117.171H430.141V115.512H434.372ZM440.168 115.512V126.165H438.189V117.171H435.937V115.512H440.168Z" fill="#404040"/>
<path d="M203.784 121.143H207.969V122.726H203.784V121.143ZM212.858 115.512V126.165H210.88V117.171H208.627V115.512H212.858ZM218.304 119.636C219.806 119.636 220.917 119.931 221.637 120.519C222.357 121.097 222.717 121.889 222.717 122.893C222.717 123.532 222.56 124.111 222.246 124.628C221.931 125.145 221.459 125.556 220.83 125.861C220.201 126.165 219.425 126.317 218.502 126.317C217.741 126.317 217.005 126.211 216.295 125.998C215.585 125.774 214.986 125.47 214.499 125.085L215.336 123.547C215.732 123.872 216.204 124.131 216.752 124.324C217.31 124.506 217.883 124.598 218.471 124.598C219.172 124.598 219.719 124.456 220.115 124.171C220.521 123.877 220.724 123.476 220.724 122.969C220.724 122.421 220.506 122.01 220.069 121.736C219.643 121.452 218.908 121.31 217.863 121.31H215.291L215.839 115.512H222.093V117.171H217.513L217.284 119.636H218.304Z" fill="#404040"/>
<path d="M498.148 182.475C499.132 182.596 499.883 182.931 500.4 183.479C500.918 184.027 501.177 184.712 501.177 185.534C501.177 186.153 501.019 186.716 500.705 187.223C500.39 187.73 499.913 188.136 499.274 188.44C498.645 188.735 497.874 188.882 496.961 188.882C496.2 188.882 495.465 188.775 494.754 188.562C494.054 188.339 493.456 188.035 492.959 187.649L493.811 186.112C494.196 186.437 494.663 186.695 495.211 186.888C495.769 187.071 496.342 187.162 496.931 187.162C497.631 187.162 498.178 187.02 498.574 186.736C498.98 186.442 499.183 186.046 499.183 185.549C499.183 185.052 498.99 184.666 498.605 184.392C498.229 184.108 497.651 183.966 496.87 183.966H495.896V182.612L498.315 179.735H493.476V178.077H500.735V179.401L498.148 182.475ZM510.357 178.077V179.401L506.218 188.729H504.103L508.105 179.751H503.92V181.562H502.078V178.077H510.357Z" fill="#404040"/>
<path d="M366.899 187.055V188.729H359.046V187.405L363.277 183.388C363.754 182.931 364.073 182.536 364.236 182.201C364.408 181.856 364.495 181.516 364.495 181.181C364.495 180.684 364.327 180.304 363.992 180.04C363.657 179.776 363.165 179.644 362.516 179.644C361.431 179.644 360.599 180.014 360.02 180.755L358.635 179.69C359.051 179.132 359.609 178.701 360.309 178.396C361.02 178.082 361.811 177.924 362.684 177.924C363.84 177.924 364.763 178.198 365.453 178.746C366.143 179.294 366.488 180.04 366.488 180.983C366.488 181.562 366.366 182.104 366.123 182.612C365.879 183.119 365.413 183.697 364.723 184.347L361.877 187.055H366.899ZM372.836 182.155C373.536 182.155 374.165 182.292 374.723 182.566C375.281 182.83 375.717 183.21 376.032 183.707C376.346 184.205 376.503 184.778 376.503 185.427C376.503 186.117 376.331 186.726 375.986 187.253C375.641 187.771 375.174 188.171 374.586 188.456C373.997 188.74 373.338 188.882 372.607 188.882C371.147 188.882 370.01 188.425 369.199 187.512C368.397 186.599 367.996 185.29 367.996 183.586C367.996 182.388 368.214 181.369 368.651 180.527C369.087 179.675 369.696 179.03 370.477 178.594C371.268 178.148 372.181 177.924 373.216 177.924C373.764 177.924 374.276 177.985 374.753 178.107C375.24 178.219 375.661 178.386 376.016 178.609L375.286 180.101C374.758 179.756 374.084 179.583 373.262 179.583C372.237 179.583 371.436 179.898 370.857 180.527C370.279 181.156 369.99 182.064 369.99 183.251V183.266C370.304 182.901 370.705 182.627 371.192 182.444C371.679 182.252 372.227 182.155 372.836 182.155ZM372.501 187.329C373.12 187.329 373.622 187.167 374.008 186.842C374.393 186.508 374.586 186.066 374.586 185.518C374.586 184.96 374.393 184.519 374.008 184.194C373.622 183.87 373.105 183.707 372.455 183.707C371.816 183.707 371.294 183.88 370.888 184.225C370.492 184.57 370.294 185.006 370.294 185.534C370.294 186.051 370.487 186.482 370.873 186.827C371.268 187.162 371.811 187.329 372.501 187.329Z" fill="#404040"/>
<path d="M59.2144 185.199C59.2144 184.651 59.3362 184.199 59.5797 183.844C59.8333 183.479 60.1986 183.083 60.6754 182.657C61.0406 182.333 61.3095 182.054 61.482 181.82C61.6646 181.577 61.7559 181.303 61.7559 180.999C61.7559 180.572 61.5834 180.227 61.2385 179.964C60.8935 179.7 60.4319 179.568 59.8536 179.568C58.7579 179.568 57.931 179.959 57.373 180.74L55.8968 179.781C56.3331 179.182 56.8962 178.726 57.5861 178.411C58.276 178.087 59.0876 177.924 60.021 177.924C61.1573 177.924 62.0603 178.173 62.7299 178.67C63.4096 179.157 63.7495 179.832 63.7495 180.694C63.7495 181.11 63.6785 181.475 63.5365 181.79C63.4046 182.104 63.2422 182.373 63.0495 182.596C62.8567 182.81 62.6031 183.058 62.2885 183.342C61.903 183.687 61.6139 183.991 61.4211 184.255C61.2385 184.519 61.1472 184.834 61.1472 185.199H59.2144ZM60.1884 188.836C59.8333 188.836 59.5391 188.724 59.3057 188.501C59.0825 188.268 58.9709 187.984 58.9709 187.649C58.9709 187.314 59.0825 187.035 59.3057 186.812C59.5391 186.589 59.8333 186.477 60.1884 186.477C60.5334 186.477 60.8174 186.589 61.0406 186.812C61.274 187.035 61.3907 187.314 61.3907 187.649C61.3907 187.984 61.274 188.268 61.0406 188.501C60.8174 188.724 60.5334 188.836 60.1884 188.836Z" fill="#404040"/>
<path d="M43.3849 163.815C43.0451 164.154 43.0451 164.705 43.3849 165.045L48.9211 170.581C49.2609 170.921 49.8117 170.921 50.1514 170.581C50.4912 170.241 50.4912 169.691 50.1514 169.351L45.2303 164.43L50.1514 159.509C50.4912 159.169 50.4912 158.618 50.1514 158.278C49.8117 157.939 49.2609 157.939 48.9211 158.278L43.3849 163.815ZM613.615 165.045C613.955 164.705 613.955 164.154 613.615 163.815L608.079 158.278C607.739 157.939 607.188 157.939 606.849 158.278C606.509 158.618 606.509 159.169 606.849 159.509L611.77 164.43L606.849 169.351C606.509 169.691 606.509 170.241 606.849 170.581C607.188 170.921 607.739 170.921 608.079 170.581L613.615 165.045ZM44 165.3L613 165.3L613 163.56L44 163.56L44 165.3Z" fill="#888888"/>
<line x1="61.7781" y1="158.536" x2="61.7781" y2="169.478" stroke="#17723B" stroke-width="1.73989" stroke-linecap="round"/>
<line x1="73.3261" y1="158.246" x2="73.3261" y2="169.768" stroke="#888888" stroke-width="1.15993" stroke-linecap="round"/>
<line x1="85.162" y1="158.246" x2="85.162" y2="169.768" stroke="#888888" stroke-width="1.15993" stroke-linecap="round"/>
<line x1="97.8436" y1="158.246" x2="97.8436" y2="169.768" stroke="#888888" stroke-width="1.15993" stroke-linecap="round"/>
<line x1="109.682" y1="158.246" x2="109.682" y2="169.768" stroke="#888888" stroke-width="1.15993" stroke-linecap="round"/>
<line x1="122.363" y1="158.246" x2="122.363" y2="169.768" stroke="#888888" stroke-width="1.15993" stroke-linecap="round"/>
<line x1="134.199" y1="158.246" x2="134.199" y2="169.768" stroke="#888888" stroke-width="1.15993" stroke-linecap="round"/>
<line x1="146.035" y1="158.246" x2="146.035" y2="169.768" stroke="#888888" stroke-width="1.15993" stroke-linecap="round"/>
<line x1="158.719" y1="158.246" x2="158.719" y2="169.768" stroke="#888888" stroke-width="1.15993" stroke-linecap="round"/>
<line x1="170.555" y1="158.246" x2="170.555" y2="169.768" stroke="#888888" stroke-width="1.15993" stroke-linecap="round"/>
<line x1="183.236" y1="158.246" x2="183.236" y2="169.768" stroke="#888888" stroke-width="1.15993" stroke-linecap="round"/>
<line x1="195.072" y1="158.246" x2="195.072" y2="169.768" stroke="#888888" stroke-width="1.15993" stroke-linecap="round"/>
<line x1="206.91" y1="158.246" x2="206.91" y2="169.768" stroke="#888888" stroke-width="1.15993" stroke-linecap="round"/>
<line x1="219.592" y1="158.246" x2="219.592" y2="169.768" stroke="#888888" stroke-width="1.15993" stroke-linecap="round"/>
<line x1="231.428" y1="158.246" x2="231.428" y2="169.768" stroke="#888888" stroke-width="1.15993" stroke-linecap="round"/>
<line x1="244.109" y1="158.246" x2="244.109" y2="169.768" stroke="#888888" stroke-width="1.15993" stroke-linecap="round"/>
<line x1="255.947" y1="158.246" x2="255.947" y2="169.768" stroke="#888888" stroke-width="1.15993" stroke-linecap="round"/>
<line x1="267.783" y1="158.246" x2="267.783" y2="169.768" stroke="#888888" stroke-width="1.15993" stroke-linecap="round"/>
<line x1="280.465" y1="158.246" x2="280.465" y2="169.768" stroke="#888888" stroke-width="1.15993" stroke-linecap="round"/>
<line x1="292.303" y1="158.246" x2="292.303" y2="169.768" stroke="#888888" stroke-width="1.15993" stroke-linecap="round"/>
<line x1="304.984" y1="158.246" x2="304.984" y2="169.768" stroke="#888888" stroke-width="1.15993" stroke-linecap="round"/>
<line x1="316.82" y1="158.246" x2="316.82" y2="169.768" stroke="#888888" stroke-width="1.15993" stroke-linecap="round"/>
<line x1="328.656" y1="158.246" x2="328.656" y2="169.768" stroke="#888888" stroke-width="1.15993" stroke-linecap="round"/>
<line x1="341.34" y1="158.246" x2="341.34" y2="169.768" stroke="#888888" stroke-width="1.15993" stroke-linecap="round"/>
<line x1="353.176" y1="158.246" x2="353.176" y2="169.768" stroke="#888888" stroke-width="1.15993" stroke-linecap="round"/>
<line x1="366.437" y1="158.826" x2="366.437" y2="169.188" stroke="#6361D1" stroke-width="2.31985" stroke-linecap="round"/>
<line x1="377.693" y1="158.246" x2="377.693" y2="169.768" stroke="#888888" stroke-width="1.15993" stroke-linecap="round"/>
<line x1="389.531" y1="158.246" x2="389.531" y2="169.768" stroke="#888888" stroke-width="1.15993" stroke-linecap="round"/>
<line x1="402.213" y1="158.246" x2="402.213" y2="169.768" stroke="#888888" stroke-width="1.15993" stroke-linecap="round"/>
<line x1="414.049" y1="158.246" x2="414.049" y2="169.768" stroke="#888888" stroke-width="1.15993" stroke-linecap="round"/>
<line x1="426.732" y1="158.246" x2="426.732" y2="169.768" stroke="#888888" stroke-width="1.15993" stroke-linecap="round"/>
<line x1="438.568" y1="158.246" x2="438.568" y2="169.768" stroke="#888888" stroke-width="1.15993" stroke-linecap="round"/>
<line x1="451.25" y1="158.246" x2="451.25" y2="169.768" stroke="#888888" stroke-width="1.15993" stroke-linecap="round"/>
<line x1="463.086" y1="158.246" x2="463.086" y2="169.768" stroke="#888888" stroke-width="1.15993" stroke-linecap="round"/>
<line x1="474.924" y1="158.246" x2="474.924" y2="169.768" stroke="#888888" stroke-width="1.15993" stroke-linecap="round"/>
<line x1="487.605" y1="158.246" x2="487.605" y2="169.768" stroke="#888888" stroke-width="1.15993" stroke-linecap="round"/>
<line x1="499.731" y1="158.536" x2="499.731" y2="169.478" stroke="#0E80A4" stroke-width="1.73989" stroke-linecap="round"/>
<line x1="512.123" y1="158.246" x2="512.123" y2="169.768" stroke="#888888" stroke-width="1.15993" stroke-linecap="round"/>
<line x1="523.961" y1="158.246" x2="523.961" y2="169.768" stroke="#888888" stroke-width="1.15993" stroke-linecap="round"/>
<line x1="535.797" y1="158.246" x2="535.797" y2="169.768" stroke="#888888" stroke-width="1.15993" stroke-linecap="round"/>
<line x1="548.478" y1="158.246" x2="548.478" y2="169.768" stroke="#888888" stroke-width="1.15993" stroke-linecap="round"/>
<line x1="560.314" y1="158.246" x2="560.314" y2="169.768" stroke="#888888" stroke-width="1.15993" stroke-linecap="round"/>
<line x1="572.998" y1="158.246" x2="572.998" y2="169.768" stroke="#888888" stroke-width="1.15993" stroke-linecap="round"/>
<line x1="584.834" y1="158.246" x2="584.834" y2="169.768" stroke="#888888" stroke-width="1.15993" stroke-linecap="round"/>
<line x1="597.25" y1="158.826" x2="597.25" y2="169.188" stroke="#A70F6A" stroke-width="2.31985" stroke-linecap="round"/>
<path d="M498.445 158.015C498.405 158.245 498.558 158.465 498.788 158.505L502.535 159.166C502.765 159.207 502.984 159.053 503.025 158.824C503.065 158.594 502.912 158.374 502.682 158.334L499.351 157.746L499.939 154.416C499.98 154.186 499.826 153.966 499.596 153.926C499.366 153.885 499.147 154.039 499.106 154.269L498.445 158.015ZM597.781 158.089C598.06 157.771 598.06 157.771 598.06 157.771C598.06 157.771 598.06 157.771 598.06 157.771C598.06 157.771 598.06 157.771 598.059 157.771C598.059 157.771 598.059 157.77 598.059 157.77C598.059 157.77 598.059 157.77 598.059 157.77C598.058 157.769 598.057 157.769 598.056 157.768C598.054 157.766 598.052 157.764 598.048 157.761C598.041 157.754 598.03 157.745 598.016 157.733C597.988 157.709 597.946 157.674 597.892 157.628C597.782 157.536 597.62 157.401 597.406 157.23L596.877 157.889C597.086 158.057 597.243 158.187 597.348 158.275C597.4 158.319 597.44 158.353 597.466 158.375C597.478 158.386 597.488 158.394 597.494 158.4C597.497 158.402 597.5 158.404 597.501 158.405C597.502 158.406 597.502 158.407 597.503 158.407C597.503 158.407 597.503 158.407 597.503 158.407C597.503 158.407 597.503 158.407 597.503 158.407C597.503 158.407 597.503 158.407 597.503 158.407C597.503 158.407 597.503 158.407 597.503 158.407C597.503 158.407 597.503 158.407 597.781 158.089ZM596.015 156.155C595.611 155.854 595.149 155.518 594.63 155.154L594.144 155.845C594.656 156.205 595.112 156.537 595.51 156.833L596.015 156.155ZM593.205 154.178C592.75 153.875 592.265 153.559 591.751 153.232L591.298 153.946C591.807 154.269 592.286 154.581 592.736 154.881L593.205 154.178ZM590.27 152.316C589.799 152.032 589.308 151.743 588.798 151.449L588.377 152.182C588.881 152.472 589.367 152.759 589.833 153.04L590.27 152.316ZM587.297 150.607C586.801 150.336 586.29 150.062 585.764 149.788L585.373 150.538C585.894 150.81 586.401 151.08 586.891 151.349L587.297 150.607ZM584.228 149.008C583.723 148.759 583.207 148.509 582.678 148.261L582.319 149.026C582.842 149.272 583.353 149.519 583.853 149.766L584.228 149.008ZM581.092 147.536C580.579 147.308 580.056 147.082 579.523 146.858L579.195 147.637C579.723 147.859 580.241 148.083 580.748 148.309L581.092 147.536ZM577.917 146.202C577.391 145.993 576.855 145.787 576.311 145.584L576.015 146.377C576.554 146.577 577.084 146.781 577.606 146.988L577.917 146.202ZM574.685 144.998C574.147 144.81 573.602 144.626 573.048 144.446L572.787 145.25C573.334 145.429 573.874 145.611 574.406 145.796L574.685 144.998ZM571.403 143.93C570.856 143.765 570.303 143.604 569.742 143.448L569.515 144.262C570.07 144.417 570.617 144.576 571.158 144.739L571.403 143.93ZM568.077 143.002C567.523 142.86 566.964 142.724 566.398 142.592L566.206 143.415C566.766 143.546 567.32 143.681 567.867 143.821L568.077 143.002ZM564.713 142.218C564.154 142.101 563.59 141.989 563.02 141.882L562.864 142.713C563.428 142.819 563.986 142.93 564.539 143.046L564.713 142.218ZM561.316 141.583C560.754 141.491 560.186 141.404 559.614 141.323L559.495 142.16C560.062 142.24 560.623 142.326 561.179 142.417L561.316 141.583ZM557.893 141.099C557.328 141.032 556.759 140.971 556.186 140.916L556.105 141.758C556.672 141.812 557.235 141.873 557.793 141.939L557.893 141.099ZM554.451 140.77C553.885 140.729 553.315 140.694 552.741 140.665L552.699 141.509C553.266 141.538 553.83 141.572 554.39 141.613L554.451 140.77ZM551.009 140.597C550.439 140.582 549.864 140.572 549.286 140.57L549.282 141.415C549.854 141.418 550.422 141.427 550.986 141.443L551.009 140.597ZM547.561 140.581C546.986 140.592 546.407 140.609 545.825 140.633L545.86 141.477C546.436 141.454 547.008 141.437 547.577 141.427L547.561 140.581ZM544.113 140.722C543.539 140.759 542.962 140.802 542.381 140.852L542.454 141.694C543.028 141.645 543.599 141.602 544.167 141.566L544.113 140.722ZM540.669 141.02C540.102 141.082 539.531 141.15 538.957 141.226L539.068 142.064C539.635 141.989 540.2 141.921 540.761 141.86L540.669 141.02ZM537.235 141.473C536.675 141.56 536.112 141.653 535.547 141.754L535.695 142.586C536.254 142.487 536.81 142.394 537.364 142.309L537.235 141.473ZM533.844 142.075C533.283 142.187 532.72 142.307 532.154 142.433L532.338 143.258C532.898 143.133 533.455 143.015 534.01 142.904L533.844 142.075ZM530.483 142.824C529.923 142.962 529.361 143.106 528.798 143.257L529.017 144.074C529.575 143.924 530.131 143.781 530.684 143.645L530.483 142.824ZM527.144 143.719C526.597 143.879 526.048 144.044 525.497 144.217L525.749 145.024C526.295 144.853 526.838 144.689 527.38 144.531L527.144 143.719ZM523.838 144.756C523.301 144.936 522.763 145.123 522.222 145.317L522.508 146.112C523.043 145.921 523.576 145.736 524.107 145.557L523.838 144.756ZM520.607 145.913C520.067 146.119 519.526 146.331 518.982 146.551L519.299 147.335C519.837 147.118 520.374 146.907 520.908 146.704L520.607 145.913ZM517.405 147.205C516.881 147.428 516.355 147.657 515.828 147.893L516.174 148.665C516.696 148.431 517.217 148.203 517.736 147.983L517.405 147.205ZM514.243 148.621C513.73 148.862 513.216 149.109 512.7 149.363L513.074 150.122C513.585 149.87 514.095 149.625 514.603 149.386L514.243 148.621ZM511.168 150.134C510.656 150.398 510.143 150.667 509.629 150.943L510.029 151.688C510.539 151.414 511.047 151.147 511.555 150.886L511.168 150.134ZM508.116 151.772C507.622 152.047 507.128 152.329 506.632 152.616L507.056 153.348C507.548 153.062 508.038 152.783 508.528 152.51L508.116 151.772ZM505.142 153.497C504.646 153.796 504.15 154.1 503.652 154.411L504.099 155.128C504.593 154.82 505.087 154.517 505.579 154.221L505.142 153.497ZM502.22 155.32C501.742 155.628 501.263 155.943 500.784 156.263L501.253 156.966C501.729 156.648 502.204 156.336 502.679 156.03L502.22 155.32ZM499.342 157.241C499.101 157.406 498.86 157.574 498.619 157.743L499.104 158.435C499.343 158.268 499.583 158.101 499.822 157.937L499.342 157.241Z" fill="#A70F6A"/>
<circle cx="17.5" cy="166.5" r="17" stroke="#369CB7"/>
<path d="M21.72 171.434V173H12.666V171.776L17.796 166.826C18.42 166.226 18.84 165.71 19.056 165.278C19.272 164.834 19.38 164.39 19.38 163.946C19.38 163.286 19.146 162.776 18.678 162.416C18.222 162.044 17.562 161.858 16.698 161.858C15.306 161.858 14.232 162.314 13.476 163.226L12.252 162.164C12.744 161.564 13.386 161.096 14.178 160.76C14.982 160.424 15.876 160.256 16.86 160.256C18.18 160.256 19.23 160.574 20.01 161.21C20.79 161.834 21.18 162.686 21.18 163.766C21.18 164.438 21.036 165.074 20.748 165.674C20.46 166.274 19.914 166.958 19.11 167.726L15.258 171.434H21.72Z" fill="#369CB7"/>
<path d="M60.5516 46.275C60.4268 46.4723 60.4855 46.7334 60.6828 46.8582L63.898 48.8923C64.0953 49.0171 64.3565 48.9584 64.4813 48.7611C64.6061 48.5638 64.5473 48.3027 64.35 48.1778L61.4921 46.3697L63.3002 43.5118C63.425 43.3145 63.3663 43.0534 63.169 42.9285C62.9717 42.8037 62.7105 42.8625 62.5857 43.0598L60.5516 46.275ZM365.277 46.501C365.392 46.094 365.392 46.094 365.392 46.094C365.392 46.094 365.392 46.094 365.392 46.094C365.392 46.094 365.392 46.094 365.392 46.094C365.392 46.094 365.392 46.094 365.392 46.094C365.391 46.0939 365.391 46.0939 365.391 46.0938C365.39 46.0936 365.39 46.0934 365.389 46.0931C365.387 46.0926 365.384 46.0917 365.38 46.0906C365.372 46.0885 365.36 46.0852 365.345 46.0809C365.314 46.0723 365.268 46.0596 365.207 46.0428C365.085 46.0093 364.902 45.9597 364.661 45.8951L364.442 46.7118C364.682 46.7759 364.863 46.8251 364.983 46.8582C365.043 46.8747 365.088 46.8872 365.118 46.8955C365.133 46.8997 365.145 46.9028 365.152 46.9049C365.156 46.9059 365.159 46.9067 365.16 46.9072C365.161 46.9075 365.162 46.9076 365.162 46.9078C365.163 46.9078 365.163 46.9079 365.163 46.9079C365.163 46.9079 365.163 46.9079 365.163 46.9079C365.163 46.9079 365.163 46.9079 365.163 46.9079C365.163 46.9079 365.163 46.9079 365.163 46.9079C365.163 46.9079 365.163 46.9079 365.277 46.501ZM363.029 45.4685C362.545 45.3446 361.989 45.204 361.361 45.0483L361.158 45.8689C361.783 46.0241 362.338 46.1641 362.819 46.2875L363.029 45.4685ZM359.706 44.6431C359.201 44.5213 358.665 44.3931 358.096 44.259L357.902 45.0819C358.469 45.2157 359.004 45.3435 359.507 45.465L359.706 44.6431ZM356.416 43.8674C355.896 43.7477 355.355 43.6242 354.792 43.4973L354.606 44.322C355.168 44.4487 355.708 44.5719 356.226 44.6913L356.416 43.8674ZM353.151 43.1306C352.601 43.0091 352.034 42.8849 351.449 42.7583L351.27 43.5846C351.854 43.711 352.42 43.8349 352.968 43.9561L353.151 43.1306ZM349.857 42.4167C349.313 42.3009 348.755 42.1834 348.184 42.0643L348.012 42.892C348.582 43.0109 349.138 43.1281 349.682 43.2436L349.857 42.4167ZM346.501 41.7164C345.976 41.6089 345.44 41.5003 344.895 41.3907L344.728 42.2195C345.273 42.329 345.807 42.4374 346.331 42.5447L346.501 41.7164ZM343.229 41.0586C342.666 40.9474 342.093 40.8353 341.51 40.7223L341.349 41.5523C341.931 41.6651 342.503 41.777 343.065 41.888L343.229 41.0586ZM339.912 40.4153C339.372 40.3123 338.823 40.2087 338.267 40.1046L338.111 40.9356C338.667 41.0396 339.214 41.143 339.754 41.2458L339.912 40.4153ZM336.574 39.7906C336.022 39.6891 335.463 39.5872 334.896 39.4849L334.746 40.3169C335.312 40.419 335.87 40.5208 336.421 40.6221L336.574 39.7906ZM333.277 39.1949C332.731 39.098 332.178 39.0008 331.62 38.9033L331.474 39.7362C332.032 39.8335 332.584 39.9306 333.129 40.0274L333.277 39.1949ZM329.924 38.6103C329.369 38.5153 328.808 38.4201 328.242 38.3247L328.102 39.1585C328.667 39.2537 329.227 39.3487 329.781 39.4436L329.924 38.6103ZM326.618 38.0539C326.071 37.9636 325.519 37.8731 324.962 37.7827L324.827 38.6172C325.383 38.7076 325.934 38.7978 326.48 38.8881L326.618 38.0539ZM323.276 37.5113C322.709 37.4209 322.136 37.3305 321.559 37.2401L321.428 38.0754C322.005 38.1657 322.576 38.256 323.143 38.3463L323.276 37.5113ZM319.935 36.9884C319.391 36.9047 318.842 36.8211 318.29 36.7377L318.163 37.5737C318.716 37.657 319.263 37.7405 319.807 37.824L319.935 36.9884ZM316.618 36.4877C316.056 36.4045 315.49 36.3214 314.92 36.2386L314.798 37.0753C315.368 37.158 315.933 37.2409 316.494 37.324L316.618 36.4877ZM313.224 35.9946C312.684 35.9175 312.14 35.8406 311.592 35.764L311.475 36.6013C312.022 36.6779 312.565 36.7546 313.105 36.8316L313.224 35.9946ZM309.937 35.5347C309.381 35.4585 308.823 35.3826 308.26 35.3069L308.147 36.1448C308.709 36.2204 309.267 36.2962 309.822 36.3723L309.937 35.5347ZM306.561 35.0807C305.998 35.0064 305.431 34.9324 304.86 34.8587L304.752 35.6972C305.322 35.7708 305.888 35.8447 306.451 35.9189L306.561 35.0807ZM303.223 34.6494C302.674 34.5799 302.122 34.5107 301.567 34.4419L301.463 35.2809C302.017 35.3497 302.568 35.4187 303.117 35.4881L303.223 34.6494ZM299.892 34.2364C299.33 34.1682 298.766 34.1004 298.198 34.033L298.098 34.8725C298.665 34.9399 299.229 35.0076 299.79 35.0757L299.892 34.2364ZM296.486 33.8318C295.937 33.7681 295.386 33.7047 294.831 33.6417L294.736 34.4817C295.289 34.5447 295.84 34.608 296.388 34.6716L296.486 33.8318ZM293.179 33.4559C292.625 33.3944 292.069 33.3332 291.51 33.2725L291.418 34.113C291.977 34.1737 292.532 34.2347 293.085 34.2962L293.179 33.4559ZM289.825 33.0916C289.26 33.0317 288.693 32.9722 288.123 32.9132L288.036 33.7542C288.605 33.8131 289.172 33.8725 289.735 33.9323L289.825 33.0916ZM286.416 32.7385C285.869 32.6833 285.321 32.6285 284.769 32.5742L284.687 33.4156C285.237 33.4699 285.785 33.5246 286.331 33.5797L286.416 32.7385ZM283.109 32.4125C282.553 32.3591 281.995 32.3061 281.434 32.2536L281.355 33.0953C281.915 33.1478 282.473 33.2007 283.028 33.2541L283.109 32.4125ZM279.745 32.0974C279.18 32.0459 278.612 31.9948 278.042 31.9442L277.968 32.7864C278.537 32.8369 279.104 32.8879 279.668 32.9394L279.745 32.0974ZM276.336 31.7949C275.787 31.7476 275.237 31.7008 274.685 31.6545L274.614 32.497C275.166 32.5433 275.715 32.59 276.263 32.6373L276.336 31.7949ZM273.021 31.517C272.464 31.4717 271.906 31.4269 271.345 31.3826L271.279 32.2254C271.839 32.2697 272.397 32.3144 272.952 32.3597L273.021 31.517ZM269.657 31.2512C269.092 31.2079 268.525 31.1652 267.956 31.123L267.894 31.9661C268.462 32.0083 269.028 32.051 269.592 32.0942L269.657 31.2512ZM266.244 30.9981C265.691 30.9585 265.137 30.9194 264.581 30.8808L264.522 31.7242C265.078 31.7628 265.631 31.8018 266.183 31.8414L266.244 30.9981ZM262.918 30.7675C262.362 30.7302 261.804 30.6935 261.244 30.6573L261.189 31.5011C261.748 31.5372 262.306 31.5738 262.861 31.611L262.918 30.7675ZM259.559 30.5505C258.995 30.5155 258.43 30.481 257.863 30.4471L257.813 31.291C258.379 31.3249 258.944 31.3594 259.506 31.3944L259.559 30.5505ZM256.156 30.3471C255.592 30.3147 255.027 30.2829 254.459 30.2517L254.413 31.0959C254.98 31.1271 255.545 31.1588 256.108 31.1912L256.156 30.3471ZM252.799 30.1623C252.244 30.1331 251.687 30.1045 251.129 30.0764L251.087 30.9208C251.644 30.9488 252.2 30.9775 252.755 31.0066L252.799 30.1623ZM249.45 29.9938C248.888 29.9669 248.325 29.9406 247.76 29.9148L247.722 30.7594C248.286 30.7851 248.848 30.8114 249.409 30.8383L249.45 29.9938ZM246.061 29.8394C245.493 29.8149 244.924 29.7909 244.353 29.7676L244.318 30.6124C244.889 30.6357 245.458 30.6596 246.025 30.6841L246.061 29.8394ZM242.665 29.7007C242.111 29.6794 241.557 29.6587 241 29.6386L240.97 30.4836C241.525 30.5036 242.08 30.5243 242.632 30.5456L242.665 29.7007ZM239.327 29.5801C238.768 29.5612 238.207 29.5429 237.645 29.5252L237.619 30.3703C238.18 30.388 238.74 30.4062 239.299 30.4251L239.327 29.5801ZM235.955 29.474C235.39 29.4576 234.824 29.4418 234.256 29.4266L234.233 30.2718C234.8 30.2869 235.366 30.3027 235.93 30.3192L235.955 29.474ZM232.548 29.383C231.986 29.3692 231.421 29.3562 230.856 29.3437L230.837 30.189C231.402 30.2014 231.966 30.2145 232.528 30.2282L232.548 29.383ZM229.19 29.3089C228.633 29.298 228.075 29.2876 227.516 29.2779L227.502 30.1232C228.06 30.133 228.617 30.1433 229.173 30.1542L229.19 29.3089ZM225.835 29.2506C225.273 29.2422 224.71 29.2344 224.146 29.2272L224.135 30.0726C224.699 30.0797 225.261 30.0876 225.822 30.096L225.835 29.2506ZM222.449 29.2076C221.882 29.2017 221.314 29.1965 220.744 29.192L220.738 30.0374C221.306 30.042 221.874 30.0472 222.44 30.053L222.449 29.2076ZM219.037 29.1803C218.483 29.1772 217.928 29.1747 217.372 29.1729L217.369 30.0183C217.924 30.0202 218.479 30.0227 219.032 30.0258L219.037 29.1803ZM215.699 29.1692C215.141 29.1687 214.581 29.1688 214.02 29.1695L214.021 30.015C214.582 30.0142 215.141 30.0142 215.699 30.0147L215.699 29.1692ZM212.334 29.1737C211.771 29.1758 211.207 29.1785 210.641 29.1819L210.646 30.0273C211.211 30.0239 211.775 30.0212 212.337 30.0192L212.334 29.1737ZM208.941 29.1941C208.374 29.1988 207.805 29.2042 207.235 29.2103L207.244 30.0558C207.813 30.0497 208.381 30.0442 208.948 30.0395L208.941 29.1941ZM205.548 29.2304C204.993 29.2377 204.436 29.2456 203.879 29.2541L203.892 30.0995C204.449 30.0909 205.004 30.083 205.559 30.0758L205.548 29.2304ZM202.203 29.2818C201.644 29.2917 201.083 29.3023 200.522 29.3136L200.539 30.1589C201.1 30.1476 201.659 30.1371 202.218 30.1272L202.203 29.2818ZM198.834 29.3493C198.27 29.3619 197.705 29.3752 197.14 29.3892L197.161 30.2344C197.726 30.2205 198.29 30.2072 198.853 30.1946L198.834 29.3493ZM195.439 29.4333C194.872 29.4487 194.303 29.4647 193.733 29.4815L193.758 30.3266C194.327 30.3099 194.895 30.2938 195.462 30.2784L195.439 29.4333ZM192.056 29.5329C191.5 29.5506 190.943 29.5689 190.385 29.5879L190.414 30.4329C190.971 30.4139 191.527 30.3956 192.083 30.3779L192.056 29.5329ZM188.709 29.6471C188.149 29.6675 187.589 29.6886 187.027 29.7104L187.06 30.5552C187.621 30.5334 188.181 30.5124 188.74 30.492L188.709 29.6471ZM185.34 29.7778C184.776 29.801 184.212 29.8249 183.647 29.8495L183.683 30.6941C184.248 30.6696 184.812 30.6457 185.374 30.6226L185.34 29.7778ZM181.948 29.9254C181.381 29.9514 180.813 29.9781 180.244 30.0056L180.285 30.8501C180.853 30.8227 181.421 30.796 181.987 30.77L181.948 29.9254ZM178.567 30.0885C178.012 30.1166 177.455 30.1455 176.897 30.175L176.942 31.0193C177.499 30.9898 178.055 30.961 178.61 30.9329L178.567 30.0885ZM175.222 30.2657C174.663 30.2966 174.103 30.3282 173.542 30.3606L173.591 31.2046C174.151 31.1723 174.71 31.1407 175.269 31.1098L175.222 30.2657ZM171.857 30.4597C171.294 30.4935 170.731 30.528 170.167 30.5632L170.219 31.407C170.783 31.3718 171.346 31.3374 171.908 31.3037L171.857 30.4597ZM168.472 30.671C167.906 30.7076 167.339 30.745 166.772 30.7831L166.828 31.6267C167.395 31.5886 167.961 31.5513 168.526 31.5147L168.472 30.671ZM165.088 30.8983C164.533 30.9369 163.977 30.9762 163.42 31.0162L163.481 31.8595C164.037 31.8195 164.592 31.7803 165.147 31.7417L165.088 30.8983ZM161.748 31.1385C161.19 31.1799 160.631 31.2221 160.071 31.265L160.136 32.108C160.695 32.0652 161.253 32.023 161.811 31.9816L161.748 31.1385ZM158.39 31.3959C157.829 31.4403 157.267 31.4854 156.704 31.5312L156.773 32.3739C157.335 32.3281 157.896 32.2831 158.456 32.2387L158.39 31.3959ZM155.014 31.6708C154.449 31.7181 153.885 31.7662 153.319 31.815L153.392 32.6573C153.957 32.6086 154.521 32.5606 155.084 32.5134L155.014 31.6708ZM151.623 31.9633C151.069 32.0124 150.514 32.0623 149.959 32.1128L150.036 32.9548C150.59 32.9043 151.144 32.8545 151.698 32.8055L151.623 31.9633ZM148.291 32.2667C147.734 32.3187 147.177 32.3714 146.619 32.4249L146.699 33.2665C147.257 33.2131 147.813 33.1604 148.369 33.1085L148.291 32.2667ZM144.942 32.5875C144.383 32.6425 143.823 32.6982 143.262 32.7546L143.347 33.5958C143.907 33.5395 144.466 33.4839 145.025 33.429L144.942 32.5875ZM141.578 32.9262C141.015 32.9841 140.453 33.0428 139.889 33.1022L139.978 33.943C140.541 33.8837 141.103 33.8251 141.664 33.7672L141.578 32.9262ZM138.197 33.2828C137.638 33.3432 137.078 33.4043 136.517 33.4661L136.61 34.3065C137.17 34.2447 137.729 34.1837 138.288 34.1234L138.197 33.2828ZM134.855 33.6516C134.3 33.7142 133.744 33.7775 133.188 33.8416L133.285 34.6815C133.84 34.6175 134.395 34.5543 134.949 34.4918L134.855 33.6516ZM131.518 34.036C130.961 34.1015 130.403 34.1678 129.844 34.2349L129.945 35.0743C130.503 35.0073 131.06 34.9411 131.617 34.8757L131.518 34.036ZM128.167 34.4383C127.607 34.5068 127.047 34.5762 126.486 34.6463L126.591 35.4852C127.151 35.4152 127.711 35.346 128.27 35.2775L128.167 34.4383ZM124.801 34.8588C124.239 34.9304 123.677 35.0028 123.113 35.076L123.222 35.9144C123.785 35.8413 124.347 35.769 124.908 35.6975L124.801 34.8588ZM121.444 35.2949C120.891 35.368 120.338 35.4419 119.784 35.5165L119.897 36.3544C120.45 36.2799 121.003 36.2061 121.555 36.133L121.444 35.2949ZM118.121 35.7427C117.566 35.8188 117.011 35.8957 116.455 35.9734L116.572 36.8107C117.127 36.7332 117.682 36.6564 118.236 36.5803L118.121 35.7427ZM114.785 36.2087C114.228 36.2879 113.671 36.3678 113.113 36.4485L113.234 37.2853C113.791 37.2047 114.348 37.1248 114.904 37.0457L114.785 36.2087ZM111.437 36.693C110.878 36.7753 110.318 36.8584 109.758 36.9422L109.883 37.7784C110.442 37.6946 111.001 37.6117 111.56 37.5295L111.437 36.693ZM108.075 37.196C107.521 37.2804 106.966 37.3655 106.41 37.4514L106.54 38.2869C107.094 38.2011 107.649 38.1161 108.202 38.0319L108.075 37.196ZM104.756 37.7093C104.204 37.796 103.651 37.8835 103.098 37.9718L103.231 38.8067C103.783 38.7186 104.335 38.6312 104.887 38.5445L104.756 37.7093ZM101.437 38.2389C100.883 38.3287 100.328 38.4193 99.7734 38.5107L99.9107 39.3449C100.465 39.2537 101.019 39.1632 101.572 39.0735L101.437 38.2389ZM98.1068 38.7871C97.5508 38.88 96.9943 38.9737 96.4373 39.0682L96.5787 39.9018C97.135 39.8074 97.6908 39.7138 98.2462 39.621L98.1068 38.7871ZM94.765 39.354C94.2071 39.4501 93.6488 39.5469 93.0899 39.6446L93.2354 40.4774C93.7936 40.3799 94.3513 40.2832 94.9085 40.1872L94.765 39.354ZM91.4255 39.9375C90.8765 40.0348 90.3269 40.1329 89.777 40.2318L89.9266 41.0639C90.4759 40.9652 91.0247 40.8672 91.5731 40.77L91.4255 39.9375ZM88.1258 40.5307C87.575 40.6312 87.0237 40.7324 86.472 40.8343L86.6256 41.6657C87.1767 41.5639 87.7273 41.4628 88.2774 41.3625L88.1258 40.5307ZM84.8155 41.1426C84.263 41.2462 83.7099 41.3505 83.1565 41.4556L83.3143 42.2863C83.867 42.1813 84.4194 42.0771 84.9713 41.9736L84.8155 41.1426ZM81.4949 41.7734C80.9407 41.8801 80.386 41.9876 79.8309 42.0959L79.9928 42.9257C80.5472 42.8176 81.1012 42.7102 81.6548 42.6036L81.4949 41.7734ZM78.1642 42.4232C77.6088 42.533 77.0529 42.6436 76.4966 42.755L76.6627 43.584C77.2182 43.4728 77.7734 43.3623 78.3282 43.2526L78.1642 42.4232ZM74.8558 43.0857C74.3085 43.1968 73.7607 43.3086 73.2126 43.4212L73.3827 44.2493C73.9302 44.1369 74.4772 44.0252 75.0239 43.9143L74.8558 43.0857ZM71.5671 43.7613C71.0182 43.8754 70.4689 43.9904 69.9193 44.1061L70.0935 44.9335C70.6425 44.8179 71.1911 44.703 71.7393 44.589L71.5671 43.7613ZM68.2692 44.4558C67.7187 44.5731 67.1679 44.6912 66.6167 44.8102L66.7951 45.6366C67.3456 45.5178 67.8957 45.3998 68.4454 45.2826L68.2692 44.4558ZM64.9621 45.1694C64.4102 45.2899 63.8579 45.4113 63.3052 45.5334L63.4877 46.359C64.0397 46.237 64.5913 46.1158 65.1425 45.9954L64.9621 45.1694ZM61.6462 45.9023C61.3695 45.9642 61.0928 46.0263 60.816 46.0886L61.0016 46.9134C61.2781 46.8512 61.5544 46.7892 61.8307 46.7274L61.6462 45.9023Z" fill="#17723B"/>
<path d="M366.565 46.3734C366.495 46.596 366.618 46.8336 366.841 46.904L370.468 48.0519C370.691 48.1223 370.928 47.999 370.999 47.7764C371.069 47.5538 370.946 47.3163 370.723 47.2458L367.499 46.2255L368.519 43.0012C368.59 42.7786 368.466 42.5411 368.244 42.4706C368.021 42.4002 367.784 42.5235 367.713 42.7461L366.565 46.3734ZM498.861 46.501C499.091 46.1464 499.091 46.1464 499.091 46.1464C499.091 46.1464 499.091 46.1464 499.091 46.1463C499.091 46.1463 499.091 46.1463 499.091 46.1463C499.091 46.1463 499.091 46.1462 499.091 46.1462C499.091 46.146 499.091 46.1459 499.09 46.1457C499.09 46.1453 499.089 46.1448 499.088 46.1441C499.086 46.1427 499.083 46.1408 499.079 46.1382C499.071 46.1331 499.059 46.1256 499.044 46.1158C499.013 46.0962 498.967 46.0673 498.907 46.0297C498.787 45.9544 498.608 45.844 498.372 45.7021L497.936 46.4267C498.168 46.566 498.343 46.6738 498.459 46.7465C498.517 46.7829 498.561 46.8105 498.589 46.8288C498.604 46.838 498.614 46.8448 498.621 46.8493C498.625 46.8515 498.627 46.8532 498.629 46.8542C498.63 46.8548 498.631 46.8551 498.631 46.8554C498.631 46.8555 498.631 46.8555 498.631 46.8556C498.631 46.8556 498.631 46.8556 498.631 46.8556C498.631 46.8556 498.631 46.8556 498.631 46.8556C498.631 46.8556 498.631 46.8556 498.631 46.8556C498.631 46.8556 498.631 46.8556 498.861 46.501ZM496.941 44.8706C496.509 44.627 496.014 44.3536 495.458 44.0551L495.058 44.8002C495.609 45.0958 496.099 45.3662 496.526 45.607L496.941 44.8706ZM493.967 43.2731C493.494 43.0307 492.991 42.7773 492.457 42.5144L492.084 43.273C492.613 43.5337 493.112 43.785 493.581 44.0253L493.967 43.2731ZM490.918 41.7718C490.434 41.543 489.931 41.3089 489.407 41.0706L489.057 41.84C489.577 42.0767 490.077 42.309 490.557 42.5361L490.918 41.7718ZM487.871 40.3846C487.365 40.1628 486.843 39.9381 486.305 39.7114L485.977 40.4905C486.511 40.7156 487.029 40.9387 487.532 41.159L487.871 40.3846ZM484.77 39.0762C484.252 38.8657 483.721 38.6539 483.177 38.4415L482.869 39.2291C483.409 39.4401 483.937 39.6504 484.452 39.8596L484.77 39.0762ZM481.633 37.85C481.108 37.6526 480.572 37.455 480.025 37.2577L479.738 38.0529C480.281 38.249 480.813 38.4453 481.335 38.6415L481.633 37.85ZM478.465 36.7054C477.936 36.5219 477.398 36.3391 476.851 36.1571L476.585 36.9593C477.128 37.1401 477.662 37.3219 478.188 37.5042L478.465 36.7054ZM475.268 35.641C474.737 35.4717 474.199 35.3036 473.653 35.1369L473.406 35.9455C473.949 36.1112 474.484 36.2782 475.011 36.4464L475.268 35.641ZM472.041 34.6556C471.51 34.5006 470.973 34.3471 470.428 34.1955L470.201 35.0099C470.742 35.1607 471.277 35.3132 471.804 35.4672L472.041 34.6556ZM468.785 33.7488C468.254 33.608 467.718 33.4691 467.175 33.3322L466.968 34.152C467.508 34.288 468.041 34.4261 468.568 34.566L468.785 33.7488ZM465.529 32.9278C464.99 32.7987 464.444 32.6717 463.893 32.547L463.707 33.3716C464.254 33.4955 464.796 33.6218 465.333 33.7501L465.529 32.9278ZM462.256 32.1869C461.704 32.0693 461.148 31.9541 460.587 31.8415L460.421 32.6704C460.978 32.7823 461.531 32.8968 462.079 33.0138L462.256 32.1869ZM458.953 31.524C458.405 31.421 457.852 31.3206 457.295 31.223L457.149 32.0557C457.703 32.1528 458.252 32.2526 458.797 32.3549L458.953 31.524ZM455.621 30.9401C455.077 30.8515 454.528 30.7657 453.975 30.6827L453.849 31.5188C454.399 31.6013 454.944 31.6866 455.486 31.7746L455.621 30.9401ZM452.304 30.4423C451.749 30.3659 451.189 30.2924 450.626 30.222L450.521 31.061C451.081 31.1309 451.637 31.2039 452.189 31.2799L452.304 30.4423ZM448.968 30.0251C448.412 29.9625 447.852 29.9029 447.289 29.8465L447.204 30.6877C447.764 30.7438 448.321 30.803 448.874 30.8653L448.968 30.0251ZM445.605 29.6884C445.053 29.6401 444.499 29.5949 443.94 29.5529L443.877 30.396C444.432 30.4377 444.983 30.4826 445.531 30.5307L445.605 29.6884ZM442.256 29.4366C441.696 29.4014 441.132 29.3694 440.565 29.3409L440.522 30.1853C441.086 30.2136 441.646 30.2454 442.203 30.2804L442.256 29.4366ZM438.898 29.2672C438.34 29.246 437.778 29.228 437.214 29.2136L437.192 30.0588C437.753 30.0731 438.311 30.0909 438.866 30.1121L438.898 29.2672ZM435.513 29.1806C434.961 29.1733 434.406 29.1694 433.848 29.1689L433.847 30.0144C434.401 30.0149 434.953 30.0188 435.502 30.026L435.513 29.1806ZM432.166 29.1779C431.603 29.1843 431.038 29.1943 430.469 29.208L430.49 30.0532C431.054 30.0397 431.617 30.0297 432.176 30.0233L432.166 29.1779ZM428.795 29.2585C428.239 29.2786 427.681 29.3023 427.12 29.3296L427.162 30.1741C427.719 30.147 428.273 30.1234 428.826 30.1034L428.795 29.2585ZM425.432 29.4223C424.872 29.4565 424.31 29.4943 423.746 29.5358L423.808 30.379C424.369 30.3378 424.927 30.3002 425.483 30.2662L425.432 29.4223ZM422.081 29.6685C421.524 29.7164 420.965 29.7678 420.404 29.823L420.487 30.6644C421.045 30.6096 421.6 30.5584 422.154 30.5109L422.081 29.6685ZM418.714 29.9997C418.163 30.0608 417.61 30.1256 417.055 30.1939L417.158 31.0331C417.71 30.9651 418.259 30.9008 418.807 30.8401L418.714 29.9997ZM415.392 30.4091C414.836 30.4845 414.278 30.5636 413.718 30.6465L413.842 31.4829C414.398 31.4005 414.953 31.3218 415.505 31.2469L415.392 30.4091ZM412.045 30.9048C411.498 30.9926 410.95 31.084 410.4 31.1792L410.544 32.0123C411.09 31.9177 411.635 31.8268 412.179 31.7396L412.045 30.9048ZM408.745 31.4757C408.191 31.5784 407.636 31.6847 407.08 31.795L407.244 32.6243C407.797 32.5148 408.349 32.409 408.899 32.307L408.745 31.4757ZM405.431 32.1317C404.889 32.246 404.344 32.3639 403.798 32.4856L403.982 33.3108C404.525 33.1898 405.066 33.0726 405.605 32.959L405.431 32.1317ZM402.157 32.8618C401.608 32.991 401.058 33.124 400.506 33.2609L400.71 34.0815C401.258 33.9454 401.805 33.8132 402.35 33.6848L402.157 32.8618ZM398.882 33.6739C398.345 33.8139 397.806 33.9576 397.266 34.105L397.489 34.9206C398.026 34.7741 398.561 34.6312 399.095 34.4921L398.882 33.6739ZM395.643 34.5584C395.101 34.7134 394.557 34.8721 394.012 35.0346L394.254 35.8448C394.795 35.6832 395.336 35.5254 395.875 35.3714L395.643 34.5584ZM392.411 35.5223C391.881 35.687 391.349 35.8554 390.817 36.0275L391.077 36.8319C391.606 36.6608 392.135 36.4934 392.662 36.3296L392.411 35.5223ZM389.217 36.5549C388.682 36.7345 388.146 36.9178 387.609 37.1049L387.888 37.9033C388.422 37.7172 388.954 37.5349 389.486 37.3564L389.217 36.5549ZM386.029 37.6658C385.508 37.8541 384.985 38.046 384.462 38.2416L384.758 39.0336C385.278 38.8391 385.798 38.6483 386.316 38.461L386.029 37.6658ZM382.889 38.8393C382.363 39.0422 381.837 39.2488 381.31 39.4592L381.623 40.2445C382.147 40.0353 382.671 39.8298 383.193 39.628L382.889 38.8393ZM379.747 40.0928C379.235 40.3033 378.723 40.5173 378.21 40.735L378.54 41.5133C379.05 41.2969 379.56 41.084 380.068 40.8746L379.747 40.0928ZM376.668 41.3987C376.153 41.6235 375.637 41.852 375.121 42.0842L375.468 42.8553C375.981 42.6244 376.494 42.3971 377.006 42.1735L376.668 41.3987ZM373.571 42.7909C373.07 43.0221 372.57 43.2568 372.068 43.4949L372.43 44.2587C372.93 44.0218 373.428 43.7883 373.925 43.5583L373.571 42.7909ZM370.561 44.22C370.057 44.4652 369.554 44.7139 369.049 44.9662L369.427 45.7224C369.929 45.4714 370.43 45.2239 370.931 44.98L370.561 44.22ZM367.533 45.7338C367.28 45.8636 367.027 45.9942 366.774 46.1258L367.163 46.8762C367.415 46.7453 367.667 46.6153 367.919 46.4862L367.533 45.7338Z" fill="#6361D1"/>
<path d="M591.639 71.0357C593.141 71.0357 594.252 71.33 594.972 71.9184C595.692 72.4967 596.053 73.2881 596.053 74.2925C596.053 74.9317 595.895 75.51 595.581 76.0274C595.266 76.5448 594.794 76.9557 594.165 77.2601C593.536 77.5645 592.76 77.7166 591.837 77.7166C591.076 77.7166 590.341 77.6101 589.63 77.3971C588.92 77.1738 588.322 76.8695 587.835 76.4839L588.672 74.9469C589.067 75.2715 589.539 75.5303 590.087 75.723C590.645 75.9056 591.218 75.997 591.807 75.997C592.507 75.997 593.054 75.8549 593.45 75.5708C593.856 75.2766 594.059 74.8759 594.059 74.3686C594.059 73.8207 593.841 73.4098 593.405 73.1359C592.978 72.8518 592.243 72.7098 591.198 72.7098H588.626L589.174 66.9116H595.429V68.5704H590.848L590.62 71.0357H591.639ZM602.033 70.9901C602.733 70.9901 603.362 71.1271 603.92 71.401C604.478 71.6648 604.914 72.0452 605.229 72.5424C605.543 73.0395 605.701 73.6127 605.701 74.2621C605.701 74.952 605.528 75.5607 605.183 76.0883C604.838 76.6057 604.372 77.0064 603.783 77.2905C603.195 77.5746 602.535 77.7166 601.805 77.7166C600.344 77.7166 599.208 77.2601 598.396 76.347C597.594 75.4339 597.194 74.1251 597.194 72.4206C597.194 71.2234 597.412 70.2038 597.848 69.3617C598.284 68.5095 598.893 67.8652 599.674 67.429C600.466 66.9826 601.379 66.7594 602.414 66.7594C602.961 66.7594 603.474 66.8202 603.951 66.942C604.438 67.0536 604.859 67.221 605.214 67.4442L604.483 68.9356C603.956 68.5907 603.281 68.4182 602.459 68.4182C601.435 68.4182 600.633 68.7327 600.055 69.3617C599.476 69.9907 599.187 70.8988 599.187 72.0858V72.101C599.502 71.7358 599.903 71.4619 600.39 71.2792C600.877 71.0865 601.424 70.9901 602.033 70.9901ZM601.698 76.1644C602.317 76.1644 602.819 76.002 603.205 75.6774C603.59 75.3426 603.783 74.9012 603.783 74.3534C603.783 73.7954 603.59 73.354 603.205 73.0294C602.819 72.7047 602.302 72.5424 601.653 72.5424C601.013 72.5424 600.491 72.7148 600.085 73.0598C599.689 73.4048 599.492 73.841 599.492 74.3686C599.492 74.886 599.684 75.3172 600.07 75.6622C600.466 75.997 601.008 76.1644 601.698 76.1644Z" fill="#404040"/>
<path d="M541.126 9.97792H545.311V11.5606H541.126V9.97792ZM553.723 9.39962C554.281 9.65326 554.707 9.99821 555.002 10.4345C555.306 10.8606 555.458 11.3628 555.458 11.9411C555.458 12.5904 555.276 13.1586 554.91 13.6456C554.555 14.1325 554.048 14.5079 553.389 14.7717C552.729 15.0254 551.963 15.1522 551.091 15.1522C550.218 15.1522 549.452 15.0254 548.793 14.7717C548.143 14.5079 547.641 14.1325 547.286 13.6456C546.931 13.1586 546.753 12.5904 546.753 11.9411C546.753 11.3628 546.9 10.8606 547.195 10.4345C547.489 9.99821 547.91 9.65326 548.458 9.39962C548.032 9.16627 547.702 8.8619 547.469 8.48651C547.245 8.10098 547.134 7.65965 547.134 7.16251C547.134 6.56392 547.296 6.04142 547.621 5.59501C547.956 5.14861 548.422 4.80365 549.021 4.56016C549.619 4.31667 550.309 4.19492 551.091 4.19492C551.882 4.19492 552.577 4.31667 553.176 4.56016C553.774 4.80365 554.241 5.14861 554.576 5.59501C554.91 6.04142 555.078 6.56392 555.078 7.16251C555.078 7.65965 554.961 8.09591 554.728 8.4713C554.494 8.84668 554.16 9.15612 553.723 9.39962ZM551.091 5.7472C550.472 5.7472 549.98 5.87909 549.614 6.14288C549.259 6.40666 549.082 6.77698 549.082 7.25382C549.082 7.71037 549.259 8.07562 549.614 8.34955C549.98 8.61333 550.472 8.74523 551.091 8.74523C551.72 8.74523 552.217 8.61333 552.582 8.34955C552.947 8.07562 553.13 7.71037 553.13 7.25382C553.13 6.77698 552.942 6.40666 552.567 6.14288C552.202 5.87909 551.709 5.7472 551.091 5.7472ZM551.091 13.5999C551.821 13.5999 552.399 13.4477 552.825 13.1434C553.252 12.839 553.465 12.4179 553.465 11.8802C553.465 11.3527 553.252 10.9367 552.825 10.6323C552.399 10.3279 551.821 10.1758 551.091 10.1758C550.36 10.1758 549.787 10.3279 549.371 10.6323C548.955 10.9367 548.747 11.3527 548.747 11.8802C548.747 12.4179 548.955 12.839 549.371 13.1434C549.787 13.4477 550.36 13.5999 551.091 13.5999Z" fill="#404040"/>
<path d="M425.298 9.97792H429.483V11.5606H425.298V9.97792ZM434.372 4.3471V15H432.393V6.00591H430.141V4.3471H434.372ZM440.168 4.3471V15H438.189V6.00591H435.937V4.3471H440.168Z" fill="#404040"/>
<path d="M203.784 9.97792H207.969V11.5606H203.784V9.97792ZM212.858 4.3471V15H210.88V6.00591H208.627V4.3471H212.858ZM218.304 8.4713C219.806 8.4713 220.917 8.76552 221.637 9.35396C222.357 9.93226 222.717 10.7236 222.717 11.728C222.717 12.3672 222.56 12.9455 222.246 13.4629C221.931 13.9804 221.459 14.3913 220.83 14.6956C220.201 15 219.425 15.1522 218.502 15.1522C217.741 15.1522 217.005 15.0457 216.295 14.8326C215.585 14.6094 214.986 14.305 214.499 13.9195L215.336 12.3824C215.732 12.7071 216.204 12.9658 216.752 13.1586C217.31 13.3412 217.883 13.4325 218.471 13.4325C219.172 13.4325 219.719 13.2905 220.115 13.0064C220.521 12.7122 220.724 12.3114 220.724 11.8041C220.724 11.2563 220.506 10.8454 220.069 10.5714C219.643 10.2874 218.908 10.1453 217.863 10.1453H215.291L215.839 4.3471H222.093V6.00591H217.513L217.284 8.4713H218.304Z" fill="#404040"/>
<path d="M503.109 75.1447H501.222V77.5645H499.305V75.1447H493.461V73.7751L498.711 66.9116H500.827L495.881 73.4707H499.366V71.3249H501.222V73.4707H503.109V75.1447ZM511 71.9641C511.558 72.2177 511.984 72.5627 512.278 72.9989C512.582 73.425 512.735 73.9272 512.735 74.5055C512.735 75.1549 512.552 75.723 512.187 76.21C511.832 76.697 511.324 77.0724 510.665 77.3362C510.005 77.5898 509.239 77.7166 508.367 77.7166C507.494 77.7166 506.728 77.5898 506.069 77.3362C505.42 77.0724 504.917 76.697 504.562 76.21C504.207 75.723 504.03 75.1549 504.03 74.5055C504.03 73.9272 504.177 73.425 504.471 72.9989C504.765 72.5627 505.186 72.2177 505.734 71.9641C505.308 71.7307 504.978 71.4264 504.745 71.051C504.522 70.6654 504.41 70.2241 504.41 69.727C504.41 69.1284 504.572 68.6059 504.897 68.1595C505.232 67.7131 505.699 67.3681 506.297 67.1246C506.896 66.8811 507.586 66.7594 508.367 66.7594C509.158 66.7594 509.853 66.8811 510.452 67.1246C511.05 67.3681 511.517 67.7131 511.852 68.1595C512.187 68.6059 512.354 69.1284 512.354 69.727C512.354 70.2241 512.237 70.6604 512.004 71.0357C511.771 71.4111 511.436 71.7206 511 71.9641ZM508.367 68.3117C507.748 68.3117 507.256 68.4435 506.891 68.7073C506.536 68.9711 506.358 69.3414 506.358 69.8183C506.358 70.2748 506.536 70.6401 506.891 70.914C507.256 71.1778 507.748 71.3097 508.367 71.3097C508.996 71.3097 509.493 71.1778 509.858 70.914C510.224 70.6401 510.406 70.2748 510.406 69.8183C510.406 69.3414 510.218 68.9711 509.843 68.7073C509.478 68.4435 508.986 68.3117 508.367 68.3117ZM508.367 76.1644C509.097 76.1644 509.676 76.0122 510.102 75.7078C510.528 75.4034 510.741 74.9824 510.741 74.4447C510.741 73.9171 510.528 73.5011 510.102 73.1968C509.676 72.8924 509.097 72.7402 508.367 72.7402C507.636 72.7402 507.063 72.8924 506.647 73.1968C506.231 73.5011 506.023 73.9171 506.023 74.4447C506.023 74.9824 506.231 75.4034 506.647 75.7078C507.063 76.0122 507.636 76.1644 508.367 76.1644Z" fill="#404040"/>
<path d="M363.718 71.3097C364.702 71.4314 365.453 71.7662 365.971 72.3141C366.488 72.862 366.747 73.5468 366.747 74.3686C366.747 74.9875 366.59 75.5505 366.275 76.0578C365.961 76.5651 365.484 76.9709 364.845 77.2753C364.216 77.5695 363.444 77.7166 362.531 77.7166C361.77 77.7166 361.035 77.6101 360.325 77.3971C359.625 77.1738 359.026 76.8695 358.529 76.4839L359.381 74.9469C359.767 75.2715 360.233 75.5303 360.781 75.723C361.339 75.9056 361.912 75.997 362.501 75.997C363.201 75.997 363.749 75.8549 364.144 75.5708C364.55 75.2766 364.753 74.8809 364.753 74.3838C364.753 73.8867 364.56 73.5011 364.175 73.2272C363.8 72.9431 363.221 72.8011 362.44 72.8011H361.466V71.4466L363.886 68.5704H359.046V66.9116H366.306V68.2356L363.718 71.3097ZM375.928 66.9116V68.2356L371.788 77.5645H369.673L373.675 68.5856H369.49V70.3966H367.649V66.9116H375.928Z" fill="#404040"/>
<path d="M59.2144 74.0338C59.2144 73.4859 59.3362 73.0344 59.5797 72.6793C59.8333 72.3141 60.1986 71.9184 60.6754 71.4923C61.0406 71.1676 61.3095 70.8886 61.482 70.6553C61.6646 70.4118 61.7559 70.1379 61.7559 69.8335C61.7559 69.4074 61.5834 69.0624 61.2385 68.7986C60.8935 68.5349 60.4319 68.403 59.8536 68.403C58.7579 68.403 57.931 68.7936 57.373 69.5748L55.8968 68.616C56.3331 68.0174 56.8962 67.5609 57.5861 67.2464C58.276 66.9217 59.0876 66.7594 60.021 66.7594C61.1573 66.7594 62.0603 67.0079 62.7299 67.5051C63.4096 67.9921 63.7495 68.6667 63.7495 69.5291C63.7495 69.9451 63.6785 70.3103 63.5365 70.6249C63.4046 70.9394 63.2422 71.2082 63.0495 71.4314C62.8567 71.6445 62.6031 71.8931 62.2885 72.1771C61.903 72.5221 61.6139 72.8264 61.4211 73.0902C61.2385 73.354 61.1472 73.6685 61.1472 74.0338H59.2144ZM60.1884 77.671C59.8333 77.671 59.5391 77.5594 59.3057 77.3362C59.0825 77.1028 58.9709 76.8188 58.9709 76.4839C58.9709 76.1491 59.0825 75.8701 59.3057 75.6469C59.5391 75.4237 59.8333 75.3121 60.1884 75.3121C60.5334 75.3121 60.8174 75.4237 61.0406 75.6469C61.274 75.8701 61.3907 76.1491 61.3907 76.4839C61.3907 76.8188 61.274 77.1028 61.0406 77.3362C60.8174 77.5594 60.5334 77.671 60.1884 77.671Z" fill="#404040"/>
<path d="M43.3849 52.6495C43.0451 52.9892 43.0451 53.5401 43.3849 53.8798L48.9211 59.4161C49.2609 59.7558 49.8117 59.7558 50.1514 59.4161C50.4912 59.0763 50.4912 58.5255 50.1514 58.1858L45.2303 53.2646L50.1514 48.3435C50.4912 48.0038 50.4912 47.453 50.1514 47.1132C49.8117 46.7735 49.2609 46.7735 48.9211 47.1132L43.3849 52.6495ZM613.615 53.8798C613.955 53.5401 613.955 52.9892 613.615 52.6495L608.079 47.1132C607.739 46.7735 607.188 46.7735 606.849 47.1132C606.509 47.453 606.509 48.0038 606.849 48.3435L611.77 53.2646L606.849 58.1858C606.509 58.5255 606.509 59.0763 606.849 59.4161C607.188 59.7558 607.739 59.7558 608.079 59.4161L613.615 53.8798ZM44 54.1346H613V52.3947H44V54.1346Z" fill="#888888"/>
<line x1="61.7781" y1="47.3709" x2="61.7781" y2="58.3131" stroke="#17723B" stroke-width="1.73989" stroke-linecap="round"/>
<line x1="73.3261" y1="47.0809" x2="73.3261" y2="58.603" stroke="#888888" stroke-width="1.15993" stroke-linecap="round"/>
<line x1="85.162" y1="47.0809" x2="85.162" y2="58.603" stroke="#888888" stroke-width="1.15993" stroke-linecap="round"/>
<line x1="97.8436" y1="47.0809" x2="97.8436" y2="58.603" stroke="#888888" stroke-width="1.15993" stroke-linecap="round"/>
<line x1="109.682" y1="47.0809" x2="109.682" y2="58.603" stroke="#888888" stroke-width="1.15993" stroke-linecap="round"/>
<line x1="122.363" y1="47.0809" x2="122.363" y2="58.603" stroke="#888888" stroke-width="1.15993" stroke-linecap="round"/>
<line x1="134.199" y1="47.0809" x2="134.199" y2="58.603" stroke="#888888" stroke-width="1.15993" stroke-linecap="round"/>
<line x1="146.035" y1="47.0809" x2="146.035" y2="58.603" stroke="#888888" stroke-width="1.15993" stroke-linecap="round"/>
<line x1="158.719" y1="47.0809" x2="158.719" y2="58.603" stroke="#888888" stroke-width="1.15993" stroke-linecap="round"/>
<line x1="170.555" y1="47.0809" x2="170.555" y2="58.603" stroke="#888888" stroke-width="1.15993" stroke-linecap="round"/>
<line x1="183.236" y1="47.0809" x2="183.236" y2="58.603" stroke="#888888" stroke-width="1.15993" stroke-linecap="round"/>
<line x1="195.072" y1="47.0809" x2="195.072" y2="58.603" stroke="#888888" stroke-width="1.15993" stroke-linecap="round"/>
<line x1="206.91" y1="47.0809" x2="206.91" y2="58.603" stroke="#888888" stroke-width="1.15993" stroke-linecap="round"/>
<line x1="219.592" y1="47.0809" x2="219.592" y2="58.603" stroke="#888888" stroke-width="1.15993" stroke-linecap="round"/>
<line x1="231.428" y1="47.0809" x2="231.428" y2="58.603" stroke="#888888" stroke-width="1.15993" stroke-linecap="round"/>
<line x1="244.109" y1="47.0809" x2="244.109" y2="58.603" stroke="#888888" stroke-width="1.15993" stroke-linecap="round"/>
<line x1="255.947" y1="47.0809" x2="255.947" y2="58.603" stroke="#888888" stroke-width="1.15993" stroke-linecap="round"/>
<line x1="267.783" y1="47.0809" x2="267.783" y2="58.603" stroke="#888888" stroke-width="1.15993" stroke-linecap="round"/>
<line x1="280.465" y1="47.0809" x2="280.465" y2="58.603" stroke="#888888" stroke-width="1.15993" stroke-linecap="round"/>
<line x1="292.303" y1="47.0809" x2="292.303" y2="58.603" stroke="#888888" stroke-width="1.15993" stroke-linecap="round"/>
<line x1="304.984" y1="47.0809" x2="304.984" y2="58.603" stroke="#888888" stroke-width="1.15993" stroke-linecap="round"/>
<line x1="316.82" y1="47.0809" x2="316.82" y2="58.603" stroke="#888888" stroke-width="1.15993" stroke-linecap="round"/>
<line x1="328.656" y1="47.0809" x2="328.656" y2="58.603" stroke="#888888" stroke-width="1.15993" stroke-linecap="round"/>
<line x1="341.34" y1="47.0809" x2="341.34" y2="58.603" stroke="#888888" stroke-width="1.15993" stroke-linecap="round"/>
<line x1="353.176" y1="47.0809" x2="353.176" y2="58.603" stroke="#888888" stroke-width="1.15993" stroke-linecap="round"/>
<line x1="366.437" y1="47.6609" x2="366.437" y2="58.0231" stroke="#6361D1" stroke-width="2.31985" stroke-linecap="round"/>
<line x1="377.693" y1="47.0809" x2="377.693" y2="58.603" stroke="#888888" stroke-width="1.15993" stroke-linecap="round"/>
<line x1="389.531" y1="47.0809" x2="389.531" y2="58.603" stroke="#888888" stroke-width="1.15993" stroke-linecap="round"/>
<line x1="402.213" y1="47.0809" x2="402.213" y2="58.603" stroke="#888888" stroke-width="1.15993" stroke-linecap="round"/>
<line x1="414.049" y1="47.0809" x2="414.049" y2="58.603" stroke="#888888" stroke-width="1.15993" stroke-linecap="round"/>
<line x1="426.732" y1="47.0809" x2="426.732" y2="58.603" stroke="#888888" stroke-width="1.15993" stroke-linecap="round"/>
<line x1="438.568" y1="47.0809" x2="438.568" y2="58.603" stroke="#888888" stroke-width="1.15993" stroke-linecap="round"/>
<line x1="451.25" y1="47.0809" x2="451.25" y2="58.603" stroke="#888888" stroke-width="1.15993" stroke-linecap="round"/>
<line x1="463.086" y1="47.0809" x2="463.086" y2="58.603" stroke="#888888" stroke-width="1.15993" stroke-linecap="round"/>
<line x1="474.924" y1="47.0809" x2="474.924" y2="58.603" stroke="#888888" stroke-width="1.15993" stroke-linecap="round"/>
<line x1="487.605" y1="47.0809" x2="487.605" y2="58.603" stroke="#888888" stroke-width="1.15993" stroke-linecap="round"/>
<line x1="499.731" y1="47.3709" x2="499.731" y2="58.3131" stroke="#0E80A4" stroke-width="1.73989" stroke-linecap="round"/>
<line x1="512.123" y1="47.0809" x2="512.123" y2="58.603" stroke="#888888" stroke-width="1.15993" stroke-linecap="round"/>
<line x1="523.961" y1="47.0809" x2="523.961" y2="58.603" stroke="#888888" stroke-width="1.15993" stroke-linecap="round"/>
<line x1="535.797" y1="47.0809" x2="535.797" y2="58.603" stroke="#888888" stroke-width="1.15993" stroke-linecap="round"/>
<line x1="548.478" y1="47.0809" x2="548.478" y2="58.603" stroke="#888888" stroke-width="1.15993" stroke-linecap="round"/>
<line x1="560.314" y1="47.0809" x2="560.314" y2="58.603" stroke="#888888" stroke-width="1.15993" stroke-linecap="round"/>
<line x1="572.998" y1="47.0809" x2="572.998" y2="58.603" stroke="#888888" stroke-width="1.15993" stroke-linecap="round"/>
<line x1="584.834" y1="47.0809" x2="584.834" y2="58.603" stroke="#888888" stroke-width="1.15993" stroke-linecap="round"/>
<line x1="597.25" y1="47.6609" x2="597.25" y2="58.0231" stroke="#A70F6A" stroke-width="2.31985" stroke-linecap="round"/>
<path d="M498.445 46.8504C498.405 47.0803 498.558 47.2996 498.788 47.3401L502.535 48.0013C502.765 48.0419 502.984 47.8884 503.025 47.6585C503.065 47.4286 502.912 47.2093 502.682 47.1687L499.351 46.581L499.939 43.2506C499.98 43.0207 499.826 42.8014 499.596 42.7608C499.366 42.7202 499.147 42.8737 499.106 43.1036L498.445 46.8504ZM597.781 46.9238C598.06 46.6057 598.06 46.6057 598.06 46.6057C598.06 46.6057 598.06 46.6056 598.06 46.6056C598.06 46.6056 598.06 46.6056 598.059 46.6056C598.059 46.6055 598.059 46.6055 598.059 46.6054C598.059 46.6052 598.059 46.605 598.059 46.6048C598.058 46.6043 598.057 46.6036 598.056 46.6028C598.054 46.6011 598.052 46.5987 598.048 46.5955C598.041 46.5892 598.03 46.58 598.016 46.5679C597.988 46.5439 597.946 46.5086 597.892 46.4627C597.782 46.3708 597.62 46.2365 597.406 46.0646L596.877 46.7235C597.086 46.8915 597.243 47.022 597.348 47.1101C597.4 47.1541 597.44 47.1875 597.466 47.2097C597.478 47.2208 597.488 47.2291 597.494 47.2345C597.497 47.2372 597.5 47.2392 597.501 47.2404C597.502 47.2411 597.502 47.2415 597.503 47.2418C597.503 47.2419 597.503 47.242 597.503 47.242C597.503 47.242 597.503 47.242 597.503 47.242C597.503 47.242 597.503 47.242 597.503 47.242C597.503 47.242 597.503 47.242 597.503 47.242C597.503 47.242 597.503 47.242 597.781 46.9238ZM596.015 44.9904C595.611 44.6892 595.149 44.3532 594.63 43.9887L594.144 44.6803C594.656 45.0402 595.112 45.3716 595.51 45.6684L596.015 44.9904ZM593.205 43.0127C592.75 42.7095 592.265 42.3935 591.751 42.0674L591.298 42.7814C591.807 43.104 592.286 43.4164 592.736 43.7161L593.205 43.0127ZM590.27 41.151C589.799 40.8669 589.308 40.5775 588.798 40.2843L588.377 41.0173C588.881 41.3075 589.367 41.5938 589.833 41.8749L590.27 41.151ZM587.297 39.442C586.801 39.1707 586.29 38.8974 585.764 38.6232L585.373 39.3731C585.894 39.6445 586.401 39.915 586.891 40.1836L587.297 39.442ZM584.228 37.8433C583.723 37.5938 583.207 37.3444 582.678 37.0961L582.319 37.8613C582.842 38.1072 583.353 38.354 583.853 38.601L584.228 37.8433ZM581.092 36.3709C580.579 36.143 580.056 35.9166 579.523 35.6925L579.195 36.4719C579.723 36.6937 580.241 36.9178 580.748 37.1435L581.092 36.3709ZM577.917 35.0368C577.391 34.8281 576.855 34.6221 576.311 34.4193L576.015 35.2116C576.554 35.4123 577.084 35.6163 577.606 35.8228L577.917 35.0368ZM574.685 33.833C574.147 33.6455 573.602 33.4614 573.048 33.2813L572.787 34.0853C573.334 34.2635 573.874 34.4457 574.406 34.6313L574.685 33.833ZM571.403 32.7649C570.856 32.5998 570.303 32.4388 569.742 32.2825L569.515 33.0969C570.07 33.2516 570.617 33.4108 571.158 33.5742L571.403 32.7649ZM568.077 31.837C567.523 31.6954 566.964 31.5585 566.398 31.4267L566.206 32.2501C566.766 32.3805 567.32 32.5159 567.867 32.6561L568.077 31.837ZM564.713 31.0535C564.154 30.9362 563.59 30.824 563.02 30.7174L562.864 31.5484C563.428 31.6539 563.986 31.7648 564.539 31.8809L564.713 31.0535ZM561.316 30.4181C560.754 30.3258 560.186 30.2389 559.614 30.158L559.495 30.9951C560.062 31.0752 560.623 31.1611 561.179 31.2524L561.316 30.4181ZM557.893 29.9342C557.328 29.8673 556.759 29.8062 556.186 29.7512L556.105 30.5929C556.672 30.6472 557.235 30.7076 557.793 30.7738L557.893 29.9342ZM554.451 29.6049C553.885 29.5637 553.315 29.5285 552.741 29.4996L552.699 30.344C553.266 30.3725 553.83 30.4074 554.39 30.4482L554.451 29.6049ZM551.009 29.4323C550.439 29.4167 549.864 29.4074 549.286 29.4047L549.282 30.2501C549.854 30.2528 550.422 30.262 550.986 30.2775L551.009 29.4323ZM547.561 29.4162C546.986 29.4266 546.407 29.4437 545.825 29.4675L545.86 30.3123C546.436 30.2887 547.008 30.2719 547.577 30.2616L547.561 29.4162ZM544.113 29.5571C543.539 29.5936 542.962 29.6369 542.381 29.6871L542.454 30.5294C543.028 30.4798 543.599 30.437 544.167 30.4009L544.113 29.5571ZM540.669 29.8547C540.102 29.9167 539.531 29.9854 538.957 30.0611L539.068 30.8993C539.635 30.8245 540.2 30.7565 540.761 30.6951L540.669 29.8547ZM537.235 30.3082C536.675 30.3949 536.112 30.4883 535.547 30.5885L535.695 31.421C536.254 31.3218 536.81 31.2294 537.364 31.1437L537.235 30.3082ZM533.844 30.9101C533.283 31.0224 532.72 31.1416 532.154 31.2677L532.338 32.0929C532.898 31.9681 533.455 31.8502 534.01 31.7391L533.844 30.9101ZM530.483 31.6592C529.923 31.7965 529.361 31.9408 528.798 32.0921L529.017 32.9086C529.575 32.7589 530.131 32.6162 530.684 32.4803L530.483 31.6592ZM527.144 32.5544C526.597 32.7135 526.048 32.8793 525.497 33.0519L525.749 33.8587C526.295 33.6878 526.838 33.5237 527.38 33.3663L527.144 32.5544ZM523.838 33.5905C523.301 33.7709 522.763 33.9579 522.222 34.1515L522.508 34.9474C523.043 34.7556 523.576 34.5705 524.107 34.3919L523.838 33.5905ZM520.607 34.7484C520.067 34.954 519.526 35.1664 518.982 35.3856L519.299 36.1696C519.837 35.9525 520.374 35.7421 520.908 35.5385L520.607 34.7484ZM517.405 36.0396C516.881 36.2626 516.355 36.492 515.828 36.7279L516.174 37.4996C516.696 37.2658 517.217 37.0385 517.736 36.8175L517.405 36.0396ZM514.243 37.4555C513.73 37.6967 513.216 37.9442 512.7 38.1981L513.074 38.9566C513.585 38.705 514.095 38.4597 514.603 38.2206L514.243 37.4555ZM511.168 38.9692C510.656 39.2325 510.143 39.5021 509.629 39.778L510.029 40.5231C510.539 40.2494 511.047 39.9821 511.555 39.721L511.168 38.9692ZM508.116 40.6066C507.622 40.8822 507.128 41.1637 506.632 41.4512L507.056 42.1825C507.548 41.8973 508.038 41.618 508.528 41.3447L508.116 40.6066ZM505.142 42.3319C504.646 42.6305 504.15 42.9352 503.652 43.246L504.099 43.9632C504.593 43.6548 505.087 43.3525 505.579 43.0562L505.142 42.3319ZM502.22 44.1548C501.742 44.4634 501.263 44.7778 500.784 45.0979L501.253 45.8012C501.729 45.4834 502.204 45.1714 502.679 44.8651L502.22 44.1548ZM499.342 46.0755C499.101 46.2414 498.86 46.4087 498.619 46.5775L499.104 47.2701C499.343 47.1025 499.583 46.9364 499.822 46.7717L499.342 46.0755Z" fill="#A70F6A"/>
<circle cx="17.5" cy="52.5" r="17" stroke="#369CB7"/>
<path d="M18.77 46.4V59H16.988V47.966H14.144V46.4H18.77Z" fill="#369CB7"/>
</svg>
