<svg width="174" height="40" viewBox="0 0 174 40" fill="none" xmlns="http://www.w3.org/2000/svg">
<g clip-path="url(#clip0_12_267)">
<path d="M17.4422 9.31113C17.4422 9.31113 1.65366 18.5121 0 0.774291C0 0.774291 11.2738 -3.80544 17.4422 9.31113Z" fill="#619631"/>
<path d="M1.88898 1.86622C1.94148 1.86622 1.94148 1.7832 1.88898 1.7832C1.83649 1.7832 1.83649 1.86622 1.88898 1.86622Z" fill="#5D8C30"/>
<path d="M2.23036 2.25459C4.64523 3.69354 7.1651 4.93879 9.65872 6.2117C10.8924 6.83432 12.1261 7.45695 13.3729 8.06573C14.0029 8.37013 14.6328 8.64685 15.2628 8.90973C15.8534 9.15878 16.4702 9.53235 17.1265 9.32481C17.3758 9.2418 17.4283 8.9374 17.3102 8.72986C16.969 8.14875 16.2603 7.99655 15.6828 7.77518C15.0397 7.52613 14.3966 7.27708 13.7404 7.02803C12.4411 6.54377 11.1418 6.05951 9.85559 5.53374C7.29635 4.4822 4.80273 3.27846 2.28286 2.13007C2.20411 2.07473 2.15161 2.21309 2.23036 2.25459Z" fill="#5D8C30"/>
<path d="M5.95849 0.968544C5.97161 1.66035 6.24722 2.33831 6.49659 2.97477C6.73282 3.61123 6.99531 4.34454 7.40217 4.87031C7.53341 5.03634 7.7959 4.91182 7.73027 4.69044C7.50716 4.01248 7.11343 3.38985 6.83782 2.73956C6.58846 2.13077 6.40472 1.48048 6.06348 0.9132C6.02411 0.885528 5.94537 0.9132 5.95849 0.968544Z" fill="#5D8C30"/>
<path d="M3.41254 7.04316C4.1475 6.61424 4.90871 6.28218 5.69617 5.95011C6.32614 5.68723 7.1661 5.16146 7.87481 5.27215C8.24229 5.32749 8.34729 4.77405 7.9798 4.69103C7.21859 4.49733 6.28677 5.16146 5.63055 5.47969C4.85622 5.85326 3.84564 6.19916 3.30755 6.91864C3.24193 7.00165 3.3338 7.0985 3.41254 7.04316Z" fill="#5D8C30"/>
<path d="M10 2.54677C10.0787 3.23857 10.3675 3.93038 10.525 4.60834C10.7087 5.35549 10.84 6.11647 10.9974 6.87745C11.0499 7.15417 11.5224 7.05732 11.4699 6.76677C11.3518 6.01962 11.1549 5.27247 10.9187 4.553C10.7087 3.88887 10.4594 3.07254 10.0394 2.5191C10.0394 2.50526 10 2.5191 10 2.54677Z" fill="#5D8C30"/>
<path d="M6.87687 9.0616C7.61183 8.70186 8.30742 8.24527 9.04238 7.84402C9.85609 7.40127 10.6829 7.0277 11.5491 6.69563C11.9297 6.54343 11.6935 5.92081 11.3391 6.10068C9.77734 6.8755 8.07118 7.70566 6.79812 8.93707C6.7325 8.97858 6.81125 9.08927 6.87687 9.0616Z" fill="#5D8C30"/>
<path d="M16.6936 3.33477C17.3367 3.1964 18.0323 3.37627 18.5179 3.81903C17.7698 4.5385 17.7829 5.76991 17.7829 6.73843C17.7829 7.37489 18.7935 12.4804 17.9667 12.4389C16.5755 12.3697 16.1949 3.44545 16.6936 3.33477Z" fill="#666720"/>
<path d="M31.866 35.1834C31.3935 35.64 30.9079 36.0689 30.4092 36.4701C30.1598 36.6777 29.9104 36.8714 29.648 37.0513C27.4431 38.6978 24.5951 40.4273 21.8652 39.182C21.6159 39.1267 21.3665 39.0852 21.1172 39.0437C20.8678 39.0021 20.6184 38.9745 20.3559 38.9606C19.4766 38.9191 18.5842 39.1543 17.8098 39.4726C17.4686 39.5694 17.1274 39.6524 16.7861 39.7216C15.4081 40.0122 13.9907 40.0952 12.6257 39.8876C12.2845 39.8323 11.9433 39.777 11.6151 39.6801C9.00341 38.7669 6.53604 37.0928 4.47552 35.1004C4.27866 34.8928 4.06867 34.6853 3.88493 34.4778C-0.0392411 30.1609 -0.314852 22.5096 2.29689 17.4456C2.69062 16.6708 3.11059 15.979 3.56995 15.384C4.72488 13.8621 6.14231 12.8659 8.28157 12.2709C10.3815 11.6898 12.5601 11.4131 14.7256 11.4684C16.9567 11.5238 18.676 11.5514 20.7365 10.7351C22.3771 10.0848 24.162 10.0156 25.8813 10.3062C28.9524 10.832 31.656 12.1187 33.3359 14.8583C34.6221 16.9613 35.4752 19.4103 35.8426 21.9285C36.4988 26.7296 35.3702 31.7797 31.866 35.1834Z" fill="#98C11F"/>
<path d="M31.866 35.1841C31.3935 35.6407 30.9079 36.0696 30.4092 36.4709C30.1598 36.6784 29.9104 36.8721 29.648 37.052C27.4431 38.6985 24.5951 40.428 21.8652 39.1828C21.6159 39.1274 21.3665 39.0859 21.1172 39.0444C20.8678 39.0029 20.6184 38.9752 20.3559 38.9614C19.4766 38.9199 18.5842 39.1551 17.8098 39.4733C17.4686 39.5702 17.1274 39.6532 16.7861 39.7224C15.4081 40.0129 13.9907 40.0959 12.6257 39.8884C12.2845 39.833 11.9433 39.7777 11.6152 39.6809C9.00341 38.7677 6.53604 37.0935 4.47552 35.1011C4.27866 34.8936 4.06867 34.686 3.88493 34.4785C-0.0392411 30.1617 -0.314852 22.5103 2.29689 17.4463C2.69062 16.6715 3.11059 15.9797 3.56995 15.3848C2.33626 17.6954 1.82441 20.4626 2.11315 23.0914C2.37563 25.4436 3.24184 27.685 4.52802 29.6359C4.73801 29.968 4.97425 30.2723 5.21048 30.5906C7.92722 33.759 11.6414 35.7376 15.6312 35.7791C15.9855 35.8068 16.3268 35.8206 16.6811 35.8344C17.2586 35.8621 17.8361 35.8621 18.4135 35.8483C18.991 35.8344 19.5685 35.8068 20.1328 35.7514C23.7814 35.53 27.7187 34.8936 30.4223 31.9603C30.9473 31.5038 31.4329 31.0057 31.8922 30.4937C32.3516 29.968 32.7847 29.4283 33.1784 28.8472C34.5827 26.7995 35.4752 24.392 35.8295 21.9154C36.4989 26.7303 35.3702 31.7805 31.866 35.1841Z" fill="#8AAF26"/>
<path d="M25.4476 16.3532C25.7101 16.6437 25.9988 16.8789 26.2876 17.045C28.8862 18.5669 32.2197 14.762 29.4636 12.9218C28.5187 12.2854 26.9175 11.6351 25.7626 11.981C23.5577 12.6589 24.2139 14.9972 25.4476 16.3532Z" fill="#BDD14C"/>
<path d="M32.1682 16.2566C32.7326 16.4503 33.1788 17.0591 32.6932 18.0276C32.6407 18.1245 32.5751 18.2213 32.4963 18.2905C32.3913 18.3597 32.2732 18.3874 32.1551 18.4012C31.5907 18.4427 31.0264 18 30.882 17.4188C30.6458 16.3811 31.4989 16.0214 32.1682 16.2566Z" fill="#BDD14C"/>
</g>
<g clip-path="url(#clip1_12_267)">
<path d="M63.4422 9.31113C63.4422 9.31113 47.6537 18.5121 46 0.774291C46 0.774291 57.2738 -3.80544 63.4422 9.31113Z" fill="#619631"/>
<path d="M47.889 1.86622C47.9415 1.86622 47.9415 1.7832 47.889 1.7832C47.8365 1.7832 47.8365 1.86622 47.889 1.86622Z" fill="#5D8C30"/>
<path d="M48.2304 2.25459C50.6452 3.69354 53.1651 4.93879 55.6587 6.2117C56.8924 6.83432 58.1261 7.45695 59.3729 8.06573C60.0029 8.37013 60.6328 8.64685 61.2628 8.90973C61.8534 9.15878 62.4702 9.53235 63.1265 9.32481C63.3758 9.2418 63.4283 8.9374 63.3102 8.72986C62.969 8.14875 62.2603 7.99655 61.6828 7.77518C61.0397 7.52613 60.3966 7.27708 59.7404 7.02803C58.4411 6.54377 57.1418 6.05951 55.8556 5.53374C53.2963 4.4822 50.8027 3.27846 48.2829 2.13007C48.2041 2.07473 48.1516 2.21309 48.2304 2.25459Z" fill="#5D8C30"/>
<path d="M51.9585 0.968544C51.9716 1.66035 52.2472 2.33831 52.4966 2.97477C52.7328 3.61123 52.9953 4.34454 53.4022 4.87031C53.5334 5.03634 53.7959 4.91182 53.7303 4.69044C53.5072 4.01248 53.1134 3.38985 52.8378 2.73956C52.5885 2.13077 52.4047 1.48048 52.0635 0.9132C52.0241 0.885528 51.9454 0.9132 51.9585 0.968544Z" fill="#5D8C30"/>
<path d="M49.4125 7.04316C50.1475 6.61424 50.9087 6.28218 51.6962 5.95011C52.3261 5.68723 53.1661 5.16146 53.8748 5.27215C54.2423 5.32749 54.3473 4.77405 53.9798 4.69103C53.2186 4.49733 52.2868 5.16146 51.6306 5.47969C50.8562 5.85326 49.8456 6.19916 49.3075 6.91864C49.2419 7.00165 49.3338 7.0985 49.4125 7.04316Z" fill="#5D8C30"/>
<path d="M56 2.54677C56.0787 3.23857 56.3675 3.93038 56.525 4.60834C56.7087 5.35549 56.84 6.11647 56.9974 6.87745C57.0499 7.15417 57.5224 7.05732 57.4699 6.76677C57.3518 6.01962 57.1549 5.27247 56.9187 4.553C56.7087 3.88887 56.4594 3.07254 56.0394 2.5191C56.0394 2.50526 56 2.5191 56 2.54677Z" fill="#5D8C30"/>
<path d="M52.8769 9.0616C53.6118 8.70186 54.3074 8.24527 55.0424 7.84402C55.8561 7.40127 56.6829 7.0277 57.5491 6.69563C57.9297 6.54343 57.6935 5.92081 57.3391 6.10068C55.7773 6.8755 54.0712 7.70566 52.7981 8.93707C52.7325 8.97858 52.8112 9.08927 52.8769 9.0616Z" fill="#5D8C30"/>
<path d="M62.6936 3.33477C63.3367 3.1964 64.0323 3.37627 64.5179 3.81903C63.7698 4.5385 63.7829 5.76991 63.7829 6.73843C63.7829 7.37489 64.7935 12.4804 63.9667 12.4389C62.5755 12.3697 62.1949 3.44545 62.6936 3.33477Z" fill="#666720"/>
<path d="M77.866 35.1834C77.3935 35.64 76.9079 36.0689 76.4092 36.4701C76.1598 36.6777 75.9104 36.8714 75.648 37.0513C73.4431 38.6978 70.5951 40.4273 67.8652 39.182C67.6159 39.1267 67.3665 39.0852 67.1172 39.0437C66.8678 39.0021 66.6184 38.9745 66.3559 38.9606C65.4766 38.9191 64.5842 39.1543 63.8098 39.4726C63.4686 39.5694 63.1274 39.6524 62.7861 39.7216C61.4081 40.0122 59.9907 40.0952 58.6257 39.8876C58.2845 39.8323 57.9433 39.777 57.6151 39.6801C55.0034 38.7669 52.536 37.0928 50.4755 35.1004C50.2787 34.8928 50.0687 34.6853 49.8849 34.4778C45.9608 30.1609 45.6851 22.5096 48.2969 17.4456C48.6906 16.6708 49.1106 15.979 49.5699 15.384C50.7249 13.8621 52.1423 12.8659 54.2816 12.2709C56.3815 11.6898 58.5601 11.4131 60.7256 11.4684C62.9567 11.5238 64.676 11.5514 66.7365 10.7351C68.3771 10.0848 70.162 10.0156 71.8813 10.3062C74.9524 10.832 77.656 12.1187 79.3359 14.8583C80.6221 16.9613 81.4752 19.4103 81.8426 21.9285C82.4988 26.7296 81.3702 31.7797 77.866 35.1834Z" fill="#98C11F"/>
<path d="M77.866 35.1841C77.3935 35.6407 76.9079 36.0696 76.4092 36.4709C76.1598 36.6784 75.9104 36.8721 75.648 37.052C73.4431 38.6985 70.5951 40.428 67.8652 39.1828C67.6159 39.1274 67.3665 39.0859 67.1172 39.0444C66.8678 39.0029 66.6184 38.9752 66.3559 38.9614C65.4766 38.9199 64.5842 39.1551 63.8098 39.4733C63.4686 39.5702 63.1274 39.6532 62.7861 39.7224C61.4081 40.0129 59.9907 40.0959 58.6257 39.8884C58.2845 39.833 57.9433 39.7777 57.6152 39.6809C55.0034 38.7677 52.536 37.0935 50.4755 35.1011C50.2787 34.8936 50.0687 34.686 49.8849 34.4785C45.9608 30.1617 45.6851 22.5103 48.2969 17.4463C48.6906 16.6715 49.1106 15.9797 49.5699 15.3848C48.3363 17.6954 47.8244 20.4626 48.1131 23.0914C48.3756 25.4436 49.2418 27.685 50.528 29.6359C50.738 29.968 50.9742 30.2723 51.2105 30.5906C53.9272 33.759 57.6414 35.7376 61.6312 35.7791C61.9855 35.8068 62.3268 35.8206 62.6811 35.8344C63.2586 35.8621 63.8361 35.8621 64.4135 35.8483C64.991 35.8344 65.5685 35.8068 66.1328 35.7514C69.7814 35.53 73.7187 34.8936 76.4223 31.9603C76.9473 31.5038 77.4329 31.0057 77.8922 30.4937C78.3516 29.968 78.7847 29.4283 79.1784 28.8472C80.5827 26.7995 81.4752 24.392 81.8295 21.9154C82.4989 26.7303 81.3702 31.7805 77.866 35.1841Z" fill="#8AAF26"/>
<path d="M71.4476 16.3532C71.7101 16.6437 71.9988 16.8789 72.2876 17.045C74.8862 18.5669 78.2197 14.762 75.4636 12.9218C74.5187 12.2854 72.9175 11.6351 71.7626 11.981C69.5577 12.6589 70.2139 14.9972 71.4476 16.3532Z" fill="#BDD14C"/>
<path d="M78.1682 16.2566C78.7326 16.4503 79.1788 17.0591 78.6932 18.0276C78.6407 18.1245 78.5751 18.2213 78.4963 18.2905C78.3913 18.3597 78.2732 18.3874 78.1551 18.4012C77.5907 18.4427 77.0264 18 76.882 17.4188C76.6458 16.3811 77.4989 16.0214 78.1682 16.2566Z" fill="#BDD14C"/>
</g>
<g clip-path="url(#clip2_12_267)">
<path d="M109.442 9.31113C109.442 9.31113 93.6537 18.5121 92 0.774291C92 0.774291 103.274 -3.80544 109.442 9.31113Z" fill="#619631"/>
<path d="M93.889 1.86622C93.9415 1.86622 93.9415 1.7832 93.889 1.7832C93.8365 1.7832 93.8365 1.86622 93.889 1.86622Z" fill="#5D8C30"/>
<path d="M94.2304 2.25459C96.6452 3.69354 99.1651 4.93879 101.659 6.2117C102.892 6.83432 104.126 7.45695 105.373 8.06573C106.003 8.37013 106.633 8.64685 107.263 8.90973C107.853 9.15878 108.47 9.53235 109.126 9.32481C109.376 9.2418 109.428 8.9374 109.31 8.72986C108.969 8.14875 108.26 7.99655 107.683 7.77518C107.04 7.52613 106.397 7.27708 105.74 7.02803C104.441 6.54377 103.142 6.05951 101.856 5.53374C99.2963 4.4822 96.8027 3.27846 94.2829 2.13007C94.2041 2.07473 94.1516 2.21309 94.2304 2.25459Z" fill="#5D8C30"/>
<path d="M97.9585 0.968544C97.9716 1.66035 98.2472 2.33831 98.4966 2.97477C98.7328 3.61123 98.9953 4.34454 99.4022 4.87031C99.5334 5.03634 99.7959 4.91182 99.7303 4.69044C99.5072 4.01248 99.1134 3.38985 98.8378 2.73956C98.5885 2.13077 98.4047 1.48048 98.0635 0.9132C98.0241 0.885528 97.9454 0.9132 97.9585 0.968544Z" fill="#5D8C30"/>
<path d="M95.4125 7.04316C96.1475 6.61424 96.9087 6.28218 97.6962 5.95011C98.3261 5.68723 99.1661 5.16146 99.8748 5.27215C100.242 5.32749 100.347 4.77405 99.9798 4.69103C99.2186 4.49733 98.2868 5.16146 97.6306 5.47969C96.8562 5.85326 95.8456 6.19916 95.3075 6.91864C95.2419 7.00165 95.3338 7.0985 95.4125 7.04316Z" fill="#5D8C30"/>
<path d="M102 2.54677C102.079 3.23857 102.367 3.93038 102.525 4.60834C102.709 5.35549 102.84 6.11647 102.997 6.87745C103.05 7.15417 103.522 7.05732 103.47 6.76677C103.352 6.01962 103.155 5.27247 102.919 4.553C102.709 3.88887 102.459 3.07254 102.039 2.5191C102.039 2.50526 102 2.5191 102 2.54677Z" fill="#5D8C30"/>
<path d="M98.8769 9.0616C99.6118 8.70186 100.307 8.24527 101.042 7.84402C101.856 7.40127 102.683 7.0277 103.549 6.69563C103.93 6.54343 103.693 5.92081 103.339 6.10068C101.777 6.8755 100.071 7.70566 98.7981 8.93707C98.7325 8.97858 98.8112 9.08927 98.8769 9.0616Z" fill="#5D8C30"/>
<path d="M108.694 3.33477C109.337 3.1964 110.032 3.37627 110.518 3.81903C109.77 4.5385 109.783 5.76991 109.783 6.73843C109.783 7.37489 110.794 12.4804 109.967 12.4389C108.575 12.3697 108.195 3.44545 108.694 3.33477Z" fill="#666720"/>
<path d="M123.866 35.1834C123.393 35.64 122.908 36.0689 122.409 36.4701C122.16 36.6777 121.91 36.8714 121.648 37.0513C119.443 38.6978 116.595 40.4273 113.865 39.182C113.616 39.1267 113.367 39.0852 113.117 39.0437C112.868 39.0021 112.618 38.9745 112.356 38.9606C111.477 38.9191 110.584 39.1543 109.81 39.4726C109.469 39.5694 109.127 39.6524 108.786 39.7216C107.408 40.0122 105.991 40.0952 104.626 39.8876C104.284 39.8323 103.943 39.777 103.615 39.6801C101.003 38.7669 98.536 37.0928 96.4755 35.1004C96.2787 34.8928 96.0687 34.6853 95.8849 34.4778C91.9608 30.1609 91.6851 22.5096 94.2969 17.4456C94.6906 16.6708 95.1106 15.979 95.5699 15.384C96.7249 13.8621 98.1423 12.8659 100.282 12.2709C102.381 11.6898 104.56 11.4131 106.726 11.4684C108.957 11.5238 110.676 11.5514 112.737 10.7351C114.377 10.0848 116.162 10.0156 117.881 10.3062C120.952 10.832 123.656 12.1187 125.336 14.8583C126.622 16.9613 127.475 19.4103 127.843 21.9285C128.499 26.7296 127.37 31.7797 123.866 35.1834Z" fill="#98C11F"/>
<path d="M123.866 35.1841C123.393 35.6407 122.908 36.0696 122.409 36.4709C122.16 36.6784 121.91 36.8721 121.648 37.052C119.443 38.6985 116.595 40.428 113.865 39.1828C113.616 39.1274 113.367 39.0859 113.117 39.0444C112.868 39.0029 112.618 38.9752 112.356 38.9614C111.477 38.9199 110.584 39.1551 109.81 39.4733C109.469 39.5702 109.127 39.6532 108.786 39.7224C107.408 40.0129 105.991 40.0959 104.626 39.8884C104.284 39.833 103.943 39.7777 103.615 39.6809C101.003 38.7677 98.536 37.0935 96.4755 35.1011C96.2787 34.8936 96.0687 34.686 95.8849 34.4785C91.9608 30.1617 91.6851 22.5103 94.2969 17.4463C94.6906 16.6715 95.1106 15.9797 95.5699 15.3848C94.3363 17.6954 93.8244 20.4626 94.1131 23.0914C94.3756 25.4436 95.2418 27.685 96.528 29.6359C96.738 29.968 96.9742 30.2723 97.2105 30.5906C99.9272 33.759 103.641 35.7376 107.631 35.7791C107.986 35.8068 108.327 35.8206 108.681 35.8344C109.259 35.8621 109.836 35.8621 110.414 35.8483C110.991 35.8344 111.568 35.8068 112.133 35.7514C115.781 35.53 119.719 34.8936 122.422 31.9603C122.947 31.5038 123.433 31.0057 123.892 30.4937C124.352 29.968 124.785 29.4283 125.178 28.8472C126.583 26.7995 127.475 24.392 127.83 21.9154C128.499 26.7303 127.37 31.7805 123.866 35.1841Z" fill="#8AAF26"/>
<path d="M117.448 16.3532C117.71 16.6437 117.999 16.8789 118.288 17.045C120.886 18.5669 124.22 14.762 121.464 12.9218C120.519 12.2854 118.918 11.6351 117.763 11.981C115.558 12.6589 116.214 14.9972 117.448 16.3532Z" fill="#BDD14C"/>
<path d="M124.168 16.2566C124.733 16.4503 125.179 17.0591 124.693 18.0276C124.641 18.1245 124.575 18.2213 124.496 18.2905C124.391 18.3597 124.273 18.3874 124.155 18.4012C123.591 18.4427 123.026 18 122.882 17.4188C122.646 16.3811 123.499 16.0214 124.168 16.2566Z" fill="#BDD14C"/>
</g>
<g clip-path="url(#clip3_12_267)">
<path d="M155.442 9.31113C155.442 9.31113 139.654 18.5121 138 0.774291C138 0.774291 149.274 -3.80544 155.442 9.31113Z" fill="#619631"/>
<path d="M139.889 1.86622C139.941 1.86622 139.941 1.7832 139.889 1.7832C139.836 1.7832 139.836 1.86622 139.889 1.86622Z" fill="#5D8C30"/>
<path d="M140.23 2.25459C142.645 3.69354 145.165 4.93879 147.659 6.2117C148.892 6.83432 150.126 7.45695 151.373 8.06573C152.003 8.37013 152.633 8.64685 153.263 8.90973C153.853 9.15878 154.47 9.53235 155.126 9.32481C155.376 9.2418 155.428 8.9374 155.31 8.72986C154.969 8.14875 154.26 7.99655 153.683 7.77518C153.04 7.52613 152.397 7.27708 151.74 7.02803C150.441 6.54377 149.142 6.05951 147.856 5.53374C145.296 4.4822 142.803 3.27846 140.283 2.13007C140.204 2.07473 140.152 2.21309 140.23 2.25459Z" fill="#5D8C30"/>
<path d="M143.958 0.968544C143.972 1.66035 144.247 2.33831 144.497 2.97477C144.733 3.61123 144.995 4.34454 145.402 4.87031C145.533 5.03634 145.796 4.91182 145.73 4.69044C145.507 4.01248 145.113 3.38985 144.838 2.73956C144.588 2.13077 144.405 1.48048 144.063 0.9132C144.024 0.885528 143.945 0.9132 143.958 0.968544Z" fill="#5D8C30"/>
<path d="M141.413 7.04316C142.148 6.61424 142.909 6.28218 143.696 5.95011C144.326 5.68723 145.166 5.16146 145.875 5.27215C146.242 5.32749 146.347 4.77405 145.98 4.69103C145.219 4.49733 144.287 5.16146 143.631 5.47969C142.856 5.85326 141.846 6.19916 141.308 6.91864C141.242 7.00165 141.334 7.0985 141.413 7.04316Z" fill="#5D8C30"/>
<path d="M148 2.54677C148.079 3.23857 148.367 3.93038 148.525 4.60834C148.709 5.35549 148.84 6.11647 148.997 6.87745C149.05 7.15417 149.522 7.05732 149.47 6.76677C149.352 6.01962 149.155 5.27247 148.919 4.553C148.709 3.88887 148.459 3.07254 148.039 2.5191C148.039 2.50526 148 2.5191 148 2.54677Z" fill="#5D8C30"/>
<path d="M144.877 9.0616C145.612 8.70186 146.307 8.24527 147.042 7.84402C147.856 7.40127 148.683 7.0277 149.549 6.69563C149.93 6.54343 149.693 5.92081 149.339 6.10068C147.777 6.8755 146.071 7.70566 144.798 8.93707C144.733 8.97858 144.811 9.08927 144.877 9.0616Z" fill="#5D8C30"/>
<path d="M154.694 3.33477C155.337 3.1964 156.032 3.37627 156.518 3.81903C155.77 4.5385 155.783 5.76991 155.783 6.73843C155.783 7.37489 156.794 12.4804 155.967 12.4389C154.575 12.3697 154.195 3.44545 154.694 3.33477Z" fill="#666720"/>
<path d="M169.866 35.1834C169.393 35.64 168.908 36.0689 168.409 36.4701C168.16 36.6777 167.91 36.8714 167.648 37.0513C165.443 38.6978 162.595 40.4273 159.865 39.182C159.616 39.1267 159.367 39.0852 159.117 39.0437C158.868 39.0021 158.618 38.9745 158.356 38.9606C157.477 38.9191 156.584 39.1543 155.81 39.4726C155.469 39.5694 155.127 39.6524 154.786 39.7216C153.408 40.0122 151.991 40.0952 150.626 39.8876C150.284 39.8323 149.943 39.777 149.615 39.6801C147.003 38.7669 144.536 37.0928 142.476 35.1004C142.279 34.8928 142.069 34.6853 141.885 34.4778C137.961 30.1609 137.685 22.5096 140.297 17.4456C140.691 16.6708 141.111 15.979 141.57 15.384C142.725 13.8621 144.142 12.8659 146.282 12.2709C148.381 11.6898 150.56 11.4131 152.726 11.4684C154.957 11.5238 156.676 11.5514 158.737 10.7351C160.377 10.0848 162.162 10.0156 163.881 10.3062C166.952 10.832 169.656 12.1187 171.336 14.8583C172.622 16.9613 173.475 19.4103 173.843 21.9285C174.499 26.7296 173.37 31.7797 169.866 35.1834Z" fill="#98C11F"/>
<path d="M169.866 35.1841C169.393 35.6407 168.908 36.0696 168.409 36.4709C168.16 36.6784 167.91 36.8721 167.648 37.052C165.443 38.6985 162.595 40.428 159.865 39.1828C159.616 39.1274 159.367 39.0859 159.117 39.0444C158.868 39.0029 158.618 38.9752 158.356 38.9614C157.477 38.9199 156.584 39.1551 155.81 39.4733C155.469 39.5702 155.127 39.6532 154.786 39.7224C153.408 40.0129 151.991 40.0959 150.626 39.8884C150.284 39.833 149.943 39.7777 149.615 39.6809C147.003 38.7677 144.536 37.0935 142.476 35.1011C142.279 34.8936 142.069 34.686 141.885 34.4785C137.961 30.1617 137.685 22.5103 140.297 17.4463C140.691 16.6715 141.111 15.9797 141.57 15.3848C140.336 17.6954 139.824 20.4626 140.113 23.0914C140.376 25.4436 141.242 27.685 142.528 29.6359C142.738 29.968 142.974 30.2723 143.21 30.5906C145.927 33.759 149.641 35.7376 153.631 35.7791C153.986 35.8068 154.327 35.8206 154.681 35.8344C155.259 35.8621 155.836 35.8621 156.414 35.8483C156.991 35.8344 157.568 35.8068 158.133 35.7514C161.781 35.53 165.719 34.8936 168.422 31.9603C168.947 31.5038 169.433 31.0057 169.892 30.4937C170.352 29.968 170.785 29.4283 171.178 28.8472C172.583 26.7995 173.475 24.392 173.83 21.9154C174.499 26.7303 173.37 31.7805 169.866 35.1841Z" fill="#8AAF26"/>
<path d="M163.448 16.3532C163.71 16.6437 163.999 16.8789 164.288 17.045C166.886 18.5669 170.22 14.762 167.464 12.9218C166.519 12.2854 164.918 11.6351 163.763 11.981C161.558 12.6589 162.214 14.9972 163.448 16.3532Z" fill="#BDD14C"/>
<path d="M170.168 16.2566C170.733 16.4503 171.179 17.0591 170.693 18.0276C170.641 18.1245 170.575 18.2213 170.496 18.2905C170.391 18.3597 170.273 18.3874 170.155 18.4012C169.591 18.4427 169.026 18 168.882 17.4188C168.646 16.3811 169.499 16.0214 170.168 16.2566Z" fill="#BDD14C"/>
</g>
<defs>
<clipPath id="clip0_12_267">
<rect width="36" height="40" fill="white"/>
</clipPath>
<clipPath id="clip1_12_267">
<rect width="36" height="40" fill="white" transform="translate(46)"/>
</clipPath>
<clipPath id="clip2_12_267">
<rect width="36" height="40" fill="white" transform="translate(92)"/>
</clipPath>
<clipPath id="clip3_12_267">
<rect width="36" height="40" fill="white" transform="translate(138)"/>
</clipPath>
</defs>
</svg>
