<svg width="270" height="161" viewBox="0 0 270 161" fill="none" xmlns="http://www.w3.org/2000/svg">
<rect x="0.5" y="1.19336" width="269" height="159" rx="4.5" stroke="#D0D0D0"/>
<path d="M0 5.69336C0 2.93193 2.23858 0.693359 5 0.693359H265C267.761 0.693359 270 2.93194 270 5.69336V28.6934H0V5.69336Z" fill="#205B64"/>
<path d="M100.974 14.8694C101.614 15.072 102.115 15.4134 102.478 15.8934C102.841 16.3627 103.022 16.944 103.022 17.6374C103.022 18.6187 102.638 19.376 101.87 19.9094C101.113 20.432 100.003 20.6934 98.5419 20.6934H92.7499V9.49336H98.2219C99.5872 9.49336 100.633 9.75469 101.358 10.2774C102.094 10.8 102.462 11.5094 102.462 12.4054C102.462 12.9494 102.329 13.4347 102.062 13.8614C101.806 14.288 101.443 14.624 100.974 14.8694ZM95.3259 11.4454V14.0854H97.9019C98.5419 14.0854 99.0272 13.9734 99.3579 13.7494C99.6885 13.5254 99.8539 13.1947 99.8539 12.7574C99.8539 12.32 99.6885 11.9947 99.3579 11.7814C99.0272 11.5574 98.5419 11.4454 97.9019 11.4454H95.3259ZM98.3499 18.7414C99.0325 18.7414 99.5445 18.6294 99.8859 18.4054C100.238 18.1814 100.414 17.8347 100.414 17.3654C100.414 16.4374 99.7259 15.9734 98.3499 15.9734H95.3259V18.7414H98.3499ZM108.28 11.9574C109.614 11.9574 110.638 12.2774 111.352 12.9174C112.067 13.5467 112.424 14.5014 112.424 15.7814V20.6934H110.088V19.6214C109.619 20.4214 108.744 20.8214 107.464 20.8214C106.803 20.8214 106.227 20.7094 105.736 20.4854C105.256 20.2614 104.888 19.952 104.632 19.5574C104.376 19.1627 104.248 18.7147 104.248 18.2134C104.248 17.4134 104.547 16.784 105.144 16.3254C105.752 15.8667 106.686 15.6374 107.944 15.6374H109.928C109.928 15.0934 109.763 14.6774 109.432 14.3894C109.102 14.0907 108.606 13.9414 107.944 13.9414C107.486 13.9414 107.032 14.016 106.584 14.1654C106.147 14.304 105.774 14.496 105.464 14.7414L104.568 12.9974C105.038 12.6667 105.598 12.4107 106.248 12.2294C106.91 12.048 107.587 11.9574 108.28 11.9574ZM108.088 19.1414C108.515 19.1414 108.894 19.0454 109.224 18.8534C109.555 18.6507 109.79 18.3574 109.928 17.9734V17.0934H108.216C107.192 17.0934 106.68 17.4294 106.68 18.1014C106.68 18.4214 106.803 18.6774 107.048 18.8694C107.304 19.0507 107.651 19.1414 108.088 19.1414ZM117.579 20.8214C116.865 20.8214 116.166 20.736 115.483 20.5654C114.801 20.384 114.257 20.16 113.851 19.8934L114.683 18.1014C115.067 18.3467 115.531 18.5494 116.075 18.7094C116.619 18.8587 117.153 18.9334 117.675 18.9334C118.731 18.9334 119.259 18.672 119.259 18.1494C119.259 17.904 119.115 17.728 118.827 17.6214C118.539 17.5147 118.097 17.424 117.499 17.3494C116.795 17.2427 116.214 17.12 115.755 16.9814C115.297 16.8427 114.897 16.5974 114.555 16.2454C114.225 15.8934 114.059 15.392 114.059 14.7414C114.059 14.1974 114.214 13.7174 114.523 13.3014C114.843 12.8747 115.302 12.544 115.899 12.3094C116.507 12.0747 117.222 11.9574 118.043 11.9574C118.651 11.9574 119.254 12.0267 119.851 12.1654C120.459 12.2934 120.961 12.4747 121.355 12.7094L120.523 14.4854C119.766 14.0587 118.939 13.8454 118.043 13.8454C117.51 13.8454 117.11 13.92 116.843 14.0694C116.577 14.2187 116.443 14.4107 116.443 14.6454C116.443 14.912 116.587 15.0987 116.875 15.2054C117.163 15.312 117.622 15.4134 118.251 15.5094C118.955 15.6267 119.531 15.7547 119.979 15.8934C120.427 16.0214 120.817 16.2614 121.147 16.6134C121.478 16.9654 121.643 17.456 121.643 18.0854C121.643 18.6187 121.483 19.0934 121.163 19.5094C120.843 19.9254 120.374 20.2507 119.755 20.4854C119.147 20.7094 118.422 20.8214 117.579 20.8214ZM126.879 17.3174L125.679 18.5014V20.6934H123.183V8.82136H125.679V15.5414L129.327 12.0854H132.303L128.719 15.7334L132.623 20.6934H129.599L126.879 17.3174ZM141.803 16.4214C141.803 16.4534 141.787 16.6774 141.755 17.0934H135.243C135.36 17.6267 135.637 18.048 136.075 18.3574C136.512 18.6667 137.056 18.8214 137.707 18.8214C138.155 18.8214 138.549 18.7574 138.891 18.6294C139.243 18.4907 139.568 18.2774 139.867 17.9894L141.195 19.4294C140.384 20.3574 139.2 20.8214 137.643 20.8214C136.672 20.8214 135.813 20.6347 135.067 20.2614C134.32 19.8774 133.744 19.3494 133.339 18.6774C132.933 18.0054 132.731 17.2427 132.731 16.3894C132.731 15.5467 132.928 14.7894 133.323 14.1174C133.728 13.4347 134.277 12.9067 134.971 12.5334C135.675 12.1494 136.459 11.9574 137.323 11.9574C138.165 11.9574 138.928 12.1387 139.611 12.5014C140.293 12.864 140.827 13.3867 141.211 14.0694C141.605 14.7414 141.803 15.5254 141.803 16.4214ZM137.339 13.8454C136.773 13.8454 136.299 14.0054 135.915 14.3254C135.531 14.6454 135.296 15.0827 135.211 15.6374H139.451C139.365 15.0934 139.131 14.6614 138.747 14.3414C138.363 14.0107 137.893 13.8454 137.339 13.8454ZM149.017 20.2774C148.771 20.4587 148.467 20.5974 148.105 20.6934C147.753 20.7787 147.379 20.8214 146.985 20.8214C145.961 20.8214 145.166 20.56 144.601 20.0374C144.046 19.5147 143.769 18.7467 143.769 17.7334V14.1974H142.441V12.2774H143.769V10.1814H146.265V12.2774H148.409V14.1974H146.265V17.7014C146.265 18.064 146.355 18.3467 146.536 18.5494C146.729 18.7414 146.995 18.8374 147.337 18.8374C147.731 18.8374 148.067 18.7307 148.345 18.5174L149.017 20.2774ZM162.373 16.3894H164.453V18.1334H162.165L161.845 20.6934H160.037L160.357 18.1334H158.005L157.685 20.6934H155.893L156.213 18.1334H154.117V16.3894H156.421L156.757 13.7974H154.661V12.0534H156.965L157.285 9.49336H159.077L158.757 12.0534H161.109L161.429 9.49336H163.221L162.901 12.0534H164.981L164.997 13.7974H162.693L162.373 16.3894ZM160.565 16.3894L160.901 13.7974H158.549L158.213 16.3894H160.565ZM170.257 9.49336V20.6934H167.664V11.5734H165.425V9.49336H170.257Z" fill="white"/>
<g clip-path="url(#clip0_12_354)">
<path d="M13.2616 75.8379C12.6178 76.0418 12.017 76.3636 11.502 76.7928C11.8775 76.825 12.2423 76.8894 12.6071 76.9645C12.7359 76.9967 12.8753 77.0289 12.9612 77.1362C13.2509 77.5117 12.4354 78.016 12.6608 78.4345C12.7466 78.6061 12.9719 78.649 13.1543 78.6276C13.3367 78.5954 13.5084 78.5096 13.6908 78.4559C13.7766 78.4345 13.8625 78.4237 13.9376 78.4559C14.0985 78.5203 14.1414 78.7349 14.1092 78.9066C14.0878 79.0782 14.0234 79.2606 14.0771 79.4216C14.1522 79.6576 14.4311 79.7757 14.6886 79.7435C14.9462 79.7113 15.15 79.5611 15.3539 79.4216C15.5577 79.9581 15.7616 80.4945 15.9655 81.031C16.0191 81.1812 16.105 81.3529 16.2659 81.3744C16.3839 81.3958 16.4912 81.3207 16.5771 81.2563C17.0814 80.8701 17.4891 80.3765 17.7788 79.8078C17.929 79.5181 18.0256 79.1212 17.7788 78.8958L13.2616 75.8379Z" fill="#57852F"/>
<path d="M32.8213 76.7379C32.6389 76.931 32.4457 77.1242 32.2526 77.3173C30.5251 79.0018 28.4865 80.2572 26.2655 80.8581C25.9758 80.9332 25.6861 81.0083 25.3856 81.0619C25.3213 81.0727 25.2676 81.0834 25.2032 81.0941C24.8492 81.1585 24.4844 81.2014 24.1195 81.2229C22.1024 81.3624 20.0638 81.0512 18.1646 80.343C17.95 80.2679 17.7354 80.1821 17.5208 80.0855C16.6303 79.71 15.7826 79.2379 14.9779 78.6907C14.259 78.1971 13.5723 77.6284 12.9608 76.9954C12.7676 76.7915 12.5745 76.5877 12.4028 76.3731C12.2848 76.2336 12.156 76.0834 12.0487 75.9332C11.8985 75.7293 11.7483 75.5254 11.6088 75.3216C10.9221 74.2915 10.4178 73.1435 10.1711 71.931C9.94573 70.8151 9.95646 69.6778 10.1389 68.5619C10.1711 68.3902 10.2032 68.2186 10.2354 68.0469C10.6861 65.901 11.759 63.8409 13.0466 62.049L13.111 61.9632C13.1968 61.8559 13.2719 61.7379 13.3577 61.6306C14.817 59.6885 16.5874 57.9611 18.5831 56.5769C18.7333 56.4804 18.8728 56.3731 19.023 56.2765C19.7311 55.8151 20.4715 55.386 21.2226 55.0211C21.405 54.9353 21.5981 54.8387 21.7805 54.7529C23.6153 53.9267 25.568 53.401 27.5852 53.2508C27.6818 53.24 27.7891 53.24 27.8856 53.2293C27.9607 53.2293 28.0466 53.2186 28.1217 53.2186C28.2612 53.2078 28.4114 53.2078 28.5509 53.2078C31.5981 53.1757 33.7977 54.0984 35.611 56.5555C35.7397 56.7272 35.8685 56.9096 35.9865 57.092C35.9972 57.1027 35.9972 57.1134 36.008 57.1134C37.0058 58.6263 37.5959 60.343 37.832 62.1456C37.8642 62.3602 37.8856 62.5748 37.9071 62.7894C37.9608 63.4117 37.9715 64.034 37.95 64.6671C37.8856 66.416 37.5316 68.1971 36.9307 69.9139C36.8556 70.1177 36.7805 70.3323 36.6947 70.5362C36.6195 70.7293 36.5444 70.9224 36.4586 71.1048C35.568 73.1864 34.3341 75.1177 32.8213 76.7379Z" fill="#F6AA0A"/>
<path d="M33.9481 72.6509C32.9932 73.7775 31.8773 74.8183 30.6434 75.6659C30.3966 75.8376 30.1498 75.9878 29.9031 76.1487C29.3773 76.4599 28.8408 76.7389 28.2829 76.9749C27.9825 77.1037 27.682 77.211 27.3709 77.3183C26.3408 77.6509 25.2571 77.8333 24.152 77.8011C22.7142 77.7689 21.3086 77.3934 19.9996 76.7925C19.7958 76.696 19.5919 76.5994 19.3988 76.4921C18.7657 76.1595 18.1541 75.7625 17.5855 75.3333C16.2872 74.3569 15.1284 73.1015 14.3666 71.6745C14.2378 71.4277 14.1198 71.1809 14.0125 70.9342C13.8301 70.505 13.6906 70.0651 13.594 69.6144C13.5511 69.4105 13.5082 69.196 13.4867 68.9814C13.4546 68.7346 13.4331 68.4771 13.4331 68.2196C13.3902 66.1166 14.3022 64.1638 15.5683 62.447C15.6541 62.3183 15.7507 62.2002 15.8473 62.0822C16.2228 61.5994 16.6198 61.138 17.0275 60.6981C17.9717 59.6788 19.0125 58.6917 20.1391 57.7689C20.3966 57.5543 20.6541 57.3505 20.9116 57.1466C20.9867 57.0822 21.0726 57.0286 21.1477 56.9642C21.2872 56.8569 21.4267 56.7496 21.5661 56.653C23.4331 55.2796 25.4825 54.0994 27.5962 53.2625C27.6928 53.2518 27.8001 53.2518 27.8966 53.241C27.9717 53.241 28.0576 53.2303 28.1327 53.2303C28.2722 53.2196 28.4224 53.2196 28.5619 53.2196C31.6091 53.1874 33.8086 54.1101 35.622 56.5672C35.7507 56.7389 35.8795 56.9213 35.9975 57.1037C36.0082 57.1144 36.0082 57.1251 36.0189 57.1251C37.0168 58.638 37.6069 60.3548 37.843 62.1573C37.8752 62.3719 37.8966 62.5865 37.9181 62.8011C37.9717 63.4234 37.9825 64.0457 37.961 64.6788C37.6284 66.3633 36.9953 67.9942 36.1477 69.5178C36.0404 69.711 35.9331 69.8934 35.8151 70.0865C35.2571 70.9878 34.6241 71.8462 33.9481 72.6509Z" fill="#FCCC09"/>
<path d="M37.8973 62.7912C37.6183 62.6409 37.35 62.4907 37.0711 62.3512C36.32 61.965 35.5689 61.5894 34.7964 61.2354C34.6247 61.1603 34.453 61.0744 34.2921 60.9993C31.9852 59.9585 29.6033 59.0787 27.1784 58.3598C27.0174 58.3062 26.8565 58.2633 26.6848 58.2203C26.3522 58.1238 26.0196 58.0379 25.687 57.9414C24.1848 57.5444 22.6612 57.2118 21.1269 56.9435C21.0732 56.9328 21.0196 56.9221 20.9659 56.9113C20.805 56.8791 20.644 56.8577 20.4831 56.8255C20.1934 56.7826 19.9037 56.7289 19.6033 56.686C19.2599 56.6324 18.9166 56.5894 18.5625 56.5465C18.7127 56.45 18.8522 56.3427 19.0024 56.2461C19.5174 56.3105 20.0217 56.3856 20.526 56.4607C20.5582 56.4607 20.5904 56.4714 20.6119 56.4714C20.7728 56.4929 20.9337 56.5251 21.0947 56.5465C21.2449 56.568 21.3951 56.5894 21.5346 56.6216C23.305 56.9221 25.0646 57.3083 26.8028 57.7912C26.9638 57.8341 27.1247 57.877 27.2857 57.9306C29.0239 58.4242 30.7299 59.0036 32.4144 59.6688C33.0904 59.9371 33.7664 60.216 34.4316 60.5057C34.6033 60.5809 34.7749 60.656 34.9359 60.7311C35.9123 61.171 36.8672 61.6431 37.8114 62.1366C37.8543 62.362 37.8758 62.5766 37.8973 62.7912Z" fill="#F18A10"/>
<path d="M36.6843 70.5472C36.3946 70.3969 36.0942 70.236 35.8045 70.0858C34.6242 69.4742 33.4225 68.8948 32.2208 68.3369C32.092 68.2832 31.974 68.2188 31.8452 68.1652C31.7809 68.133 31.7272 68.1115 31.6628 68.0793C29.4418 67.0708 27.1886 66.148 24.9032 65.3111C24.7208 65.2467 24.5384 65.1823 24.3452 65.1072C22.6285 64.4956 20.8903 63.927 19.1414 63.4227C18.8946 63.3476 18.6478 63.2832 18.401 63.2081C18.2186 63.1544 18.0255 63.1008 17.8431 63.0471C17.092 62.8326 16.3195 62.6287 15.547 62.4356C14.7422 62.2424 13.9268 62.0707 13.1113 61.942C13.1972 61.8347 13.2723 61.7167 13.3581 61.6094C13.4761 61.6308 13.5942 61.6416 13.7122 61.663C14.4203 61.7703 15.1285 61.9098 15.8259 62.06C16.5663 62.221 17.3066 62.4034 18.0362 62.6072C18.2186 62.6609 18.4118 62.7038 18.5942 62.7574C19.0448 62.8862 19.5062 63.0042 19.9568 63.133C21.5019 63.5729 23.0255 64.0557 24.5384 64.5708C24.7208 64.6351 24.9032 64.6995 25.0963 64.7639C25.5791 64.9356 26.062 65.1072 26.5448 65.2896C28.3581 65.9656 30.15 66.6952 31.9096 67.4892C32.092 67.575 32.2744 67.6502 32.4568 67.736C33.6907 68.3047 34.9246 68.8948 36.1371 69.5064C36.4053 69.6351 36.6628 69.7746 36.9204 69.9141C36.8452 70.1287 36.7594 70.3326 36.6843 70.5472Z" fill="#F18A10"/>
<path d="M32.822 76.7398C32.6396 76.9329 32.4465 77.1261 32.2533 77.3192C31.4701 76.9222 30.6761 76.536 29.8821 76.1497C29.5495 75.9887 29.2276 75.8385 28.895 75.6776C28.7018 75.581 28.498 75.4952 28.3048 75.3986C26.2018 74.4222 24.0774 73.4995 21.9207 72.6411C21.7169 72.5553 21.513 72.4802 21.3091 72.3943C20.6761 72.1475 20.043 71.9008 19.3993 71.654C17.983 71.1175 16.5559 70.6025 15.1182 70.1196C14.9143 70.0445 14.6997 69.9802 14.4958 69.9158C14.1847 69.8085 13.8628 69.7119 13.5516 69.6046C13.101 69.4544 12.6396 69.3149 12.1782 69.1754C11.4915 68.9608 10.8048 68.757 10.1074 68.5638C10.1396 68.3922 10.1718 68.2205 10.204 68.0488C11.1589 68.2849 12.0924 68.5746 13.0044 68.8428C13.1439 68.8857 13.2941 68.9287 13.4336 68.9716C13.8735 69.1111 14.3134 69.2398 14.7533 69.39C14.9572 69.4544 15.1718 69.5188 15.3757 69.5939C17.4572 70.2699 19.528 70.9995 21.5666 71.7827C21.7705 71.8578 21.9744 71.9329 22.1782 72.0188C24.0452 72.7484 25.9014 73.5209 27.7362 74.3471C28.0259 74.4759 28.3156 74.6046 28.6053 74.7441C28.7984 74.8299 29.0023 74.9265 29.1954 75.0123C29.6675 75.2269 30.1289 75.4523 30.601 75.6669C31.3735 76.0102 32.1031 76.375 32.822 76.7398Z" fill="#F18A10"/>
<path d="M25.2038 81.0843C24.8497 81.1487 24.4849 81.1916 24.1201 81.2131C22.3926 80.4191 20.6437 79.6895 18.8626 79.0028C18.648 78.9169 18.4334 78.8418 18.2188 78.756C17.5321 78.4985 16.8347 78.2517 16.148 78.0156C15.0965 77.6508 14.0342 77.3075 12.972 76.9856C12.7789 76.7817 12.5857 76.5779 12.4141 76.3633C12.4248 76.3633 12.4355 76.374 12.4463 76.374C14.4741 76.9427 16.4913 77.5865 18.4763 78.3053C18.6909 78.3804 18.9055 78.4663 19.1201 78.5414C21.1694 79.3139 23.2081 80.1616 25.2038 81.0843Z" fill="#F18A10"/>
<path d="M26.2763 80.8593C25.9866 80.9344 25.6969 81.0095 25.3965 81.0631C26.0617 79.8185 26.727 78.5738 27.3707 77.3185C27.6926 76.6854 28.0145 76.0417 28.3257 75.4086C28.433 75.1833 28.5403 74.9687 28.6476 74.7434C29.7098 72.5545 30.7291 70.3335 31.6626 68.091C31.7484 67.8979 31.8235 67.7047 31.8986 67.5116C31.9523 67.3936 31.9952 67.2648 32.0488 67.1468C32.875 65.1296 33.6154 63.091 34.2806 61.0202C34.3343 60.8592 34.3879 60.6983 34.4415 60.5374C34.86 59.2283 35.2463 57.9086 35.6003 56.5781C35.7291 56.7498 35.8579 56.9322 35.9759 57.1146C35.6862 58.2412 35.375 59.3571 35.0317 60.4622C34.9995 60.5588 34.9673 60.6661 34.9351 60.7627C34.8815 60.9236 34.8278 61.0953 34.7849 61.2562C34.0875 63.4558 33.3042 65.6232 32.4458 67.7584C32.3707 67.9515 32.2849 68.1554 32.2098 68.3485C31.287 70.6017 30.2892 72.8228 29.2377 75.0223C29.1304 75.2477 29.0231 75.473 28.9158 75.6876C28.9051 75.7198 28.8836 75.752 28.8729 75.7734C28.6797 76.1811 28.4759 76.5781 28.2827 76.9751C27.6282 78.2734 26.9523 79.5717 26.2763 80.8593Z" fill="#F18A10"/>
<path d="M18.1653 80.3334C17.9507 80.2583 17.7361 80.1725 17.5215 80.0759C17.7575 79.636 17.9936 79.2068 18.2189 78.7669C18.294 78.6167 18.3799 78.4665 18.455 78.3055C18.7661 77.6939 19.0773 77.0824 19.3884 76.4708C20.0644 75.1188 20.7082 73.7562 21.3305 72.3828C21.4271 72.1789 21.5129 71.9751 21.6095 71.7712C22.5108 69.7433 23.3584 67.6939 24.1524 65.6124C24.2168 65.4407 24.2811 65.269 24.3455 65.0974C24.4099 64.9257 24.4743 64.754 24.5386 64.5716C25.3112 62.4686 26.0301 60.3549 26.6846 58.209C26.7275 58.0695 26.7704 57.93 26.8133 57.7905C26.8562 57.6403 26.9099 57.4901 26.9528 57.3291C27.3605 55.9557 27.7575 54.5823 28.1223 53.1982C28.2618 53.1875 28.412 53.1875 28.5515 53.1875C28.5086 53.3484 28.4657 53.5094 28.4335 53.6811C28.0901 55.1081 27.7146 56.5137 27.3069 57.93C27.264 58.0695 27.221 58.209 27.1781 58.3592C27.1674 58.4021 27.1567 58.445 27.1352 58.4879C26.5129 60.6017 25.8262 62.6939 25.0859 64.7648C25.0215 64.9364 24.9571 65.1188 24.8927 65.2905C24.0665 67.5545 23.176 69.7862 22.2103 71.9965C22.1245 72.2004 22.0279 72.415 21.9314 72.6188C21.5773 73.4236 21.2017 74.2283 20.8262 75.0223C20.5472 75.6017 20.2683 76.1811 19.9893 76.7605C19.6996 77.3506 19.3992 77.9407 19.0987 78.5308C19.0236 78.6811 18.9378 78.842 18.8627 78.9922C18.6374 79.4536 18.4013 79.8935 18.1653 80.3334Z" fill="#F18A10"/>
<path d="M12.0493 75.9351C11.8991 75.7313 11.7489 75.5274 11.6094 75.3235C12.4356 73.8643 13.2295 72.4051 14.0021 70.9244C14.1738 70.5918 14.3454 70.2592 14.5278 69.9158C14.6137 69.7441 14.7102 69.5617 14.7961 69.3901C15.6759 67.6626 16.5235 65.9244 17.339 64.1647C17.5107 63.7892 17.6823 63.4244 17.854 63.0489C17.9184 62.9094 17.9828 62.7592 18.0471 62.6197C18.766 61.0102 19.4635 59.3901 20.1287 57.7592C20.1502 57.7055 20.1716 57.6626 20.1931 57.6089C20.3004 57.3514 20.3969 57.1047 20.5042 56.8471C20.5472 56.7291 20.6008 56.6111 20.6437 56.4931C20.8368 55.9995 21.0407 55.5059 21.2338 55.0124C21.4162 54.9265 21.6094 54.83 21.7918 54.7441C21.7703 54.7978 21.7489 54.8622 21.7274 54.9158C21.5343 55.463 21.3304 56.0102 21.1265 56.5574C21.0836 56.6755 21.0407 56.7935 20.9871 56.9115C20.9656 56.9759 20.9334 57.051 20.912 57.1261C20.7081 57.6519 20.5042 58.1669 20.3004 58.6926C19.7532 60.0553 19.1952 61.4072 18.6051 62.7592C18.5407 62.9094 18.4763 63.0489 18.412 63.1991C17.4677 65.345 16.4699 67.4802 15.4291 69.5832C15.3433 69.7656 15.2467 69.9373 15.1609 70.1197C14.9034 70.6347 14.6351 71.1497 14.3776 71.6647C14.3669 71.6755 14.3669 71.6862 14.3562 71.7077C13.5944 73.124 12.8326 74.5403 12.0493 75.9351Z" fill="#F18A10"/>
<path d="M40.3749 58.6286C39.0122 58.1243 38.2075 58.3711 36.8556 58.811C35.5036 59.2617 34.6453 58.5535 33.4006 57.9419C32.274 57.384 31.2332 56.9226 30.289 56.0642C28.8513 54.7552 28.9264 53.7037 29.6882 52.1586C30.4607 50.5921 29.5487 48.8325 28.3899 47.6737C27.2096 46.4827 25.6538 45.7316 24.1517 44.9805C23.8942 44.8518 23.583 44.5835 23.7118 44.326C23.7654 44.2187 23.8727 44.1651 23.98 44.1114C26.9843 42.6415 30.9543 43.5213 33.0358 46.1393C33.4757 45.0986 33.2719 43.8539 32.6925 42.8775C32.1131 41.9011 31.1903 41.1715 30.2032 40.6136C29.9457 40.4741 29.6774 40.3239 29.5487 40.0556C29.3985 39.723 29.5701 39.3046 29.8491 39.0792C30.1388 38.8539 30.5144 38.7681 30.8792 38.7252C34.0551 38.3496 37.3277 40.6887 37.9929 43.8217C39.3019 42.3518 41.4478 41.8368 43.3899 42.1479C45.332 42.4591 47.0809 43.5106 48.6045 44.7445C46.5659 44.9162 44.6023 45.8174 43.1538 47.2659C46.3298 48.135 48.9908 50.7102 49.9779 53.8539C47.3384 53.3389 44.5916 53.3926 41.9736 53.9934C44.8169 55.4205 46.4908 58.8539 45.8684 61.9655C44.2912 60.5063 42.4028 59.3689 40.3749 58.6286Z" fill="#90BF27"/>
<path d="M39.9883 50.6991C43.3896 50.0339 47.9604 50.7849 49.8917 53.8321C49.9239 53.8429 49.9561 53.8429 49.999 53.8536C49.0119 50.7098 46.3617 48.1347 43.175 47.2656C43.2823 47.1583 40.9432 49.2828 39.9883 50.6991Z" fill="#57852F"/>
<path d="M36.5769 44.154C36.8451 44.669 36.8451 45.227 36.6627 45.8064C37.1027 45.0338 37.3387 44.5939 38.0361 43.7999C37.1241 40.3986 33.9803 38.3707 30.9009 38.7355C30.5361 38.7785 30.1606 38.8643 29.8709 39.0896C29.8065 39.1433 29.7529 39.1969 29.6992 39.2613C32.6177 39.4866 35.2572 41.5682 36.5769 44.154Z" fill="#57852F"/>
<path d="M31.8452 47.0504C32.0706 47.2972 32.2208 47.6405 32.371 47.9839C32.4032 48.1555 32.4246 48.3165 32.3925 48.4774C32.7358 47.6512 32.6822 47.4688 33.0577 46.1169C30.9332 43.6598 26.9204 42.662 24.0019 44.0997C23.9912 44.1105 23.9804 44.1105 23.959 44.1212C26.8023 43.7886 29.6564 45.2693 31.8452 47.0504Z" fill="#57852F"/>
<path d="M41.9957 53.9922C40.5794 54.0888 39.5493 55.5051 38.3047 56.1167C42.1995 54.8935 44.3455 58.9171 45.7939 61.8785C45.8261 61.8999 45.8476 61.9321 45.8798 61.9536C46.5128 58.8527 44.839 55.4192 41.9957 53.9922Z" fill="#57852F"/>
<path d="M28.948 53.3834C28.6905 54.2633 28.9802 55.0251 29.506 55.7332C30.0639 56.4843 30.6969 57.171 31.3729 57.8148C32.7785 59.1345 34.5274 60.0143 36.4587 60.2182C37.2957 60.304 37.8214 59.0379 37.1669 58.5122C35.9223 57.5143 34.6776 56.5058 33.4115 55.5401C32.5532 54.8856 31.6948 54.2203 30.8042 53.6088C30.5145 53.4156 30.2248 53.2225 29.9244 53.0508C29.8386 52.9972 29.7527 52.9542 29.6562 52.9006C29.4738 52.7933 29.1948 52.5573 29.6884 52.9435C28.9802 52.3856 27.9716 53.3834 28.6905 53.9414C28.4223 53.7268 28.6691 53.9199 28.7549 54.0165C28.8193 54.0809 28.8836 54.156 28.948 54.2203C29.1841 54.4671 29.4309 54.7032 29.6669 54.9392C30.4394 55.6796 31.2978 56.3448 32.124 57.0315C33.315 58.0186 34.5381 58.9628 35.7613 59.9178C35.9974 59.3491 36.2334 58.7804 36.4695 58.2118C35.021 58.0723 33.7871 57.3105 32.6068 56.5058C31.9952 56.0873 31.4373 55.5937 30.8686 55.1109C30.3321 54.6603 29.5811 54.0809 29.4201 53.3834C29.3665 53.1367 29.0124 53.1581 28.948 53.3834Z" fill="#57852F"/>
</g>
<g clip-path="url(#clip1_12_354)">
<path d="M63.2616 75.8379C62.6178 76.0418 62.017 76.3636 61.502 76.7928C61.8775 76.825 62.2423 76.8894 62.6071 76.9645C62.7359 76.9967 62.8753 77.0289 62.9612 77.1362C63.2509 77.5117 62.4354 78.016 62.6608 78.4345C62.7466 78.6061 62.9719 78.649 63.1543 78.6276C63.3367 78.5954 63.5084 78.5096 63.6908 78.4559C63.7766 78.4345 63.8625 78.4237 63.9376 78.4559C64.0985 78.5203 64.1414 78.7349 64.1092 78.9066C64.0878 79.0782 64.0234 79.2606 64.0771 79.4216C64.1522 79.6576 64.4311 79.7757 64.6886 79.7435C64.9462 79.7113 65.15 79.5611 65.3539 79.4216C65.5577 79.9581 65.7616 80.4945 65.9655 81.031C66.0191 81.1812 66.105 81.3529 66.2659 81.3744C66.3839 81.3958 66.4912 81.3207 66.5771 81.2563C67.0814 80.8701 67.4891 80.3765 67.7788 79.8078C67.929 79.5181 68.0256 79.1212 67.7788 78.8958L63.2616 75.8379Z" fill="#57852F"/>
<path d="M82.8213 76.7379C82.6389 76.931 82.4457 77.1242 82.2526 77.3173C80.5251 79.0018 78.4865 80.2572 76.2655 80.8581C75.9758 80.9332 75.6861 81.0083 75.3856 81.0619C75.3213 81.0727 75.2676 81.0834 75.2032 81.0941C74.8492 81.1585 74.4844 81.2014 74.1195 81.2229C72.1024 81.3624 70.0638 81.0512 68.1646 80.343C67.95 80.2679 67.7354 80.1821 67.5208 80.0855C66.6303 79.71 65.7826 79.2379 64.9779 78.6907C64.259 78.1971 63.5723 77.6284 62.9608 76.9954C62.7676 76.7915 62.5745 76.5877 62.4028 76.3731C62.2848 76.2336 62.156 76.0834 62.0487 75.9332C61.8985 75.7293 61.7483 75.5254 61.6088 75.3216C60.9221 74.2915 60.4178 73.1435 60.1711 71.931C59.9457 70.8151 59.9565 69.6778 60.1389 68.5619C60.1711 68.3902 60.2032 68.2186 60.2354 68.0469C60.6861 65.901 61.759 63.8409 63.0466 62.049L63.111 61.9632C63.1968 61.8559 63.2719 61.7379 63.3577 61.6306C64.817 59.6885 66.5874 57.9611 68.5831 56.5769C68.7333 56.4804 68.8728 56.3731 69.023 56.2765C69.7311 55.8151 70.4715 55.386 71.2226 55.0211C71.405 54.9353 71.5981 54.8387 71.7805 54.7529C73.6153 53.9267 75.568 53.401 77.5852 53.2508C77.6818 53.24 77.7891 53.24 77.8856 53.2293C77.9607 53.2293 78.0466 53.2186 78.1217 53.2186C78.2612 53.2078 78.4114 53.2078 78.5509 53.2078C81.5981 53.1757 83.7977 54.0984 85.611 56.5555C85.7397 56.7272 85.8685 56.9096 85.9865 57.092C85.9972 57.1027 85.9972 57.1134 86.008 57.1134C87.0058 58.6263 87.5959 60.343 87.832 62.1456C87.8642 62.3602 87.8856 62.5748 87.9071 62.7894C87.9608 63.4117 87.9715 64.034 87.95 64.6671C87.8856 66.416 87.5316 68.1971 86.9307 69.9139C86.8556 70.1177 86.7805 70.3323 86.6947 70.5362C86.6195 70.7293 86.5444 70.9224 86.4586 71.1048C85.568 73.1864 84.3341 75.1177 82.8213 76.7379Z" fill="#F6AA0A"/>
<path d="M83.9481 72.6509C82.9932 73.7775 81.8773 74.8183 80.6434 75.6659C80.3966 75.8376 80.1498 75.9878 79.9031 76.1487C79.3773 76.4599 78.8408 76.7389 78.2829 76.9749C77.9825 77.1037 77.682 77.211 77.3709 77.3183C76.3408 77.6509 75.2571 77.8333 74.152 77.8011C72.7142 77.7689 71.3086 77.3934 69.9996 76.7925C69.7958 76.696 69.5919 76.5994 69.3988 76.4921C68.7657 76.1595 68.1541 75.7625 67.5855 75.3333C66.2872 74.3569 65.1284 73.1015 64.3666 71.6745C64.2378 71.4277 64.1198 71.1809 64.0125 70.9342C63.8301 70.505 63.6906 70.0651 63.594 69.6144C63.5511 69.4105 63.5082 69.196 63.4867 68.9814C63.4546 68.7346 63.4331 68.4771 63.4331 68.2196C63.3902 66.1166 64.3022 64.1638 65.5683 62.447C65.6541 62.3183 65.7507 62.2002 65.8473 62.0822C66.2228 61.5994 66.6198 61.138 67.0275 60.6981C67.9717 59.6788 69.0125 58.6917 70.1391 57.7689C70.3966 57.5543 70.6541 57.3505 70.9116 57.1466C70.9867 57.0822 71.0726 57.0286 71.1477 56.9642C71.2872 56.8569 71.4267 56.7496 71.5661 56.653C73.4331 55.2796 75.4825 54.0994 77.5962 53.2625C77.6928 53.2518 77.8001 53.2518 77.8966 53.241C77.9717 53.241 78.0576 53.2303 78.1327 53.2303C78.2722 53.2196 78.4224 53.2196 78.5619 53.2196C81.6091 53.1874 83.8086 54.1101 85.622 56.5672C85.7507 56.7389 85.8795 56.9213 85.9975 57.1037C86.0082 57.1144 86.0082 57.1251 86.0189 57.1251C87.0168 58.638 87.6069 60.3548 87.843 62.1573C87.8752 62.3719 87.8966 62.5865 87.9181 62.8011C87.9717 63.4234 87.9825 64.0457 87.961 64.6788C87.6284 66.3633 86.9953 67.9942 86.1477 69.5178C86.0404 69.711 85.9331 69.8934 85.8151 70.0865C85.2571 70.9878 84.6241 71.8462 83.9481 72.6509Z" fill="#FCCC09"/>
<path d="M87.8973 62.7912C87.6183 62.6409 87.35 62.4907 87.0711 62.3512C86.32 61.965 85.5689 61.5894 84.7964 61.2354C84.6247 61.1603 84.453 61.0744 84.2921 60.9993C81.9852 59.9585 79.6033 59.0787 77.1784 58.3598C77.0174 58.3062 76.8565 58.2633 76.6848 58.2203C76.3522 58.1238 76.0196 58.0379 75.687 57.9414C74.1848 57.5444 72.6612 57.2118 71.1269 56.9435C71.0732 56.9328 71.0196 56.9221 70.9659 56.9113C70.805 56.8791 70.644 56.8577 70.4831 56.8255C70.1934 56.7826 69.9037 56.7289 69.6033 56.686C69.2599 56.6324 68.9166 56.5894 68.5625 56.5465C68.7127 56.45 68.8522 56.3427 69.0024 56.2461C69.5174 56.3105 70.0217 56.3856 70.526 56.4607C70.5582 56.4607 70.5904 56.4714 70.6119 56.4714C70.7728 56.4929 70.9337 56.5251 71.0947 56.5465C71.2449 56.568 71.3951 56.5894 71.5346 56.6216C73.305 56.9221 75.0646 57.3083 76.8028 57.7912C76.9638 57.8341 77.1247 57.877 77.2857 57.9306C79.0239 58.4242 80.7299 59.0036 82.4144 59.6688C83.0904 59.9371 83.7664 60.216 84.4316 60.5057C84.6033 60.5809 84.7749 60.656 84.9359 60.7311C85.9123 61.171 86.8672 61.6431 87.8114 62.1366C87.8543 62.362 87.8758 62.5766 87.8973 62.7912Z" fill="#F18A10"/>
<path d="M86.6843 70.5472C86.3946 70.3969 86.0942 70.236 85.8045 70.0858C84.6242 69.4742 83.4225 68.8948 82.2208 68.3369C82.092 68.2832 81.974 68.2188 81.8452 68.1652C81.7809 68.133 81.7272 68.1115 81.6628 68.0793C79.4418 67.0708 77.1886 66.148 74.9032 65.3111C74.7208 65.2467 74.5384 65.1823 74.3452 65.1072C72.6285 64.4956 70.8903 63.927 69.1414 63.4227C68.8946 63.3476 68.6478 63.2832 68.401 63.2081C68.2186 63.1544 68.0255 63.1008 67.8431 63.0471C67.092 62.8326 66.3195 62.6287 65.547 62.4356C64.7422 62.2424 63.9268 62.0707 63.1113 61.942C63.1972 61.8347 63.2723 61.7167 63.3581 61.6094C63.4761 61.6308 63.5942 61.6416 63.7122 61.663C64.4203 61.7703 65.1285 61.9098 65.8259 62.06C66.5663 62.221 67.3066 62.4034 68.0362 62.6072C68.2186 62.6609 68.4118 62.7038 68.5942 62.7574C69.0448 62.8862 69.5062 63.0042 69.9568 63.133C71.5019 63.5729 73.0255 64.0557 74.5384 64.5708C74.7208 64.6351 74.9032 64.6995 75.0963 64.7639C75.5791 64.9356 76.062 65.1072 76.5448 65.2896C78.3581 65.9656 80.15 66.6952 81.9096 67.4892C82.092 67.575 82.2744 67.6502 82.4568 67.736C83.6907 68.3047 84.9246 68.8948 86.1371 69.5064C86.4053 69.6351 86.6628 69.7746 86.9204 69.9141C86.8452 70.1287 86.7594 70.3326 86.6843 70.5472Z" fill="#F18A10"/>
<path d="M82.822 76.7398C82.6396 76.9329 82.4465 77.1261 82.2533 77.3192C81.4701 76.9222 80.6761 76.536 79.8821 76.1497C79.5495 75.9887 79.2276 75.8385 78.895 75.6776C78.7018 75.581 78.498 75.4952 78.3048 75.3986C76.2018 74.4222 74.0774 73.4995 71.9207 72.6411C71.7169 72.5553 71.513 72.4802 71.3091 72.3943C70.6761 72.1475 70.043 71.9008 69.3993 71.654C67.983 71.1175 66.5559 70.6025 65.1182 70.1196C64.9143 70.0445 64.6997 69.9802 64.4958 69.9158C64.1847 69.8085 63.8628 69.7119 63.5516 69.6046C63.101 69.4544 62.6396 69.3149 62.1782 69.1754C61.4915 68.9608 60.8048 68.757 60.1074 68.5638C60.1396 68.3922 60.1718 68.2205 60.204 68.0488C61.1589 68.2849 62.0924 68.5746 63.0044 68.8428C63.1439 68.8857 63.2941 68.9287 63.4336 68.9716C63.8735 69.1111 64.3134 69.2398 64.7533 69.39C64.9572 69.4544 65.1718 69.5188 65.3757 69.5939C67.4572 70.2699 69.528 70.9995 71.5666 71.7827C71.7705 71.8578 71.9744 71.9329 72.1782 72.0188C74.0452 72.7484 75.9014 73.5209 77.7362 74.3471C78.0259 74.4759 78.3156 74.6046 78.6053 74.7441C78.7984 74.8299 79.0023 74.9265 79.1954 75.0123C79.6675 75.2269 80.1289 75.4523 80.601 75.6669C81.3735 76.0102 82.1031 76.375 82.822 76.7398Z" fill="#F18A10"/>
<path d="M75.2038 81.0843C74.8497 81.1487 74.4849 81.1916 74.1201 81.2131C72.3926 80.4191 70.6437 79.6895 68.8626 79.0028C68.648 78.9169 68.4334 78.8418 68.2188 78.756C67.5321 78.4985 66.8347 78.2517 66.148 78.0156C65.0965 77.6508 64.0342 77.3075 62.972 76.9856C62.7789 76.7817 62.5857 76.5779 62.4141 76.3633C62.4248 76.3633 62.4355 76.374 62.4463 76.374C64.4741 76.9427 66.4913 77.5865 68.4763 78.3053C68.6909 78.3804 68.9055 78.4663 69.1201 78.5414C71.1694 79.3139 73.2081 80.1616 75.2038 81.0843Z" fill="#F18A10"/>
<path d="M76.2763 80.8593C75.9866 80.9344 75.6969 81.0095 75.3965 81.0631C76.0617 79.8185 76.727 78.5738 77.3707 77.3185C77.6926 76.6854 78.0145 76.0417 78.3257 75.4086C78.433 75.1833 78.5403 74.9687 78.6476 74.7434C79.7098 72.5545 80.7291 70.3335 81.6626 68.091C81.7484 67.8979 81.8235 67.7047 81.8986 67.5116C81.9523 67.3936 81.9952 67.2648 82.0488 67.1468C82.875 65.1296 83.6154 63.091 84.2806 61.0202C84.3343 60.8592 84.3879 60.6983 84.4415 60.5374C84.86 59.2283 85.2463 57.9086 85.6003 56.5781C85.7291 56.7498 85.8579 56.9322 85.9759 57.1146C85.6862 58.2412 85.375 59.3571 85.0317 60.4622C84.9995 60.5588 84.9673 60.6661 84.9351 60.7627C84.8815 60.9236 84.8278 61.0953 84.7849 61.2562C84.0875 63.4558 83.3042 65.6232 82.4458 67.7584C82.3707 67.9515 82.2849 68.1554 82.2098 68.3485C81.287 70.6017 80.2892 72.8228 79.2377 75.0223C79.1304 75.2477 79.0231 75.473 78.9158 75.6876C78.9051 75.7198 78.8836 75.752 78.8729 75.7734C78.6797 76.1811 78.4759 76.5781 78.2827 76.9751C77.6282 78.2734 76.9523 79.5717 76.2763 80.8593Z" fill="#F18A10"/>
<path d="M68.1653 80.3334C67.9507 80.2583 67.7361 80.1725 67.5215 80.0759C67.7575 79.636 67.9936 79.2068 68.2189 78.7669C68.294 78.6167 68.3799 78.4665 68.455 78.3055C68.7661 77.6939 69.0773 77.0824 69.3884 76.4708C70.0644 75.1188 70.7082 73.7562 71.3305 72.3828C71.4271 72.1789 71.5129 71.9751 71.6095 71.7712C72.5108 69.7433 73.3584 67.6939 74.1524 65.6124C74.2168 65.4407 74.2811 65.269 74.3455 65.0974C74.4099 64.9257 74.4743 64.754 74.5386 64.5716C75.3112 62.4686 76.0301 60.3549 76.6846 58.209C76.7275 58.0695 76.7704 57.93 76.8133 57.7905C76.8562 57.6403 76.9099 57.4901 76.9528 57.3291C77.3605 55.9557 77.7575 54.5823 78.1223 53.1982C78.2618 53.1875 78.412 53.1875 78.5515 53.1875C78.5086 53.3484 78.4657 53.5094 78.4335 53.6811C78.0901 55.1081 77.7146 56.5137 77.3069 57.93C77.264 58.0695 77.221 58.209 77.1781 58.3592C77.1674 58.4021 77.1567 58.445 77.1352 58.4879C76.5129 60.6017 75.8262 62.6939 75.0859 64.7648C75.0215 64.9364 74.9571 65.1188 74.8927 65.2905C74.0665 67.5545 73.176 69.7862 72.2103 71.9965C72.1245 72.2004 72.0279 72.415 71.9314 72.6188C71.5773 73.4236 71.2017 74.2283 70.8262 75.0223C70.5472 75.6017 70.2683 76.1811 69.9893 76.7605C69.6996 77.3506 69.3992 77.9407 69.0987 78.5308C69.0236 78.6811 68.9378 78.842 68.8627 78.9922C68.6374 79.4536 68.4013 79.8935 68.1653 80.3334Z" fill="#F18A10"/>
<path d="M62.0493 75.9351C61.8991 75.7313 61.7489 75.5274 61.6094 75.3235C62.4356 73.8643 63.2295 72.4051 64.0021 70.9244C64.1738 70.5918 64.3454 70.2592 64.5278 69.9158C64.6137 69.7441 64.7102 69.5617 64.7961 69.3901C65.6759 67.6626 66.5235 65.9244 67.339 64.1647C67.5107 63.7892 67.6823 63.4244 67.854 63.0489C67.9184 62.9094 67.9828 62.7592 68.0471 62.6197C68.766 61.0102 69.4635 59.3901 70.1287 57.7592C70.1502 57.7055 70.1716 57.6626 70.1931 57.6089C70.3004 57.3514 70.3969 57.1047 70.5042 56.8471C70.5472 56.7291 70.6008 56.6111 70.6437 56.4931C70.8368 55.9995 71.0407 55.5059 71.2338 55.0124C71.4162 54.9265 71.6094 54.83 71.7918 54.7441C71.7703 54.7978 71.7489 54.8622 71.7274 54.9158C71.5343 55.463 71.3304 56.0102 71.1265 56.5574C71.0836 56.6755 71.0407 56.7935 70.9871 56.9115C70.9656 56.9759 70.9334 57.051 70.912 57.1261C70.7081 57.6519 70.5042 58.1669 70.3004 58.6926C69.7532 60.0553 69.1952 61.4072 68.6051 62.7592C68.5407 62.9094 68.4763 63.0489 68.412 63.1991C67.4677 65.345 66.4699 67.4802 65.4291 69.5832C65.3433 69.7656 65.2467 69.9373 65.1609 70.1197C64.9034 70.6347 64.6351 71.1497 64.3776 71.6647C64.3669 71.6755 64.3669 71.6862 64.3562 71.7077C63.5944 73.124 62.8326 74.5403 62.0493 75.9351Z" fill="#F18A10"/>
<path d="M90.3749 58.6286C89.0122 58.1243 88.2075 58.3711 86.8555 58.811C85.5036 59.2617 84.6452 58.5535 83.4006 57.9419C82.274 57.384 81.2332 56.9226 80.289 56.0642C78.8512 54.7552 78.9264 53.7037 79.6882 52.1586C80.4607 50.5921 79.5487 48.8325 78.3899 47.6737C77.2096 46.4827 75.6538 45.7316 74.1517 44.9805C73.8942 44.8518 73.583 44.5835 73.7118 44.326C73.7654 44.2187 73.8727 44.1651 73.98 44.1114C76.9843 42.6415 80.9542 43.5213 83.0358 46.1393C83.4757 45.0986 83.2718 43.8539 82.6924 42.8775C82.113 41.9011 81.1903 41.1715 80.2032 40.6136C79.9457 40.4741 79.6774 40.3239 79.5487 40.0556C79.3985 39.723 79.5701 39.3046 79.8491 39.0792C80.1388 38.8539 80.5143 38.7681 80.8791 38.7252C84.0551 38.3496 87.3276 40.6887 87.9929 43.8217C89.3019 42.3518 91.4478 41.8368 93.3899 42.1479C95.3319 42.4591 97.0809 43.5106 98.6045 44.7445C96.5658 44.9162 94.6023 45.8174 93.1538 47.2659C96.3298 48.135 98.9907 50.7102 99.9779 53.8539C97.3384 53.3389 94.5916 53.3926 91.9736 53.9934C94.8169 55.4205 96.4907 58.8539 95.8684 61.9655C94.2912 60.5063 92.4028 59.3689 90.3749 58.6286Z" fill="#90BF27"/>
<path d="M89.9883 50.6991C93.3896 50.0339 97.9604 50.7849 99.8917 53.8321C99.9239 53.8429 99.9561 53.8429 99.999 53.8536C99.0119 50.7098 96.3617 48.1347 93.175 47.2656C93.2823 47.1583 90.9432 49.2828 89.9883 50.6991Z" fill="#57852F"/>
<path d="M86.5769 44.154C86.8451 44.669 86.8451 45.227 86.6627 45.8064C87.1027 45.0338 87.3387 44.5939 88.0361 43.7999C87.1241 40.3986 83.9803 38.3707 80.9009 38.7355C80.5361 38.7785 80.1606 38.8643 79.8709 39.0896C79.8065 39.1433 79.7529 39.1969 79.6992 39.2613C82.6177 39.4866 85.2572 41.5682 86.5769 44.154Z" fill="#57852F"/>
<path d="M81.8452 47.0504C82.0706 47.2972 82.2208 47.6405 82.371 47.9839C82.4032 48.1555 82.4246 48.3165 82.3925 48.4774C82.7358 47.6512 82.6822 47.4688 83.0577 46.1169C80.9332 43.6598 76.9204 42.662 74.0019 44.0997C73.9912 44.1105 73.9804 44.1105 73.959 44.1212C76.8023 43.7886 79.6564 45.2693 81.8452 47.0504Z" fill="#57852F"/>
<path d="M91.9957 53.9922C90.5794 54.0888 89.5493 55.5051 88.3047 56.1167C92.1995 54.8935 94.3455 58.9171 95.7939 61.8785C95.8261 61.8999 95.8476 61.9321 95.8798 61.9536C96.5128 58.8527 94.839 55.4192 91.9957 53.9922Z" fill="#57852F"/>
<path d="M78.948 53.3834C78.6905 54.2633 78.9802 55.0251 79.506 55.7332C80.0639 56.4843 80.6969 57.171 81.3729 57.8148C82.7785 59.1345 84.5274 60.0143 86.4587 60.2182C87.2957 60.304 87.8214 59.0379 87.1669 58.5122C85.9223 57.5143 84.6776 56.5058 83.4115 55.5401C82.5532 54.8856 81.6948 54.2203 80.8042 53.6088C80.5145 53.4156 80.2248 53.2225 79.9244 53.0508C79.8386 52.9972 79.7527 52.9542 79.6562 52.9006C79.4738 52.7933 79.1948 52.5573 79.6884 52.9435C78.9802 52.3856 77.9716 53.3834 78.6905 53.9414C78.4223 53.7268 78.6691 53.9199 78.7549 54.0165C78.8193 54.0809 78.8836 54.156 78.948 54.2203C79.1841 54.4671 79.4309 54.7032 79.6669 54.9392C80.4394 55.6796 81.2978 56.3448 82.124 57.0315C83.315 58.0186 84.5381 58.9628 85.7613 59.9178C85.9974 59.3491 86.2334 58.7804 86.4695 58.2118C85.021 58.0723 83.7871 57.3105 82.6068 56.5058C81.9952 56.0873 81.4373 55.5937 80.8686 55.1109C80.3321 54.6603 79.5811 54.0809 79.4201 53.3834C79.3665 53.1367 79.0124 53.1581 78.948 53.3834Z" fill="#57852F"/>
</g>
<g clip-path="url(#clip2_12_354)">
<path d="M127.442 50.6976C127.442 50.6976 111.654 59.8986 110 42.1608C110 42.1608 121.274 37.581 127.442 50.6976Z" fill="#619631"/>
<path d="M111.889 43.2527C111.941 43.2527 111.941 43.1697 111.889 43.1697C111.836 43.1697 111.836 43.2527 111.889 43.2527Z" fill="#5D8C30"/>
<path d="M112.23 43.6411C114.645 45.08 117.165 46.3253 119.659 47.5982C120.892 48.2208 122.126 48.8434 123.373 49.4522C124.003 49.7566 124.633 50.0333 125.263 50.2962C125.853 50.5453 126.47 50.9188 127.126 50.7113C127.376 50.6283 127.428 50.3239 127.31 50.1164C126.969 49.5352 126.26 49.383 125.683 49.1617C125.04 48.9126 124.397 48.6636 123.74 48.4145C122.441 47.9303 121.142 47.446 119.856 46.9202C117.296 45.8687 114.803 44.665 112.283 43.5166C112.204 43.4612 112.152 43.5996 112.23 43.6411Z" fill="#5D8C30"/>
<path d="M115.958 42.355C115.972 43.0468 116.247 43.7248 116.497 44.3613C116.733 44.9977 116.995 45.731 117.402 46.2568C117.533 46.4228 117.796 46.2983 117.73 46.0769C117.507 45.399 117.113 44.7763 116.838 44.126C116.588 43.5173 116.405 42.867 116.063 42.2997C116.024 42.272 115.945 42.2997 115.958 42.355Z" fill="#5D8C30"/>
<path d="M113.413 48.4297C114.148 48.0007 114.909 47.6687 115.696 47.3366C116.326 47.0737 117.166 46.5479 117.875 46.6586C118.242 46.714 118.347 46.1605 117.98 46.0775C117.219 45.8838 116.287 46.5479 115.631 46.8662C114.856 47.2398 113.846 47.5857 113.308 48.3051C113.242 48.3881 113.334 48.485 113.413 48.4297Z" fill="#5D8C30"/>
<path d="M120 43.9333C120.079 44.6251 120.367 45.3169 120.525 45.9948C120.709 46.742 120.84 47.503 120.997 48.2639C121.05 48.5407 121.522 48.4438 121.47 48.1533C121.352 47.4061 121.155 46.659 120.919 45.9395C120.709 45.2754 120.459 44.459 120.039 43.9056C120.039 43.8918 120 43.9056 120 43.9333Z" fill="#5D8C30"/>
<path d="M116.877 50.4481C117.612 50.0883 118.307 49.6318 119.042 49.2305C119.856 48.7878 120.683 48.4142 121.549 48.0821C121.93 47.9299 121.693 47.3073 121.339 47.4872C119.777 48.262 118.071 49.0922 116.798 50.3236C116.733 50.3651 116.811 50.4758 116.877 50.4481Z" fill="#5D8C30"/>
<path d="M126.694 44.7213C127.337 44.5829 128.032 44.7628 128.518 45.2055C127.77 45.925 127.783 47.1564 127.783 48.1249C127.783 48.7614 128.794 53.8669 127.967 53.8254C126.575 53.7562 126.195 44.8319 126.694 44.7213Z" fill="#666720"/>
<path d="M141.866 76.5699C141.393 77.0265 140.908 77.4554 140.409 77.8566C140.16 78.0642 139.91 78.2579 139.648 78.4378C137.443 80.0842 134.595 81.8137 131.865 80.5685C131.616 80.5132 131.367 80.4717 131.117 80.4301C130.868 80.3886 130.618 80.361 130.356 80.3471C129.477 80.3056 128.584 80.5408 127.81 80.8591C127.469 80.9559 127.127 81.0389 126.786 81.1081C125.408 81.3987 123.991 81.4817 122.626 81.2741C122.284 81.2188 121.943 81.1635 121.615 81.0666C119.003 80.1534 116.536 78.4793 114.476 76.4869C114.279 76.2793 114.069 76.0718 113.885 75.8642C109.961 71.5474 109.685 63.8961 112.297 58.8321C112.691 58.0573 113.111 57.3655 113.57 56.7705C114.725 55.2486 116.142 54.2524 118.282 53.6574C120.381 53.0763 122.56 52.7996 124.726 52.8549C126.957 52.9103 128.676 52.9379 130.737 52.1216C132.377 51.4713 134.162 51.4021 135.881 51.6927C138.952 52.2185 141.656 53.5052 143.336 56.2447C144.622 58.3478 145.475 60.7968 145.843 63.315C146.499 68.1161 145.37 73.1662 141.866 76.5699Z" fill="#98C11F"/>
<path d="M141.866 76.5706C141.393 77.0272 140.908 77.4561 140.409 77.8574C140.16 78.0649 139.91 78.2586 139.648 78.4385C137.443 80.085 134.595 81.8145 131.865 80.5692C131.616 80.5139 131.367 80.4724 131.117 80.4309C130.868 80.3894 130.618 80.3617 130.356 80.3479C129.477 80.3064 128.584 80.5416 127.81 80.8598C127.469 80.9567 127.127 81.0397 126.786 81.1089C125.408 81.3994 123.991 81.4824 122.626 81.2749C122.284 81.2195 121.943 81.1642 121.615 81.0673C119.003 80.1542 116.536 78.48 114.476 76.4876C114.279 76.2801 114.069 76.0725 113.885 75.865C109.961 71.5481 109.685 63.8968 112.297 58.8328C112.691 58.058 113.111 57.3662 113.57 56.7713C112.336 59.0819 111.824 61.8491 112.113 64.4779C112.376 66.8301 113.242 69.0715 114.528 71.0224C114.738 71.3544 114.974 71.6588 115.21 71.9771C117.927 75.1455 121.641 77.1241 125.631 77.1656C125.986 77.1933 126.327 77.2071 126.681 77.2209C127.259 77.2486 127.836 77.2486 128.414 77.2348C128.991 77.2209 129.568 77.1933 130.133 77.1379C133.781 76.9165 137.719 76.2801 140.422 73.3468C140.947 72.8902 141.433 72.3921 141.892 71.8802C142.352 71.3544 142.785 70.8148 143.178 70.2337C144.583 68.186 145.475 65.7785 145.83 63.3019C146.499 68.1168 145.37 73.167 141.866 76.5706Z" fill="#8AAF26"/>
<path d="M135.448 57.7397C135.71 58.0302 135.999 58.2654 136.288 58.4315C138.886 59.9534 142.22 56.1485 139.464 54.3083C138.519 53.6719 136.918 53.0216 135.763 53.3675C133.558 54.0454 134.214 56.3837 135.448 57.7397Z" fill="#BDD14C"/>
<path d="M142.168 57.6431C142.733 57.8368 143.179 58.4456 142.693 59.4141C142.641 59.511 142.575 59.6078 142.496 59.677C142.391 59.7462 142.273 59.7739 142.155 59.7877C141.591 59.8292 141.026 59.3864 140.882 58.8053C140.646 57.7676 141.499 57.4079 142.168 57.6431Z" fill="#BDD14C"/>
</g>
<g clip-path="url(#clip3_12_354)">
<path d="M173.442 50.6976C173.442 50.6976 157.654 59.8986 156 42.1608C156 42.1608 167.274 37.581 173.442 50.6976Z" fill="#619631"/>
<path d="M157.889 43.2527C157.941 43.2527 157.941 43.1697 157.889 43.1697C157.836 43.1697 157.836 43.2527 157.889 43.2527Z" fill="#5D8C30"/>
<path d="M158.23 43.6411C160.645 45.08 163.165 46.3253 165.659 47.5982C166.892 48.2208 168.126 48.8434 169.373 49.4522C170.003 49.7566 170.633 50.0333 171.263 50.2962C171.853 50.5453 172.47 50.9188 173.126 50.7113C173.376 50.6283 173.428 50.3239 173.31 50.1164C172.969 49.5352 172.26 49.383 171.683 49.1617C171.04 48.9126 170.397 48.6636 169.74 48.4145C168.441 47.9303 167.142 47.446 165.856 46.9202C163.296 45.8687 160.803 44.665 158.283 43.5166C158.204 43.4612 158.152 43.5996 158.23 43.6411Z" fill="#5D8C30"/>
<path d="M161.958 42.355C161.972 43.0468 162.247 43.7248 162.497 44.3613C162.733 44.9977 162.995 45.731 163.402 46.2568C163.533 46.4228 163.796 46.2983 163.73 46.0769C163.507 45.399 163.113 44.7763 162.838 44.126C162.588 43.5173 162.405 42.867 162.063 42.2997C162.024 42.272 161.945 42.2997 161.958 42.355Z" fill="#5D8C30"/>
<path d="M159.413 48.4297C160.148 48.0007 160.909 47.6687 161.696 47.3366C162.326 47.0737 163.166 46.5479 163.875 46.6586C164.242 46.714 164.347 46.1605 163.98 46.0775C163.219 45.8838 162.287 46.5479 161.631 46.8662C160.856 47.2398 159.846 47.5857 159.308 48.3051C159.242 48.3881 159.334 48.485 159.413 48.4297Z" fill="#5D8C30"/>
<path d="M166 43.9333C166.079 44.6251 166.367 45.3169 166.525 45.9948C166.709 46.742 166.84 47.503 166.997 48.2639C167.05 48.5407 167.522 48.4438 167.47 48.1533C167.352 47.4061 167.155 46.659 166.919 45.9395C166.709 45.2754 166.459 44.459 166.039 43.9056C166.039 43.8918 166 43.9056 166 43.9333Z" fill="#5D8C30"/>
<path d="M162.877 50.4481C163.612 50.0883 164.307 49.6318 165.042 49.2305C165.856 48.7878 166.683 48.4142 167.549 48.0821C167.93 47.9299 167.693 47.3073 167.339 47.4872C165.777 48.262 164.071 49.0922 162.798 50.3236C162.733 50.3651 162.811 50.4758 162.877 50.4481Z" fill="#5D8C30"/>
<path d="M172.694 44.7213C173.337 44.5829 174.032 44.7628 174.518 45.2055C173.77 45.925 173.783 47.1564 173.783 48.1249C173.783 48.7614 174.794 53.8669 173.967 53.8254C172.575 53.7562 172.195 44.8319 172.694 44.7213Z" fill="#666720"/>
<path d="M187.866 76.5699C187.393 77.0265 186.908 77.4554 186.409 77.8566C186.16 78.0642 185.91 78.2579 185.648 78.4378C183.443 80.0842 180.595 81.8137 177.865 80.5685C177.616 80.5132 177.367 80.4717 177.117 80.4301C176.868 80.3886 176.618 80.361 176.356 80.3471C175.477 80.3056 174.584 80.5408 173.81 80.8591C173.469 80.9559 173.127 81.0389 172.786 81.1081C171.408 81.3987 169.991 81.4817 168.626 81.2741C168.284 81.2188 167.943 81.1635 167.615 81.0666C165.003 80.1534 162.536 78.4793 160.476 76.4869C160.279 76.2793 160.069 76.0718 159.885 75.8642C155.961 71.5474 155.685 63.8961 158.297 58.8321C158.691 58.0573 159.111 57.3655 159.57 56.7705C160.725 55.2486 162.142 54.2524 164.282 53.6574C166.381 53.0763 168.56 52.7996 170.726 52.8549C172.957 52.9103 174.676 52.9379 176.737 52.1216C178.377 51.4713 180.162 51.4021 181.881 51.6927C184.952 52.2185 187.656 53.5052 189.336 56.2447C190.622 58.3478 191.475 60.7968 191.843 63.315C192.499 68.1161 191.37 73.1662 187.866 76.5699Z" fill="#98C11F"/>
<path d="M187.866 76.5706C187.393 77.0272 186.908 77.4561 186.409 77.8574C186.16 78.0649 185.91 78.2586 185.648 78.4385C183.443 80.085 180.595 81.8145 177.865 80.5692C177.616 80.5139 177.367 80.4724 177.117 80.4309C176.868 80.3894 176.618 80.3617 176.356 80.3479C175.477 80.3064 174.584 80.5416 173.81 80.8598C173.469 80.9567 173.127 81.0397 172.786 81.1089C171.408 81.3994 169.991 81.4824 168.626 81.2749C168.284 81.2195 167.943 81.1642 167.615 81.0673C165.003 80.1542 162.536 78.48 160.476 76.4876C160.279 76.2801 160.069 76.0725 159.885 75.865C155.961 71.5481 155.685 63.8968 158.297 58.8328C158.691 58.058 159.111 57.3662 159.57 56.7713C158.336 59.0819 157.824 61.8491 158.113 64.4779C158.376 66.8301 159.242 69.0715 160.528 71.0224C160.738 71.3544 160.974 71.6588 161.21 71.9771C163.927 75.1455 167.641 77.1241 171.631 77.1656C171.986 77.1933 172.327 77.2071 172.681 77.2209C173.259 77.2486 173.836 77.2486 174.414 77.2348C174.991 77.2209 175.568 77.1933 176.133 77.1379C179.781 76.9165 183.719 76.2801 186.422 73.3468C186.947 72.8902 187.433 72.3921 187.892 71.8802C188.352 71.3544 188.785 70.8148 189.178 70.2337C190.583 68.186 191.475 65.7785 191.83 63.3019C192.499 68.1168 191.37 73.167 187.866 76.5706Z" fill="#8AAF26"/>
<path d="M181.448 57.7397C181.71 58.0302 181.999 58.2654 182.288 58.4315C184.886 59.9534 188.22 56.1485 185.464 54.3083C184.519 53.6719 182.918 53.0216 181.763 53.3675C179.558 54.0454 180.214 56.3837 181.448 57.7397Z" fill="#BDD14C"/>
<path d="M188.168 57.6431C188.733 57.8368 189.179 58.4456 188.693 59.4141C188.641 59.511 188.575 59.6078 188.496 59.677C188.391 59.7462 188.273 59.7739 188.155 59.7877C187.591 59.8292 187.026 59.3864 186.882 58.8053C186.646 57.7676 187.499 57.4079 188.168 57.6431Z" fill="#BDD14C"/>
</g>
<defs>
<clipPath id="clip0_12_354">
<rect width="40" height="42.6931" fill="white" transform="translate(10 38.6934)"/>
</clipPath>
<clipPath id="clip1_12_354">
<rect width="40" height="42.6931" fill="white" transform="translate(60 38.6934)"/>
</clipPath>
<clipPath id="clip2_12_354">
<rect width="36" height="40" fill="white" transform="translate(110 41.3865)"/>
</clipPath>
<clipPath id="clip3_12_354">
<rect width="36" height="40" fill="white" transform="translate(156 41.3865)"/>
</clipPath>
</defs>
</svg>
