<svg width="370" height="95" viewBox="0 0 370 95" fill="none" xmlns="http://www.w3.org/2000/svg">
<path d="M12.5892 9.424C13.6239 9.552 14.4132 9.904 14.9572 10.48C15.5012 11.056 15.7732 11.776 15.7732 12.64C15.7732 13.2907 15.6079 13.8827 15.2772 14.416C14.9465 14.9493 14.4452 15.376 13.7732 15.696C13.1119 16.0053 12.3012 16.16 11.3412 16.16C10.5412 16.16 9.76785 16.048 9.02119 15.824C8.28519 15.5893 7.65585 15.2693 7.13319 14.864L8.02919 13.248C8.43452 13.5893 8.92519 13.8613 9.50119 14.064C10.0879 14.256 10.6905 14.352 11.3092 14.352C12.0452 14.352 12.6212 14.2027 13.0372 13.904C13.4639 13.5947 13.6772 13.1787 13.6772 12.656C13.6772 12.1333 13.4745 11.728 13.0692 11.44C12.6745 11.1413 12.0665 10.992 11.2452 10.992H10.2212V9.568L12.7652 6.544H7.67719V4.8H15.3092V6.192L12.5892 9.424ZM24.8036 16.112C24.1102 16.112 23.4329 16.0213 22.7716 15.84C22.1102 15.6587 21.5822 15.4293 21.1876 15.152L21.9556 13.632C22.3396 13.888 22.7982 14.096 23.3316 14.256C23.8756 14.4053 24.4089 14.48 24.9316 14.48C26.1262 14.48 26.7236 14.1653 26.7236 13.536C26.7236 13.2373 26.5689 13.0293 26.2596 12.912C25.9609 12.7947 25.4756 12.6827 24.8036 12.576C24.0996 12.4693 23.5236 12.3467 23.0756 12.208C22.6382 12.0693 22.2542 11.8293 21.9236 11.488C21.6036 11.136 21.4436 10.6507 21.4436 10.032C21.4436 9.22133 21.7796 8.576 22.4516 8.096C23.1342 7.60533 24.0516 7.36 25.2036 7.36C25.7902 7.36 26.3769 7.42933 26.9636 7.568C27.5502 7.696 28.0302 7.872 28.4036 8.096L27.6356 9.616C26.9102 9.18933 26.0942 8.976 25.1876 8.976C24.6009 8.976 24.1529 9.06667 23.8436 9.248C23.5449 9.41867 23.3956 9.648 23.3956 9.936C23.3956 10.256 23.5556 10.4853 23.8756 10.624C24.2062 10.752 24.7129 10.8747 25.3956 10.992C26.0782 11.0987 26.6382 11.2213 27.0756 11.36C27.5129 11.4987 27.8862 11.7333 28.1956 12.064C28.5156 12.3947 28.6756 12.864 28.6756 13.472C28.6756 14.272 28.3289 14.912 27.6356 15.392C26.9422 15.872 25.9982 16.112 24.8036 16.112ZM30.3979 7.456H32.3979V16H30.3979V7.456ZM31.4059 6.048C31.0433 6.048 30.7393 5.936 30.4939 5.712C30.2486 5.47733 30.1259 5.18933 30.1259 4.848C30.1259 4.50667 30.2486 4.224 30.4939 4C30.7393 3.76533 31.0433 3.648 31.4059 3.648C31.7686 3.648 32.0726 3.76 32.3179 3.984C32.5633 4.19733 32.6859 4.46933 32.6859 4.8C32.6859 5.152 32.5633 5.45067 32.3179 5.696C32.0833 5.93067 31.7793 6.048 31.4059 6.048ZM43.3909 4.128V16H41.4709V14.896C41.1403 15.3013 40.7296 15.6053 40.2389 15.808C39.7589 16.0107 39.2256 16.112 38.6389 16.112C37.8176 16.112 37.0763 15.9307 36.4149 15.568C35.7643 15.2053 35.2523 14.6933 34.8789 14.032C34.5056 13.36 34.3189 12.592 34.3189 11.728C34.3189 10.864 34.5056 10.1013 34.8789 9.44C35.2523 8.77867 35.7643 8.26667 36.4149 7.904C37.0763 7.54133 37.8176 7.36 38.6389 7.36C39.2043 7.36 39.7216 7.456 40.1909 7.648C40.6603 7.84 41.0603 8.128 41.3909 8.512V4.128H43.3909ZM38.8789 14.4C39.3589 14.4 39.7909 14.2933 40.1749 14.08C40.5589 13.856 40.8629 13.5413 41.0869 13.136C41.3109 12.7307 41.4229 12.2613 41.4229 11.728C41.4229 11.1947 41.3109 10.7253 41.0869 10.32C40.8629 9.91467 40.5589 9.60533 40.1749 9.392C39.7909 9.168 39.3589 9.056 38.8789 9.056C38.3989 9.056 37.9669 9.168 37.5829 9.392C37.1989 9.60533 36.8949 9.91467 36.6709 10.32C36.4469 10.7253 36.3349 11.1947 36.3349 11.728C36.3349 12.2613 36.4469 12.7307 36.6709 13.136C36.8949 13.5413 37.1989 13.856 37.5829 14.08C37.9669 14.2933 38.3989 14.4 38.8789 14.4ZM54.0393 11.776C54.0393 11.9147 54.0286 12.112 54.0073 12.368H47.3033C47.4206 12.9973 47.7246 13.4987 48.2153 13.872C48.7166 14.2347 49.3353 14.416 50.0713 14.416C51.01 14.416 51.7833 14.1067 52.3913 13.488L53.4633 14.72C53.0793 15.1787 52.594 15.5253 52.0073 15.76C51.4206 15.9947 50.7593 16.112 50.0233 16.112C49.0846 16.112 48.258 15.9253 47.5433 15.552C46.8286 15.1787 46.274 14.6613 45.8793 14C45.4953 13.328 45.3033 12.5707 45.3033 11.728C45.3033 10.896 45.49 10.1493 45.8633 9.488C46.2473 8.816 46.7753 8.29333 47.4473 7.92C48.1193 7.54667 48.8766 7.36 49.7193 7.36C50.5513 7.36 51.2926 7.54667 51.9433 7.92C52.6046 8.28267 53.1166 8.8 53.4793 9.472C53.8526 10.1333 54.0393 10.9013 54.0393 11.776ZM49.7193 8.96C49.0793 8.96 48.5353 9.152 48.0873 9.536C47.65 9.90933 47.3833 10.4107 47.2873 11.04H52.1353C52.05 10.4213 51.7886 9.92 51.3513 9.536C50.914 9.152 50.37 8.96 49.7193 8.96ZM58.6004 16.112C57.9071 16.112 57.2298 16.0213 56.5684 15.84C55.9071 15.6587 55.3791 15.4293 54.9844 15.152L55.7524 13.632C56.1364 13.888 56.5951 14.096 57.1284 14.256C57.6724 14.4053 58.2058 14.48 58.7284 14.48C59.9231 14.48 60.5204 14.1653 60.5204 13.536C60.5204 13.2373 60.3658 13.0293 60.0564 12.912C59.7578 12.7947 59.2724 12.6827 58.6004 12.576C57.8964 12.4693 57.3204 12.3467 56.8724 12.208C56.4351 12.0693 56.0511 11.8293 55.7204 11.488C55.4004 11.136 55.2404 10.6507 55.2404 10.032C55.2404 9.22133 55.5764 8.576 56.2484 8.096C56.9311 7.60533 57.8484 7.36 59.0004 7.36C59.5871 7.36 60.1738 7.42933 60.7604 7.568C61.3471 7.696 61.8271 7.872 62.2004 8.096L61.4324 9.616C60.7071 9.18933 59.8911 8.976 58.9844 8.976C58.3978 8.976 57.9498 9.06667 57.6404 9.248C57.3418 9.41867 57.1924 9.648 57.1924 9.936C57.1924 10.256 57.3524 10.4853 57.6724 10.624C58.0031 10.752 58.5098 10.8747 59.1924 10.992C59.8751 11.0987 60.4351 11.2213 60.8724 11.36C61.3098 11.4987 61.6831 11.7333 61.9924 12.064C62.3124 12.3947 62.4724 12.864 62.4724 13.472C62.4724 14.272 62.1258 14.912 61.4324 15.392C60.7391 15.872 59.7951 16.112 58.6004 16.112Z" fill="#2F2F2F"/>
<g clip-path="url(#clip0_24_21)">
<rect width="70" height="70" transform="translate(0 25)" fill="white"/>
<path d="M35 30L65.3109 82.5H4.68911L35 30Z" fill="#E12D2D"/>
</g>
<path d="M117.032 13.456H115.048V16H113.032V13.456H106.888V12.016L112.408 4.8H114.632L109.432 11.696H113.096V9.44H115.048V11.696H117.032V13.456ZM125.577 16.112C124.884 16.112 124.206 16.0213 123.545 15.84C122.884 15.6587 122.356 15.4293 121.961 15.152L122.729 13.632C123.113 13.888 123.572 14.096 124.105 14.256C124.649 14.4053 125.182 14.48 125.705 14.48C126.9 14.48 127.497 14.1653 127.497 13.536C127.497 13.2373 127.342 13.0293 127.033 12.912C126.734 12.7947 126.249 12.6827 125.577 12.576C124.873 12.4693 124.297 12.3467 123.849 12.208C123.412 12.0693 123.028 11.8293 122.697 11.488C122.377 11.136 122.217 10.6507 122.217 10.032C122.217 9.22133 122.553 8.576 123.225 8.096C123.908 7.60533 124.825 7.36 125.977 7.36C126.564 7.36 127.15 7.42933 127.737 7.568C128.324 7.696 128.804 7.872 129.177 8.096L128.409 9.616C127.684 9.18933 126.868 8.976 125.961 8.976C125.374 8.976 124.926 9.06667 124.617 9.248C124.318 9.41867 124.169 9.648 124.169 9.936C124.169 10.256 124.329 10.4853 124.649 10.624C124.98 10.752 125.486 10.8747 126.169 10.992C126.852 11.0987 127.412 11.2213 127.849 11.36C128.286 11.4987 128.66 11.7333 128.969 12.064C129.289 12.3947 129.449 12.864 129.449 13.472C129.449 14.272 129.102 14.912 128.409 15.392C127.716 15.872 126.772 16.112 125.577 16.112ZM131.171 7.456H133.171V16H131.171V7.456ZM132.179 6.048C131.817 6.048 131.513 5.936 131.267 5.712C131.022 5.47733 130.899 5.18933 130.899 4.848C130.899 4.50667 131.022 4.224 131.267 4C131.513 3.76533 131.817 3.648 132.179 3.648C132.542 3.648 132.846 3.76 133.091 3.984C133.337 4.19733 133.459 4.46933 133.459 4.8C133.459 5.152 133.337 5.45067 133.091 5.696C132.857 5.93067 132.553 6.048 132.179 6.048ZM144.164 4.128V16H142.244V14.896C141.914 15.3013 141.503 15.6053 141.012 15.808C140.532 16.0107 139.999 16.112 139.412 16.112C138.591 16.112 137.85 15.9307 137.188 15.568C136.538 15.2053 136.026 14.6933 135.652 14.032C135.279 13.36 135.092 12.592 135.092 11.728C135.092 10.864 135.279 10.1013 135.652 9.44C136.026 8.77867 136.538 8.26667 137.188 7.904C137.85 7.54133 138.591 7.36 139.412 7.36C139.978 7.36 140.495 7.456 140.964 7.648C141.434 7.84 141.834 8.128 142.164 8.512V4.128H144.164ZM139.652 14.4C140.132 14.4 140.564 14.2933 140.948 14.08C141.332 13.856 141.636 13.5413 141.86 13.136C142.084 12.7307 142.196 12.2613 142.196 11.728C142.196 11.1947 142.084 10.7253 141.86 10.32C141.636 9.91467 141.332 9.60533 140.948 9.392C140.564 9.168 140.132 9.056 139.652 9.056C139.172 9.056 138.74 9.168 138.356 9.392C137.972 9.60533 137.668 9.91467 137.444 10.32C137.22 10.7253 137.108 11.1947 137.108 11.728C137.108 12.2613 137.22 12.7307 137.444 13.136C137.668 13.5413 137.972 13.856 138.356 14.08C138.74 14.2933 139.172 14.4 139.652 14.4ZM154.813 11.776C154.813 11.9147 154.802 12.112 154.781 12.368H148.077C148.194 12.9973 148.498 13.4987 148.989 13.872C149.49 14.2347 150.109 14.416 150.845 14.416C151.783 14.416 152.557 14.1067 153.165 13.488L154.237 14.72C153.853 15.1787 153.367 15.5253 152.781 15.76C152.194 15.9947 151.533 16.112 150.797 16.112C149.858 16.112 149.031 15.9253 148.317 15.552C147.602 15.1787 147.047 14.6613 146.653 14C146.269 13.328 146.077 12.5707 146.077 11.728C146.077 10.896 146.263 10.1493 146.637 9.488C147.021 8.816 147.549 8.29333 148.221 7.92C148.893 7.54667 149.65 7.36 150.493 7.36C151.325 7.36 152.066 7.54667 152.717 7.92C153.378 8.28267 153.89 8.8 154.253 9.472C154.626 10.1333 154.813 10.9013 154.813 11.776ZM150.493 8.96C149.853 8.96 149.309 9.152 148.861 9.536C148.423 9.90933 148.157 10.4107 148.061 11.04H152.909C152.823 10.4213 152.562 9.92 152.125 9.536C151.687 9.152 151.143 8.96 150.493 8.96ZM159.374 16.112C158.681 16.112 158.003 16.0213 157.342 15.84C156.681 15.6587 156.153 15.4293 155.758 15.152L156.526 13.632C156.91 13.888 157.369 14.096 157.902 14.256C158.446 14.4053 158.979 14.48 159.502 14.48C160.697 14.48 161.294 14.1653 161.294 13.536C161.294 13.2373 161.139 13.0293 160.83 12.912C160.531 12.7947 160.046 12.6827 159.374 12.576C158.67 12.4693 158.094 12.3467 157.646 12.208C157.209 12.0693 156.825 11.8293 156.494 11.488C156.174 11.136 156.014 10.6507 156.014 10.032C156.014 9.22133 156.35 8.576 157.022 8.096C157.705 7.60533 158.622 7.36 159.774 7.36C160.361 7.36 160.947 7.42933 161.534 7.568C162.121 7.696 162.601 7.872 162.974 8.096L162.206 9.616C161.481 9.18933 160.665 8.976 159.758 8.976C159.171 8.976 158.723 9.06667 158.414 9.248C158.115 9.41867 157.966 9.648 157.966 9.936C157.966 10.256 158.126 10.4853 158.446 10.624C158.777 10.752 159.283 10.8747 159.966 10.992C160.649 11.0987 161.209 11.2213 161.646 11.36C162.083 11.4987 162.457 11.7333 162.766 12.064C163.086 12.3947 163.246 12.864 163.246 13.472C163.246 14.272 162.899 14.912 162.206 15.392C161.513 15.872 160.569 16.112 159.374 16.112Z" fill="#2F2F2F"/>
<g clip-path="url(#clip1_24_21)">
<rect width="70" height="70" transform="translate(100 25)" fill="white"/>
<g filter="url(#filter0_d_24_21)">
<path d="M113.511 35H154.012L170 80.6687H100L113.511 35Z" fill="#9DD765"/>
<path d="M101.339 79.6687L114.258 36H153.303L168.59 79.6687H101.339Z" stroke="white" stroke-width="2"/>
</g>
</g>
<g clip-path="url(#clip2_24_21)">
<rect width="70" height="70" transform="translate(200 25)" fill="white"/>
<g filter="url(#filter1_d_24_21)">
<path d="M233.824 25.8541C234.525 25.3448 235.475 25.3448 236.176 25.8541L267.111 48.3303C267.812 48.8396 268.106 49.7423 267.838 50.5664L256.022 86.9336C255.754 87.7577 254.986 88.3156 254.119 88.3156H215.881C215.014 88.3156 214.246 87.7577 213.978 86.9336L202.162 50.5664C201.894 49.7423 202.188 48.8396 202.889 48.3303L233.824 25.8541Z" fill="#59C6F2"/>
<path d="M234.412 26.6631C234.763 26.4085 235.237 26.4085 235.588 26.6631L266.524 49.1393C266.874 49.394 267.021 49.8453 266.887 50.2574L255.07 86.6246C254.937 87.0366 254.553 87.3156 254.119 87.3156H215.881C215.447 87.3156 215.063 87.0366 214.93 86.6246L203.113 50.2574C202.979 49.8453 203.126 49.394 203.476 49.1393L234.412 26.6631Z" stroke="white" stroke-width="2"/>
</g>
</g>
<path d="M211.31 9.136C212.888 9.136 214.056 9.44533 214.814 10.064C215.571 10.672 215.95 11.504 215.95 12.56C215.95 13.232 215.784 13.84 215.454 14.384C215.123 14.928 214.627 15.36 213.966 15.68C213.304 16 212.488 16.16 211.518 16.16C210.718 16.16 209.944 16.048 209.198 15.824C208.451 15.5893 207.822 15.2693 207.31 14.864L208.19 13.248C208.606 13.5893 209.102 13.8613 209.678 14.064C210.264 14.256 210.867 14.352 211.486 14.352C212.222 14.352 212.798 14.2027 213.214 13.904C213.64 13.5947 213.854 13.1733 213.854 12.64C213.854 12.064 213.624 11.632 213.166 11.344C212.718 11.0453 211.944 10.896 210.846 10.896H208.142L208.718 4.8H215.294V6.544H210.478L210.238 9.136H211.31ZM224.819 16.112C224.126 16.112 223.449 16.0213 222.787 15.84C222.126 15.6587 221.598 15.4293 221.203 15.152L221.971 13.632C222.355 13.888 222.814 14.096 223.347 14.256C223.891 14.4053 224.425 14.48 224.947 14.48C226.142 14.48 226.739 14.1653 226.739 13.536C226.739 13.2373 226.585 13.0293 226.275 12.912C225.977 12.7947 225.491 12.6827 224.819 12.576C224.115 12.4693 223.539 12.3467 223.091 12.208C222.654 12.0693 222.27 11.8293 221.939 11.488C221.619 11.136 221.459 10.6507 221.459 10.032C221.459 9.22133 221.795 8.576 222.467 8.096C223.15 7.60533 224.067 7.36 225.219 7.36C225.806 7.36 226.393 7.42933 226.979 7.568C227.566 7.696 228.046 7.872 228.419 8.096L227.651 9.616C226.926 9.18933 226.11 8.976 225.203 8.976C224.617 8.976 224.169 9.06667 223.859 9.248C223.561 9.41867 223.411 9.648 223.411 9.936C223.411 10.256 223.571 10.4853 223.891 10.624C224.222 10.752 224.729 10.8747 225.411 10.992C226.094 11.0987 226.654 11.2213 227.091 11.36C227.529 11.4987 227.902 11.7333 228.211 12.064C228.531 12.3947 228.691 12.864 228.691 13.472C228.691 14.272 228.345 14.912 227.651 15.392C226.958 15.872 226.014 16.112 224.819 16.112ZM230.414 7.456H232.414V16H230.414V7.456ZM231.422 6.048C231.059 6.048 230.755 5.936 230.51 5.712C230.264 5.47733 230.142 5.18933 230.142 4.848C230.142 4.50667 230.264 4.224 230.51 4C230.755 3.76533 231.059 3.648 231.422 3.648C231.784 3.648 232.088 3.76 232.334 3.984C232.579 4.19733 232.702 4.46933 232.702 4.8C232.702 5.152 232.579 5.45067 232.334 5.696C232.099 5.93067 231.795 6.048 231.422 6.048ZM243.407 4.128V16H241.487V14.896C241.156 15.3013 240.745 15.6053 240.255 15.808C239.775 16.0107 239.241 16.112 238.655 16.112C237.833 16.112 237.092 15.9307 236.431 15.568C235.78 15.2053 235.268 14.6933 234.895 14.032C234.521 13.36 234.335 12.592 234.335 11.728C234.335 10.864 234.521 10.1013 234.895 9.44C235.268 8.77867 235.78 8.26667 236.431 7.904C237.092 7.54133 237.833 7.36 238.655 7.36C239.22 7.36 239.737 7.456 240.207 7.648C240.676 7.84 241.076 8.128 241.407 8.512V4.128H243.407ZM238.895 14.4C239.375 14.4 239.807 14.2933 240.191 14.08C240.575 13.856 240.879 13.5413 241.103 13.136C241.327 12.7307 241.439 12.2613 241.439 11.728C241.439 11.1947 241.327 10.7253 241.103 10.32C240.879 9.91467 240.575 9.60533 240.191 9.392C239.807 9.168 239.375 9.056 238.895 9.056C238.415 9.056 237.983 9.168 237.599 9.392C237.215 9.60533 236.911 9.91467 236.687 10.32C236.463 10.7253 236.351 11.1947 236.351 11.728C236.351 12.2613 236.463 12.7307 236.687 13.136C236.911 13.5413 237.215 13.856 237.599 14.08C237.983 14.2933 238.415 14.4 238.895 14.4ZM254.055 11.776C254.055 11.9147 254.044 12.112 254.023 12.368H247.319C247.436 12.9973 247.74 13.4987 248.231 13.872C248.732 14.2347 249.351 14.416 250.087 14.416C251.026 14.416 251.799 14.1067 252.407 13.488L253.479 14.72C253.095 15.1787 252.61 15.5253 252.023 15.76C251.436 15.9947 250.775 16.112 250.039 16.112C249.1 16.112 248.274 15.9253 247.559 15.552C246.844 15.1787 246.29 14.6613 245.895 14C245.511 13.328 245.319 12.5707 245.319 11.728C245.319 10.896 245.506 10.1493 245.879 9.488C246.263 8.816 246.791 8.29333 247.463 7.92C248.135 7.54667 248.892 7.36 249.735 7.36C250.567 7.36 251.308 7.54667 251.959 7.92C252.62 8.28267 253.132 8.8 253.495 9.472C253.868 10.1333 254.055 10.9013 254.055 11.776ZM249.735 8.96C249.095 8.96 248.551 9.152 248.103 9.536C247.666 9.90933 247.399 10.4107 247.303 11.04H252.151C252.066 10.4213 251.804 9.92 251.367 9.536C250.93 9.152 250.386 8.96 249.735 8.96ZM258.616 16.112C257.923 16.112 257.245 16.0213 256.584 15.84C255.923 15.6587 255.395 15.4293 255 15.152L255.768 13.632C256.152 13.888 256.611 14.096 257.144 14.256C257.688 14.4053 258.221 14.48 258.744 14.48C259.939 14.48 260.536 14.1653 260.536 13.536C260.536 13.2373 260.381 13.0293 260.072 12.912C259.773 12.7947 259.288 12.6827 258.616 12.576C257.912 12.4693 257.336 12.3467 256.888 12.208C256.451 12.0693 256.067 11.8293 255.736 11.488C255.416 11.136 255.256 10.6507 255.256 10.032C255.256 9.22133 255.592 8.576 256.264 8.096C256.947 7.60533 257.864 7.36 259.016 7.36C259.603 7.36 260.189 7.42933 260.776 7.568C261.363 7.696 261.843 7.872 262.216 8.096L261.448 9.616C260.723 9.18933 259.907 8.976 259 8.976C258.413 8.976 257.965 9.06667 257.656 9.248C257.357 9.41867 257.208 9.648 257.208 9.936C257.208 10.256 257.368 10.4853 257.688 10.624C258.019 10.752 258.525 10.8747 259.208 10.992C259.891 11.0987 260.451 11.2213 260.888 11.36C261.325 11.4987 261.699 11.7333 262.008 12.064C262.328 12.3947 262.488 12.864 262.488 13.472C262.488 14.272 262.141 14.912 261.448 15.392C260.755 15.872 259.811 16.112 258.616 16.112Z" fill="#2F2F2F"/>
<path d="M312.55 9.088C313.286 9.088 313.947 9.232 314.534 9.52C315.12 9.79733 315.579 10.1973 315.91 10.72C316.24 11.2427 316.406 11.8453 316.406 12.528C316.406 13.2533 316.224 13.8933 315.862 14.448C315.499 14.992 315.008 15.4133 314.39 15.712C313.771 16.0107 313.078 16.16 312.31 16.16C310.774 16.16 309.579 15.68 308.726 14.72C307.883 13.76 307.462 12.384 307.462 10.592C307.462 9.33333 307.691 8.26133 308.15 7.376C308.608 6.48 309.248 5.80267 310.07 5.344C310.902 4.87467 311.862 4.64 312.95 4.64C313.526 4.64 314.064 4.704 314.566 4.832C315.078 4.94933 315.52 5.12533 315.894 5.36L315.126 6.928C314.571 6.56533 313.862 6.384 312.998 6.384C311.92 6.384 311.078 6.71467 310.47 7.376C309.862 8.03733 309.558 8.992 309.558 10.24V10.256C309.888 9.872 310.31 9.584 310.822 9.392C311.334 9.18933 311.91 9.088 312.55 9.088ZM312.198 14.528C312.848 14.528 313.376 14.3573 313.782 14.016C314.187 13.664 314.39 13.2 314.39 12.624C314.39 12.0373 314.187 11.5733 313.782 11.232C313.376 10.8907 312.832 10.72 312.15 10.72C311.478 10.72 310.928 10.9013 310.502 11.264C310.086 11.6267 309.878 12.0853 309.878 12.64C309.878 13.184 310.08 13.6373 310.486 14C310.902 14.352 311.472 14.528 312.198 14.528ZM325.163 16.112C324.47 16.112 323.792 16.0213 323.131 15.84C322.47 15.6587 321.942 15.4293 321.547 15.152L322.315 13.632C322.699 13.888 323.158 14.096 323.691 14.256C324.235 14.4053 324.768 14.48 325.291 14.48C326.486 14.48 327.083 14.1653 327.083 13.536C327.083 13.2373 326.928 13.0293 326.619 12.912C326.32 12.7947 325.835 12.6827 325.163 12.576C324.459 12.4693 323.883 12.3467 323.435 12.208C322.998 12.0693 322.614 11.8293 322.283 11.488C321.963 11.136 321.803 10.6507 321.803 10.032C321.803 9.22133 322.139 8.576 322.811 8.096C323.494 7.60533 324.411 7.36 325.563 7.36C326.15 7.36 326.736 7.42933 327.323 7.568C327.91 7.696 328.39 7.872 328.763 8.096L327.995 9.616C327.27 9.18933 326.454 8.976 325.547 8.976C324.96 8.976 324.512 9.06667 324.203 9.248C323.904 9.41867 323.755 9.648 323.755 9.936C323.755 10.256 323.915 10.4853 324.235 10.624C324.566 10.752 325.072 10.8747 325.755 10.992C326.438 11.0987 326.998 11.2213 327.435 11.36C327.872 11.4987 328.246 11.7333 328.555 12.064C328.875 12.3947 329.035 12.864 329.035 13.472C329.035 14.272 328.688 14.912 327.995 15.392C327.302 15.872 326.358 16.112 325.163 16.112ZM330.757 7.456H332.757V16H330.757V7.456ZM331.765 6.048C331.403 6.048 331.099 5.936 330.853 5.712C330.608 5.47733 330.485 5.18933 330.485 4.848C330.485 4.50667 330.608 4.224 330.853 4C331.099 3.76533 331.403 3.648 331.765 3.648C332.128 3.648 332.432 3.76 332.677 3.984C332.923 4.19733 333.045 4.46933 333.045 4.8C333.045 5.152 332.923 5.45067 332.677 5.696C332.443 5.93067 332.139 6.048 331.765 6.048ZM343.75 4.128V16H341.83V14.896C341.5 15.3013 341.089 15.6053 340.598 15.808C340.118 16.0107 339.585 16.112 338.998 16.112C338.177 16.112 337.436 15.9307 336.774 15.568C336.124 15.2053 335.612 14.6933 335.238 14.032C334.865 13.36 334.678 12.592 334.678 11.728C334.678 10.864 334.865 10.1013 335.238 9.44C335.612 8.77867 336.124 8.26667 336.774 7.904C337.436 7.54133 338.177 7.36 338.998 7.36C339.564 7.36 340.081 7.456 340.55 7.648C341.02 7.84 341.42 8.128 341.75 8.512V4.128H343.75ZM339.238 14.4C339.718 14.4 340.15 14.2933 340.534 14.08C340.918 13.856 341.222 13.5413 341.446 13.136C341.67 12.7307 341.782 12.2613 341.782 11.728C341.782 11.1947 341.67 10.7253 341.446 10.32C341.222 9.91467 340.918 9.60533 340.534 9.392C340.15 9.168 339.718 9.056 339.238 9.056C338.758 9.056 338.326 9.168 337.942 9.392C337.558 9.60533 337.254 9.91467 337.03 10.32C336.806 10.7253 336.694 11.1947 336.694 11.728C336.694 12.2613 336.806 12.7307 337.03 13.136C337.254 13.5413 337.558 13.856 337.942 14.08C338.326 14.2933 338.758 14.4 339.238 14.4ZM354.399 11.776C354.399 11.9147 354.388 12.112 354.367 12.368H347.663C347.78 12.9973 348.084 13.4987 348.575 13.872C349.076 14.2347 349.695 14.416 350.431 14.416C351.369 14.416 352.143 14.1067 352.751 13.488L353.823 14.72C353.439 15.1787 352.953 15.5253 352.367 15.76C351.78 15.9947 351.119 16.112 350.383 16.112C349.444 16.112 348.617 15.9253 347.903 15.552C347.188 15.1787 346.633 14.6613 346.239 14C345.855 13.328 345.663 12.5707 345.663 11.728C345.663 10.896 345.849 10.1493 346.223 9.488C346.607 8.816 347.135 8.29333 347.807 7.92C348.479 7.54667 349.236 7.36 350.079 7.36C350.911 7.36 351.652 7.54667 352.303 7.92C352.964 8.28267 353.476 8.8 353.839 9.472C354.212 10.1333 354.399 10.9013 354.399 11.776ZM350.079 8.96C349.439 8.96 348.895 9.152 348.447 9.536C348.009 9.90933 347.743 10.4107 347.647 11.04H352.495C352.409 10.4213 352.148 9.92 351.711 9.536C351.273 9.152 350.729 8.96 350.079 8.96ZM358.96 16.112C358.266 16.112 357.589 16.0213 356.928 15.84C356.266 15.6587 355.738 15.4293 355.344 15.152L356.112 13.632C356.496 13.888 356.954 14.096 357.488 14.256C358.032 14.4053 358.565 14.48 359.088 14.48C360.282 14.48 360.88 14.1653 360.88 13.536C360.88 13.2373 360.725 13.0293 360.416 12.912C360.117 12.7947 359.632 12.6827 358.96 12.576C358.256 12.4693 357.68 12.3467 357.232 12.208C356.794 12.0693 356.41 11.8293 356.08 11.488C355.76 11.136 355.6 10.6507 355.6 10.032C355.6 9.22133 355.936 8.576 356.608 8.096C357.29 7.60533 358.208 7.36 359.36 7.36C359.946 7.36 360.533 7.42933 361.12 7.568C361.706 7.696 362.186 7.872 362.56 8.096L361.792 9.616C361.066 9.18933 360.25 8.976 359.344 8.976C358.757 8.976 358.309 9.06667 358 9.248C357.701 9.41867 357.552 9.648 357.552 9.936C357.552 10.256 357.712 10.4853 358.032 10.624C358.362 10.752 358.869 10.8747 359.552 10.992C360.234 11.0987 360.794 11.2213 361.232 11.36C361.669 11.4987 362.042 11.7333 362.352 12.064C362.672 12.3947 362.832 12.864 362.832 13.472C362.832 14.272 362.485 14.912 361.792 15.392C361.098 15.872 360.154 16.112 358.96 16.112Z" fill="#2F2F2F"/>
<g clip-path="url(#clip3_24_21)">
<rect width="70" height="70" transform="translate(300 25)" fill="white"/>
<g filter="url(#filter2_d_24_21)">
<path d="M334 25.5774C334.619 25.2201 335.381 25.2201 336 25.5774L364.311 41.9226C364.93 42.2799 365.311 42.9402 365.311 43.6547V76.3453C365.311 77.0598 364.93 77.7201 364.311 78.0774L336 94.4226C335.381 94.7799 334.619 94.7799 334 94.4227L305.689 78.0774C305.07 77.7201 304.689 77.0598 304.689 76.3453V43.6547C304.689 42.9402 305.07 42.2799 305.689 41.9226L334 25.5774Z" fill="#6C5BD7"/>
<path d="M334.5 26.4434C334.809 26.2647 335.191 26.2647 335.5 26.4434L363.811 42.7887C364.12 42.9673 364.311 43.2974 364.311 43.6547V76.3453C364.311 76.7026 364.12 77.0327 363.811 77.2113L335.5 93.5566C335.191 93.7353 334.809 93.7353 334.5 93.5566L306.189 77.2113C305.88 77.0327 305.689 76.7026 305.689 76.3453V43.6547C305.689 43.2974 305.88 42.9673 306.189 42.7887L334.5 26.4434Z" stroke="white" stroke-width="2"/>
</g>
</g>
<defs>
<filter id="filter0_d_24_21" x="96" y="31" width="80" height="55.6687" filterUnits="userSpaceOnUse" color-interpolation-filters="sRGB">
<feFlood flood-opacity="0" result="BackgroundImageFix"/>
<feColorMatrix in="SourceAlpha" type="matrix" values="0 0 0 0 0 0 0 0 0 0 0 0 0 0 0 0 0 0 127 0" result="hardAlpha"/>
<feMorphology radius="2" operator="dilate" in="SourceAlpha" result="effect1_dropShadow_24_21"/>
<feOffset dx="1" dy="1"/>
<feGaussianBlur stdDeviation="1.5"/>
<feColorMatrix type="matrix" values="0 0 0 0 0 0 0 0 0 0 0 0 0 0 0 0 0 0 0.1 0"/>
<feBlend mode="normal" in2="BackgroundImageFix" result="effect1_dropShadow_24_21"/>
<feBlend mode="normal" in="SourceGraphic" in2="effect1_dropShadow_24_21" result="shape"/>
</filter>
<filter id="filter1_d_24_21" x="194.064" y="17.4722" width="81.8719" height="78.8435" filterUnits="userSpaceOnUse" color-interpolation-filters="sRGB">
<feFlood flood-opacity="0" result="BackgroundImageFix"/>
<feColorMatrix in="SourceAlpha" type="matrix" values="0 0 0 0 0 0 0 0 0 0 0 0 0 0 0 0 0 0 127 0" result="hardAlpha"/>
<feMorphology radius="2" operator="dilate" in="SourceAlpha" result="effect1_dropShadow_24_21"/>
<feOffset/>
<feGaussianBlur stdDeviation="3"/>
<feColorMatrix type="matrix" values="0 0 0 0 0 0 0 0 0 0 0 0 0 0 0 0 0 0 0.07 0"/>
<feBlend mode="normal" in2="BackgroundImageFix" result="effect1_dropShadow_24_21"/>
<feBlend mode="normal" in="SourceGraphic" in2="effect1_dropShadow_24_21" result="shape"/>
</filter>
<filter id="filter2_d_24_21" x="296.689" y="17.3093" width="76.6218" height="85.3813" filterUnits="userSpaceOnUse" color-interpolation-filters="sRGB">
<feFlood flood-opacity="0" result="BackgroundImageFix"/>
<feColorMatrix in="SourceAlpha" type="matrix" values="0 0 0 0 0 0 0 0 0 0 0 0 0 0 0 0 0 0 127 0" result="hardAlpha"/>
<feMorphology radius="2" operator="dilate" in="SourceAlpha" result="effect1_dropShadow_24_21"/>
<feOffset/>
<feGaussianBlur stdDeviation="3"/>
<feColorMatrix type="matrix" values="0 0 0 0 0 0 0 0 0 0 0 0 0 0 0 0 0 0 0.07 0"/>
<feBlend mode="normal" in2="BackgroundImageFix" result="effect1_dropShadow_24_21"/>
<feBlend mode="normal" in="SourceGraphic" in2="effect1_dropShadow_24_21" result="shape"/>
</filter>
<clipPath id="clip0_24_21">
<rect width="70" height="70" fill="white" transform="translate(0 25)"/>
</clipPath>
<clipPath id="clip1_24_21">
<rect width="70" height="70" fill="white" transform="translate(100 25)"/>
</clipPath>
<clipPath id="clip2_24_21">
<rect width="70" height="70" fill="white" transform="translate(200 25)"/>
</clipPath>
<clipPath id="clip3_24_21">
<rect width="70" height="70" fill="white" transform="translate(300 25)"/>
</clipPath>
</defs>
</svg>
