<svg width="368" height="361" viewBox="0 0 368 361" fill="none" xmlns="http://www.w3.org/2000/svg">
<line x1="52.957" y1="17.0712" x2="354.363" y2="17.0712" stroke="#A1B9BC" stroke-width="1.08811" stroke-dasharray="2.18 2.18"/>
<path d="M50.1851 12.7861L46.1652 21.9102H44.404L48.4169 13.2005H43.216V11.8537H50.1851V12.7861Z" fill="#637173"/>
<path d="M164.078 355.168H160.756L160.176 357.047H157.586L161.274 346.99H163.553L167.269 357.047H164.665L164.078 355.168ZM161.336 353.296H163.498L162.414 349.808L161.336 353.296ZM169.707 349.574L169.783 350.451C170.299 349.774 171.01 349.435 171.918 349.435C172.696 349.435 173.276 349.668 173.658 350.133C174.045 350.598 174.245 351.298 174.259 352.233V357.047H171.924V352.329C171.924 351.952 171.848 351.676 171.697 351.501C171.545 351.321 171.268 351.231 170.868 351.231C170.412 351.231 170.073 351.411 169.852 351.77V357.047H167.525V349.574H169.707ZM178.009 357.047H175.675V349.574H178.009V357.047ZM175.537 347.647C175.537 347.315 175.657 347.043 175.896 346.832C176.135 346.62 176.446 346.514 176.828 346.514C177.211 346.514 177.521 346.62 177.761 346.832C178 347.043 178.12 347.315 178.12 347.647C178.12 347.978 178 348.25 177.761 348.462C177.521 348.673 177.211 348.779 176.828 348.779C176.446 348.779 176.135 348.673 175.896 348.462C175.657 348.25 175.537 347.978 175.537 347.647ZM181.649 349.574L181.725 350.451C182.255 349.774 182.966 349.435 183.86 349.435C184.804 349.435 185.441 349.811 185.773 350.561C186.279 349.811 187.012 349.435 187.969 349.435C189.484 349.435 190.262 350.352 190.304 352.184V357.047H187.969V352.329C187.969 351.947 187.905 351.669 187.776 351.494C187.647 351.319 187.412 351.231 187.071 351.231C186.611 351.231 186.268 351.436 186.042 351.846L186.049 351.943V357.047H183.715V352.343C183.715 351.952 183.652 351.669 183.528 351.494C183.404 351.319 183.167 351.231 182.817 351.231C182.37 351.231 182.029 351.436 181.794 351.846V357.047H179.467V349.574H181.649ZM195.843 357.047C195.76 356.895 195.687 356.672 195.622 356.377C195.194 356.916 194.595 357.185 193.826 357.185C193.122 357.185 192.523 356.973 192.031 356.55C191.538 356.121 191.292 355.585 191.292 354.94C191.292 354.13 191.591 353.517 192.189 353.103C192.788 352.689 193.658 352.481 194.8 352.481H195.519V352.088C195.519 351.402 195.222 351.059 194.628 351.059C194.075 351.059 193.799 351.33 193.799 351.874H191.471C191.471 351.151 191.777 350.564 192.39 350.112C193.007 349.661 193.792 349.435 194.745 349.435C195.698 349.435 196.451 349.668 197.004 350.133C197.556 350.598 197.839 351.236 197.853 352.046V355.355C197.862 356.041 197.968 356.566 198.171 356.929V357.047H195.843ZM194.386 355.527C194.676 355.527 194.915 355.465 195.104 355.341C195.298 355.217 195.436 355.076 195.519 354.92V353.725H194.842C194.031 353.725 193.626 354.088 193.626 354.816C193.626 355.028 193.697 355.2 193.84 355.334C193.983 355.463 194.165 355.527 194.386 355.527ZM201.604 357.047H199.269V346.438H201.604V357.047ZM206.956 354.947C206.956 354.749 206.853 354.59 206.646 354.471C206.438 354.351 206.045 354.227 205.465 354.098C204.884 353.969 204.405 353.801 204.028 353.593C203.65 353.382 203.363 353.126 203.165 352.827C202.967 352.527 202.868 352.184 202.868 351.798C202.868 351.112 203.151 350.547 203.717 350.105C204.283 349.659 205.025 349.435 205.941 349.435C206.927 349.435 207.718 349.659 208.317 350.105C208.916 350.552 209.215 351.139 209.215 351.867H206.88C206.88 351.268 206.565 350.969 205.934 350.969C205.69 350.969 205.485 351.038 205.319 351.176C205.154 351.31 205.071 351.478 205.071 351.68C205.071 351.887 205.172 352.055 205.375 352.184C205.577 352.313 205.9 352.419 206.342 352.502C206.788 352.585 207.18 352.684 207.516 352.799C208.639 353.186 209.201 353.879 209.201 354.878C209.201 355.56 208.897 356.114 208.289 356.543C207.686 356.971 206.903 357.185 205.941 357.185C205.301 357.185 204.73 357.07 204.228 356.84C203.726 356.609 203.335 356.296 203.054 355.9C202.773 355.504 202.633 355.088 202.633 354.65H204.808C204.818 354.996 204.933 355.249 205.154 355.41C205.375 355.566 205.658 355.645 206.003 355.645C206.321 355.645 206.558 355.58 206.715 355.451C206.876 355.322 206.956 355.154 206.956 354.947Z" fill="#637173"/>
<path d="M75.6034 319.92C74.466 319.593 73.6372 319.192 73.1169 318.718C72.6012 318.239 72.3433 317.65 72.3433 316.95C72.3433 316.158 72.6587 315.504 73.2895 314.988C73.925 314.468 74.7492 314.208 75.7622 314.208C76.4529 314.208 77.0676 314.341 77.6064 314.608C78.1497 314.875 78.5687 315.244 78.8634 315.713C79.1627 316.183 79.3124 316.697 79.3124 317.254H77.9794C77.9794 316.646 77.786 316.169 77.3992 315.824C77.0124 315.474 76.4667 315.299 75.7622 315.299C75.1084 315.299 74.5973 315.444 74.2289 315.734C73.8651 316.02 73.6832 316.418 73.6832 316.929C73.6832 317.339 73.8559 317.687 74.2013 317.972C74.5512 318.253 75.1429 318.511 75.9763 318.746C76.8144 318.98 77.4682 319.241 77.9379 319.526C78.4122 319.807 78.7621 320.136 78.9878 320.514C79.218 320.891 79.3331 321.336 79.3331 321.847C79.3331 322.662 79.0154 323.316 78.38 323.808C77.7445 324.296 76.895 324.54 75.8313 324.54C75.1406 324.54 74.496 324.409 73.8974 324.147C73.2988 323.88 72.836 323.516 72.5091 323.055C72.1867 322.595 72.0256 322.072 72.0256 321.488H73.3586C73.3586 322.095 73.5819 322.577 74.0286 322.931C74.4798 323.281 75.0807 323.456 75.8313 323.456C76.5312 323.456 77.0676 323.313 77.4406 323.028C77.8136 322.742 78.0001 322.353 78.0001 321.861C78.0001 321.368 77.8274 320.988 77.4821 320.721C77.1367 320.449 76.5105 320.182 75.6034 319.92ZM82.1166 317.834C82.683 317.139 83.4197 316.791 84.3268 316.791C85.9062 316.791 86.7028 317.682 86.7166 319.464V324.402H85.4388V319.457C85.4342 318.918 85.3099 318.52 85.0659 318.262C84.8264 318.004 84.4512 317.875 83.94 317.875C83.5256 317.875 83.1619 317.986 82.8487 318.207C82.5356 318.428 82.2916 318.718 82.1166 319.077V324.402H80.8388V313.793H82.1166V317.834ZM91.7311 324.54C90.718 324.54 89.8938 324.209 89.2584 323.546C88.6229 322.878 88.3052 321.987 88.3052 320.873V320.638C88.3052 319.897 88.4457 319.236 88.7265 318.656C89.012 318.071 89.408 317.615 89.9145 317.288C90.4256 316.957 90.9782 316.791 91.5722 316.791C92.5438 316.791 93.2989 317.111 93.8377 317.751C94.3764 318.391 94.6458 319.307 94.6458 320.5V321.032H89.583C89.6014 321.768 89.8155 322.365 90.2253 322.821C90.6398 323.272 91.1647 323.498 91.8001 323.498C92.2514 323.498 92.6336 323.405 92.9467 323.221C93.2598 323.037 93.5338 322.793 93.7686 322.489L94.5491 323.097C93.9229 324.059 92.9835 324.54 91.7311 324.54ZM91.5722 317.841C91.0565 317.841 90.6236 318.03 90.2737 318.407C89.9237 318.78 89.7073 319.305 89.6244 319.982H93.368V319.885C93.3312 319.236 93.1562 318.734 92.8431 318.379C92.53 318.02 92.1063 317.841 91.5722 317.841ZM99.232 324.54C98.219 324.54 97.3947 324.209 96.7593 323.546C96.1239 322.878 95.8061 321.987 95.8061 320.873V320.638C95.8061 319.897 95.9466 319.236 96.2275 318.656C96.513 318.071 96.909 317.615 97.4155 317.288C97.9266 316.957 98.4791 316.791 99.0731 316.791C100.045 316.791 100.8 317.111 101.339 317.751C101.877 318.391 102.147 319.307 102.147 320.5V321.032H97.0839C97.1024 321.768 97.3165 322.365 97.7263 322.821C98.1407 323.272 98.6656 323.498 99.3011 323.498C99.7523 323.498 100.134 323.405 100.448 323.221C100.761 323.037 101.035 322.793 101.27 322.489L102.05 323.097C101.424 324.059 100.484 324.54 99.232 324.54ZM99.0731 317.841C98.5574 317.841 98.1246 318.03 97.7746 318.407C97.4247 318.78 97.2083 319.305 97.1254 319.982H100.869V319.885C100.832 319.236 100.657 318.734 100.344 318.379C100.031 318.02 99.6073 317.841 99.0731 317.841ZM109.945 320.749C109.945 321.886 109.684 322.802 109.164 323.498C108.644 324.193 107.939 324.54 107.051 324.54C106.144 324.54 105.43 324.253 104.909 323.677V327.276H103.632V316.929H104.799L104.861 317.758C105.381 317.113 106.104 316.791 107.03 316.791C107.928 316.791 108.637 317.129 109.157 317.806C109.682 318.483 109.945 319.425 109.945 320.631V320.749ZM108.667 320.604C108.667 319.761 108.487 319.096 108.128 318.607C107.769 318.119 107.276 317.875 106.65 317.875C105.876 317.875 105.296 318.218 104.909 318.904V322.475C105.292 323.157 105.876 323.498 106.664 323.498C107.276 323.498 107.762 323.256 108.121 322.772C108.485 322.284 108.667 321.561 108.667 320.604Z" fill="#637173"/>
<path d="M158.276 320.458H155.589V319.374H158.276C158.796 319.374 159.217 319.291 159.54 319.125C159.862 318.96 160.097 318.729 160.244 318.435C160.396 318.14 160.472 317.804 160.472 317.426C160.472 317.081 160.396 316.756 160.244 316.452C160.097 316.149 159.862 315.905 159.54 315.72C159.217 315.532 158.796 315.437 158.276 315.437H155.9V324.402H154.567V314.346H158.276C159.035 314.346 159.678 314.477 160.203 314.74C160.728 315.002 161.126 315.366 161.398 315.831C161.669 316.291 161.805 316.819 161.805 317.413C161.805 318.057 161.669 318.607 161.398 319.063C161.126 319.519 160.728 319.867 160.203 320.106C159.678 320.341 159.035 320.458 158.276 320.458ZM164.685 316.929V324.402H163.401V316.929H164.685ZM163.304 314.947C163.304 314.74 163.366 314.565 163.49 314.422C163.619 314.279 163.808 314.208 164.057 314.208C164.301 314.208 164.487 314.279 164.616 314.422C164.75 314.565 164.817 314.74 164.817 314.947C164.817 315.145 164.75 315.315 164.616 315.458C164.487 315.596 164.301 315.665 164.057 315.665C163.808 315.665 163.619 315.596 163.49 315.458C163.366 315.315 163.304 315.145 163.304 314.947ZM171.578 316.929H172.739V324.243C172.739 324.902 172.605 325.464 172.338 325.929C172.071 326.394 171.698 326.746 171.219 326.986C170.745 327.23 170.197 327.352 169.575 327.352C169.318 327.352 169.014 327.31 168.664 327.227C168.318 327.149 167.978 327.013 167.642 326.82C167.31 326.631 167.031 326.375 166.806 326.053L167.476 325.293C167.789 325.671 168.116 325.933 168.457 326.081C168.802 326.228 169.143 326.302 169.479 326.302C169.884 326.302 170.234 326.226 170.529 326.074C170.823 325.922 171.051 325.696 171.212 325.397C171.378 325.102 171.461 324.738 171.461 324.306V318.573L171.578 316.929ZM166.433 320.749V320.604C166.433 320.033 166.5 319.515 166.633 319.049C166.771 318.58 166.967 318.177 167.22 317.841C167.478 317.505 167.789 317.247 168.153 317.067C168.516 316.883 168.926 316.791 169.382 316.791C169.852 316.791 170.262 316.874 170.612 317.04C170.966 317.201 171.265 317.438 171.509 317.751C171.758 318.059 171.954 318.432 172.096 318.87C172.239 319.307 172.338 319.802 172.393 320.355V320.99C172.343 321.538 172.244 322.031 172.096 322.468C171.954 322.906 171.758 323.279 171.509 323.587C171.265 323.896 170.966 324.133 170.612 324.299C170.257 324.46 169.843 324.54 169.368 324.54C168.922 324.54 168.516 324.446 168.153 324.257C167.793 324.069 167.485 323.804 167.227 323.463C166.969 323.122 166.771 322.722 166.633 322.261C166.5 321.796 166.433 321.292 166.433 320.749ZM167.711 320.604V320.749C167.711 321.122 167.747 321.472 167.821 321.798C167.899 322.125 168.017 322.413 168.173 322.662C168.335 322.91 168.539 323.106 168.788 323.249C169.037 323.387 169.334 323.456 169.679 323.456C170.103 323.456 170.453 323.366 170.729 323.187C171.005 323.007 171.224 322.77 171.385 322.475C171.551 322.181 171.68 321.861 171.772 321.515V319.851C171.721 319.597 171.643 319.353 171.537 319.119C171.436 318.879 171.302 318.667 171.136 318.483C170.975 318.294 170.775 318.145 170.536 318.034C170.296 317.924 170.015 317.868 169.693 317.868C169.343 317.868 169.041 317.942 168.788 318.089C168.539 318.232 168.335 318.43 168.173 318.683C168.017 318.932 167.899 319.222 167.821 319.554C167.747 319.881 167.711 320.231 167.711 320.604ZM179.031 322.42C179.031 322.236 178.99 322.065 178.907 321.909C178.828 321.748 178.665 321.603 178.416 321.474C178.172 321.34 177.804 321.225 177.311 321.128C176.897 321.041 176.522 320.937 176.185 320.818C175.854 320.698 175.571 320.553 175.336 320.383C175.106 320.212 174.928 320.012 174.804 319.782C174.68 319.551 174.618 319.282 174.618 318.973C174.618 318.679 174.682 318.4 174.811 318.138C174.944 317.875 175.131 317.643 175.37 317.44C175.614 317.238 175.907 317.079 176.248 316.964C176.588 316.848 176.968 316.791 177.387 316.791C177.986 316.791 178.497 316.897 178.921 317.109C179.344 317.32 179.669 317.604 179.894 317.958C180.12 318.308 180.233 318.697 180.233 319.125H178.955C178.955 318.918 178.893 318.718 178.769 318.525C178.649 318.327 178.472 318.163 178.237 318.034C178.007 317.905 177.723 317.841 177.387 317.841C177.033 317.841 176.745 317.896 176.524 318.007C176.307 318.112 176.149 318.248 176.047 318.414C175.951 318.58 175.902 318.755 175.902 318.939C175.902 319.077 175.925 319.201 175.971 319.312C176.022 319.418 176.109 319.517 176.234 319.609C176.358 319.696 176.533 319.779 176.759 319.858C176.984 319.936 177.272 320.014 177.622 320.092C178.234 320.231 178.739 320.396 179.135 320.59C179.531 320.783 179.825 321.02 180.019 321.301C180.212 321.582 180.309 321.923 180.309 322.323C180.309 322.65 180.24 322.95 180.102 323.221C179.968 323.493 179.772 323.728 179.515 323.926C179.261 324.119 178.957 324.271 178.603 324.382C178.253 324.488 177.859 324.54 177.422 324.54C176.763 324.54 176.206 324.423 175.75 324.188C175.294 323.953 174.949 323.649 174.714 323.277C174.479 322.904 174.362 322.51 174.362 322.095H175.647C175.665 322.445 175.766 322.724 175.951 322.931C176.135 323.134 176.36 323.279 176.627 323.366C176.895 323.449 177.159 323.491 177.422 323.491C177.772 323.491 178.064 323.445 178.299 323.352C178.538 323.26 178.72 323.134 178.845 322.973C178.969 322.811 179.031 322.627 179.031 322.42Z" fill="#637173"/>
<path d="M235.48 323.083C235.139 323.571 234.662 323.937 234.05 324.181C233.442 324.421 232.733 324.54 231.923 324.54C231.103 324.54 230.376 324.349 229.74 323.967C229.105 323.58 228.612 323.032 228.262 322.323C227.917 321.614 227.739 320.792 227.73 319.858V318.98C227.73 317.465 228.082 316.291 228.787 315.458C229.496 314.624 230.491 314.208 231.771 314.208C232.821 314.208 233.666 314.477 234.306 315.016C234.946 315.55 235.337 316.31 235.48 317.295H234.154C233.905 315.964 233.113 315.299 231.778 315.299C230.889 315.299 230.214 315.612 229.754 316.238C229.298 316.86 229.068 317.762 229.063 318.946V319.768C229.063 320.896 229.321 321.794 229.837 322.461C230.353 323.125 231.05 323.456 231.93 323.456C232.427 323.456 232.862 323.401 233.235 323.29C233.608 323.18 233.917 322.993 234.161 322.731V320.472H231.833V319.395H235.48V323.083ZM237.158 320.597C237.158 319.864 237.301 319.206 237.586 318.621C237.877 318.036 238.277 317.585 238.788 317.267C239.304 316.95 239.891 316.791 240.55 316.791C241.567 316.791 242.389 317.143 243.015 317.848C243.646 318.552 243.962 319.489 243.962 320.659V320.749C243.962 321.476 243.821 322.13 243.54 322.71C243.264 323.286 242.866 323.735 242.345 324.057C241.83 324.379 241.236 324.54 240.563 324.54C239.55 324.54 238.728 324.188 238.098 323.484C237.471 322.779 237.158 321.847 237.158 320.686V320.597ZM238.443 320.749C238.443 321.577 238.634 322.243 239.016 322.745C239.403 323.247 239.919 323.498 240.563 323.498C241.213 323.498 241.728 323.244 242.11 322.738C242.493 322.227 242.684 321.513 242.684 320.597C242.684 319.777 242.488 319.114 242.097 318.607C241.71 318.096 241.194 317.841 240.55 317.841C239.919 317.841 239.41 318.092 239.023 318.594C238.636 319.096 238.443 319.814 238.443 320.749ZM250.178 324.402C250.104 324.255 250.044 323.993 249.998 323.615C249.404 324.232 248.695 324.54 247.871 324.54C247.134 324.54 246.529 324.333 246.054 323.919C245.585 323.5 245.35 322.97 245.35 322.33C245.35 321.552 245.645 320.949 246.234 320.521C246.828 320.088 247.661 319.871 248.734 319.871H249.977V319.284C249.977 318.838 249.844 318.483 249.577 318.221C249.31 317.954 248.916 317.82 248.396 317.82C247.94 317.82 247.558 317.935 247.249 318.165C246.941 318.396 246.786 318.674 246.786 319.001H245.502C245.502 318.628 245.633 318.269 245.895 317.924C246.163 317.574 246.522 317.297 246.973 317.095C247.429 316.892 247.928 316.791 248.472 316.791C249.333 316.791 250.007 317.007 250.495 317.44C250.984 317.868 251.237 318.46 251.255 319.215V322.655C251.255 323.341 251.343 323.887 251.518 324.292V324.402H250.178ZM248.057 323.428C248.458 323.428 248.838 323.325 249.197 323.118C249.556 322.91 249.816 322.641 249.977 322.31V320.776H248.976C247.41 320.776 246.628 321.234 246.628 322.151C246.628 322.551 246.761 322.864 247.028 323.09C247.295 323.316 247.638 323.428 248.057 323.428ZM254.992 315.119V316.929H256.387V317.917H254.992V322.551C254.992 322.851 255.054 323.076 255.178 323.228C255.303 323.376 255.515 323.449 255.814 323.449C255.961 323.449 256.164 323.422 256.422 323.366V324.402C256.086 324.494 255.759 324.54 255.441 324.54C254.87 324.54 254.439 324.368 254.149 324.022C253.859 323.677 253.714 323.187 253.714 322.551V317.917H252.353V316.929H253.714V315.119H254.992ZM262.237 322.42C262.237 322.075 262.106 321.808 261.844 321.619C261.586 321.425 261.132 321.26 260.483 321.122C259.838 320.983 259.325 320.818 258.943 320.624C258.565 320.431 258.284 320.201 258.1 319.934C257.92 319.666 257.831 319.349 257.831 318.98C257.831 318.368 258.089 317.85 258.604 317.426C259.125 317.003 259.788 316.791 260.593 316.791C261.441 316.791 262.127 317.01 262.652 317.447C263.181 317.885 263.446 318.444 263.446 319.125H262.161C262.161 318.775 262.012 318.474 261.712 318.221C261.418 317.967 261.045 317.841 260.593 317.841C260.128 317.841 259.765 317.942 259.502 318.145C259.24 318.347 259.108 318.612 259.108 318.939C259.108 319.247 259.23 319.48 259.475 319.637C259.719 319.793 260.158 319.943 260.794 320.086C261.434 320.228 261.952 320.399 262.348 320.597C262.744 320.795 263.036 321.034 263.225 321.315C263.418 321.591 263.515 321.93 263.515 322.33C263.515 322.998 263.248 323.534 262.714 323.94C262.18 324.34 261.487 324.54 260.635 324.54C260.036 324.54 259.507 324.435 259.046 324.223C258.586 324.011 258.224 323.716 257.962 323.339C257.704 322.956 257.575 322.544 257.575 322.102H258.853C258.876 322.531 259.046 322.871 259.364 323.125C259.686 323.373 260.11 323.498 260.635 323.498C261.118 323.498 261.505 323.401 261.795 323.207C262.09 323.009 262.237 322.747 262.237 322.42Z" fill="#637173"/>
<path d="M312.432 321.204H313.758C313.689 321.84 313.507 322.409 313.212 322.91C312.918 323.412 312.501 323.811 311.962 324.105C311.423 324.395 310.751 324.54 309.945 324.54C309.356 324.54 308.819 324.43 308.336 324.209C307.857 323.988 307.445 323.675 307.1 323.27C306.754 322.86 306.487 322.369 306.298 321.798C306.114 321.223 306.022 320.583 306.022 319.878V318.877C306.022 318.172 306.114 317.535 306.298 316.964C306.487 316.388 306.757 315.895 307.107 315.485C307.461 315.076 307.887 314.76 308.384 314.539C308.882 314.318 309.441 314.208 310.063 314.208C310.822 314.208 311.465 314.35 311.99 314.636C312.515 314.921 312.922 315.317 313.212 315.824C313.507 316.326 313.689 316.908 313.758 317.571H312.432C312.367 317.102 312.248 316.699 312.073 316.363C311.898 316.022 311.649 315.759 311.327 315.575C311.004 315.391 310.583 315.299 310.063 315.299C309.616 315.299 309.222 315.384 308.882 315.555C308.545 315.725 308.262 315.967 308.032 316.28C307.806 316.593 307.636 316.968 307.521 317.406C307.406 317.843 307.348 318.329 307.348 318.863V319.878C307.348 320.371 307.399 320.834 307.5 321.267C307.606 321.699 307.765 322.079 307.977 322.406C308.189 322.733 308.458 322.991 308.785 323.18C309.112 323.364 309.499 323.456 309.945 323.456C310.512 323.456 310.963 323.366 311.299 323.187C311.635 323.007 311.888 322.749 312.059 322.413C312.234 322.077 312.358 321.674 312.432 321.204ZM315.043 320.749V320.59C315.043 320.051 315.121 319.551 315.277 319.091C315.434 318.626 315.66 318.223 315.954 317.882C316.249 317.537 316.606 317.27 317.025 317.081C317.444 316.888 317.914 316.791 318.434 316.791C318.959 316.791 319.431 316.888 319.85 317.081C320.273 317.27 320.633 317.537 320.927 317.882C321.227 318.223 321.455 318.626 321.611 319.091C321.768 319.551 321.846 320.051 321.846 320.59V320.749C321.846 321.287 321.768 321.787 321.611 322.247C321.455 322.708 321.227 323.111 320.927 323.456C320.633 323.797 320.276 324.064 319.857 324.257C319.442 324.446 318.973 324.54 318.448 324.54C317.923 324.54 317.451 324.446 317.032 324.257C316.613 324.064 316.254 323.797 315.954 323.456C315.66 323.111 315.434 322.708 315.277 322.247C315.121 321.787 315.043 321.287 315.043 320.749ZM316.32 320.59V320.749C316.32 321.122 316.364 321.474 316.452 321.805C316.539 322.132 316.67 322.422 316.845 322.676C317.025 322.929 317.248 323.129 317.515 323.277C317.782 323.419 318.093 323.491 318.448 323.491C318.798 323.491 319.104 323.419 319.366 323.277C319.633 323.129 319.854 322.929 320.029 322.676C320.204 322.422 320.336 322.132 320.423 321.805C320.515 321.474 320.561 321.122 320.561 320.749V320.59C320.561 320.221 320.515 319.874 320.423 319.547C320.336 319.215 320.202 318.923 320.022 318.67C319.848 318.412 319.626 318.209 319.359 318.062C319.097 317.914 318.788 317.841 318.434 317.841C318.084 317.841 317.775 317.914 317.508 318.062C317.246 318.209 317.025 318.412 316.845 318.67C316.67 318.923 316.539 319.215 316.452 319.547C316.364 319.874 316.32 320.221 316.32 320.59ZM325.341 323.076L327.261 316.929H328.104L327.938 318.152L325.983 324.402H325.161L325.341 323.076ZM324.049 316.929L325.686 323.145L325.804 324.402H324.94L322.771 316.929H324.049ZM329.941 323.097L331.502 316.929H332.773L330.604 324.402H329.747L329.941 323.097ZM328.29 316.929L330.169 322.973L330.383 324.402H329.568L327.558 318.138L327.392 316.929H328.29ZM338.436 322.42C338.436 322.236 338.395 322.065 338.312 321.909C338.234 321.748 338.07 321.603 337.822 321.474C337.578 321.34 337.209 321.225 336.717 321.128C336.302 321.041 335.927 320.937 335.591 320.818C335.259 320.698 334.976 320.553 334.741 320.383C334.511 320.212 334.334 320.012 334.209 319.782C334.085 319.551 334.023 319.282 334.023 318.973C334.023 318.679 334.087 318.4 334.216 318.138C334.35 317.875 334.536 317.643 334.776 317.44C335.02 317.238 335.312 317.079 335.653 316.964C335.994 316.848 336.374 316.791 336.793 316.791C337.391 316.791 337.902 316.897 338.326 317.109C338.749 317.32 339.074 317.604 339.3 317.958C339.525 318.308 339.638 318.697 339.638 319.125H338.36C338.36 318.918 338.298 318.718 338.174 318.525C338.054 318.327 337.877 318.163 337.642 318.034C337.412 317.905 337.129 317.841 336.793 317.841C336.438 317.841 336.15 317.896 335.929 318.007C335.713 318.112 335.554 318.248 335.453 318.414C335.356 318.58 335.308 318.755 335.308 318.939C335.308 319.077 335.331 319.201 335.377 319.312C335.427 319.418 335.515 319.517 335.639 319.609C335.763 319.696 335.938 319.779 336.164 319.858C336.39 319.936 336.677 320.014 337.027 320.092C337.64 320.231 338.144 320.396 338.54 320.59C338.936 320.783 339.231 321.02 339.424 321.301C339.617 321.582 339.714 321.923 339.714 322.323C339.714 322.65 339.645 322.95 339.507 323.221C339.373 323.493 339.178 323.728 338.92 323.926C338.667 324.119 338.363 324.271 338.008 324.382C337.658 324.488 337.265 324.54 336.827 324.54C336.169 324.54 335.611 324.423 335.156 324.188C334.7 323.953 334.354 323.649 334.12 323.277C333.885 322.904 333.767 322.51 333.767 322.095H335.052C335.07 322.445 335.172 322.724 335.356 322.931C335.54 323.134 335.766 323.279 336.033 323.366C336.3 323.449 336.565 323.491 336.827 323.491C337.177 323.491 337.469 323.445 337.704 323.352C337.944 323.26 338.126 323.134 338.25 322.973C338.374 322.811 338.436 322.627 338.436 322.42Z" fill="#637173"/>
<line x1="52.957" y1="266.247" x2="354.363" y2="266.247" stroke="#A1B9BC" stroke-width="1.08811" stroke-dasharray="2.18 2.18"/>
<line x1="52.957" y1="224.899" x2="354.363" y2="224.899" stroke="#A1B9BC" stroke-width="1.08811" stroke-dasharray="2.18 2.18"/>
<line x1="52.957" y1="183.55" x2="354.363" y2="183.55" stroke="#A1B9BC" stroke-width="1.08811" stroke-dasharray="2.18 2.18"/>
<line x1="52.957" y1="142.204" x2="354.363" y2="142.204" stroke="#A1B9BC" stroke-width="1.08811" stroke-dasharray="2.18 2.18"/>
<line x1="52.957" y1="100.854" x2="354.363" y2="100.854" stroke="#A1B9BC" stroke-width="1.08811" stroke-dasharray="2.18 2.18"/>
<line x1="52.957" y1="58.4188" x2="354.363" y2="58.4188" stroke="#A1B9BC" stroke-width="1.08811" stroke-dasharray="2.18 2.18"/>
<path d="M50.0469 308.2C50.0469 309.645 49.7753 310.737 49.2319 311.474C48.6932 312.206 47.8713 312.572 46.7662 312.572C45.6795 312.572 44.8598 312.215 44.3073 311.501C43.7593 310.783 43.4785 309.721 43.4646 308.317V306.577C43.4646 305.131 43.734 304.046 44.2727 303.323C44.8161 302.6 45.6426 302.239 46.7523 302.239C47.8528 302.239 48.6725 302.591 49.2112 303.296C49.7546 304 50.0331 305.055 50.0469 306.459V308.2ZM48.3686 306.321C48.3686 305.377 48.2396 304.686 47.9818 304.249C47.7239 303.807 47.3141 303.586 46.7523 303.586C46.2044 303.586 45.8015 303.795 45.5436 304.214C45.2858 304.629 45.1499 305.278 45.1361 306.162V308.441C45.1361 309.381 45.2673 310.081 45.5298 310.541C45.7923 311.002 46.2044 311.232 46.7662 311.232C47.3049 311.232 47.7032 311.02 47.9611 310.596C48.2189 310.168 48.3547 309.5 48.3686 308.593V306.321Z" fill="#637173"/>
<path d="M48.037 271.086H46.3655V263.012L43.8998 263.854V262.438L47.8229 260.995H48.037V271.086Z" fill="#637173"/>
<path d="M50.2542 229.738H43.4923V228.585L46.8421 224.931C47.3256 224.392 47.6687 223.943 47.8713 223.584C48.0785 223.22 48.1821 222.857 48.1821 222.493C48.1821 222.014 48.0462 221.627 47.7746 221.333C47.5075 221.038 47.146 220.89 46.6902 220.89C46.1468 220.89 45.7255 221.056 45.4262 221.388C45.1269 221.719 44.9773 222.173 44.9773 222.748H43.2989C43.2989 222.136 43.437 221.586 43.7133 221.098C43.9942 220.605 44.3925 220.223 44.9082 219.951C45.4285 219.679 46.0271 219.544 46.704 219.544C47.6802 219.544 48.4491 219.79 49.0109 220.283C49.5773 220.771 49.8605 221.448 49.8605 222.313C49.8605 222.815 49.7177 223.342 49.4322 223.895C49.1513 224.443 48.6886 225.067 48.0439 225.767L45.5851 228.398H50.2542V229.738Z" fill="#637173"/>
<path d="M45.4331 182.598H46.4553C46.9711 182.593 47.3786 182.46 47.6779 182.197C47.9818 181.935 48.1337 181.555 48.1337 181.057C48.1337 180.579 48.0071 180.208 47.7538 179.945C47.5052 179.678 47.123 179.545 46.6073 179.545C46.156 179.545 45.7854 179.676 45.4953 179.938C45.2052 180.196 45.0601 180.535 45.0601 180.954H43.3818C43.3818 180.438 43.5176 179.968 43.7893 179.545C44.0655 179.121 44.4477 178.792 44.9358 178.557C45.4285 178.318 45.9788 178.198 46.5866 178.198C47.5904 178.198 48.3778 178.451 48.9487 178.958C49.5243 179.46 49.8121 180.16 49.8121 181.057C49.8121 181.509 49.6671 181.935 49.377 182.335C49.0915 182.731 48.7208 183.03 48.265 183.233C48.8175 183.422 49.2365 183.719 49.522 184.124C49.8121 184.529 49.9572 185.013 49.9572 185.575C49.9572 186.477 49.6463 187.195 49.0247 187.73C48.4077 188.264 47.595 188.531 46.5866 188.531C45.6196 188.531 44.8276 188.273 44.2106 187.757C43.5936 187.241 43.2851 186.555 43.2851 185.699H44.9634C44.9634 186.141 45.1108 186.5 45.4055 186.776C45.7048 187.053 46.1054 187.191 46.6073 187.191C47.1276 187.191 47.5374 187.053 47.8367 186.776C48.136 186.5 48.2857 186.099 48.2857 185.575C48.2857 185.045 48.1291 184.638 47.816 184.352C47.5029 184.067 47.0378 183.924 46.4208 183.924H45.4331V182.598Z" fill="#637173"/>
<path d="M49.1698 143.456H50.4199V144.803H49.1698V147.041H47.4914V144.803H43.1469L43.0986 143.781L47.4361 136.985H49.1698V143.456ZM44.8598 143.456H47.4914V139.257L47.3671 139.478L44.8598 143.456Z" fill="#637173"/>
<path d="M43.9412 100.707L44.4869 95.6369H49.8881V97.0873H45.8821L45.6058 99.4909C46.0709 99.2239 46.5958 99.0903 47.1806 99.0903C48.1383 99.0903 48.882 99.3965 49.4115 100.009C49.9456 100.621 50.2127 101.446 50.2127 102.482C50.2127 103.504 49.918 104.319 49.3286 104.927C48.7392 105.53 47.9311 105.831 46.9043 105.831C45.9834 105.831 45.219 105.571 44.6112 105.051C44.008 104.526 43.6811 103.835 43.6304 102.979H45.2535C45.318 103.467 45.493 103.842 45.7785 104.105C46.0639 104.363 46.4369 104.492 46.8974 104.492C47.4131 104.492 47.8137 104.307 48.0992 103.939C48.3893 103.571 48.5343 103.069 48.5343 102.433C48.5343 101.821 48.3755 101.337 48.0577 100.983C47.74 100.624 47.3026 100.444 46.7454 100.444C46.4415 100.444 46.1837 100.486 45.9719 100.568C45.76 100.647 45.5298 100.803 45.2812 101.038L43.9412 100.707Z" fill="#637173"/>
<path d="M48.7139 53.1549V54.5432H48.5067C47.5674 54.557 46.8168 54.8149 46.255 55.3168C45.6933 55.8187 45.3594 56.5301 45.2535 57.451C45.7923 56.8847 46.4807 56.6015 47.3187 56.6015C48.2074 56.6015 48.9073 56.9146 49.4184 57.5408C49.9341 58.1671 50.192 58.9752 50.192 59.9652C50.192 60.9874 49.8904 61.8162 49.2872 62.4517C48.6886 63.0825 47.9012 63.3979 46.925 63.3979C45.9212 63.3979 45.1062 63.0272 44.48 62.2859C43.8583 61.5445 43.5475 60.573 43.5475 59.3712V58.7979C43.5475 57.0343 43.9758 55.6529 44.8322 54.6537C45.6933 53.6545 46.9296 53.1549 48.5412 53.1549H48.7139ZM46.9112 57.9552C46.5428 57.9552 46.2044 58.0588 45.8959 58.2661C45.592 58.4733 45.3686 58.7495 45.2259 59.0949V59.606C45.2259 60.3519 45.3825 60.9459 45.6956 61.388C46.0087 61.8254 46.4139 62.0441 46.9112 62.0441C47.4085 62.0441 47.8022 61.8577 48.0923 61.4847C48.3824 61.1117 48.5274 60.6213 48.5274 60.0135C48.5274 59.4057 48.3801 58.9107 48.0854 58.5285C47.7907 58.1463 47.3993 57.9552 46.9112 57.9552Z" fill="#637173"/>
<path d="M13.7266 187.992L13.7266 190.403L7.46888 193.967H13.7266V196.391H3.67007V193.967L9.92775 190.409H3.67007V187.992H13.7266ZM12.9185 182.114C13.5493 182.607 13.8647 183.272 13.8647 184.11C13.8647 184.93 13.6276 185.552 13.1533 185.975C12.6744 186.394 11.9883 186.604 11.095 186.604H6.25326V184.276H11.1088C11.7489 184.276 12.0689 183.965 12.0689 183.344C12.0689 182.81 11.8778 182.43 11.4956 182.204H6.25326V179.863H13.7266V182.045L12.9185 182.114ZM6.25326 176.381L7.13044 176.306C6.45356 175.776 6.11512 175.065 6.11512 174.171C6.11512 173.227 6.4904 172.59 7.24095 172.258C6.4904 171.752 6.11512 171.019 6.11512 170.062C6.11512 168.547 7.03144 167.769 8.86408 167.727H13.7266V170.062H9.00913C8.62694 170.062 8.34836 170.126 8.17339 170.255C7.99841 170.384 7.91092 170.619 7.91092 170.96C7.91092 171.42 8.11583 171.763 8.52564 171.989L8.62234 171.982H13.7266V174.316H9.02294C8.63155 174.316 8.34836 174.378 8.17339 174.503C7.99841 174.627 7.91092 174.864 7.91092 175.214C7.91092 175.661 8.11583 176.002 8.52564 176.236H13.7266V178.564H6.25326V176.381ZM10.0521 159.46C11.2769 159.46 12.2185 159.713 12.877 160.219C13.5355 160.726 13.8647 161.439 13.8647 162.36C13.8647 163.12 13.5631 163.733 12.9599 164.198L13.7266 164.294V166.38H3.11751L3.11751 164.053H6.85416C6.36147 163.62 6.11512 163.06 6.11512 162.374C6.11512 161.444 6.44896 160.726 7.11663 160.219C7.7843 159.713 8.72364 159.46 9.93466 159.46H10.0521ZM9.90703 161.794C9.18871 161.794 8.67759 161.891 8.37369 162.084C8.06518 162.273 7.91092 162.565 7.91092 162.961C7.91092 163.486 8.11123 163.85 8.51183 164.053H11.4818C11.8778 163.855 12.0758 163.486 12.0758 162.948C12.0758 162.4 11.8087 162.052 11.2746 161.905C11.0121 161.831 10.5563 161.794 9.90703 161.794ZM13.8647 154.811C13.8647 155.958 13.524 156.886 12.8425 157.595C12.1564 158.304 11.2654 158.658 10.1695 158.658H9.9761C9.21173 158.658 8.53715 158.518 7.95237 158.237C7.36758 157.951 6.91633 157.537 6.59861 156.994C6.27628 156.45 6.11512 155.806 6.11512 155.06C6.11512 154.01 6.44205 153.181 7.09591 152.573C7.74516 151.965 8.65227 151.662 9.81724 151.662H10.722V156.289C11.1411 156.206 11.4703 156.024 11.7097 155.744C11.9492 155.463 12.0689 155.099 12.0689 154.652C12.0689 153.916 11.811 153.34 11.2953 152.926L12.5524 151.862C12.953 152.152 13.273 152.564 13.5124 153.098C13.7473 153.628 13.8647 154.199 13.8647 154.811ZM7.91092 155.074C7.91092 155.755 8.36218 156.16 9.26468 156.289V153.941H9.0851C8.71213 153.932 8.42434 154.026 8.22174 154.224C8.01453 154.422 7.91092 154.705 7.91092 155.074ZM8.35987 146.198L8.30462 146.965C8.30462 147.697 8.53485 148.167 8.99531 148.374H13.7266V150.702H6.25326V148.519L7.21332 148.443C6.48119 148.052 6.11512 147.506 6.11512 146.806C6.11512 146.557 6.14275 146.341 6.198 146.157L8.35987 146.198Z" fill="#637173"/>
<rect x="64.9258" y="17.6152" width="52.2292" height="290.525" fill="#B5D94A"/>
<rect x="141.092" y="184.094" width="52.2292" height="124.044" fill="#87D7E3"/>
<rect x="219.436" y="142.748" width="52.2292" height="165.392" fill="#FDCC13"/>
<rect x="297" y="225.5" width="52" height="83" fill="#8F6ADE"/>
<path d="M53.3417 0.907624C53.1293 0.695157 52.7848 0.695157 52.5723 0.907624L49.11 4.36996C48.8975 4.58243 48.8975 4.9269 49.11 5.13937C49.3224 5.35184 49.6669 5.35184 49.8794 5.13937L52.957 2.06174L56.0347 5.13937C56.2471 5.35184 56.5916 5.35184 56.8041 5.13937C57.0165 4.9269 57.0165 4.58243 56.8041 4.36996L53.3417 0.907624ZM53.5011 308.139L53.5011 1.29233L52.413 1.29233L52.413 308.139L53.5011 308.139Z" fill="#637173"/>
<path d="M367.805 308.523C368.017 308.311 368.017 307.966 367.805 307.754L364.343 304.292C364.13 304.079 363.786 304.079 363.573 304.292C363.361 304.504 363.361 304.849 363.573 305.061L366.651 308.139L363.573 311.216C363.361 311.429 363.361 311.773 363.573 311.986C363.786 312.198 364.13 312.198 364.343 311.986L367.805 308.523ZM52.957 308.683L367.42 308.683L367.42 307.595L52.957 307.595L52.957 308.683Z" fill="#637173"/>
</svg>
