<svg width="169" height="60" viewBox="0 0 169 60" fill="none" xmlns="http://www.w3.org/2000/svg">
<path d="M7.32593 23.4C8.44193 23.4 9.40793 23.586 10.2239 23.958C11.0519 24.33 11.6879 24.858 12.1319 25.542C12.5759 26.226 12.7979 27.036 12.7979 27.972C12.7979 28.896 12.5759 29.706 12.1319 30.402C11.6879 31.086 11.0519 31.614 10.2239 31.986C9.40793 32.346 8.44193 32.526 7.32593 32.526H4.78793V36H1.87193V23.4H7.32593ZM7.16393 30.15C8.03993 30.15 8.70593 29.964 9.16193 29.592C9.61793 29.208 9.84593 28.668 9.84593 27.972C9.84593 27.264 9.61793 26.724 9.16193 26.352C8.70593 25.968 8.03993 25.776 7.16393 25.776H4.78793V30.15H7.16393ZM17.3637 27.594C17.6997 27.126 18.1497 26.772 18.7137 26.532C19.2897 26.292 19.9497 26.172 20.6937 26.172V28.764C20.3817 28.74 20.1717 28.728 20.0637 28.728C19.2597 28.728 18.6297 28.956 18.1737 29.412C17.7177 29.856 17.4897 30.528 17.4897 31.428V36H14.6817V26.316H17.3637V27.594ZM22.3634 26.316H25.1714V36H22.3634V26.316ZM23.7674 24.966C23.2514 24.966 22.8314 24.816 22.5074 24.516C22.1834 24.216 22.0214 23.844 22.0214 23.4C22.0214 22.956 22.1834 22.584 22.5074 22.284C22.8314 21.984 23.2514 21.834 23.7674 21.834C24.2834 21.834 24.7034 21.978 25.0274 22.266C25.3514 22.554 25.5134 22.914 25.5134 23.346C25.5134 23.814 25.3514 24.204 25.0274 24.516C24.7034 24.816 24.2834 24.966 23.7674 24.966ZM32.4574 36.144C31.4254 36.144 30.4954 35.934 29.6674 35.514C28.8514 35.082 28.2094 34.488 27.7414 33.732C27.2854 32.976 27.0574 32.118 27.0574 31.158C27.0574 30.198 27.2854 29.34 27.7414 28.584C28.2094 27.828 28.8514 27.24 29.6674 26.82C30.4954 26.388 31.4254 26.172 32.4574 26.172C33.4774 26.172 34.3654 26.388 35.1214 26.82C35.8894 27.24 36.4474 27.846 36.7954 28.638L34.6174 29.808C34.1134 28.92 33.3874 28.476 32.4394 28.476C31.7074 28.476 31.1014 28.716 30.6214 29.196C30.1414 29.676 29.9014 30.33 29.9014 31.158C29.9014 31.986 30.1414 32.64 30.6214 33.12C31.1014 33.6 31.7074 33.84 32.4394 33.84C33.3994 33.84 34.1254 33.396 34.6174 32.508L36.7954 33.696C36.4474 34.464 35.8894 35.064 35.1214 35.496C34.3654 35.928 33.4774 36.144 32.4574 36.144ZM47.7752 31.194C47.7752 31.23 47.7572 31.482 47.7212 31.95H40.3952C40.5272 32.55 40.8392 33.024 41.3312 33.372C41.8232 33.72 42.4352 33.894 43.1672 33.894C43.6712 33.894 44.1152 33.822 44.4992 33.678C44.8952 33.522 45.2612 33.282 45.5972 32.958L47.0912 34.578C46.1792 35.622 44.8472 36.144 43.0952 36.144C42.0032 36.144 41.0372 35.934 40.1972 35.514C39.3572 35.082 38.7092 34.488 38.2532 33.732C37.7972 32.976 37.5692 32.118 37.5692 31.158C37.5692 30.21 37.7912 29.358 38.2352 28.602C38.6912 27.834 39.3092 27.24 40.0892 26.82C40.8812 26.388 41.7632 26.172 42.7352 26.172C43.6832 26.172 44.5412 26.376 45.3092 26.784C46.0772 27.192 46.6772 27.78 47.1092 28.548C47.5532 29.304 47.7752 30.186 47.7752 31.194ZM42.7532 28.296C42.1172 28.296 41.5832 28.476 41.1512 28.836C40.7192 29.196 40.4552 29.688 40.3592 30.312H45.1292C45.0332 29.7 44.7692 29.214 44.3372 28.854C43.9052 28.482 43.3772 28.296 42.7532 28.296ZM52.9026 36.144C52.0986 36.144 51.3126 36.048 50.5446 35.856C49.7766 35.652 49.1646 35.4 48.7086 35.1L49.6446 33.084C50.0766 33.36 50.5986 33.588 51.2106 33.768C51.8226 33.936 52.4226 34.02 53.0106 34.02C54.1986 34.02 54.7926 33.726 54.7926 33.138C54.7926 32.862 54.6306 32.664 54.3066 32.544C53.9826 32.424 53.4846 32.322 52.8126 32.238C52.0206 32.118 51.3666 31.98 50.8506 31.824C50.3346 31.668 49.8846 31.392 49.5006 30.996C49.1286 30.6 48.9426 30.036 48.9426 29.304C48.9426 28.692 49.1166 28.152 49.4646 27.684C49.8246 27.204 50.3406 26.832 51.0126 26.568C51.6966 26.304 52.5006 26.172 53.4246 26.172C54.1086 26.172 54.7866 26.25 55.4586 26.406C56.1426 26.55 56.7066 26.754 57.1506 27.018L56.2146 29.016C55.3626 28.536 54.4326 28.296 53.4246 28.296C52.8246 28.296 52.3746 28.38 52.0746 28.548C51.7746 28.716 51.6246 28.932 51.6246 29.196C51.6246 29.496 51.7866 29.706 52.1106 29.826C52.4346 29.946 52.9506 30.06 53.6586 30.168C54.4506 30.3 55.0986 30.444 55.6026 30.6C56.1066 30.744 56.5446 31.014 56.9166 31.41C57.2886 31.806 57.4746 32.358 57.4746 33.066C57.4746 33.666 57.2946 34.2 56.9346 34.668C56.5746 35.136 56.0466 35.502 55.3506 35.766C54.6666 36.018 53.8506 36.144 52.9026 36.144ZM60.2691 29.682C59.7771 29.682 59.3631 29.514 59.0271 29.178C58.6911 28.842 58.5231 28.422 58.5231 27.918C58.5231 27.402 58.6911 26.988 59.0271 26.676C59.3631 26.352 59.7771 26.19 60.2691 26.19C60.7611 26.19 61.1751 26.352 61.5111 26.676C61.8471 26.988 62.0151 27.402 62.0151 27.918C62.0151 28.422 61.8471 28.842 61.5111 29.178C61.1751 29.514 60.7611 29.682 60.2691 29.682ZM60.2691 36.144C59.7771 36.144 59.3631 35.976 59.0271 35.64C58.6911 35.304 58.5231 34.884 58.5231 34.38C58.5231 33.864 58.6911 33.45 59.0271 33.138C59.3631 32.814 59.7771 32.652 60.2691 32.652C60.7611 32.652 61.1751 32.814 61.5111 33.138C61.8471 33.45 62.0151 33.864 62.0151 34.38C62.0151 34.884 61.8471 35.304 61.5111 35.64C61.1751 35.976 60.7611 36.144 60.2691 36.144Z" fill="#2F2F2F"/>
<g clip-path="url(#clip0_10_358)">
<path d="M98.3881 9.31113C98.3881 9.31113 81.7433 18.5121 80 0.774291C80 0.774291 91.8852 -3.80544 98.3881 9.31113Z" fill="#369CB7"/>
<path d="M81.9927 1.86622C82.048 1.86622 82.048 1.7832 81.9927 1.7832C81.9373 1.7832 81.9373 1.86622 81.9927 1.86622Z" fill="#369CB7"/>
<path d="M82.3516 2.25459C84.8974 3.69354 87.554 4.93879 90.1828 6.2117C91.4834 6.83432 92.784 7.45695 94.0984 8.06573C94.7625 8.37013 95.4267 8.64685 96.0908 8.90973C96.7134 9.15878 97.3637 9.53235 98.0555 9.32481C98.3184 9.2418 98.3738 8.9374 98.2492 8.72986C97.8895 8.14875 97.1423 7.99655 96.5336 7.77518C95.8556 7.52613 95.1776 7.27708 94.4858 7.02803C93.1161 6.54377 91.7463 6.05951 90.3904 5.53374C87.6923 4.4822 85.0635 3.27846 82.407 2.13007C82.3239 2.07473 82.2686 2.21309 82.3516 2.25459Z" fill="#369CB7"/>
<path d="M86.2808 0.968544C86.2947 1.66035 86.5852 2.33831 86.8481 2.97477C87.0972 3.61123 87.3739 4.34454 87.8028 4.87031C87.9412 5.03634 88.2179 4.91182 88.1487 4.69044C87.9135 4.01247 87.4984 3.38985 87.2078 2.73956C86.945 2.13077 86.7513 1.48048 86.3915 0.9132C86.35 0.885528 86.267 0.9132 86.2808 0.968544Z" fill="#369CB7"/>
<path d="M83.5972 7.04316C84.372 6.61424 85.1745 6.28218 86.0047 5.95011C86.6688 5.68723 87.5543 5.16146 88.3014 5.27215C88.6888 5.32749 88.7995 4.77405 88.4121 4.69103C87.6096 4.49733 86.6273 5.16146 85.9355 5.47969C85.1191 5.85326 84.0538 6.19916 83.4865 6.91864C83.4173 7.00165 83.5142 7.0985 83.5972 7.04316Z" fill="#369CB7"/>
<path d="M90.543 2.54677C90.626 3.23857 90.9304 3.93038 91.0964 4.60834C91.2901 5.35549 91.4285 6.11647 91.5945 6.87745C91.6499 7.15417 92.1479 7.05732 92.0926 6.76676C91.9681 6.01962 91.7605 5.27247 91.5115 4.553C91.2901 3.88887 91.0272 3.07254 90.5845 2.5191C90.5845 2.50526 90.543 2.5191 90.543 2.54677Z" fill="#369CB7"/>
<path d="M87.2497 9.0616C88.0245 8.70186 88.7578 8.24527 89.5326 7.84402C90.3904 7.40127 91.2621 7.0277 92.1753 6.69563C92.5765 6.54343 92.3275 5.92081 91.9539 6.10068C90.3074 6.8755 88.5087 7.70566 87.1666 8.93707C87.0975 8.97858 87.1805 9.08927 87.2497 9.0616Z" fill="#369CB7"/>
<path d="M97.5995 3.33477C98.2775 3.1964 99.0108 3.37627 99.5227 3.81903C98.734 4.5385 98.7479 5.76991 98.7479 6.73843C98.7479 7.37489 99.8133 12.4804 98.9416 12.4389C97.475 12.3697 97.0737 3.44545 97.5995 3.33477Z" fill="#369CB7"/>
<path d="M113.593 35.1834C113.095 35.64 112.583 36.0689 112.058 36.4702C111.795 36.6777 111.532 36.8714 111.255 37.0513C108.931 38.6978 105.928 40.4273 103.05 39.182C102.787 39.1267 102.524 39.0852 102.262 39.0437C101.999 39.0021 101.736 38.9745 101.459 38.9606C100.532 38.9191 99.5912 39.1543 98.7749 39.4726C98.4152 39.5694 98.0554 39.6524 97.6957 39.7216C96.2429 40.0122 94.7486 40.0952 93.3097 39.8877C92.9499 39.8323 92.5902 39.777 92.2443 39.6801C89.4909 38.7669 86.8898 37.0928 84.7175 35.1004C84.51 34.8928 84.2886 34.6853 84.0949 34.4778C79.9579 30.1609 79.6673 22.5096 82.4207 17.4456C82.8358 16.6708 83.2785 15.979 83.7628 15.384C84.9804 13.8621 86.4747 12.8659 88.7299 12.2709C90.9437 11.6898 93.2405 11.4131 95.5234 11.4684C97.8756 11.5238 99.6881 11.5514 101.86 10.7351C103.59 10.0848 105.472 10.0156 107.284 10.3062C110.522 10.832 113.372 12.1187 115.143 14.8583C116.499 16.9613 117.398 19.4103 117.786 21.9285C118.477 26.7296 117.288 31.7797 113.593 35.1834Z" fill="#369CB7"/>
</g>
<path d="M90.6549 44.8V56H88.0629V46.88H85.8229V44.8H90.6549ZM97.4006 56.192C96.4726 56.192 95.6459 55.9627 94.9206 55.504C94.1952 55.0453 93.6246 54.384 93.2086 53.52C92.8032 52.6453 92.6006 51.6053 92.6006 50.4C92.6006 49.1947 92.8032 48.16 93.2086 47.296C93.6246 46.4213 94.1952 45.7547 94.9206 45.296C95.6459 44.8373 96.4726 44.608 97.4006 44.608C98.3286 44.608 99.1552 44.8373 99.8806 45.296C100.606 45.7547 101.171 46.4213 101.577 47.296C101.993 48.16 102.201 49.1947 102.201 50.4C102.201 51.6053 101.993 52.6453 101.577 53.52C101.171 54.384 100.606 55.0453 99.8806 55.504C99.1552 55.9627 98.3286 56.192 97.4006 56.192ZM97.4006 54C98.0832 54 98.6166 53.7067 99.0006 53.12C99.3952 52.5333 99.5926 51.6267 99.5926 50.4C99.5926 49.1733 99.3952 48.2667 99.0006 47.68C98.6166 47.0933 98.0832 46.8 97.4006 46.8C96.7286 46.8 96.1952 47.0933 95.8006 47.68C95.4166 48.2667 95.2246 49.1733 95.2246 50.4C95.2246 51.6267 95.4166 52.5333 95.8006 53.12C96.1952 53.7067 96.7286 54 97.4006 54ZM108.804 53.984C109.348 53.8027 109.769 53.44 110.068 52.896L112.004 53.952C111.737 54.5493 111.321 55.0347 110.756 55.408C110.201 55.7813 109.551 56.0107 108.804 56.096V57.92H107.204V56.048C106.447 55.9307 105.775 55.6747 105.188 55.28C104.612 54.8747 104.159 54.368 103.828 53.76C103.508 53.1413 103.348 52.4533 103.348 51.696C103.348 50.9387 103.508 50.256 103.828 49.648C104.159 49.0293 104.612 48.5227 105.188 48.128C105.775 47.7227 106.447 47.4613 107.204 47.344V45.472H108.804V47.296C109.561 47.3813 110.217 47.6107 110.772 47.984C111.327 48.3573 111.737 48.848 112.004 49.456L110.068 50.496C109.759 49.9413 109.337 49.5787 108.804 49.408V53.984ZM105.876 51.696C105.876 52.2293 105.993 52.688 106.228 53.072C106.473 53.456 106.799 53.7333 107.204 53.904V49.488C106.799 49.6587 106.473 49.936 106.228 50.32C105.993 50.704 105.876 51.1627 105.876 51.696Z" fill="#369CB7"/>
<g clip-path="url(#clip1_10_358)">
<path d="M134.053 34.8164C133.45 35.0074 132.887 35.3091 132.404 35.7113C132.756 35.7414 133.098 35.8018 133.44 35.8721C133.561 35.9023 133.691 35.9325 133.772 36.033C134.043 36.3849 133.279 36.8575 133.49 37.2496C133.571 37.4105 133.782 37.4507 133.953 37.4306C134.124 37.4005 134.285 37.32 134.455 37.2697C134.536 37.2496 134.616 37.2396 134.687 37.2697C134.838 37.3301 134.878 37.5312 134.848 37.692C134.827 37.8529 134.767 38.0238 134.817 38.1747C134.888 38.3959 135.149 38.5065 135.391 38.4763C135.632 38.4461 135.823 38.3054 136.014 38.1747C136.205 38.6774 136.396 39.1801 136.587 39.6829C136.637 39.8236 136.718 39.9845 136.869 40.0046C136.979 40.0247 137.08 39.9543 137.16 39.894C137.633 39.5321 138.015 39.0695 138.286 38.5366C138.427 38.2652 138.518 37.8931 138.286 37.682L134.053 34.8164Z" fill="#369CB7"/>
<path d="M152.384 35.6601C152.213 35.841 152.032 36.022 151.851 36.203C150.232 37.7816 148.322 38.958 146.24 39.5211C145.969 39.5914 145.698 39.6618 145.416 39.7121C145.356 39.7221 145.305 39.7322 145.245 39.7423C144.913 39.8026 144.571 39.8428 144.23 39.8629C142.339 39.9936 140.429 39.702 138.649 39.0384C138.448 38.968 138.247 38.8876 138.046 38.7971C137.211 38.4452 136.417 38.0028 135.663 37.49C134.989 37.0275 134.346 36.4946 133.773 35.9014C133.592 35.7103 133.411 35.5193 133.25 35.3182C133.139 35.1875 133.019 35.0467 132.918 34.906C132.777 34.7149 132.636 34.5239 132.506 34.3328C131.862 33.3676 131.39 32.2917 131.158 31.1556C130.947 30.1099 130.957 29.0441 131.128 27.9984C131.158 27.8375 131.189 27.6766 131.219 27.5158C131.641 25.5048 132.647 23.5743 133.853 21.8952L133.913 21.8148C133.994 21.7142 134.064 21.6036 134.145 21.5031C135.512 19.6832 137.171 18.0644 139.041 16.7673C139.182 16.6768 139.313 16.5763 139.454 16.4858C140.117 16.0534 140.811 15.6512 141.515 15.3094C141.686 15.2289 141.867 15.1384 142.038 15.058C143.757 14.2838 145.587 13.7911 147.477 13.6504C147.568 13.6403 147.668 13.6403 147.759 13.6302C147.829 13.6302 147.91 13.6202 147.98 13.6202C148.111 13.6101 148.251 13.6101 148.382 13.6101C151.238 13.58 153.299 14.4447 154.998 16.7472C155.119 16.9081 155.239 17.079 155.35 17.2499C155.36 17.26 155.36 17.27 155.37 17.27C156.305 18.6877 156.858 20.2965 157.079 21.9857C157.11 22.1868 157.13 22.3879 157.15 22.589C157.2 23.1721 157.21 23.7553 157.19 24.3485C157.13 25.9874 156.798 27.6565 156.235 29.2653C156.164 29.4563 156.094 29.6574 156.014 29.8484C155.943 30.0294 155.873 30.2104 155.792 30.3813C154.958 32.332 153.802 34.1418 152.384 35.6601Z" fill="#369CB7"/>
<path d="M153.439 31.8289C152.544 32.8847 151.498 33.86 150.342 34.6543C150.111 34.8152 149.879 34.9559 149.648 35.1068C149.156 35.3983 148.653 35.6598 148.13 35.881C147.848 36.0016 147.567 36.1022 147.275 36.2027C146.31 36.5144 145.295 36.6853 144.259 36.6552C142.912 36.625 141.594 36.2731 140.368 35.71C140.177 35.6195 139.986 35.529 139.805 35.4285C139.211 35.1168 138.638 34.7448 138.105 34.3426C136.889 33.4276 135.803 32.2512 135.089 30.9139C134.968 30.6827 134.858 30.4514 134.757 30.2202C134.586 29.818 134.456 29.4057 134.365 28.9835C134.325 28.7924 134.285 28.5913 134.265 28.3902C134.234 28.159 134.214 27.9177 134.214 27.6763C134.174 25.7056 135.029 23.8757 136.215 22.2669C136.296 22.1463 136.386 22.0357 136.477 21.9251C136.828 21.4726 137.2 21.0403 137.583 20.628C138.467 19.6728 139.443 18.7478 140.498 17.8831C140.74 17.682 140.981 17.491 141.222 17.2999C141.293 17.2396 141.373 17.1893 141.444 17.129C141.574 17.0284 141.705 16.9279 141.836 16.8374C143.585 15.5504 145.506 14.4444 147.486 13.6601C147.577 13.6501 147.677 13.6501 147.768 13.64C147.838 13.64 147.919 13.63 147.989 13.63C148.12 13.6199 148.261 13.6199 148.391 13.6199C151.247 13.5897 153.308 14.4544 155.007 16.757C155.128 16.9178 155.249 17.0888 155.359 17.2597C155.369 17.2698 155.369 17.2798 155.379 17.2798C156.314 18.6975 156.867 20.3063 157.089 21.9954C157.119 22.1965 157.139 22.3976 157.159 22.5987C157.209 23.1819 157.219 23.7651 157.199 24.3583C156.888 25.9369 156.294 27.4652 155.5 28.893C155.399 29.0739 155.299 29.2449 155.188 29.4259C154.665 30.2705 154.072 31.0748 153.439 31.8289Z" fill="#369CB7"/>
<path d="M157.14 22.5884C156.879 22.4477 156.627 22.3069 156.366 22.1762C155.662 21.8142 154.958 21.4623 154.234 21.1305C154.073 21.0601 153.912 20.9797 153.762 20.9093C151.6 19.934 149.368 19.1095 147.095 18.4358C146.945 18.3856 146.794 18.3454 146.633 18.3051C146.321 18.2146 146.009 18.1342 145.698 18.0437C144.29 17.6717 142.862 17.36 141.425 17.1086C141.374 17.0986 141.324 17.0885 141.274 17.0785C141.123 17.0483 140.972 17.0282 140.821 16.998C140.55 16.9578 140.278 16.9075 139.997 16.8673C139.675 16.817 139.353 16.7768 139.021 16.7366C139.162 16.6461 139.293 16.5456 139.434 16.4551C139.916 16.5154 140.389 16.5858 140.861 16.6562C140.892 16.6562 140.922 16.6662 140.942 16.6662C141.093 16.6863 141.244 16.7165 141.394 16.7366C141.535 16.7567 141.676 16.7768 141.807 16.807C143.466 17.0885 145.115 17.4505 146.743 17.903C146.894 17.9432 147.045 17.9834 147.196 18.0337C148.825 18.4962 150.423 19.0391 152.002 19.6625C152.636 19.9139 153.269 20.1753 153.892 20.4468C154.053 20.5172 154.214 20.5875 154.365 20.6579C155.28 21.0702 156.175 21.5126 157.06 21.9751C157.1 22.1862 157.12 22.3873 157.14 22.5884Z" fill="#369CB7"/>
<path d="M156.004 29.858C155.733 29.7172 155.451 29.5664 155.18 29.4256C154.074 28.8525 152.948 28.3096 151.821 27.7867C151.701 27.7364 151.59 27.6761 151.47 27.6258C151.409 27.5957 151.359 27.5756 151.299 27.5454C149.217 26.6003 147.106 25.7356 144.964 24.9513C144.793 24.891 144.622 24.8306 144.441 24.7603C142.833 24.1871 141.204 23.6542 139.565 23.1817C139.334 23.1113 139.102 23.051 138.871 22.9806C138.7 22.9303 138.519 22.88 138.348 22.8298C137.644 22.6287 136.92 22.4376 136.196 22.2566C135.442 22.0756 134.678 21.9148 133.914 21.7941C133.994 21.6936 134.065 21.583 134.145 21.4824C134.256 21.5025 134.367 21.5126 134.477 21.5327C135.141 21.6332 135.804 21.764 136.458 21.9047C137.152 22.0555 137.845 22.2265 138.529 22.4175C138.7 22.4678 138.881 22.508 139.052 22.5583C139.474 22.6789 139.907 22.7895 140.329 22.9102C141.777 23.3224 143.205 23.7749 144.622 24.2575C144.793 24.3178 144.964 24.3782 145.145 24.4385C145.598 24.5994 146.05 24.7603 146.503 24.9312C148.202 25.5646 149.881 26.2483 151.53 26.9924C151.701 27.0728 151.872 27.1432 152.043 27.2237C153.199 27.7566 154.355 28.3096 155.491 28.8827C155.743 29.0033 155.984 29.134 156.225 29.2648C156.155 29.4659 156.075 29.6569 156.004 29.858Z" fill="#369CB7"/>
<path d="M152.383 35.6599C152.212 35.8409 152.031 36.0219 151.851 36.2029C151.117 35.8308 150.372 35.4689 149.628 35.1069C149.317 34.9561 149.015 34.8153 148.703 34.6645C148.522 34.574 148.331 34.4936 148.15 34.4031C146.18 33.4881 144.189 32.6234 142.168 31.819C141.977 31.7386 141.786 31.6682 141.595 31.5878C141.002 31.3565 140.408 31.1253 139.805 30.894C138.478 30.3913 137.141 29.9086 135.793 29.4562C135.602 29.3858 135.401 29.3255 135.21 29.2651C134.918 29.1646 134.617 29.0741 134.325 28.9736C133.903 28.8328 133.471 28.7021 133.038 28.5714C132.395 28.3703 131.751 28.1792 131.098 27.9982C131.128 27.8374 131.158 27.6765 131.188 27.5156C132.083 27.7368 132.958 28.0083 133.812 28.2597C133.943 28.2999 134.084 28.3401 134.215 28.3803C134.627 28.511 135.039 28.6317 135.451 28.7725C135.642 28.8328 135.843 28.8931 136.035 28.9635C137.985 29.5969 139.926 30.2807 141.836 31.0147C142.027 31.085 142.218 31.1554 142.409 31.2359C144.159 31.9196 145.898 32.6435 147.617 33.4177C147.889 33.5384 148.16 33.659 148.432 33.7897C148.613 33.8702 148.804 33.9607 148.985 34.0411C149.427 34.2422 149.86 34.4534 150.302 34.6544C151.026 34.9762 151.71 35.3181 152.383 35.6599Z" fill="#369CB7"/>
<path d="M145.245 39.7327C144.913 39.793 144.571 39.8332 144.229 39.8533C142.611 39.1093 140.972 38.4255 139.303 37.782C139.102 37.7016 138.9 37.6312 138.699 37.5508C138.056 37.3095 137.402 37.0782 136.759 36.857C135.773 36.5152 134.778 36.1934 133.783 35.8918C133.602 35.7007 133.421 35.5097 133.26 35.3086C133.27 35.3086 133.28 35.3186 133.29 35.3186C135.19 35.8515 137.081 36.4548 138.941 37.1285C139.142 37.1989 139.343 37.2793 139.544 37.3497C141.464 38.0736 143.375 38.8679 145.245 39.7327Z" fill="#369CB7"/>
<path d="M146.25 39.5213C145.979 39.5917 145.707 39.6621 145.426 39.7124C146.049 38.546 146.673 37.3797 147.276 36.2033C147.577 35.6101 147.879 35.0068 148.171 34.4136C148.271 34.2024 148.372 34.0013 148.472 33.7902C149.468 31.739 150.423 29.6577 151.298 27.5563C151.378 27.3753 151.449 27.1943 151.519 27.0133C151.569 26.9027 151.609 26.782 151.66 26.6714C152.434 24.7812 153.128 22.8708 153.751 20.9302C153.801 20.7794 153.852 20.6286 153.902 20.4778C154.294 19.2511 154.656 18.0144 154.988 16.7676C155.108 16.9285 155.229 17.0994 155.34 17.2703C155.068 18.3261 154.777 19.3717 154.455 20.4074C154.425 20.4979 154.395 20.5984 154.364 20.6889C154.314 20.8397 154.264 21.0006 154.224 21.1514C153.57 23.2126 152.836 25.2437 152.032 27.2446C151.961 27.4255 151.881 27.6166 151.811 27.7976C150.946 29.9091 150.011 31.9904 149.025 34.0516C148.925 34.2627 148.824 34.4739 148.724 34.675C148.714 34.7051 148.694 34.7353 148.683 34.7554C148.503 35.1375 148.311 35.5095 148.13 35.8815C147.517 37.0982 146.884 38.3148 146.25 39.5213Z" fill="#369CB7"/>
<path d="M138.65 39.0282C138.449 38.9578 138.248 38.8774 138.047 38.7869C138.268 38.3746 138.489 37.9724 138.7 37.5602C138.771 37.4194 138.851 37.2787 138.922 37.1279C139.213 36.5547 139.505 35.9816 139.796 35.4085C140.43 34.1416 141.033 32.8647 141.616 31.5777C141.707 31.3866 141.787 31.1956 141.878 31.0045C142.722 29.1042 143.517 27.1838 144.261 25.2332C144.321 25.0723 144.381 24.9114 144.442 24.7505C144.502 24.5897 144.562 24.4288 144.623 24.2579C145.347 22.2871 146.02 20.3064 146.634 18.2954C146.674 18.1647 146.714 18.034 146.754 17.9033C146.794 17.7625 146.845 17.6218 146.885 17.4709C147.267 16.184 147.639 14.897 147.981 13.5999C148.112 13.5898 148.252 13.5898 148.383 13.5898C148.343 13.7407 148.303 13.8915 148.272 14.0524C147.951 15.3896 147.599 16.7068 147.217 18.034C147.177 18.1647 147.136 18.2954 147.096 18.4362C147.086 18.4764 147.076 18.5166 147.056 18.5569C146.473 20.5376 145.829 22.4983 145.135 24.4388C145.075 24.5997 145.015 24.7706 144.954 24.9315C144.18 27.0531 143.346 29.1444 142.441 31.2157C142.36 31.4067 142.27 31.6078 142.179 31.7989C141.848 32.553 141.496 33.3071 141.144 34.0511C140.882 34.5941 140.621 35.137 140.359 35.68C140.088 36.233 139.806 36.786 139.525 37.339C139.455 37.4798 139.374 37.6306 139.304 37.7713C139.093 38.2037 138.871 38.6159 138.65 39.0282Z" fill="#369CB7"/>
<path d="M132.918 34.9049C132.777 34.7138 132.637 34.5228 132.506 34.3317C133.28 32.9643 134.024 31.5969 134.748 30.2093C134.909 29.8976 135.07 29.5859 135.241 29.2642C135.321 29.1033 135.412 28.9324 135.492 28.7715C136.317 27.1527 137.111 25.5238 137.875 23.8749C138.036 23.523 138.197 23.1811 138.358 22.8292C138.418 22.6985 138.478 22.5577 138.539 22.427C139.212 20.9188 139.866 19.4006 140.489 17.8722C140.509 17.822 140.529 17.7817 140.55 17.7315C140.65 17.4902 140.741 17.2589 140.841 17.0176C140.881 16.907 140.932 16.7964 140.972 16.6858C141.153 16.2233 141.344 15.7608 141.525 15.2982C141.696 15.2178 141.877 15.1273 142.048 15.0469C142.028 15.0971 142.008 15.1575 141.987 15.2077C141.806 15.7205 141.615 16.2333 141.424 16.7461C141.384 16.8567 141.344 16.9673 141.294 17.0779C141.274 17.1382 141.243 17.2086 141.223 17.279C141.032 17.7717 140.841 18.2543 140.65 18.747C140.137 20.0239 139.615 21.2908 139.062 22.5577C139.001 22.6985 138.941 22.8292 138.881 22.97C137.996 24.9809 137.061 26.9818 136.085 28.9525C136.005 29.1234 135.914 29.2843 135.834 29.4552C135.593 29.9379 135.341 30.4205 135.1 30.9031C135.09 30.9132 135.09 30.9232 135.08 30.9433C134.366 32.2705 133.652 33.5978 132.918 34.9049Z" fill="#369CB7"/>
<path d="M159.461 18.6886C158.184 18.216 157.43 18.4473 156.163 18.8595C154.897 19.2818 154.092 18.6182 152.926 18.0451C151.87 17.5222 150.895 17.0899 150.01 16.2855C148.663 15.0588 148.733 14.0735 149.447 12.6256C150.171 11.1576 149.316 9.50864 148.23 8.42274C147.124 7.30667 145.666 6.60284 144.259 5.89901C144.017 5.77835 143.726 5.52699 143.847 5.28567C143.897 5.18513 143.997 5.13485 144.098 5.08458C146.913 3.70709 150.633 4.53157 152.584 6.98492C152.996 6.00961 152.805 4.84327 152.262 3.92829C151.719 3.01332 150.855 2.3296 149.93 1.80676C149.688 1.67604 149.437 1.53528 149.316 1.28391C149.175 0.972217 149.336 0.580084 149.598 0.368936C149.869 0.157788 150.221 0.0773501 150.563 0.0371314C153.539 -0.314782 156.606 1.87714 157.229 4.8131C158.456 3.43561 160.467 2.95299 162.287 3.24457C164.107 3.53616 165.746 4.52152 167.173 5.67781C165.263 5.83868 163.423 6.68328 162.066 8.04066C165.042 8.85509 167.535 11.2682 168.46 14.2142C165.987 13.7316 163.413 13.7819 160.96 14.3449C163.624 15.6822 165.193 18.8997 164.609 21.8156C163.131 20.4481 161.362 19.3823 159.461 18.6886Z" fill="#369CB7"/>
<path d="M159.1 11.2583C162.287 10.6349 166.57 11.3387 168.38 14.1942C168.41 14.2043 168.44 14.2043 168.481 14.2143C167.556 11.2683 165.072 8.8552 162.086 8.04077C162.186 7.94023 159.994 9.93105 159.1 11.2583Z" fill="#369CB7"/>
<path d="M155.902 5.12495C156.153 5.60758 156.153 6.13042 155.983 6.67337C156.395 5.94944 156.616 5.53719 157.27 4.79315C156.415 1.60581 153.469 -0.294521 150.583 0.0473379C150.241 0.0875566 149.889 0.167994 149.618 0.379142C149.558 0.429416 149.507 0.479689 149.457 0.540017C152.192 0.751166 154.665 2.70177 155.902 5.12495Z" fill="#369CB7"/>
<path d="M151.468 7.83861C151.679 8.06987 151.82 8.39162 151.961 8.71337C151.991 8.87425 152.011 9.02507 151.981 9.17589C152.303 8.40168 152.253 8.23075 152.604 6.96386C150.614 4.66134 146.853 3.72625 144.118 5.07358C144.108 5.08363 144.098 5.08363 144.078 5.09369C146.743 4.78199 149.417 6.16954 151.468 7.83861Z" fill="#369CB7"/>
<path d="M160.98 14.3438C159.653 14.4342 158.688 15.7615 157.521 16.3346C161.171 15.1883 163.182 18.9589 164.54 21.734C164.57 21.7541 164.59 21.7842 164.62 21.8043C165.213 18.8985 163.645 15.681 160.98 14.3438Z" fill="#369CB7"/>
<path d="M148.754 13.772C148.513 14.5965 148.784 15.3104 149.277 15.974C149.8 16.6779 150.393 17.3214 151.027 17.9246C152.344 19.1614 153.983 19.9858 155.792 20.1769C156.577 20.2573 157.069 19.0709 156.456 18.5782C155.29 17.6431 154.123 16.698 152.937 15.793C152.133 15.1797 151.328 14.5563 150.494 13.9832C150.222 13.8022 149.951 13.6212 149.669 13.4604C149.589 13.4101 149.508 13.3699 149.418 13.3196C149.247 13.219 148.985 12.9978 149.448 13.3598C148.784 12.837 147.839 13.772 148.513 14.2949C148.261 14.0938 148.493 14.2748 148.573 14.3653C148.634 14.4256 148.694 14.496 148.754 14.5563C148.975 14.7876 149.207 15.0088 149.428 15.23C150.152 15.9237 150.956 16.5471 151.73 17.1906C152.846 18.1157 153.993 19.0005 155.139 19.8954C155.36 19.3625 155.581 18.8296 155.802 18.2967C154.445 18.1659 153.289 17.4521 152.183 16.698C151.61 16.3058 151.087 15.8433 150.554 15.3909C150.051 14.9686 149.347 14.4256 149.197 13.772C149.146 13.5408 148.814 13.5609 148.754 13.772Z" fill="#369CB7"/>
</g>
<path d="M144.208 53.648H142.384V56H139.856V53.648H133.824V51.904L139.104 44.8H141.824L136.928 51.536H139.936V49.44H142.384V51.536H144.208V53.648ZM149.783 56.192C148.855 56.192 148.029 55.9627 147.303 55.504C146.578 55.0453 146.007 54.384 145.591 53.52C145.186 52.6453 144.983 51.6053 144.983 50.4C144.983 49.1947 145.186 48.16 145.591 47.296C146.007 46.4213 146.578 45.7547 147.303 45.296C148.029 44.8373 148.855 44.608 149.783 44.608C150.711 44.608 151.538 44.8373 152.263 45.296C152.989 45.7547 153.554 46.4213 153.959 47.296C154.375 48.16 154.583 49.1947 154.583 50.4C154.583 51.6053 154.375 52.6453 153.959 53.52C153.554 54.384 152.989 55.0453 152.263 55.504C151.538 55.9627 150.711 56.192 149.783 56.192ZM149.783 54C150.466 54 150.999 53.7067 151.383 53.12C151.778 52.5333 151.975 51.6267 151.975 50.4C151.975 49.1733 151.778 48.2667 151.383 47.68C150.999 47.0933 150.466 46.8 149.783 46.8C149.111 46.8 148.578 47.0933 148.183 47.68C147.799 48.2667 147.607 49.1733 147.607 50.4C147.607 51.6267 147.799 52.5333 148.183 53.12C148.578 53.7067 149.111 54 149.783 54ZM161.187 53.984C161.731 53.8027 162.152 53.44 162.451 52.896L164.387 53.952C164.12 54.5493 163.704 55.0347 163.139 55.408C162.584 55.7813 161.933 56.0107 161.187 56.096V57.92H159.587V56.048C158.829 55.9307 158.157 55.6747 157.571 55.28C156.995 54.8747 156.541 54.368 156.211 53.76C155.891 53.1413 155.731 52.4533 155.731 51.696C155.731 50.9387 155.891 50.256 156.211 49.648C156.541 49.0293 156.995 48.5227 157.571 48.128C158.157 47.7227 158.829 47.4613 159.587 47.344V45.472H161.187V47.296C161.944 47.3813 162.6 47.6107 163.155 47.984C163.709 48.3573 164.12 48.848 164.387 49.456L162.451 50.496C162.141 49.9413 161.72 49.5787 161.187 49.408V53.984ZM158.259 51.696C158.259 52.2293 158.376 52.688 158.611 53.072C158.856 53.456 159.181 53.7333 159.587 53.904V49.488C159.181 49.6587 158.856 49.936 158.611 50.32C158.376 50.704 158.259 51.1627 158.259 51.696Z" fill="#369CB7"/>
<defs>
<clipPath id="clip0_10_358">
<rect width="40" height="40" fill="white" transform="translate(79)"/>
</clipPath>
<clipPath id="clip1_10_358">
<rect width="40" height="40" fill="white" transform="translate(129)"/>
</clipPath>
</defs>
</svg>
