<svg width="474" height="96" viewBox="0 0 474 96" fill="none" xmlns="http://www.w3.org/2000/svg">
<path d="M5 1H49V-1H5V1ZM53 5V25H55V5H53ZM49 29H5V31H49V29ZM1 25V5H-1V25H1ZM5 29C2.79086 29 1 27.2091 1 25H-1C-1 28.3137 1.68629 31 5 31V29ZM53 25C53 27.2091 51.2091 29 49 29V31C52.3137 31 55 28.3137 55 25H53ZM49 1C51.2091 1 53 2.79086 53 5H55C55 1.68629 52.3137 -1 49 -1V1ZM5 -1C1.68629 -1 -1 1.68629 -1 5H1C1 2.79086 2.79086 1 5 1V-1Z" fill="#2F2F2F"/>
<path d="M84 5C84 2.23858 86.2386 0 89 0H133C135.761 0 138 2.23858 138 5V25C138 27.7614 135.761 30 133 30H89C86.2386 30 84 27.7614 84 25V5Z" fill="white"/>
<path d="M89 1H133V-1H89V1ZM137 5V25H139V5H137ZM133 29H89V31H133V29ZM85 25V5H83V25H85ZM89 29C86.7909 29 85 27.2091 85 25H83C83 28.3137 85.6863 31 89 31V29ZM137 25C137 27.2091 135.209 29 133 29V31C136.314 31 139 28.3137 139 25H137ZM133 1C135.209 1 137 2.79086 137 5H139C139 1.68629 136.314 -1 133 -1V1ZM89 -1C85.6863 -1 83 1.68629 83 5H85C85 2.79086 86.7909 1 89 1V-1Z" fill="#2F2F2F"/>
<path d="M173 1H217V-1H173V1ZM221 5V25H223V5H221ZM217 29H173V31H217V29ZM169 25V5H167V25H169ZM173 29C170.791 29 169 27.2091 169 25H167C167 28.3137 169.686 31 173 31V29ZM221 25C221 27.2091 219.209 29 217 29V31C220.314 31 223 28.3137 223 25H221ZM217 1C219.209 1 221 2.79086 221 5H223C223 1.68629 220.314 -1 217 -1V1ZM173 -1C169.686 -1 167 1.68629 167 5H169C169 2.79086 170.791 1 173 1V-1Z" fill="#2F2F2F"/>
<path d="M252 5C252 2.23858 254.239 0 257 0H301C303.761 0 306 2.23858 306 5V25C306 27.7614 303.761 30 301 30H257C254.239 30 252 27.7614 252 25V5Z" fill="white"/>
<path d="M257 1H301V-1H257V1ZM305 5V25H307V5H305ZM301 29H257V31H301V29ZM253 25V5H251V25H253ZM257 29C254.791 29 253 27.2091 253 25H251C251 28.3137 253.686 31 257 31V29ZM305 25C305 27.2091 303.209 29 301 29V31C304.314 31 307 28.3137 307 25H305ZM301 1C303.209 1 305 2.79086 305 5H307C307 1.68629 304.314 -1 301 -1V1ZM257 -1C253.686 -1 251 1.68629 251 5H253C253 2.79086 254.791 1 257 1V-1Z" fill="#2F2F2F"/>
<path d="M336 5C336 2.23858 338.239 0 341 0H385C387.761 0 390 2.23858 390 5V25C390 27.7614 387.761 30 385 30H341C338.239 30 336 27.7614 336 25V5Z" fill="white"/>
<path d="M341 1H385V-1H341V1ZM389 5V25H391V5H389ZM385 29H341V31H385V29ZM337 25V5H335V25H337ZM341 29C338.791 29 337 27.2091 337 25H335C335 28.3137 337.686 31 341 31V29ZM389 25C389 27.2091 387.209 29 385 29V31C388.314 31 391 28.3137 391 25H389ZM385 1C387.209 1 389 2.79086 389 5H391C391 1.68629 388.314 -1 385 -1V1ZM341 -1C337.686 -1 335 1.68629 335 5H337C337 2.79086 338.791 1 341 1V-1Z" fill="#2F2F2F"/>
<path d="M425 1H469V-1H425V1ZM473 5V25H475V5H473ZM469 29H425V31H469V29ZM421 25V5H419V25H421ZM425 29C422.791 29 421 27.2091 421 25H419C419 28.3137 421.686 31 425 31V29ZM473 25C473 27.2091 471.209 29 469 29V31C472.314 31 475 28.3137 475 25H473ZM469 1C471.209 1 473 2.79086 473 5H475C475 1.68629 472.314 -1 469 -1V1ZM425 -1C421.686 -1 419 1.68629 419 5H421C421 2.79086 422.791 1 425 1V-1Z" fill="#2F2F2F"/>
<path d="M0 5C0 2.23858 2.23858 0 5 0H49C51.7614 0 54 2.23858 54 5V25C54 27.7614 51.7614 30 49 30H5C2.23858 30 0 27.7614 0 25V5Z" fill="#369CB7"/>
<path d="M17.2944 8.4V21H15.5124V9.966H12.6684V8.4H17.2944ZM28.9065 19.434V21H19.8525V19.776L24.9825 14.826C25.6065 14.226 26.0265 13.71 26.2425 13.278C26.4585 12.834 26.5665 12.39 26.5665 11.946C26.5665 11.286 26.3325 10.776 25.8645 10.416C25.4085 10.044 24.7485 9.858 23.8845 9.858C22.4925 9.858 21.4185 10.314 20.6625 11.226L19.4385 10.164C19.9305 9.564 20.5725 9.096 21.3645 8.76C22.1685 8.424 23.0625 8.256 24.0465 8.256C25.3665 8.256 26.4165 8.574 27.1965 9.21C27.9765 9.834 28.3665 10.686 28.3665 11.766C28.3665 12.438 28.2225 13.074 27.9345 13.674C27.6465 14.274 27.1005 14.958 26.2965 15.726L22.4445 19.434H28.9065ZM35.4817 21.144C34.4857 21.144 33.5977 20.892 32.8177 20.388C32.0497 19.872 31.4437 19.128 30.9997 18.156C30.5557 17.184 30.3337 16.032 30.3337 14.7C30.3337 13.368 30.5557 12.216 30.9997 11.244C31.4437 10.272 32.0497 9.534 32.8177 9.03C33.5977 8.514 34.4857 8.256 35.4817 8.256C36.4657 8.256 37.3417 8.514 38.1097 9.03C38.8897 9.534 39.5017 10.272 39.9457 11.244C40.3897 12.216 40.6117 13.368 40.6117 14.7C40.6117 16.032 40.3897 17.184 39.9457 18.156C39.5017 19.128 38.8897 19.872 38.1097 20.388C37.3417 20.892 36.4657 21.144 35.4817 21.144ZM35.4817 19.542C36.4897 19.542 37.2937 19.128 37.8937 18.3C38.5057 17.472 38.8117 16.272 38.8117 14.7C38.8117 13.128 38.5057 11.928 37.8937 11.1C37.2937 10.272 36.4897 9.858 35.4817 9.858C34.4617 9.858 33.6457 10.272 33.0337 11.1C32.4337 11.928 32.1337 13.128 32.1337 14.7C32.1337 16.272 32.4337 17.472 33.0337 18.3C33.6457 19.128 34.4617 19.542 35.4817 19.542Z" fill="white"/>
<path d="M5 1H49V-1H5V1ZM53 5V25H55V5H53ZM49 29H5V31H49V29ZM1 25V5H-1V25H1ZM5 29C2.79086 29 1 27.2091 1 25H-1C-1 28.3137 1.68629 31 5 31V29ZM53 25C53 27.2091 51.2091 29 49 29V31C52.3137 31 55 28.3137 55 25H53ZM49 1C51.2091 1 53 2.79086 53 5H55C55 1.68629 52.3137 -1 49 -1V1ZM5 -1C1.68629 -1 -1 1.68629 -1 5H1C1 2.79086 2.79086 1 5 1V-1Z" fill="#369CB7"/>
<path d="M420 5C420 2.23858 422.239 0 425 0H469C471.761 0 474 2.23858 474 5V25C474 27.7614 471.761 30 469 30H425C422.239 30 420 27.7614 420 25V5Z" fill="#369CB7"/>
<path d="M445.838 8.4V9.624L440.744 21H438.836L443.822 9.966H438.062V12.216H436.334V8.4H445.838ZM452.212 21.144C451.216 21.144 450.328 20.892 449.548 20.388C448.78 19.872 448.174 19.128 447.73 18.156C447.286 17.184 447.064 16.032 447.064 14.7C447.064 13.368 447.286 12.216 447.73 11.244C448.174 10.272 448.78 9.534 449.548 9.03C450.328 8.514 451.216 8.256 452.212 8.256C453.196 8.256 454.072 8.514 454.84 9.03C455.62 9.534 456.232 10.272 456.676 11.244C457.12 12.216 457.342 13.368 457.342 14.7C457.342 16.032 457.12 17.184 456.676 18.156C456.232 19.128 455.62 19.872 454.84 20.388C454.072 20.892 453.196 21.144 452.212 21.144ZM452.212 19.542C453.22 19.542 454.024 19.128 454.624 18.3C455.236 17.472 455.542 16.272 455.542 14.7C455.542 13.128 455.236 11.928 454.624 11.1C454.024 10.272 453.22 9.858 452.212 9.858C451.192 9.858 450.376 10.272 449.764 11.1C449.164 11.928 448.864 13.128 448.864 14.7C448.864 16.272 449.164 17.472 449.764 18.3C450.376 19.128 451.192 19.542 452.212 19.542Z" fill="white"/>
<path d="M425 1H469V-1H425V1ZM473 5V25H475V5H473ZM469 29H425V31H469V29ZM421 25V5H419V25H421ZM425 29C422.791 29 421 27.2091 421 25H419C419 28.3137 421.686 31 425 31V29ZM473 25C473 27.2091 471.209 29 469 29V31C472.314 31 475 28.3137 475 25H473ZM469 1C471.209 1 473 2.79086 473 5H475C475 1.68629 472.314 -1 469 -1V1ZM425 -1C421.686 -1 419 1.68629 419 5H421C421 2.79086 422.791 1 425 1V-1Z" fill="#369CB7"/>
<path d="M84 5C84 2.23858 86.2386 0 89 0H133C135.761 0 138 2.23858 138 5V25C138 27.7614 135.761 30 133 30H89C86.2386 30 84 27.7614 84 25V5Z" fill="#369CB7"/>
<path d="M103.105 8.4V21H101.323V9.966H98.479V8.4H103.105ZM109.767 8.4V21H107.985V9.966H105.141V8.4H109.767ZM117.671 21.144C116.675 21.144 115.787 20.892 115.007 20.388C114.239 19.872 113.633 19.128 113.189 18.156C112.745 17.184 112.523 16.032 112.523 14.7C112.523 13.368 112.745 12.216 113.189 11.244C113.633 10.272 114.239 9.534 115.007 9.03C115.787 8.514 116.675 8.256 117.671 8.256C118.655 8.256 119.531 8.514 120.299 9.03C121.079 9.534 121.691 10.272 122.135 11.244C122.579 12.216 122.801 13.368 122.801 14.7C122.801 16.032 122.579 17.184 122.135 18.156C121.691 19.128 121.079 19.872 120.299 20.388C119.531 20.892 118.655 21.144 117.671 21.144ZM117.671 19.542C118.679 19.542 119.483 19.128 120.083 18.3C120.695 17.472 121.001 16.272 121.001 14.7C121.001 13.128 120.695 11.928 120.083 11.1C119.483 10.272 118.679 9.858 117.671 9.858C116.651 9.858 115.835 10.272 115.223 11.1C114.623 11.928 114.323 13.128 114.323 14.7C114.323 16.272 114.623 17.472 115.223 18.3C115.835 19.128 116.651 19.542 117.671 19.542Z" fill="white"/>
<path d="M89 1H133V-1H89V1ZM137 5V25H139V5H137ZM133 29H89V31H133V29ZM85 25V5H83V25H85ZM89 29C86.7909 29 85 27.2091 85 25H83C83 28.3137 85.6863 31 89 31V29ZM137 25C137 27.2091 135.209 29 133 29V31C136.314 31 139 28.3137 139 25H137ZM133 1C135.209 1 137 2.79086 137 5H139C139 1.68629 136.314 -1 133 -1V1ZM89 -1C85.6863 -1 83 1.68629 83 5H85C85 2.79086 86.7909 1 89 1V-1Z" fill="#369CB7"/>
<path d="M336 5C336 2.23858 338.239 0 341 0H385C387.761 0 390 2.23858 390 5V25C390 27.7614 387.761 30 385 30H341C338.239 30 336 27.7614 336 25V5Z" fill="#369CB7"/>
<path d="M359.773 14.394C360.493 14.67 361.045 15.066 361.429 15.582C361.813 16.098 362.005 16.716 362.005 17.436C362.005 18.192 361.801 18.852 361.393 19.416C360.985 19.968 360.403 20.394 359.647 20.694C358.891 20.994 358.003 21.144 356.983 21.144C355.975 21.144 355.093 20.994 354.337 20.694C353.593 20.394 353.017 19.968 352.609 19.416C352.201 18.852 351.997 18.192 351.997 17.436C351.997 16.716 352.183 16.098 352.555 15.582C352.939 15.066 353.491 14.67 354.211 14.394C353.635 14.118 353.197 13.752 352.897 13.296C352.597 12.84 352.447 12.3 352.447 11.676C352.447 10.98 352.633 10.374 353.005 9.858C353.389 9.342 353.923 8.946 354.607 8.67C355.291 8.394 356.083 8.256 356.983 8.256C357.895 8.256 358.693 8.394 359.377 8.67C360.073 8.946 360.607 9.342 360.979 9.858C361.363 10.374 361.555 10.98 361.555 11.676C361.555 12.288 361.399 12.828 361.087 13.296C360.787 13.752 360.349 14.118 359.773 14.394ZM356.983 9.714C356.131 9.714 355.459 9.9 354.967 10.272C354.475 10.632 354.229 11.124 354.229 11.748C354.229 12.372 354.469 12.864 354.949 13.224C355.441 13.584 356.119 13.764 356.983 13.764C357.859 13.764 358.543 13.584 359.035 13.224C359.539 12.864 359.791 12.372 359.791 11.748C359.791 11.124 359.533 10.632 359.017 10.272C358.513 9.9 357.835 9.714 356.983 9.714ZM356.983 19.686C357.979 19.686 358.765 19.482 359.341 19.074C359.917 18.654 360.205 18.09 360.205 17.382C360.205 16.686 359.917 16.14 359.341 15.744C358.765 15.336 357.979 15.132 356.983 15.132C355.987 15.132 355.207 15.336 354.643 15.744C354.079 16.14 353.797 16.686 353.797 17.382C353.797 18.09 354.079 18.654 354.643 19.074C355.207 19.482 355.987 19.686 356.983 19.686ZM368.801 21.144C367.805 21.144 366.917 20.892 366.137 20.388C365.369 19.872 364.763 19.128 364.319 18.156C363.875 17.184 363.653 16.032 363.653 14.7C363.653 13.368 363.875 12.216 364.319 11.244C364.763 10.272 365.369 9.534 366.137 9.03C366.917 8.514 367.805 8.256 368.801 8.256C369.785 8.256 370.661 8.514 371.429 9.03C372.209 9.534 372.821 10.272 373.265 11.244C373.709 12.216 373.931 13.368 373.931 14.7C373.931 16.032 373.709 17.184 373.265 18.156C372.821 19.128 372.209 19.872 371.429 20.388C370.661 20.892 369.785 21.144 368.801 21.144ZM368.801 19.542C369.809 19.542 370.613 19.128 371.213 18.3C371.825 17.472 372.131 16.272 372.131 14.7C372.131 13.128 371.825 11.928 371.213 11.1C370.613 10.272 369.809 9.858 368.801 9.858C367.781 9.858 366.965 10.272 366.353 11.1C365.753 11.928 365.453 13.128 365.453 14.7C365.453 16.272 365.753 17.472 366.353 18.3C366.965 19.128 367.781 19.542 368.801 19.542Z" fill="white"/>
<path d="M341 1H385V-1H341V1ZM389 5V25H391V5H389ZM385 29H341V31H385V29ZM337 25V5H335V25H337ZM341 29C338.791 29 337 27.2091 337 25H335C335 28.3137 337.686 31 341 31V29ZM389 25C389 27.2091 387.209 29 385 29V31C388.314 31 391 28.3137 391 25H389ZM385 1C387.209 1 389 2.79086 389 5H391C391 1.68629 388.314 -1 385 -1V1ZM341 -1C337.686 -1 335 1.68629 335 5H337C337 2.79086 338.791 1 341 1V-1Z" fill="#369CB7"/>
<path d="M168 5C168 2.23858 170.239 0 173 0H217C219.761 0 222 2.23858 222 5V25C222 27.7614 219.761 30 217 30H173C170.239 30 168 27.7614 168 25V5Z" fill="#369CB7"/>
<path d="M184.433 8.4V21H182.651V9.966H179.807V8.4H184.433ZM192.337 21.144C191.341 21.144 190.453 20.892 189.673 20.388C188.905 19.872 188.299 19.128 187.855 18.156C187.411 17.184 187.189 16.032 187.189 14.7C187.189 13.368 187.411 12.216 187.855 11.244C188.299 10.272 188.905 9.534 189.673 9.03C190.453 8.514 191.341 8.256 192.337 8.256C193.321 8.256 194.197 8.514 194.965 9.03C195.745 9.534 196.357 10.272 196.801 11.244C197.245 12.216 197.467 13.368 197.467 14.7C197.467 16.032 197.245 17.184 196.801 18.156C196.357 19.128 195.745 19.872 194.965 20.388C194.197 20.892 193.321 21.144 192.337 21.144ZM192.337 19.542C193.345 19.542 194.149 19.128 194.749 18.3C195.361 17.472 195.667 16.272 195.667 14.7C195.667 13.128 195.361 11.928 194.749 11.1C194.149 10.272 193.345 9.858 192.337 9.858C191.317 9.858 190.501 10.272 189.889 11.1C189.289 11.928 188.989 13.128 188.989 14.7C188.989 16.272 189.289 17.472 189.889 18.3C190.501 19.128 191.317 19.542 192.337 19.542ZM204.343 21.144C203.347 21.144 202.459 20.892 201.679 20.388C200.911 19.872 200.305 19.128 199.861 18.156C199.417 17.184 199.195 16.032 199.195 14.7C199.195 13.368 199.417 12.216 199.861 11.244C200.305 10.272 200.911 9.534 201.679 9.03C202.459 8.514 203.347 8.256 204.343 8.256C205.327 8.256 206.203 8.514 206.971 9.03C207.751 9.534 208.363 10.272 208.807 11.244C209.251 12.216 209.473 13.368 209.473 14.7C209.473 16.032 209.251 17.184 208.807 18.156C208.363 19.128 207.751 19.872 206.971 20.388C206.203 20.892 205.327 21.144 204.343 21.144ZM204.343 19.542C205.351 19.542 206.155 19.128 206.755 18.3C207.367 17.472 207.673 16.272 207.673 14.7C207.673 13.128 207.367 11.928 206.755 11.1C206.155 10.272 205.351 9.858 204.343 9.858C203.323 9.858 202.507 10.272 201.895 11.1C201.295 11.928 200.995 13.128 200.995 14.7C200.995 16.272 201.295 17.472 201.895 18.3C202.507 19.128 203.323 19.542 204.343 19.542Z" fill="white"/>
<path d="M173 1H217V-1H173V1ZM221 5V25H223V5H221ZM217 29H173V31H217V29ZM169 25V5H167V25H169ZM173 29C170.791 29 169 27.2091 169 25H167C167 28.3137 169.686 31 173 31V29ZM221 25C221 27.2091 219.209 29 217 29V31C220.314 31 223 28.3137 223 25H221ZM217 1C219.209 1 221 2.79086 221 5H223C223 1.68629 220.314 -1 217 -1V1ZM173 -1C169.686 -1 167 1.68629 167 5H169C169 2.79086 170.791 1 173 1V-1Z" fill="#369CB7"/>
<path d="M252 5C252 2.23858 254.239 0 257 0H301C303.761 0 306 2.23858 306 5V25C306 27.7614 303.761 30 301 30H257C254.239 30 252 27.7614 252 25V5Z" fill="#369CB7"/>
<path d="M272.392 8.256C274.084 8.256 275.386 8.802 276.298 9.894C277.222 10.986 277.684 12.534 277.684 14.538C277.684 15.942 277.432 17.142 276.928 18.138C276.436 19.122 275.74 19.872 274.84 20.388C273.952 20.892 272.914 21.144 271.726 21.144C271.114 21.144 270.538 21.084 269.998 20.964C269.458 20.832 268.99 20.646 268.594 20.406L269.278 19.002C269.89 19.398 270.7 19.596 271.708 19.596C273.016 19.596 274.036 19.194 274.768 18.39C275.512 17.574 275.884 16.392 275.884 14.844V14.394C275.524 14.934 275.026 15.348 274.39 15.636C273.754 15.912 273.04 16.05 272.248 16.05C271.42 16.05 270.676 15.894 270.016 15.582C269.368 15.27 268.858 14.826 268.486 14.25C268.126 13.662 267.946 12.99 267.946 12.234C267.946 11.442 268.138 10.746 268.522 10.146C268.918 9.546 269.452 9.084 270.124 8.76C270.796 8.424 271.552 8.256 272.392 8.256ZM272.554 14.592C273.118 14.592 273.622 14.484 274.066 14.268C274.51 14.052 274.852 13.758 275.092 13.386C275.344 13.014 275.47 12.6 275.47 12.144C275.47 11.7 275.35 11.298 275.11 10.938C274.882 10.566 274.54 10.272 274.084 10.056C273.64 9.828 273.1 9.714 272.464 9.714C271.636 9.714 270.964 9.936 270.448 10.38C269.944 10.824 269.692 11.418 269.692 12.162C269.692 12.906 269.95 13.5 270.466 13.944C270.982 14.376 271.678 14.592 272.554 14.592ZM284.564 21.144C283.568 21.144 282.68 20.892 281.9 20.388C281.132 19.872 280.526 19.128 280.082 18.156C279.638 17.184 279.416 16.032 279.416 14.7C279.416 13.368 279.638 12.216 280.082 11.244C280.526 10.272 281.132 9.534 281.9 9.03C282.68 8.514 283.568 8.256 284.564 8.256C285.548 8.256 286.424 8.514 287.192 9.03C287.972 9.534 288.584 10.272 289.028 11.244C289.472 12.216 289.694 13.368 289.694 14.7C289.694 16.032 289.472 17.184 289.028 18.156C288.584 19.128 287.972 19.872 287.192 20.388C286.424 20.892 285.548 21.144 284.564 21.144ZM284.564 19.542C285.572 19.542 286.376 19.128 286.976 18.3C287.588 17.472 287.894 16.272 287.894 14.7C287.894 13.128 287.588 11.928 286.976 11.1C286.376 10.272 285.572 9.858 284.564 9.858C283.544 9.858 282.728 10.272 282.116 11.1C281.516 11.928 281.216 13.128 281.216 14.7C281.216 16.272 281.516 17.472 282.116 18.3C282.728 19.128 283.544 19.542 284.564 19.542Z" fill="white"/>
<path d="M257 1H301V-1H257V1ZM305 5V25H307V5H305ZM301 29H257V31H301V29ZM253 25V5H251V25H253ZM257 29C254.791 29 253 27.2091 253 25H251C251 28.3137 253.686 31 257 31V29ZM305 25C305 27.2091 303.209 29 301 29V31C304.314 31 307 28.3137 307 25H305ZM301 1C303.209 1 305 2.79086 305 5H307C307 1.68629 304.314 -1 301 -1V1ZM257 -1C253.686 -1 251 1.68629 251 5H253C253 2.79086 254.791 1 257 1V-1Z" fill="#369CB7"/>
<path d="M182.025 87L179.145 82.95C178.821 82.986 178.485 83.004 178.137 83.004H174.753V87H173.421V74.4H178.137C179.745 74.4 181.005 74.784 181.917 75.552C182.829 76.32 183.285 77.376 183.285 78.72C183.285 79.704 183.033 80.538 182.529 81.222C182.037 81.894 181.329 82.38 180.405 82.68L183.483 87H182.025ZM178.101 81.87C179.349 81.87 180.303 81.594 180.963 81.042C181.623 80.49 181.953 79.716 181.953 78.72C181.953 77.7 181.623 76.92 180.963 76.38C180.303 75.828 179.349 75.552 178.101 75.552H174.753V81.87H178.101ZM194.691 77.532V87H193.467V85.272C193.131 85.848 192.669 86.298 192.081 86.622C191.493 86.934 190.821 87.09 190.065 87.09C188.829 87.09 187.851 86.748 187.131 86.064C186.423 85.368 186.069 84.354 186.069 83.022V77.532H187.347V82.896C187.347 83.892 187.593 84.648 188.085 85.164C188.577 85.68 189.279 85.938 190.191 85.938C191.187 85.938 191.973 85.638 192.549 85.038C193.125 84.426 193.413 83.58 193.413 82.5V77.532H194.691ZM198.27 73.644H199.548V87H198.27V73.644ZM211.348 82.662H203.428C203.5 83.646 203.878 84.444 204.562 85.056C205.246 85.656 206.11 85.956 207.154 85.956C207.742 85.956 208.282 85.854 208.774 85.65C209.266 85.434 209.692 85.122 210.052 84.714L210.772 85.542C210.352 86.046 209.824 86.43 209.188 86.694C208.564 86.958 207.874 87.09 207.118 87.09C206.146 87.09 205.282 86.886 204.526 86.478C203.782 86.058 203.2 85.482 202.78 84.75C202.36 84.018 202.15 83.19 202.15 82.266C202.15 81.342 202.348 80.514 202.744 79.782C203.152 79.05 203.704 78.48 204.4 78.072C205.108 77.664 205.9 77.46 206.776 77.46C207.652 77.46 208.438 77.664 209.134 78.072C209.83 78.48 210.376 79.05 210.772 79.782C211.168 80.502 211.366 81.33 211.366 82.266L211.348 82.662ZM206.776 78.558C205.864 78.558 205.096 78.852 204.472 79.44C203.86 80.016 203.512 80.772 203.428 81.708H210.142C210.058 80.772 209.704 80.016 209.08 79.44C208.468 78.852 207.7 78.558 206.776 78.558ZM214.094 79.422C213.83 79.422 213.602 79.326 213.41 79.134C213.23 78.942 213.14 78.708 213.14 78.432C213.14 78.156 213.23 77.928 213.41 77.748C213.602 77.556 213.83 77.46 214.094 77.46C214.358 77.46 214.586 77.556 214.778 77.748C214.97 77.928 215.066 78.156 215.066 78.432C215.066 78.708 214.97 78.942 214.778 79.134C214.586 79.326 214.358 79.422 214.094 79.422ZM214.094 87.09C213.83 87.09 213.602 86.994 213.41 86.802C213.23 86.61 213.14 86.376 213.14 86.1C213.14 85.824 213.23 85.596 213.41 85.416C213.602 85.224 213.83 85.128 214.094 85.128C214.358 85.128 214.586 85.224 214.778 85.416C214.97 85.596 215.066 85.824 215.066 86.1C215.066 86.376 214.97 86.61 214.778 86.802C214.586 86.994 214.358 87.09 214.094 87.09Z" fill="#2F2F2F"/>
<path d="M222.99 81.244H229.782V84.244H222.99V81.244Z" fill="#2F2F2F"/>
<path d="M266.436 74.4V87H264.654V75.966H261.81V74.4H266.436ZM274.34 87.144C273.344 87.144 272.456 86.892 271.676 86.388C270.908 85.872 270.302 85.128 269.858 84.156C269.414 83.184 269.192 82.032 269.192 80.7C269.192 79.368 269.414 78.216 269.858 77.244C270.302 76.272 270.908 75.534 271.676 75.03C272.456 74.514 273.344 74.256 274.34 74.256C275.324 74.256 276.2 74.514 276.968 75.03C277.748 75.534 278.36 76.272 278.804 77.244C279.248 78.216 279.47 79.368 279.47 80.7C279.47 82.032 279.248 83.184 278.804 84.156C278.36 85.128 277.748 85.872 276.968 86.388C276.2 86.892 275.324 87.144 274.34 87.144ZM274.34 85.542C275.348 85.542 276.152 85.128 276.752 84.3C277.364 83.472 277.67 82.272 277.67 80.7C277.67 79.128 277.364 77.928 276.752 77.1C276.152 76.272 275.348 75.858 274.34 75.858C273.32 75.858 272.504 76.272 271.892 77.1C271.292 77.928 270.992 79.128 270.992 80.7C270.992 82.272 271.292 83.472 271.892 84.3C272.504 85.128 273.32 85.542 274.34 85.542Z" fill="#2F2F2F"/>
<path d="M241 67H301V65H241V67ZM305 71V91H307V71H305ZM301 95H241V97H301V95ZM237 91V71H235V91H237ZM241 95C238.791 95 237 93.2091 237 91H235C235 94.3137 237.686 97 241 97V95ZM305 91C305 93.2091 303.209 95 301 95V97C304.314 97 307 94.3137 307 91H305ZM301 67C303.209 67 305 68.7909 305 71H307C307 67.6863 304.314 65 301 65V67ZM241 65C237.686 65 235 67.6863 235 71H237C237 68.7909 238.791 67 241 67V65Z" fill="#2F2F2F"/>
</svg>
